<svg width="442" height="452" viewBox="0 0 442 452" fill="none" xmlns="http://www.w3.org/2000/svg">
<rect width="442" height="452" fill="white"/>
<path d="M272.5 26H169L27.5 166.5V270.5L169 412.5H272.5L414 270.5V166.5L272.5 26Z" fill="url(#paint0_linear_45_82)" stroke="#FFFDE8"/>
<path d="M262.507 64H179.493L66 176.691V260.106L179.493 374H262.507L376 260.106V176.691L262.507 64Z" fill="url(#paint1_linear_45_82)" stroke="#FEFFEA"/>
<path d="M250.457 109H191.543L111 188.974V248.172L191.543 329H250.457L331 248.172V188.974L250.457 109Z" fill="url(#paint2_linear_45_82)" stroke="#DDF4FF"/>
<path d="M414.37 270.528L28 167" stroke="#888686"/>
<path d="M272.527 26L186.777 346.024L169 412.37" stroke="#888686" stroke-opacity="0.82"/>
<path d="M169 26L272.528 412.37" stroke="#888686"/>
<path d="M414.37 167L28 270.528" stroke="#888886"/>
<path d="M238.406 154H203.594L156 201.257V236.238L203.594 284H238.406L286 236.238V201.257L238.406 154Z" fill="url(#paint3_linear_45_82)" stroke="#B9E7FD"/>
<path d="M126.928 212.728H141.136V214.52H126.928V212.728ZM132.96 211.416H134.96V226.44H132.96V211.416ZM132.464 220.552L134.096 221.224C133.723 221.757 133.296 222.269 132.816 222.76C132.347 223.251 131.835 223.715 131.28 224.152C130.736 224.579 130.165 224.968 129.568 225.32C128.981 225.683 128.389 225.992 127.792 226.248C127.685 226.088 127.557 225.907 127.408 225.704C127.259 225.501 127.099 225.304 126.928 225.112C126.757 224.92 126.603 224.76 126.464 224.632C127.051 224.429 127.632 224.184 128.208 223.896C128.784 223.597 129.339 223.272 129.872 222.92C130.405 222.557 130.891 222.179 131.328 221.784C131.776 221.379 132.155 220.968 132.464 220.552ZM135.504 220.616C135.824 221.021 136.208 221.421 136.656 221.816C137.115 222.2 137.611 222.573 138.144 222.936C138.688 223.288 139.253 223.608 139.84 223.896C140.427 224.173 141.013 224.413 141.6 224.616C141.451 224.744 141.285 224.904 141.104 225.096C140.933 225.299 140.768 225.501 140.608 225.704C140.459 225.917 140.331 226.109 140.224 226.28C139.627 226.035 139.035 225.731 138.448 225.368C137.861 225.016 137.291 224.627 136.736 224.2C136.192 223.763 135.68 223.299 135.2 222.808C134.731 222.317 134.309 221.811 133.936 221.288L135.504 220.616ZM130.144 219.176V220.152H137.904V219.176H130.144ZM130.144 216.872V217.832H137.904V216.872H130.144ZM128.272 215.432H139.872V221.592H128.272V215.432Z" fill="black"/>
<path d="M82.744 213.856L84.552 214.432V222.752H82.744V213.856ZM93.896 213.952H95.752V222.624C95.752 223.051 95.704 223.413 95.608 223.712C95.512 224 95.3253 224.224 95.048 224.384C94.7707 224.544 94.44 224.645 94.056 224.688C93.6827 224.731 93.2453 224.752 92.744 224.752C92.7227 224.571 92.6747 224.363 92.6 224.128C92.5253 223.893 92.44 223.659 92.344 223.424C92.2587 223.189 92.168 222.987 92.072 222.816C92.4027 222.827 92.7173 222.837 93.016 222.848C93.3147 222.848 93.5173 222.848 93.624 222.848C93.7307 222.848 93.8 222.827 93.832 222.784C93.8747 222.741 93.896 222.672 93.896 222.576V213.952ZM81.496 222.432C82.1787 222.293 83 222.112 83.96 221.888C84.92 221.653 85.896 221.419 86.888 221.184L87.096 222.8C86.2107 223.045 85.3147 223.285 84.408 223.52C83.5013 223.755 82.6747 223.973 81.928 224.176L81.496 222.432ZM86.648 215.76H88.44V220.048C88.44 220.763 88.3813 221.472 88.264 222.176C88.1573 222.869 87.944 223.541 87.624 224.192C87.304 224.843 86.8293 225.445 86.2 226C85.5707 226.555 84.7333 227.04 83.688 227.456C83.6133 227.317 83.5067 227.152 83.368 226.96C83.24 226.779 83.096 226.603 82.936 226.432C82.7867 226.261 82.648 226.123 82.52 226.016C83.4373 225.653 84.168 225.248 84.712 224.8C85.2667 224.341 85.6827 223.856 85.96 223.344C86.2373 222.821 86.4187 222.283 86.504 221.728C86.6 221.163 86.648 220.592 86.648 220.016V215.76ZM89.704 213.952H94.872V215.696H91.512V227.44H89.704V213.952ZM87.256 212.432L88.968 213.648C88.4667 213.936 87.9387 214.224 87.384 214.512C86.8293 214.789 86.28 215.051 85.736 215.296C85.2027 215.541 84.696 215.749 84.216 215.92L82.984 214.864C83.432 214.661 83.9173 214.427 84.44 214.16C84.9627 213.883 85.4693 213.595 85.96 213.296C86.4613 212.987 86.8933 212.699 87.256 212.432Z" fill="black"/>
<path d="M39.872 183.52H46.48V185.568H39.872V183.52ZM44.896 183.52H47.2C47.3067 184.768 47.4453 185.995 47.616 187.2C47.7973 188.405 48.048 189.552 48.368 190.64C48.6987 191.717 49.1147 192.699 49.616 193.584C50.128 194.459 50.7627 195.2 51.52 195.808C51.3387 195.915 51.1307 196.059 50.896 196.24C50.6613 196.432 50.432 196.629 50.208 196.832C49.9947 197.035 49.808 197.216 49.648 197.376C48.88 196.672 48.2347 195.845 47.712 194.896C47.1893 193.936 46.7627 192.896 46.432 191.776C46.112 190.656 45.8613 189.483 45.68 188.256C45.4987 187.029 45.36 185.792 45.264 184.544H44.896V183.52ZM40.288 186.96L42.512 187.264C42.352 188.192 42.1493 189.136 41.904 190.096C41.6693 191.045 41.376 191.973 41.024 192.88C40.672 193.776 40.256 194.619 39.776 195.408C39.296 196.187 38.7307 196.869 38.08 197.456C37.9627 197.307 37.8027 197.141 37.6 196.96C37.408 196.789 37.2053 196.619 36.992 196.448C36.7893 196.288 36.608 196.155 36.448 196.048C37.056 195.536 37.5787 194.928 38.016 194.224C38.4533 193.509 38.8213 192.747 39.12 191.936C39.4187 191.115 39.6587 190.283 39.84 189.44C40.032 188.587 40.1813 187.76 40.288 186.96ZM38.992 213.432H48.928V215.368H38.992V213.432ZM38.96 208.536H48.928V210.44H38.96V208.536ZM37.968 203.736H50.08V216.392H48.032V205.688H39.904V216.408H37.968V203.736ZM42.656 201.336L45.168 201.672C44.9227 202.269 44.6613 202.851 44.384 203.416C44.1067 203.981 43.856 204.467 43.632 204.872L41.728 204.488C41.8453 204.179 41.9627 203.843 42.08 203.48C42.208 203.117 42.32 202.749 42.416 202.376C42.5227 202.003 42.6027 201.656 42.656 201.336ZM37.792 225.376H50.24V227.264H37.792V225.376ZM36.736 232.864H51.312V234.752H36.736V232.864ZM42.944 220.432H45.008V234.16H42.944V220.432ZM38.928 249.784H49.36V251.288H38.928V249.784ZM39.344 247.208H50.08V248.808H39.344V247.208ZM36.944 252.376H51.104V254.024H36.944V252.376ZM43.072 246.232H45.056V253.512H43.072V246.232ZM40.384 243.624V244.488H47.488V243.624H40.384ZM40.384 241.432V242.264H47.488V241.432H40.384ZM38.496 239.976H49.472V245.944H38.496V239.976ZM39.328 245.784L41.2 246.328C40.9653 246.851 40.6827 247.363 40.352 247.864C40.0213 248.365 39.6693 248.835 39.296 249.272C38.9227 249.709 38.5547 250.088 38.192 250.408C38.064 250.291 37.904 250.157 37.712 250.008C37.52 249.859 37.3227 249.715 37.12 249.576C36.9173 249.427 36.736 249.309 36.576 249.224C37.1307 248.808 37.6533 248.296 38.144 247.688C38.6453 247.069 39.04 246.435 39.328 245.784Z" fill="black"/>
<path d="M391.904 183.936H404.112V185.904H391.904V183.936ZM393.008 189.088H402.832V191.04H393.008V189.088ZM391.008 194.512H404.96V196.464H391.008V194.512ZM391.072 202.056H397.28V203.496H391.072V202.056ZM390.816 209.416H405.168V210.92H390.816V209.416ZM391.248 204.552H396.992V205.976H391.248V204.552ZM394.752 214.504H402.544V215.944H394.752V214.504ZM390.752 207.336C391.328 207.304 391.979 207.267 392.704 207.224C393.44 207.181 394.213 207.139 395.024 207.096C395.835 207.043 396.645 206.989 397.456 206.936L397.44 208.392C396.277 208.477 395.115 208.563 393.952 208.648C392.789 208.723 391.765 208.792 390.88 208.856L390.752 207.336ZM393.296 202.616H395.104V207.608L393.296 207.832V202.616ZM400.544 201.4L402.656 201.576C402.507 201.949 402.357 202.301 402.208 202.632C402.059 202.963 401.92 203.251 401.792 203.496L400.128 203.24C400.213 202.952 400.293 202.643 400.368 202.312C400.453 201.981 400.512 201.677 400.544 201.4ZM399.744 206.2V207.224H402.864V206.2H399.744ZM399.744 203.848V204.856H402.864V203.848H399.744ZM397.984 202.408H404.688V208.664H397.984V202.408ZM395.248 209.704L396.976 210.28C396.56 210.963 396.059 211.603 395.472 212.2C394.885 212.797 394.251 213.336 393.568 213.816C392.885 214.296 392.192 214.707 391.488 215.048C391.413 214.92 391.307 214.76 391.168 214.568C391.029 214.365 390.885 214.168 390.736 213.976C390.587 213.784 390.448 213.629 390.32 213.512C390.981 213.245 391.627 212.92 392.256 212.536C392.885 212.152 393.456 211.72 393.968 211.24C394.491 210.76 394.917 210.248 395.248 209.704ZM393.472 211.912H403.92V216.36H401.856V213.352H395.456V216.44H393.472V211.912ZM390.976 224.144H405.056V226.048H390.976V224.144ZM396.976 220.416H399.024V235.44H396.976V220.416ZM396.56 225.184L398.256 225.76C397.893 226.603 397.477 227.419 397.008 228.208C396.539 228.997 396.021 229.744 395.456 230.448C394.901 231.152 394.304 231.803 393.664 232.4C393.035 232.987 392.373 233.493 391.68 233.92C391.573 233.76 391.435 233.579 391.264 233.376C391.093 233.173 390.917 232.976 390.736 232.784C390.555 232.581 390.389 232.416 390.24 232.288C390.901 231.925 391.541 231.488 392.16 230.976C392.789 230.453 393.381 229.883 393.936 229.264C394.491 228.635 394.987 227.973 395.424 227.28C395.872 226.587 396.251 225.888 396.56 225.184ZM399.392 225.264C399.701 225.947 400.085 226.624 400.544 227.296C401.003 227.968 401.509 228.608 402.064 229.216C402.629 229.824 403.221 230.384 403.84 230.896C404.459 231.408 405.093 231.84 405.744 232.192C405.595 232.309 405.424 232.469 405.232 232.672C405.051 232.864 404.875 233.067 404.704 233.28C404.544 233.493 404.411 233.685 404.304 233.856C403.632 233.429 402.987 232.928 402.368 232.352C401.749 231.765 401.157 231.125 400.592 230.432C400.027 229.728 399.509 228.987 399.04 228.208C398.571 227.429 398.149 226.635 397.776 225.824L399.392 225.264ZM392.928 249.784H403.36V251.288H392.928V249.784ZM393.344 247.208H404.08V248.808H393.344V247.208ZM390.944 252.376H405.104V254.024H390.944V252.376ZM397.072 246.232H399.056V253.512H397.072V246.232ZM394.384 243.624V244.488H401.488V243.624H394.384ZM394.384 241.432V242.264H401.488V241.432H394.384ZM392.496 239.976H403.472V245.944H392.496V239.976ZM393.328 245.784L395.2 246.328C394.965 246.851 394.683 247.363 394.352 247.864C394.021 248.365 393.669 248.835 393.296 249.272C392.923 249.709 392.555 250.088 392.192 250.408C392.064 250.291 391.904 250.157 391.712 250.008C391.52 249.859 391.323 249.715 391.12 249.576C390.917 249.427 390.736 249.309 390.576 249.224C391.131 248.808 391.653 248.296 392.144 247.688C392.645 247.069 393.04 246.435 393.328 245.784Z" fill="black"/>
<path d="M149.959 169.319L160.006 159.273L161.273 160.54L151.226 170.586L149.959 169.319ZM157.313 171.695L162.37 166.638L163.422 167.69L158.365 172.747L157.313 171.695ZM158.874 173.732L164.418 168.188L165.504 169.274L159.96 174.818L158.874 173.732ZM159.689 170.36L160.967 169.082L164.95 173.064L163.671 174.343L159.689 170.36ZM152.505 171.005L160.696 162.814L161.94 164.058L155.107 170.892L161.408 177.194L160.051 178.551L152.505 171.005ZM160.311 163.199L161.703 161.807L167.891 167.996C168.216 168.32 168.419 168.614 168.502 168.878C168.593 169.15 168.57 169.444 168.434 169.76C168.299 170.092 168.068 170.436 167.744 170.79C167.435 171.145 167.05 171.552 166.59 172.012C166.386 171.869 166.13 171.733 165.821 171.605C165.519 171.469 165.244 171.367 164.995 171.299C165.191 171.118 165.391 170.933 165.595 170.745C165.798 170.556 165.979 170.383 166.138 170.224C166.296 170.051 166.402 169.938 166.454 169.885C166.56 169.779 166.617 169.693 166.624 169.625C166.624 169.549 166.583 169.47 166.5 169.387L160.311 163.199ZM156.544 170.066L157.302 168.674C157.618 168.72 157.95 168.803 158.297 168.923C158.652 169.036 158.946 169.15 159.18 169.263L158.422 170.767C158.195 170.632 157.905 170.5 157.55 170.371C157.196 170.243 156.86 170.141 156.544 170.066ZM159.44 166.581L160.899 165.755C161.02 166.178 161.133 166.593 161.239 167C161.344 167.392 161.424 167.75 161.476 168.075L160.221 168.742C160.168 168.524 160.096 168.286 160.006 168.03C159.923 167.766 159.832 167.509 159.734 167.26C159.636 167.011 159.538 166.785 159.44 166.581ZM153.398 164.16L154.88 162.678L158.738 166.536L157.256 168.018L153.398 164.16ZM161.295 157.983L171.342 147.936L172.609 149.203L162.562 159.25L161.295 157.983ZM164.633 152.79L166.047 151.376L176.671 161.999L175.256 163.414L164.633 152.79ZM170.742 159.601L172.371 158.922C172.485 159.563 172.545 160.227 172.552 160.913C172.568 161.592 172.534 162.282 172.451 162.984C172.368 163.67 172.239 164.349 172.066 165.02C171.908 165.691 171.708 166.329 171.466 166.932C171.278 166.894 171.059 166.857 170.81 166.819C170.561 166.781 170.309 166.755 170.052 166.74C169.796 166.725 169.573 166.721 169.385 166.728C169.656 166.17 169.894 165.586 170.097 164.975C170.293 164.356 170.456 163.734 170.584 163.108C170.705 162.474 170.78 161.864 170.81 161.275C170.84 160.672 170.818 160.114 170.742 159.601ZM172.937 157.496C173.45 157.557 174.004 157.568 174.6 157.53C175.196 157.478 175.811 157.391 176.444 157.27C177.078 157.134 177.704 156.961 178.322 156.75C178.933 156.531 179.518 156.286 180.076 156.014C180.061 156.21 180.057 156.44 180.065 156.704C180.087 156.968 180.114 157.229 180.144 157.485C180.189 157.742 180.234 157.968 180.28 158.164C179.684 158.413 179.05 158.616 178.379 158.775C177.715 158.941 177.036 159.069 176.343 159.16C175.649 159.235 174.959 159.269 174.272 159.261C173.593 159.246 172.937 159.186 172.304 159.08L172.937 157.496ZM168.129 160.268L168.819 160.958L174.306 155.471L173.616 154.781L168.129 160.268ZM166.5 158.639L167.178 159.318L172.666 153.831L171.987 153.152L166.5 158.639ZM164.158 158.945L172.36 150.742L176.716 155.098L168.513 163.3L164.158 158.945Z" fill="black"/>
<path d="M113.785 145.701L122.248 137.238L123.56 138.551L115.098 147.013L113.785 145.701ZM117.847 149.876L126.626 141.096L127.86 142.329L119.08 151.109L117.847 149.876ZM117.179 146.47L123.345 140.304L124.567 141.526L118.401 147.692L117.179 146.47ZM113.005 146.482L114.362 145.124L117.802 148.563C118.284 149.046 118.797 149.589 119.34 150.192C119.883 150.796 120.415 151.441 120.936 152.127C121.456 152.813 121.916 153.522 122.316 154.254C122.723 154.978 123.025 155.702 123.221 156.426C123.063 156.434 122.863 156.468 122.621 156.528C122.388 156.581 122.15 156.645 121.909 156.72C121.675 156.788 121.479 156.864 121.32 156.947C121.147 156.275 120.879 155.616 120.517 154.967C120.155 154.318 119.74 153.692 119.273 153.089C118.805 152.485 118.326 151.916 117.836 151.38C117.345 150.845 116.878 150.355 116.433 149.91L113.005 146.482ZM119.827 148.846L121.151 147.522L125.427 151.799L124.103 153.123L119.827 148.846ZM122.814 154.005C123.146 153.583 123.515 153.093 123.922 152.534C124.33 151.961 124.76 151.358 125.212 150.724C125.672 150.083 126.129 149.446 126.581 148.812L127.848 149.921C127.449 150.517 127.037 151.124 126.615 151.742C126.193 152.361 125.782 152.953 125.382 153.519C124.997 154.084 124.639 154.609 124.307 155.091L122.814 154.005ZM123.108 145.565C124.036 146.131 124.96 146.527 125.88 146.753C126.8 146.979 127.731 147.006 128.674 146.832C129.625 146.651 130.605 146.236 131.616 145.588C131.616 145.784 131.631 146.01 131.661 146.267C131.699 146.516 131.744 146.764 131.797 147.013C131.857 147.27 131.921 147.492 131.989 147.681C130.835 148.337 129.723 148.733 128.652 148.869C127.581 148.989 126.51 148.884 125.438 148.552C124.367 148.22 123.247 147.703 122.078 147.002L123.108 145.565ZM126.457 143.755L128.425 143.348C128.342 143.823 128.241 144.317 128.12 144.83C128.007 145.335 127.882 145.829 127.746 146.312C127.611 146.78 127.479 147.213 127.35 147.613L125.767 147.839C125.88 147.439 125.982 146.998 126.072 146.516C126.17 146.025 126.253 145.543 126.321 145.067C126.389 144.577 126.434 144.14 126.457 143.755ZM138.987 145.072L126.146 132.231L127.232 131.145L140.073 143.986L138.987 145.072ZM137.375 129.488L144.084 122.779L145.419 124.114L138.71 130.823L137.375 129.488ZM133.788 125.947L141.233 118.503L146.754 124.024L145.351 125.427L141.165 121.24L135.123 127.282L133.788 125.947ZM132.974 126.762L134.388 125.347L141.674 132.633C141.968 132.927 142.221 133.12 142.432 133.21C142.636 133.293 142.858 133.259 143.099 133.109C143.348 132.95 143.68 132.664 144.095 132.249C144.216 132.128 144.404 131.939 144.661 131.683C144.917 131.427 145.204 131.14 145.521 130.823C145.845 130.499 146.169 130.174 146.494 129.85C146.818 129.526 147.108 129.235 147.365 128.979C147.629 128.715 147.821 128.523 147.942 128.402C148.319 128.025 148.56 127.701 148.666 127.429C148.771 127.142 148.749 126.833 148.598 126.501C148.44 126.162 148.149 125.721 147.727 125.178C147.923 125.132 148.138 125.068 148.372 124.985C148.598 124.895 148.824 124.789 149.05 124.668C149.277 124.548 149.469 124.438 149.627 124.34C150.035 124.868 150.348 125.355 150.566 125.8C150.778 126.237 150.88 126.656 150.872 127.056C150.872 127.448 150.748 127.851 150.499 128.266C150.265 128.681 149.903 129.134 149.412 129.624C149.322 129.714 149.171 129.865 148.96 130.076C148.756 130.28 148.519 130.518 148.247 130.789C147.983 131.053 147.708 131.328 147.421 131.615C147.135 131.902 146.859 132.177 146.595 132.441C146.331 132.705 146.098 132.939 145.894 133.142C145.698 133.339 145.555 133.482 145.464 133.572C144.913 134.123 144.423 134.545 143.993 134.84C143.563 135.134 143.152 135.303 142.76 135.349C142.368 135.394 141.972 135.307 141.572 135.088C141.165 134.862 140.724 134.511 140.248 134.036L132.974 126.762Z" fill="black"/>
<path d="M81.9549 120.762L83.437 119.28C84.3271 120.185 85.1831 121.079 86.0053 121.961C86.8198 122.836 87.5515 123.719 88.2001 124.609C88.8412 125.491 89.3617 126.404 89.7614 127.347C90.1536 128.282 90.3837 129.274 90.4515 130.322C90.5194 131.355 90.3761 132.464 90.0216 133.648C89.8481 133.596 89.6332 133.554 89.3767 133.524C89.1278 133.501 88.8714 133.486 88.6074 133.479C88.3585 133.471 88.136 133.49 87.9399 133.535C88.2869 132.449 88.4339 131.45 88.3811 130.537C88.3359 129.617 88.1398 128.749 87.7928 127.935C87.4383 127.113 86.9632 126.313 86.3673 125.536C85.7714 124.76 85.0926 123.983 84.3308 123.206C83.5766 122.421 82.7846 121.607 81.9549 120.762ZM81.7626 126.204L88.7205 119.246L90.0895 120.615L83.1316 127.573L81.7626 126.204ZM87.9738 119.993L89.3881 118.578L95.2033 124.394C95.4447 124.635 95.6181 124.771 95.7237 124.801C95.8218 124.824 95.9387 124.767 96.0745 124.631C96.1046 124.601 96.1537 124.552 96.2215 124.484C96.2894 124.416 96.3648 124.341 96.4478 124.258C96.5308 124.175 96.6062 124.1 96.6741 124.032C96.7495 123.956 96.8023 123.903 96.8325 123.873C96.9305 123.775 96.9569 123.658 96.9117 123.523C96.8664 123.387 96.7307 123.183 96.5044 122.912C96.2781 122.64 95.9349 122.259 95.4748 121.769C95.6709 121.739 95.8784 121.69 96.0971 121.622C96.3234 121.546 96.5496 121.463 96.7759 121.373C96.9946 121.275 97.1832 121.177 97.3416 121.079C97.9148 121.727 98.3297 122.286 98.5861 122.753C98.835 123.213 98.9331 123.621 98.8803 123.975C98.835 124.337 98.6389 124.692 98.2919 125.039C98.2316 125.099 98.1486 125.182 98.043 125.287C97.9374 125.393 97.8243 125.506 97.7036 125.627C97.583 125.748 97.4698 125.861 97.3642 125.966C97.2662 126.064 97.1907 126.14 97.1379 126.193C96.7684 126.562 96.4176 126.8 96.0858 126.905C95.769 127.011 95.4258 126.977 95.0562 126.804C94.6942 126.623 94.268 126.287 93.7778 125.797L87.9738 119.993ZM101.867 115.467L103.27 114.064L106.438 117.232L105.035 118.635L101.867 115.467ZM96.9682 119.416C97.5188 118.865 98.1449 118.239 98.8463 117.538C99.5402 116.829 100.279 116.074 101.064 115.275C101.841 114.468 102.644 113.642 103.474 112.797C104.296 111.945 105.114 111.104 105.929 110.274L106.936 111.417C106.159 112.254 105.371 113.095 104.571 113.94C103.779 114.777 103.002 115.599 102.24 116.406C101.479 117.198 100.758 117.956 100.08 118.68C99.4007 119.389 98.786 120.027 98.2354 120.592L96.9682 119.416ZM98.0317 112.152L99.7854 111.394C99.7627 112.066 99.7062 112.748 99.6156 113.442C99.5251 114.121 99.4158 114.728 99.2875 115.264L97.7602 115.818C97.8281 115.448 97.8884 115.049 97.9412 114.619C97.994 114.174 98.028 113.74 98.043 113.318C98.0506 112.888 98.0468 112.499 98.0317 112.152ZM101.132 110.433L103.01 109.641C102.912 110.433 102.768 111.255 102.58 112.107C102.399 112.952 102.199 113.778 101.98 114.585C101.761 115.392 101.535 116.131 101.301 116.802L99.7175 117.277C99.9513 116.591 100.166 115.841 100.362 115.026C100.566 114.204 100.736 113.393 100.871 112.594C101 111.786 101.086 111.066 101.132 110.433ZM96.7759 116.961L96.9569 115.196C97.3944 115.015 97.862 114.841 98.3598 114.675C98.8576 114.494 99.3441 114.332 99.8193 114.189C100.287 114.038 100.702 113.917 101.064 113.827L100.973 115.705C100.619 115.773 100.196 115.878 99.7062 116.022C99.2159 116.15 98.7143 116.297 98.2014 116.463C97.6961 116.621 97.2209 116.787 96.7759 116.961ZM105.454 114.89L106.008 113.091C106.445 112.94 106.917 112.801 107.422 112.673C107.92 112.537 108.41 112.416 108.893 112.311C109.376 112.19 109.794 112.096 110.149 112.028L109.651 113.951C109.296 113.989 108.874 114.057 108.384 114.155C107.901 114.26 107.399 114.377 106.879 114.506C106.359 114.619 105.883 114.747 105.454 114.89ZM100.724 118.42L102.512 117.628C102.504 118.073 102.455 118.56 102.365 119.088C102.282 119.608 102.173 120.125 102.037 120.638C101.909 121.143 101.769 121.614 101.618 122.052C101.452 122.052 101.241 122.059 100.985 122.074C100.743 122.089 100.494 122.112 100.238 122.142C99.9965 122.172 99.7891 122.206 99.6156 122.244C99.9023 121.626 100.151 120.969 100.362 120.276C100.574 119.582 100.694 118.963 100.724 118.42ZM103.179 111.824L103.836 110.15C104.333 110.089 104.869 110.044 105.442 110.014C106.023 109.976 106.585 109.957 107.128 109.957C107.671 109.957 108.142 109.984 108.542 110.037L107.841 111.869C107.471 111.802 107.022 111.76 106.494 111.745C105.966 111.715 105.412 111.711 104.831 111.734C104.243 111.749 103.692 111.779 103.179 111.824ZM93.9362 110.455L96.0631 108.328L97.1379 109.403L95.011 111.53L93.9362 110.455ZM95.4748 106.925L96.8212 105.579L99.7062 108.464C99.8872 108.645 100.034 108.732 100.147 108.724C100.261 108.702 100.43 108.577 100.657 108.351C100.709 108.298 100.796 108.211 100.917 108.091C101.037 107.97 101.169 107.838 101.313 107.695C101.456 107.551 101.592 107.416 101.72 107.287C101.848 107.159 101.943 107.065 102.003 107.005C102.131 106.876 102.206 106.763 102.229 106.665C102.252 106.552 102.218 106.42 102.127 106.269C102.029 106.111 101.867 105.903 101.641 105.647C101.867 105.602 102.142 105.507 102.467 105.364C102.783 105.213 103.055 105.062 103.281 104.912C103.643 105.379 103.885 105.786 104.005 106.133C104.119 106.473 104.119 106.79 104.005 107.084C103.892 107.378 103.662 107.698 103.315 108.045C103.255 108.106 103.168 108.192 103.055 108.306C102.949 108.411 102.829 108.532 102.693 108.668C102.557 108.803 102.418 108.943 102.274 109.086C102.139 109.222 102.014 109.346 101.901 109.46C101.795 109.565 101.716 109.644 101.663 109.697C101.203 110.157 100.8 110.463 100.453 110.614C100.113 110.757 99.7816 110.764 99.4573 110.636C99.1329 110.493 98.7709 110.221 98.3711 109.822L95.4748 106.925ZM93.3026 116.022C93.7023 115.546 94.1587 114.992 94.6716 114.358C95.1844 113.71 95.7237 113.027 96.2894 112.311C96.8626 111.587 97.4321 110.866 97.9978 110.15L99.0952 111.179C98.5748 111.881 98.0468 112.59 97.5113 113.306C96.9682 114.015 96.4516 114.698 95.9613 115.354C95.4711 115.995 95.0261 116.583 94.6263 117.119L93.3026 116.022ZM99.6043 103.882L101.562 103.825C101.358 104.346 101.113 104.885 100.826 105.443C100.54 105.986 100.234 106.533 99.9098 107.084C99.5779 107.627 99.2498 108.143 98.9255 108.634C98.7671 108.521 98.5522 108.411 98.2806 108.306C98.0091 108.185 97.7715 108.098 97.5679 108.045C97.8394 107.578 98.1109 107.095 98.3825 106.597C98.654 106.099 98.8953 105.617 99.1065 105.149C99.3177 104.681 99.4837 104.259 99.6043 103.882ZM92.3862 110.014L93.642 108.758L97.4887 112.605L96.3234 113.951L92.3862 110.014ZM91.3793 112.695L92.5446 111.53L95.6558 114.641L94.5924 115.908L91.3793 112.695ZM107.694 97.3087C107.814 98.0479 107.867 98.8851 107.852 99.8203C107.844 100.748 107.765 101.71 107.614 102.705C107.471 103.693 107.256 104.663 106.97 105.613C106.796 105.56 106.592 105.515 106.359 105.477C106.132 105.432 105.899 105.402 105.657 105.387C105.423 105.364 105.208 105.353 105.012 105.353C105.352 104.395 105.593 103.392 105.736 102.343C105.872 101.287 105.925 100.277 105.895 99.3112C105.872 98.3382 105.77 97.4822 105.589 96.743L107.003 95.3288C107.743 95.4495 108.493 95.5211 109.255 95.5438C110.017 95.5664 110.775 95.5324 111.529 95.4419C112.283 95.3514 113.015 95.2157 113.724 95.0346C114.433 94.8536 115.104 94.6273 115.738 94.3558C115.738 94.7028 115.772 95.061 115.84 95.4306C115.907 95.8002 115.979 96.1509 116.054 96.4828C115.398 96.6864 114.701 96.8637 113.961 97.0145C113.23 97.1578 112.494 97.2672 111.755 97.3426C111.009 97.4105 110.288 97.4445 109.594 97.4445C108.9 97.4445 108.267 97.3992 107.694 97.3087ZM106.958 102.23L112.649 96.5394L113.837 97.7273L108.146 103.418L106.958 102.23ZM107.909 105.896L116.292 97.5123L117.469 98.689L109.085 107.072L107.909 105.896ZM110.782 109.901L120.399 100.284L121.564 101.45L111.948 111.066L110.782 109.901ZM109.526 100.612L110.963 99.1755L116.824 105.036L115.387 106.473L109.526 100.612ZM110.228 106.79L110.861 105.251C111.193 105.296 111.54 105.364 111.902 105.455C112.272 105.538 112.623 105.632 112.955 105.737C113.286 105.843 113.565 105.956 113.792 106.077L113.147 107.763C112.928 107.634 112.653 107.51 112.321 107.389C111.982 107.261 111.631 107.144 111.269 107.038C110.907 106.933 110.56 106.85 110.228 106.79ZM115.534 100.601L117.31 99.7751C117.431 100.348 117.544 100.929 117.65 101.517C117.748 102.098 117.816 102.611 117.853 103.056L116.405 103.644C116.352 103.335 116.285 103.003 116.202 102.649C116.111 102.287 116.009 101.928 115.896 101.574C115.775 101.212 115.655 100.888 115.534 100.601ZM121.508 95.5777L128.884 88.2012L129.948 89.2646L122.571 96.6412L121.508 95.5777ZM119.98 93.462L127.572 85.8705L128.703 87.0019L121.112 94.5934L119.98 93.462ZM121.938 98.8134L131.95 88.8008L133.116 89.9661L123.103 99.9787L121.938 98.8134ZM121.926 90.1358L123.329 88.7329L128.477 93.8806L127.074 95.2835L121.926 90.1358ZM118.181 90.1924L118.792 90.8033L123.816 85.78L123.205 85.1691L118.181 90.1924ZM116.631 88.6424L117.22 89.2307L122.243 84.2074L121.655 83.6191L116.631 88.6424ZM114.267 88.9479L122.028 81.1867L126.248 85.4067L118.487 93.1679L114.267 88.9479ZM118.962 92.4664L120.67 91.5274C120.874 92.0629 121.036 92.6248 121.157 93.2131C121.278 93.8014 121.361 94.3822 121.406 94.9554C121.451 95.5287 121.459 96.0566 121.428 96.5394C121.255 96.5469 121.048 96.5658 120.806 96.5959C120.565 96.6261 120.324 96.6638 120.082 96.7091C119.833 96.7468 119.622 96.792 119.449 96.8448C119.547 96.1585 119.554 95.4268 119.471 94.65C119.388 93.858 119.219 93.1302 118.962 92.4664Z" fill="black"/>
<path d="M270.894 146.959L280.94 157.006L279.673 158.273L269.627 148.226L270.894 146.959ZM268.518 154.313L273.575 159.37L272.523 160.422L267.466 155.365L268.518 154.313ZM266.481 155.874L272.025 161.418L270.939 162.504L265.395 156.96L266.481 155.874ZM269.853 156.689L271.131 157.967L267.149 161.95L265.87 160.671L269.853 156.689ZM269.208 149.505L277.399 157.696L276.155 158.94L269.321 152.107L263.019 158.408L261.662 157.051L269.208 149.505ZM277.014 157.311L278.406 158.703L272.217 164.891C271.893 165.216 271.599 165.419 271.335 165.502C271.063 165.593 270.769 165.57 270.453 165.434C270.121 165.299 269.777 165.068 269.423 164.744C269.068 164.435 268.661 164.05 268.201 163.59C268.344 163.386 268.48 163.13 268.608 162.821C268.744 162.519 268.846 162.244 268.914 161.995C269.095 162.191 269.28 162.391 269.468 162.595C269.657 162.798 269.83 162.979 269.989 163.138C270.162 163.296 270.275 163.402 270.328 163.454C270.434 163.56 270.52 163.617 270.588 163.624C270.664 163.624 270.743 163.583 270.826 163.5L277.014 157.311ZM270.147 153.544L271.539 154.302C271.493 154.618 271.41 154.95 271.29 155.297C271.177 155.652 271.063 155.946 270.95 156.18L269.446 155.422C269.581 155.195 269.713 154.905 269.842 154.55C269.97 154.196 270.072 153.86 270.147 153.544ZM273.632 156.44L274.458 157.899C274.035 158.02 273.62 158.133 273.213 158.239C272.821 158.344 272.463 158.424 272.138 158.476L271.471 157.221C271.689 157.168 271.927 157.096 272.184 157.006C272.447 156.923 272.704 156.832 272.953 156.734C273.202 156.636 273.428 156.538 273.632 156.44ZM276.053 150.398L277.535 151.88L273.677 155.738L272.195 154.256L276.053 150.398ZM275.702 167.267L283.373 174.938L282.117 176.194L274.446 168.523L275.702 167.267ZM280.363 160.864L289.697 170.197L282.287 177.608L280.906 176.228L287.061 170.073L280.431 163.443L274.254 169.62L272.93 168.297L280.363 160.864ZM284.957 166.498L286.258 167.799L284.221 169.835C284.078 169.979 283.999 170.08 283.984 170.141C283.984 170.201 284.04 170.288 284.153 170.401C284.176 170.424 284.225 170.473 284.3 170.548C284.383 170.631 284.463 170.71 284.538 170.786C284.621 170.869 284.681 170.929 284.719 170.967C284.787 171.035 284.847 171.072 284.9 171.08C284.968 171.087 285.051 171.057 285.149 170.989C285.255 170.929 285.398 170.816 285.579 170.65C285.594 170.786 285.632 170.952 285.692 171.148C285.768 171.344 285.85 171.54 285.941 171.736C286.047 171.932 286.148 172.102 286.246 172.245C285.847 172.539 285.504 172.732 285.217 172.822C284.93 172.913 284.666 172.913 284.425 172.822C284.191 172.739 283.946 172.569 283.69 172.313C283.629 172.253 283.558 172.181 283.475 172.098C283.392 172.015 283.301 171.925 283.203 171.827C283.113 171.736 283.026 171.649 282.943 171.566C282.86 171.483 282.792 171.415 282.739 171.363C282.377 171.001 282.143 170.676 282.038 170.39C281.94 170.111 281.966 169.828 282.117 169.541C282.268 169.255 282.532 168.923 282.909 168.546L284.957 166.498ZM282.445 157.877L292.616 168.048L291.304 169.36L281.133 159.189L282.445 157.877ZM284.538 161.961L285.873 163.296L283.61 165.559L282.275 164.224L284.538 161.961ZM287.016 164.439L288.385 165.808L286.122 168.07L284.753 166.701L287.016 164.439ZM282.807 163.828L284.074 165.095L282.954 166.215C282.577 166.592 282.14 166.931 281.642 167.233C281.144 167.535 280.578 167.731 279.945 167.821C279.311 167.912 278.598 167.833 277.806 167.584C277.829 167.441 277.837 167.252 277.829 167.018C277.822 166.784 277.803 166.547 277.772 166.305C277.75 166.072 277.72 165.883 277.682 165.74C278.399 165.974 279.006 166.068 279.503 166.023C280.009 165.985 280.439 165.857 280.793 165.638C281.148 165.419 281.457 165.178 281.721 164.914L282.807 163.828Z" fill="black"/>
<path d="M291.07 119.263L301.207 129.4L299.861 130.746L289.724 120.609L291.07 119.263ZM294.713 117.317L303.176 125.78L301.83 127.126L293.367 118.663L294.713 117.317ZM299.872 119.082L301.32 120.53L290.697 131.154L289.249 129.706L299.872 119.082ZM294.362 124.117L295.053 125.78C294.336 125.953 293.589 126.081 292.812 126.164C292.043 126.24 291.266 126.262 290.482 126.232C289.705 126.21 288.939 126.138 288.185 126.017C287.446 125.897 286.737 125.731 286.058 125.52C286.103 125.323 286.137 125.093 286.16 124.829C286.19 124.573 286.209 124.313 286.217 124.049C286.239 123.785 286.243 123.547 286.228 123.336C286.854 123.585 287.514 123.792 288.208 123.958C288.917 124.124 289.63 124.241 290.346 124.309C291.063 124.377 291.76 124.396 292.439 124.366C293.126 124.328 293.767 124.245 294.362 124.117ZM296.286 126.063C296.15 126.651 296.063 127.288 296.026 127.975C296.003 128.661 296.026 129.362 296.093 130.079C296.161 130.795 296.271 131.501 296.422 132.195C296.588 132.889 296.791 133.545 297.033 134.163C296.844 134.141 296.614 134.137 296.342 134.152C296.086 134.167 295.826 134.193 295.562 134.231C295.298 134.269 295.068 134.31 294.872 134.356C294.668 133.684 294.51 132.975 294.396 132.229C294.283 131.482 294.215 130.72 294.193 129.943C294.178 129.159 294.208 128.382 294.283 127.613C294.366 126.851 294.494 126.112 294.668 125.395L296.286 126.063ZM297.141 141.987L309.982 129.146L311.068 130.232L298.227 143.073L297.141 141.987ZM314.331 136.551L323.507 145.726L316.775 152.458L315.361 151.044L320.792 145.613L314.388 139.209L308.901 144.697L307.543 143.339L314.331 136.551ZM312.781 139.888L320.316 147.423L319.061 148.679L311.526 141.144L312.781 139.888ZM310.326 142.321L317.895 149.89L316.594 151.191L309.025 143.622L310.326 142.321ZM319.66 138.847L321.086 140.273L310.462 150.896L309.037 149.471L319.66 138.847Z" fill="black"/>
<path d="M263.713 283.073L267.073 279.713L268.419 281.059L265.059 284.419L263.713 283.073ZM266.745 275.04L268.159 273.626L276.316 281.783C276.633 282.1 276.863 282.277 277.006 282.315C277.142 282.345 277.315 282.255 277.527 282.043C277.572 281.998 277.647 281.923 277.753 281.817C277.859 281.711 277.975 281.595 278.104 281.466C278.232 281.338 278.349 281.221 278.454 281.116C278.56 281.01 278.639 280.931 278.692 280.878C278.843 280.727 278.892 280.55 278.839 280.346C278.786 280.143 278.609 279.86 278.307 279.498C278.006 279.121 277.564 278.619 276.984 277.993C277.18 277.963 277.395 277.914 277.628 277.846C277.87 277.771 278.104 277.688 278.33 277.597C278.549 277.499 278.737 277.401 278.896 277.303C279.574 278.072 280.08 278.736 280.412 279.294C280.751 279.845 280.898 280.339 280.853 280.776C280.823 281.214 280.593 281.647 280.163 282.077C280.102 282.138 280.001 282.239 279.857 282.383C279.714 282.526 279.559 282.681 279.393 282.847C279.235 283.005 279.088 283.152 278.952 283.288C278.816 283.424 278.715 283.525 278.647 283.593C278.217 284.023 277.813 284.299 277.436 284.419C277.074 284.54 276.693 284.498 276.293 284.295C275.886 284.084 275.419 283.714 274.891 283.186L266.745 275.04ZM263.894 277.891L265.308 276.477L275.626 286.795L274.212 288.209L263.894 277.891ZM272.164 272.992L274.37 273.23C274.242 273.886 274.091 274.565 273.918 275.266C273.737 275.96 273.544 276.658 273.341 277.359C273.137 278.046 272.926 278.71 272.707 279.351C272.511 279.245 272.254 279.147 271.938 279.057C271.613 278.958 271.334 278.883 271.1 278.83C271.289 278.204 271.455 277.548 271.598 276.862C271.742 276.175 271.858 275.5 271.949 274.837C272.047 274.165 272.119 273.551 272.164 272.992ZM268.43 288.605C268.649 288.206 268.898 287.738 269.177 287.202C269.449 286.659 269.732 286.082 270.026 285.471C270.312 284.853 270.599 284.242 270.886 283.639L272.368 284.6C272.058 285.422 271.73 286.256 271.383 287.101C271.044 287.938 270.731 288.703 270.444 289.397L268.43 288.605ZM282.267 276.511L289.938 268.84L291.194 270.096L283.523 277.767L282.267 276.511ZM275.864 271.85L285.197 262.516L292.608 269.926L291.228 271.307L285.073 265.152L278.443 271.782L284.62 277.959L283.297 279.283L275.864 271.85ZM281.498 267.256L282.799 265.955L284.835 267.992C284.979 268.135 285.08 268.214 285.141 268.229C285.201 268.229 285.288 268.173 285.401 268.06C285.424 268.037 285.473 267.988 285.548 267.913C285.631 267.83 285.71 267.75 285.786 267.675C285.869 267.592 285.929 267.532 285.967 267.494C286.035 267.426 286.072 267.366 286.08 267.313C286.087 267.245 286.057 267.162 285.989 267.064C285.929 266.958 285.816 266.815 285.65 266.634C285.786 266.619 285.952 266.581 286.148 266.521C286.344 266.446 286.54 266.363 286.736 266.272C286.932 266.166 287.102 266.065 287.245 265.967C287.539 266.366 287.732 266.709 287.822 266.996C287.913 267.283 287.913 267.547 287.822 267.788C287.739 268.022 287.569 268.267 287.313 268.523C287.253 268.584 287.181 268.655 287.098 268.738C287.015 268.821 286.925 268.912 286.827 269.01C286.736 269.1 286.649 269.187 286.566 269.27C286.483 269.353 286.415 269.421 286.363 269.474C286.001 269.836 285.676 270.07 285.39 270.175C285.111 270.273 284.828 270.247 284.541 270.096C284.255 269.945 283.923 269.681 283.546 269.304L281.498 267.256ZM272.877 269.768L283.048 259.597L284.36 260.909L274.189 271.08L272.877 269.768ZM276.961 267.675L278.296 266.34L280.559 268.603L279.224 269.938L276.961 267.675ZM279.439 265.197L280.808 263.828L283.07 266.091L281.701 267.46L279.439 265.197ZM278.828 269.406L280.095 268.139L281.215 269.259C281.592 269.636 281.931 270.073 282.233 270.571C282.535 271.069 282.731 271.635 282.821 272.268C282.912 272.902 282.833 273.615 282.584 274.407C282.441 274.384 282.252 274.376 282.018 274.384C281.784 274.392 281.547 274.41 281.305 274.441C281.072 274.463 280.883 274.493 280.74 274.531C280.974 273.815 281.068 273.207 281.023 272.71C280.985 272.204 280.857 271.774 280.638 271.42C280.419 271.065 280.178 270.756 279.914 270.492L278.828 269.406Z" fill="black"/>
<path d="M288.67 316.441L288.817 314.484C289.345 314.333 289.926 314.182 290.56 314.032C291.193 313.881 291.816 313.756 292.427 313.658C293.03 313.553 293.554 313.496 293.999 313.488L293.886 315.638C293.471 315.631 292.962 315.665 292.359 315.74C291.755 315.815 291.129 315.913 290.481 316.034C289.832 316.155 289.228 316.291 288.67 316.441ZM297.269 315.627L297.619 313.511C298.042 313.39 298.517 313.262 299.045 313.126C299.565 312.983 300.09 312.844 300.618 312.708C301.146 312.572 301.658 312.459 302.156 312.368C302.654 312.263 303.092 312.187 303.469 312.142L303.141 314.507C302.801 314.529 302.39 314.578 301.907 314.654C301.425 314.729 300.916 314.824 300.38 314.937C299.845 315.035 299.309 315.148 298.773 315.276C298.23 315.397 297.729 315.514 297.269 315.627ZM289.949 310.524L291.997 309.744C292.004 310.309 291.997 310.89 291.974 311.486C291.944 312.074 291.906 312.648 291.861 313.206C291.816 313.749 291.755 314.247 291.68 314.699L289.983 315.219C290.036 314.744 290.069 314.235 290.085 313.692C290.1 313.134 290.096 312.58 290.073 312.029C290.058 311.471 290.017 310.969 289.949 310.524ZM284.993 313.941L295.153 303.781L296.42 305.048L286.261 315.208L284.993 313.941ZM288.048 308.352L289.474 306.927L291.295 308.748L289.87 310.174L288.048 308.352ZM293.581 308.816L295.481 308.228C295.655 309.517 295.647 310.83 295.459 312.165C295.27 313.485 294.938 314.797 294.463 316.102C293.98 317.399 293.392 318.681 292.698 319.949C292.434 319.851 292.11 319.768 291.725 319.7C291.34 319.617 290.982 319.568 290.65 319.553C291.359 318.391 291.966 317.203 292.472 315.989C292.97 314.767 293.324 313.545 293.535 312.323C293.746 311.101 293.762 309.932 293.581 308.816ZM296.828 309.28L298.841 308.714C299.09 310.29 299.087 311.856 298.83 313.409C298.574 314.963 298.117 316.513 297.461 318.059C296.805 319.59 295.994 321.118 295.029 322.641C294.742 322.521 294.399 322.411 293.999 322.313C293.614 322.215 293.252 322.155 292.913 322.132C293.871 320.707 294.689 319.27 295.368 317.822C296.039 316.366 296.511 314.922 296.782 313.488C297.061 312.048 297.076 310.645 296.828 309.28ZM310.987 311.072L298.146 298.231L299.232 297.145L312.073 309.986L310.987 311.072ZM311.456 286.618L311.479 284.989C311.796 284.883 312.139 284.789 312.509 284.706C312.886 284.616 313.252 284.544 313.606 284.491C313.961 284.423 314.262 284.393 314.511 284.401L314.534 286.166C314.285 286.143 313.983 286.158 313.629 286.211C313.274 286.249 312.905 286.301 312.52 286.369C312.135 286.437 311.781 286.52 311.456 286.618ZM315.597 288.293L317.317 287.32C318.245 289.349 318.799 291.381 318.98 293.418C319.161 295.454 318.969 297.427 318.403 299.335C318.237 299.29 318.022 299.256 317.758 299.233C317.509 299.21 317.249 299.191 316.978 299.176C316.721 299.161 316.499 299.158 316.31 299.165C316.951 297.393 317.211 295.586 317.091 293.746C316.97 291.89 316.472 290.073 315.597 288.293ZM306.954 293.248L315.597 284.604L316.887 285.894L308.243 294.538L306.954 293.248ZM311.411 295.692L314.194 292.909L315.45 294.164L312.667 296.948L311.411 295.692ZM306.275 293.927L307.632 292.569L310.698 295.635C311.121 296.058 311.566 296.54 312.033 297.083C312.494 297.619 312.935 298.196 313.357 298.814C313.787 299.425 314.153 300.063 314.455 300.726C314.749 301.383 314.937 302.046 315.02 302.718C314.862 302.695 314.654 302.691 314.398 302.706C314.149 302.729 313.896 302.755 313.64 302.785C313.399 302.816 313.195 302.853 313.029 302.899C312.946 302.303 312.776 301.733 312.52 301.19C312.271 300.64 311.966 300.115 311.604 299.618C311.249 299.112 310.876 298.641 310.483 298.203C310.084 297.758 309.703 297.355 309.341 296.993L306.275 293.927ZM308.809 287.614L310.178 286.245C311.158 287.18 312.124 288.063 313.074 288.892C314.025 289.707 314.937 290.438 315.812 291.087C316.68 291.728 317.487 292.249 318.233 292.648C318.98 293.048 319.64 293.301 320.213 293.406C320.786 293.512 321.247 293.429 321.594 293.158C321.759 293.052 321.707 292.803 321.435 292.411C321.164 292.004 320.741 291.483 320.168 290.85C320.447 290.842 320.764 290.804 321.118 290.736C321.48 290.661 321.786 290.582 322.035 290.499C323.015 291.645 323.528 292.573 323.573 293.282C323.626 293.998 323.283 294.545 322.544 294.922C321.971 295.3 321.311 295.462 320.564 295.409C319.825 295.364 319.018 295.137 318.143 294.73C317.268 294.323 316.336 293.768 315.348 293.067C314.353 292.358 313.308 291.547 312.214 290.635C311.121 289.707 309.986 288.7 308.809 287.614Z" fill="black"/>
<path d="M305.716 345.848L313.93 337.635L315.423 339.128L307.21 347.342L305.716 345.848ZM311.339 353.372L321.442 343.269L322.992 344.819L312.889 354.922L311.339 353.372ZM320.017 334.467L320.684 335.134L325.866 329.953L325.198 329.285L320.017 334.467ZM318.388 332.838L319.055 333.505L324.237 328.324L323.569 327.656L318.388 332.838ZM316.068 333.121L323.92 325.269L328.264 329.613L320.413 337.465L316.068 333.121ZM320.639 338.28L329.102 329.817L330.165 330.88L321.703 339.343L320.639 338.28ZM321.34 340.859L331.591 330.609L332.722 331.74L322.472 341.991L321.34 340.859ZM319.7 330.417L321.046 329.07L327.801 335.825L326.454 337.171L319.7 330.417ZM326.285 339.445L327.427 338.099C327.782 338.332 328.159 338.604 328.559 338.913C328.958 339.222 329.279 339.498 329.52 339.739L328.355 341.221C328.106 340.972 327.789 340.678 327.405 340.339C327.028 340.007 326.654 339.709 326.285 339.445ZM328.559 337.261L329.577 335.745C329.984 335.911 330.418 336.111 330.878 336.345C331.331 336.571 331.704 336.786 331.998 336.99L330.946 338.63C330.674 338.419 330.312 338.185 329.86 337.929C329.407 337.672 328.973 337.45 328.559 337.261ZM330.72 334.965L331.579 333.268C331.941 333.283 332.334 333.32 332.756 333.381C333.178 333.426 333.586 333.486 333.978 333.562C334.363 333.63 334.698 333.716 334.985 333.822L334.091 335.666C333.842 335.568 333.522 335.474 333.129 335.383C332.752 335.293 332.349 335.214 331.919 335.146C331.496 335.07 331.097 335.01 330.72 334.965ZM323.818 341.051L325.447 340.056C325.711 340.576 325.926 341.138 326.092 341.742C326.266 342.353 326.345 342.922 326.33 343.45L324.474 344.174C324.527 343.714 324.489 343.201 324.361 342.635C324.233 342.07 324.052 341.542 323.818 341.051ZM330.007 325.472L338.809 316.67L340.144 318.005L331.342 326.808L330.007 325.472ZM334.555 331.514L344.862 321.207L346.197 322.542L335.89 332.849L334.555 331.514ZM330.154 318.334L331.613 316.874L341.321 326.581L339.861 328.041L330.154 318.334ZM345.948 317.18L353.324 309.803L354.388 310.866L347.011 318.243L345.948 317.18ZM344.42 315.064L352.012 307.472L353.143 308.604L345.552 316.195L344.42 315.064ZM346.378 320.415L356.39 310.403L357.556 311.568L347.543 321.581L346.378 320.415ZM346.366 311.738L347.769 310.335L352.917 315.482L351.514 316.885L346.366 311.738ZM342.622 311.794L343.233 312.405L348.256 307.382L347.645 306.771L342.622 311.794ZM341.072 310.244L341.66 310.833L346.683 305.809L346.095 305.221L341.072 310.244ZM338.707 310.55L346.468 302.789L350.688 307.009L342.927 314.77L338.707 310.55ZM343.402 314.068L345.111 313.129C345.314 313.665 345.476 314.227 345.597 314.815C345.718 315.403 345.801 315.984 345.846 316.557C345.891 317.131 345.899 317.658 345.869 318.141C345.695 318.149 345.488 318.168 345.246 318.198C345.005 318.228 344.764 318.266 344.522 318.311C344.273 318.349 344.062 318.394 343.889 318.447C343.987 317.76 343.994 317.029 343.911 316.252C343.828 315.46 343.659 314.732 343.402 314.068Z" fill="black"/>
<path d="M156.927 261.5L160.287 264.86L158.941 266.206L155.581 262.846L156.927 261.5ZM164.96 264.532L166.374 265.946L158.217 274.103C157.9 274.42 157.723 274.65 157.685 274.793C157.655 274.929 157.746 275.102 157.957 275.314C158.002 275.359 158.077 275.434 158.183 275.54C158.289 275.646 158.406 275.762 158.534 275.891C158.662 276.019 158.779 276.136 158.885 276.241C158.99 276.347 159.069 276.426 159.122 276.479C159.273 276.63 159.45 276.679 159.654 276.626C159.857 276.573 160.14 276.396 160.502 276.094C160.879 275.793 161.381 275.351 162.007 274.771C162.037 274.967 162.086 275.182 162.154 275.415C162.23 275.657 162.313 275.891 162.403 276.117C162.501 276.336 162.599 276.524 162.697 276.683C161.928 277.361 161.264 277.867 160.706 278.199C160.155 278.538 159.661 278.685 159.224 278.64C158.786 278.61 158.353 278.38 157.923 277.95C157.862 277.889 157.761 277.788 157.617 277.644C157.474 277.501 157.319 277.346 157.154 277.18C156.995 277.022 156.848 276.875 156.712 276.739C156.577 276.603 156.475 276.502 156.407 276.434C155.977 276.004 155.702 275.6 155.581 275.223C155.46 274.861 155.502 274.48 155.705 274.08C155.917 273.673 156.286 273.206 156.814 272.678L164.96 264.532ZM162.109 261.681L163.523 263.095L153.205 273.413L151.791 271.999L162.109 261.681ZM167.008 269.951L166.77 272.157C166.114 272.029 165.435 271.878 164.734 271.705C164.04 271.524 163.342 271.331 162.641 271.128C161.954 270.924 161.291 270.713 160.649 270.494C160.755 270.298 160.853 270.041 160.944 269.725C161.042 269.4 161.117 269.121 161.17 268.887C161.796 269.076 162.452 269.242 163.138 269.385C163.825 269.529 164.5 269.645 165.164 269.736C165.835 269.834 166.45 269.906 167.008 269.951ZM151.395 266.217C151.795 266.436 152.262 266.685 152.798 266.964C153.341 267.236 153.918 267.518 154.529 267.813C155.147 268.099 155.758 268.386 156.362 268.672L155.4 270.155C154.578 269.845 153.744 269.517 152.9 269.17C152.062 268.831 151.297 268.518 150.603 268.231L151.395 266.217ZM170.017 271.082L180.064 281.129L178.797 282.396L168.75 272.349L170.017 271.082ZM175.21 274.42L176.624 275.834L166.001 286.458L164.587 285.043L175.21 274.42ZM168.399 280.529L169.078 282.158C168.437 282.272 167.773 282.332 167.087 282.339C166.408 282.355 165.718 282.321 165.017 282.238C164.33 282.155 163.651 282.026 162.98 281.853C162.309 281.695 161.671 281.495 161.068 281.253C161.106 281.065 161.143 280.846 161.181 280.597C161.219 280.348 161.245 280.096 161.26 279.839C161.275 279.583 161.279 279.36 161.272 279.172C161.83 279.443 162.414 279.681 163.025 279.884C163.644 280.08 164.266 280.243 164.892 280.371C165.526 280.492 166.137 280.567 166.725 280.597C167.328 280.627 167.886 280.605 168.399 280.529ZM170.504 282.724C170.443 283.237 170.432 283.791 170.47 284.387C170.523 284.983 170.609 285.598 170.73 286.231C170.866 286.865 171.039 287.491 171.25 288.109C171.469 288.72 171.714 289.305 171.986 289.863C171.79 289.848 171.56 289.844 171.296 289.852C171.032 289.874 170.771 289.901 170.515 289.931C170.259 289.976 170.032 290.021 169.836 290.067C169.587 289.471 169.384 288.837 169.225 288.166C169.059 287.502 168.931 286.823 168.841 286.13C168.765 285.436 168.731 284.745 168.739 284.059C168.754 283.38 168.814 282.724 168.92 282.091L170.504 282.724ZM167.732 277.916L167.042 278.606L172.529 284.093L173.219 283.403L167.732 277.916ZM169.361 276.287L168.682 276.965L174.169 282.453L174.848 281.774L169.361 276.287ZM169.056 273.945L177.258 282.147L172.902 286.503L164.7 278.3L169.056 273.945Z" fill="black"/>
<path d="M132.67 290.374L134.005 291.709L129.152 296.563L127.817 295.228L132.67 290.374ZM130.838 287.297L137.06 293.52L135.963 294.617L129.74 288.394L130.838 287.297ZM127.251 292.286L126.629 292.909L131.505 297.785L132.127 297.163L127.251 292.286ZM128.824 290.714L128.213 291.325L133.089 296.201L133.7 295.59L128.824 290.714ZM128.541 288.372L136.11 295.941L131.856 300.195L124.287 292.626L128.541 288.372ZM128.111 297.717L129.808 297.626C130.08 298.185 130.347 298.762 130.611 299.357C130.883 299.961 131.132 300.534 131.358 301.077C131.599 301.62 131.799 302.099 131.958 302.514L129.966 302.469C129.838 302.084 129.676 301.628 129.48 301.1C129.291 300.579 129.08 300.029 128.846 299.448C128.613 298.867 128.367 298.29 128.111 297.717ZM135.872 287.082L137.275 288.485L135.669 290.091L134.266 288.689L135.872 287.082ZM130.962 283.756L140.681 293.474L138.18 295.975L136.789 294.583L138.056 293.316L131.064 286.324L129.797 287.591L128.462 286.256L130.962 283.756ZM126.538 294.334L126.855 296.325C126.342 296.22 125.78 296.05 125.169 295.816C124.559 295.597 123.948 295.334 123.337 295.024C122.726 294.73 122.152 294.413 121.617 294.074C121.677 293.833 121.73 293.531 121.775 293.169C121.828 292.814 121.862 292.501 121.877 292.23C122.367 292.554 122.895 292.863 123.461 293.158C124.042 293.452 124.6 293.701 125.136 293.904C125.686 294.108 126.154 294.251 126.538 294.334ZM133.141 309.987L145.982 297.146L147.068 298.232L134.227 311.073L133.141 309.987ZM151.621 304.098L158.342 310.818L157.018 312.142L150.297 305.422L151.621 304.098ZM142.378 311.531L152.47 321.623L151.157 322.935L141.066 312.844L142.378 311.531ZM146.666 306.994L157.007 317.335L155.672 318.67L145.331 308.329L146.666 306.994ZM153.035 306.96L154.427 308.352C153.839 308.835 153.22 309.333 152.572 309.845C151.923 310.358 151.267 310.871 150.603 311.384C149.947 311.905 149.298 312.41 148.657 312.9C148.016 313.39 147.401 313.847 146.813 314.269C146.24 314.692 145.719 315.069 145.252 315.401L143.837 313.986C144.335 313.654 144.882 313.274 145.478 312.844C146.074 312.414 146.688 311.957 147.322 311.475C147.971 310.992 148.623 310.498 149.279 309.993C149.943 309.48 150.592 308.967 151.225 308.454C151.859 307.941 152.462 307.443 153.035 306.96ZM157.719 310.196L159.134 311.61C158.53 312.184 157.893 312.776 157.221 313.387C156.558 313.99 155.883 314.597 155.196 315.208C154.51 315.819 153.835 316.411 153.171 316.984C152.523 317.558 151.896 318.101 151.293 318.614C150.697 319.119 150.15 319.575 149.653 319.983L148.216 318.546C148.721 318.131 149.279 317.671 149.89 317.165C150.509 316.653 151.15 316.11 151.814 315.536C152.485 314.971 153.16 314.386 153.839 313.783C154.525 313.172 155.193 312.565 155.841 311.961C156.505 311.358 157.131 310.769 157.719 310.196Z" fill="black"/>
<path d="M96.6806 307.859L106.252 317.43L97.0313 326.651L95.5945 325.214L103.503 317.306L96.7371 310.54L88.7383 318.539L87.3694 317.17L96.6806 307.859ZM90.1412 315.846L98.2984 324.004L96.9974 325.305L88.8402 317.147L90.1412 315.846ZM100.878 313.957L102.202 315.281L99.0564 318.426C98.883 318.599 98.7925 318.713 98.7849 318.765C98.7849 318.841 98.8264 318.92 98.9094 319.003C98.9471 319.041 98.9961 319.09 99.0564 319.15C99.1168 319.21 99.1658 319.259 99.2035 319.297C99.2412 319.335 99.2827 319.369 99.328 319.399C99.3808 319.437 99.426 319.459 99.4637 319.467C99.5015 319.474 99.5467 319.474 99.5995 319.467C99.6674 319.459 99.7428 319.422 99.8258 319.354C99.9163 319.293 100.041 319.184 100.199 319.026C100.373 318.867 100.569 318.686 100.787 318.483C100.803 318.709 100.855 318.973 100.946 319.274C101.044 319.584 101.153 319.851 101.274 320.078C101.033 320.289 100.784 320.493 100.527 320.689C100.286 320.885 100.09 321.013 99.9389 321.073C99.773 321.134 99.6146 321.164 99.4637 321.164C99.328 321.164 99.1771 321.134 99.0112 321.073C98.8754 321.028 98.7283 320.949 98.57 320.836C98.4266 320.723 98.2984 320.609 98.1853 320.496C98.1174 320.428 98.0382 320.349 97.9477 320.259C97.8572 320.168 97.7667 320.078 97.6762 319.987C97.5932 319.904 97.5178 319.829 97.4499 319.761C97.299 319.61 97.1671 319.433 97.0539 319.229C96.9408 319.026 96.8767 318.818 96.8616 318.607C96.854 318.403 96.9068 318.192 97.02 317.973C97.1331 317.755 97.382 317.453 97.7667 317.068L100.878 313.957ZM98.6152 311.649L99.9389 312.973C99.1394 313.727 98.355 314.383 97.5857 314.941C96.8163 315.499 96.0319 315.907 95.2324 316.163C94.4329 316.42 93.5693 316.461 92.6416 316.288C92.7245 316.054 92.7811 315.756 92.8113 315.394C92.849 315.024 92.8528 314.704 92.8226 314.432C93.5618 314.583 94.2443 314.549 94.8704 314.33C95.5039 314.104 96.1224 313.757 96.7258 313.29C97.3368 312.814 97.9666 312.268 98.6152 311.649ZM112.87 332.308L113.221 334.016C112.731 334.054 112.229 334.088 111.716 334.118C111.211 334.156 110.77 334.175 110.393 334.175L110.155 332.76C110.419 332.738 110.71 332.704 111.026 332.659C111.351 332.621 111.671 332.572 111.988 332.512C112.32 332.451 112.614 332.383 112.87 332.308ZM107.112 327.952L108.65 328.269C108.635 328.691 108.594 329.148 108.526 329.638C108.466 330.121 108.375 330.52 108.254 330.837L106.591 330.532C106.72 330.222 106.825 329.823 106.908 329.332C107.006 328.842 107.074 328.382 107.112 327.952ZM112.837 322.861L117.611 327.635L113.787 331.459L112.463 330.136L115.19 327.409L111.739 323.958L112.837 322.861ZM111.445 324.796L115.359 328.71L114.307 329.762L110.393 325.848L111.445 324.796ZM108.99 325.644L115.235 331.889L114.104 333.021L107.859 326.775L108.99 325.644ZM110.958 328.631L112.214 329.887L107.123 334.978C106.837 335.265 106.58 335.461 106.354 335.566C106.12 335.679 105.864 335.687 105.584 335.589C105.313 335.513 105.038 335.359 104.759 335.125C104.479 334.906 104.17 334.627 103.831 334.288C103.989 334.099 104.148 333.858 104.306 333.564C104.457 333.277 104.578 333.013 104.668 332.772C104.849 332.968 105.023 333.156 105.188 333.337C105.369 333.518 105.494 333.635 105.562 333.688C105.675 333.801 105.784 333.805 105.89 333.699L110.958 328.631ZM103.446 330.305C103.914 330.441 104.495 330.592 105.188 330.758C105.89 330.916 106.606 331.075 107.338 331.233L106.738 332.67C106.097 332.587 105.445 332.493 104.781 332.387C104.133 332.281 103.522 332.183 102.948 332.093L103.446 330.305ZM111.547 330.464C111.245 330.901 110.962 331.388 110.698 331.923C110.442 332.451 110.227 333.013 110.053 333.609C109.887 334.197 109.801 334.804 109.793 335.43C109.801 336.056 109.918 336.686 110.144 337.32C109.985 337.312 109.789 337.32 109.556 337.342C109.322 337.365 109.088 337.395 108.854 337.433C108.613 337.478 108.405 337.527 108.232 337.58C108.073 336.924 108.024 336.264 108.085 335.6C108.153 334.944 108.288 334.303 108.492 333.677C108.703 333.043 108.948 332.451 109.227 331.901C109.514 331.358 109.797 330.871 110.076 330.441L111.547 330.464ZM110.11 319.32L110.868 320.915C110.423 321.058 109.963 321.202 109.488 321.345C109.02 321.481 108.564 321.613 108.119 321.741C107.681 321.862 107.285 321.956 106.931 322.024L106.399 320.745C106.769 320.647 107.172 320.523 107.61 320.372C108.047 320.221 108.488 320.051 108.933 319.863C109.386 319.682 109.778 319.501 110.11 319.32ZM110.042 321.945L110.653 323.551C109.952 323.694 109.205 323.838 108.413 323.981C107.621 324.124 106.848 324.249 106.094 324.354C105.339 324.46 104.653 324.528 104.034 324.558L103.684 323.347C104.151 323.302 104.657 323.234 105.2 323.144C105.758 323.053 106.32 322.944 106.886 322.816C107.466 322.687 108.028 322.548 108.571 322.397C109.114 322.246 109.605 322.095 110.042 321.945ZM105.72 320.225L107.304 319.976C107.312 320.346 107.312 320.738 107.304 321.153C107.297 321.567 107.274 321.967 107.236 322.352C107.199 322.736 107.131 323.061 107.033 323.325L105.279 323.63C105.377 323.366 105.456 323.038 105.517 322.646C105.584 322.261 105.633 321.858 105.664 321.435C105.701 321.005 105.72 320.602 105.72 320.225ZM106.953 324.264L108.288 324.83C108.19 325.229 108.062 325.644 107.904 326.074C107.745 326.504 107.579 326.911 107.406 327.296C107.24 327.673 107.07 327.994 106.897 328.258L105.415 327.681C105.603 327.432 105.792 327.115 105.98 326.73C106.169 326.346 106.346 325.942 106.512 325.52C106.686 325.09 106.833 324.671 106.953 324.264ZM103.378 322.499C103.906 322.982 104.532 323.547 105.256 324.196C105.988 324.837 106.731 325.489 107.485 326.153L106.399 327.285C105.683 326.674 104.966 326.063 104.249 325.452C103.548 324.841 102.911 324.294 102.337 323.811L103.378 322.499ZM104.43 327.42L105.652 328.077C105.479 328.522 105.256 328.985 104.985 329.468C104.721 329.958 104.472 330.351 104.238 330.645L102.903 329.966C103.152 329.672 103.416 329.287 103.695 328.812C103.989 328.337 104.234 327.873 104.43 327.42ZM102.179 324.671L103.073 325.95C102.469 326.432 101.843 326.877 101.195 327.285C100.561 327.692 99.9842 327.997 99.4637 328.201C99.4411 328.073 99.3996 327.918 99.3393 327.737C99.2789 327.556 99.2111 327.375 99.1356 327.194C99.0678 327.006 99.0036 326.851 98.9433 326.73C99.4487 326.557 99.9842 326.278 100.55 325.893C101.116 325.508 101.659 325.101 102.179 324.671ZM104.487 324.83L105.664 326.006L100.606 331.063L99.4298 329.887L104.487 324.83ZM117.453 331.935L127.409 341.891L126.062 343.237L116.106 333.281L117.453 331.935ZM124.331 333.541L125.779 334.989L115.156 345.613L113.708 344.165L124.331 333.541ZM120.666 336.618L121.458 338.225C120.605 338.564 119.734 338.847 118.844 339.073C117.954 339.3 117.06 339.462 116.163 339.56C115.273 339.666 114.39 339.703 113.515 339.673C112.656 339.643 111.83 339.534 111.038 339.345C111.075 339.156 111.106 338.93 111.128 338.666C111.151 338.402 111.166 338.138 111.173 337.874C111.189 337.603 111.189 337.369 111.173 337.173C111.898 337.384 112.659 337.527 113.459 337.603C114.273 337.678 115.096 337.693 115.925 337.648C116.762 337.595 117.581 337.478 118.38 337.297C119.187 337.124 119.949 336.897 120.666 336.618ZM122.612 338.677C122.348 339.379 122.14 340.129 121.989 340.929C121.838 341.728 121.744 342.539 121.706 343.361C121.676 344.191 121.699 345.006 121.774 345.805C121.85 346.605 121.993 347.359 122.204 348.068C122.016 348.045 121.782 348.038 121.503 348.045C121.239 348.053 120.971 348.072 120.7 348.102C120.436 348.14 120.206 348.181 120.009 348.226C119.836 347.449 119.734 346.639 119.704 345.794C119.681 344.942 119.715 344.07 119.806 343.18C119.904 342.283 120.062 341.393 120.281 340.51C120.5 339.628 120.764 338.768 121.073 337.931L122.612 338.677ZM125.451 349.324L132.828 356.7L131.764 357.764L124.388 350.387L125.451 349.324ZM127.567 347.796L135.158 355.388L134.027 356.519L126.436 348.928L127.567 347.796ZM122.216 349.754L132.228 359.766L131.063 360.932L121.05 350.919L122.216 349.754ZM130.893 349.742L132.296 351.145L127.148 356.293L125.745 354.89L130.893 349.742ZM130.837 345.997L130.226 346.608L135.249 351.632L135.86 351.021L130.837 345.997ZM132.387 344.447L131.798 345.036L136.822 350.059L137.41 349.471L132.387 344.447ZM132.081 342.083L139.842 349.844L135.622 354.064L127.861 346.303L132.081 342.083ZM128.563 346.778L129.502 348.486C128.966 348.69 128.404 348.852 127.816 348.973C127.228 349.094 126.647 349.177 126.074 349.222C125.5 349.267 124.972 349.275 124.49 349.244C124.482 349.071 124.463 348.864 124.433 348.622C124.403 348.381 124.365 348.14 124.32 347.898C124.282 347.649 124.237 347.438 124.184 347.265C124.871 347.363 125.602 347.37 126.379 347.287C127.171 347.204 127.899 347.035 128.563 346.778Z" fill="black"/>
<path d="M311.913 83.7666L323.736 92.4668L322.559 94.096L310.77 85.3618L311.913 83.7666ZM319.21 82.8728L320.693 84.3549L312.886 92.1613C312.637 92.4102 312.467 92.6177 312.377 92.7836C312.302 92.9495 312.302 93.1155 312.377 93.2814C312.46 93.4398 312.626 93.6434 312.875 93.8923C312.95 93.9678 313.063 94.0809 313.214 94.2317C313.365 94.3826 313.535 94.5523 313.723 94.7409C313.912 94.9294 314.1 95.118 314.289 95.3065C314.478 95.4951 314.647 95.6648 314.798 95.8157C314.956 95.9741 315.073 96.091 315.149 96.1664C315.405 96.4228 315.658 96.5548 315.907 96.5624C316.163 96.5624 316.488 96.4266 316.88 96.1551C317.28 95.876 317.826 95.4348 318.52 94.8314C318.543 95.035 318.592 95.2651 318.667 95.5215C318.758 95.778 318.852 96.0231 318.95 96.2569C319.056 96.4983 319.158 96.6981 319.256 96.8565C318.441 97.5504 317.736 98.052 317.14 98.3612C316.552 98.6629 316.005 98.7572 315.5 98.6441C314.994 98.531 314.459 98.1915 313.893 97.6259C313.818 97.5504 313.693 97.426 313.52 97.2525C313.354 97.0866 313.165 96.898 312.954 96.6868C312.75 96.4832 312.543 96.2758 312.332 96.0646C312.121 95.8534 311.932 95.6648 311.766 95.4989C311.6 95.3329 311.479 95.2123 311.404 95.1368C310.831 94.5636 310.45 94.047 310.261 93.5869C310.065 93.1343 310.061 92.678 310.25 92.2179C310.446 91.7654 310.838 91.2449 311.427 90.6566L319.21 82.8728ZM329.302 104.391L331.033 105.059C330.965 105.564 330.871 106.104 330.75 106.677C330.63 107.25 330.498 107.797 330.354 108.317C330.211 108.838 330.057 109.287 329.891 109.664L327.979 108.974C328.145 108.611 328.31 108.174 328.476 107.661C328.642 107.148 328.797 106.601 328.94 106.021C329.091 105.447 329.212 104.904 329.302 104.391ZM332.006 95.2387L333.398 96.6302L329.302 100.726L327.911 99.3342L332.006 95.2387ZM324.041 94.5146L334.246 104.72L332.945 106.021L322.74 95.8157L324.041 94.5146ZM327.628 93.1909L335.74 101.303L334.45 102.593L326.338 94.4806L327.628 93.1909ZM328.997 101.009L330.422 102.434L325.727 107.129C325.388 107.469 325.082 107.699 324.811 107.82C324.532 107.948 324.226 107.952 323.894 107.831C323.57 107.718 323.238 107.522 322.899 107.243C322.567 106.971 322.193 106.628 321.779 106.213C321.96 105.987 322.137 105.696 322.31 105.342C322.476 104.995 322.608 104.682 322.706 104.403C322.948 104.659 323.189 104.916 323.43 105.172C323.679 105.421 323.845 105.579 323.928 105.647C324.011 105.73 324.079 105.775 324.132 105.783C324.192 105.783 324.256 105.749 324.324 105.681L328.997 101.009ZM323.43 97.6372L324.46 99.3682C323.962 99.5794 323.427 99.7679 322.853 99.9339C322.288 100.092 321.722 100.22 321.156 100.319C320.598 100.409 320.067 100.451 319.561 100.443C319.546 100.187 319.501 99.8773 319.425 99.5152C319.358 99.1457 319.293 98.8402 319.233 98.5988C319.693 98.6215 320.168 98.5913 320.659 98.5083C321.164 98.4254 321.658 98.3085 322.141 98.1576C322.623 98.0068 323.053 97.8333 323.43 97.6372ZM326.802 98.316L328.182 99.6963L326.881 100.997C326.481 101.397 326.025 101.801 325.512 102.208C325.007 102.608 324.437 102.958 323.804 103.26C323.178 103.554 322.476 103.758 321.699 103.871C320.938 103.984 320.097 103.95 319.177 103.769C319.214 103.596 319.237 103.385 319.244 103.136C319.252 102.887 319.248 102.634 319.233 102.378C319.226 102.129 319.203 101.91 319.165 101.721C319.95 101.887 320.662 101.929 321.303 101.846C321.952 101.77 322.533 101.612 323.046 101.371C323.566 101.137 324.03 100.862 324.437 100.545C324.852 100.22 325.218 99.8999 325.535 99.5831L326.802 98.316ZM342.72 108.51C341.981 108.63 341.144 108.683 340.209 108.668C339.281 108.66 338.319 108.581 337.324 108.43C336.336 108.287 335.366 108.072 334.416 107.786C334.469 107.612 334.514 107.408 334.552 107.175C334.597 106.948 334.627 106.715 334.642 106.473C334.665 106.239 334.676 106.024 334.676 105.828C335.634 106.168 336.637 106.409 337.686 106.552C338.742 106.688 339.752 106.741 340.718 106.711C341.691 106.688 342.547 106.586 343.286 106.405L344.7 107.82C344.58 108.559 344.508 109.309 344.485 110.071C344.463 110.833 344.497 111.591 344.587 112.345C344.678 113.099 344.813 113.831 344.994 114.54C345.175 115.249 345.402 115.92 345.673 116.554C345.326 116.554 344.968 116.588 344.598 116.656C344.229 116.723 343.878 116.795 343.546 116.87C343.343 116.214 343.165 115.517 343.014 114.777C342.871 114.046 342.762 113.31 342.686 112.571C342.619 111.825 342.585 111.104 342.585 110.41C342.585 109.716 342.63 109.083 342.72 108.51ZM337.799 107.774L343.49 113.465L342.302 114.653L336.611 108.962L337.799 107.774ZM334.133 108.725L342.517 117.108L341.34 118.285L332.957 109.901L334.133 108.725ZM330.128 111.598L339.745 121.215L338.58 122.38L328.963 112.764L330.128 111.598ZM339.417 110.342L340.854 111.779L334.993 117.64L333.556 116.203L339.417 110.342ZM333.239 111.044L334.778 111.677C334.733 112.009 334.665 112.356 334.574 112.718C334.491 113.088 334.397 113.439 334.292 113.771C334.186 114.102 334.073 114.381 333.952 114.608L332.266 113.963C332.395 113.744 332.519 113.469 332.64 113.137C332.768 112.798 332.885 112.447 332.991 112.085C333.096 111.723 333.179 111.376 333.239 111.044ZM339.428 116.35L340.254 118.126C339.681 118.247 339.1 118.36 338.512 118.466C337.931 118.564 337.418 118.632 336.973 118.669L336.385 117.221C336.694 117.168 337.026 117.101 337.38 117.018C337.742 116.927 338.101 116.825 338.455 116.712C338.817 116.591 339.141 116.471 339.428 116.35ZM344.451 122.324L351.828 129.7L350.764 130.764L343.388 123.387L344.451 122.324ZM346.567 120.796L354.158 128.388L353.027 129.519L345.436 121.928L346.567 120.796ZM341.216 122.754L351.228 132.766L350.063 133.932L340.05 123.919L341.216 122.754ZM349.893 122.742L351.296 124.145L346.148 129.293L344.745 127.89L349.893 122.742ZM349.837 118.997L349.226 119.608L354.249 124.632L354.86 124.021L349.837 118.997ZM351.387 117.447L350.798 118.036L355.822 123.059L356.41 122.471L351.387 117.447ZM351.081 115.083L358.842 122.844L354.622 127.064L346.861 119.303L351.081 115.083ZM347.563 119.778L348.502 121.486C347.966 121.69 347.404 121.852 346.816 121.973C346.228 122.094 345.647 122.177 345.074 122.222C344.5 122.267 343.972 122.275 343.49 122.244C343.482 122.071 343.463 121.864 343.433 121.622C343.403 121.381 343.365 121.14 343.32 120.898C343.282 120.649 343.237 120.438 343.184 120.265C343.871 120.363 344.602 120.37 345.379 120.287C346.171 120.204 346.899 120.035 347.563 119.778Z" fill="black"/>
<path d="M213.896 125.728H228.104V127.52H213.896V125.728ZM217.416 132.608H224.568V134.096H217.416V132.608ZM217.08 135.152H224.92V136.688H217.08V135.152ZM220.04 133.344H221.848V138.976H220.04V133.344ZM214.504 128.72H226.088V130.48H216.424V139.392H214.504V128.72ZM225.544 128.72H227.512V137.472C227.512 137.931 227.448 138.283 227.32 138.528C227.192 138.784 226.968 138.976 226.648 139.104C226.317 139.243 225.912 139.323 225.432 139.344C224.963 139.376 224.403 139.392 223.752 139.392C223.709 139.147 223.624 138.869 223.496 138.56C223.379 138.251 223.256 137.984 223.128 137.76C223.395 137.771 223.667 137.781 223.944 137.792C224.221 137.803 224.472 137.808 224.696 137.808C224.931 137.797 225.085 137.792 225.16 137.792C225.309 137.792 225.411 137.771 225.464 137.728C225.517 137.675 225.544 137.589 225.544 137.472V128.72ZM218.024 130.912L219.544 130.464C219.736 130.72 219.912 131.013 220.072 131.344C220.243 131.675 220.371 131.963 220.456 132.208L218.856 132.736C218.792 132.48 218.68 132.181 218.52 131.84C218.36 131.499 218.195 131.189 218.024 130.912ZM222.536 130.496L224.152 130.944C223.939 131.328 223.725 131.701 223.512 132.064C223.309 132.416 223.112 132.725 222.92 132.992L221.56 132.576C221.677 132.384 221.795 132.165 221.912 131.92C222.04 131.675 222.157 131.429 222.264 131.184C222.371 130.939 222.461 130.709 222.536 130.496ZM219.976 124.512H222.072V129.968H219.976V124.512Z" fill="black"/>
<path d="M215.744 79.336L217.792 79.832C217.536 80.6427 217.227 81.4373 216.864 82.216C216.501 82.984 216.112 83.704 215.696 84.376C215.28 85.048 214.848 85.6293 214.4 86.12C214.272 86.0133 214.096 85.8853 213.872 85.736C213.648 85.5867 213.419 85.4427 213.184 85.304C212.96 85.1547 212.763 85.0373 212.592 84.952C213.051 84.5147 213.477 83.9973 213.872 83.4C214.277 82.8027 214.635 82.1573 214.944 81.464C215.264 80.7707 215.531 80.0613 215.744 79.336ZM216.192 81.416H225.984V83.288H215.232L216.192 81.416ZM212.784 86.616H227.248V88.552H212.784V86.616ZM219.008 82.248H221.008V94.44H219.008V82.248Z" fill="black"/>
<path d="M302.656 223.688H313.504V225.464H302.656V223.688ZM301.424 215.864H314.624V226.344H312.672V217.64H303.296V226.376H301.424V215.864ZM308.656 216.6H310.496V219.48C310.496 219.683 310.512 219.811 310.544 219.864C310.587 219.907 310.688 219.928 310.848 219.928C310.88 219.928 310.949 219.928 311.056 219.928C311.173 219.928 311.285 219.928 311.392 219.928C311.509 219.928 311.595 219.928 311.648 219.928C311.744 219.928 311.813 219.912 311.856 219.88C311.909 219.837 311.947 219.757 311.968 219.64C312 219.523 312.021 219.341 312.032 219.096C312.139 219.181 312.283 219.272 312.464 219.368C312.656 219.453 312.853 219.533 313.056 219.608C313.269 219.672 313.461 219.72 313.632 219.752C313.557 220.243 313.451 220.621 313.312 220.888C313.173 221.155 312.987 221.341 312.752 221.448C312.528 221.555 312.235 221.608 311.872 221.608C311.787 221.608 311.685 221.608 311.568 221.608C311.451 221.608 311.323 221.608 311.184 221.608C311.056 221.608 310.933 221.608 310.816 221.608C310.699 221.608 310.603 221.608 310.528 221.608C310.016 221.608 309.621 221.544 309.344 221.416C309.077 221.288 308.896 221.069 308.8 220.76C308.704 220.451 308.656 220.029 308.656 219.496V216.6ZM300.784 212.28H315.168V214.136H300.784V212.28ZM305.152 213.688H307.04V216.888H305.152V213.688ZM308.656 213.688H310.592V216.888H308.656V213.688ZM305.248 216.232H307.04V217.816C307.04 218.349 306.971 218.899 306.832 219.464C306.693 220.029 306.432 220.568 306.048 221.08C305.664 221.592 305.104 222.04 304.368 222.424C304.283 222.307 304.155 222.168 303.984 222.008C303.813 221.848 303.632 221.693 303.44 221.544C303.259 221.395 303.104 221.283 302.976 221.208C303.648 220.867 304.144 220.504 304.464 220.12C304.795 219.736 305.008 219.341 305.104 218.936C305.2 218.531 305.248 218.141 305.248 217.768V216.232Z" fill="black"/>
<path d="M347.928 224.008H358.488V225.688H347.928V224.008ZM347.928 221.448H358.52V223.032H347.928V221.448ZM346.584 215.672H359.48V226.424H357.608V217.384H348.376V226.424H346.584V215.672ZM353.352 213.512H355.192V218.568C355.192 218.803 355.208 218.947 355.24 219C355.283 219.053 355.368 219.08 355.496 219.08C355.528 219.08 355.576 219.08 355.64 219.08C355.704 219.08 355.773 219.08 355.848 219.08C355.923 219.08 355.992 219.08 356.056 219.08C356.131 219.08 356.184 219.08 356.216 219.08C356.291 219.08 356.349 219.059 356.392 219.016C356.445 218.973 356.483 218.888 356.504 218.76C356.525 218.632 356.541 218.445 356.552 218.2C356.733 218.328 356.973 218.451 357.272 218.568C357.581 218.685 357.859 218.776 358.104 218.84C358.019 219.523 357.848 219.992 357.592 220.248C357.336 220.504 356.941 220.632 356.408 220.632C356.333 220.632 356.237 220.632 356.12 220.632C356.013 220.632 355.896 220.632 355.768 220.632C355.651 220.632 355.539 220.632 355.432 220.632C355.325 220.632 355.235 220.632 355.16 220.632C354.659 220.632 354.28 220.573 354.024 220.456C353.768 220.328 353.592 220.115 353.496 219.816C353.4 219.507 353.352 219.091 353.352 218.568V213.512ZM350.312 213.512H352.04V217.016C352.04 217.667 351.965 218.248 351.816 218.76C351.677 219.272 351.4 219.72 350.984 220.104C350.568 220.488 349.944 220.808 349.112 221.064C348.995 220.861 348.829 220.632 348.616 220.376C348.403 220.12 348.205 219.907 348.024 219.736C348.675 219.544 349.165 219.315 349.496 219.048C349.827 218.781 350.045 218.477 350.152 218.136C350.259 217.784 350.312 217.405 350.312 217V213.512ZM345.864 212.312H360.168V214.152H345.864V212.312Z" fill="black"/>
<path d="M213.896 302.208H218.648V304.112H213.896V302.208ZM221.72 298.672H223.72V310.208C223.72 310.656 223.757 310.944 223.832 311.072C223.907 311.189 224.093 311.248 224.392 311.248C224.456 311.248 224.563 311.248 224.712 311.248C224.861 311.248 225.027 311.248 225.208 311.248C225.389 311.248 225.555 311.248 225.704 311.248C225.853 311.248 225.965 311.248 226.04 311.248C226.253 311.248 226.413 311.157 226.52 310.976C226.627 310.795 226.701 310.469 226.744 310C226.797 309.52 226.84 308.853 226.872 308C227.032 308.117 227.219 308.235 227.432 308.352C227.656 308.469 227.88 308.576 228.104 308.672C228.328 308.757 228.531 308.821 228.712 308.864C228.648 309.888 228.536 310.715 228.376 311.344C228.227 311.973 227.981 312.427 227.64 312.704C227.309 312.992 226.84 313.136 226.232 313.136C226.147 313.136 226.003 313.136 225.8 313.136C225.597 313.136 225.379 313.136 225.144 313.136C224.92 313.136 224.712 313.136 224.52 313.136C224.328 313.136 224.184 313.136 224.088 313.136C223.48 313.136 223 313.045 222.648 312.864C222.307 312.693 222.067 312.395 221.928 311.968C221.789 311.531 221.72 310.939 221.72 310.192V298.672ZM217.688 298.672H219.688V313.264H217.688V298.672ZM227 301.056L228.392 302.784C227.837 303.157 227.251 303.531 226.632 303.904C226.013 304.267 225.384 304.624 224.744 304.976C224.115 305.317 223.496 305.637 222.888 305.936C222.824 305.723 222.712 305.472 222.552 305.184C222.392 304.885 222.248 304.635 222.12 304.432C222.696 304.123 223.277 303.776 223.864 303.392C224.451 303.008 225.011 302.613 225.544 302.208C226.088 301.803 226.573 301.419 227 301.056ZM213.32 309.456C213.757 309.328 214.264 309.173 214.84 308.992C215.416 308.8 216.024 308.592 216.664 308.368C217.304 308.133 217.939 307.904 218.568 307.68L218.936 309.408C218.136 309.771 217.315 310.128 216.472 310.48C215.64 310.832 214.877 311.152 214.184 311.44L213.32 309.456Z" fill="black"/>
<path d="M213.624 350.408H228.392V352.344H213.624V350.408ZM220.008 347.864H222.024V356.2C222.024 356.744 221.949 357.165 221.8 357.464C221.661 357.763 221.395 357.987 221 358.136C220.616 358.285 220.147 358.381 219.592 358.424C219.037 358.467 218.392 358.483 217.656 358.472C217.624 358.28 217.56 358.061 217.464 357.816C217.368 357.581 217.267 357.341 217.16 357.096C217.053 356.861 216.947 356.659 216.84 356.488C217.213 356.499 217.581 356.509 217.944 356.52C218.317 356.531 218.648 356.536 218.936 356.536C219.235 356.536 219.443 356.536 219.56 356.536C219.731 356.536 219.848 356.509 219.912 356.456C219.976 356.403 220.008 356.307 220.008 356.168V347.864ZM215.304 344.392H225.384V346.28H215.304V344.392ZM224.744 344.392H225.256L225.704 344.28L227.16 345.384C226.669 345.907 226.104 346.429 225.464 346.952C224.835 347.475 224.179 347.976 223.496 348.456C222.813 348.925 222.147 349.331 221.496 349.672C221.4 349.533 221.277 349.379 221.128 349.208C220.979 349.037 220.824 348.872 220.664 348.712C220.504 348.541 220.36 348.397 220.232 348.28C220.808 347.992 221.389 347.645 221.976 347.24C222.573 346.835 223.117 346.419 223.608 345.992C224.099 345.565 224.477 345.176 224.744 344.824V344.392Z" fill="black"/>
<path d="M189.88 388.904H204.12V390.904H189.88V388.904ZM195.896 385.448H198.008V389.96H195.896V385.448ZM193.24 392.616L195.48 393.192C195.149 394.088 194.76 394.968 194.312 395.832C193.875 396.696 193.405 397.507 192.904 398.264C192.403 399.011 191.891 399.661 191.368 400.216C191.219 400.077 191.021 399.923 190.776 399.752C190.541 399.581 190.301 399.411 190.056 399.24C189.811 399.069 189.597 398.931 189.416 398.824C189.949 398.344 190.456 397.773 190.936 397.112C191.416 396.451 191.853 395.736 192.248 394.968C192.643 394.189 192.973 393.405 193.24 392.616ZM198.52 393.368L200.472 392.584C200.824 393.096 201.187 393.64 201.56 394.216C201.933 394.792 202.296 395.379 202.648 395.976C203 396.563 203.315 397.133 203.592 397.688C203.88 398.243 204.109 398.749 204.28 399.208L202.104 400.152C201.955 399.715 201.747 399.213 201.48 398.648C201.224 398.083 200.931 397.501 200.6 396.904C200.28 396.296 199.939 395.688 199.576 395.08C199.224 394.472 198.872 393.901 198.52 393.368ZM205.944 386.216H220.072V388.088H205.944V386.216ZM208.952 393.8H217.288V395.528H208.952V393.8ZM209.016 397.688H217.112V399.464H209.016V397.688ZM211.864 386.888L214.216 387.368C214.099 387.805 213.976 388.248 213.848 388.696C213.72 389.133 213.597 389.555 213.48 389.96C213.373 390.355 213.261 390.707 213.144 391.016L211.32 390.552C211.405 390.2 211.485 389.816 211.56 389.4C211.635 388.973 211.699 388.541 211.752 388.104C211.816 387.667 211.853 387.261 211.864 386.888ZM207.544 389.912H218.632V400.424H216.584V391.688H209.496V400.424H207.544V389.912ZM228.936 387.24C228.499 387.848 227.944 388.477 227.272 389.128C226.611 389.779 225.875 390.403 225.064 391C224.264 391.597 223.427 392.131 222.552 392.6C222.467 392.44 222.355 392.264 222.216 392.072C222.088 391.88 221.944 391.693 221.784 391.512C221.635 391.331 221.491 391.171 221.352 391.032C222.269 390.595 223.149 390.056 223.992 389.416C224.835 388.765 225.587 388.088 226.248 387.384C226.92 386.68 227.453 386.003 227.848 385.352H229.848C230.285 385.96 230.765 386.541 231.288 387.096C231.811 387.651 232.371 388.163 232.968 388.632C233.565 389.101 234.179 389.523 234.808 389.896C235.437 390.269 236.072 390.584 236.712 390.84C236.467 391.085 236.237 391.363 236.024 391.672C235.811 391.981 235.613 392.28 235.432 392.568C234.824 392.248 234.205 391.88 233.576 391.464C232.957 391.048 232.36 390.605 231.784 390.136C231.208 389.656 230.675 389.171 230.184 388.68C229.693 388.189 229.277 387.709 228.936 387.24ZM224.936 390.2H232.984V391.88H224.936V390.2ZM223.016 393.464H234.872V395.128H223.016V393.464ZM222.216 398.328H235.816V399.976H222.216V398.328ZM227.896 390.872H229.928V399.16H227.896V390.872ZM224.024 395.736L225.56 395.096C225.763 395.363 225.96 395.656 226.152 395.976C226.355 396.296 226.536 396.611 226.696 396.92C226.856 397.229 226.973 397.507 227.048 397.752L225.4 398.488C225.336 398.243 225.229 397.96 225.08 397.64C224.931 397.309 224.765 396.979 224.584 396.648C224.403 396.317 224.216 396.013 224.024 395.736ZM232.152 395.112L233.992 395.784C233.672 396.275 233.341 396.765 233 397.256C232.659 397.736 232.344 398.147 232.056 398.488L230.616 397.88C230.797 397.624 230.984 397.341 231.176 397.032C231.368 396.712 231.549 396.387 231.72 396.056C231.891 395.715 232.035 395.4 232.152 395.112ZM239.928 395.784H250.36V397.288H239.928V395.784ZM240.344 393.208H251.08V394.808H240.344V393.208ZM237.944 398.376H252.104V400.024H237.944V398.376ZM244.072 392.232H246.056V399.512H244.072V392.232ZM241.384 389.624V390.488H248.488V389.624H241.384ZM241.384 387.432V388.264H248.488V387.432H241.384ZM239.496 385.976H250.472V391.944H239.496V385.976ZM240.328 391.784L242.2 392.328C241.965 392.851 241.683 393.363 241.352 393.864C241.021 394.365 240.669 394.835 240.296 395.272C239.923 395.709 239.555 396.088 239.192 396.408C239.064 396.291 238.904 396.157 238.712 396.008C238.52 395.859 238.323 395.715 238.12 395.576C237.917 395.427 237.736 395.309 237.576 395.224C238.131 394.808 238.653 394.296 239.144 393.688C239.645 393.069 240.04 392.435 240.328 391.784Z" fill="black"/>
<path d="M189.792 35.872H202.16V37.776H189.792V35.872ZM188.864 46.768H203.216V48.672H188.864V46.768ZM194.24 36.544H196.432C196.272 37.504 196.096 38.5013 195.904 39.536C195.712 40.5707 195.515 41.6 195.312 42.624C195.109 43.648 194.907 44.6187 194.704 45.536C194.512 46.4533 194.325 47.2693 194.144 47.984H191.984C192.176 47.2373 192.379 46.4 192.592 45.472C192.805 44.5333 193.008 43.5573 193.2 42.544C193.403 41.52 193.595 40.496 193.776 39.472C193.957 38.448 194.112 37.472 194.24 36.544ZM190.32 40.56H200.704V47.664H198.704V42.448H190.32V40.56ZM204.8 38.24H219.264V39.984H204.8V38.24ZM205.936 35.584H218.16V37.264H205.936V35.584ZM208.576 34.4H210.528V39.088H208.576V34.4ZM213.52 34.4H215.504V39.088H213.52V34.4ZM211.024 39.232H213.008V45.792H211.024V39.232ZM208.24 44.224V45.152H215.872V44.224H208.24ZM208.24 42.096V42.992H215.872V42.096H208.24ZM206.4 40.768H217.808V46.464H206.4V40.768ZM213.152 47.488L214.224 46.272C214.811 46.464 215.403 46.672 216 46.896C216.608 47.12 217.184 47.3387 217.728 47.552C218.283 47.7653 218.757 47.9573 219.152 48.128L217.776 49.408C217.424 49.2373 216.997 49.04 216.496 48.816C215.995 48.6027 215.456 48.3787 214.88 48.144C214.304 47.9093 213.728 47.6907 213.152 47.488ZM209.472 46.336L211.104 47.472C210.677 47.7387 210.176 47.9947 209.6 48.24C209.024 48.496 208.432 48.7307 207.824 48.944C207.216 49.1573 206.64 49.3387 206.096 49.488C205.936 49.2853 205.723 49.0507 205.456 48.784C205.2 48.528 204.965 48.3093 204.752 48.128C205.317 48 205.893 47.84 206.48 47.648C207.077 47.4453 207.643 47.2267 208.176 46.992C208.709 46.7573 209.141 46.5387 209.472 46.336ZM221.792 39.376H234.24V41.264H221.792V39.376ZM220.736 46.864H235.312V48.752H220.736V46.864ZM226.944 34.432H229.008V48.16H226.944V34.432ZM238.928 44.784H249.36V46.288H238.928V44.784ZM239.344 42.208H250.08V43.808H239.344V42.208ZM236.944 47.376H251.104V49.024H236.944V47.376ZM243.072 41.232H245.056V48.512H243.072V41.232ZM240.384 38.624V39.488H247.488V38.624H240.384ZM240.384 36.432V37.264H247.488V36.432H240.384ZM238.496 34.976H249.472V40.944H238.496V34.976ZM239.328 40.784L241.2 41.328C240.965 41.8507 240.683 42.3627 240.352 42.864C240.021 43.3653 239.669 43.8347 239.296 44.272C238.923 44.7093 238.555 45.088 238.192 45.408C238.064 45.2907 237.904 45.1573 237.712 45.008C237.52 44.8587 237.323 44.7147 237.12 44.576C236.917 44.4267 236.736 44.3093 236.576 44.224C237.131 43.808 237.653 43.296 238.144 42.688C238.645 42.0693 239.04 41.4347 239.328 40.784Z" fill="black"/>
<path d="M203.76 205.9H222.28V208.52H203.76V205.9ZM226.74 213.04H239.16V215.46H226.74V213.04ZM226.7 206.92H239.16V209.3H226.7V206.92ZM225.46 200.92H240.6V216.74H238.04V203.36H227.88V216.76H225.46V200.92ZM231.32 197.92L234.46 198.34C234.153 199.087 233.827 199.813 233.48 200.52C233.133 201.227 232.82 201.833 232.54 202.34L230.16 201.86C230.307 201.473 230.453 201.053 230.6 200.6C230.76 200.147 230.9 199.687 231.02 199.22C231.153 198.753 231.253 198.32 231.32 197.92ZM204.04 226.92H209.6V229.34H204.04V226.92ZM211.8 222.02H214.36V237.68C214.36 238.4 214.273 238.96 214.1 239.36C213.927 239.76 213.627 240.067 213.2 240.28C212.773 240.493 212.227 240.633 211.56 240.7C210.907 240.78 210.12 240.82 209.2 240.82C209.173 240.567 209.107 240.273 209 239.94C208.907 239.62 208.793 239.3 208.66 238.98C208.527 238.647 208.393 238.367 208.26 238.14C208.913 238.167 209.527 238.18 210.1 238.18C210.673 238.18 211.06 238.18 211.26 238.18C211.46 238.18 211.6 238.14 211.68 238.06C211.76 237.98 211.8 237.853 211.8 237.68V222.02ZM208.78 226.92H209.28L209.72 226.82L211.36 227.42C211.067 229.247 210.627 230.907 210.04 232.4C209.467 233.893 208.787 235.207 208 236.34C207.227 237.46 206.36 238.373 205.4 239.08C205.267 238.88 205.08 238.66 204.84 238.42C204.6 238.167 204.347 237.927 204.08 237.7C203.827 237.473 203.6 237.3 203.4 237.18C204.32 236.553 205.14 235.767 205.86 234.82C206.58 233.86 207.187 232.76 207.68 231.52C208.187 230.267 208.553 228.907 208.78 227.44V226.92ZM214.2 224.94C214.52 226.273 214.927 227.553 215.42 228.78C215.927 230.007 216.52 231.153 217.2 232.22C217.88 233.287 218.667 234.24 219.56 235.08C220.467 235.907 221.48 236.587 222.6 237.12C222.4 237.28 222.18 237.487 221.94 237.74C221.7 237.993 221.473 238.267 221.26 238.56C221.06 238.84 220.887 239.1 220.74 239.34C219.193 238.46 217.88 237.327 216.8 235.94C215.72 234.54 214.82 232.94 214.1 231.14C213.38 229.34 212.78 227.407 212.3 225.34L214.2 224.94ZM219.82 225.14L222.08 226.72C221.507 227.307 220.9 227.913 220.26 228.54C219.62 229.167 218.98 229.76 218.34 230.32C217.713 230.88 217.12 231.367 216.56 231.78L214.82 230.44C215.367 229.987 215.94 229.46 216.54 228.86C217.153 228.26 217.747 227.64 218.32 227C218.893 226.347 219.393 225.727 219.82 225.14ZM226.66 234.98H239.7V236.86H226.66V234.98ZM227.18 231.76H240.6V233.76H227.18V231.76ZM224.18 238.22H241.88V240.28H224.18V238.22ZM231.84 230.54H234.32V239.64H231.84V230.54ZM228.48 227.28V228.36H237.36V227.28H228.48ZM228.48 224.54V225.58H237.36V224.54H228.48ZM226.12 222.72H239.84V230.18H226.12V222.72ZM227.16 229.98L229.5 230.66C229.207 231.313 228.853 231.953 228.44 232.58C228.027 233.207 227.587 233.793 227.12 234.34C226.653 234.887 226.193 235.36 225.74 235.76C225.58 235.613 225.38 235.447 225.14 235.26C224.9 235.073 224.653 234.893 224.4 234.72C224.147 234.533 223.92 234.387 223.72 234.28C224.413 233.76 225.067 233.12 225.68 232.36C226.307 231.587 226.8 230.793 227.16 229.98Z" fill="white"/>
<defs>
<linearGradient id="paint0_linear_45_82" x1="220.75" y1="26" x2="220.75" y2="412.5" gradientUnits="userSpaceOnUse">
<stop stop-color="#FFFBA7"/>
<stop offset="1" stop-color="#FDFAEC"/>
</linearGradient>
<linearGradient id="paint1_linear_45_82" x1="221" y1="64" x2="221" y2="374" gradientUnits="userSpaceOnUse">
<stop stop-color="#FFFDDC"/>
<stop offset="1" stop-color="#E3F8FF"/>
</linearGradient>
<linearGradient id="paint2_linear_45_82" x1="221" y1="109" x2="221" y2="329" gradientUnits="userSpaceOnUse">
<stop stop-color="#C8EEFF"/>
<stop offset="1" stop-color="#E1F3FF"/>
</linearGradient>
<linearGradient id="paint3_linear_45_82" x1="221" y1="154" x2="221" y2="284" gradientUnits="userSpaceOnUse">
<stop stop-color="#58C7FF"/>
<stop offset="1" stop-color="#9FE0FF"/>
</linearGradient>
</defs>
</svg>
