<svg width="442" height="452" viewBox="0 0 442 452" fill="none" xmlns="http://www.w3.org/2000/svg">
<rect width="442" height="452" fill="white"/>
<path d="M272.5 26H169L27.5 166.5V270.5L169 412.5H272.5L414 270.5V166.5L272.5 26Z" fill="url(#paint0_linear_56_41)" stroke="#FFFDE8"/>
<path d="M262.507 64H179.493L66 176.691V260.106L179.493 374H262.507L376 260.106V176.691L262.507 64Z" fill="url(#paint1_linear_56_41)" stroke="#FEFFEA"/>
<path d="M250.457 109H191.543L111 188.974V248.172L191.543 329H250.457L331 248.172V188.974L250.457 109Z" fill="url(#paint2_linear_56_41)" stroke="#DDF4FF"/>
<path d="M414.37 270.528L28 167" stroke="#888686"/>
<path d="M272.528 26L186.777 346.024L169 412.37" stroke="#888686" stroke-opacity="0.82"/>
<path d="M169 26L272.528 412.37" stroke="#888686"/>
<path d="M414.37 167L28 270.528" stroke="#888886"/>
<path d="M238.406 154H203.594L156 201.257V236.238L203.594 284H238.406L286 236.238V201.257L238.406 154Z" fill="url(#paint3_linear_56_41)" stroke="#B9E7FD"/>
<path d="M126.928 212.728H141.136V214.52H126.928V212.728ZM132.96 211.416H134.96V226.44H132.96V211.416ZM132.464 220.552L134.096 221.224C133.723 221.757 133.296 222.269 132.816 222.76C132.347 223.251 131.835 223.715 131.28 224.152C130.736 224.579 130.165 224.968 129.568 225.32C128.981 225.683 128.389 225.992 127.792 226.248C127.685 226.088 127.557 225.907 127.408 225.704C127.259 225.501 127.099 225.304 126.928 225.112C126.757 224.92 126.603 224.76 126.464 224.632C127.051 224.429 127.632 224.184 128.208 223.896C128.784 223.597 129.339 223.272 129.872 222.92C130.405 222.557 130.891 222.179 131.328 221.784C131.776 221.379 132.155 220.968 132.464 220.552ZM135.504 220.616C135.824 221.021 136.208 221.421 136.656 221.816C137.115 222.2 137.611 222.573 138.144 222.936C138.688 223.288 139.253 223.608 139.84 223.896C140.427 224.173 141.013 224.413 141.6 224.616C141.451 224.744 141.285 224.904 141.104 225.096C140.933 225.299 140.768 225.501 140.608 225.704C140.459 225.917 140.331 226.109 140.224 226.28C139.627 226.035 139.035 225.731 138.448 225.368C137.861 225.016 137.291 224.627 136.736 224.2C136.192 223.763 135.68 223.299 135.2 222.808C134.731 222.317 134.309 221.811 133.936 221.288L135.504 220.616ZM130.144 219.176V220.152H137.904V219.176H130.144ZM130.144 216.872V217.832H137.904V216.872H130.144ZM128.272 215.432H139.872V221.592H128.272V215.432Z" fill="black"/>
<path d="M82.744 213.856L84.552 214.432V222.752H82.744V213.856ZM93.896 213.952H95.752V222.624C95.752 223.051 95.704 223.413 95.608 223.712C95.512 224 95.3253 224.224 95.048 224.384C94.7707 224.544 94.44 224.645 94.056 224.688C93.6827 224.731 93.2453 224.752 92.744 224.752C92.7227 224.571 92.6747 224.363 92.6 224.128C92.5253 223.893 92.44 223.659 92.344 223.424C92.2587 223.189 92.168 222.987 92.072 222.816C92.4027 222.827 92.7173 222.837 93.016 222.848C93.3147 222.848 93.5173 222.848 93.624 222.848C93.7307 222.848 93.8 222.827 93.832 222.784C93.8747 222.741 93.896 222.672 93.896 222.576V213.952ZM81.496 222.432C82.1787 222.293 83 222.112 83.96 221.888C84.92 221.653 85.896 221.419 86.888 221.184L87.096 222.8C86.2107 223.045 85.3147 223.285 84.408 223.52C83.5013 223.755 82.6747 223.973 81.928 224.176L81.496 222.432ZM86.648 215.76H88.44V220.048C88.44 220.763 88.3813 221.472 88.264 222.176C88.1573 222.869 87.944 223.541 87.624 224.192C87.304 224.843 86.8293 225.445 86.2 226C85.5707 226.555 84.7333 227.04 83.688 227.456C83.6133 227.317 83.5067 227.152 83.368 226.96C83.24 226.779 83.096 226.603 82.936 226.432C82.7867 226.261 82.648 226.123 82.52 226.016C83.4373 225.653 84.168 225.248 84.712 224.8C85.2667 224.341 85.6827 223.856 85.96 223.344C86.2373 222.821 86.4187 222.283 86.504 221.728C86.6 221.163 86.648 220.592 86.648 220.016V215.76ZM89.704 213.952H94.872V215.696H91.512V227.44H89.704V213.952ZM87.256 212.432L88.968 213.648C88.4667 213.936 87.9387 214.224 87.384 214.512C86.8293 214.789 86.28 215.051 85.736 215.296C85.2027 215.541 84.696 215.749 84.216 215.92L82.984 214.864C83.432 214.661 83.9173 214.427 84.44 214.16C84.9627 213.883 85.4693 213.595 85.96 213.296C86.4613 212.987 86.8933 212.699 87.256 212.432Z" fill="black"/>
<path d="M41.152 182.624H43.248C43.2373 183.893 43.2107 185.131 43.168 186.336C43.1253 187.531 43.0187 188.672 42.848 189.76C42.6773 190.837 42.4 191.851 42.016 192.8C41.632 193.739 41.0933 194.603 40.4 195.392C39.7173 196.171 38.832 196.853 37.744 197.44C37.6587 197.28 37.536 197.099 37.376 196.896C37.216 196.704 37.0453 196.512 36.864 196.32C36.6933 196.139 36.5227 195.995 36.352 195.888C37.3653 195.365 38.176 194.763 38.784 194.08C39.4027 193.397 39.8773 192.645 40.208 191.824C40.5387 190.992 40.768 190.091 40.896 189.12C41.024 188.149 41.0933 187.12 41.104 186.032C41.1253 184.944 41.1413 183.808 41.152 182.624ZM37.168 186.336H47.008V188.272H37.168V186.336ZM45.952 186.336H47.952V194.56C47.952 194.901 47.9787 195.12 48.032 195.216C48.0853 195.301 48.208 195.344 48.4 195.344C48.4427 195.344 48.512 195.344 48.608 195.344C48.704 195.344 48.8107 195.344 48.928 195.344C49.0453 195.344 49.152 195.344 49.248 195.344C49.3547 195.344 49.4293 195.344 49.472 195.344C49.6107 195.344 49.712 195.28 49.776 195.152C49.84 195.024 49.888 194.784 49.92 194.432C49.952 194.08 49.9787 193.568 50 192.896C50.16 193.013 50.3413 193.125 50.544 193.232C50.7573 193.339 50.976 193.44 51.2 193.536C51.424 193.621 51.6267 193.685 51.808 193.728C51.7547 194.592 51.6533 195.28 51.504 195.792C51.3547 196.293 51.136 196.651 50.848 196.864C50.56 197.088 50.1707 197.2 49.68 197.2C49.5947 197.2 49.4773 197.2 49.328 197.2C49.1787 197.2 49.0187 197.2 48.848 197.2C48.6773 197.2 48.5173 197.2 48.368 197.2C48.2293 197.2 48.1227 197.2 48.048 197.2C47.5253 197.2 47.1093 197.12 46.8 196.96C46.5013 196.811 46.2827 196.544 46.144 196.16C46.016 195.776 45.952 195.237 45.952 194.544V186.336ZM42.976 211.96H44.96V216.44H42.976V211.96ZM36.72 211.288C37.4987 211.288 38.384 211.288 39.376 211.288C40.368 211.277 41.424 211.267 42.544 211.256C43.664 211.235 44.816 211.219 46 211.208C47.184 211.187 48.3573 211.171 49.52 211.16L49.424 212.68C48.2827 212.723 47.1307 212.76 45.968 212.792C44.816 212.824 43.6853 212.856 42.576 212.888C41.4773 212.909 40.432 212.936 39.44 212.968C38.4587 212.989 37.5733 213.005 36.784 213.016L36.72 211.288ZM42.608 206.904L44.384 207.608C43.8933 208.067 43.3707 208.509 42.816 208.936C42.272 209.352 41.7653 209.704 41.296 209.992L39.824 209.304C40.1333 209.091 40.4587 208.851 40.8 208.584C41.152 208.307 41.4827 208.024 41.792 207.736C42.1013 207.437 42.3733 207.16 42.608 206.904ZM46.016 207.88L47.904 208.648C47.2747 209.139 46.592 209.619 45.856 210.088C45.1307 210.557 44.4053 211 43.68 211.416C42.9547 211.832 42.272 212.195 41.632 212.504L40.176 211.72C40.8267 211.4 41.5093 211.021 42.224 210.584C42.9493 210.147 43.6427 209.693 44.304 209.224C44.9653 208.744 45.536 208.296 46.016 207.88ZM38.32 209.416L39.696 208.296C40.1333 208.477 40.5867 208.685 41.056 208.92C41.536 209.144 41.9947 209.373 42.432 209.608C42.8693 209.832 43.248 210.04 43.568 210.232L42.176 211.496C41.8773 211.293 41.504 211.069 41.056 210.824C40.6187 210.568 40.16 210.317 39.68 210.072C39.2107 209.827 38.7573 209.608 38.32 209.416ZM45.92 214.088L47.584 213.208C48 213.411 48.432 213.645 48.88 213.912C49.328 214.168 49.76 214.429 50.176 214.696C50.6027 214.952 50.9653 215.181 51.264 215.384L49.552 216.392C49.2747 216.168 48.928 215.917 48.512 215.64C48.096 215.373 47.6587 215.101 47.2 214.824C46.752 214.536 46.3253 214.291 45.92 214.088ZM40.08 213.24L41.904 213.944C41.584 214.253 41.2053 214.563 40.768 214.872C40.3413 215.181 39.8987 215.469 39.44 215.736C38.992 216.003 38.56 216.237 38.144 216.44C38.0267 216.323 37.872 216.179 37.68 216.008C37.4987 215.848 37.3067 215.688 37.104 215.528C36.912 215.379 36.7413 215.256 36.592 215.16C37.232 214.925 37.872 214.637 38.512 214.296C39.152 213.955 39.6747 213.603 40.08 213.24ZM46.48 210.312L48.128 209.592C48.5227 209.901 48.9333 210.248 49.36 210.632C49.7973 211.016 50.208 211.4 50.592 211.784C50.976 212.168 51.2907 212.52 51.536 212.84L49.744 213.64C49.5307 213.331 49.2427 212.984 48.88 212.6C48.528 212.205 48.1387 211.811 47.712 211.416C47.2853 211.011 46.8747 210.643 46.48 210.312ZM40.912 202.808H43.92V204.328H40.912V202.808ZM44.496 201.4H46.4V205.48C46.4 205.736 46.4427 205.901 46.528 205.976C46.624 206.04 46.832 206.072 47.152 206.072C47.2267 206.072 47.3493 206.072 47.52 206.072C47.6907 206.072 47.8773 206.072 48.08 206.072C48.2827 206.072 48.4747 206.072 48.656 206.072C48.8373 206.072 48.9707 206.072 49.056 206.072C49.2373 206.072 49.3707 206.045 49.456 205.992C49.552 205.928 49.6213 205.811 49.664 205.64C49.7067 205.459 49.7387 205.197 49.76 204.856C49.952 204.984 50.2133 205.112 50.544 205.24C50.8747 205.357 51.1733 205.443 51.44 205.496C51.3653 206.083 51.248 206.541 51.088 206.872C50.928 207.192 50.704 207.416 50.416 207.544C50.128 207.672 49.7387 207.736 49.248 207.736C49.1627 207.736 49.04 207.736 48.88 207.736C48.7307 207.736 48.56 207.736 48.368 207.736C48.176 207.736 47.9787 207.736 47.776 207.736C47.584 207.736 47.408 207.736 47.248 207.736C47.0987 207.736 46.9867 207.736 46.912 207.736C46.2613 207.736 45.76 207.667 45.408 207.528C45.0667 207.389 44.8267 207.16 44.688 206.84C44.56 206.509 44.496 206.061 44.496 205.496V201.4ZM36.528 206.296C37.1467 206.243 37.8613 206.173 38.672 206.088C39.4933 205.992 40.3573 205.891 41.264 205.784C42.1813 205.677 43.0933 205.571 44 205.464L44.048 206.968C43.184 207.096 42.3093 207.224 41.424 207.352C40.5387 207.469 39.6907 207.587 38.88 207.704C38.08 207.811 37.3493 207.912 36.688 208.008L36.528 206.296ZM49.568 202.168L50.992 203.512C50.48 203.736 49.9253 203.944 49.328 204.136C48.7413 204.317 48.1387 204.488 47.52 204.648C46.9013 204.797 46.304 204.931 45.728 205.048C45.696 204.856 45.6213 204.627 45.504 204.36C45.3973 204.083 45.2907 203.853 45.184 203.672C45.7067 203.533 46.24 203.384 46.784 203.224C47.328 203.064 47.84 202.893 48.32 202.712C48.8 202.531 49.216 202.349 49.568 202.168ZM40.128 201.4H41.904V206.84L40.128 206.968V201.4ZM37.52 202.584H39.168V206.984L37.52 207.128V202.584ZM43.936 222.24C43.4987 222.848 42.944 223.477 42.272 224.128C41.6107 224.779 40.8747 225.403 40.064 226C39.264 226.597 38.4267 227.131 37.552 227.6C37.4667 227.44 37.3547 227.264 37.216 227.072C37.088 226.88 36.944 226.693 36.784 226.512C36.6347 226.331 36.4907 226.171 36.352 226.032C37.2693 225.595 38.1493 225.056 38.992 224.416C39.8347 223.765 40.5867 223.088 41.248 222.384C41.92 221.68 42.4533 221.003 42.848 220.352H44.848C45.2853 220.96 45.7653 221.541 46.288 222.096C46.8107 222.651 47.3707 223.163 47.968 223.632C48.5653 224.101 49.1787 224.523 49.808 224.896C50.4373 225.269 51.072 225.584 51.712 225.84C51.4667 226.085 51.2373 226.363 51.024 226.672C50.8107 226.981 50.6133 227.28 50.432 227.568C49.824 227.248 49.2053 226.88 48.576 226.464C47.9573 226.048 47.36 225.605 46.784 225.136C46.208 224.656 45.6747 224.171 45.184 223.68C44.6933 223.189 44.2773 222.709 43.936 222.24ZM39.936 225.2H47.984V226.88H39.936V225.2ZM38.016 228.464H49.872V230.128H38.016V228.464ZM37.216 233.328H50.816V234.976H37.216V233.328ZM42.896 225.872H44.928V234.16H42.896V225.872ZM39.024 230.736L40.56 230.096C40.7627 230.363 40.96 230.656 41.152 230.976C41.3547 231.296 41.536 231.611 41.696 231.92C41.856 232.229 41.9733 232.507 42.048 232.752L40.4 233.488C40.336 233.243 40.2293 232.96 40.08 232.64C39.9307 232.309 39.7653 231.979 39.584 231.648C39.4027 231.317 39.216 231.013 39.024 230.736ZM47.152 230.112L48.992 230.784C48.672 231.275 48.3413 231.765 48 232.256C47.6587 232.736 47.344 233.147 47.056 233.488L45.616 232.88C45.7973 232.624 45.984 232.341 46.176 232.032C46.368 231.712 46.5493 231.387 46.72 231.056C46.8907 230.715 47.0347 230.4 47.152 230.112ZM38.928 249.784H49.36V251.288H38.928V249.784ZM39.344 247.208H50.08V248.808H39.344V247.208ZM36.944 252.376H51.104V254.024H36.944V252.376ZM43.072 246.232H45.056V253.512H43.072V246.232ZM40.384 243.624V244.488H47.488V243.624H40.384ZM40.384 241.432V242.264H47.488V241.432H40.384ZM38.496 239.976H49.472V245.944H38.496V239.976ZM39.328 245.784L41.2 246.328C40.9653 246.851 40.6827 247.363 40.352 247.864C40.0213 248.365 39.6693 248.835 39.296 249.272C38.9227 249.709 38.5547 250.088 38.192 250.408C38.064 250.291 37.904 250.157 37.712 250.008C37.52 249.859 37.3227 249.715 37.12 249.576C36.9173 249.427 36.736 249.309 36.576 249.224C37.1307 248.808 37.6533 248.296 38.144 247.688C38.6453 247.069 39.04 246.435 39.328 245.784Z" fill="black"/>
<path d="M391.264 183.808H404.8V196.848H402.768V185.664H393.2V196.976H391.264V183.808ZM392.288 194.08H403.824V195.92H392.288V194.08ZM398.544 185.152H400.416V189.6C400.416 189.845 400.432 189.989 400.464 190.032C400.517 190.085 400.603 190.112 400.72 190.112C400.773 190.112 400.843 190.112 400.928 190.112C401.013 190.112 401.083 190.112 401.136 190.112C401.189 190.112 401.243 190.107 401.296 190.096C401.36 190.085 401.408 190.069 401.44 190.048C401.472 190.027 401.504 189.995 401.536 189.952C401.579 189.899 401.605 189.819 401.616 189.712C401.637 189.605 401.648 189.44 401.648 189.216C401.659 188.981 401.669 188.715 401.68 188.416C401.851 188.565 402.075 188.715 402.352 188.864C402.64 189.013 402.907 189.125 403.152 189.2C403.131 189.52 403.099 189.84 403.056 190.16C403.024 190.469 402.976 190.699 402.912 190.848C402.837 191.008 402.747 191.141 402.64 191.248C402.544 191.344 402.416 191.429 402.256 191.504C402.128 191.568 401.968 191.616 401.776 191.648C401.595 191.669 401.424 191.68 401.264 191.68C401.168 191.68 401.056 191.68 400.928 191.68C400.8 191.68 400.672 191.68 400.544 191.68C400.427 191.68 400.32 191.68 400.224 191.68C400.011 191.68 399.792 191.648 399.568 191.584C399.344 191.52 399.152 191.419 398.992 191.28C398.843 191.141 398.731 190.955 398.656 190.72C398.581 190.485 398.544 190.096 398.544 189.552V185.152ZM395.312 185.12H397.184C397.152 186.219 397.061 187.237 396.912 188.176C396.763 189.115 396.496 189.957 396.112 190.704C395.728 191.451 395.147 192.091 394.368 192.624C394.261 192.4 394.091 192.149 393.856 191.872C393.621 191.584 393.397 191.355 393.184 191.184C393.813 190.768 394.272 190.261 394.56 189.664C394.848 189.056 395.04 188.373 395.136 187.616C395.232 186.848 395.291 186.016 395.312 185.12ZM404 208.648L405.456 209.608C405.136 209.981 404.805 210.36 404.464 210.744C404.133 211.128 403.835 211.453 403.568 211.72L402.4 210.888C402.571 210.685 402.752 210.456 402.944 210.2C403.147 209.944 403.339 209.683 403.52 209.416C403.712 209.139 403.872 208.883 404 208.648ZM396.848 209.64L398.16 208.776C398.448 209.085 398.741 209.437 399.04 209.832C399.339 210.216 399.557 210.563 399.696 210.872L398.304 211.832C398.176 211.523 397.968 211.165 397.68 210.76C397.403 210.344 397.125 209.971 396.848 209.64ZM397.296 201.992H404.048V207.4H402.176V203.544H397.296V201.992ZM397.68 204.344H403.216V205.832H397.68V204.344ZM396.544 206.68H405.376V208.28H396.544V206.68ZM400.048 207.4H401.824V214.6C401.824 215.005 401.781 215.325 401.696 215.56C401.611 215.805 401.435 215.992 401.168 216.12C400.923 216.259 400.619 216.344 400.256 216.376C399.904 216.419 399.488 216.44 399.008 216.44C398.987 216.195 398.928 215.912 398.832 215.592C398.736 215.283 398.635 215.011 398.528 214.776C398.795 214.787 399.051 214.797 399.296 214.808C399.552 214.808 399.723 214.803 399.808 214.792C399.968 214.792 400.048 214.717 400.048 214.568V207.4ZM395.92 213.896C396.347 213.661 396.864 213.357 397.472 212.984C398.08 212.6 398.699 212.205 399.328 211.8L399.92 213.24C399.408 213.635 398.88 214.029 398.336 214.424C397.803 214.808 397.301 215.171 396.832 215.512L395.92 213.896ZM401.76 208.28C401.856 208.803 402 209.347 402.192 209.912C402.384 210.467 402.629 211.016 402.928 211.56C403.227 212.093 403.595 212.584 404.032 213.032C404.48 213.469 405.008 213.832 405.616 214.12C405.499 214.227 405.365 214.371 405.216 214.552C405.067 214.733 404.923 214.92 404.784 215.112C404.645 215.315 404.533 215.496 404.448 215.656C403.872 215.304 403.371 214.872 402.944 214.36C402.528 213.848 402.171 213.299 401.872 212.712C401.573 212.115 401.328 211.523 401.136 210.936C400.955 210.349 400.811 209.805 400.704 209.304L401.76 208.28ZM392.864 201.416L394.528 202.008C394.315 202.424 394.091 202.851 393.856 203.288C393.621 203.715 393.392 204.131 393.168 204.536C392.944 204.931 392.731 205.277 392.528 205.576L391.248 205.048C391.44 204.717 391.637 204.344 391.84 203.928C392.043 203.512 392.235 203.08 392.416 202.632C392.608 202.184 392.757 201.779 392.864 201.416ZM394.672 203.32L396.24 204.024C395.845 204.621 395.419 205.251 394.96 205.912C394.501 206.573 394.043 207.208 393.584 207.816C393.125 208.424 392.688 208.957 392.272 209.416L391.168 208.808C391.467 208.445 391.776 208.04 392.096 207.592C392.427 207.133 392.747 206.659 393.056 206.168C393.376 205.667 393.675 205.171 393.952 204.68C394.229 204.189 394.469 203.736 394.672 203.32ZM390.4 205.16L391.344 203.864C391.611 204.12 391.888 204.397 392.176 204.696C392.464 204.995 392.731 205.293 392.976 205.592C393.221 205.891 393.403 206.168 393.52 206.424L392.496 207.88C392.379 207.624 392.203 207.336 391.968 207.016C391.744 206.696 391.493 206.376 391.216 206.056C390.939 205.725 390.667 205.427 390.4 205.16ZM394.128 207.144L395.472 206.6C395.685 206.952 395.888 207.336 396.08 207.752C396.272 208.168 396.443 208.573 396.592 208.968C396.741 209.352 396.848 209.699 396.912 210.008L395.456 210.648C395.413 210.339 395.323 209.981 395.184 209.576C395.045 209.171 394.885 208.76 394.704 208.344C394.523 207.917 394.331 207.517 394.128 207.144ZM390.352 208.424C391.067 208.392 391.909 208.349 392.88 208.296C393.851 208.232 394.837 208.168 395.84 208.104L395.872 209.672C394.933 209.747 393.995 209.821 393.056 209.896C392.128 209.96 391.291 210.024 390.544 210.088L390.352 208.424ZM394.576 211.16L395.904 210.76C396.096 211.197 396.267 211.683 396.416 212.216C396.576 212.749 396.677 213.203 396.72 213.576L395.296 214.04C395.264 213.656 395.179 213.197 395.04 212.664C394.912 212.12 394.757 211.619 394.576 211.16ZM391.04 210.808L392.576 211.08C392.491 211.848 392.363 212.605 392.192 213.352C392.032 214.088 391.84 214.712 391.616 215.224C391.509 215.149 391.371 215.069 391.2 214.984C391.029 214.899 390.853 214.819 390.672 214.744C390.491 214.659 390.336 214.595 390.208 214.552C390.443 214.072 390.624 213.496 390.752 212.824C390.88 212.152 390.976 211.48 391.04 210.808ZM392.784 209.288H394.448V216.44H392.784V209.288ZM390.976 224.144H405.056V226.048H390.976V224.144ZM396.976 220.416H399.024V235.44H396.976V220.416ZM396.56 225.184L398.256 225.76C397.893 226.603 397.477 227.419 397.008 228.208C396.539 228.997 396.021 229.744 395.456 230.448C394.901 231.152 394.304 231.803 393.664 232.4C393.035 232.987 392.373 233.493 391.68 233.92C391.573 233.76 391.435 233.579 391.264 233.376C391.093 233.173 390.917 232.976 390.736 232.784C390.555 232.581 390.389 232.416 390.24 232.288C390.901 231.925 391.541 231.488 392.16 230.976C392.789 230.453 393.381 229.883 393.936 229.264C394.491 228.635 394.987 227.973 395.424 227.28C395.872 226.587 396.251 225.888 396.56 225.184ZM399.392 225.264C399.701 225.947 400.085 226.624 400.544 227.296C401.003 227.968 401.509 228.608 402.064 229.216C402.629 229.824 403.221 230.384 403.84 230.896C404.459 231.408 405.093 231.84 405.744 232.192C405.595 232.309 405.424 232.469 405.232 232.672C405.051 232.864 404.875 233.067 404.704 233.28C404.544 233.493 404.411 233.685 404.304 233.856C403.632 233.429 402.987 232.928 402.368 232.352C401.749 231.765 401.157 231.125 400.592 230.432C400.027 229.728 399.509 228.987 399.04 228.208C398.571 227.429 398.149 226.635 397.776 225.824L399.392 225.264ZM392.928 249.784H403.36V251.288H392.928V249.784ZM393.344 247.208H404.08V248.808H393.344V247.208ZM390.944 252.376H405.104V254.024H390.944V252.376ZM397.072 246.232H399.056V253.512H397.072V246.232ZM394.384 243.624V244.488H401.488V243.624H394.384ZM394.384 241.432V242.264H401.488V241.432H394.384ZM392.496 239.976H403.472V245.944H392.496V239.976ZM393.328 245.784L395.2 246.328C394.965 246.851 394.683 247.363 394.352 247.864C394.021 248.365 393.669 248.835 393.296 249.272C392.923 249.709 392.555 250.088 392.192 250.408C392.064 250.291 391.904 250.157 391.712 250.008C391.52 249.859 391.323 249.715 391.12 249.576C390.917 249.427 390.736 249.309 390.576 249.224C391.131 248.808 391.653 248.296 392.144 247.688C392.645 247.069 393.04 246.435 393.328 245.784Z" fill="black"/>
<path d="M149.959 169.319L160.006 159.273L161.273 160.54L151.226 170.586L149.959 169.319ZM157.313 171.695L162.37 166.638L163.422 167.69L158.365 172.747L157.313 171.695ZM158.874 173.732L164.418 168.188L165.504 169.274L159.96 174.818L158.874 173.732ZM159.689 170.36L160.967 169.082L164.95 173.064L163.671 174.343L159.689 170.36ZM152.505 171.005L160.696 162.814L161.94 164.058L155.107 170.892L161.408 177.194L160.051 178.551L152.505 171.005ZM160.311 163.199L161.703 161.807L167.891 167.996C168.216 168.32 168.419 168.614 168.502 168.878C168.593 169.15 168.57 169.444 168.434 169.76C168.299 170.092 168.068 170.436 167.744 170.79C167.435 171.145 167.05 171.552 166.59 172.012C166.386 171.869 166.13 171.733 165.821 171.605C165.519 171.469 165.244 171.367 164.995 171.299C165.191 171.118 165.391 170.933 165.595 170.745C165.798 170.556 165.979 170.383 166.138 170.224C166.296 170.051 166.402 169.938 166.454 169.885C166.56 169.779 166.617 169.693 166.624 169.625C166.624 169.549 166.583 169.47 166.5 169.387L160.311 163.199ZM156.544 170.066L157.302 168.674C157.618 168.72 157.95 168.803 158.297 168.923C158.652 169.036 158.946 169.15 159.18 169.263L158.422 170.767C158.195 170.632 157.905 170.5 157.55 170.371C157.196 170.243 156.86 170.141 156.544 170.066ZM159.44 166.581L160.899 165.755C161.02 166.178 161.133 166.593 161.239 167C161.344 167.392 161.424 167.75 161.476 168.075L160.221 168.742C160.168 168.524 160.096 168.286 160.006 168.03C159.923 167.766 159.832 167.509 159.734 167.26C159.636 167.011 159.538 166.785 159.44 166.581ZM153.398 164.16L154.88 162.678L158.738 166.536L157.256 168.018L153.398 164.16ZM161.295 157.983L171.342 147.936L172.609 149.203L162.562 159.25L161.295 157.983ZM164.633 152.79L166.047 151.376L176.671 161.999L175.256 163.414L164.633 152.79ZM170.742 159.601L172.371 158.922C172.485 159.563 172.545 160.227 172.552 160.913C172.568 161.592 172.534 162.282 172.451 162.984C172.368 163.67 172.239 164.349 172.066 165.02C171.908 165.691 171.708 166.329 171.466 166.932C171.278 166.894 171.059 166.857 170.81 166.819C170.561 166.781 170.309 166.755 170.052 166.74C169.796 166.725 169.573 166.721 169.385 166.728C169.656 166.17 169.894 165.586 170.097 164.975C170.293 164.356 170.456 163.734 170.584 163.108C170.705 162.474 170.78 161.864 170.81 161.275C170.84 160.672 170.818 160.114 170.742 159.601ZM172.937 157.496C173.45 157.557 174.004 157.568 174.6 157.53C175.196 157.478 175.811 157.391 176.444 157.27C177.078 157.134 177.704 156.961 178.322 156.75C178.933 156.531 179.518 156.286 180.076 156.014C180.061 156.21 180.057 156.44 180.065 156.704C180.087 156.968 180.114 157.229 180.144 157.485C180.189 157.742 180.234 157.968 180.28 158.164C179.684 158.413 179.05 158.616 178.379 158.775C177.715 158.941 177.036 159.069 176.343 159.16C175.649 159.235 174.959 159.269 174.272 159.261C173.593 159.246 172.937 159.186 172.304 159.08L172.937 157.496ZM168.129 160.268L168.819 160.958L174.306 155.471L173.616 154.781L168.129 160.268ZM166.5 158.639L167.178 159.318L172.666 153.831L171.987 153.152L166.5 158.639ZM164.158 158.945L172.36 150.742L176.716 155.098L168.513 163.3L164.158 158.945Z" fill="black"/>
<path d="M113.785 145.701L122.248 137.238L123.56 138.551L115.098 147.013L113.785 145.701ZM117.847 149.876L126.626 141.096L127.86 142.329L119.08 151.109L117.847 149.876ZM117.179 146.47L123.345 140.304L124.567 141.526L118.401 147.692L117.179 146.47ZM113.005 146.482L114.362 145.124L117.802 148.563C118.284 149.046 118.797 149.589 119.34 150.192C119.883 150.796 120.415 151.441 120.936 152.127C121.456 152.813 121.916 153.522 122.316 154.254C122.723 154.978 123.025 155.702 123.221 156.426C123.063 156.434 122.863 156.468 122.621 156.528C122.388 156.581 122.15 156.645 121.909 156.72C121.675 156.788 121.479 156.864 121.32 156.947C121.147 156.275 120.879 155.616 120.517 154.967C120.155 154.318 119.74 153.692 119.273 153.089C118.805 152.485 118.326 151.916 117.836 151.38C117.345 150.845 116.878 150.355 116.433 149.91L113.005 146.482ZM119.827 148.846L121.151 147.522L125.427 151.799L124.103 153.123L119.827 148.846ZM122.814 154.005C123.146 153.583 123.515 153.093 123.922 152.534C124.33 151.961 124.76 151.358 125.212 150.724C125.672 150.083 126.129 149.446 126.581 148.812L127.848 149.921C127.449 150.517 127.037 151.124 126.615 151.742C126.193 152.361 125.782 152.953 125.382 153.519C124.997 154.084 124.639 154.609 124.307 155.091L122.814 154.005ZM123.108 145.565C124.036 146.131 124.96 146.527 125.88 146.753C126.8 146.979 127.731 147.006 128.674 146.832C129.625 146.651 130.605 146.236 131.616 145.588C131.616 145.784 131.631 146.01 131.661 146.267C131.699 146.516 131.744 146.764 131.797 147.013C131.857 147.27 131.921 147.492 131.989 147.681C130.835 148.337 129.723 148.733 128.652 148.869C127.581 148.989 126.51 148.884 125.438 148.552C124.367 148.22 123.247 147.703 122.078 147.002L123.108 145.565ZM126.457 143.755L128.425 143.348C128.342 143.823 128.241 144.317 128.12 144.83C128.007 145.335 127.882 145.829 127.746 146.312C127.611 146.78 127.479 147.213 127.35 147.613L125.767 147.839C125.88 147.439 125.982 146.998 126.072 146.516C126.17 146.025 126.253 145.543 126.321 145.067C126.389 144.577 126.434 144.14 126.457 143.755ZM138.987 145.072L126.146 132.231L127.232 131.145L140.073 143.986L138.987 145.072ZM137.375 129.488L144.084 122.779L145.419 124.114L138.71 130.823L137.375 129.488ZM133.788 125.947L141.233 118.503L146.754 124.024L145.351 125.427L141.165 121.24L135.123 127.282L133.788 125.947ZM132.974 126.762L134.388 125.347L141.674 132.633C141.968 132.927 142.221 133.12 142.432 133.21C142.636 133.293 142.858 133.259 143.099 133.109C143.348 132.95 143.68 132.664 144.095 132.249C144.216 132.128 144.404 131.939 144.661 131.683C144.917 131.427 145.204 131.14 145.521 130.823C145.845 130.499 146.169 130.174 146.494 129.85C146.818 129.526 147.108 129.235 147.365 128.979C147.629 128.715 147.821 128.523 147.942 128.402C148.319 128.025 148.56 127.701 148.666 127.429C148.771 127.142 148.749 126.833 148.598 126.501C148.44 126.162 148.149 125.721 147.727 125.178C147.923 125.132 148.138 125.068 148.372 124.985C148.598 124.895 148.824 124.789 149.05 124.668C149.277 124.548 149.469 124.438 149.627 124.34C150.035 124.868 150.348 125.355 150.566 125.8C150.778 126.237 150.88 126.656 150.872 127.056C150.872 127.448 150.748 127.851 150.499 128.266C150.265 128.681 149.903 129.134 149.412 129.624C149.322 129.714 149.171 129.865 148.96 130.076C148.756 130.28 148.519 130.518 148.247 130.789C147.983 131.053 147.708 131.328 147.421 131.615C147.135 131.902 146.859 132.177 146.595 132.441C146.331 132.705 146.098 132.939 145.894 133.142C145.698 133.339 145.555 133.482 145.464 133.572C144.913 134.123 144.423 134.545 143.993 134.84C143.563 135.134 143.152 135.303 142.76 135.349C142.368 135.394 141.972 135.307 141.572 135.088C141.165 134.862 140.724 134.511 140.248 134.036L132.974 126.762Z" fill="black"/>
<path d="M83.0524 128.286L93.5289 117.809L95.011 119.291L84.5345 129.768L83.0524 128.286ZM100.091 119.325L107.117 112.299L108.486 113.668L101.46 120.694L100.091 119.325ZM96.6062 115.886L103.655 108.837L105.001 110.184L97.9525 117.232L96.6062 115.886ZM92.5106 113.193L101.075 104.629L110.024 113.578L108.576 115.026L101.007 107.457L95.2599 113.204L102.84 120.785L101.471 122.154L92.5106 113.193ZM94.1285 108.181L96.1423 106.643C96.3912 107.238 96.6175 107.834 96.8212 108.43C97.0248 109.026 97.1907 109.546 97.319 109.991L95.7011 111.066C95.5653 110.764 95.4107 110.444 95.2372 110.104C95.0713 109.758 94.8903 109.418 94.6942 109.086C94.5056 108.747 94.3171 108.445 94.1285 108.181ZM104.152 103.814L107.298 100.669L108.667 102.038L105.521 105.183L104.152 103.814ZM105.77 96.6525L107.218 95.2043L116.077 104.063C116.484 104.47 116.752 104.836 116.88 105.16C117.009 105.485 117.012 105.828 116.892 106.19C116.771 106.552 116.541 106.94 116.202 107.355C115.877 107.77 115.455 108.238 114.934 108.758C114.776 108.63 114.572 108.502 114.323 108.373C114.09 108.245 113.845 108.128 113.588 108.023C113.324 107.91 113.09 107.827 112.887 107.774C113.271 107.419 113.626 107.08 113.95 106.756C114.274 106.431 114.493 106.213 114.606 106.099C114.719 105.986 114.776 105.884 114.776 105.794C114.776 105.703 114.727 105.609 114.629 105.511L105.77 96.6525ZM106.834 101.133L107.117 100.85L107.309 100.544L108.576 99.9561C109.443 101.155 110.134 102.343 110.647 103.52C111.167 104.689 111.525 105.817 111.721 106.903C111.917 107.974 111.944 108.981 111.801 109.923C111.612 109.886 111.382 109.867 111.11 109.867C110.831 109.859 110.552 109.867 110.273 109.89C110.002 109.905 109.775 109.935 109.594 109.98C109.76 109.105 109.779 108.196 109.651 107.253C109.515 106.303 109.236 105.338 108.814 104.357C108.391 103.362 107.829 102.385 107.128 101.427L106.834 101.133ZM108.78 96.9467C109.715 97.5199 110.669 98.0139 111.642 98.4287C112.623 98.836 113.607 99.1491 114.595 99.3678C115.583 99.5865 116.567 99.6808 117.548 99.6506C118.528 99.6054 119.486 99.4168 120.422 99.0849C120.399 99.2886 120.391 99.53 120.399 99.809C120.406 100.088 120.433 100.371 120.478 100.658C120.523 100.929 120.572 101.174 120.625 101.393C119.252 101.77 117.868 101.872 116.473 101.698C115.07 101.517 113.656 101.121 112.23 100.51C110.805 99.8995 109.372 99.1453 107.931 98.2477L108.78 96.9467ZM112.072 93.8806L114.244 93.496C114.252 94.1522 114.252 94.8385 114.244 95.5551C114.237 96.2716 114.21 96.9693 114.165 97.6481C114.127 98.3194 114.067 98.9303 113.984 99.4809L112.242 99.7072C112.295 99.1415 112.321 98.5193 112.321 97.8404C112.328 97.1541 112.313 96.4677 112.276 95.7813C112.23 95.0874 112.163 94.4539 112.072 93.8806ZM121.508 95.5777L128.884 88.2012L129.948 89.2646L122.571 96.6412L121.508 95.5777ZM119.98 93.462L127.572 85.8705L128.703 87.0019L121.112 94.5934L119.98 93.462ZM121.938 98.8134L131.95 88.8008L133.116 89.9661L123.103 99.9787L121.938 98.8134ZM121.926 90.1358L123.329 88.7329L128.477 93.8806L127.074 95.2835L121.926 90.1358ZM118.181 90.1924L118.792 90.8033L123.816 85.78L123.205 85.1691L118.181 90.1924ZM116.631 88.6424L117.22 89.2307L122.243 84.2074L121.655 83.6191L116.631 88.6424ZM114.267 88.9479L122.028 81.1867L126.248 85.4067L118.487 93.1679L114.267 88.9479ZM118.962 92.4664L120.67 91.5274C120.874 92.0629 121.036 92.6248 121.157 93.2131C121.278 93.8014 121.361 94.3822 121.406 94.9554C121.451 95.5287 121.459 96.0566 121.428 96.5394C121.255 96.5469 121.048 96.5658 120.806 96.5959C120.565 96.6261 120.324 96.6638 120.082 96.7091C119.833 96.7468 119.622 96.792 119.449 96.8448C119.547 96.1585 119.554 95.4268 119.471 94.65C119.388 93.858 119.219 93.1302 118.962 92.4664Z" fill="black"/>
<path d="M270.894 146.959L280.94 157.006L279.673 158.273L269.627 148.226L270.894 146.959ZM268.518 154.313L273.575 159.37L272.523 160.422L267.466 155.365L268.518 154.313ZM266.481 155.874L272.025 161.418L270.939 162.504L265.395 156.96L266.481 155.874ZM269.853 156.689L271.131 157.967L267.149 161.95L265.87 160.671L269.853 156.689ZM269.208 149.505L277.399 157.696L276.155 158.94L269.321 152.107L263.019 158.408L261.662 157.051L269.208 149.505ZM277.014 157.311L278.406 158.703L272.217 164.891C271.893 165.216 271.599 165.419 271.335 165.502C271.063 165.593 270.769 165.57 270.453 165.434C270.121 165.299 269.777 165.068 269.423 164.744C269.068 164.435 268.661 164.05 268.201 163.59C268.344 163.386 268.48 163.13 268.608 162.821C268.744 162.519 268.846 162.244 268.914 161.995C269.095 162.191 269.28 162.391 269.468 162.595C269.657 162.798 269.83 162.979 269.989 163.138C270.162 163.296 270.275 163.402 270.328 163.454C270.434 163.56 270.52 163.617 270.588 163.624C270.664 163.624 270.743 163.583 270.826 163.5L277.014 157.311ZM270.147 153.544L271.539 154.302C271.493 154.618 271.41 154.95 271.29 155.297C271.177 155.652 271.063 155.946 270.95 156.18L269.446 155.422C269.581 155.195 269.713 154.905 269.842 154.55C269.97 154.196 270.072 153.86 270.147 153.544ZM273.632 156.44L274.458 157.899C274.035 158.02 273.62 158.133 273.213 158.239C272.821 158.344 272.463 158.424 272.138 158.476L271.471 157.221C271.689 157.168 271.927 157.096 272.184 157.006C272.447 156.923 272.704 156.832 272.953 156.734C273.202 156.636 273.428 156.538 273.632 156.44ZM276.053 150.398L277.535 151.88L273.677 155.738L272.195 154.256L276.053 150.398ZM275.702 167.267L283.373 174.938L282.117 176.194L274.446 168.523L275.702 167.267ZM280.363 160.864L289.697 170.197L282.287 177.608L280.906 176.228L287.061 170.073L280.431 163.443L274.254 169.62L272.93 168.297L280.363 160.864ZM284.957 166.498L286.258 167.799L284.221 169.835C284.078 169.979 283.999 170.08 283.984 170.141C283.984 170.201 284.04 170.288 284.153 170.401C284.176 170.424 284.225 170.473 284.3 170.548C284.383 170.631 284.463 170.71 284.538 170.786C284.621 170.869 284.681 170.929 284.719 170.967C284.787 171.035 284.847 171.072 284.9 171.08C284.968 171.087 285.051 171.057 285.149 170.989C285.255 170.929 285.398 170.816 285.579 170.65C285.594 170.786 285.632 170.952 285.692 171.148C285.768 171.344 285.85 171.54 285.941 171.736C286.047 171.932 286.148 172.102 286.246 172.245C285.847 172.539 285.504 172.732 285.217 172.822C284.93 172.913 284.666 172.913 284.425 172.822C284.191 172.739 283.946 172.569 283.69 172.313C283.629 172.253 283.558 172.181 283.475 172.098C283.392 172.015 283.301 171.925 283.203 171.827C283.113 171.736 283.026 171.649 282.943 171.566C282.86 171.483 282.792 171.415 282.739 171.363C282.377 171.001 282.143 170.676 282.038 170.39C281.94 170.111 281.966 169.828 282.117 169.541C282.268 169.255 282.532 168.923 282.909 168.546L284.957 166.498ZM282.445 157.877L292.616 168.048L291.304 169.36L281.133 159.189L282.445 157.877ZM284.538 161.961L285.873 163.296L283.61 165.559L282.275 164.224L284.538 161.961ZM287.016 164.439L288.385 165.808L286.122 168.07L284.753 166.701L287.016 164.439ZM282.807 163.828L284.074 165.095L282.954 166.215C282.577 166.592 282.14 166.931 281.642 167.233C281.144 167.535 280.578 167.731 279.945 167.821C279.311 167.912 278.598 167.833 277.806 167.584C277.829 167.441 277.837 167.252 277.829 167.018C277.822 166.784 277.803 166.547 277.772 166.305C277.75 166.072 277.72 165.883 277.682 165.74C278.399 165.974 279.006 166.068 279.503 166.023C280.009 165.985 280.439 165.857 280.793 165.638C281.148 165.419 281.457 165.178 281.721 164.914L282.807 163.828Z" fill="black"/>
<path d="M291.07 119.263L301.207 129.4L299.861 130.746L289.724 120.609L291.07 119.263ZM294.713 117.317L303.176 125.78L301.83 127.126L293.367 118.663L294.713 117.317ZM299.872 119.082L301.32 120.53L290.697 131.154L289.249 129.706L299.872 119.082ZM294.362 124.117L295.053 125.78C294.336 125.953 293.589 126.081 292.812 126.164C292.043 126.24 291.266 126.262 290.482 126.232C289.705 126.21 288.939 126.138 288.185 126.017C287.446 125.897 286.737 125.731 286.058 125.52C286.103 125.323 286.137 125.093 286.16 124.829C286.19 124.573 286.209 124.313 286.217 124.049C286.239 123.785 286.243 123.547 286.228 123.336C286.854 123.585 287.514 123.792 288.208 123.958C288.917 124.124 289.63 124.241 290.346 124.309C291.063 124.377 291.76 124.396 292.439 124.366C293.126 124.328 293.767 124.245 294.362 124.117ZM296.286 126.063C296.15 126.651 296.063 127.288 296.026 127.975C296.003 128.661 296.026 129.362 296.093 130.079C296.161 130.795 296.271 131.501 296.422 132.195C296.588 132.889 296.791 133.545 297.033 134.163C296.844 134.141 296.614 134.137 296.342 134.152C296.086 134.167 295.826 134.193 295.562 134.231C295.298 134.269 295.068 134.31 294.872 134.356C294.668 133.684 294.51 132.975 294.396 132.229C294.283 131.482 294.215 130.72 294.193 129.943C294.178 129.159 294.208 128.382 294.283 127.613C294.366 126.851 294.494 126.112 294.668 125.395L296.286 126.063ZM297.141 141.987L309.982 129.146L311.068 130.232L298.227 143.073L297.141 141.987ZM314.331 136.551L323.507 145.726L316.775 152.458L315.361 151.044L320.792 145.613L314.388 139.209L308.901 144.697L307.543 143.339L314.331 136.551ZM312.781 139.888L320.316 147.423L319.061 148.679L311.526 141.144L312.781 139.888ZM310.326 142.321L317.895 149.89L316.594 151.191L309.025 143.622L310.326 142.321ZM319.66 138.847L321.086 140.273L310.462 150.896L309.037 149.471L319.66 138.847Z" fill="black"/>
<path d="M263.713 283.073L267.073 279.713L268.419 281.059L265.059 284.419L263.713 283.073ZM266.745 275.04L268.159 273.626L276.316 281.783C276.633 282.1 276.863 282.277 277.006 282.315C277.142 282.345 277.315 282.255 277.527 282.043C277.572 281.998 277.647 281.923 277.753 281.817C277.859 281.711 277.975 281.595 278.104 281.466C278.232 281.338 278.349 281.221 278.454 281.116C278.56 281.01 278.639 280.931 278.692 280.878C278.843 280.727 278.892 280.55 278.839 280.346C278.786 280.143 278.609 279.86 278.307 279.498C278.006 279.121 277.564 278.619 276.984 277.993C277.18 277.963 277.395 277.914 277.628 277.846C277.87 277.771 278.104 277.688 278.33 277.597C278.549 277.499 278.737 277.401 278.896 277.303C279.574 278.072 280.08 278.736 280.412 279.294C280.751 279.845 280.898 280.339 280.853 280.776C280.823 281.214 280.593 281.647 280.163 282.077C280.102 282.138 280.001 282.239 279.857 282.383C279.714 282.526 279.559 282.681 279.393 282.847C279.235 283.005 279.088 283.152 278.952 283.288C278.816 283.424 278.715 283.525 278.647 283.593C278.217 284.023 277.813 284.299 277.436 284.419C277.074 284.54 276.693 284.498 276.293 284.295C275.886 284.084 275.419 283.714 274.891 283.186L266.745 275.04ZM263.894 277.891L265.308 276.477L275.626 286.795L274.212 288.209L263.894 277.891ZM272.164 272.992L274.37 273.23C274.242 273.886 274.091 274.565 273.918 275.266C273.737 275.96 273.544 276.658 273.341 277.359C273.137 278.046 272.926 278.71 272.707 279.351C272.511 279.245 272.254 279.147 271.938 279.057C271.613 278.958 271.334 278.883 271.1 278.83C271.289 278.204 271.455 277.548 271.598 276.862C271.742 276.175 271.858 275.5 271.949 274.837C272.047 274.165 272.119 273.551 272.164 272.992ZM268.43 288.605C268.649 288.206 268.898 287.738 269.177 287.202C269.449 286.659 269.732 286.082 270.026 285.471C270.312 284.853 270.599 284.242 270.886 283.639L272.368 284.6C272.058 285.422 271.73 286.256 271.383 287.101C271.044 287.938 270.731 288.703 270.444 289.397L268.43 288.605ZM282.267 276.511L289.938 268.84L291.194 270.096L283.523 277.767L282.267 276.511ZM275.864 271.85L285.197 262.516L292.608 269.926L291.228 271.307L285.073 265.152L278.443 271.782L284.62 277.959L283.297 279.283L275.864 271.85ZM281.498 267.256L282.799 265.955L284.835 267.992C284.979 268.135 285.08 268.214 285.141 268.229C285.201 268.229 285.288 268.173 285.401 268.06C285.424 268.037 285.473 267.988 285.548 267.913C285.631 267.83 285.71 267.75 285.786 267.675C285.869 267.592 285.929 267.532 285.967 267.494C286.035 267.426 286.072 267.366 286.08 267.313C286.087 267.245 286.057 267.162 285.989 267.064C285.929 266.958 285.816 266.815 285.65 266.634C285.786 266.619 285.952 266.581 286.148 266.521C286.344 266.446 286.54 266.363 286.736 266.272C286.932 266.166 287.102 266.065 287.245 265.967C287.539 266.366 287.732 266.709 287.822 266.996C287.913 267.283 287.913 267.547 287.822 267.788C287.739 268.022 287.569 268.267 287.313 268.523C287.253 268.584 287.181 268.655 287.098 268.738C287.015 268.821 286.925 268.912 286.827 269.01C286.736 269.1 286.649 269.187 286.566 269.27C286.483 269.353 286.415 269.421 286.363 269.474C286.001 269.836 285.676 270.07 285.39 270.175C285.111 270.273 284.828 270.247 284.541 270.096C284.255 269.945 283.923 269.681 283.546 269.304L281.498 267.256ZM272.877 269.768L283.048 259.597L284.36 260.909L274.189 271.08L272.877 269.768ZM276.961 267.675L278.296 266.34L280.559 268.603L279.224 269.938L276.961 267.675ZM279.439 265.197L280.808 263.828L283.07 266.091L281.701 267.46L279.439 265.197ZM278.828 269.406L280.095 268.139L281.215 269.259C281.592 269.636 281.931 270.073 282.233 270.571C282.535 271.069 282.731 271.635 282.821 272.268C282.912 272.902 282.833 273.615 282.584 274.407C282.441 274.384 282.252 274.376 282.018 274.384C281.784 274.392 281.547 274.41 281.305 274.441C281.072 274.463 280.883 274.493 280.74 274.531C280.974 273.815 281.068 273.207 281.023 272.71C280.985 272.204 280.857 271.774 280.638 271.42C280.419 271.065 280.178 270.756 279.914 270.492L278.828 269.406Z" fill="black"/>
<path d="M288.67 316.441L288.817 314.484C289.345 314.333 289.926 314.182 290.56 314.032C291.193 313.881 291.816 313.756 292.427 313.658C293.03 313.553 293.554 313.496 293.999 313.488L293.886 315.638C293.471 315.631 292.962 315.665 292.359 315.74C291.755 315.815 291.129 315.913 290.481 316.034C289.832 316.155 289.228 316.291 288.67 316.441ZM297.269 315.627L297.619 313.511C298.042 313.39 298.517 313.262 299.045 313.126C299.565 312.983 300.09 312.844 300.618 312.708C301.146 312.572 301.658 312.459 302.156 312.368C302.654 312.263 303.092 312.187 303.469 312.142L303.141 314.507C302.801 314.529 302.39 314.578 301.907 314.654C301.425 314.729 300.916 314.824 300.38 314.937C299.845 315.035 299.309 315.148 298.773 315.276C298.23 315.397 297.729 315.514 297.269 315.627ZM289.949 310.524L291.997 309.744C292.004 310.309 291.997 310.89 291.974 311.486C291.944 312.074 291.906 312.648 291.861 313.206C291.816 313.749 291.755 314.247 291.68 314.699L289.983 315.219C290.036 314.744 290.069 314.235 290.085 313.692C290.1 313.134 290.096 312.58 290.073 312.029C290.058 311.471 290.017 310.969 289.949 310.524ZM284.993 313.941L295.153 303.781L296.42 305.048L286.261 315.208L284.993 313.941ZM288.048 308.352L289.474 306.927L291.295 308.748L289.87 310.174L288.048 308.352ZM293.581 308.816L295.481 308.228C295.655 309.517 295.647 310.83 295.459 312.165C295.27 313.485 294.938 314.797 294.463 316.102C293.98 317.399 293.392 318.681 292.698 319.949C292.434 319.851 292.11 319.768 291.725 319.7C291.34 319.617 290.982 319.568 290.65 319.553C291.359 318.391 291.966 317.203 292.472 315.989C292.97 314.767 293.324 313.545 293.535 312.323C293.746 311.101 293.762 309.932 293.581 308.816ZM296.828 309.28L298.841 308.714C299.09 310.29 299.087 311.856 298.83 313.409C298.574 314.963 298.117 316.513 297.461 318.059C296.805 319.59 295.994 321.118 295.029 322.641C294.742 322.521 294.399 322.411 293.999 322.313C293.614 322.215 293.252 322.155 292.913 322.132C293.871 320.707 294.689 319.27 295.368 317.822C296.039 316.366 296.511 314.922 296.782 313.488C297.061 312.048 297.076 310.645 296.828 309.28ZM310.987 311.072L298.146 298.231L299.232 297.145L312.073 309.986L310.987 311.072ZM311.456 286.618L311.479 284.989C311.796 284.883 312.139 284.789 312.509 284.706C312.886 284.616 313.252 284.544 313.606 284.491C313.961 284.423 314.262 284.393 314.511 284.401L314.534 286.166C314.285 286.143 313.983 286.158 313.629 286.211C313.274 286.249 312.905 286.301 312.52 286.369C312.135 286.437 311.781 286.52 311.456 286.618ZM315.597 288.293L317.317 287.32C318.245 289.349 318.799 291.381 318.98 293.418C319.161 295.454 318.969 297.427 318.403 299.335C318.237 299.29 318.022 299.256 317.758 299.233C317.509 299.21 317.249 299.191 316.978 299.176C316.721 299.161 316.499 299.158 316.31 299.165C316.951 297.393 317.211 295.586 317.091 293.746C316.97 291.89 316.472 290.073 315.597 288.293ZM306.954 293.248L315.597 284.604L316.887 285.894L308.243 294.538L306.954 293.248ZM311.411 295.692L314.194 292.909L315.45 294.164L312.667 296.948L311.411 295.692ZM306.275 293.927L307.632 292.569L310.698 295.635C311.121 296.058 311.566 296.54 312.033 297.083C312.494 297.619 312.935 298.196 313.357 298.814C313.787 299.425 314.153 300.063 314.455 300.726C314.749 301.383 314.937 302.046 315.02 302.718C314.862 302.695 314.654 302.691 314.398 302.706C314.149 302.729 313.896 302.755 313.64 302.785C313.399 302.816 313.195 302.853 313.029 302.899C312.946 302.303 312.776 301.733 312.52 301.19C312.271 300.64 311.966 300.115 311.604 299.618C311.249 299.112 310.876 298.641 310.483 298.203C310.084 297.758 309.703 297.355 309.341 296.993L306.275 293.927ZM308.809 287.614L310.178 286.245C311.158 287.18 312.124 288.063 313.074 288.892C314.025 289.707 314.937 290.438 315.812 291.087C316.68 291.728 317.487 292.249 318.233 292.648C318.98 293.048 319.64 293.301 320.213 293.406C320.786 293.512 321.247 293.429 321.594 293.158C321.759 293.052 321.707 292.803 321.435 292.411C321.164 292.004 320.741 291.483 320.168 290.85C320.447 290.842 320.764 290.804 321.118 290.736C321.48 290.661 321.786 290.582 322.035 290.499C323.015 291.645 323.528 292.573 323.573 293.282C323.626 293.998 323.283 294.545 322.544 294.922C321.971 295.3 321.311 295.462 320.564 295.409C319.825 295.364 319.018 295.137 318.143 294.73C317.268 294.323 316.336 293.768 315.348 293.067C314.353 292.358 313.308 291.547 312.214 290.635C311.121 289.707 309.986 288.7 308.809 287.614Z" fill="black"/>
<path d="M305.026 345.588L313.658 336.956L315.05 338.347L306.418 346.98L305.026 345.588ZM309.45 348.451L316.396 341.504L317.777 342.884L310.83 349.831L309.45 348.451ZM311.871 353.7L321.736 343.835L323.117 345.215L313.251 355.08L311.871 353.7ZM315.129 334.241L319.519 329.851L320.537 330.869L316.148 335.259L315.129 334.241ZM320.153 339.626L330.301 329.478L331.364 330.541L321.216 340.689L320.153 339.626ZM317.019 335.881L321.08 331.819L322.087 332.826L318.026 336.888L317.019 335.881ZM326.533 340.441L332.043 334.931L333.062 335.949L327.552 341.459L326.533 340.441ZM318.637 338.2C319.021 337.77 319.455 337.284 319.938 336.741C320.428 336.19 320.945 335.613 321.488 335.01C322.023 334.399 322.559 333.788 323.094 333.177L324.112 334.218C323.351 335.1 322.589 335.983 321.827 336.865C321.058 337.74 320.383 338.513 319.802 339.185L318.637 338.2ZM317.098 333.064L318.376 331.786L321.906 335.315L320.786 336.752L317.098 333.064ZM321.363 327.079L322.981 325.71C323.139 326.08 323.283 326.434 323.411 326.774C323.539 327.113 323.645 327.415 323.728 327.679L322.37 328.674C322.227 328.41 322.065 328.135 321.884 327.848C321.71 327.554 321.537 327.298 321.363 327.079ZM324.192 331.039L324.916 331.763L327.122 329.557L326.398 328.833L324.192 331.039ZM322.528 329.376L323.241 330.088L325.447 327.882L324.735 327.17L322.528 329.376ZM320.266 329.602L325.006 324.862L329.43 329.285L324.689 334.026L320.266 329.602ZM323.49 336.696L325.119 335.881C325.308 336.658 325.406 337.465 325.413 338.302C325.421 339.139 325.353 339.969 325.21 340.791C325.066 341.613 324.867 342.394 324.61 343.133C324.467 343.095 324.278 343.058 324.044 343.02C323.803 342.975 323.562 342.937 323.32 342.907C323.079 342.877 322.872 342.865 322.698 342.873C322.977 342.217 323.203 341.53 323.377 340.814C323.55 340.097 323.648 339.388 323.671 338.687C323.701 337.978 323.641 337.314 323.49 336.696ZM323.796 339.513L331.183 332.125L334.329 335.27L332.869 336.73L330.742 334.603L326.217 339.128L328.4 341.312L326.997 342.715L323.796 339.513ZM328.559 325.178L338.515 315.222L339.861 316.569L329.905 326.525L328.559 325.178ZM330.165 318.3L331.613 316.851L342.237 327.475L340.789 328.923L330.165 318.3ZM333.243 321.965L334.849 321.173C335.188 322.026 335.471 322.897 335.698 323.787C335.924 324.677 336.086 325.571 336.184 326.468C336.29 327.358 336.327 328.241 336.297 329.116C336.267 329.975 336.158 330.801 335.969 331.593C335.781 331.555 335.554 331.525 335.29 331.503C335.026 331.48 334.762 331.465 334.498 331.457C334.227 331.442 333.993 331.442 333.797 331.457C334.008 330.733 334.151 329.972 334.227 329.172C334.302 328.357 334.317 327.535 334.272 326.706C334.219 325.868 334.102 325.05 333.921 324.251C333.748 323.444 333.522 322.682 333.243 321.965ZM335.302 320.019C336.003 320.283 336.754 320.491 337.553 320.642C338.353 320.792 339.163 320.887 339.985 320.924C340.815 320.955 341.63 320.932 342.429 320.857C343.229 320.781 343.983 320.638 344.692 320.427C344.669 320.615 344.662 320.849 344.669 321.128C344.677 321.392 344.696 321.66 344.726 321.931C344.764 322.195 344.805 322.425 344.85 322.621C344.074 322.795 343.263 322.897 342.418 322.927C341.566 322.95 340.694 322.916 339.804 322.825C338.907 322.727 338.017 322.569 337.134 322.35C336.252 322.131 335.392 321.867 334.555 321.558L335.302 320.019ZM345.948 317.18L353.324 309.803L354.388 310.866L347.011 318.243L345.948 317.18ZM344.42 315.064L352.012 307.472L353.143 308.604L345.552 316.195L344.42 315.064ZM346.378 320.415L356.39 310.403L357.556 311.568L347.543 321.581L346.378 320.415ZM346.366 311.738L347.769 310.335L352.917 315.482L351.514 316.885L346.366 311.738ZM342.622 311.794L343.233 312.405L348.256 307.382L347.645 306.771L342.622 311.794ZM341.072 310.244L341.66 310.833L346.683 305.809L346.095 305.221L341.072 310.244ZM338.707 310.55L346.468 302.789L350.688 307.009L342.927 314.77L338.707 310.55ZM343.402 314.068L345.111 313.129C345.314 313.665 345.476 314.227 345.597 314.815C345.718 315.403 345.801 315.984 345.846 316.557C345.891 317.131 345.899 317.658 345.869 318.141C345.695 318.149 345.488 318.168 345.246 318.198C345.005 318.228 344.764 318.266 344.522 318.311C344.273 318.349 344.062 318.394 343.889 318.447C343.987 317.76 343.994 317.029 343.911 316.252C343.828 315.46 343.659 314.732 343.402 314.068Z" fill="black"/>
<path d="M156.927 261.5L160.288 264.86L158.941 266.206L155.581 262.846L156.927 261.5ZM164.96 264.532L166.374 265.946L158.217 274.103C157.9 274.42 157.723 274.65 157.685 274.793C157.655 274.929 157.746 275.102 157.957 275.314C158.002 275.359 158.078 275.434 158.183 275.54C158.289 275.646 158.406 275.762 158.534 275.891C158.662 276.019 158.779 276.136 158.885 276.241C158.99 276.347 159.07 276.426 159.122 276.479C159.273 276.63 159.45 276.679 159.654 276.626C159.858 276.573 160.141 276.396 160.503 276.094C160.88 275.793 161.381 275.351 162.007 274.771C162.038 274.967 162.087 275.182 162.154 275.415C162.23 275.657 162.313 275.891 162.403 276.117C162.501 276.336 162.599 276.524 162.697 276.683C161.928 277.361 161.264 277.867 160.706 278.199C160.156 278.538 159.662 278.685 159.224 278.64C158.787 278.61 158.353 278.38 157.923 277.95C157.863 277.889 157.761 277.788 157.618 277.644C157.474 277.501 157.32 277.346 157.154 277.18C156.995 277.022 156.848 276.875 156.713 276.739C156.577 276.603 156.475 276.502 156.407 276.434C155.977 276.004 155.702 275.6 155.581 275.223C155.46 274.861 155.502 274.48 155.706 274.08C155.917 273.673 156.286 273.206 156.814 272.678L164.96 264.532ZM162.109 261.681L163.523 263.095L153.205 273.413L151.791 271.999L162.109 261.681ZM167.008 269.951L166.77 272.157C166.114 272.029 165.435 271.878 164.734 271.705C164.04 271.524 163.342 271.331 162.641 271.128C161.955 270.924 161.291 270.713 160.65 270.494C160.755 270.298 160.853 270.041 160.944 269.725C161.042 269.4 161.117 269.121 161.17 268.887C161.796 269.076 162.452 269.242 163.139 269.385C163.825 269.529 164.5 269.645 165.164 269.736C165.835 269.834 166.45 269.906 167.008 269.951ZM151.395 266.217C151.795 266.436 152.262 266.685 152.798 266.964C153.341 267.236 153.918 267.518 154.529 267.813C155.147 268.099 155.758 268.386 156.362 268.672L155.4 270.155C154.578 269.845 153.745 269.517 152.9 269.17C152.063 268.831 151.297 268.518 150.603 268.231L151.395 266.217ZM170.017 271.082L180.064 281.129L178.797 282.396L168.75 272.349L170.017 271.082ZM175.21 274.42L176.625 275.834L166.001 286.458L164.587 285.043L175.21 274.42ZM168.4 280.529L169.078 282.158C168.437 282.272 167.774 282.332 167.087 282.339C166.408 282.355 165.718 282.321 165.017 282.238C164.33 282.155 163.652 282.026 162.98 281.853C162.309 281.695 161.672 281.495 161.068 281.253C161.106 281.065 161.144 280.846 161.181 280.597C161.219 280.348 161.246 280.096 161.261 279.839C161.276 279.583 161.279 279.36 161.272 279.172C161.83 279.443 162.415 279.681 163.026 279.884C163.644 280.08 164.266 280.243 164.892 280.371C165.526 280.492 166.137 280.567 166.725 280.597C167.329 280.627 167.887 280.605 168.4 280.529ZM170.504 282.724C170.444 283.237 170.432 283.791 170.47 284.387C170.523 284.983 170.61 285.598 170.73 286.231C170.866 286.865 171.039 287.491 171.251 288.109C171.469 288.72 171.714 289.305 171.986 289.863C171.79 289.848 171.56 289.844 171.296 289.852C171.032 289.874 170.772 289.901 170.515 289.931C170.259 289.976 170.033 290.021 169.836 290.067C169.588 289.471 169.384 288.837 169.225 288.166C169.06 287.502 168.931 286.823 168.841 286.13C168.765 285.436 168.731 284.745 168.739 284.059C168.754 283.38 168.814 282.724 168.92 282.091L170.504 282.724ZM167.732 277.916L167.042 278.606L172.529 284.093L173.219 283.403L167.732 277.916ZM169.361 276.287L168.682 276.965L174.17 282.453L174.848 281.774L169.361 276.287ZM169.056 273.945L177.258 282.147L172.902 286.503L164.7 278.3L169.056 273.945Z" fill="black"/>
<path d="M132.67 290.374L134.005 291.709L129.152 296.563L127.817 295.228L132.67 290.374ZM130.838 287.297L137.06 293.52L135.963 294.617L129.74 288.394L130.838 287.297ZM127.251 292.286L126.629 292.909L131.505 297.785L132.127 297.163L127.251 292.286ZM128.824 290.714L128.213 291.325L133.089 296.201L133.7 295.59L128.824 290.714ZM128.541 288.372L136.11 295.941L131.856 300.195L124.287 292.626L128.541 288.372ZM128.111 297.717L129.808 297.626C130.08 298.185 130.347 298.762 130.611 299.357C130.883 299.961 131.132 300.534 131.358 301.077C131.599 301.62 131.799 302.099 131.958 302.514L129.966 302.469C129.838 302.084 129.676 301.628 129.48 301.1C129.291 300.579 129.08 300.029 128.846 299.448C128.613 298.867 128.367 298.29 128.111 297.717ZM135.872 287.082L137.275 288.485L135.669 290.091L134.266 288.689L135.872 287.082ZM130.962 283.756L140.681 293.474L138.18 295.975L136.789 294.583L138.056 293.316L131.064 286.324L129.797 287.591L128.462 286.256L130.962 283.756ZM126.538 294.334L126.855 296.325C126.342 296.22 125.78 296.05 125.169 295.816C124.559 295.597 123.948 295.334 123.337 295.024C122.726 294.73 122.152 294.413 121.617 294.074C121.677 293.833 121.73 293.531 121.775 293.169C121.828 292.814 121.862 292.501 121.877 292.23C122.367 292.554 122.895 292.863 123.461 293.158C124.042 293.452 124.6 293.701 125.136 293.904C125.686 294.108 126.154 294.251 126.538 294.334ZM133.141 309.987L145.982 297.146L147.068 298.232L134.227 311.073L133.141 309.987ZM151.621 304.098L158.342 310.818L157.018 312.142L150.297 305.422L151.621 304.098ZM142.378 311.531L152.47 321.623L151.157 322.935L141.066 312.844L142.378 311.531ZM146.666 306.994L157.007 317.335L155.672 318.67L145.331 308.329L146.666 306.994ZM153.035 306.96L154.427 308.352C153.839 308.835 153.22 309.333 152.572 309.845C151.923 310.358 151.267 310.871 150.603 311.384C149.947 311.905 149.298 312.41 148.657 312.9C148.016 313.39 147.401 313.847 146.813 314.269C146.24 314.692 145.719 315.069 145.252 315.401L143.837 313.986C144.335 313.654 144.882 313.274 145.478 312.844C146.074 312.414 146.688 311.957 147.322 311.475C147.971 310.992 148.623 310.498 149.279 309.993C149.943 309.48 150.592 308.967 151.225 308.454C151.859 307.941 152.462 307.443 153.035 306.96ZM157.719 310.196L159.134 311.61C158.53 312.184 157.893 312.776 157.221 313.387C156.558 313.99 155.883 314.597 155.196 315.208C154.51 315.819 153.835 316.411 153.171 316.984C152.523 317.558 151.896 318.101 151.293 318.614C150.697 319.119 150.15 319.575 149.653 319.983L148.216 318.546C148.721 318.131 149.279 317.671 149.89 317.165C150.509 316.653 151.15 316.11 151.814 315.536C152.485 314.971 153.16 314.386 153.839 313.783C154.525 313.172 155.193 312.565 155.841 311.961C156.505 311.358 157.131 310.769 157.719 310.196Z" fill="black"/>
<path d="M97.0087 308.278L105.754 317.023L104.408 318.369L95.6623 309.624L97.0087 308.278ZM88.6478 315.326L98.7962 325.474L97.4499 326.821L87.3015 316.672L88.6478 315.326ZM99.6787 311.898L101.229 313.448C100.437 314.014 99.607 314.594 98.7397 315.19C97.8723 315.786 97.0049 316.374 96.1375 316.955C95.2701 317.536 94.4405 318.079 93.6485 318.584C92.8641 319.097 92.1551 319.542 91.5215 319.919L89.9942 318.392C90.6579 318 91.3933 317.551 92.2003 317.046C93.0149 316.533 93.8484 315.986 94.7007 315.405C95.5681 314.824 96.4279 314.236 97.2802 313.64C98.1325 313.044 98.932 312.464 99.6787 311.898ZM94.0671 311.966L101.41 319.308L96.3864 324.332L94.9722 322.917L98.6605 319.229L92.7321 313.301L94.0671 311.966ZM105.946 320.564L116.174 330.792L114.941 332.025L104.713 321.797L105.946 320.564ZM108.628 319.489L117.272 328.133L116.084 329.321L107.44 320.677L108.628 319.489ZM111.332 320.519L112.712 321.899L109.397 325.214L108.017 323.834L111.332 320.519ZM114.828 324.015L116.231 325.418L112.916 328.733L111.513 327.33L114.828 324.015ZM109.646 325.667L111.049 327.07L106.41 331.708L105.007 330.305L109.646 325.667ZM104.148 327.228L103.491 327.884L108.888 333.281L109.544 332.625L104.148 327.228ZM105.652 325.723L105.019 326.357L110.415 331.753L111.049 331.12L105.652 325.723ZM105.29 323.483L113.357 331.55L109.329 335.578L101.263 327.511L105.29 323.483ZM105.313 333.009L106.931 332.907C107.21 333.458 107.481 334.024 107.745 334.605C108.017 335.193 108.27 335.755 108.503 336.29C108.745 336.833 108.945 337.305 109.103 337.705L107.225 337.637C107.097 337.267 106.935 336.826 106.738 336.313C106.535 335.808 106.312 335.268 106.071 334.695C105.83 334.122 105.577 333.56 105.313 333.009ZM103.525 329.593L103.876 331.55C103.386 331.437 102.85 331.263 102.27 331.029C101.681 330.803 101.097 330.55 100.516 330.271C99.9351 329.992 99.3996 329.713 98.9094 329.434C98.9395 329.178 98.9546 328.861 98.9546 328.484C98.9546 328.122 98.9433 327.801 98.9207 327.522C99.4109 327.831 99.9314 328.126 100.482 328.405C101.048 328.684 101.602 328.929 102.145 329.14C102.688 329.351 103.148 329.502 103.525 329.593ZM117.158 333.383L125.96 342.185L124.625 343.52L115.823 334.718L117.158 333.383ZM111.117 337.931L121.424 348.238L120.089 349.573L109.782 339.266L111.117 337.931ZM124.297 333.53L125.757 334.989L116.05 344.696L114.59 343.237L124.297 333.53ZM125.451 349.324L132.828 356.7L131.764 357.764L124.388 350.387L125.451 349.324ZM127.567 347.796L135.158 355.388L134.027 356.519L126.436 348.928L127.567 347.796ZM122.216 349.754L132.228 359.766L131.063 360.932L121.05 350.919L122.216 349.754ZM130.893 349.742L132.296 351.145L127.148 356.293L125.745 354.89L130.893 349.742ZM130.837 345.997L130.226 346.608L135.249 351.632L135.86 351.021L130.837 345.997ZM132.387 344.447L131.798 345.036L136.822 350.059L137.41 349.471L132.387 344.447ZM132.081 342.083L139.842 349.844L135.622 354.064L127.861 346.303L132.081 342.083ZM128.563 346.778L129.502 348.486C128.966 348.69 128.404 348.852 127.816 348.973C127.228 349.094 126.647 349.177 126.074 349.222C125.5 349.267 124.972 349.275 124.49 349.244C124.482 349.071 124.463 348.864 124.433 348.622C124.403 348.381 124.365 348.14 124.32 347.898C124.282 347.649 124.237 347.438 124.184 347.265C124.871 347.363 125.602 347.37 126.379 347.287C127.171 347.204 127.899 347.035 128.563 346.778Z" fill="black"/>
<path d="M317.728 82.4994L322.401 87.172L320.953 88.6201L316.28 83.9476L317.728 82.4994ZM321.281 86.0519L322.91 87.6811C322.103 88.639 321.334 89.6044 320.602 90.5774C319.878 91.5579 319.244 92.546 318.701 93.5416C318.173 94.5372 317.774 95.5253 317.502 96.5058C317.246 97.4863 317.17 98.4593 317.276 99.4247C317.072 99.3719 316.823 99.3267 316.529 99.289C316.227 99.2588 315.926 99.2362 315.624 99.2211C315.33 99.2135 315.07 99.2098 314.843 99.2098C314.798 98.1689 314.926 97.1281 315.228 96.0872C315.537 95.0388 315.971 94.0017 316.529 92.9759C317.095 91.9577 317.747 90.9508 318.486 89.9552C319.226 88.9596 320.002 87.9866 320.817 87.0362L320.557 86.776L321.281 86.0519ZM315.59 85.226L316.948 87.0136C316.178 87.5567 315.368 88.0809 314.515 88.5862C313.678 89.0915 312.814 89.5403 311.924 89.9325C311.042 90.3172 310.152 90.6189 309.254 90.8376C308.364 91.0488 307.482 91.1318 306.607 91.0865C306.63 90.898 306.633 90.6679 306.618 90.3964C306.603 90.14 306.581 89.876 306.55 89.6044C306.52 89.348 306.486 89.1255 306.449 88.9369C307.241 89.0048 308.04 88.9445 308.847 88.7559C309.662 88.5598 310.461 88.2807 311.246 87.9187C312.038 87.5491 312.796 87.1305 313.52 86.6629C314.259 86.1952 314.949 85.7163 315.59 85.226ZM320.704 100.907L327.73 107.933L326.361 109.302L319.335 102.276L320.704 100.907ZM324.143 97.4222L331.192 104.471L329.845 105.817L322.797 98.7685L324.143 97.4222ZM326.836 93.3266L335.4 101.891L326.451 110.84L325.003 109.392L332.572 101.823L326.825 96.0759L319.244 103.656L317.875 102.287L326.836 93.3266ZM331.848 94.9445L333.387 96.9583C332.791 97.2072 332.195 97.4335 331.599 97.6372C331.003 97.8408 330.483 98.0068 330.038 98.135L328.963 96.5171C329.265 96.3813 329.585 96.2267 329.925 96.0533C330.271 95.8873 330.611 95.7063 330.943 95.5102C331.282 95.3216 331.584 95.1331 331.848 94.9445ZM336.158 106.383L344.96 115.185L343.625 116.52L334.823 107.718L336.158 106.383ZM330.117 110.931L340.424 121.238L339.089 122.573L328.782 112.266L330.117 110.931ZM343.297 106.53L344.757 107.989L335.05 117.696L333.59 116.237L343.297 106.53ZM344.451 122.324L351.828 129.7L350.764 130.764L343.388 123.387L344.451 122.324ZM346.567 120.796L354.158 128.388L353.027 129.519L345.436 121.928L346.567 120.796ZM341.216 122.754L351.228 132.766L350.063 133.932L340.05 123.919L341.216 122.754ZM349.893 122.742L351.296 124.145L346.148 129.293L344.745 127.89L349.893 122.742ZM349.837 118.997L349.226 119.608L354.249 124.632L354.86 124.021L349.837 118.997ZM351.387 117.447L350.798 118.036L355.822 123.059L356.41 122.471L351.387 117.447ZM351.081 115.083L358.842 122.844L354.622 127.064L346.861 119.303L351.081 115.083ZM347.563 119.778L348.502 121.486C347.966 121.69 347.404 121.852 346.816 121.973C346.228 122.094 345.647 122.177 345.074 122.222C344.5 122.267 343.972 122.275 343.49 122.244C343.482 122.071 343.463 121.864 343.433 121.622C343.403 121.381 343.365 121.14 343.32 120.898C343.282 120.649 343.237 120.438 343.184 120.265C343.871 120.363 344.602 120.37 345.379 120.287C346.171 120.204 346.899 120.035 347.563 119.778Z" fill="black"/>
<path d="M213.896 125.728H228.104V127.52H213.896V125.728ZM217.416 132.608H224.568V134.096H217.416V132.608ZM217.08 135.152H224.92V136.688H217.08V135.152ZM220.04 133.344H221.848V138.976H220.04V133.344ZM214.504 128.72H226.088V130.48H216.424V139.392H214.504V128.72ZM225.544 128.72H227.512V137.472C227.512 137.931 227.448 138.283 227.32 138.528C227.192 138.784 226.968 138.976 226.648 139.104C226.317 139.243 225.912 139.323 225.432 139.344C224.963 139.376 224.403 139.392 223.752 139.392C223.709 139.147 223.624 138.869 223.496 138.56C223.379 138.251 223.256 137.984 223.128 137.76C223.395 137.771 223.667 137.781 223.944 137.792C224.221 137.803 224.472 137.808 224.696 137.808C224.931 137.797 225.085 137.792 225.16 137.792C225.309 137.792 225.411 137.771 225.464 137.728C225.517 137.675 225.544 137.589 225.544 137.472V128.72ZM218.024 130.912L219.544 130.464C219.736 130.72 219.912 131.013 220.072 131.344C220.243 131.675 220.371 131.963 220.456 132.208L218.856 132.736C218.792 132.48 218.68 132.181 218.52 131.84C218.36 131.499 218.195 131.189 218.024 130.912ZM222.536 130.496L224.152 130.944C223.939 131.328 223.725 131.701 223.512 132.064C223.309 132.416 223.112 132.725 222.92 132.992L221.56 132.576C221.677 132.384 221.795 132.165 221.912 131.92C222.04 131.675 222.157 131.429 222.264 131.184C222.371 130.939 222.461 130.709 222.536 130.496ZM219.976 124.512H222.072V129.968H219.976V124.512Z" fill="black"/>
<path d="M215.744 79.336L217.792 79.832C217.536 80.6427 217.227 81.4373 216.864 82.216C216.501 82.984 216.112 83.704 215.696 84.376C215.28 85.048 214.848 85.6293 214.4 86.12C214.272 86.0133 214.096 85.8853 213.872 85.736C213.648 85.5867 213.419 85.4427 213.184 85.304C212.96 85.1547 212.763 85.0373 212.592 84.952C213.051 84.5147 213.477 83.9973 213.872 83.4C214.277 82.8027 214.635 82.1573 214.944 81.464C215.264 80.7707 215.531 80.0613 215.744 79.336ZM216.192 81.416H225.984V83.288H215.232L216.192 81.416ZM212.784 86.616H227.248V88.552H212.784V86.616ZM219.008 82.248H221.008V94.44H219.008V82.248Z" fill="black"/>
<path d="M302.656 223.688H313.504V225.464H302.656V223.688ZM301.424 215.864H314.624V226.344H312.672V217.64H303.296V226.376H301.424V215.864ZM308.656 216.6H310.496V219.48C310.496 219.683 310.512 219.811 310.544 219.864C310.587 219.907 310.688 219.928 310.848 219.928C310.88 219.928 310.949 219.928 311.056 219.928C311.173 219.928 311.285 219.928 311.392 219.928C311.509 219.928 311.595 219.928 311.648 219.928C311.744 219.928 311.813 219.912 311.856 219.88C311.909 219.837 311.947 219.757 311.968 219.64C312 219.523 312.021 219.341 312.032 219.096C312.139 219.181 312.283 219.272 312.464 219.368C312.656 219.453 312.853 219.533 313.056 219.608C313.269 219.672 313.461 219.72 313.632 219.752C313.557 220.243 313.451 220.621 313.312 220.888C313.173 221.155 312.987 221.341 312.752 221.448C312.528 221.555 312.235 221.608 311.872 221.608C311.787 221.608 311.685 221.608 311.568 221.608C311.451 221.608 311.323 221.608 311.184 221.608C311.056 221.608 310.933 221.608 310.816 221.608C310.699 221.608 310.603 221.608 310.528 221.608C310.016 221.608 309.621 221.544 309.344 221.416C309.077 221.288 308.896 221.069 308.8 220.76C308.704 220.451 308.656 220.029 308.656 219.496V216.6ZM300.784 212.28H315.168V214.136H300.784V212.28ZM305.152 213.688H307.04V216.888H305.152V213.688ZM308.656 213.688H310.592V216.888H308.656V213.688ZM305.248 216.232H307.04V217.816C307.04 218.349 306.971 218.899 306.832 219.464C306.693 220.029 306.432 220.568 306.048 221.08C305.664 221.592 305.104 222.04 304.368 222.424C304.283 222.307 304.155 222.168 303.984 222.008C303.813 221.848 303.632 221.693 303.44 221.544C303.259 221.395 303.104 221.283 302.976 221.208C303.648 220.867 304.144 220.504 304.464 220.12C304.795 219.736 305.008 219.341 305.104 218.936C305.2 218.531 305.248 218.141 305.248 217.768V216.232Z" fill="black"/>
<path d="M347.928 224.008H358.488V225.688H347.928V224.008ZM347.928 221.448H358.52V223.032H347.928V221.448ZM346.584 215.672H359.48V226.424H357.608V217.384H348.376V226.424H346.584V215.672ZM353.352 213.512H355.192V218.568C355.192 218.803 355.208 218.947 355.24 219C355.283 219.053 355.368 219.08 355.496 219.08C355.528 219.08 355.576 219.08 355.64 219.08C355.704 219.08 355.773 219.08 355.848 219.08C355.923 219.08 355.992 219.08 356.056 219.08C356.131 219.08 356.184 219.08 356.216 219.08C356.291 219.08 356.349 219.059 356.392 219.016C356.445 218.973 356.483 218.888 356.504 218.76C356.525 218.632 356.541 218.445 356.552 218.2C356.733 218.328 356.973 218.451 357.272 218.568C357.581 218.685 357.859 218.776 358.104 218.84C358.019 219.523 357.848 219.992 357.592 220.248C357.336 220.504 356.941 220.632 356.408 220.632C356.333 220.632 356.237 220.632 356.12 220.632C356.013 220.632 355.896 220.632 355.768 220.632C355.651 220.632 355.539 220.632 355.432 220.632C355.325 220.632 355.235 220.632 355.16 220.632C354.659 220.632 354.28 220.573 354.024 220.456C353.768 220.328 353.592 220.115 353.496 219.816C353.4 219.507 353.352 219.091 353.352 218.568V213.512ZM350.312 213.512H352.04V217.016C352.04 217.667 351.965 218.248 351.816 218.76C351.677 219.272 351.4 219.72 350.984 220.104C350.568 220.488 349.944 220.808 349.112 221.064C348.995 220.861 348.829 220.632 348.616 220.376C348.403 220.12 348.205 219.907 348.024 219.736C348.675 219.544 349.165 219.315 349.496 219.048C349.827 218.781 350.045 218.477 350.152 218.136C350.259 217.784 350.312 217.405 350.312 217V213.512ZM345.864 212.312H360.168V214.152H345.864V212.312Z" fill="black"/>
<path d="M213.896 302.208H218.648V304.112H213.896V302.208ZM221.72 298.672H223.72V310.208C223.72 310.656 223.757 310.944 223.832 311.072C223.907 311.189 224.093 311.248 224.392 311.248C224.456 311.248 224.563 311.248 224.712 311.248C224.861 311.248 225.027 311.248 225.208 311.248C225.389 311.248 225.555 311.248 225.704 311.248C225.853 311.248 225.965 311.248 226.04 311.248C226.253 311.248 226.413 311.157 226.52 310.976C226.627 310.795 226.701 310.469 226.744 310C226.797 309.52 226.84 308.853 226.872 308C227.032 308.117 227.219 308.235 227.432 308.352C227.656 308.469 227.88 308.576 228.104 308.672C228.328 308.757 228.531 308.821 228.712 308.864C228.648 309.888 228.536 310.715 228.376 311.344C228.227 311.973 227.981 312.427 227.64 312.704C227.309 312.992 226.84 313.136 226.232 313.136C226.147 313.136 226.003 313.136 225.8 313.136C225.597 313.136 225.379 313.136 225.144 313.136C224.92 313.136 224.712 313.136 224.52 313.136C224.328 313.136 224.184 313.136 224.088 313.136C223.48 313.136 223 313.045 222.648 312.864C222.307 312.693 222.067 312.395 221.928 311.968C221.789 311.531 221.72 310.939 221.72 310.192V298.672ZM217.688 298.672H219.688V313.264H217.688V298.672ZM227 301.056L228.392 302.784C227.837 303.157 227.251 303.531 226.632 303.904C226.013 304.267 225.384 304.624 224.744 304.976C224.115 305.317 223.496 305.637 222.888 305.936C222.824 305.723 222.712 305.472 222.552 305.184C222.392 304.885 222.248 304.635 222.12 304.432C222.696 304.123 223.277 303.776 223.864 303.392C224.451 303.008 225.011 302.613 225.544 302.208C226.088 301.803 226.573 301.419 227 301.056ZM213.32 309.456C213.757 309.328 214.264 309.173 214.84 308.992C215.416 308.8 216.024 308.592 216.664 308.368C217.304 308.133 217.939 307.904 218.568 307.68L218.936 309.408C218.136 309.771 217.315 310.128 216.472 310.48C215.64 310.832 214.877 311.152 214.184 311.44L213.32 309.456Z" fill="black"/>
<path d="M213.624 350.408H228.392V352.344H213.624V350.408ZM220.008 347.864H222.024V356.2C222.024 356.744 221.949 357.165 221.8 357.464C221.661 357.763 221.395 357.987 221 358.136C220.616 358.285 220.147 358.381 219.592 358.424C219.037 358.467 218.392 358.483 217.656 358.472C217.624 358.28 217.56 358.061 217.464 357.816C217.368 357.581 217.267 357.341 217.16 357.096C217.053 356.861 216.947 356.659 216.84 356.488C217.213 356.499 217.581 356.509 217.944 356.52C218.317 356.531 218.648 356.536 218.936 356.536C219.235 356.536 219.443 356.536 219.56 356.536C219.731 356.536 219.848 356.509 219.912 356.456C219.976 356.403 220.008 356.307 220.008 356.168V347.864ZM215.304 344.392H225.384V346.28H215.304V344.392ZM224.744 344.392H225.256L225.704 344.28L227.16 345.384C226.669 345.907 226.104 346.429 225.464 346.952C224.835 347.475 224.179 347.976 223.496 348.456C222.813 348.925 222.147 349.331 221.496 349.672C221.4 349.533 221.277 349.379 221.128 349.208C220.979 349.037 220.824 348.872 220.664 348.712C220.504 348.541 220.36 348.397 220.232 348.28C220.808 347.992 221.389 347.645 221.976 347.24C222.573 346.835 223.117 346.419 223.608 345.992C224.099 345.565 224.477 345.176 224.744 344.824V344.392Z" fill="black"/>
<path d="M189.656 391.528L204.168 389.32L204.488 391.304L189.976 393.464L189.656 391.528ZM194.184 385.736H196.28V396.776C196.28 397.128 196.307 397.395 196.36 397.576C196.424 397.747 196.541 397.864 196.712 397.928C196.883 397.981 197.144 398.008 197.496 398.008C197.603 398.008 197.763 398.008 197.976 398.008C198.189 398.008 198.429 398.008 198.696 398.008C198.963 398.008 199.229 398.008 199.496 398.008C199.763 398.008 200.003 398.008 200.216 398.008C200.44 398.008 200.605 398.008 200.712 398.008C201.075 398.008 201.347 397.923 201.528 397.752C201.709 397.571 201.843 397.245 201.928 396.776C202.013 396.296 202.088 395.597 202.152 394.68C202.312 394.808 202.509 394.936 202.744 395.064C202.989 395.181 203.229 395.288 203.464 395.384C203.709 395.48 203.923 395.549 204.104 395.592C204.019 396.659 203.875 397.512 203.672 398.152C203.469 398.781 203.149 399.235 202.712 399.512C202.275 399.789 201.656 399.928 200.856 399.928C200.749 399.928 200.573 399.928 200.328 399.928C200.093 399.928 199.827 399.928 199.528 399.928C199.24 399.928 198.947 399.928 198.648 399.928C198.349 399.928 198.083 399.928 197.848 399.928C197.613 399.928 197.443 399.928 197.336 399.928C196.525 399.928 195.891 399.832 195.432 399.64C194.973 399.459 194.648 399.139 194.456 398.68C194.275 398.221 194.184 397.576 194.184 396.744V385.736ZM216.536 393.816L218.232 393.064C218.541 393.469 218.856 393.917 219.176 394.408C219.496 394.899 219.789 395.379 220.056 395.848C220.323 396.317 220.531 396.744 220.68 397.128L218.84 397.992C218.701 397.619 218.509 397.192 218.264 396.712C218.019 396.232 217.741 395.736 217.432 395.224C217.133 394.712 216.835 394.243 216.536 393.816ZM211.976 385.432H213.944V391.224H211.976V385.432ZM205.832 390.552H220.264V392.392H205.832V390.552ZM207.432 387.08H218.904V388.904H207.432V387.08ZM213.928 391.64H215.944V398.28C215.944 398.76 215.891 399.139 215.784 399.416C215.677 399.704 215.464 399.923 215.144 400.072C214.835 400.221 214.461 400.317 214.024 400.36C213.597 400.403 213.091 400.424 212.504 400.424C212.472 400.136 212.392 399.805 212.264 399.432C212.136 399.069 212.008 398.755 211.88 398.488C212.232 398.499 212.584 398.509 212.936 398.52C213.288 398.52 213.517 398.515 213.624 398.504C213.741 398.504 213.821 398.488 213.864 398.456C213.907 398.413 213.928 398.344 213.928 398.248V391.64ZM207.608 393.192L209.56 393.688C209.357 394.189 209.112 394.701 208.824 395.224C208.536 395.736 208.227 396.227 207.896 396.696C207.565 397.155 207.219 397.56 206.856 397.912C206.664 397.741 206.413 397.555 206.104 397.352C205.795 397.139 205.533 396.968 205.32 396.84C205.661 396.531 205.976 396.173 206.264 395.768C206.563 395.352 206.829 394.92 207.064 394.472C207.299 394.024 207.48 393.597 207.608 393.192ZM210.472 391.288H212.424V393.128C212.424 393.693 212.387 394.301 212.312 394.952C212.237 395.592 212.083 396.243 211.848 396.904C211.613 397.555 211.261 398.195 210.792 398.824C210.333 399.443 209.715 400.013 208.936 400.536C208.84 400.387 208.707 400.221 208.536 400.04C208.365 399.859 208.184 399.683 207.992 399.512C207.811 399.341 207.64 399.203 207.48 399.096C208.152 398.659 208.685 398.184 209.08 397.672C209.485 397.16 209.784 396.637 209.976 396.104C210.179 395.571 210.312 395.048 210.376 394.536C210.44 394.013 210.472 393.528 210.472 393.08V391.288ZM228.936 387.24C228.499 387.848 227.944 388.477 227.272 389.128C226.611 389.779 225.875 390.403 225.064 391C224.264 391.597 223.427 392.131 222.552 392.6C222.467 392.44 222.355 392.264 222.216 392.072C222.088 391.88 221.944 391.693 221.784 391.512C221.635 391.331 221.491 391.171 221.352 391.032C222.269 390.595 223.149 390.056 223.992 389.416C224.835 388.765 225.587 388.088 226.248 387.384C226.92 386.68 227.453 386.003 227.848 385.352H229.848C230.285 385.96 230.765 386.541 231.288 387.096C231.811 387.651 232.371 388.163 232.968 388.632C233.565 389.101 234.179 389.523 234.808 389.896C235.437 390.269 236.072 390.584 236.712 390.84C236.467 391.085 236.237 391.363 236.024 391.672C235.811 391.981 235.613 392.28 235.432 392.568C234.824 392.248 234.205 391.88 233.576 391.464C232.957 391.048 232.36 390.605 231.784 390.136C231.208 389.656 230.675 389.171 230.184 388.68C229.693 388.189 229.277 387.709 228.936 387.24ZM224.936 390.2H232.984V391.88H224.936V390.2ZM223.016 393.464H234.872V395.128H223.016V393.464ZM222.216 398.328H235.816V399.976H222.216V398.328ZM227.896 390.872H229.928V399.16H227.896V390.872ZM224.024 395.736L225.56 395.096C225.763 395.363 225.96 395.656 226.152 395.976C226.355 396.296 226.536 396.611 226.696 396.92C226.856 397.229 226.973 397.507 227.048 397.752L225.4 398.488C225.336 398.243 225.229 397.96 225.08 397.64C224.931 397.309 224.765 396.979 224.584 396.648C224.403 396.317 224.216 396.013 224.024 395.736ZM232.152 395.112L233.992 395.784C233.672 396.275 233.341 396.765 233 397.256C232.659 397.736 232.344 398.147 232.056 398.488L230.616 397.88C230.797 397.624 230.984 397.341 231.176 397.032C231.368 396.712 231.549 396.387 231.72 396.056C231.891 395.715 232.035 395.4 232.152 395.112ZM239.928 395.784H250.36V397.288H239.928V395.784ZM240.344 393.208H251.08V394.808H240.344V393.208ZM237.944 398.376H252.104V400.024H237.944V398.376ZM244.072 392.232H246.056V399.512H244.072V392.232ZM241.384 389.624V390.488H248.488V389.624H241.384ZM241.384 387.432V388.264H248.488V387.432H241.384ZM239.496 385.976H250.472V391.944H239.496V385.976ZM240.328 391.784L242.2 392.328C241.965 392.851 241.683 393.363 241.352 393.864C241.021 394.365 240.669 394.835 240.296 395.272C239.923 395.709 239.555 396.088 239.192 396.408C239.064 396.291 238.904 396.157 238.712 396.008C238.52 395.859 238.323 395.715 238.12 395.576C237.917 395.427 237.736 395.309 237.576 395.224C238.131 394.808 238.653 394.296 239.144 393.688C239.645 393.069 240.04 392.435 240.328 391.784Z" fill="black"/>
<path d="M188.88 37.904H203.12V39.904H188.88V37.904ZM194.896 34.448H197.008V38.96H194.896V34.448ZM192.24 41.616L194.48 42.192C194.149 43.088 193.76 43.968 193.312 44.832C192.875 45.696 192.405 46.5067 191.904 47.264C191.403 48.0107 190.891 48.6613 190.368 49.216C190.219 49.0773 190.021 48.9227 189.776 48.752C189.541 48.5813 189.301 48.4107 189.056 48.24C188.811 48.0693 188.597 47.9307 188.416 47.824C188.949 47.344 189.456 46.7733 189.936 46.112C190.416 45.4507 190.853 44.736 191.248 43.968C191.643 43.1893 191.973 42.4053 192.24 41.616ZM197.52 42.368L199.472 41.584C199.824 42.096 200.187 42.64 200.56 43.216C200.933 43.792 201.296 44.3787 201.648 44.976C202 45.5627 202.315 46.1333 202.592 46.688C202.88 47.2427 203.109 47.7493 203.28 48.208L201.104 49.152C200.955 48.7147 200.747 48.2133 200.48 47.648C200.224 47.0827 199.931 46.5013 199.6 45.904C199.28 45.296 198.939 44.688 198.576 44.08C198.224 43.472 197.872 42.9013 197.52 42.368ZM204.944 35.216H219.072V37.088H204.944V35.216ZM207.952 42.8H216.288V44.528H207.952V42.8ZM208.016 46.688H216.112V48.464H208.016V46.688ZM210.864 35.888L213.216 36.368C213.099 36.8053 212.976 37.248 212.848 37.696C212.72 38.1333 212.597 38.5547 212.48 38.96C212.373 39.3547 212.261 39.7067 212.144 40.016L210.32 39.552C210.405 39.2 210.485 38.816 210.56 38.4C210.635 37.9733 210.699 37.5413 210.752 37.104C210.816 36.6667 210.853 36.2613 210.864 35.888ZM206.544 38.912H217.632V49.424H215.584V40.688H208.496V49.424H206.544V38.912ZM227.936 36.24C227.499 36.848 226.944 37.4773 226.272 38.128C225.611 38.7787 224.875 39.4027 224.064 40C223.264 40.5973 222.427 41.1307 221.552 41.6C221.467 41.44 221.355 41.264 221.216 41.072C221.088 40.88 220.944 40.6933 220.784 40.512C220.635 40.3307 220.491 40.1707 220.352 40.032C221.269 39.5947 222.149 39.056 222.992 38.416C223.835 37.7653 224.587 37.088 225.248 36.384C225.92 35.68 226.453 35.0027 226.848 34.352H228.848C229.285 34.96 229.765 35.5413 230.288 36.096C230.811 36.6507 231.371 37.1627 231.968 37.632C232.565 38.1013 233.179 38.5227 233.808 38.896C234.437 39.2693 235.072 39.584 235.712 39.84C235.467 40.0853 235.237 40.3627 235.024 40.672C234.811 40.9813 234.613 41.28 234.432 41.568C233.824 41.248 233.205 40.88 232.576 40.464C231.957 40.048 231.36 39.6053 230.784 39.136C230.208 38.656 229.675 38.1707 229.184 37.68C228.693 37.1893 228.277 36.7093 227.936 36.24ZM223.936 39.2H231.984V40.88H223.936V39.2ZM222.016 42.464H233.872V44.128H222.016V42.464ZM221.216 47.328H234.816V48.976H221.216V47.328ZM226.896 39.872H228.928V48.16H226.896V39.872ZM223.024 44.736L224.56 44.096C224.763 44.3627 224.96 44.656 225.152 44.976C225.355 45.296 225.536 45.6107 225.696 45.92C225.856 46.2293 225.973 46.5067 226.048 46.752L224.4 47.488C224.336 47.2427 224.229 46.96 224.08 46.64C223.931 46.3093 223.765 45.9787 223.584 45.648C223.403 45.3173 223.216 45.0133 223.024 44.736ZM231.152 44.112L232.992 44.784C232.672 45.2747 232.341 45.7653 232 46.256C231.659 46.736 231.344 47.1467 231.056 47.488L229.616 46.88C229.797 46.624 229.984 46.3413 230.176 46.032C230.368 45.712 230.549 45.3867 230.72 45.056C230.891 44.7147 231.035 44.4 231.152 44.112ZM238.928 44.784H249.36V46.288H238.928V44.784ZM239.344 42.208H250.08V43.808H239.344V42.208ZM236.944 47.376H251.104V49.024H236.944V47.376ZM243.072 41.232H245.056V48.512H243.072V41.232ZM240.384 38.624V39.488H247.488V38.624H240.384ZM240.384 36.432V37.264H247.488V36.432H240.384ZM238.496 34.976H249.472V40.944H238.496V34.976ZM239.328 40.784L241.2 41.328C240.965 41.8507 240.683 42.3627 240.352 42.864C240.021 43.3653 239.669 43.8347 239.296 44.272C238.923 44.7093 238.555 45.088 238.192 45.408C238.064 45.2907 237.904 45.1573 237.712 45.008C237.52 44.8587 237.323 44.7147 237.12 44.576C236.917 44.4267 236.736 44.3093 236.576 44.224C237.131 43.808 237.653 43.296 238.144 42.688C238.645 42.0693 239.04 41.4347 239.328 40.784Z" fill="black"/>
<path d="M205.76 200.76H220.28V203.4H205.76V200.76ZM204.08 212.38H221.94V215.12H204.08V212.38ZM228.46 203.34V204.52H237.62V203.34H228.46ZM228.46 200.46V201.64H237.62V200.46H228.46ZM226.16 198.66H240.04V206.34H226.16V198.66ZM225.64 207.26H240.6V209.14H225.64V207.26ZM223.98 210.16H242.1V212.16H223.98V210.16ZM231.76 199.48H234.14V211.42H231.76V199.48ZM229.6 213.28L231.8 213.1C231.907 213.62 232 214.193 232.08 214.82C232.16 215.447 232.2 215.973 232.2 216.4L229.86 216.68C229.86 216.24 229.84 215.7 229.8 215.06C229.76 214.433 229.693 213.84 229.6 213.28ZM233.54 213.36L235.78 212.92C235.993 213.427 236.2 213.987 236.4 214.6C236.6 215.2 236.74 215.72 236.82 216.16L234.44 216.68C234.387 216.253 234.273 215.727 234.1 215.1C233.927 214.473 233.74 213.893 233.54 213.36ZM237.48 213.24L239.74 212.5C240.047 212.833 240.36 213.213 240.68 213.64C241.013 214.053 241.32 214.467 241.6 214.88C241.88 215.28 242.1 215.653 242.26 216L239.84 216.84C239.707 216.533 239.507 216.167 239.24 215.74C238.987 215.327 238.7 214.9 238.38 214.46C238.073 214.02 237.773 213.613 237.48 213.24ZM226 212.52L228.32 213.08C228.093 213.773 227.787 214.46 227.4 215.14C227.013 215.833 226.58 216.407 226.1 216.86L223.82 215.86C224.273 215.5 224.693 215.013 225.08 214.4C225.467 213.787 225.773 213.16 226 212.52ZM205.24 228.22H220.8V230.58H205.24V228.22ZM203.92 237.58H222.14V239.94H203.92V237.58ZM211.68 222.04H214.26V239.2H211.68V222.04ZM226.66 234.98H239.7V236.86H226.66V234.98ZM227.18 231.76H240.6V233.76H227.18V231.76ZM224.18 238.22H241.88V240.28H224.18V238.22ZM231.84 230.54H234.32V239.64H231.84V230.54ZM228.48 227.28V228.36H237.36V227.28H228.48ZM228.48 224.54V225.58H237.36V224.54H228.48ZM226.12 222.72H239.84V230.18H226.12V222.72ZM227.16 229.98L229.5 230.66C229.207 231.313 228.853 231.953 228.44 232.58C228.027 233.207 227.587 233.793 227.12 234.34C226.653 234.887 226.193 235.36 225.74 235.76C225.58 235.613 225.38 235.447 225.14 235.26C224.9 235.073 224.653 234.893 224.4 234.72C224.147 234.533 223.92 234.387 223.72 234.28C224.413 233.76 225.067 233.12 225.68 232.36C226.307 231.587 226.8 230.793 227.16 229.98Z" fill="white"/>
<defs>
<linearGradient id="paint0_linear_56_41" x1="220.75" y1="26" x2="220.75" y2="412.5" gradientUnits="userSpaceOnUse">
<stop stop-color="#FFFBA7"/>
<stop offset="1" stop-color="#FDFAEC"/>
</linearGradient>
<linearGradient id="paint1_linear_56_41" x1="221" y1="64" x2="221" y2="374" gradientUnits="userSpaceOnUse">
<stop stop-color="#FFFDDC"/>
<stop offset="1" stop-color="#E3F8FF"/>
</linearGradient>
<linearGradient id="paint2_linear_56_41" x1="221" y1="109" x2="221" y2="329" gradientUnits="userSpaceOnUse">
<stop stop-color="#C8EEFF"/>
<stop offset="1" stop-color="#E1F3FF"/>
</linearGradient>
<linearGradient id="paint3_linear_56_41" x1="221" y1="154" x2="221" y2="284" gradientUnits="userSpaceOnUse">
<stop stop-color="#58C7FF"/>
<stop offset="1" stop-color="#9FE0FF"/>
</linearGradient>
</defs>
</svg>
