<svg width="442" height="452" viewBox="0 0 442 452" fill="none" xmlns="http://www.w3.org/2000/svg">
<rect width="442" height="452" fill="white"/>
<path d="M272.5 26H169L27.5 166.5V270.5L169 412.5H272.5L414 270.5V166.5L272.5 26Z" fill="url(#paint0_linear_56_76)" stroke="#FFFDE8"/>
<path d="M262.507 64H179.493L66 176.691V260.106L179.493 374H262.507L376 260.106V176.691L262.507 64Z" fill="url(#paint1_linear_56_76)" stroke="#FEFFEA"/>
<path d="M250.457 109H191.543L111 188.974V248.172L191.543 329H250.457L331 248.172V188.974L250.457 109Z" fill="url(#paint2_linear_56_76)" stroke="#DDF4FF"/>
<path d="M414.37 270.528L28 167" stroke="#888686"/>
<path d="M272.528 26L186.777 346.024L169 412.37" stroke="#888686" stroke-opacity="0.82"/>
<path d="M169 26L272.528 412.37" stroke="#888686"/>
<path d="M414.37 167L28 270.528" stroke="#888886"/>
<path d="M238.406 154H203.594L156 201.257V236.238L203.594 284H238.406L286 236.238V201.257L238.406 154Z" fill="url(#paint3_linear_56_76)" stroke="#B9E7FD"/>
<path d="M126.928 212.728H141.136V214.52H126.928V212.728ZM132.96 211.416H134.96V226.44H132.96V211.416ZM132.464 220.552L134.096 221.224C133.723 221.757 133.296 222.269 132.816 222.76C132.347 223.251 131.835 223.715 131.28 224.152C130.736 224.579 130.165 224.968 129.568 225.32C128.981 225.683 128.389 225.992 127.792 226.248C127.685 226.088 127.557 225.907 127.408 225.704C127.259 225.501 127.099 225.304 126.928 225.112C126.757 224.92 126.603 224.76 126.464 224.632C127.051 224.429 127.632 224.184 128.208 223.896C128.784 223.597 129.339 223.272 129.872 222.92C130.405 222.557 130.891 222.179 131.328 221.784C131.776 221.379 132.155 220.968 132.464 220.552ZM135.504 220.616C135.824 221.021 136.208 221.421 136.656 221.816C137.115 222.2 137.611 222.573 138.144 222.936C138.688 223.288 139.253 223.608 139.84 223.896C140.427 224.173 141.013 224.413 141.6 224.616C141.451 224.744 141.285 224.904 141.104 225.096C140.933 225.299 140.768 225.501 140.608 225.704C140.459 225.917 140.331 226.109 140.224 226.28C139.627 226.035 139.035 225.731 138.448 225.368C137.861 225.016 137.291 224.627 136.736 224.2C136.192 223.763 135.68 223.299 135.2 222.808C134.731 222.317 134.309 221.811 133.936 221.288L135.504 220.616ZM130.144 219.176V220.152H137.904V219.176H130.144ZM130.144 216.872V217.832H137.904V216.872H130.144ZM128.272 215.432H139.872V221.592H128.272V215.432Z" fill="black"/>
<path d="M82.744 213.856L84.552 214.432V222.752H82.744V213.856ZM93.896 213.952H95.752V222.624C95.752 223.051 95.704 223.413 95.608 223.712C95.512 224 95.3253 224.224 95.048 224.384C94.7707 224.544 94.44 224.645 94.056 224.688C93.6827 224.731 93.2453 224.752 92.744 224.752C92.7227 224.571 92.6747 224.363 92.6 224.128C92.5253 223.893 92.44 223.659 92.344 223.424C92.2587 223.189 92.168 222.987 92.072 222.816C92.4027 222.827 92.7173 222.837 93.016 222.848C93.3147 222.848 93.5173 222.848 93.624 222.848C93.7307 222.848 93.8 222.827 93.832 222.784C93.8747 222.741 93.896 222.672 93.896 222.576V213.952ZM81.496 222.432C82.1787 222.293 83 222.112 83.96 221.888C84.92 221.653 85.896 221.419 86.888 221.184L87.096 222.8C86.2107 223.045 85.3147 223.285 84.408 223.52C83.5013 223.755 82.6747 223.973 81.928 224.176L81.496 222.432ZM86.648 215.76H88.44V220.048C88.44 220.763 88.3813 221.472 88.264 222.176C88.1573 222.869 87.944 223.541 87.624 224.192C87.304 224.843 86.8293 225.445 86.2 226C85.5707 226.555 84.7333 227.04 83.688 227.456C83.6133 227.317 83.5067 227.152 83.368 226.96C83.24 226.779 83.096 226.603 82.936 226.432C82.7867 226.261 82.648 226.123 82.52 226.016C83.4373 225.653 84.168 225.248 84.712 224.8C85.2667 224.341 85.6827 223.856 85.96 223.344C86.2373 222.821 86.4187 222.283 86.504 221.728C86.6 221.163 86.648 220.592 86.648 220.016V215.76ZM89.704 213.952H94.872V215.696H91.512V227.44H89.704V213.952ZM87.256 212.432L88.968 213.648C88.4667 213.936 87.9387 214.224 87.384 214.512C86.8293 214.789 86.28 215.051 85.736 215.296C85.2027 215.541 84.696 215.749 84.216 215.92L82.984 214.864C83.432 214.661 83.9173 214.427 84.44 214.16C84.9627 213.883 85.4693 213.595 85.96 213.296C86.4613 212.987 86.8933 212.699 87.256 212.432Z" fill="black"/>
<path d="M36.608 188.72H51.424V190.816H36.608V188.72ZM38.992 213.432H48.928V215.368H38.992V213.432ZM38.96 208.536H48.928V210.44H38.96V208.536ZM37.968 203.736H50.08V216.392H48.032V205.688H39.904V216.408H37.968V203.736ZM42.656 201.336L45.168 201.672C44.9227 202.269 44.6613 202.851 44.384 203.416C44.1067 203.981 43.856 204.467 43.632 204.872L41.728 204.488C41.8453 204.179 41.9627 203.843 42.08 203.48C42.208 203.117 42.32 202.749 42.416 202.376C42.5227 202.003 42.6027 201.656 42.656 201.336ZM36.832 224.336H41.28V226.272H36.832V224.336ZM43.04 220.416H45.088V232.944C45.088 233.52 45.0187 233.968 44.88 234.288C44.7413 234.608 44.5013 234.853 44.16 235.024C43.8187 235.195 43.3813 235.307 42.848 235.36C42.3253 235.424 41.696 235.456 40.96 235.456C40.9387 235.253 40.8853 235.019 40.8 234.752C40.7253 234.496 40.6347 234.24 40.528 233.984C40.4213 233.717 40.3147 233.493 40.208 233.312C40.7307 233.333 41.2213 233.344 41.68 233.344C42.1387 233.344 42.448 233.344 42.608 233.344C42.768 233.344 42.88 233.312 42.944 233.248C43.008 233.184 43.04 233.083 43.04 232.944V220.416ZM40.624 224.336H41.024L41.376 224.256L42.688 224.736C42.4533 226.197 42.1013 227.525 41.632 228.72C41.1733 229.915 40.6293 230.965 40 231.872C39.3813 232.768 38.688 233.499 37.92 234.064C37.8133 233.904 37.664 233.728 37.472 233.536C37.28 233.333 37.0773 233.141 36.864 232.96C36.6613 232.779 36.48 232.64 36.32 232.544C37.056 232.043 37.712 231.413 38.288 230.656C38.864 229.888 39.3493 229.008 39.744 228.016C40.1493 227.013 40.4427 225.925 40.624 224.752V224.336ZM44.96 222.752C45.216 223.819 45.5413 224.843 45.936 225.824C46.3413 226.805 46.816 227.723 47.36 228.576C47.904 229.429 48.5333 230.192 49.248 230.864C49.9733 231.525 50.784 232.069 51.68 232.496C51.52 232.624 51.344 232.789 51.152 232.992C50.96 233.195 50.7787 233.413 50.608 233.648C50.448 233.872 50.3093 234.08 50.192 234.272C48.9547 233.568 47.904 232.661 47.04 231.552C46.176 230.432 45.456 229.152 44.88 227.712C44.304 226.272 43.824 224.725 43.44 223.072L44.96 222.752ZM49.456 222.912L51.264 224.176C50.8053 224.645 50.32 225.131 49.808 225.632C49.296 226.133 48.784 226.608 48.272 227.056C47.7707 227.504 47.296 227.893 46.848 228.224L45.456 227.152C45.8933 226.789 46.352 226.368 46.832 225.888C47.3227 225.408 47.7973 224.912 48.256 224.4C48.7147 223.877 49.1147 223.381 49.456 222.912ZM38.928 249.784H49.36V251.288H38.928V249.784ZM39.344 247.208H50.08V248.808H39.344V247.208ZM36.944 252.376H51.104V254.024H36.944V252.376ZM43.072 246.232H45.056V253.512H43.072V246.232ZM40.384 243.624V244.488H47.488V243.624H40.384ZM40.384 241.432V242.264H47.488V241.432H40.384ZM38.496 239.976H49.472V245.944H38.496V239.976ZM39.328 245.784L41.2 246.328C40.9653 246.851 40.6827 247.363 40.352 247.864C40.0213 248.365 39.6693 248.835 39.296 249.272C38.9227 249.709 38.5547 250.088 38.192 250.408C38.064 250.291 37.904 250.157 37.712 250.008C37.52 249.859 37.3227 249.715 37.12 249.576C36.9173 249.427 36.736 249.309 36.576 249.224C37.1307 248.808 37.6533 248.296 38.144 247.688C38.6453 247.069 39.04 246.435 39.328 245.784Z" fill="black"/>
<path d="M391.792 183.872H404.16V185.776H391.792V183.872ZM390.864 194.768H405.216V196.672H390.864V194.768ZM396.24 184.544H398.432C398.272 185.504 398.096 186.501 397.904 187.536C397.712 188.571 397.515 189.6 397.312 190.624C397.109 191.648 396.907 192.619 396.704 193.536C396.512 194.453 396.325 195.269 396.144 195.984H393.984C394.176 195.237 394.379 194.4 394.592 193.472C394.805 192.533 395.008 191.557 395.2 190.544C395.403 189.52 395.595 188.496 395.776 187.472C395.957 186.448 396.112 185.472 396.24 184.544ZM392.32 188.56H402.704V195.664H400.704V190.448H392.32V188.56ZM390.8 205.24H405.264V206.984H390.8V205.24ZM391.936 202.584H404.16V204.264H391.936V202.584ZM394.576 201.4H396.528V206.088H394.576V201.4ZM399.52 201.4H401.504V206.088H399.52V201.4ZM397.024 206.232H399.008V212.792H397.024V206.232ZM394.24 211.224V212.152H401.872V211.224H394.24ZM394.24 209.096V209.992H401.872V209.096H394.24ZM392.4 207.768H403.808V213.464H392.4V207.768ZM399.152 214.488L400.224 213.272C400.811 213.464 401.403 213.672 402 213.896C402.608 214.12 403.184 214.339 403.728 214.552C404.283 214.765 404.757 214.957 405.152 215.128L403.776 216.408C403.424 216.237 402.997 216.04 402.496 215.816C401.995 215.603 401.456 215.379 400.88 215.144C400.304 214.909 399.728 214.691 399.152 214.488ZM395.472 213.336L397.104 214.472C396.677 214.739 396.176 214.995 395.6 215.24C395.024 215.496 394.432 215.731 393.824 215.944C393.216 216.157 392.64 216.339 392.096 216.488C391.936 216.285 391.723 216.051 391.456 215.784C391.2 215.528 390.965 215.309 390.752 215.128C391.317 215 391.893 214.84 392.48 214.648C393.077 214.445 393.643 214.227 394.176 213.992C394.709 213.757 395.141 213.539 395.472 213.336ZM391.792 225.376H404.24V227.264H391.792V225.376ZM390.736 232.864H405.312V234.752H390.736V232.864ZM396.944 220.432H399.008V234.16H396.944V220.432ZM392.928 249.784H403.36V251.288H392.928V249.784ZM393.344 247.208H404.08V248.808H393.344V247.208ZM390.944 252.376H405.104V254.024H390.944V252.376ZM397.072 246.232H399.056V253.512H397.072V246.232ZM394.384 243.624V244.488H401.488V243.624H394.384ZM394.384 241.432V242.264H401.488V241.432H394.384ZM392.496 239.976H403.472V245.944H392.496V239.976ZM393.328 245.784L395.2 246.328C394.965 246.851 394.683 247.363 394.352 247.864C394.021 248.365 393.669 248.835 393.296 249.272C392.923 249.709 392.555 250.088 392.192 250.408C392.064 250.291 391.904 250.157 391.712 250.008C391.52 249.859 391.323 249.715 391.12 249.576C390.917 249.427 390.736 249.309 390.576 249.224C391.131 248.808 391.653 248.296 392.144 247.688C392.645 247.069 393.04 246.435 393.328 245.784Z" fill="black"/>
<path d="M149.959 169.319L160.006 159.273L161.273 160.54L151.226 170.586L149.959 169.319ZM157.313 171.695L162.37 166.638L163.422 167.69L158.365 172.747L157.313 171.695ZM158.874 173.732L164.418 168.188L165.504 169.274L159.96 174.818L158.874 173.732ZM159.689 170.36L160.967 169.082L164.95 173.064L163.671 174.343L159.689 170.36ZM152.505 171.005L160.696 162.814L161.94 164.058L155.107 170.892L161.408 177.194L160.051 178.551L152.505 171.005ZM160.311 163.199L161.703 161.807L167.891 167.996C168.216 168.32 168.419 168.614 168.502 168.878C168.593 169.15 168.57 169.444 168.434 169.76C168.299 170.092 168.068 170.436 167.744 170.79C167.435 171.145 167.05 171.552 166.59 172.012C166.386 171.869 166.13 171.733 165.821 171.605C165.519 171.469 165.244 171.367 164.995 171.299C165.191 171.118 165.391 170.933 165.595 170.745C165.798 170.556 165.979 170.383 166.138 170.224C166.296 170.051 166.402 169.938 166.454 169.885C166.56 169.779 166.617 169.693 166.624 169.625C166.624 169.549 166.583 169.47 166.5 169.387L160.311 163.199ZM156.544 170.066L157.302 168.674C157.618 168.72 157.95 168.803 158.297 168.923C158.652 169.036 158.946 169.15 159.18 169.263L158.422 170.767C158.195 170.632 157.905 170.5 157.55 170.371C157.196 170.243 156.86 170.141 156.544 170.066ZM159.44 166.581L160.899 165.755C161.02 166.178 161.133 166.593 161.239 167C161.344 167.392 161.424 167.75 161.476 168.075L160.221 168.742C160.168 168.524 160.096 168.286 160.006 168.03C159.923 167.766 159.832 167.509 159.734 167.26C159.636 167.011 159.538 166.785 159.44 166.581ZM153.398 164.16L154.88 162.678L158.738 166.536L157.256 168.018L153.398 164.16ZM161.295 157.983L171.342 147.936L172.609 149.203L162.562 159.25L161.295 157.983ZM164.633 152.79L166.047 151.376L176.671 161.999L175.256 163.414L164.633 152.79ZM170.742 159.601L172.371 158.922C172.485 159.563 172.545 160.227 172.552 160.913C172.568 161.592 172.534 162.282 172.451 162.984C172.368 163.67 172.239 164.349 172.066 165.02C171.908 165.691 171.708 166.329 171.466 166.932C171.278 166.894 171.059 166.857 170.81 166.819C170.561 166.781 170.309 166.755 170.052 166.74C169.796 166.725 169.573 166.721 169.385 166.728C169.656 166.17 169.894 165.586 170.097 164.975C170.293 164.356 170.456 163.734 170.584 163.108C170.705 162.474 170.78 161.864 170.81 161.275C170.84 160.672 170.818 160.114 170.742 159.601ZM172.937 157.496C173.45 157.557 174.004 157.568 174.6 157.53C175.196 157.478 175.811 157.391 176.444 157.27C177.078 157.134 177.704 156.961 178.322 156.75C178.933 156.531 179.518 156.286 180.076 156.014C180.061 156.21 180.057 156.44 180.065 156.704C180.087 156.968 180.114 157.229 180.144 157.485C180.189 157.742 180.234 157.968 180.28 158.164C179.684 158.413 179.05 158.616 178.379 158.775C177.715 158.941 177.036 159.069 176.343 159.16C175.649 159.235 174.959 159.269 174.272 159.261C173.593 159.246 172.937 159.186 172.304 159.08L172.937 157.496ZM168.129 160.268L168.819 160.958L174.306 155.471L173.616 154.781L168.129 160.268ZM166.5 158.639L167.178 159.318L172.666 153.831L171.987 153.152L166.5 158.639ZM164.158 158.945L172.36 150.742L176.716 155.098L168.513 163.3L164.158 158.945Z" fill="black"/>
<path d="M113.785 145.701L122.248 137.238L123.56 138.551L115.098 147.013L113.785 145.701ZM117.847 149.876L126.626 141.096L127.86 142.329L119.08 151.109L117.847 149.876ZM117.179 146.47L123.345 140.304L124.567 141.526L118.401 147.692L117.179 146.47ZM113.005 146.482L114.362 145.124L117.802 148.563C118.284 149.046 118.797 149.589 119.34 150.192C119.883 150.796 120.415 151.441 120.936 152.127C121.456 152.813 121.916 153.522 122.316 154.254C122.723 154.978 123.025 155.702 123.221 156.426C123.063 156.434 122.863 156.468 122.621 156.528C122.388 156.581 122.15 156.645 121.909 156.72C121.675 156.788 121.479 156.864 121.32 156.947C121.147 156.275 120.879 155.616 120.517 154.967C120.155 154.318 119.74 153.692 119.273 153.089C118.805 152.485 118.326 151.916 117.836 151.38C117.345 150.845 116.878 150.355 116.433 149.91L113.005 146.482ZM119.827 148.846L121.151 147.522L125.427 151.799L124.103 153.123L119.827 148.846ZM122.814 154.005C123.146 153.583 123.515 153.093 123.922 152.534C124.33 151.961 124.76 151.358 125.212 150.724C125.672 150.083 126.129 149.446 126.581 148.812L127.848 149.921C127.449 150.517 127.037 151.124 126.615 151.742C126.193 152.361 125.782 152.953 125.382 153.519C124.997 154.084 124.639 154.609 124.307 155.091L122.814 154.005ZM123.108 145.565C124.036 146.131 124.96 146.527 125.88 146.753C126.8 146.979 127.731 147.006 128.674 146.832C129.625 146.651 130.605 146.236 131.616 145.588C131.616 145.784 131.631 146.01 131.661 146.267C131.699 146.516 131.744 146.764 131.797 147.013C131.857 147.27 131.921 147.492 131.989 147.681C130.835 148.337 129.723 148.733 128.652 148.869C127.581 148.989 126.51 148.884 125.438 148.552C124.367 148.22 123.247 147.703 122.078 147.002L123.108 145.565ZM126.457 143.755L128.425 143.348C128.342 143.823 128.241 144.317 128.12 144.83C128.007 145.335 127.882 145.829 127.746 146.312C127.611 146.78 127.479 147.213 127.35 147.613L125.767 147.839C125.88 147.439 125.982 146.998 126.072 146.516C126.17 146.025 126.253 145.543 126.321 145.067C126.389 144.577 126.434 144.14 126.457 143.755ZM138.987 145.072L126.146 132.231L127.232 131.145L140.073 143.986L138.987 145.072ZM137.375 129.488L144.084 122.779L145.419 124.114L138.71 130.823L137.375 129.488ZM133.788 125.947L141.233 118.503L146.754 124.024L145.351 125.427L141.165 121.24L135.123 127.282L133.788 125.947ZM132.974 126.762L134.388 125.347L141.674 132.633C141.968 132.927 142.221 133.12 142.432 133.21C142.636 133.293 142.858 133.259 143.099 133.109C143.348 132.95 143.68 132.664 144.095 132.249C144.216 132.128 144.404 131.939 144.661 131.683C144.917 131.427 145.204 131.14 145.521 130.823C145.845 130.499 146.169 130.174 146.494 129.85C146.818 129.526 147.108 129.235 147.365 128.979C147.629 128.715 147.821 128.523 147.942 128.402C148.319 128.025 148.56 127.701 148.666 127.429C148.771 127.142 148.749 126.833 148.598 126.501C148.44 126.162 148.149 125.721 147.727 125.178C147.923 125.132 148.138 125.068 148.372 124.985C148.598 124.895 148.824 124.789 149.05 124.668C149.277 124.548 149.469 124.438 149.627 124.34C150.035 124.868 150.348 125.355 150.566 125.8C150.778 126.237 150.88 126.656 150.872 127.056C150.872 127.448 150.748 127.851 150.499 128.266C150.265 128.681 149.903 129.134 149.412 129.624C149.322 129.714 149.171 129.865 148.96 130.076C148.756 130.28 148.519 130.518 148.247 130.789C147.983 131.053 147.708 131.328 147.421 131.615C147.135 131.902 146.859 132.177 146.595 132.441C146.331 132.705 146.098 132.939 145.894 133.142C145.698 133.339 145.555 133.482 145.464 133.572C144.913 134.123 144.423 134.545 143.993 134.84C143.563 135.134 143.152 135.303 142.76 135.349C142.368 135.394 141.972 135.307 141.572 135.088C141.165 134.862 140.724 134.511 140.248 134.036L132.974 126.762Z" fill="black"/>
<path d="M81.2761 124.247L89.4899 116.033L90.9833 117.526L82.7695 125.74L81.2761 124.247ZM86.899 131.77L97.0022 121.667L98.5522 123.217L88.449 133.32L86.899 131.77ZM95.5767 112.865L96.2442 113.533L101.426 108.351L100.758 107.683L95.5767 112.865ZM93.9475 111.236L94.615 111.903L99.7967 106.722L99.1292 106.054L93.9475 111.236ZM91.6282 111.519L99.4799 103.667L103.824 108.011L95.9726 115.863L91.6282 111.519ZM96.1989 116.678L104.662 108.215L105.725 109.279L97.2624 117.741L96.1989 116.678ZM96.9004 119.257L107.151 109.007L108.282 110.138L98.0317 120.389L96.9004 119.257ZM95.2599 108.815L96.6062 107.468L103.36 114.223L102.014 115.569L95.2599 108.815ZM101.844 117.843L102.987 116.497C103.342 116.731 103.719 117.002 104.119 117.311C104.518 117.621 104.839 117.896 105.08 118.137L103.915 119.619C103.666 119.37 103.349 119.076 102.965 118.737C102.587 118.405 102.214 118.107 101.844 117.843ZM104.119 115.66L105.137 114.143C105.544 114.309 105.978 114.509 106.438 114.743C106.89 114.969 107.264 115.184 107.558 115.388L106.506 117.028C106.234 116.817 105.872 116.583 105.42 116.327C104.967 116.071 104.533 115.848 104.119 115.66ZM106.279 113.363L107.139 111.666C107.501 111.681 107.894 111.719 108.316 111.779C108.738 111.824 109.146 111.885 109.538 111.96C109.922 112.028 110.258 112.115 110.545 112.22L109.651 114.064C109.402 113.966 109.081 113.872 108.689 113.781C108.312 113.691 107.909 113.612 107.479 113.544C107.056 113.468 106.657 113.408 106.279 113.363ZM99.3781 119.45L101.007 118.454C101.271 118.974 101.486 119.536 101.652 120.14C101.826 120.751 101.905 121.32 101.89 121.848L100.034 122.572C100.087 122.112 100.049 121.599 99.9211 121.034C99.7929 120.468 99.6119 119.94 99.3781 119.45ZM105.567 103.871L114.369 95.0686L115.704 96.4036L106.902 105.206L105.567 103.871ZM110.115 109.912L120.422 99.6054L121.757 100.94L111.45 111.247L110.115 109.912ZM105.714 96.7317L107.173 95.2722L116.88 104.979L115.421 106.439L105.714 96.7317ZM121.508 95.5777L128.884 88.2012L129.948 89.2646L122.571 96.6412L121.508 95.5777ZM119.98 93.462L127.572 85.8705L128.703 87.0019L121.112 94.5934L119.98 93.462ZM121.938 98.8134L131.95 88.8008L133.116 89.9661L123.103 99.9787L121.938 98.8134ZM121.926 90.1358L123.329 88.7329L128.477 93.8806L127.074 95.2835L121.926 90.1358ZM118.181 90.1924L118.792 90.8033L123.816 85.78L123.205 85.1691L118.181 90.1924ZM116.631 88.6424L117.22 89.2307L122.243 84.2074L121.655 83.6191L116.631 88.6424ZM114.267 88.9479L122.028 81.1867L126.248 85.4067L118.487 93.1679L114.267 88.9479ZM118.962 92.4664L120.67 91.5274C120.874 92.0629 121.036 92.6248 121.157 93.2131C121.278 93.8014 121.361 94.3822 121.406 94.9554C121.451 95.5287 121.459 96.0566 121.428 96.5394C121.255 96.5469 121.048 96.5658 120.806 96.5959C120.565 96.6261 120.324 96.6638 120.082 96.7091C119.833 96.7468 119.622 96.792 119.449 96.8448C119.547 96.1585 119.554 95.4268 119.471 94.65C119.388 93.858 119.219 93.1302 118.962 92.4664Z" fill="black"/>
<path d="M270.894 146.959L280.94 157.006L279.673 158.273L269.627 148.226L270.894 146.959ZM268.518 154.313L273.575 159.37L272.523 160.422L267.466 155.365L268.518 154.313ZM266.481 155.874L272.025 161.418L270.939 162.504L265.395 156.96L266.481 155.874ZM269.853 156.689L271.131 157.967L267.149 161.95L265.87 160.671L269.853 156.689ZM269.208 149.505L277.399 157.696L276.155 158.94L269.321 152.107L263.019 158.408L261.662 157.051L269.208 149.505ZM277.014 157.311L278.406 158.703L272.217 164.891C271.893 165.216 271.599 165.419 271.335 165.502C271.063 165.593 270.769 165.57 270.453 165.434C270.121 165.299 269.777 165.068 269.423 164.744C269.068 164.435 268.661 164.05 268.201 163.59C268.344 163.386 268.48 163.13 268.608 162.821C268.744 162.519 268.846 162.244 268.914 161.995C269.095 162.191 269.28 162.391 269.468 162.595C269.657 162.798 269.83 162.979 269.989 163.138C270.162 163.296 270.275 163.402 270.328 163.454C270.434 163.56 270.52 163.617 270.588 163.624C270.664 163.624 270.743 163.583 270.826 163.5L277.014 157.311ZM270.147 153.544L271.539 154.302C271.493 154.618 271.41 154.95 271.29 155.297C271.177 155.652 271.063 155.946 270.95 156.18L269.446 155.422C269.581 155.195 269.713 154.905 269.842 154.55C269.97 154.196 270.072 153.86 270.147 153.544ZM273.632 156.44L274.458 157.899C274.035 158.02 273.62 158.133 273.213 158.239C272.821 158.344 272.463 158.424 272.138 158.476L271.471 157.221C271.689 157.168 271.927 157.096 272.184 157.006C272.447 156.923 272.704 156.832 272.953 156.734C273.202 156.636 273.428 156.538 273.632 156.44ZM276.053 150.398L277.535 151.88L273.677 155.738L272.195 154.256L276.053 150.398ZM275.702 167.267L283.373 174.938L282.117 176.194L274.446 168.523L275.702 167.267ZM280.363 160.864L289.697 170.197L282.287 177.608L280.906 176.228L287.061 170.073L280.431 163.443L274.254 169.62L272.93 168.297L280.363 160.864ZM284.957 166.498L286.258 167.799L284.221 169.835C284.078 169.979 283.999 170.08 283.984 170.141C283.984 170.201 284.04 170.288 284.153 170.401C284.176 170.424 284.225 170.473 284.3 170.548C284.383 170.631 284.463 170.71 284.538 170.786C284.621 170.869 284.681 170.929 284.719 170.967C284.787 171.035 284.847 171.072 284.9 171.08C284.968 171.087 285.051 171.057 285.149 170.989C285.255 170.929 285.398 170.816 285.579 170.65C285.594 170.786 285.632 170.952 285.692 171.148C285.768 171.344 285.85 171.54 285.941 171.736C286.047 171.932 286.148 172.102 286.246 172.245C285.847 172.539 285.504 172.732 285.217 172.822C284.93 172.913 284.666 172.913 284.425 172.822C284.191 172.739 283.946 172.569 283.69 172.313C283.629 172.253 283.558 172.181 283.475 172.098C283.392 172.015 283.301 171.925 283.203 171.827C283.113 171.736 283.026 171.649 282.943 171.566C282.86 171.483 282.792 171.415 282.739 171.363C282.377 171.001 282.143 170.676 282.038 170.39C281.94 170.111 281.966 169.828 282.117 169.541C282.268 169.255 282.532 168.923 282.909 168.546L284.957 166.498ZM282.445 157.877L292.616 168.048L291.304 169.36L281.133 159.189L282.445 157.877ZM284.538 161.961L285.873 163.296L283.61 165.559L282.275 164.224L284.538 161.961ZM287.016 164.439L288.385 165.808L286.122 168.07L284.753 166.701L287.016 164.439ZM282.807 163.828L284.074 165.095L282.954 166.215C282.577 166.592 282.14 166.931 281.642 167.233C281.144 167.535 280.578 167.731 279.945 167.821C279.311 167.912 278.598 167.833 277.806 167.584C277.829 167.441 277.837 167.252 277.829 167.018C277.822 166.784 277.803 166.547 277.772 166.305C277.75 166.072 277.72 165.883 277.682 165.74C278.399 165.974 279.006 166.068 279.503 166.023C280.009 165.985 280.439 165.857 280.793 165.638C281.148 165.419 281.457 165.178 281.721 164.914L282.807 163.828Z" fill="black"/>
<path d="M291.07 119.263L301.207 129.4L299.861 130.746L289.724 120.609L291.07 119.263ZM294.713 117.317L303.176 125.78L301.83 127.126L293.367 118.663L294.713 117.317ZM299.872 119.082L301.32 120.53L290.697 131.154L289.249 129.706L299.872 119.082ZM294.362 124.117L295.053 125.78C294.336 125.953 293.589 126.081 292.812 126.164C292.043 126.24 291.266 126.262 290.482 126.232C289.705 126.21 288.939 126.138 288.185 126.017C287.446 125.897 286.737 125.731 286.058 125.52C286.103 125.323 286.137 125.093 286.16 124.829C286.19 124.573 286.209 124.313 286.217 124.049C286.239 123.785 286.243 123.547 286.228 123.336C286.854 123.585 287.514 123.792 288.208 123.958C288.917 124.124 289.63 124.241 290.346 124.309C291.063 124.377 291.76 124.396 292.439 124.366C293.126 124.328 293.767 124.245 294.362 124.117ZM296.286 126.063C296.15 126.651 296.063 127.288 296.026 127.975C296.003 128.661 296.026 129.362 296.093 130.079C296.161 130.795 296.271 131.501 296.422 132.195C296.588 132.889 296.791 133.545 297.033 134.163C296.844 134.141 296.614 134.137 296.342 134.152C296.086 134.167 295.826 134.193 295.562 134.231C295.298 134.269 295.068 134.31 294.872 134.356C294.668 133.684 294.51 132.975 294.396 132.229C294.283 131.482 294.215 130.72 294.193 129.943C294.178 129.159 294.208 128.382 294.283 127.613C294.366 126.851 294.494 126.112 294.668 125.395L296.286 126.063ZM297.141 141.987L309.982 129.146L311.068 130.232L298.227 143.073L297.141 141.987ZM314.331 136.551L323.507 145.726L316.775 152.458L315.361 151.044L320.792 145.613L314.388 139.209L308.901 144.697L307.543 143.339L314.331 136.551ZM312.781 139.888L320.316 147.423L319.061 148.679L311.526 141.144L312.781 139.888ZM310.326 142.321L317.895 149.89L316.594 151.191L309.025 143.622L310.326 142.321ZM319.66 138.847L321.086 140.273L310.462 150.896L309.037 149.471L319.66 138.847Z" fill="black"/>
<path d="M263.713 283.073L267.073 279.713L268.419 281.059L265.059 284.419L263.713 283.073ZM266.745 275.04L268.159 273.626L276.316 281.783C276.633 282.1 276.863 282.277 277.006 282.315C277.142 282.345 277.315 282.255 277.527 282.043C277.572 281.998 277.647 281.923 277.753 281.817C277.859 281.711 277.975 281.595 278.104 281.466C278.232 281.338 278.349 281.221 278.454 281.116C278.56 281.01 278.639 280.931 278.692 280.878C278.843 280.727 278.892 280.55 278.839 280.346C278.786 280.143 278.609 279.86 278.307 279.498C278.006 279.121 277.564 278.619 276.984 277.993C277.18 277.963 277.395 277.914 277.628 277.846C277.87 277.771 278.104 277.688 278.33 277.597C278.549 277.499 278.737 277.401 278.896 277.303C279.574 278.072 280.08 278.736 280.412 279.294C280.751 279.845 280.898 280.339 280.853 280.776C280.823 281.214 280.593 281.647 280.163 282.077C280.102 282.138 280.001 282.239 279.857 282.383C279.714 282.526 279.559 282.681 279.393 282.847C279.235 283.005 279.088 283.152 278.952 283.288C278.816 283.424 278.715 283.525 278.647 283.593C278.217 284.023 277.813 284.299 277.436 284.419C277.074 284.54 276.693 284.498 276.293 284.295C275.886 284.084 275.419 283.714 274.891 283.186L266.745 275.04ZM263.894 277.891L265.308 276.477L275.626 286.795L274.212 288.209L263.894 277.891ZM272.164 272.992L274.37 273.23C274.242 273.886 274.091 274.565 273.918 275.266C273.737 275.96 273.544 276.658 273.341 277.359C273.137 278.046 272.926 278.71 272.707 279.351C272.511 279.245 272.254 279.147 271.938 279.057C271.613 278.958 271.334 278.883 271.1 278.83C271.289 278.204 271.455 277.548 271.598 276.862C271.742 276.175 271.858 275.5 271.949 274.837C272.047 274.165 272.119 273.551 272.164 272.992ZM268.43 288.605C268.649 288.206 268.898 287.738 269.177 287.202C269.449 286.659 269.732 286.082 270.026 285.471C270.312 284.853 270.599 284.242 270.886 283.639L272.368 284.6C272.058 285.422 271.73 286.256 271.383 287.101C271.044 287.938 270.731 288.703 270.444 289.397L268.43 288.605ZM282.267 276.511L289.938 268.84L291.194 270.096L283.523 277.767L282.267 276.511ZM275.864 271.85L285.197 262.516L292.608 269.926L291.228 271.307L285.073 265.152L278.443 271.782L284.62 277.959L283.297 279.283L275.864 271.85ZM281.498 267.256L282.799 265.955L284.835 267.992C284.979 268.135 285.08 268.214 285.141 268.229C285.201 268.229 285.288 268.173 285.401 268.06C285.424 268.037 285.473 267.988 285.548 267.913C285.631 267.83 285.71 267.75 285.786 267.675C285.869 267.592 285.929 267.532 285.967 267.494C286.035 267.426 286.072 267.366 286.08 267.313C286.087 267.245 286.057 267.162 285.989 267.064C285.929 266.958 285.816 266.815 285.65 266.634C285.786 266.619 285.952 266.581 286.148 266.521C286.344 266.446 286.54 266.363 286.736 266.272C286.932 266.166 287.102 266.065 287.245 265.967C287.539 266.366 287.732 266.709 287.822 266.996C287.913 267.283 287.913 267.547 287.822 267.788C287.739 268.022 287.569 268.267 287.313 268.523C287.253 268.584 287.181 268.655 287.098 268.738C287.015 268.821 286.925 268.912 286.827 269.01C286.736 269.1 286.649 269.187 286.566 269.27C286.483 269.353 286.415 269.421 286.363 269.474C286.001 269.836 285.676 270.07 285.39 270.175C285.111 270.273 284.828 270.247 284.541 270.096C284.255 269.945 283.923 269.681 283.546 269.304L281.498 267.256ZM272.877 269.768L283.048 259.597L284.36 260.909L274.189 271.08L272.877 269.768ZM276.961 267.675L278.296 266.34L280.559 268.603L279.224 269.938L276.961 267.675ZM279.439 265.197L280.808 263.828L283.07 266.091L281.701 267.46L279.439 265.197ZM278.828 269.406L280.095 268.139L281.215 269.259C281.592 269.636 281.931 270.073 282.233 270.571C282.535 271.069 282.731 271.635 282.821 272.268C282.912 272.902 282.833 273.615 282.584 274.407C282.441 274.384 282.252 274.376 282.018 274.384C281.784 274.392 281.547 274.41 281.305 274.441C281.072 274.463 280.883 274.493 280.74 274.531C280.974 273.815 281.068 273.207 281.023 272.71C280.985 272.204 280.857 271.774 280.638 271.42C280.419 271.065 280.178 270.756 279.914 270.492L278.828 269.406Z" fill="black"/>
<path d="M288.67 316.441L288.817 314.484C289.345 314.333 289.926 314.182 290.56 314.032C291.193 313.881 291.816 313.756 292.427 313.658C293.03 313.553 293.554 313.496 293.999 313.488L293.886 315.638C293.471 315.631 292.962 315.665 292.359 315.74C291.755 315.815 291.129 315.913 290.481 316.034C289.832 316.155 289.228 316.291 288.67 316.441ZM297.269 315.627L297.619 313.511C298.042 313.39 298.517 313.262 299.045 313.126C299.565 312.983 300.09 312.844 300.618 312.708C301.146 312.572 301.658 312.459 302.156 312.368C302.654 312.263 303.092 312.187 303.469 312.142L303.141 314.507C302.801 314.529 302.39 314.578 301.907 314.654C301.425 314.729 300.916 314.824 300.38 314.937C299.845 315.035 299.309 315.148 298.773 315.276C298.23 315.397 297.729 315.514 297.269 315.627ZM289.949 310.524L291.997 309.744C292.004 310.309 291.997 310.89 291.974 311.486C291.944 312.074 291.906 312.648 291.861 313.206C291.816 313.749 291.755 314.247 291.68 314.699L289.983 315.219C290.036 314.744 290.069 314.235 290.085 313.692C290.1 313.134 290.096 312.58 290.073 312.029C290.058 311.471 290.017 310.969 289.949 310.524ZM284.993 313.941L295.153 303.781L296.42 305.048L286.261 315.208L284.993 313.941ZM288.048 308.352L289.474 306.927L291.295 308.748L289.87 310.174L288.048 308.352ZM293.581 308.816L295.481 308.228C295.655 309.517 295.647 310.83 295.459 312.165C295.27 313.485 294.938 314.797 294.463 316.102C293.98 317.399 293.392 318.681 292.698 319.949C292.434 319.851 292.11 319.768 291.725 319.7C291.34 319.617 290.982 319.568 290.65 319.553C291.359 318.391 291.966 317.203 292.472 315.989C292.97 314.767 293.324 313.545 293.535 312.323C293.746 311.101 293.762 309.932 293.581 308.816ZM296.828 309.28L298.841 308.714C299.09 310.29 299.087 311.856 298.83 313.409C298.574 314.963 298.117 316.513 297.461 318.059C296.805 319.59 295.994 321.118 295.029 322.641C294.742 322.521 294.399 322.411 293.999 322.313C293.614 322.215 293.252 322.155 292.913 322.132C293.871 320.707 294.689 319.27 295.368 317.822C296.039 316.366 296.511 314.922 296.782 313.488C297.061 312.048 297.076 310.645 296.828 309.28ZM310.987 311.072L298.146 298.231L299.232 297.145L312.073 309.986L310.987 311.072ZM311.456 286.618L311.479 284.989C311.796 284.883 312.139 284.789 312.509 284.706C312.886 284.616 313.252 284.544 313.606 284.491C313.961 284.423 314.262 284.393 314.511 284.401L314.534 286.166C314.285 286.143 313.983 286.158 313.629 286.211C313.274 286.249 312.905 286.301 312.52 286.369C312.135 286.437 311.781 286.52 311.456 286.618ZM315.597 288.293L317.317 287.32C318.245 289.349 318.799 291.381 318.98 293.418C319.161 295.454 318.969 297.427 318.403 299.335C318.237 299.29 318.022 299.256 317.758 299.233C317.509 299.21 317.249 299.191 316.978 299.176C316.721 299.161 316.499 299.158 316.31 299.165C316.951 297.393 317.211 295.586 317.091 293.746C316.97 291.89 316.472 290.073 315.597 288.293ZM306.954 293.248L315.597 284.604L316.887 285.894L308.243 294.538L306.954 293.248ZM311.411 295.692L314.194 292.909L315.45 294.164L312.667 296.948L311.411 295.692ZM306.275 293.927L307.632 292.569L310.698 295.635C311.121 296.058 311.566 296.54 312.033 297.083C312.494 297.619 312.935 298.196 313.357 298.814C313.787 299.425 314.153 300.063 314.455 300.726C314.749 301.383 314.937 302.046 315.02 302.718C314.862 302.695 314.654 302.691 314.398 302.706C314.149 302.729 313.896 302.755 313.64 302.785C313.399 302.816 313.195 302.853 313.029 302.899C312.946 302.303 312.776 301.733 312.52 301.19C312.271 300.64 311.966 300.115 311.604 299.618C311.249 299.112 310.876 298.641 310.483 298.203C310.084 297.758 309.703 297.355 309.341 296.993L306.275 293.927ZM308.809 287.614L310.178 286.245C311.158 287.18 312.124 288.063 313.074 288.892C314.025 289.707 314.937 290.438 315.812 291.087C316.68 291.728 317.487 292.249 318.233 292.648C318.98 293.048 319.64 293.301 320.213 293.406C320.786 293.512 321.247 293.429 321.594 293.158C321.759 293.052 321.707 292.803 321.435 292.411C321.164 292.004 320.741 291.483 320.168 290.85C320.447 290.842 320.764 290.804 321.118 290.736C321.48 290.661 321.786 290.582 322.035 290.499C323.015 291.645 323.528 292.573 323.573 293.282C323.626 293.998 323.283 294.545 322.544 294.922C321.971 295.3 321.311 295.462 320.564 295.409C319.825 295.364 319.018 295.137 318.143 294.73C317.268 294.323 316.336 293.768 315.348 293.067C314.353 292.358 313.308 291.547 312.214 290.635C311.121 289.707 309.986 288.7 308.809 287.614Z" fill="black"/>
<path d="M304.483 345.95L314.054 336.379L323.275 345.6L321.838 347.036L313.93 339.128L307.164 345.894L315.163 353.893L313.794 355.261L304.483 345.95ZM312.471 352.49L320.628 344.332L321.929 345.634L313.772 353.791L312.471 352.49ZM310.581 341.753L311.905 340.429L315.05 343.574C315.224 343.748 315.337 343.838 315.389 343.846C315.465 343.846 315.544 343.804 315.627 343.722C315.665 343.684 315.714 343.635 315.774 343.574C315.834 343.514 315.884 343.465 315.921 343.427C315.959 343.39 315.993 343.348 316.023 343.303C316.061 343.25 316.083 343.205 316.091 343.167C316.098 343.129 316.098 343.084 316.091 343.031C316.083 342.963 316.046 342.888 315.978 342.805C315.917 342.715 315.808 342.59 315.65 342.432C315.491 342.258 315.31 342.062 315.107 341.843C315.333 341.828 315.597 341.776 315.899 341.685C316.208 341.587 316.476 341.478 316.702 341.357C316.913 341.598 317.117 341.847 317.313 342.104C317.509 342.345 317.637 342.541 317.697 342.692C317.758 342.858 317.788 343.016 317.788 343.167C317.788 343.303 317.758 343.454 317.697 343.62C317.652 343.755 317.573 343.903 317.46 344.061C317.347 344.204 317.234 344.332 317.12 344.446C317.053 344.513 316.973 344.593 316.883 344.683C316.792 344.774 316.702 344.864 316.611 344.955C316.528 345.038 316.453 345.113 316.385 345.181C316.234 345.332 316.057 345.464 315.853 345.577C315.65 345.69 315.442 345.754 315.231 345.769C315.027 345.777 314.816 345.724 314.598 345.611C314.379 345.498 314.077 345.249 313.692 344.864L310.581 341.753ZM308.273 344.016L309.597 342.692C310.351 343.491 311.007 344.276 311.565 345.045C312.124 345.815 312.531 346.599 312.787 347.398C313.044 348.198 313.085 349.062 312.912 349.989C312.678 349.906 312.38 349.85 312.018 349.82C311.648 349.782 311.328 349.778 311.056 349.808C311.207 349.069 311.173 348.387 310.955 347.76C310.728 347.127 310.381 346.508 309.914 345.905C309.438 345.294 308.892 344.664 308.273 344.016ZM328.932 329.76L330.64 329.41C330.678 329.9 330.712 330.401 330.742 330.914C330.78 331.42 330.799 331.861 330.799 332.238L329.385 332.476C329.362 332.212 329.328 331.921 329.283 331.605C329.245 331.28 329.196 330.96 329.136 330.643C329.075 330.311 329.007 330.017 328.932 329.76ZM324.576 335.519L324.893 333.98C325.315 333.995 325.772 334.037 326.262 334.105C326.745 334.165 327.144 334.256 327.461 334.376L327.156 336.039C326.847 335.911 326.447 335.806 325.956 335.723C325.466 335.625 325.006 335.557 324.576 335.519ZM319.485 329.794L324.259 325.02L328.083 328.844L326.76 330.168L324.033 327.441L320.582 330.892L319.485 329.794ZM321.42 331.186L325.334 327.271L326.386 328.324L322.472 332.238L321.42 331.186ZM322.268 333.641L328.513 327.396L329.645 328.527L323.4 334.772L322.268 333.641ZM325.255 331.672L326.511 330.417L331.602 335.508C331.889 335.794 332.085 336.051 332.19 336.277C332.303 336.511 332.311 336.767 332.213 337.046C332.138 337.318 331.983 337.593 331.749 337.872C331.53 338.151 331.251 338.461 330.912 338.8C330.723 338.642 330.482 338.483 330.188 338.325C329.901 338.174 329.637 338.053 329.396 337.963C329.592 337.782 329.781 337.608 329.962 337.442C330.143 337.261 330.259 337.137 330.312 337.069C330.425 336.956 330.429 336.847 330.324 336.741L325.255 331.672ZM326.929 339.185C327.065 338.717 327.216 338.136 327.382 337.442C327.54 336.741 327.699 336.024 327.857 335.293L329.294 335.892C329.211 336.534 329.117 337.186 329.011 337.85C328.906 338.498 328.808 339.109 328.717 339.683L326.929 339.185ZM327.088 331.084C327.525 331.386 328.012 331.669 328.547 331.933C329.075 332.189 329.637 332.404 330.233 332.578C330.821 332.743 331.429 332.83 332.055 332.838C332.681 332.83 333.31 332.713 333.944 332.487C333.936 332.645 333.944 332.841 333.967 333.075C333.989 333.309 334.019 333.543 334.057 333.777C334.102 334.018 334.151 334.226 334.204 334.399C333.548 334.557 332.888 334.606 332.224 334.546C331.568 334.478 330.927 334.342 330.301 334.139C329.667 333.928 329.075 333.682 328.525 333.403C327.982 333.117 327.495 332.834 327.065 332.555L327.088 331.084ZM315.944 332.521L317.539 331.763C317.682 332.208 317.826 332.668 317.969 333.143C318.105 333.611 318.237 334.067 318.365 334.512C318.486 334.95 318.58 335.346 318.648 335.7L317.369 336.232C317.271 335.862 317.147 335.459 316.996 335.021C316.845 334.584 316.675 334.143 316.487 333.698C316.306 333.245 316.125 332.853 315.944 332.521ZM318.569 332.589L320.175 331.978C320.318 332.679 320.462 333.426 320.605 334.218C320.748 335.01 320.873 335.783 320.978 336.537C321.084 337.292 321.152 337.978 321.182 338.596L319.972 338.947C319.926 338.479 319.858 337.974 319.768 337.431C319.677 336.873 319.568 336.311 319.44 335.745C319.312 335.165 319.172 334.603 319.021 334.06C318.87 333.517 318.719 333.026 318.569 332.589ZM316.849 336.911L316.6 335.327C316.97 335.319 317.362 335.319 317.777 335.327C318.192 335.334 318.591 335.357 318.976 335.395C319.361 335.432 319.685 335.5 319.949 335.598L320.254 337.352C319.99 337.254 319.662 337.175 319.27 337.114C318.885 337.046 318.482 336.997 318.06 336.967C317.63 336.93 317.226 336.911 316.849 336.911ZM320.888 335.677L321.454 334.342C321.853 334.44 322.268 334.569 322.698 334.727C323.128 334.885 323.535 335.051 323.92 335.225C324.297 335.391 324.618 335.561 324.882 335.734L324.305 337.216C324.056 337.028 323.739 336.839 323.354 336.65C322.97 336.462 322.566 336.285 322.144 336.119C321.714 335.945 321.295 335.798 320.888 335.677ZM319.123 339.253C319.606 338.725 320.171 338.099 320.82 337.375C321.461 336.643 322.114 335.9 322.777 335.146L323.909 336.232C323.298 336.948 322.687 337.665 322.076 338.381C321.465 339.083 320.918 339.72 320.435 340.293L319.123 339.253ZM324.044 338.2L324.701 336.979C325.146 337.152 325.61 337.375 326.092 337.646C326.583 337.91 326.975 338.159 327.269 338.393L326.59 339.728C326.296 339.479 325.911 339.215 325.436 338.936C324.961 338.642 324.497 338.397 324.044 338.2ZM321.295 340.452L322.574 339.558C323.056 340.161 323.501 340.787 323.909 341.436C324.316 342.07 324.621 342.647 324.825 343.167C324.697 343.19 324.542 343.231 324.361 343.292C324.18 343.352 323.999 343.42 323.818 343.495C323.63 343.563 323.475 343.627 323.354 343.688C323.181 343.182 322.902 342.647 322.517 342.081C322.132 341.515 321.725 340.972 321.295 340.452ZM321.454 338.144L322.63 336.967L327.687 342.024L326.511 343.201L321.454 338.144ZM328.559 325.178L338.515 315.222L339.861 316.569L329.905 326.525L328.559 325.178ZM330.165 318.3L331.613 316.851L342.237 327.475L340.789 328.923L330.165 318.3ZM333.243 321.965L334.849 321.173C335.188 322.026 335.471 322.897 335.698 323.787C335.924 324.677 336.086 325.571 336.184 326.468C336.29 327.358 336.327 328.241 336.297 329.116C336.267 329.975 336.158 330.801 335.969 331.593C335.781 331.555 335.554 331.525 335.29 331.503C335.026 331.48 334.762 331.465 334.498 331.457C334.227 331.442 333.993 331.442 333.797 331.457C334.008 330.733 334.151 329.972 334.227 329.172C334.302 328.357 334.317 327.535 334.272 326.706C334.219 325.868 334.102 325.05 333.921 324.251C333.748 323.444 333.522 322.682 333.243 321.965ZM335.302 320.019C336.003 320.283 336.754 320.491 337.553 320.642C338.353 320.792 339.163 320.887 339.985 320.924C340.815 320.955 341.63 320.932 342.429 320.857C343.229 320.781 343.983 320.638 344.692 320.427C344.669 320.615 344.662 320.849 344.669 321.128C344.677 321.392 344.696 321.66 344.726 321.931C344.764 322.195 344.805 322.425 344.85 322.621C344.074 322.795 343.263 322.897 342.418 322.927C341.566 322.95 340.694 322.916 339.804 322.825C338.907 322.727 338.017 322.569 337.134 322.35C336.252 322.131 335.392 321.867 334.555 321.558L335.302 320.019ZM345.948 317.18L353.324 309.803L354.388 310.866L347.011 318.243L345.948 317.18ZM344.42 315.064L352.012 307.472L353.143 308.604L345.552 316.195L344.42 315.064ZM346.378 320.415L356.39 310.403L357.556 311.568L347.543 321.581L346.378 320.415ZM346.366 311.738L347.769 310.335L352.917 315.482L351.514 316.885L346.366 311.738ZM342.622 311.794L343.233 312.405L348.256 307.382L347.645 306.771L342.622 311.794ZM341.072 310.244L341.66 310.833L346.683 305.809L346.095 305.221L341.072 310.244ZM338.707 310.55L346.468 302.789L350.688 307.009L342.927 314.77L338.707 310.55ZM343.402 314.068L345.111 313.129C345.314 313.665 345.476 314.227 345.597 314.815C345.718 315.403 345.801 315.984 345.846 316.557C345.891 317.131 345.899 317.658 345.869 318.141C345.695 318.149 345.488 318.168 345.246 318.198C345.005 318.228 344.764 318.266 344.522 318.311C344.273 318.349 344.062 318.394 343.889 318.447C343.987 317.76 343.994 317.029 343.911 316.252C343.828 315.46 343.659 314.732 343.402 314.068Z" fill="black"/>
<path d="M156.927 261.5L160.288 264.86L158.941 266.206L155.581 262.846L156.927 261.5ZM164.96 264.532L166.374 265.946L158.217 274.103C157.9 274.42 157.723 274.65 157.685 274.793C157.655 274.929 157.746 275.102 157.957 275.314C158.002 275.359 158.078 275.434 158.183 275.54C158.289 275.646 158.406 275.762 158.534 275.891C158.662 276.019 158.779 276.136 158.885 276.241C158.99 276.347 159.07 276.426 159.122 276.479C159.273 276.63 159.45 276.679 159.654 276.626C159.858 276.573 160.141 276.396 160.503 276.094C160.88 275.793 161.381 275.351 162.007 274.771C162.038 274.967 162.087 275.182 162.154 275.415C162.23 275.657 162.313 275.891 162.403 276.117C162.501 276.336 162.599 276.524 162.697 276.683C161.928 277.361 161.264 277.867 160.706 278.199C160.156 278.538 159.662 278.685 159.224 278.64C158.787 278.61 158.353 278.38 157.923 277.95C157.863 277.889 157.761 277.788 157.618 277.644C157.474 277.501 157.32 277.346 157.154 277.18C156.995 277.022 156.848 276.875 156.713 276.739C156.577 276.603 156.475 276.502 156.407 276.434C155.977 276.004 155.702 275.6 155.581 275.223C155.46 274.861 155.502 274.48 155.706 274.08C155.917 273.673 156.286 273.206 156.814 272.678L164.96 264.532ZM162.109 261.681L163.523 263.095L153.205 273.413L151.791 271.999L162.109 261.681ZM167.008 269.951L166.77 272.157C166.114 272.029 165.435 271.878 164.734 271.705C164.04 271.524 163.342 271.331 162.641 271.128C161.955 270.924 161.291 270.713 160.65 270.494C160.755 270.298 160.853 270.041 160.944 269.725C161.042 269.4 161.117 269.121 161.17 268.887C161.796 269.076 162.452 269.242 163.139 269.385C163.825 269.529 164.5 269.645 165.164 269.736C165.835 269.834 166.45 269.906 167.008 269.951ZM151.395 266.217C151.795 266.436 152.262 266.685 152.798 266.964C153.341 267.236 153.918 267.518 154.529 267.813C155.147 268.099 155.758 268.386 156.362 268.672L155.4 270.155C154.578 269.845 153.745 269.517 152.9 269.17C152.063 268.831 151.297 268.518 150.603 268.231L151.395 266.217ZM170.017 271.082L180.064 281.129L178.797 282.396L168.75 272.349L170.017 271.082ZM175.21 274.42L176.625 275.834L166.001 286.458L164.587 285.043L175.21 274.42ZM168.4 280.529L169.078 282.158C168.437 282.272 167.774 282.332 167.087 282.339C166.408 282.355 165.718 282.321 165.017 282.238C164.33 282.155 163.652 282.026 162.98 281.853C162.309 281.695 161.672 281.495 161.068 281.253C161.106 281.065 161.144 280.846 161.181 280.597C161.219 280.348 161.246 280.096 161.261 279.839C161.276 279.583 161.279 279.36 161.272 279.172C161.83 279.443 162.415 279.681 163.026 279.884C163.644 280.08 164.266 280.243 164.892 280.371C165.526 280.492 166.137 280.567 166.725 280.597C167.329 280.627 167.887 280.605 168.4 280.529ZM170.504 282.724C170.444 283.237 170.432 283.791 170.47 284.387C170.523 284.983 170.61 285.598 170.73 286.231C170.866 286.865 171.039 287.491 171.251 288.109C171.469 288.72 171.714 289.305 171.986 289.863C171.79 289.848 171.56 289.844 171.296 289.852C171.032 289.874 170.772 289.901 170.515 289.931C170.259 289.976 170.033 290.021 169.836 290.067C169.588 289.471 169.384 288.837 169.225 288.166C169.06 287.502 168.931 286.823 168.841 286.13C168.765 285.436 168.731 284.745 168.739 284.059C168.754 283.38 168.814 282.724 168.92 282.091L170.504 282.724ZM167.732 277.916L167.042 278.606L172.529 284.093L173.219 283.403L167.732 277.916ZM169.361 276.287L168.682 276.965L174.17 282.453L174.848 281.774L169.361 276.287ZM169.056 273.945L177.258 282.147L172.902 286.503L164.7 278.3L169.056 273.945Z" fill="black"/>
<path d="M132.67 290.374L134.005 291.709L129.152 296.563L127.817 295.228L132.67 290.374ZM130.838 287.297L137.06 293.52L135.963 294.617L129.74 288.394L130.838 287.297ZM127.251 292.286L126.629 292.909L131.505 297.785L132.127 297.163L127.251 292.286ZM128.824 290.714L128.213 291.325L133.089 296.201L133.7 295.59L128.824 290.714ZM128.541 288.372L136.11 295.941L131.856 300.195L124.287 292.626L128.541 288.372ZM128.111 297.717L129.808 297.626C130.08 298.185 130.347 298.762 130.611 299.357C130.883 299.961 131.132 300.534 131.358 301.077C131.599 301.62 131.799 302.099 131.958 302.514L129.966 302.469C129.838 302.084 129.676 301.628 129.48 301.1C129.291 300.579 129.08 300.029 128.846 299.448C128.613 298.867 128.367 298.29 128.111 297.717ZM135.872 287.082L137.275 288.485L135.669 290.091L134.266 288.689L135.872 287.082ZM130.962 283.756L140.681 293.474L138.18 295.975L136.789 294.583L138.056 293.316L131.064 286.324L129.797 287.591L128.462 286.256L130.962 283.756ZM126.538 294.334L126.855 296.325C126.342 296.22 125.78 296.05 125.169 295.816C124.559 295.597 123.948 295.334 123.337 295.024C122.726 294.73 122.152 294.413 121.617 294.074C121.677 293.833 121.73 293.531 121.775 293.169C121.828 292.814 121.862 292.501 121.877 292.23C122.367 292.554 122.895 292.863 123.461 293.158C124.042 293.452 124.6 293.701 125.136 293.904C125.686 294.108 126.154 294.251 126.538 294.334ZM133.141 309.987L145.982 297.146L147.068 298.232L134.227 311.073L133.141 309.987ZM151.621 304.098L158.342 310.818L157.018 312.142L150.297 305.422L151.621 304.098ZM142.378 311.531L152.47 321.623L151.157 322.935L141.066 312.844L142.378 311.531ZM146.666 306.994L157.007 317.335L155.672 318.67L145.331 308.329L146.666 306.994ZM153.035 306.96L154.427 308.352C153.839 308.835 153.22 309.333 152.572 309.845C151.923 310.358 151.267 310.871 150.603 311.384C149.947 311.905 149.298 312.41 148.657 312.9C148.016 313.39 147.401 313.847 146.813 314.269C146.24 314.692 145.719 315.069 145.252 315.401L143.837 313.986C144.335 313.654 144.882 313.274 145.478 312.844C146.074 312.414 146.688 311.957 147.322 311.475C147.971 310.992 148.623 310.498 149.279 309.993C149.943 309.48 150.592 308.967 151.225 308.454C151.859 307.941 152.462 307.443 153.035 306.96ZM157.719 310.196L159.134 311.61C158.53 312.184 157.893 312.776 157.221 313.387C156.558 313.99 155.883 314.597 155.196 315.208C154.51 315.819 153.835 316.411 153.171 316.984C152.523 317.558 151.896 318.101 151.293 318.614C150.697 319.119 150.15 319.575 149.653 319.983L148.216 318.546C148.721 318.131 149.279 317.671 149.89 317.165C150.509 316.653 151.15 316.11 151.814 315.536C152.485 314.971 153.16 314.386 153.839 313.783C154.525 313.172 155.193 312.565 155.841 311.961C156.505 311.358 157.131 310.769 157.719 310.196Z" fill="black"/>
<path d="M94.9269 309.07L104.996 319.139L103.582 320.553L93.5127 310.484L94.9269 309.07ZM101.625 310.88L103.118 312.373L99.9276 315.564L98.4342 314.07L101.625 310.88ZM94.678 314.07L95.8547 316.061C94.9873 316.461 94.0897 316.808 93.162 317.102C92.2418 317.404 91.3367 317.645 90.4467 317.826C89.5642 318 88.7421 318.098 87.9803 318.12C87.9728 317.917 87.9426 317.668 87.8898 317.374C87.8446 317.087 87.7955 316.797 87.7427 316.503C87.6899 316.208 87.6371 315.96 87.5843 315.756C88.3009 315.794 89.0627 315.748 89.8697 315.62C90.6768 315.492 91.4913 315.296 92.3135 315.032C93.1431 314.76 93.9313 314.44 94.678 314.07ZM97.8798 318.335L99.8145 319.161C99.7013 319.772 99.5731 320.413 99.4298 321.085C99.2865 321.756 99.1281 322.427 98.9546 323.099C98.7887 323.762 98.6077 324.388 98.4116 324.977C98.223 325.572 98.0269 326.093 97.8233 326.538L95.6171 325.667C95.8207 325.252 96.0281 324.75 96.2393 324.162C96.4581 323.581 96.6617 322.963 96.8503 322.307C97.0539 321.65 97.2425 320.979 97.416 320.293C97.597 319.614 97.7516 318.961 97.8798 318.335ZM108.187 318.528L118.177 328.518L116.853 329.841L106.863 319.851L108.187 318.528ZM104.951 326.017L110.845 331.912L109.623 333.134L103.729 327.239L104.951 326.017ZM102.247 328.812L107.972 334.537L106.716 335.792L100.991 330.068L102.247 328.812ZM111.898 323.189L113.221 325.192C112.829 325.418 112.429 325.644 112.022 325.87C111.622 326.089 111.238 326.3 110.868 326.504C110.513 326.708 110.185 326.877 109.884 327.013L108.922 325.395C109.231 325.207 109.559 324.992 109.906 324.75C110.261 324.501 110.612 324.241 110.958 323.97C111.313 323.706 111.626 323.445 111.898 323.189ZM106.705 322.273L114.545 330.113L107.112 337.546L105.664 336.098L111.841 329.921L106.829 324.909L100.652 331.086L99.2714 329.706L106.705 322.273ZM123.72 335.51C122.981 335.63 122.144 335.683 121.209 335.668C120.281 335.66 119.319 335.581 118.324 335.43C117.336 335.287 116.366 335.072 115.416 334.786C115.469 334.612 115.514 334.408 115.552 334.175C115.597 333.948 115.627 333.715 115.642 333.473C115.665 333.239 115.676 333.024 115.676 332.828C116.634 333.168 117.637 333.409 118.686 333.552C119.742 333.688 120.752 333.741 121.718 333.711C122.691 333.688 123.547 333.586 124.286 333.405L125.7 334.82C125.58 335.559 125.508 336.309 125.485 337.071C125.463 337.833 125.497 338.591 125.587 339.345C125.678 340.099 125.813 340.831 125.994 341.54C126.175 342.249 126.402 342.92 126.673 343.554C126.326 343.554 125.968 343.588 125.598 343.656C125.229 343.723 124.878 343.795 124.546 343.87C124.343 343.214 124.165 342.517 124.014 341.777C123.871 341.046 123.762 340.31 123.686 339.571C123.619 338.825 123.585 338.104 123.585 337.41C123.585 336.716 123.63 336.083 123.72 335.51ZM118.799 334.774L124.49 340.465L123.302 341.653L117.611 335.962L118.799 334.774ZM115.133 335.725L123.517 344.108L122.34 345.285L113.957 336.901L115.133 335.725ZM111.128 338.598L120.745 348.215L119.58 349.38L109.963 339.764L111.128 338.598ZM120.417 337.342L121.854 338.779L115.993 344.64L114.556 343.203L120.417 337.342ZM114.239 338.044L115.778 338.677C115.733 339.009 115.665 339.356 115.574 339.718C115.491 340.088 115.397 340.439 115.292 340.771C115.186 341.102 115.073 341.381 114.952 341.608L113.266 340.963C113.395 340.744 113.519 340.469 113.64 340.137C113.768 339.798 113.885 339.447 113.991 339.085C114.096 338.723 114.179 338.376 114.239 338.044ZM120.428 343.35L121.254 345.126C120.681 345.247 120.1 345.36 119.512 345.466C118.931 345.564 118.418 345.632 117.973 345.669L117.385 344.221C117.694 344.168 118.026 344.101 118.38 344.018C118.742 343.927 119.101 343.825 119.455 343.712C119.817 343.591 120.141 343.471 120.428 343.35ZM125.451 349.324L132.828 356.7L131.764 357.764L124.388 350.387L125.451 349.324ZM127.567 347.796L135.158 355.388L134.027 356.519L126.436 348.928L127.567 347.796ZM122.216 349.754L132.228 359.766L131.063 360.932L121.05 350.919L122.216 349.754ZM130.893 349.742L132.296 351.145L127.148 356.293L125.745 354.89L130.893 349.742ZM130.837 345.997L130.226 346.608L135.249 351.632L135.86 351.021L130.837 345.997ZM132.387 344.447L131.798 345.036L136.822 350.059L137.41 349.471L132.387 344.447ZM132.081 342.083L139.842 349.844L135.622 354.064L127.861 346.303L132.081 342.083ZM128.563 346.778L129.502 348.486C128.966 348.69 128.404 348.852 127.816 348.973C127.228 349.094 126.647 349.177 126.074 349.222C125.5 349.267 124.972 349.275 124.49 349.244C124.482 349.071 124.463 348.864 124.433 348.622C124.403 348.381 124.365 348.14 124.32 347.898C124.282 347.649 124.237 347.438 124.184 347.265C124.871 347.363 125.602 347.37 126.379 347.287C127.171 347.204 127.899 347.035 128.563 346.778Z" fill="black"/>
<path d="M319.267 82.771L320.749 84.2531C319.844 85.1431 318.95 85.9991 318.068 86.8213C317.193 87.6359 316.31 88.3675 315.42 89.0161C314.538 89.6572 313.625 90.1777 312.682 90.5774C311.747 90.9696 310.755 91.1997 309.707 91.2676C308.674 91.3354 307.565 91.1921 306.381 90.8376C306.433 90.6642 306.475 90.4492 306.505 90.1928C306.528 89.9438 306.543 89.6874 306.55 89.4234C306.558 89.1745 306.539 88.952 306.494 88.7559C307.58 89.1029 308.579 89.2499 309.492 89.1971C310.412 89.1519 311.28 88.9558 312.094 88.6088C312.916 88.2543 313.716 87.7792 314.493 87.1833C315.27 86.5874 316.046 85.9086 316.823 85.1468C317.608 84.3926 318.422 83.6006 319.267 82.771ZM313.825 82.5786L320.783 89.5366L319.414 90.9055L312.456 83.9476L313.825 82.5786ZM320.036 88.7899L321.451 90.2041L315.635 96.0193C315.394 96.2607 315.258 96.4341 315.228 96.5397C315.205 96.6378 315.262 96.7547 315.398 96.8905C315.428 96.9206 315.477 96.9697 315.545 97.0375C315.613 97.1054 315.688 97.1809 315.771 97.2638C315.854 97.3468 315.929 97.4222 315.997 97.4901C316.073 97.5655 316.126 97.6183 316.156 97.6485C316.254 97.7465 316.371 97.7729 316.506 97.7277C316.642 97.6824 316.846 97.5467 317.117 97.3204C317.389 97.0941 317.77 96.7509 318.26 96.2908C318.29 96.4869 318.339 96.6944 318.407 96.9131C318.483 97.1394 318.566 97.3656 318.656 97.5919C318.754 97.8106 318.852 97.9992 318.95 98.1576C318.302 98.7308 317.743 99.1457 317.276 99.4021C316.816 99.651 316.408 99.7491 316.054 99.6963C315.692 99.651 315.337 99.4549 314.99 99.108C314.93 99.0476 314.847 98.9646 314.742 98.8591C314.636 98.7535 314.523 98.6403 314.402 98.5196C314.281 98.399 314.168 98.2858 314.063 98.1802C313.965 98.0822 313.889 98.0068 313.836 97.954C313.467 97.5844 313.229 97.2336 313.124 96.9018C313.018 96.585 313.052 96.2418 313.225 95.8722C313.407 95.5102 313.742 95.084 314.232 94.5938L320.036 88.7899ZM324.562 102.683L325.965 104.086L322.797 107.254L321.394 105.851L324.562 102.683ZM320.613 97.7842C321.164 98.3348 321.79 98.9609 322.491 99.6623C323.2 100.356 323.955 101.095 324.754 101.88C325.561 102.657 326.387 103.46 327.232 104.29C328.084 105.112 328.925 105.93 329.755 106.745L328.612 107.752C327.775 106.975 326.934 106.187 326.089 105.387C325.252 104.595 324.43 103.818 323.623 103.056C322.831 102.295 322.073 101.574 321.349 100.896C320.64 100.217 320.002 99.602 319.437 99.0514L320.613 97.7842ZM327.877 98.8477L328.635 100.601C327.963 100.579 327.281 100.522 326.587 100.432C325.908 100.341 325.301 100.232 324.765 100.104L324.211 98.5762C324.581 98.6441 324.98 98.7044 325.41 98.7572C325.855 98.81 326.289 98.844 326.711 98.8591C327.141 98.8666 327.53 98.8628 327.877 98.8477ZM329.596 101.948L330.388 103.826C329.596 103.728 328.774 103.584 327.922 103.396C327.077 103.215 326.251 103.015 325.444 102.796C324.637 102.577 323.898 102.351 323.227 102.117L322.752 100.533C323.438 100.767 324.188 100.982 325.003 101.178C325.825 101.382 326.636 101.552 327.436 101.687C328.243 101.816 328.963 101.902 329.596 101.948ZM323.068 97.5919L324.833 97.7729C325.014 98.2104 325.188 98.678 325.354 99.1758C325.535 99.6736 325.697 100.16 325.84 100.635C325.991 101.103 326.112 101.518 326.202 101.88L324.324 101.789C324.256 101.435 324.151 101.012 324.007 100.522C323.879 100.032 323.732 99.5303 323.566 99.0174C323.408 98.5121 323.242 98.0369 323.068 97.5919ZM325.139 106.27L326.938 106.824C327.089 107.261 327.228 107.733 327.356 108.238C327.492 108.736 327.613 109.226 327.718 109.709C327.839 110.192 327.933 110.61 328.001 110.965L326.078 110.467C326.04 110.112 325.972 109.69 325.874 109.2C325.769 108.717 325.652 108.215 325.523 107.695C325.41 107.175 325.282 106.699 325.139 106.27ZM321.609 101.54L322.401 103.328C321.956 103.32 321.469 103.271 320.941 103.181C320.421 103.098 319.904 102.989 319.391 102.853C318.886 102.725 318.415 102.585 317.977 102.434C317.977 102.268 317.97 102.057 317.955 101.801C317.94 101.559 317.917 101.31 317.887 101.054C317.857 100.813 317.823 100.605 317.785 100.432C318.403 100.718 319.06 100.967 319.754 101.178C320.447 101.39 321.066 101.51 321.609 101.54ZM328.205 103.995L329.879 104.652C329.94 105.149 329.985 105.685 330.015 106.258C330.053 106.839 330.072 107.401 330.072 107.944C330.072 108.487 330.045 108.958 329.992 109.358L328.16 108.657C328.227 108.287 328.269 107.838 328.284 107.31C328.314 106.782 328.318 106.228 328.295 105.647C328.28 105.059 328.25 104.508 328.205 103.995ZM329.574 94.7522L331.701 96.8792L330.626 97.954L328.499 95.827L329.574 94.7522ZM333.104 96.2908L334.45 97.6372L331.565 100.522C331.384 100.703 331.297 100.85 331.305 100.963C331.327 101.077 331.452 101.246 331.678 101.473C331.731 101.525 331.818 101.612 331.938 101.733C332.059 101.853 332.191 101.985 332.334 102.129C332.478 102.272 332.613 102.408 332.742 102.536C332.87 102.664 332.964 102.759 333.024 102.819C333.153 102.947 333.266 103.022 333.364 103.045C333.477 103.068 333.609 103.034 333.76 102.943C333.918 102.845 334.126 102.683 334.382 102.457C334.427 102.683 334.522 102.958 334.665 103.283C334.816 103.599 334.967 103.871 335.118 104.097C334.65 104.459 334.243 104.701 333.896 104.821C333.556 104.935 333.239 104.935 332.945 104.821C332.651 104.708 332.331 104.478 331.984 104.131C331.923 104.071 331.837 103.984 331.723 103.871C331.618 103.765 331.497 103.645 331.361 103.509C331.226 103.373 331.086 103.234 330.943 103.09C330.807 102.955 330.683 102.83 330.569 102.717C330.464 102.611 330.385 102.532 330.332 102.479C329.872 102.019 329.566 101.616 329.415 101.269C329.272 100.929 329.265 100.598 329.393 100.273C329.536 99.9489 329.808 99.5869 330.207 99.1871L333.104 96.2908ZM324.007 94.1186C324.483 94.5184 325.037 94.9747 325.671 95.4876C326.319 96.0005 327.002 96.5397 327.718 97.1054C328.442 97.6787 329.163 98.2481 329.879 98.8138L328.85 99.9112C328.148 99.3908 327.439 98.8628 326.723 98.3273C326.014 97.7842 325.331 97.2676 324.675 96.7773C324.034 96.2871 323.446 95.8421 322.91 95.4423L324.007 94.1186ZM336.147 100.42L336.204 102.378C335.683 102.174 335.144 101.929 334.586 101.642C334.043 101.356 333.496 101.05 332.945 100.726C332.402 100.394 331.886 100.066 331.395 99.7415C331.508 99.5831 331.618 99.3682 331.723 99.0966C331.844 98.8251 331.931 98.5875 331.984 98.3839C332.451 98.6554 332.934 98.9269 333.432 99.1985C333.93 99.47 334.412 99.7114 334.88 99.9225C335.348 100.134 335.77 100.3 336.147 100.42ZM330.015 93.2022L331.271 94.458L327.424 98.3047L326.078 97.1394L330.015 93.2022ZM327.334 92.1953L328.499 93.3606L325.388 96.4719L324.121 95.4084L327.334 92.1953ZM342.72 108.51C341.981 108.63 341.144 108.683 340.209 108.668C339.281 108.66 338.319 108.581 337.324 108.43C336.336 108.287 335.366 108.072 334.416 107.786C334.469 107.612 334.514 107.408 334.552 107.175C334.597 106.948 334.627 106.715 334.642 106.473C334.665 106.239 334.676 106.024 334.676 105.828C335.634 106.168 336.637 106.409 337.686 106.552C338.742 106.688 339.752 106.741 340.718 106.711C341.691 106.688 342.547 106.586 343.286 106.405L344.7 107.82C344.58 108.559 344.508 109.309 344.485 110.071C344.463 110.833 344.497 111.591 344.587 112.345C344.678 113.099 344.813 113.831 344.994 114.54C345.175 115.249 345.402 115.92 345.673 116.554C345.326 116.554 344.968 116.588 344.598 116.656C344.229 116.723 343.878 116.795 343.546 116.87C343.343 116.214 343.165 115.517 343.014 114.777C342.871 114.046 342.762 113.31 342.686 112.571C342.619 111.825 342.585 111.104 342.585 110.41C342.585 109.716 342.63 109.083 342.72 108.51ZM337.799 107.774L343.49 113.465L342.302 114.653L336.611 108.962L337.799 107.774ZM334.133 108.725L342.517 117.108L341.34 118.285L332.957 109.901L334.133 108.725ZM330.128 111.598L339.745 121.215L338.58 122.38L328.963 112.764L330.128 111.598ZM339.417 110.342L340.854 111.779L334.993 117.64L333.556 116.203L339.417 110.342ZM333.239 111.044L334.778 111.677C334.733 112.009 334.665 112.356 334.574 112.718C334.491 113.088 334.397 113.439 334.292 113.771C334.186 114.102 334.073 114.381 333.952 114.608L332.266 113.963C332.395 113.744 332.519 113.469 332.64 113.137C332.768 112.798 332.885 112.447 332.991 112.085C333.096 111.723 333.179 111.376 333.239 111.044ZM339.428 116.35L340.254 118.126C339.681 118.247 339.1 118.36 338.512 118.466C337.931 118.564 337.418 118.632 336.973 118.669L336.385 117.221C336.694 117.168 337.026 117.101 337.38 117.018C337.742 116.927 338.101 116.825 338.455 116.712C338.817 116.591 339.141 116.471 339.428 116.35ZM344.451 122.324L351.828 129.7L350.764 130.764L343.388 123.387L344.451 122.324ZM346.567 120.796L354.158 128.388L353.027 129.519L345.436 121.928L346.567 120.796ZM341.216 122.754L351.228 132.766L350.063 133.932L340.05 123.919L341.216 122.754ZM349.893 122.742L351.296 124.145L346.148 129.293L344.745 127.89L349.893 122.742ZM349.837 118.997L349.226 119.608L354.249 124.632L354.86 124.021L349.837 118.997ZM351.387 117.447L350.798 118.036L355.822 123.059L356.41 122.471L351.387 117.447ZM351.081 115.083L358.842 122.844L354.622 127.064L346.861 119.303L351.081 115.083ZM347.563 119.778L348.502 121.486C347.966 121.69 347.404 121.852 346.816 121.973C346.228 122.094 345.647 122.177 345.074 122.222C344.5 122.267 343.972 122.275 343.49 122.244C343.482 122.071 343.463 121.864 343.433 121.622C343.403 121.381 343.365 121.14 343.32 120.898C343.282 120.649 343.237 120.438 343.184 120.265C343.871 120.363 344.602 120.37 345.379 120.287C346.171 120.204 346.899 120.035 347.563 119.778Z" fill="black"/>
<path d="M213.896 125.728H228.104V127.52H213.896V125.728ZM217.416 132.608H224.568V134.096H217.416V132.608ZM217.08 135.152H224.92V136.688H217.08V135.152ZM220.04 133.344H221.848V138.976H220.04V133.344ZM214.504 128.72H226.088V130.48H216.424V139.392H214.504V128.72ZM225.544 128.72H227.512V137.472C227.512 137.931 227.448 138.283 227.32 138.528C227.192 138.784 226.968 138.976 226.648 139.104C226.317 139.243 225.912 139.323 225.432 139.344C224.963 139.376 224.403 139.392 223.752 139.392C223.709 139.147 223.624 138.869 223.496 138.56C223.379 138.251 223.256 137.984 223.128 137.76C223.395 137.771 223.667 137.781 223.944 137.792C224.221 137.803 224.472 137.808 224.696 137.808C224.931 137.797 225.085 137.792 225.16 137.792C225.309 137.792 225.411 137.771 225.464 137.728C225.517 137.675 225.544 137.589 225.544 137.472V128.72ZM218.024 130.912L219.544 130.464C219.736 130.72 219.912 131.013 220.072 131.344C220.243 131.675 220.371 131.963 220.456 132.208L218.856 132.736C218.792 132.48 218.68 132.181 218.52 131.84C218.36 131.499 218.195 131.189 218.024 130.912ZM222.536 130.496L224.152 130.944C223.939 131.328 223.725 131.701 223.512 132.064C223.309 132.416 223.112 132.725 222.92 132.992L221.56 132.576C221.677 132.384 221.795 132.165 221.912 131.92C222.04 131.675 222.157 131.429 222.264 131.184C222.371 130.939 222.461 130.709 222.536 130.496ZM219.976 124.512H222.072V129.968H219.976V124.512Z" fill="black"/>
<path d="M215.744 79.336L217.792 79.832C217.536 80.6427 217.227 81.4373 216.864 82.216C216.501 82.984 216.112 83.704 215.696 84.376C215.28 85.048 214.848 85.6293 214.4 86.12C214.272 86.0133 214.096 85.8853 213.872 85.736C213.648 85.5867 213.419 85.4427 213.184 85.304C212.96 85.1547 212.763 85.0373 212.592 84.952C213.051 84.5147 213.477 83.9973 213.872 83.4C214.277 82.8027 214.635 82.1573 214.944 81.464C215.264 80.7707 215.531 80.0613 215.744 79.336ZM216.192 81.416H225.984V83.288H215.232L216.192 81.416ZM212.784 86.616H227.248V88.552H212.784V86.616ZM219.008 82.248H221.008V94.44H219.008V82.248Z" fill="black"/>
<path d="M302.656 223.688H313.504V225.464H302.656V223.688ZM301.424 215.864H314.624V226.344H312.672V217.64H303.296V226.376H301.424V215.864ZM308.656 216.6H310.496V219.48C310.496 219.683 310.512 219.811 310.544 219.864C310.587 219.907 310.688 219.928 310.848 219.928C310.88 219.928 310.949 219.928 311.056 219.928C311.173 219.928 311.285 219.928 311.392 219.928C311.509 219.928 311.595 219.928 311.648 219.928C311.744 219.928 311.813 219.912 311.856 219.88C311.909 219.837 311.947 219.757 311.968 219.64C312 219.523 312.021 219.341 312.032 219.096C312.139 219.181 312.283 219.272 312.464 219.368C312.656 219.453 312.853 219.533 313.056 219.608C313.269 219.672 313.461 219.72 313.632 219.752C313.557 220.243 313.451 220.621 313.312 220.888C313.173 221.155 312.987 221.341 312.752 221.448C312.528 221.555 312.235 221.608 311.872 221.608C311.787 221.608 311.685 221.608 311.568 221.608C311.451 221.608 311.323 221.608 311.184 221.608C311.056 221.608 310.933 221.608 310.816 221.608C310.699 221.608 310.603 221.608 310.528 221.608C310.016 221.608 309.621 221.544 309.344 221.416C309.077 221.288 308.896 221.069 308.8 220.76C308.704 220.451 308.656 220.029 308.656 219.496V216.6ZM300.784 212.28H315.168V214.136H300.784V212.28ZM305.152 213.688H307.04V216.888H305.152V213.688ZM308.656 213.688H310.592V216.888H308.656V213.688ZM305.248 216.232H307.04V217.816C307.04 218.349 306.971 218.899 306.832 219.464C306.693 220.029 306.432 220.568 306.048 221.08C305.664 221.592 305.104 222.04 304.368 222.424C304.283 222.307 304.155 222.168 303.984 222.008C303.813 221.848 303.632 221.693 303.44 221.544C303.259 221.395 303.104 221.283 302.976 221.208C303.648 220.867 304.144 220.504 304.464 220.12C304.795 219.736 305.008 219.341 305.104 218.936C305.2 218.531 305.248 218.141 305.248 217.768V216.232Z" fill="black"/>
<path d="M347.928 224.008H358.488V225.688H347.928V224.008ZM347.928 221.448H358.52V223.032H347.928V221.448ZM346.584 215.672H359.48V226.424H357.608V217.384H348.376V226.424H346.584V215.672ZM353.352 213.512H355.192V218.568C355.192 218.803 355.208 218.947 355.24 219C355.283 219.053 355.368 219.08 355.496 219.08C355.528 219.08 355.576 219.08 355.64 219.08C355.704 219.08 355.773 219.08 355.848 219.08C355.923 219.08 355.992 219.08 356.056 219.08C356.131 219.08 356.184 219.08 356.216 219.08C356.291 219.08 356.349 219.059 356.392 219.016C356.445 218.973 356.483 218.888 356.504 218.76C356.525 218.632 356.541 218.445 356.552 218.2C356.733 218.328 356.973 218.451 357.272 218.568C357.581 218.685 357.859 218.776 358.104 218.84C358.019 219.523 357.848 219.992 357.592 220.248C357.336 220.504 356.941 220.632 356.408 220.632C356.333 220.632 356.237 220.632 356.12 220.632C356.013 220.632 355.896 220.632 355.768 220.632C355.651 220.632 355.539 220.632 355.432 220.632C355.325 220.632 355.235 220.632 355.16 220.632C354.659 220.632 354.28 220.573 354.024 220.456C353.768 220.328 353.592 220.115 353.496 219.816C353.4 219.507 353.352 219.091 353.352 218.568V213.512ZM350.312 213.512H352.04V217.016C352.04 217.667 351.965 218.248 351.816 218.76C351.677 219.272 351.4 219.72 350.984 220.104C350.568 220.488 349.944 220.808 349.112 221.064C348.995 220.861 348.829 220.632 348.616 220.376C348.403 220.12 348.205 219.907 348.024 219.736C348.675 219.544 349.165 219.315 349.496 219.048C349.827 218.781 350.045 218.477 350.152 218.136C350.259 217.784 350.312 217.405 350.312 217V213.512ZM345.864 212.312H360.168V214.152H345.864V212.312Z" fill="black"/>
<path d="M213.896 302.208H218.648V304.112H213.896V302.208ZM221.72 298.672H223.72V310.208C223.72 310.656 223.757 310.944 223.832 311.072C223.907 311.189 224.093 311.248 224.392 311.248C224.456 311.248 224.563 311.248 224.712 311.248C224.861 311.248 225.027 311.248 225.208 311.248C225.389 311.248 225.555 311.248 225.704 311.248C225.853 311.248 225.965 311.248 226.04 311.248C226.253 311.248 226.413 311.157 226.52 310.976C226.627 310.795 226.701 310.469 226.744 310C226.797 309.52 226.84 308.853 226.872 308C227.032 308.117 227.219 308.235 227.432 308.352C227.656 308.469 227.88 308.576 228.104 308.672C228.328 308.757 228.531 308.821 228.712 308.864C228.648 309.888 228.536 310.715 228.376 311.344C228.227 311.973 227.981 312.427 227.64 312.704C227.309 312.992 226.84 313.136 226.232 313.136C226.147 313.136 226.003 313.136 225.8 313.136C225.597 313.136 225.379 313.136 225.144 313.136C224.92 313.136 224.712 313.136 224.52 313.136C224.328 313.136 224.184 313.136 224.088 313.136C223.48 313.136 223 313.045 222.648 312.864C222.307 312.693 222.067 312.395 221.928 311.968C221.789 311.531 221.72 310.939 221.72 310.192V298.672ZM217.688 298.672H219.688V313.264H217.688V298.672ZM227 301.056L228.392 302.784C227.837 303.157 227.251 303.531 226.632 303.904C226.013 304.267 225.384 304.624 224.744 304.976C224.115 305.317 223.496 305.637 222.888 305.936C222.824 305.723 222.712 305.472 222.552 305.184C222.392 304.885 222.248 304.635 222.12 304.432C222.696 304.123 223.277 303.776 223.864 303.392C224.451 303.008 225.011 302.613 225.544 302.208C226.088 301.803 226.573 301.419 227 301.056ZM213.32 309.456C213.757 309.328 214.264 309.173 214.84 308.992C215.416 308.8 216.024 308.592 216.664 308.368C217.304 308.133 217.939 307.904 218.568 307.68L218.936 309.408C218.136 309.771 217.315 310.128 216.472 310.48C215.64 310.832 214.877 311.152 214.184 311.44L213.32 309.456Z" fill="black"/>
<path d="M213.624 350.408H228.392V352.344H213.624V350.408ZM220.008 347.864H222.024V356.2C222.024 356.744 221.949 357.165 221.8 357.464C221.661 357.763 221.395 357.987 221 358.136C220.616 358.285 220.147 358.381 219.592 358.424C219.037 358.467 218.392 358.483 217.656 358.472C217.624 358.28 217.56 358.061 217.464 357.816C217.368 357.581 217.267 357.341 217.16 357.096C217.053 356.861 216.947 356.659 216.84 356.488C217.213 356.499 217.581 356.509 217.944 356.52C218.317 356.531 218.648 356.536 218.936 356.536C219.235 356.536 219.443 356.536 219.56 356.536C219.731 356.536 219.848 356.509 219.912 356.456C219.976 356.403 220.008 356.307 220.008 356.168V347.864ZM215.304 344.392H225.384V346.28H215.304V344.392ZM224.744 344.392H225.256L225.704 344.28L227.16 345.384C226.669 345.907 226.104 346.429 225.464 346.952C224.835 347.475 224.179 347.976 223.496 348.456C222.813 348.925 222.147 349.331 221.496 349.672C221.4 349.533 221.277 349.379 221.128 349.208C220.979 349.037 220.824 348.872 220.664 348.712C220.504 348.541 220.36 348.397 220.232 348.28C220.808 347.992 221.389 347.645 221.976 347.24C222.573 346.835 223.117 346.419 223.608 345.992C224.099 345.565 224.477 345.176 224.744 344.824V344.392Z" fill="black"/>
<path d="M192.872 386.52H199.48V388.568H192.872V386.52ZM197.896 386.52H200.2C200.307 387.768 200.445 388.995 200.616 390.2C200.797 391.405 201.048 392.552 201.368 393.64C201.699 394.717 202.115 395.699 202.616 396.584C203.128 397.459 203.763 398.2 204.52 398.808C204.339 398.915 204.131 399.059 203.896 399.24C203.661 399.432 203.432 399.629 203.208 399.832C202.995 400.035 202.808 400.216 202.648 400.376C201.88 399.672 201.235 398.845 200.712 397.896C200.189 396.936 199.763 395.896 199.432 394.776C199.112 393.656 198.861 392.483 198.68 391.256C198.499 390.029 198.36 388.792 198.264 387.544H197.896V386.52ZM193.288 389.96L195.512 390.264C195.352 391.192 195.149 392.136 194.904 393.096C194.669 394.045 194.376 394.973 194.024 395.88C193.672 396.776 193.256 397.619 192.776 398.408C192.296 399.187 191.731 399.869 191.08 400.456C190.963 400.307 190.803 400.141 190.6 399.96C190.408 399.789 190.205 399.619 189.992 399.448C189.789 399.288 189.608 399.155 189.448 399.048C190.056 398.536 190.579 397.928 191.016 397.224C191.453 396.509 191.821 395.747 192.12 394.936C192.419 394.115 192.659 393.283 192.84 392.44C193.032 391.587 193.181 390.76 193.288 389.96ZM207.992 397.432H217.928V399.368H207.992V397.432ZM207.96 392.536H217.928V394.44H207.96V392.536ZM206.968 387.736H219.08V400.392H217.032V389.688H208.904V400.408H206.968V387.736ZM211.656 385.336L214.168 385.672C213.923 386.269 213.661 386.851 213.384 387.416C213.107 387.981 212.856 388.467 212.632 388.872L210.728 388.488C210.845 388.179 210.963 387.843 211.08 387.48C211.208 387.117 211.32 386.749 211.416 386.376C211.523 386.003 211.603 385.656 211.656 385.336ZM222.792 390.376H235.24V392.264H222.792V390.376ZM221.736 397.864H236.312V399.752H221.736V397.864ZM227.944 385.432H230.008V399.16H227.944V385.432ZM239.928 395.784H250.36V397.288H239.928V395.784ZM240.344 393.208H251.08V394.808H240.344V393.208ZM237.944 398.376H252.104V400.024H237.944V398.376ZM244.072 392.232H246.056V399.512H244.072V392.232ZM241.384 389.624V390.488H248.488V389.624H241.384ZM241.384 387.432V388.264H248.488V387.432H241.384ZM239.496 385.976H250.472V391.944H239.496V385.976ZM240.328 391.784L242.2 392.328C241.965 392.851 241.683 393.363 241.352 393.864C241.021 394.365 240.669 394.835 240.296 395.272C239.923 395.709 239.555 396.088 239.192 396.408C239.064 396.291 238.904 396.157 238.712 396.008C238.52 395.859 238.323 395.715 238.12 395.576C237.917 395.427 237.736 395.309 237.576 395.224C238.131 394.808 238.653 394.296 239.144 393.688C239.645 393.069 240.04 392.435 240.328 391.784Z" fill="black"/>
<path d="M188.656 40.528L203.168 38.32L203.488 40.304L188.976 42.464L188.656 40.528ZM193.184 34.736H195.28V45.776C195.28 46.128 195.307 46.3947 195.36 46.576C195.424 46.7467 195.541 46.864 195.712 46.928C195.883 46.9813 196.144 47.008 196.496 47.008C196.603 47.008 196.763 47.008 196.976 47.008C197.189 47.008 197.429 47.008 197.696 47.008C197.963 47.008 198.229 47.008 198.496 47.008C198.763 47.008 199.003 47.008 199.216 47.008C199.44 47.008 199.605 47.008 199.712 47.008C200.075 47.008 200.347 46.9227 200.528 46.752C200.709 46.5707 200.843 46.2453 200.928 45.776C201.013 45.296 201.088 44.5973 201.152 43.68C201.312 43.808 201.509 43.936 201.744 44.064C201.989 44.1813 202.229 44.288 202.464 44.384C202.709 44.48 202.923 44.5493 203.104 44.592C203.019 45.6587 202.875 46.512 202.672 47.152C202.469 47.7813 202.149 48.2347 201.712 48.512C201.275 48.7893 200.656 48.928 199.856 48.928C199.749 48.928 199.573 48.928 199.328 48.928C199.093 48.928 198.827 48.928 198.528 48.928C198.24 48.928 197.947 48.928 197.648 48.928C197.349 48.928 197.083 48.928 196.848 48.928C196.613 48.928 196.443 48.928 196.336 48.928C195.525 48.928 194.891 48.832 194.432 48.64C193.973 48.4587 193.648 48.1387 193.456 47.68C193.275 47.2213 193.184 46.576 193.184 45.744V34.736ZM215.536 42.816L217.232 42.064C217.541 42.4693 217.856 42.9173 218.176 43.408C218.496 43.8987 218.789 44.3787 219.056 44.848C219.323 45.3173 219.531 45.744 219.68 46.128L217.84 46.992C217.701 46.6187 217.509 46.192 217.264 45.712C217.019 45.232 216.741 44.736 216.432 44.224C216.133 43.712 215.835 43.2427 215.536 42.816ZM210.976 34.432H212.944V40.224H210.976V34.432ZM204.832 39.552H219.264V41.392H204.832V39.552ZM206.432 36.08H217.904V37.904H206.432V36.08ZM212.928 40.64H214.944V47.28C214.944 47.76 214.891 48.1387 214.784 48.416C214.677 48.704 214.464 48.9227 214.144 49.072C213.835 49.2213 213.461 49.3173 213.024 49.36C212.597 49.4027 212.091 49.424 211.504 49.424C211.472 49.136 211.392 48.8053 211.264 48.432C211.136 48.0693 211.008 47.7547 210.88 47.488C211.232 47.4987 211.584 47.5093 211.936 47.52C212.288 47.52 212.517 47.5147 212.624 47.504C212.741 47.504 212.821 47.488 212.864 47.456C212.907 47.4133 212.928 47.344 212.928 47.248V40.64ZM206.608 42.192L208.56 42.688C208.357 43.1893 208.112 43.7013 207.824 44.224C207.536 44.736 207.227 45.2267 206.896 45.696C206.565 46.1547 206.219 46.56 205.856 46.912C205.664 46.7413 205.413 46.5547 205.104 46.352C204.795 46.1387 204.533 45.968 204.32 45.84C204.661 45.5307 204.976 45.1733 205.264 44.768C205.563 44.352 205.829 43.92 206.064 43.472C206.299 43.024 206.48 42.5973 206.608 42.192ZM209.472 40.288H211.424V42.128C211.424 42.6933 211.387 43.3013 211.312 43.952C211.237 44.592 211.083 45.2427 210.848 45.904C210.613 46.5547 210.261 47.1947 209.792 47.824C209.333 48.4427 208.715 49.0133 207.936 49.536C207.84 49.3867 207.707 49.2213 207.536 49.04C207.365 48.8587 207.184 48.6827 206.992 48.512C206.811 48.3413 206.64 48.2027 206.48 48.096C207.152 47.6587 207.685 47.184 208.08 46.672C208.485 46.16 208.784 45.6373 208.976 45.104C209.179 44.5707 209.312 44.048 209.376 43.536C209.44 43.0133 209.472 42.528 209.472 42.08V40.288ZM227.936 36.24C227.499 36.848 226.944 37.4773 226.272 38.128C225.611 38.7787 224.875 39.4027 224.064 40C223.264 40.5973 222.427 41.1307 221.552 41.6C221.467 41.44 221.355 41.264 221.216 41.072C221.088 40.88 220.944 40.6933 220.784 40.512C220.635 40.3307 220.491 40.1707 220.352 40.032C221.269 39.5947 222.149 39.056 222.992 38.416C223.835 37.7653 224.587 37.088 225.248 36.384C225.92 35.68 226.453 35.0027 226.848 34.352H228.848C229.285 34.96 229.765 35.5413 230.288 36.096C230.811 36.6507 231.371 37.1627 231.968 37.632C232.565 38.1013 233.179 38.5227 233.808 38.896C234.437 39.2693 235.072 39.584 235.712 39.84C235.467 40.0853 235.237 40.3627 235.024 40.672C234.811 40.9813 234.613 41.28 234.432 41.568C233.824 41.248 233.205 40.88 232.576 40.464C231.957 40.048 231.36 39.6053 230.784 39.136C230.208 38.656 229.675 38.1707 229.184 37.68C228.693 37.1893 228.277 36.7093 227.936 36.24ZM223.936 39.2H231.984V40.88H223.936V39.2ZM222.016 42.464H233.872V44.128H222.016V42.464ZM221.216 47.328H234.816V48.976H221.216V47.328ZM226.896 39.872H228.928V48.16H226.896V39.872ZM223.024 44.736L224.56 44.096C224.763 44.3627 224.96 44.656 225.152 44.976C225.355 45.296 225.536 45.6107 225.696 45.92C225.856 46.2293 225.973 46.5067 226.048 46.752L224.4 47.488C224.336 47.2427 224.229 46.96 224.08 46.64C223.931 46.3093 223.765 45.9787 223.584 45.648C223.403 45.3173 223.216 45.0133 223.024 44.736ZM231.152 44.112L232.992 44.784C232.672 45.2747 232.341 45.7653 232 46.256C231.659 46.736 231.344 47.1467 231.056 47.488L229.616 46.88C229.797 46.624 229.984 46.3413 230.176 46.032C230.368 45.712 230.549 45.3867 230.72 45.056C230.891 44.7147 231.035 44.4 231.152 44.112ZM238.928 44.784H249.36V46.288H238.928V44.784ZM239.344 42.208H250.08V43.808H239.344V42.208ZM236.944 47.376H251.104V49.024H236.944V47.376ZM243.072 41.232H245.056V48.512H243.072V41.232ZM240.384 38.624V39.488H247.488V38.624H240.384ZM240.384 36.432V37.264H247.488V36.432H240.384ZM238.496 34.976H249.472V40.944H238.496V34.976ZM239.328 40.784L241.2 41.328C240.965 41.8507 240.683 42.3627 240.352 42.864C240.021 43.3653 239.669 43.8347 239.296 44.272C238.923 44.7093 238.555 45.088 238.192 45.408C238.064 45.2907 237.904 45.1573 237.712 45.008C237.52 44.8587 237.323 44.7147 237.12 44.576C236.917 44.4267 236.736 44.3093 236.576 44.224C237.131 43.808 237.653 43.296 238.144 42.688C238.645 42.0693 239.04 41.4347 239.328 40.784Z" fill="black"/>
<path d="M205.38 199.92H220.64V202.38H205.38V199.92ZM206.76 206.36H219.04V208.8H206.76V206.36ZM204.26 213.14H221.7V215.58H204.26V213.14ZM224.34 198.82H232.1V200.62H224.34V198.82ZM224.02 208.02H241.96V209.9H224.02V208.02ZM224.56 201.94H231.74V203.72H224.56V201.94ZM228.94 214.38H238.68V216.18H228.94V214.38ZM223.94 205.42C224.66 205.38 225.473 205.333 226.38 205.28C227.3 205.227 228.267 205.173 229.28 205.12C230.293 205.053 231.307 204.987 232.32 204.92L232.3 206.74C230.847 206.847 229.393 206.953 227.94 207.06C226.487 207.153 225.207 207.24 224.1 207.32L223.94 205.42ZM227.12 199.52H229.38V205.76L227.12 206.04V199.52ZM236.18 198L238.82 198.22C238.633 198.687 238.447 199.127 238.26 199.54C238.073 199.953 237.9 200.313 237.74 200.62L235.66 200.3C235.767 199.94 235.867 199.553 235.96 199.14C236.067 198.727 236.14 198.347 236.18 198ZM235.18 204V205.28H239.08V204H235.18ZM235.18 201.06V202.32H239.08V201.06H235.18ZM232.98 199.26H241.36V207.08H232.98V199.26ZM229.56 208.38L231.72 209.1C231.2 209.953 230.573 210.753 229.84 211.5C229.107 212.247 228.313 212.92 227.46 213.52C226.607 214.12 225.74 214.633 224.86 215.06C224.767 214.9 224.633 214.7 224.46 214.46C224.287 214.207 224.107 213.96 223.92 213.72C223.733 213.48 223.56 213.287 223.4 213.14C224.227 212.807 225.033 212.4 225.82 211.92C226.607 211.44 227.32 210.9 227.96 210.3C228.613 209.7 229.147 209.06 229.56 208.38ZM227.34 211.14H240.4V216.7H237.82V212.94H229.82V216.8H227.34V211.14ZM204.22 226.68H221.82V229.06H204.22V226.68ZM211.72 222.02H214.28V240.8H211.72V222.02ZM211.2 227.98L213.32 228.7C212.867 229.753 212.347 230.773 211.76 231.76C211.173 232.747 210.527 233.68 209.82 234.56C209.127 235.44 208.38 236.253 207.58 237C206.793 237.733 205.967 238.367 205.1 238.9C204.967 238.7 204.793 238.473 204.58 238.22C204.367 237.967 204.147 237.72 203.92 237.48C203.693 237.227 203.487 237.02 203.3 236.86C204.127 236.407 204.927 235.86 205.7 235.22C206.487 234.567 207.227 233.853 207.92 233.08C208.613 232.293 209.233 231.467 209.78 230.6C210.34 229.733 210.813 228.86 211.2 227.98ZM214.74 228.08C215.127 228.933 215.607 229.78 216.18 230.62C216.753 231.46 217.387 232.26 218.08 233.02C218.787 233.78 219.527 234.48 220.3 235.12C221.073 235.76 221.867 236.3 222.68 236.74C222.493 236.887 222.28 237.087 222.04 237.34C221.813 237.58 221.593 237.833 221.38 238.1C221.18 238.367 221.013 238.607 220.88 238.82C220.04 238.287 219.233 237.66 218.46 236.94C217.687 236.207 216.947 235.407 216.24 234.54C215.533 233.66 214.887 232.733 214.3 231.76C213.713 230.787 213.187 229.793 212.72 228.78L214.74 228.08ZM226.66 234.98H239.7V236.86H226.66V234.98ZM227.18 231.76H240.6V233.76H227.18V231.76ZM224.18 238.22H241.88V240.28H224.18V238.22ZM231.84 230.54H234.32V239.64H231.84V230.54ZM228.48 227.28V228.36H237.36V227.28H228.48ZM228.48 224.54V225.58H237.36V224.54H228.48ZM226.12 222.72H239.84V230.18H226.12V222.72ZM227.16 229.98L229.5 230.66C229.207 231.313 228.853 231.953 228.44 232.58C228.027 233.207 227.587 233.793 227.12 234.34C226.653 234.887 226.193 235.36 225.74 235.76C225.58 235.613 225.38 235.447 225.14 235.26C224.9 235.073 224.653 234.893 224.4 234.72C224.147 234.533 223.92 234.387 223.72 234.28C224.413 233.76 225.067 233.12 225.68 232.36C226.307 231.587 226.8 230.793 227.16 229.98Z" fill="white"/>
<defs>
<linearGradient id="paint0_linear_56_76" x1="220.75" y1="26" x2="220.75" y2="412.5" gradientUnits="userSpaceOnUse">
<stop stop-color="#FFFBA7"/>
<stop offset="1" stop-color="#FDFAEC"/>
</linearGradient>
<linearGradient id="paint1_linear_56_76" x1="221" y1="64" x2="221" y2="374" gradientUnits="userSpaceOnUse">
<stop stop-color="#FFFDDC"/>
<stop offset="1" stop-color="#E3F8FF"/>
</linearGradient>
<linearGradient id="paint2_linear_56_76" x1="221" y1="109" x2="221" y2="329" gradientUnits="userSpaceOnUse">
<stop stop-color="#C8EEFF"/>
<stop offset="1" stop-color="#E1F3FF"/>
</linearGradient>
<linearGradient id="paint3_linear_56_76" x1="221" y1="154" x2="221" y2="284" gradientUnits="userSpaceOnUse">
<stop stop-color="#58C7FF"/>
<stop offset="1" stop-color="#9FE0FF"/>
</linearGradient>
</defs>
</svg>
