<svg width="442" height="452" viewBox="0 0 442 452" fill="none" xmlns="http://www.w3.org/2000/svg">
<rect width="442" height="452" fill="white"/>
<path d="M272.5 26H169L27.5 166.5V270.5L169 412.5H272.5L414 270.5V166.5L272.5 26Z" fill="url(#paint0_linear_56_218)" stroke="#FFFDE8"/>
<path d="M262.507 64H179.493L66 176.691V260.106L179.493 374H262.507L376 260.106V176.691L262.507 64Z" fill="url(#paint1_linear_56_218)" stroke="#FEFFEA"/>
<path d="M250.457 109H191.543L111 188.974V248.172L191.543 329H250.457L331 248.172V188.974L250.457 109Z" fill="url(#paint2_linear_56_218)" stroke="#DDF4FF"/>
<path d="M414.37 270.528L28 167" stroke="#888686"/>
<path d="M272.528 26L186.777 346.024L169 412.37" stroke="#888686" stroke-opacity="0.82"/>
<path d="M169 26L272.528 412.37" stroke="#888686"/>
<path d="M414.37 167L28 270.528" stroke="#888886"/>
<path d="M238.406 154H203.594L156 201.257V236.238L203.594 284H238.406L286 236.238V201.257L238.406 154Z" fill="url(#paint3_linear_56_218)" stroke="#B9E7FD"/>
<path d="M126.928 212.728H141.136V214.52H126.928V212.728ZM132.96 211.416H134.96V226.44H132.96V211.416ZM132.464 220.552L134.096 221.224C133.723 221.757 133.296 222.269 132.816 222.76C132.347 223.251 131.835 223.715 131.28 224.152C130.736 224.579 130.165 224.968 129.568 225.32C128.981 225.683 128.389 225.992 127.792 226.248C127.685 226.088 127.557 225.907 127.408 225.704C127.259 225.501 127.099 225.304 126.928 225.112C126.757 224.92 126.603 224.76 126.464 224.632C127.051 224.429 127.632 224.184 128.208 223.896C128.784 223.597 129.339 223.272 129.872 222.92C130.405 222.557 130.891 222.179 131.328 221.784C131.776 221.379 132.155 220.968 132.464 220.552ZM135.504 220.616C135.824 221.021 136.208 221.421 136.656 221.816C137.115 222.2 137.611 222.573 138.144 222.936C138.688 223.288 139.253 223.608 139.84 223.896C140.427 224.173 141.013 224.413 141.6 224.616C141.451 224.744 141.285 224.904 141.104 225.096C140.933 225.299 140.768 225.501 140.608 225.704C140.459 225.917 140.331 226.109 140.224 226.28C139.627 226.035 139.035 225.731 138.448 225.368C137.861 225.016 137.291 224.627 136.736 224.2C136.192 223.763 135.68 223.299 135.2 222.808C134.731 222.317 134.309 221.811 133.936 221.288L135.504 220.616ZM130.144 219.176V220.152H137.904V219.176H130.144ZM130.144 216.872V217.832H137.904V216.872H130.144ZM128.272 215.432H139.872V221.592H128.272V215.432Z" fill="black"/>
<path d="M82.744 213.856L84.552 214.432V222.752H82.744V213.856ZM93.896 213.952H95.752V222.624C95.752 223.051 95.704 223.413 95.608 223.712C95.512 224 95.3253 224.224 95.048 224.384C94.7707 224.544 94.44 224.645 94.056 224.688C93.6827 224.731 93.2453 224.752 92.744 224.752C92.7227 224.571 92.6747 224.363 92.6 224.128C92.5253 223.893 92.44 223.659 92.344 223.424C92.2587 223.189 92.168 222.987 92.072 222.816C92.4027 222.827 92.7173 222.837 93.016 222.848C93.3147 222.848 93.5173 222.848 93.624 222.848C93.7307 222.848 93.8 222.827 93.832 222.784C93.8747 222.741 93.896 222.672 93.896 222.576V213.952ZM81.496 222.432C82.1787 222.293 83 222.112 83.96 221.888C84.92 221.653 85.896 221.419 86.888 221.184L87.096 222.8C86.2107 223.045 85.3147 223.285 84.408 223.52C83.5013 223.755 82.6747 223.973 81.928 224.176L81.496 222.432ZM86.648 215.76H88.44V220.048C88.44 220.763 88.3813 221.472 88.264 222.176C88.1573 222.869 87.944 223.541 87.624 224.192C87.304 224.843 86.8293 225.445 86.2 226C85.5707 226.555 84.7333 227.04 83.688 227.456C83.6133 227.317 83.5067 227.152 83.368 226.96C83.24 226.779 83.096 226.603 82.936 226.432C82.7867 226.261 82.648 226.123 82.52 226.016C83.4373 225.653 84.168 225.248 84.712 224.8C85.2667 224.341 85.6827 223.856 85.96 223.344C86.2373 222.821 86.4187 222.283 86.504 221.728C86.6 221.163 86.648 220.592 86.648 220.016V215.76ZM89.704 213.952H94.872V215.696H91.512V227.44H89.704V213.952ZM87.256 212.432L88.968 213.648C88.4667 213.936 87.9387 214.224 87.384 214.512C86.8293 214.789 86.28 215.051 85.736 215.296C85.2027 215.541 84.696 215.749 84.216 215.92L82.984 214.864C83.432 214.661 83.9173 214.427 84.44 214.16C84.9627 213.883 85.4693 213.595 85.96 213.296C86.4613 212.987 86.8933 212.699 87.256 212.432Z" fill="black"/>
<path d="M38.208 184.608H49.824V186.72H38.208V184.608ZM36.864 193.904H51.152V196.096H36.864V193.904ZM40.368 205.672V206.616H47.696V205.672H40.368ZM40.368 203.368V204.312H47.696V203.368H40.368ZM38.528 201.928H49.632V208.072H38.528V201.928ZM38.112 208.808H50.08V210.312H38.112V208.808ZM36.784 211.128H51.28V212.728H36.784V211.128ZM43.008 202.584H44.912V212.136H43.008V202.584ZM41.28 213.624L43.04 213.48C43.1253 213.896 43.2 214.355 43.264 214.856C43.328 215.357 43.36 215.779 43.36 216.12L41.488 216.344C41.488 215.992 41.472 215.56 41.44 215.048C41.408 214.547 41.3547 214.072 41.28 213.624ZM44.432 213.688L46.224 213.336C46.3947 213.741 46.56 214.189 46.72 214.68C46.88 215.16 46.992 215.576 47.056 215.928L45.152 216.344C45.1093 216.003 45.0187 215.581 44.88 215.08C44.7413 214.579 44.592 214.115 44.432 213.688ZM47.584 213.592L49.392 213C49.6373 213.267 49.888 213.571 50.144 213.912C50.4107 214.243 50.656 214.573 50.88 214.904C51.104 215.224 51.28 215.523 51.408 215.8L49.472 216.472C49.3653 216.227 49.2053 215.933 48.992 215.592C48.7893 215.261 48.56 214.92 48.304 214.568C48.0587 214.216 47.8187 213.891 47.584 213.592ZM38.4 213.016L40.256 213.464C40.0747 214.019 39.8293 214.568 39.52 215.112C39.2107 215.667 38.864 216.125 38.48 216.488L36.656 215.688C37.0187 215.4 37.3547 215.011 37.664 214.52C37.9733 214.029 38.2187 213.528 38.4 213.016ZM37.792 225.376H50.24V227.264H37.792V225.376ZM36.736 232.864H51.312V234.752H36.736V232.864ZM42.944 220.432H45.008V234.16H42.944V220.432ZM38.928 249.784H49.36V251.288H38.928V249.784ZM39.344 247.208H50.08V248.808H39.344V247.208ZM36.944 252.376H51.104V254.024H36.944V252.376ZM43.072 246.232H45.056V253.512H43.072V246.232ZM40.384 243.624V244.488H47.488V243.624H40.384ZM40.384 241.432V242.264H47.488V241.432H40.384ZM38.496 239.976H49.472V245.944H38.496V239.976ZM39.328 245.784L41.2 246.328C40.9653 246.851 40.6827 247.363 40.352 247.864C40.0213 248.365 39.6693 248.835 39.296 249.272C38.9227 249.709 38.5547 250.088 38.192 250.408C38.064 250.291 37.904 250.157 37.712 250.008C37.52 249.859 37.3227 249.715 37.12 249.576C36.9173 249.427 36.736 249.309 36.576 249.224C37.1307 248.808 37.6533 248.296 38.144 247.688C38.6453 247.069 39.04 246.435 39.328 245.784Z" fill="black"/>
<path d="M390.88 185.904H405.12V187.904H390.88V185.904ZM396.896 182.448H399.008V186.96H396.896V182.448ZM394.24 189.616L396.48 190.192C396.149 191.088 395.76 191.968 395.312 192.832C394.875 193.696 394.405 194.507 393.904 195.264C393.403 196.011 392.891 196.661 392.368 197.216C392.219 197.077 392.021 196.923 391.776 196.752C391.541 196.581 391.301 196.411 391.056 196.24C390.811 196.069 390.597 195.931 390.416 195.824C390.949 195.344 391.456 194.773 391.936 194.112C392.416 193.451 392.853 192.736 393.248 191.968C393.643 191.189 393.973 190.405 394.24 189.616ZM399.52 190.368L401.472 189.584C401.824 190.096 402.187 190.64 402.56 191.216C402.933 191.792 403.296 192.379 403.648 192.976C404 193.563 404.315 194.133 404.592 194.688C404.88 195.243 405.109 195.749 405.28 196.208L403.104 197.152C402.955 196.715 402.747 196.213 402.48 195.648C402.224 195.083 401.931 194.501 401.6 193.904C401.28 193.296 400.939 192.688 400.576 192.08C400.224 191.472 399.872 190.901 399.52 190.368ZM390.944 202.216H405.072V204.088H390.944V202.216ZM393.952 209.8H402.288V211.528H393.952V209.8ZM394.016 213.688H402.112V215.464H394.016V213.688ZM396.864 202.888L399.216 203.368C399.099 203.805 398.976 204.248 398.848 204.696C398.72 205.133 398.597 205.555 398.48 205.96C398.373 206.355 398.261 206.707 398.144 207.016L396.32 206.552C396.405 206.2 396.485 205.816 396.56 205.4C396.635 204.973 396.699 204.541 396.752 204.104C396.816 203.667 396.853 203.261 396.864 202.888ZM392.544 205.912H403.632V216.424H401.584V207.688H394.496V216.424H392.544V205.912ZM397.936 222.24C397.499 222.848 396.944 223.477 396.272 224.128C395.611 224.779 394.875 225.403 394.064 226C393.264 226.597 392.427 227.131 391.552 227.6C391.467 227.44 391.355 227.264 391.216 227.072C391.088 226.88 390.944 226.693 390.784 226.512C390.635 226.331 390.491 226.171 390.352 226.032C391.269 225.595 392.149 225.056 392.992 224.416C393.835 223.765 394.587 223.088 395.248 222.384C395.92 221.68 396.453 221.003 396.848 220.352H398.848C399.285 220.96 399.765 221.541 400.288 222.096C400.811 222.651 401.371 223.163 401.968 223.632C402.565 224.101 403.179 224.523 403.808 224.896C404.437 225.269 405.072 225.584 405.712 225.84C405.467 226.085 405.237 226.363 405.024 226.672C404.811 226.981 404.613 227.28 404.432 227.568C403.824 227.248 403.205 226.88 402.576 226.464C401.957 226.048 401.36 225.605 400.784 225.136C400.208 224.656 399.675 224.171 399.184 223.68C398.693 223.189 398.277 222.709 397.936 222.24ZM393.936 225.2H401.984V226.88H393.936V225.2ZM392.016 228.464H403.872V230.128H392.016V228.464ZM391.216 233.328H404.816V234.976H391.216V233.328ZM396.896 225.872H398.928V234.16H396.896V225.872ZM393.024 230.736L394.56 230.096C394.763 230.363 394.96 230.656 395.152 230.976C395.355 231.296 395.536 231.611 395.696 231.92C395.856 232.229 395.973 232.507 396.048 232.752L394.4 233.488C394.336 233.243 394.229 232.96 394.08 232.64C393.931 232.309 393.765 231.979 393.584 231.648C393.403 231.317 393.216 231.013 393.024 230.736ZM401.152 230.112L402.992 230.784C402.672 231.275 402.341 231.765 402 232.256C401.659 232.736 401.344 233.147 401.056 233.488L399.616 232.88C399.797 232.624 399.984 232.341 400.176 232.032C400.368 231.712 400.549 231.387 400.72 231.056C400.891 230.715 401.035 230.4 401.152 230.112ZM392.928 249.784H403.36V251.288H392.928V249.784ZM393.344 247.208H404.08V248.808H393.344V247.208ZM390.944 252.376H405.104V254.024H390.944V252.376ZM397.072 246.232H399.056V253.512H397.072V246.232ZM394.384 243.624V244.488H401.488V243.624H394.384ZM394.384 241.432V242.264H401.488V241.432H394.384ZM392.496 239.976H403.472V245.944H392.496V239.976ZM393.328 245.784L395.2 246.328C394.965 246.851 394.683 247.363 394.352 247.864C394.021 248.365 393.669 248.835 393.296 249.272C392.923 249.709 392.555 250.088 392.192 250.408C392.064 250.291 391.904 250.157 391.712 250.008C391.52 249.859 391.323 249.715 391.12 249.576C390.917 249.427 390.736 249.309 390.576 249.224C391.131 248.808 391.653 248.296 392.144 247.688C392.645 247.069 393.04 246.435 393.328 245.784Z" fill="black"/>
<path d="M149.959 169.319L160.006 159.273L161.273 160.54L151.226 170.586L149.959 169.319ZM157.313 171.695L162.37 166.638L163.422 167.69L158.365 172.747L157.313 171.695ZM158.874 173.732L164.418 168.188L165.504 169.274L159.96 174.818L158.874 173.732ZM159.689 170.36L160.967 169.082L164.95 173.064L163.671 174.343L159.689 170.36ZM152.505 171.005L160.696 162.814L161.94 164.058L155.107 170.892L161.408 177.194L160.051 178.551L152.505 171.005ZM160.311 163.199L161.703 161.807L167.891 167.996C168.216 168.32 168.419 168.614 168.502 168.878C168.593 169.15 168.57 169.444 168.434 169.76C168.299 170.092 168.068 170.436 167.744 170.79C167.435 171.145 167.05 171.552 166.59 172.012C166.386 171.869 166.13 171.733 165.821 171.605C165.519 171.469 165.244 171.367 164.995 171.299C165.191 171.118 165.391 170.933 165.595 170.745C165.798 170.556 165.979 170.383 166.138 170.224C166.296 170.051 166.402 169.938 166.454 169.885C166.56 169.779 166.617 169.693 166.624 169.625C166.624 169.549 166.583 169.47 166.5 169.387L160.311 163.199ZM156.544 170.066L157.302 168.674C157.618 168.72 157.95 168.803 158.297 168.923C158.652 169.036 158.946 169.15 159.18 169.263L158.422 170.767C158.195 170.632 157.905 170.5 157.55 170.371C157.196 170.243 156.86 170.141 156.544 170.066ZM159.44 166.581L160.899 165.755C161.02 166.178 161.133 166.593 161.239 167C161.344 167.392 161.424 167.75 161.476 168.075L160.221 168.742C160.168 168.524 160.096 168.286 160.006 168.03C159.923 167.766 159.832 167.509 159.734 167.26C159.636 167.011 159.538 166.785 159.44 166.581ZM153.398 164.16L154.88 162.678L158.738 166.536L157.256 168.018L153.398 164.16ZM161.295 157.983L171.342 147.936L172.609 149.203L162.562 159.25L161.295 157.983ZM164.633 152.79L166.047 151.376L176.671 161.999L175.256 163.414L164.633 152.79ZM170.742 159.601L172.371 158.922C172.485 159.563 172.545 160.227 172.552 160.913C172.568 161.592 172.534 162.282 172.451 162.984C172.368 163.67 172.239 164.349 172.066 165.02C171.908 165.691 171.708 166.329 171.466 166.932C171.278 166.894 171.059 166.857 170.81 166.819C170.561 166.781 170.309 166.755 170.052 166.74C169.796 166.725 169.573 166.721 169.385 166.728C169.656 166.17 169.894 165.586 170.097 164.975C170.293 164.356 170.456 163.734 170.584 163.108C170.705 162.474 170.78 161.864 170.81 161.275C170.84 160.672 170.818 160.114 170.742 159.601ZM172.937 157.496C173.45 157.557 174.004 157.568 174.6 157.53C175.196 157.478 175.811 157.391 176.444 157.27C177.078 157.134 177.704 156.961 178.322 156.75C178.933 156.531 179.518 156.286 180.076 156.014C180.061 156.21 180.057 156.44 180.065 156.704C180.087 156.968 180.114 157.229 180.144 157.485C180.189 157.742 180.234 157.968 180.28 158.164C179.684 158.413 179.05 158.616 178.379 158.775C177.715 158.941 177.036 159.069 176.343 159.16C175.649 159.235 174.959 159.269 174.272 159.261C173.593 159.246 172.937 159.186 172.304 159.08L172.937 157.496ZM168.129 160.268L168.819 160.958L174.306 155.471L173.616 154.781L168.129 160.268ZM166.5 158.639L167.178 159.318L172.666 153.831L171.987 153.152L166.5 158.639ZM164.158 158.945L172.36 150.742L176.716 155.098L168.513 163.3L164.158 158.945Z" fill="black"/>
<path d="M113.785 145.701L122.248 137.238L123.56 138.551L115.098 147.013L113.785 145.701ZM117.847 149.876L126.626 141.096L127.86 142.329L119.08 151.109L117.847 149.876ZM117.179 146.47L123.345 140.304L124.567 141.526L118.401 147.692L117.179 146.47ZM113.005 146.482L114.362 145.124L117.802 148.563C118.284 149.046 118.797 149.589 119.34 150.192C119.883 150.796 120.415 151.441 120.936 152.127C121.456 152.813 121.916 153.522 122.316 154.254C122.723 154.978 123.025 155.702 123.221 156.426C123.063 156.434 122.863 156.468 122.621 156.528C122.388 156.581 122.15 156.645 121.909 156.72C121.675 156.788 121.479 156.864 121.32 156.947C121.147 156.275 120.879 155.616 120.517 154.967C120.155 154.318 119.74 153.692 119.273 153.089C118.805 152.485 118.326 151.916 117.836 151.38C117.345 150.845 116.878 150.355 116.433 149.91L113.005 146.482ZM119.827 148.846L121.151 147.522L125.427 151.799L124.103 153.123L119.827 148.846ZM122.814 154.005C123.146 153.583 123.515 153.093 123.922 152.534C124.33 151.961 124.76 151.358 125.212 150.724C125.672 150.083 126.129 149.446 126.581 148.812L127.848 149.921C127.449 150.517 127.037 151.124 126.615 151.742C126.193 152.361 125.782 152.953 125.382 153.519C124.997 154.084 124.639 154.609 124.307 155.091L122.814 154.005ZM123.108 145.565C124.036 146.131 124.96 146.527 125.88 146.753C126.8 146.979 127.731 147.006 128.674 146.832C129.625 146.651 130.605 146.236 131.616 145.588C131.616 145.784 131.631 146.01 131.661 146.267C131.699 146.516 131.744 146.764 131.797 147.013C131.857 147.27 131.921 147.492 131.989 147.681C130.835 148.337 129.723 148.733 128.652 148.869C127.581 148.989 126.51 148.884 125.438 148.552C124.367 148.22 123.247 147.703 122.078 147.002L123.108 145.565ZM126.457 143.755L128.425 143.348C128.342 143.823 128.241 144.317 128.12 144.83C128.007 145.335 127.882 145.829 127.746 146.312C127.611 146.78 127.479 147.213 127.35 147.613L125.767 147.839C125.88 147.439 125.982 146.998 126.072 146.516C126.17 146.025 126.253 145.543 126.321 145.067C126.389 144.577 126.434 144.14 126.457 143.755ZM138.987 145.072L126.146 132.231L127.232 131.145L140.073 143.986L138.987 145.072ZM137.375 129.488L144.084 122.779L145.419 124.114L138.71 130.823L137.375 129.488ZM133.788 125.947L141.233 118.503L146.754 124.024L145.351 125.427L141.165 121.24L135.123 127.282L133.788 125.947ZM132.974 126.762L134.388 125.347L141.674 132.633C141.968 132.927 142.221 133.12 142.432 133.21C142.636 133.293 142.858 133.259 143.099 133.109C143.348 132.95 143.68 132.664 144.095 132.249C144.216 132.128 144.404 131.939 144.661 131.683C144.917 131.427 145.204 131.14 145.521 130.823C145.845 130.499 146.169 130.174 146.494 129.85C146.818 129.526 147.108 129.235 147.365 128.979C147.629 128.715 147.821 128.523 147.942 128.402C148.319 128.025 148.56 127.701 148.666 127.429C148.771 127.142 148.749 126.833 148.598 126.501C148.44 126.162 148.149 125.721 147.727 125.178C147.923 125.132 148.138 125.068 148.372 124.985C148.598 124.895 148.824 124.789 149.05 124.668C149.277 124.548 149.469 124.438 149.627 124.34C150.035 124.868 150.348 125.355 150.566 125.8C150.778 126.237 150.88 126.656 150.872 127.056C150.872 127.448 150.748 127.851 150.499 128.266C150.265 128.681 149.903 129.134 149.412 129.624C149.322 129.714 149.171 129.865 148.96 130.076C148.756 130.28 148.519 130.518 148.247 130.789C147.983 131.053 147.708 131.328 147.421 131.615C147.135 131.902 146.859 132.177 146.595 132.441C146.331 132.705 146.098 132.939 145.894 133.142C145.698 133.339 145.555 133.482 145.464 133.572C144.913 134.123 144.423 134.545 143.993 134.84C143.563 135.134 143.152 135.303 142.76 135.349C142.368 135.394 141.972 135.307 141.572 135.088C141.165 134.862 140.724 134.511 140.248 134.036L132.974 126.762Z" fill="black"/>
<path d="M80.586 123.986L89.2183 115.354L90.6099 116.746L81.9776 125.378L80.586 123.986ZM85.0096 126.849L91.9563 119.902L93.3365 121.282L86.3899 128.229L85.0096 126.849ZM87.4308 132.098L97.2963 122.233L98.6766 123.613L88.8111 133.479L87.4308 132.098ZM90.6891 112.639L95.0789 108.249L96.0971 109.267L91.7074 113.657L90.6891 112.639ZM95.7124 118.024L105.861 107.876L106.924 108.939L96.7759 119.088L95.7124 118.024ZM92.5785 114.279L96.6401 110.218L97.6471 111.225L93.5854 115.286L92.5785 114.279ZM102.093 118.839L107.603 113.329L108.621 114.347L103.112 119.857L102.093 118.839ZM94.1964 116.599C94.581 116.169 95.0147 115.682 95.4975 115.139C95.9877 114.588 96.5044 114.011 97.0474 113.408C97.583 112.797 98.1185 112.186 98.654 111.575L99.6722 112.616C98.9104 113.499 98.1486 114.381 97.3868 115.264C96.6175 116.138 95.9425 116.912 95.3617 117.583L94.1964 116.599ZM92.6577 111.462L93.9362 110.184L97.466 113.714L96.346 115.15L92.6577 111.462ZM96.923 105.477L98.5408 104.108C98.6992 104.478 98.8425 104.832 98.9708 105.172C99.099 105.511 99.2046 105.813 99.2875 106.077L97.9299 107.072C97.7866 106.808 97.6244 106.533 97.4434 106.247C97.2699 105.952 97.0965 105.696 96.923 105.477ZM99.7514 109.437L100.475 110.161L102.682 107.955L101.958 107.231L99.7514 109.437ZM98.0883 107.774L98.8011 108.487L101.007 106.28L100.294 105.568L98.0883 107.774ZM95.8256 108L100.566 103.26L104.99 107.683L100.249 112.424L95.8256 108ZM99.05 115.094L100.679 114.279C100.868 115.056 100.966 115.863 100.973 116.7C100.981 117.538 100.913 118.367 100.77 119.189C100.626 120.012 100.426 120.792 100.17 121.531C100.027 121.494 99.8382 121.456 99.6043 121.418C99.363 121.373 99.1216 121.335 98.8803 121.305C98.6389 121.275 98.4315 121.264 98.258 121.271C98.5371 120.615 98.7633 119.929 98.9368 119.212C99.1103 118.495 99.2084 117.787 99.231 117.085C99.2612 116.376 99.2008 115.712 99.05 115.094ZM99.3554 117.911L106.743 110.523L109.888 113.668L108.429 115.128L106.302 113.001L101.777 117.526L103.96 119.71L102.557 121.113L99.3554 117.911ZM104.119 103.576L114.075 93.6204L115.421 94.9668L105.465 104.923L104.119 103.576ZM105.725 96.6978L107.173 95.2496L117.797 105.873L116.349 107.321L105.725 96.6978ZM108.802 100.363L110.409 99.5714C110.748 100.424 111.031 101.295 111.257 102.185C111.484 103.075 111.646 103.969 111.744 104.866C111.85 105.756 111.887 106.639 111.857 107.514C111.827 108.373 111.718 109.199 111.529 109.991C111.34 109.954 111.114 109.923 110.85 109.901C110.586 109.878 110.322 109.863 110.058 109.856C109.787 109.841 109.553 109.841 109.357 109.856C109.568 109.132 109.711 108.37 109.787 107.57C109.862 106.756 109.877 105.934 109.832 105.104C109.779 104.267 109.662 103.448 109.481 102.649C109.308 101.842 109.081 101.08 108.802 100.363ZM110.861 98.4174C111.563 98.6814 112.313 98.8888 113.113 99.0397C113.912 99.1905 114.723 99.2848 115.545 99.3225C116.375 99.3527 117.19 99.3301 117.989 99.2546C118.789 99.1792 119.543 99.0359 120.252 98.8247C120.229 99.0133 120.222 99.2471 120.229 99.5262C120.237 99.7902 120.256 100.058 120.286 100.329C120.324 100.593 120.365 100.823 120.41 101.02C119.633 101.193 118.823 101.295 117.978 101.325C117.125 101.348 116.254 101.314 115.364 101.223C114.467 101.125 113.577 100.967 112.694 100.748C111.812 100.529 110.952 100.265 110.115 99.9561L110.861 98.4174ZM121.508 95.5777L128.884 88.2012L129.948 89.2646L122.571 96.6412L121.508 95.5777ZM119.98 93.462L127.572 85.8705L128.703 87.0019L121.112 94.5934L119.98 93.462ZM121.938 98.8134L131.95 88.8008L133.116 89.9661L123.103 99.9787L121.938 98.8134ZM121.926 90.1358L123.329 88.7329L128.477 93.8806L127.074 95.2835L121.926 90.1358ZM118.181 90.1924L118.792 90.8033L123.816 85.78L123.205 85.1691L118.181 90.1924ZM116.631 88.6424L117.22 89.2307L122.243 84.2074L121.655 83.6191L116.631 88.6424ZM114.267 88.9479L122.028 81.1867L126.248 85.4067L118.487 93.1679L114.267 88.9479ZM118.962 92.4664L120.67 91.5274C120.874 92.0629 121.036 92.6248 121.157 93.2131C121.278 93.8014 121.361 94.3822 121.406 94.9554C121.451 95.5287 121.459 96.0566 121.428 96.5394C121.255 96.5469 121.048 96.5658 120.806 96.5959C120.565 96.6261 120.324 96.6638 120.082 96.7091C119.833 96.7468 119.622 96.792 119.449 96.8448C119.547 96.1585 119.554 95.4268 119.471 94.65C119.388 93.858 119.219 93.1302 118.962 92.4664Z" fill="black"/>
<path d="M270.894 146.959L280.94 157.006L279.673 158.273L269.627 148.226L270.894 146.959ZM268.518 154.313L273.575 159.37L272.523 160.422L267.466 155.365L268.518 154.313ZM266.481 155.874L272.025 161.418L270.939 162.504L265.395 156.96L266.481 155.874ZM269.853 156.689L271.131 157.967L267.149 161.95L265.87 160.671L269.853 156.689ZM269.208 149.505L277.399 157.696L276.155 158.94L269.321 152.107L263.019 158.408L261.662 157.051L269.208 149.505ZM277.014 157.311L278.406 158.703L272.217 164.891C271.893 165.216 271.599 165.419 271.335 165.502C271.063 165.593 270.769 165.57 270.453 165.434C270.121 165.299 269.777 165.068 269.423 164.744C269.068 164.435 268.661 164.05 268.201 163.59C268.344 163.386 268.48 163.13 268.608 162.821C268.744 162.519 268.846 162.244 268.914 161.995C269.095 162.191 269.28 162.391 269.468 162.595C269.657 162.798 269.83 162.979 269.989 163.138C270.162 163.296 270.275 163.402 270.328 163.454C270.434 163.56 270.52 163.617 270.588 163.624C270.664 163.624 270.743 163.583 270.826 163.5L277.014 157.311ZM270.147 153.544L271.539 154.302C271.493 154.618 271.41 154.95 271.29 155.297C271.177 155.652 271.063 155.946 270.95 156.18L269.446 155.422C269.581 155.195 269.713 154.905 269.842 154.55C269.97 154.196 270.072 153.86 270.147 153.544ZM273.632 156.44L274.458 157.899C274.035 158.02 273.62 158.133 273.213 158.239C272.821 158.344 272.463 158.424 272.138 158.476L271.471 157.221C271.689 157.168 271.927 157.096 272.184 157.006C272.447 156.923 272.704 156.832 272.953 156.734C273.202 156.636 273.428 156.538 273.632 156.44ZM276.053 150.398L277.535 151.88L273.677 155.738L272.195 154.256L276.053 150.398ZM275.702 167.267L283.373 174.938L282.117 176.194L274.446 168.523L275.702 167.267ZM280.363 160.864L289.697 170.197L282.287 177.608L280.906 176.228L287.061 170.073L280.431 163.443L274.254 169.62L272.93 168.297L280.363 160.864ZM284.957 166.498L286.258 167.799L284.221 169.835C284.078 169.979 283.999 170.08 283.984 170.141C283.984 170.201 284.04 170.288 284.153 170.401C284.176 170.424 284.225 170.473 284.3 170.548C284.383 170.631 284.463 170.71 284.538 170.786C284.621 170.869 284.681 170.929 284.719 170.967C284.787 171.035 284.847 171.072 284.9 171.08C284.968 171.087 285.051 171.057 285.149 170.989C285.255 170.929 285.398 170.816 285.579 170.65C285.594 170.786 285.632 170.952 285.692 171.148C285.768 171.344 285.85 171.54 285.941 171.736C286.047 171.932 286.148 172.102 286.246 172.245C285.847 172.539 285.504 172.732 285.217 172.822C284.93 172.913 284.666 172.913 284.425 172.822C284.191 172.739 283.946 172.569 283.69 172.313C283.629 172.253 283.558 172.181 283.475 172.098C283.392 172.015 283.301 171.925 283.203 171.827C283.113 171.736 283.026 171.649 282.943 171.566C282.86 171.483 282.792 171.415 282.739 171.363C282.377 171.001 282.143 170.676 282.038 170.39C281.94 170.111 281.966 169.828 282.117 169.541C282.268 169.255 282.532 168.923 282.909 168.546L284.957 166.498ZM282.445 157.877L292.616 168.048L291.304 169.36L281.133 159.189L282.445 157.877ZM284.538 161.961L285.873 163.296L283.61 165.559L282.275 164.224L284.538 161.961ZM287.016 164.439L288.385 165.808L286.122 168.07L284.753 166.701L287.016 164.439ZM282.807 163.828L284.074 165.095L282.954 166.215C282.577 166.592 282.14 166.931 281.642 167.233C281.144 167.535 280.578 167.731 279.945 167.821C279.311 167.912 278.598 167.833 277.806 167.584C277.829 167.441 277.837 167.252 277.829 167.018C277.822 166.784 277.803 166.547 277.772 166.305C277.75 166.072 277.72 165.883 277.682 165.74C278.399 165.974 279.006 166.068 279.503 166.023C280.009 165.985 280.439 165.857 280.793 165.638C281.148 165.419 281.457 165.178 281.721 164.914L282.807 163.828Z" fill="black"/>
<path d="M291.07 119.263L301.207 129.4L299.861 130.746L289.724 120.609L291.07 119.263ZM294.713 117.317L303.176 125.78L301.83 127.126L293.367 118.663L294.713 117.317ZM299.872 119.082L301.32 120.53L290.697 131.154L289.249 129.706L299.872 119.082ZM294.362 124.117L295.053 125.78C294.336 125.953 293.589 126.081 292.812 126.164C292.043 126.24 291.266 126.262 290.482 126.232C289.705 126.21 288.939 126.138 288.185 126.017C287.446 125.897 286.737 125.731 286.058 125.52C286.103 125.323 286.137 125.093 286.16 124.829C286.19 124.573 286.209 124.313 286.217 124.049C286.239 123.785 286.243 123.547 286.228 123.336C286.854 123.585 287.514 123.792 288.208 123.958C288.917 124.124 289.63 124.241 290.346 124.309C291.063 124.377 291.76 124.396 292.439 124.366C293.126 124.328 293.767 124.245 294.362 124.117ZM296.286 126.063C296.15 126.651 296.063 127.288 296.026 127.975C296.003 128.661 296.026 129.362 296.093 130.079C296.161 130.795 296.271 131.501 296.422 132.195C296.588 132.889 296.791 133.545 297.033 134.163C296.844 134.141 296.614 134.137 296.342 134.152C296.086 134.167 295.826 134.193 295.562 134.231C295.298 134.269 295.068 134.31 294.872 134.356C294.668 133.684 294.51 132.975 294.396 132.229C294.283 131.482 294.215 130.72 294.193 129.943C294.178 129.159 294.208 128.382 294.283 127.613C294.366 126.851 294.494 126.112 294.668 125.395L296.286 126.063ZM297.141 141.987L309.982 129.146L311.068 130.232L298.227 143.073L297.141 141.987ZM314.331 136.551L323.507 145.726L316.775 152.458L315.361 151.044L320.792 145.613L314.388 139.209L308.901 144.697L307.543 143.339L314.331 136.551ZM312.781 139.888L320.316 147.423L319.061 148.679L311.526 141.144L312.781 139.888ZM310.326 142.321L317.895 149.89L316.594 151.191L309.025 143.622L310.326 142.321ZM319.66 138.847L321.086 140.273L310.462 150.896L309.037 149.471L319.66 138.847Z" fill="black"/>
<path d="M263.713 283.073L267.073 279.713L268.419 281.059L265.059 284.419L263.713 283.073ZM266.745 275.04L268.159 273.626L276.316 281.783C276.633 282.1 276.863 282.277 277.006 282.315C277.142 282.345 277.315 282.255 277.527 282.043C277.572 281.998 277.647 281.923 277.753 281.817C277.859 281.711 277.975 281.595 278.104 281.466C278.232 281.338 278.349 281.221 278.454 281.116C278.56 281.01 278.639 280.931 278.692 280.878C278.843 280.727 278.892 280.55 278.839 280.346C278.786 280.143 278.609 279.86 278.307 279.498C278.006 279.121 277.564 278.619 276.984 277.993C277.18 277.963 277.395 277.914 277.628 277.846C277.87 277.771 278.104 277.688 278.33 277.597C278.549 277.499 278.737 277.401 278.896 277.303C279.574 278.072 280.08 278.736 280.412 279.294C280.751 279.845 280.898 280.339 280.853 280.776C280.823 281.214 280.593 281.647 280.163 282.077C280.102 282.138 280.001 282.239 279.857 282.383C279.714 282.526 279.559 282.681 279.393 282.847C279.235 283.005 279.088 283.152 278.952 283.288C278.816 283.424 278.715 283.525 278.647 283.593C278.217 284.023 277.813 284.299 277.436 284.419C277.074 284.54 276.693 284.498 276.293 284.295C275.886 284.084 275.419 283.714 274.891 283.186L266.745 275.04ZM263.894 277.891L265.308 276.477L275.626 286.795L274.212 288.209L263.894 277.891ZM272.164 272.992L274.37 273.23C274.242 273.886 274.091 274.565 273.918 275.266C273.737 275.96 273.544 276.658 273.341 277.359C273.137 278.046 272.926 278.71 272.707 279.351C272.511 279.245 272.254 279.147 271.938 279.057C271.613 278.958 271.334 278.883 271.1 278.83C271.289 278.204 271.455 277.548 271.598 276.862C271.742 276.175 271.858 275.5 271.949 274.837C272.047 274.165 272.119 273.551 272.164 272.992ZM268.43 288.605C268.649 288.206 268.898 287.738 269.177 287.202C269.449 286.659 269.732 286.082 270.026 285.471C270.312 284.853 270.599 284.242 270.886 283.639L272.368 284.6C272.058 285.422 271.73 286.256 271.383 287.101C271.044 287.938 270.731 288.703 270.444 289.397L268.43 288.605ZM282.267 276.511L289.938 268.84L291.194 270.096L283.523 277.767L282.267 276.511ZM275.864 271.85L285.197 262.516L292.608 269.926L291.228 271.307L285.073 265.152L278.443 271.782L284.62 277.959L283.297 279.283L275.864 271.85ZM281.498 267.256L282.799 265.955L284.835 267.992C284.979 268.135 285.08 268.214 285.141 268.229C285.201 268.229 285.288 268.173 285.401 268.06C285.424 268.037 285.473 267.988 285.548 267.913C285.631 267.83 285.71 267.75 285.786 267.675C285.869 267.592 285.929 267.532 285.967 267.494C286.035 267.426 286.072 267.366 286.08 267.313C286.087 267.245 286.057 267.162 285.989 267.064C285.929 266.958 285.816 266.815 285.65 266.634C285.786 266.619 285.952 266.581 286.148 266.521C286.344 266.446 286.54 266.363 286.736 266.272C286.932 266.166 287.102 266.065 287.245 265.967C287.539 266.366 287.732 266.709 287.822 266.996C287.913 267.283 287.913 267.547 287.822 267.788C287.739 268.022 287.569 268.267 287.313 268.523C287.253 268.584 287.181 268.655 287.098 268.738C287.015 268.821 286.925 268.912 286.827 269.01C286.736 269.1 286.649 269.187 286.566 269.27C286.483 269.353 286.415 269.421 286.363 269.474C286.001 269.836 285.676 270.07 285.39 270.175C285.111 270.273 284.828 270.247 284.541 270.096C284.255 269.945 283.923 269.681 283.546 269.304L281.498 267.256ZM272.877 269.768L283.048 259.597L284.36 260.909L274.189 271.08L272.877 269.768ZM276.961 267.675L278.296 266.34L280.559 268.603L279.224 269.938L276.961 267.675ZM279.439 265.197L280.808 263.828L283.07 266.091L281.701 267.46L279.439 265.197ZM278.828 269.406L280.095 268.139L281.215 269.259C281.592 269.636 281.931 270.073 282.233 270.571C282.535 271.069 282.731 271.635 282.821 272.268C282.912 272.902 282.833 273.615 282.584 274.407C282.441 274.384 282.252 274.376 282.018 274.384C281.784 274.392 281.547 274.41 281.305 274.441C281.072 274.463 280.883 274.493 280.74 274.531C280.974 273.815 281.068 273.207 281.023 272.71C280.985 272.204 280.857 271.774 280.638 271.42C280.419 271.065 280.178 270.756 279.914 270.492L278.828 269.406Z" fill="black"/>
<path d="M288.67 316.441L288.817 314.484C289.345 314.333 289.926 314.182 290.56 314.032C291.193 313.881 291.816 313.756 292.427 313.658C293.03 313.553 293.554 313.496 293.999 313.488L293.886 315.638C293.471 315.631 292.962 315.665 292.359 315.74C291.755 315.815 291.129 315.913 290.481 316.034C289.832 316.155 289.228 316.291 288.67 316.441ZM297.269 315.627L297.619 313.511C298.042 313.39 298.517 313.262 299.045 313.126C299.565 312.983 300.09 312.844 300.618 312.708C301.146 312.572 301.658 312.459 302.156 312.368C302.654 312.263 303.092 312.187 303.469 312.142L303.141 314.507C302.801 314.529 302.39 314.578 301.907 314.654C301.425 314.729 300.916 314.824 300.38 314.937C299.845 315.035 299.309 315.148 298.773 315.276C298.23 315.397 297.729 315.514 297.269 315.627ZM289.949 310.524L291.997 309.744C292.004 310.309 291.997 310.89 291.974 311.486C291.944 312.074 291.906 312.648 291.861 313.206C291.816 313.749 291.755 314.247 291.68 314.699L289.983 315.219C290.036 314.744 290.069 314.235 290.085 313.692C290.1 313.134 290.096 312.58 290.073 312.029C290.058 311.471 290.017 310.969 289.949 310.524ZM284.993 313.941L295.153 303.781L296.42 305.048L286.261 315.208L284.993 313.941ZM288.048 308.352L289.474 306.927L291.295 308.748L289.87 310.174L288.048 308.352ZM293.581 308.816L295.481 308.228C295.655 309.517 295.647 310.83 295.459 312.165C295.27 313.485 294.938 314.797 294.463 316.102C293.98 317.399 293.392 318.681 292.698 319.949C292.434 319.851 292.11 319.768 291.725 319.7C291.34 319.617 290.982 319.568 290.65 319.553C291.359 318.391 291.966 317.203 292.472 315.989C292.97 314.767 293.324 313.545 293.535 312.323C293.746 311.101 293.762 309.932 293.581 308.816ZM296.828 309.28L298.841 308.714C299.09 310.29 299.087 311.856 298.83 313.409C298.574 314.963 298.117 316.513 297.461 318.059C296.805 319.59 295.994 321.118 295.029 322.641C294.742 322.521 294.399 322.411 293.999 322.313C293.614 322.215 293.252 322.155 292.913 322.132C293.871 320.707 294.689 319.27 295.368 317.822C296.039 316.366 296.511 314.922 296.782 313.488C297.061 312.048 297.076 310.645 296.828 309.28ZM310.987 311.072L298.146 298.231L299.232 297.145L312.073 309.986L310.987 311.072ZM311.456 286.618L311.479 284.989C311.796 284.883 312.139 284.789 312.509 284.706C312.886 284.616 313.252 284.544 313.606 284.491C313.961 284.423 314.262 284.393 314.511 284.401L314.534 286.166C314.285 286.143 313.983 286.158 313.629 286.211C313.274 286.249 312.905 286.301 312.52 286.369C312.135 286.437 311.781 286.52 311.456 286.618ZM315.597 288.293L317.317 287.32C318.245 289.349 318.799 291.381 318.98 293.418C319.161 295.454 318.969 297.427 318.403 299.335C318.237 299.29 318.022 299.256 317.758 299.233C317.509 299.21 317.249 299.191 316.978 299.176C316.721 299.161 316.499 299.158 316.31 299.165C316.951 297.393 317.211 295.586 317.091 293.746C316.97 291.89 316.472 290.073 315.597 288.293ZM306.954 293.248L315.597 284.604L316.887 285.894L308.243 294.538L306.954 293.248ZM311.411 295.692L314.194 292.909L315.45 294.164L312.667 296.948L311.411 295.692ZM306.275 293.927L307.632 292.569L310.698 295.635C311.121 296.058 311.566 296.54 312.033 297.083C312.494 297.619 312.935 298.196 313.357 298.814C313.787 299.425 314.153 300.063 314.455 300.726C314.749 301.383 314.937 302.046 315.02 302.718C314.862 302.695 314.654 302.691 314.398 302.706C314.149 302.729 313.896 302.755 313.64 302.785C313.399 302.816 313.195 302.853 313.029 302.899C312.946 302.303 312.776 301.733 312.52 301.19C312.271 300.64 311.966 300.115 311.604 299.618C311.249 299.112 310.876 298.641 310.483 298.203C310.084 297.758 309.703 297.355 309.341 296.993L306.275 293.927ZM308.809 287.614L310.178 286.245C311.158 287.18 312.124 288.063 313.074 288.892C314.025 289.707 314.937 290.438 315.812 291.087C316.68 291.728 317.487 292.249 318.233 292.648C318.98 293.048 319.64 293.301 320.213 293.406C320.786 293.512 321.247 293.429 321.594 293.158C321.759 293.052 321.707 292.803 321.435 292.411C321.164 292.004 320.741 291.483 320.168 290.85C320.447 290.842 320.764 290.804 321.118 290.736C321.48 290.661 321.786 290.582 322.035 290.499C323.015 291.645 323.528 292.573 323.573 293.282C323.626 293.998 323.283 294.545 322.544 294.922C321.971 295.3 321.311 295.462 320.564 295.409C319.825 295.364 319.018 295.137 318.143 294.73C317.268 294.323 316.336 293.768 315.348 293.067C314.353 292.358 313.308 291.547 312.214 290.635C311.121 289.707 309.986 288.7 308.809 287.614Z" fill="black"/>
<path d="M304.902 345.622L313.647 336.877L314.994 338.223L306.248 346.969L304.902 345.622ZM311.95 353.983L322.099 343.835L323.445 345.181L313.296 355.329L311.95 353.983ZM308.522 342.952L310.072 341.402C310.638 342.194 311.218 343.024 311.814 343.891C312.41 344.759 312.999 345.626 313.579 346.493C314.16 347.361 314.703 348.19 315.208 348.982C315.721 349.767 316.166 350.476 316.543 351.109L315.016 352.637C314.624 351.973 314.175 351.238 313.67 350.431C313.157 349.616 312.61 348.783 312.029 347.93C311.449 347.063 310.86 346.203 310.264 345.351C309.669 344.498 309.088 343.699 308.522 342.952ZM308.59 348.564L315.933 341.221L320.956 346.244L319.542 347.659L315.853 343.97L309.925 349.899L308.59 348.564ZM317.188 336.684L327.416 326.457L328.649 327.69L318.422 337.918L317.188 336.684ZM316.114 334.003L324.757 325.359L325.945 326.547L317.302 335.191L316.114 334.003ZM317.143 331.299L318.523 329.919L321.838 333.234L320.458 334.614L317.143 331.299ZM320.639 327.803L322.042 326.4L325.357 329.715L323.954 331.118L320.639 327.803ZM322.291 332.985L323.694 331.582L328.332 336.221L326.929 337.623L322.291 332.985ZM323.852 338.483L324.508 339.139L329.905 333.743L329.249 333.087L323.852 338.483ZM322.347 336.979L322.981 337.612L328.378 332.215L327.744 331.582L322.347 336.979ZM320.107 337.341L328.174 329.274L332.202 333.302L324.135 341.368L320.107 337.341ZM329.633 337.318L329.532 335.7C330.082 335.421 330.648 335.149 331.229 334.885C331.817 334.614 332.379 334.361 332.914 334.127C333.457 333.886 333.929 333.686 334.329 333.528L334.261 335.406C333.891 335.534 333.45 335.696 332.937 335.892C332.432 336.096 331.892 336.319 331.319 336.56C330.746 336.801 330.184 337.054 329.633 337.318ZM326.217 339.106L328.174 338.755C328.061 339.245 327.887 339.781 327.654 340.361C327.427 340.95 327.175 341.534 326.896 342.115C326.616 342.696 326.337 343.231 326.058 343.722C325.802 343.691 325.485 343.676 325.108 343.676C324.746 343.676 324.425 343.688 324.146 343.71C324.456 343.22 324.75 342.7 325.029 342.149C325.308 341.583 325.553 341.029 325.764 340.486C325.975 339.943 326.126 339.483 326.217 339.106ZM330.007 325.472L338.809 316.67L340.144 318.005L331.342 326.808L330.007 325.472ZM334.555 331.514L344.862 321.207L346.197 322.542L335.89 332.849L334.555 331.514ZM330.154 318.334L331.613 316.874L341.321 326.581L339.861 328.041L330.154 318.334ZM345.948 317.18L353.324 309.803L354.388 310.866L347.011 318.243L345.948 317.18ZM344.42 315.064L352.012 307.472L353.143 308.604L345.552 316.195L344.42 315.064ZM346.378 320.415L356.39 310.403L357.556 311.568L347.543 321.581L346.378 320.415ZM346.366 311.738L347.769 310.335L352.917 315.482L351.514 316.885L346.366 311.738ZM342.622 311.794L343.233 312.405L348.256 307.382L347.645 306.771L342.622 311.794ZM341.072 310.244L341.66 310.833L346.683 305.809L346.095 305.221L341.072 310.244ZM338.707 310.55L346.468 302.789L350.688 307.009L342.927 314.77L338.707 310.55ZM343.402 314.068L345.111 313.129C345.314 313.665 345.476 314.227 345.597 314.815C345.718 315.403 345.801 315.984 345.846 316.557C345.891 317.131 345.899 317.658 345.869 318.141C345.695 318.149 345.488 318.168 345.246 318.198C345.005 318.228 344.764 318.266 344.522 318.311C344.273 318.349 344.062 318.394 343.889 318.447C343.987 317.76 343.994 317.029 343.911 316.252C343.828 315.46 343.659 314.732 343.402 314.068Z" fill="black"/>
<path d="M156.927 261.5L160.288 264.86L158.941 266.206L155.581 262.846L156.927 261.5ZM164.96 264.532L166.374 265.946L158.217 274.103C157.9 274.42 157.723 274.65 157.685 274.793C157.655 274.929 157.746 275.102 157.957 275.314C158.002 275.359 158.078 275.434 158.183 275.54C158.289 275.646 158.406 275.762 158.534 275.891C158.662 276.019 158.779 276.136 158.885 276.241C158.99 276.347 159.07 276.426 159.122 276.479C159.273 276.63 159.45 276.679 159.654 276.626C159.858 276.573 160.141 276.396 160.503 276.094C160.88 275.793 161.381 275.351 162.007 274.771C162.038 274.967 162.087 275.182 162.154 275.415C162.23 275.657 162.313 275.891 162.403 276.117C162.501 276.336 162.599 276.524 162.697 276.683C161.928 277.361 161.264 277.867 160.706 278.199C160.156 278.538 159.662 278.685 159.224 278.64C158.787 278.61 158.353 278.38 157.923 277.95C157.863 277.889 157.761 277.788 157.618 277.644C157.474 277.501 157.32 277.346 157.154 277.18C156.995 277.022 156.848 276.875 156.713 276.739C156.577 276.603 156.475 276.502 156.407 276.434C155.977 276.004 155.702 275.6 155.581 275.223C155.46 274.861 155.502 274.48 155.706 274.08C155.917 273.673 156.286 273.206 156.814 272.678L164.96 264.532ZM162.109 261.681L163.523 263.095L153.205 273.413L151.791 271.999L162.109 261.681ZM167.008 269.951L166.77 272.157C166.114 272.029 165.435 271.878 164.734 271.705C164.04 271.524 163.342 271.331 162.641 271.128C161.955 270.924 161.291 270.713 160.65 270.494C160.755 270.298 160.853 270.041 160.944 269.725C161.042 269.4 161.117 269.121 161.17 268.887C161.796 269.076 162.452 269.242 163.139 269.385C163.825 269.529 164.5 269.645 165.164 269.736C165.835 269.834 166.45 269.906 167.008 269.951ZM151.395 266.217C151.795 266.436 152.262 266.685 152.798 266.964C153.341 267.236 153.918 267.518 154.529 267.813C155.147 268.099 155.758 268.386 156.362 268.672L155.4 270.155C154.578 269.845 153.745 269.517 152.9 269.17C152.063 268.831 151.297 268.518 150.603 268.231L151.395 266.217ZM170.017 271.082L180.064 281.129L178.797 282.396L168.75 272.349L170.017 271.082ZM175.21 274.42L176.625 275.834L166.001 286.458L164.587 285.043L175.21 274.42ZM168.4 280.529L169.078 282.158C168.437 282.272 167.774 282.332 167.087 282.339C166.408 282.355 165.718 282.321 165.017 282.238C164.33 282.155 163.652 282.026 162.98 281.853C162.309 281.695 161.672 281.495 161.068 281.253C161.106 281.065 161.144 280.846 161.181 280.597C161.219 280.348 161.246 280.096 161.261 279.839C161.276 279.583 161.279 279.36 161.272 279.172C161.83 279.443 162.415 279.681 163.026 279.884C163.644 280.08 164.266 280.243 164.892 280.371C165.526 280.492 166.137 280.567 166.725 280.597C167.329 280.627 167.887 280.605 168.4 280.529ZM170.504 282.724C170.444 283.237 170.432 283.791 170.47 284.387C170.523 284.983 170.61 285.598 170.73 286.231C170.866 286.865 171.039 287.491 171.251 288.109C171.469 288.72 171.714 289.305 171.986 289.863C171.79 289.848 171.56 289.844 171.296 289.852C171.032 289.874 170.772 289.901 170.515 289.931C170.259 289.976 170.033 290.021 169.836 290.067C169.588 289.471 169.384 288.837 169.225 288.166C169.06 287.502 168.931 286.823 168.841 286.13C168.765 285.436 168.731 284.745 168.739 284.059C168.754 283.38 168.814 282.724 168.92 282.091L170.504 282.724ZM167.732 277.916L167.042 278.606L172.529 284.093L173.219 283.403L167.732 277.916ZM169.361 276.287L168.682 276.965L174.17 282.453L174.848 281.774L169.361 276.287ZM169.056 273.945L177.258 282.147L172.902 286.503L164.7 278.3L169.056 273.945Z" fill="black"/>
<path d="M132.67 290.374L134.005 291.709L129.152 296.563L127.817 295.228L132.67 290.374ZM130.838 287.297L137.06 293.52L135.963 294.617L129.74 288.394L130.838 287.297ZM127.251 292.286L126.629 292.909L131.505 297.785L132.127 297.163L127.251 292.286ZM128.824 290.714L128.213 291.325L133.089 296.201L133.7 295.59L128.824 290.714ZM128.541 288.372L136.11 295.941L131.856 300.195L124.287 292.626L128.541 288.372ZM128.111 297.717L129.808 297.626C130.08 298.185 130.347 298.762 130.611 299.357C130.883 299.961 131.132 300.534 131.358 301.077C131.599 301.62 131.799 302.099 131.958 302.514L129.966 302.469C129.838 302.084 129.676 301.628 129.48 301.1C129.291 300.579 129.08 300.029 128.846 299.448C128.613 298.867 128.367 298.29 128.111 297.717ZM135.872 287.082L137.275 288.485L135.669 290.091L134.266 288.689L135.872 287.082ZM130.962 283.756L140.681 293.474L138.18 295.975L136.789 294.583L138.056 293.316L131.064 286.324L129.797 287.591L128.462 286.256L130.962 283.756ZM126.538 294.334L126.855 296.325C126.342 296.22 125.78 296.05 125.169 295.816C124.559 295.597 123.948 295.334 123.337 295.024C122.726 294.73 122.152 294.413 121.617 294.074C121.677 293.833 121.73 293.531 121.775 293.169C121.828 292.814 121.862 292.501 121.877 292.23C122.367 292.554 122.895 292.863 123.461 293.158C124.042 293.452 124.6 293.701 125.136 293.904C125.686 294.108 126.154 294.251 126.538 294.334ZM133.141 309.987L145.982 297.146L147.068 298.232L134.227 311.073L133.141 309.987ZM151.621 304.098L158.342 310.818L157.018 312.142L150.297 305.422L151.621 304.098ZM142.378 311.531L152.47 321.623L151.157 322.935L141.066 312.844L142.378 311.531ZM146.666 306.994L157.007 317.335L155.672 318.67L145.331 308.329L146.666 306.994ZM153.035 306.96L154.427 308.352C153.839 308.835 153.22 309.333 152.572 309.845C151.923 310.358 151.267 310.871 150.603 311.384C149.947 311.905 149.298 312.41 148.657 312.9C148.016 313.39 147.401 313.847 146.813 314.269C146.24 314.692 145.719 315.069 145.252 315.401L143.837 313.986C144.335 313.654 144.882 313.274 145.478 312.844C146.074 312.414 146.688 311.957 147.322 311.475C147.971 310.992 148.623 310.498 149.279 309.993C149.943 309.48 150.592 308.967 151.225 308.454C151.859 307.941 152.462 307.443 153.035 306.96ZM157.719 310.196L159.134 311.61C158.53 312.184 157.893 312.776 157.221 313.387C156.558 313.99 155.883 314.597 155.196 315.208C154.51 315.819 153.835 316.411 153.171 316.984C152.523 317.558 151.896 318.101 151.293 318.614C150.697 319.119 150.15 319.575 149.653 319.983L148.216 318.546C148.721 318.131 149.279 317.671 149.89 317.165C150.509 316.653 151.15 316.11 151.814 315.536C152.485 314.971 153.16 314.386 153.839 313.783C154.525 313.172 155.193 312.565 155.841 311.961C156.505 311.358 157.131 310.769 157.719 310.196Z" fill="black"/>
<path d="M92.9131 310.767L104.736 319.467L103.559 321.096L91.7704 312.362L92.9131 310.767ZM100.21 309.873L101.693 311.355L93.8861 319.161C93.6372 319.41 93.4675 319.618 93.377 319.784C93.3015 319.95 93.3015 320.115 93.377 320.281C93.4599 320.44 93.6259 320.643 93.8748 320.892C93.9502 320.968 94.0633 321.081 94.2142 321.232C94.365 321.383 94.5347 321.552 94.7233 321.741C94.9119 321.929 95.1004 322.118 95.289 322.307C95.4775 322.495 95.6472 322.665 95.7981 322.816C95.9565 322.974 96.0734 323.091 96.1488 323.166C96.4053 323.423 96.6579 323.555 96.9068 323.562C97.1633 323.562 97.4876 323.427 97.8798 323.155C98.2796 322.876 98.8264 322.435 99.5203 321.831C99.5429 322.035 99.592 322.265 99.6674 322.522C99.7579 322.778 99.8522 323.023 99.9502 323.257C100.056 323.498 100.158 323.698 100.256 323.857C99.4411 324.55 98.7359 325.052 98.14 325.361C97.5517 325.663 97.0049 325.757 96.4995 325.644C95.9942 325.531 95.4587 325.192 94.893 324.626C94.8176 324.55 94.6931 324.426 94.5196 324.253C94.3537 324.087 94.1652 323.898 93.954 323.687C93.7503 323.483 93.5429 323.276 93.3317 323.065C93.1205 322.853 92.932 322.665 92.766 322.499C92.6001 322.333 92.4794 322.212 92.404 322.137C91.8308 321.564 91.4499 321.047 91.2613 320.587C91.0652 320.134 91.0614 319.678 91.25 319.218C91.4461 318.765 91.8383 318.245 92.4266 317.657L100.21 309.873ZM110.302 331.391L112.033 332.059C111.965 332.564 111.871 333.104 111.75 333.677C111.63 334.25 111.498 334.797 111.354 335.317C111.211 335.838 111.057 336.287 110.891 336.664L108.979 335.974C109.145 335.611 109.31 335.174 109.476 334.661C109.642 334.148 109.797 333.601 109.94 333.021C110.091 332.447 110.212 331.904 110.302 331.391ZM113.006 322.239L114.398 323.63L110.302 327.726L108.911 326.334L113.006 322.239ZM105.041 321.515L115.246 331.72L113.945 333.021L103.74 322.816L105.041 321.515ZM108.628 320.191L116.74 328.303L115.45 329.593L107.338 321.481L108.628 320.191ZM109.997 328.009L111.422 329.434L106.727 334.129C106.388 334.469 106.082 334.699 105.811 334.82C105.532 334.948 105.226 334.952 104.894 334.831C104.57 334.718 104.238 334.522 103.899 334.243C103.567 333.971 103.193 333.628 102.779 333.213C102.96 332.987 103.137 332.696 103.31 332.342C103.476 331.995 103.608 331.682 103.706 331.403C103.948 331.659 104.189 331.916 104.43 332.172C104.679 332.421 104.845 332.579 104.928 332.647C105.011 332.73 105.079 332.775 105.132 332.783C105.192 332.783 105.256 332.749 105.324 332.681L109.997 328.009ZM104.43 324.637L105.46 326.368C104.962 326.579 104.427 326.768 103.853 326.934C103.288 327.092 102.722 327.22 102.156 327.319C101.598 327.409 101.067 327.451 100.561 327.443C100.546 327.187 100.501 326.877 100.425 326.515C100.358 326.146 100.293 325.84 100.233 325.599C100.693 325.621 101.168 325.591 101.659 325.508C102.164 325.425 102.658 325.308 103.141 325.158C103.623 325.007 104.053 324.833 104.43 324.637ZM107.802 325.316L109.182 326.696L107.881 327.997C107.481 328.397 107.025 328.801 106.512 329.208C106.007 329.608 105.437 329.958 104.804 330.26C104.178 330.554 103.476 330.758 102.699 330.871C101.938 330.984 101.097 330.95 100.177 330.769C100.214 330.596 100.237 330.385 100.244 330.136C100.252 329.887 100.248 329.634 100.233 329.378C100.226 329.129 100.203 328.91 100.165 328.721C100.95 328.887 101.662 328.929 102.303 328.846C102.952 328.77 103.533 328.612 104.046 328.371C104.566 328.137 105.03 327.862 105.437 327.545C105.852 327.22 106.218 326.9 106.535 326.583L107.802 325.316ZM123.72 335.51C122.981 335.63 122.144 335.683 121.209 335.668C120.281 335.66 119.319 335.581 118.324 335.43C117.336 335.287 116.366 335.072 115.416 334.786C115.469 334.612 115.514 334.408 115.552 334.175C115.597 333.948 115.627 333.715 115.642 333.473C115.665 333.239 115.676 333.024 115.676 332.828C116.634 333.168 117.637 333.409 118.686 333.552C119.742 333.688 120.752 333.741 121.718 333.711C122.691 333.688 123.547 333.586 124.286 333.405L125.7 334.82C125.58 335.559 125.508 336.309 125.485 337.071C125.463 337.833 125.497 338.591 125.587 339.345C125.678 340.099 125.813 340.831 125.994 341.54C126.175 342.249 126.402 342.92 126.673 343.554C126.326 343.554 125.968 343.588 125.598 343.656C125.229 343.723 124.878 343.795 124.546 343.87C124.343 343.214 124.165 342.517 124.014 341.777C123.871 341.046 123.762 340.31 123.686 339.571C123.619 338.825 123.585 338.104 123.585 337.41C123.585 336.716 123.63 336.083 123.72 335.51ZM118.799 334.774L124.49 340.465L123.302 341.653L117.611 335.962L118.799 334.774ZM115.133 335.725L123.517 344.108L122.34 345.285L113.957 336.901L115.133 335.725ZM111.128 338.598L120.745 348.215L119.58 349.38L109.963 339.764L111.128 338.598ZM120.417 337.342L121.854 338.779L115.993 344.64L114.556 343.203L120.417 337.342ZM114.239 338.044L115.778 338.677C115.733 339.009 115.665 339.356 115.574 339.718C115.491 340.088 115.397 340.439 115.292 340.771C115.186 341.102 115.073 341.381 114.952 341.608L113.266 340.963C113.395 340.744 113.519 340.469 113.64 340.137C113.768 339.798 113.885 339.447 113.991 339.085C114.096 338.723 114.179 338.376 114.239 338.044ZM120.428 343.35L121.254 345.126C120.681 345.247 120.1 345.36 119.512 345.466C118.931 345.564 118.418 345.632 117.973 345.669L117.385 344.221C117.694 344.168 118.026 344.101 118.38 344.018C118.742 343.927 119.101 343.825 119.455 343.712C119.817 343.591 120.141 343.471 120.428 343.35ZM125.451 349.324L132.828 356.7L131.764 357.764L124.388 350.387L125.451 349.324ZM127.567 347.796L135.158 355.388L134.027 356.519L126.436 348.928L127.567 347.796ZM122.216 349.754L132.228 359.766L131.063 360.932L121.05 350.919L122.216 349.754ZM130.893 349.742L132.296 351.145L127.148 356.293L125.745 354.89L130.893 349.742ZM130.837 345.997L130.226 346.608L135.249 351.632L135.86 351.021L130.837 345.997ZM132.387 344.447L131.798 345.036L136.822 350.059L137.41 349.471L132.387 344.447ZM132.081 342.083L139.842 349.844L135.622 354.064L127.861 346.303L132.081 342.083ZM128.563 346.778L129.502 348.486C128.966 348.69 128.404 348.852 127.816 348.973C127.228 349.094 126.647 349.177 126.074 349.222C125.5 349.267 124.972 349.275 124.49 349.244C124.482 349.071 124.463 348.864 124.433 348.622C124.403 348.381 124.365 348.14 124.32 347.898C124.282 347.649 124.237 347.438 124.184 347.265C124.871 347.363 125.602 347.37 126.379 347.287C127.171 347.204 127.899 347.035 128.563 346.778Z" fill="black"/>
<path d="M311.743 83.8684L322.22 94.3449L320.738 95.827L310.261 85.3505L311.743 83.8684ZM320.704 100.907L327.73 107.933L326.361 109.302L319.335 102.276L320.704 100.907ZM324.143 97.4222L331.192 104.471L329.845 105.817L322.797 98.7685L324.143 97.4222ZM326.836 93.3266L335.4 101.891L326.451 110.84L325.003 109.392L332.572 101.823L326.825 96.0759L319.244 103.656L317.875 102.287L326.836 93.3266ZM331.848 94.9445L333.387 96.9583C332.791 97.2072 332.195 97.4335 331.599 97.6372C331.003 97.8408 330.483 98.0068 330.038 98.135L328.963 96.5171C329.265 96.3813 329.585 96.2267 329.925 96.0533C330.271 95.8873 330.611 95.7063 330.943 95.5102C331.282 95.3216 331.584 95.1331 331.848 94.9445ZM336.215 104.968L339.36 108.114L337.991 109.483L334.846 106.337L336.215 104.968ZM343.377 106.586L344.825 108.034L335.966 116.893C335.559 117.3 335.193 117.568 334.869 117.696C334.544 117.825 334.201 117.828 333.839 117.708C333.477 117.587 333.089 117.357 332.674 117.018C332.259 116.693 331.791 116.271 331.271 115.75C331.399 115.592 331.527 115.388 331.656 115.139C331.784 114.906 331.901 114.661 332.006 114.404C332.119 114.14 332.202 113.906 332.255 113.703C332.61 114.087 332.949 114.442 333.273 114.766C333.598 115.09 333.816 115.309 333.93 115.422C334.043 115.535 334.145 115.592 334.235 115.592C334.326 115.592 334.42 115.543 334.518 115.445L343.377 106.586ZM338.896 107.65L339.179 107.933L339.485 108.125L340.073 109.392C338.874 110.259 337.686 110.95 336.509 111.463C335.34 111.983 334.212 112.341 333.126 112.537C332.055 112.733 331.048 112.76 330.106 112.617C330.143 112.428 330.162 112.198 330.162 111.926C330.17 111.647 330.162 111.368 330.139 111.089C330.124 110.818 330.094 110.591 330.049 110.41C330.924 110.576 331.833 110.595 332.776 110.467C333.726 110.331 334.691 110.052 335.672 109.63C336.667 109.207 337.644 108.645 338.602 107.944L338.896 107.65ZM343.082 109.596C342.509 110.531 342.015 111.485 341.6 112.458C341.193 113.439 340.88 114.423 340.661 115.411C340.443 116.399 340.348 117.383 340.378 118.364C340.424 119.344 340.612 120.302 340.944 121.238C340.74 121.215 340.499 121.207 340.22 121.215C339.941 121.222 339.658 121.249 339.371 121.294C339.1 121.339 338.855 121.388 338.636 121.441C338.259 120.068 338.157 118.684 338.331 117.289C338.512 115.886 338.908 114.472 339.519 113.046C340.129 111.621 340.884 110.188 341.781 108.747L343.082 109.596ZM346.148 112.888L346.533 115.06C345.877 115.068 345.19 115.068 344.474 115.06C343.757 115.053 343.06 115.026 342.381 114.981C341.71 114.943 341.099 114.883 340.548 114.8L340.322 113.058C340.888 113.111 341.51 113.137 342.189 113.137C342.875 113.144 343.561 113.129 344.248 113.092C344.942 113.046 345.575 112.979 346.148 112.888ZM344.451 122.324L351.828 129.7L350.764 130.764L343.388 123.387L344.451 122.324ZM346.567 120.796L354.158 128.388L353.027 129.519L345.436 121.928L346.567 120.796ZM341.216 122.754L351.228 132.766L350.063 133.932L340.05 123.919L341.216 122.754ZM349.893 122.742L351.296 124.145L346.148 129.293L344.745 127.89L349.893 122.742ZM349.837 118.997L349.226 119.608L354.249 124.632L354.86 124.021L349.837 118.997ZM351.387 117.447L350.798 118.036L355.822 123.059L356.41 122.471L351.387 117.447ZM351.081 115.083L358.842 122.844L354.622 127.064L346.861 119.303L351.081 115.083ZM347.563 119.778L348.502 121.486C347.966 121.69 347.404 121.852 346.816 121.973C346.228 122.094 345.647 122.177 345.074 122.222C344.5 122.267 343.972 122.275 343.49 122.244C343.482 122.071 343.463 121.864 343.433 121.622C343.403 121.381 343.365 121.14 343.32 120.898C343.282 120.649 343.237 120.438 343.184 120.265C343.871 120.363 344.602 120.37 345.379 120.287C346.171 120.204 346.899 120.035 347.563 119.778Z" fill="black"/>
<path d="M213.896 125.728H228.104V127.52H213.896V125.728ZM217.416 132.608H224.568V134.096H217.416V132.608ZM217.08 135.152H224.92V136.688H217.08V135.152ZM220.04 133.344H221.848V138.976H220.04V133.344ZM214.504 128.72H226.088V130.48H216.424V139.392H214.504V128.72ZM225.544 128.72H227.512V137.472C227.512 137.931 227.448 138.283 227.32 138.528C227.192 138.784 226.968 138.976 226.648 139.104C226.317 139.243 225.912 139.323 225.432 139.344C224.963 139.376 224.403 139.392 223.752 139.392C223.709 139.147 223.624 138.869 223.496 138.56C223.379 138.251 223.256 137.984 223.128 137.76C223.395 137.771 223.667 137.781 223.944 137.792C224.221 137.803 224.472 137.808 224.696 137.808C224.931 137.797 225.085 137.792 225.16 137.792C225.309 137.792 225.411 137.771 225.464 137.728C225.517 137.675 225.544 137.589 225.544 137.472V128.72ZM218.024 130.912L219.544 130.464C219.736 130.72 219.912 131.013 220.072 131.344C220.243 131.675 220.371 131.963 220.456 132.208L218.856 132.736C218.792 132.48 218.68 132.181 218.52 131.84C218.36 131.499 218.195 131.189 218.024 130.912ZM222.536 130.496L224.152 130.944C223.939 131.328 223.725 131.701 223.512 132.064C223.309 132.416 223.112 132.725 222.92 132.992L221.56 132.576C221.677 132.384 221.795 132.165 221.912 131.92C222.04 131.675 222.157 131.429 222.264 131.184C222.371 130.939 222.461 130.709 222.536 130.496ZM219.976 124.512H222.072V129.968H219.976V124.512Z" fill="black"/>
<path d="M215.744 79.336L217.792 79.832C217.536 80.6427 217.227 81.4373 216.864 82.216C216.501 82.984 216.112 83.704 215.696 84.376C215.28 85.048 214.848 85.6293 214.4 86.12C214.272 86.0133 214.096 85.8853 213.872 85.736C213.648 85.5867 213.419 85.4427 213.184 85.304C212.96 85.1547 212.763 85.0373 212.592 84.952C213.051 84.5147 213.477 83.9973 213.872 83.4C214.277 82.8027 214.635 82.1573 214.944 81.464C215.264 80.7707 215.531 80.0613 215.744 79.336ZM216.192 81.416H225.984V83.288H215.232L216.192 81.416ZM212.784 86.616H227.248V88.552H212.784V86.616ZM219.008 82.248H221.008V94.44H219.008V82.248Z" fill="black"/>
<path d="M302.656 223.688H313.504V225.464H302.656V223.688ZM301.424 215.864H314.624V226.344H312.672V217.64H303.296V226.376H301.424V215.864ZM308.656 216.6H310.496V219.48C310.496 219.683 310.512 219.811 310.544 219.864C310.587 219.907 310.688 219.928 310.848 219.928C310.88 219.928 310.949 219.928 311.056 219.928C311.173 219.928 311.285 219.928 311.392 219.928C311.509 219.928 311.595 219.928 311.648 219.928C311.744 219.928 311.813 219.912 311.856 219.88C311.909 219.837 311.947 219.757 311.968 219.64C312 219.523 312.021 219.341 312.032 219.096C312.139 219.181 312.283 219.272 312.464 219.368C312.656 219.453 312.853 219.533 313.056 219.608C313.269 219.672 313.461 219.72 313.632 219.752C313.557 220.243 313.451 220.621 313.312 220.888C313.173 221.155 312.987 221.341 312.752 221.448C312.528 221.555 312.235 221.608 311.872 221.608C311.787 221.608 311.685 221.608 311.568 221.608C311.451 221.608 311.323 221.608 311.184 221.608C311.056 221.608 310.933 221.608 310.816 221.608C310.699 221.608 310.603 221.608 310.528 221.608C310.016 221.608 309.621 221.544 309.344 221.416C309.077 221.288 308.896 221.069 308.8 220.76C308.704 220.451 308.656 220.029 308.656 219.496V216.6ZM300.784 212.28H315.168V214.136H300.784V212.28ZM305.152 213.688H307.04V216.888H305.152V213.688ZM308.656 213.688H310.592V216.888H308.656V213.688ZM305.248 216.232H307.04V217.816C307.04 218.349 306.971 218.899 306.832 219.464C306.693 220.029 306.432 220.568 306.048 221.08C305.664 221.592 305.104 222.04 304.368 222.424C304.283 222.307 304.155 222.168 303.984 222.008C303.813 221.848 303.632 221.693 303.44 221.544C303.259 221.395 303.104 221.283 302.976 221.208C303.648 220.867 304.144 220.504 304.464 220.12C304.795 219.736 305.008 219.341 305.104 218.936C305.2 218.531 305.248 218.141 305.248 217.768V216.232Z" fill="black"/>
<path d="M347.928 224.008H358.488V225.688H347.928V224.008ZM347.928 221.448H358.52V223.032H347.928V221.448ZM346.584 215.672H359.48V226.424H357.608V217.384H348.376V226.424H346.584V215.672ZM353.352 213.512H355.192V218.568C355.192 218.803 355.208 218.947 355.24 219C355.283 219.053 355.368 219.08 355.496 219.08C355.528 219.08 355.576 219.08 355.64 219.08C355.704 219.08 355.773 219.08 355.848 219.08C355.923 219.08 355.992 219.08 356.056 219.08C356.131 219.08 356.184 219.08 356.216 219.08C356.291 219.08 356.349 219.059 356.392 219.016C356.445 218.973 356.483 218.888 356.504 218.76C356.525 218.632 356.541 218.445 356.552 218.2C356.733 218.328 356.973 218.451 357.272 218.568C357.581 218.685 357.859 218.776 358.104 218.84C358.019 219.523 357.848 219.992 357.592 220.248C357.336 220.504 356.941 220.632 356.408 220.632C356.333 220.632 356.237 220.632 356.12 220.632C356.013 220.632 355.896 220.632 355.768 220.632C355.651 220.632 355.539 220.632 355.432 220.632C355.325 220.632 355.235 220.632 355.16 220.632C354.659 220.632 354.28 220.573 354.024 220.456C353.768 220.328 353.592 220.115 353.496 219.816C353.4 219.507 353.352 219.091 353.352 218.568V213.512ZM350.312 213.512H352.04V217.016C352.04 217.667 351.965 218.248 351.816 218.76C351.677 219.272 351.4 219.72 350.984 220.104C350.568 220.488 349.944 220.808 349.112 221.064C348.995 220.861 348.829 220.632 348.616 220.376C348.403 220.12 348.205 219.907 348.024 219.736C348.675 219.544 349.165 219.315 349.496 219.048C349.827 218.781 350.045 218.477 350.152 218.136C350.259 217.784 350.312 217.405 350.312 217V213.512ZM345.864 212.312H360.168V214.152H345.864V212.312Z" fill="black"/>
<path d="M213.896 302.208H218.648V304.112H213.896V302.208ZM221.72 298.672H223.72V310.208C223.72 310.656 223.757 310.944 223.832 311.072C223.907 311.189 224.093 311.248 224.392 311.248C224.456 311.248 224.563 311.248 224.712 311.248C224.861 311.248 225.027 311.248 225.208 311.248C225.389 311.248 225.555 311.248 225.704 311.248C225.853 311.248 225.965 311.248 226.04 311.248C226.253 311.248 226.413 311.157 226.52 310.976C226.627 310.795 226.701 310.469 226.744 310C226.797 309.52 226.84 308.853 226.872 308C227.032 308.117 227.219 308.235 227.432 308.352C227.656 308.469 227.88 308.576 228.104 308.672C228.328 308.757 228.531 308.821 228.712 308.864C228.648 309.888 228.536 310.715 228.376 311.344C228.227 311.973 227.981 312.427 227.64 312.704C227.309 312.992 226.84 313.136 226.232 313.136C226.147 313.136 226.003 313.136 225.8 313.136C225.597 313.136 225.379 313.136 225.144 313.136C224.92 313.136 224.712 313.136 224.52 313.136C224.328 313.136 224.184 313.136 224.088 313.136C223.48 313.136 223 313.045 222.648 312.864C222.307 312.693 222.067 312.395 221.928 311.968C221.789 311.531 221.72 310.939 221.72 310.192V298.672ZM217.688 298.672H219.688V313.264H217.688V298.672ZM227 301.056L228.392 302.784C227.837 303.157 227.251 303.531 226.632 303.904C226.013 304.267 225.384 304.624 224.744 304.976C224.115 305.317 223.496 305.637 222.888 305.936C222.824 305.723 222.712 305.472 222.552 305.184C222.392 304.885 222.248 304.635 222.12 304.432C222.696 304.123 223.277 303.776 223.864 303.392C224.451 303.008 225.011 302.613 225.544 302.208C226.088 301.803 226.573 301.419 227 301.056ZM213.32 309.456C213.757 309.328 214.264 309.173 214.84 308.992C215.416 308.8 216.024 308.592 216.664 308.368C217.304 308.133 217.939 307.904 218.568 307.68L218.936 309.408C218.136 309.771 217.315 310.128 216.472 310.48C215.64 310.832 214.877 311.152 214.184 311.44L213.32 309.456Z" fill="black"/>
<path d="M213.624 350.408H228.392V352.344H213.624V350.408ZM220.008 347.864H222.024V356.2C222.024 356.744 221.949 357.165 221.8 357.464C221.661 357.763 221.395 357.987 221 358.136C220.616 358.285 220.147 358.381 219.592 358.424C219.037 358.467 218.392 358.483 217.656 358.472C217.624 358.28 217.56 358.061 217.464 357.816C217.368 357.581 217.267 357.341 217.16 357.096C217.053 356.861 216.947 356.659 216.84 356.488C217.213 356.499 217.581 356.509 217.944 356.52C218.317 356.531 218.648 356.536 218.936 356.536C219.235 356.536 219.443 356.536 219.56 356.536C219.731 356.536 219.848 356.509 219.912 356.456C219.976 356.403 220.008 356.307 220.008 356.168V347.864ZM215.304 344.392H225.384V346.28H215.304V344.392ZM224.744 344.392H225.256L225.704 344.28L227.16 345.384C226.669 345.907 226.104 346.429 225.464 346.952C224.835 347.475 224.179 347.976 223.496 348.456C222.813 348.925 222.147 349.331 221.496 349.672C221.4 349.533 221.277 349.379 221.128 349.208C220.979 349.037 220.824 348.872 220.664 348.712C220.504 348.541 220.36 348.397 220.232 348.28C220.808 347.992 221.389 347.645 221.976 347.24C222.573 346.835 223.117 346.419 223.608 345.992C224.099 345.565 224.477 345.176 224.744 344.824V344.392Z" fill="black"/>
<path d="M194.152 385.624H196.248C196.237 386.893 196.211 388.131 196.168 389.336C196.125 390.531 196.019 391.672 195.848 392.76C195.677 393.837 195.4 394.851 195.016 395.8C194.632 396.739 194.093 397.603 193.4 398.392C192.717 399.171 191.832 399.853 190.744 400.44C190.659 400.28 190.536 400.099 190.376 399.896C190.216 399.704 190.045 399.512 189.864 399.32C189.693 399.139 189.523 398.995 189.352 398.888C190.365 398.365 191.176 397.763 191.784 397.08C192.403 396.397 192.877 395.645 193.208 394.824C193.539 393.992 193.768 393.091 193.896 392.12C194.024 391.149 194.093 390.12 194.104 389.032C194.125 387.944 194.141 386.808 194.152 385.624ZM190.168 389.336H200.008V391.272H190.168V389.336ZM198.952 389.336H200.952V397.56C200.952 397.901 200.979 398.12 201.032 398.216C201.085 398.301 201.208 398.344 201.4 398.344C201.443 398.344 201.512 398.344 201.608 398.344C201.704 398.344 201.811 398.344 201.928 398.344C202.045 398.344 202.152 398.344 202.248 398.344C202.355 398.344 202.429 398.344 202.472 398.344C202.611 398.344 202.712 398.28 202.776 398.152C202.84 398.024 202.888 397.784 202.92 397.432C202.952 397.08 202.979 396.568 203 395.896C203.16 396.013 203.341 396.125 203.544 396.232C203.757 396.339 203.976 396.44 204.2 396.536C204.424 396.621 204.627 396.685 204.808 396.728C204.755 397.592 204.653 398.28 204.504 398.792C204.355 399.293 204.136 399.651 203.848 399.864C203.56 400.088 203.171 400.2 202.68 400.2C202.595 400.2 202.477 400.2 202.328 400.2C202.179 400.2 202.019 400.2 201.848 400.2C201.677 400.2 201.517 400.2 201.368 400.2C201.229 400.2 201.123 400.2 201.048 400.2C200.525 400.2 200.109 400.12 199.8 399.96C199.501 399.811 199.283 399.544 199.144 399.16C199.016 398.776 198.952 398.237 198.952 397.544V389.336ZM211.976 395.96H213.96V400.44H211.976V395.96ZM205.72 395.288C206.499 395.288 207.384 395.288 208.376 395.288C209.368 395.277 210.424 395.267 211.544 395.256C212.664 395.235 213.816 395.219 215 395.208C216.184 395.187 217.357 395.171 218.52 395.16L218.424 396.68C217.283 396.723 216.131 396.76 214.968 396.792C213.816 396.824 212.685 396.856 211.576 396.888C210.477 396.909 209.432 396.936 208.44 396.968C207.459 396.989 206.573 397.005 205.784 397.016L205.72 395.288ZM211.608 390.904L213.384 391.608C212.893 392.067 212.371 392.509 211.816 392.936C211.272 393.352 210.765 393.704 210.296 393.992L208.824 393.304C209.133 393.091 209.459 392.851 209.8 392.584C210.152 392.307 210.483 392.024 210.792 391.736C211.101 391.437 211.373 391.16 211.608 390.904ZM215.016 391.88L216.904 392.648C216.275 393.139 215.592 393.619 214.856 394.088C214.131 394.557 213.405 395 212.68 395.416C211.955 395.832 211.272 396.195 210.632 396.504L209.176 395.72C209.827 395.4 210.509 395.021 211.224 394.584C211.949 394.147 212.643 393.693 213.304 393.224C213.965 392.744 214.536 392.296 215.016 391.88ZM207.32 393.416L208.696 392.296C209.133 392.477 209.587 392.685 210.056 392.92C210.536 393.144 210.995 393.373 211.432 393.608C211.869 393.832 212.248 394.04 212.568 394.232L211.176 395.496C210.877 395.293 210.504 395.069 210.056 394.824C209.619 394.568 209.16 394.317 208.68 394.072C208.211 393.827 207.757 393.608 207.32 393.416ZM214.92 398.088L216.584 397.208C217 397.411 217.432 397.645 217.88 397.912C218.328 398.168 218.76 398.429 219.176 398.696C219.603 398.952 219.965 399.181 220.264 399.384L218.552 400.392C218.275 400.168 217.928 399.917 217.512 399.64C217.096 399.373 216.659 399.101 216.2 398.824C215.752 398.536 215.325 398.291 214.92 398.088ZM209.08 397.24L210.904 397.944C210.584 398.253 210.205 398.563 209.768 398.872C209.341 399.181 208.899 399.469 208.44 399.736C207.992 400.003 207.56 400.237 207.144 400.44C207.027 400.323 206.872 400.179 206.68 400.008C206.499 399.848 206.307 399.688 206.104 399.528C205.912 399.379 205.741 399.256 205.592 399.16C206.232 398.925 206.872 398.637 207.512 398.296C208.152 397.955 208.675 397.603 209.08 397.24ZM215.48 394.312L217.128 393.592C217.523 393.901 217.933 394.248 218.36 394.632C218.797 395.016 219.208 395.4 219.592 395.784C219.976 396.168 220.291 396.52 220.536 396.84L218.744 397.64C218.531 397.331 218.243 396.984 217.88 396.6C217.528 396.205 217.139 395.811 216.712 395.416C216.285 395.011 215.875 394.643 215.48 394.312ZM209.912 386.808H212.92V388.328H209.912V386.808ZM213.496 385.4H215.4V389.48C215.4 389.736 215.443 389.901 215.528 389.976C215.624 390.04 215.832 390.072 216.152 390.072C216.227 390.072 216.349 390.072 216.52 390.072C216.691 390.072 216.877 390.072 217.08 390.072C217.283 390.072 217.475 390.072 217.656 390.072C217.837 390.072 217.971 390.072 218.056 390.072C218.237 390.072 218.371 390.045 218.456 389.992C218.552 389.928 218.621 389.811 218.664 389.64C218.707 389.459 218.739 389.197 218.76 388.856C218.952 388.984 219.213 389.112 219.544 389.24C219.875 389.357 220.173 389.443 220.44 389.496C220.365 390.083 220.248 390.541 220.088 390.872C219.928 391.192 219.704 391.416 219.416 391.544C219.128 391.672 218.739 391.736 218.248 391.736C218.163 391.736 218.04 391.736 217.88 391.736C217.731 391.736 217.56 391.736 217.368 391.736C217.176 391.736 216.979 391.736 216.776 391.736C216.584 391.736 216.408 391.736 216.248 391.736C216.099 391.736 215.987 391.736 215.912 391.736C215.261 391.736 214.76 391.667 214.408 391.528C214.067 391.389 213.827 391.16 213.688 390.84C213.56 390.509 213.496 390.061 213.496 389.496V385.4ZM205.528 390.296C206.147 390.243 206.861 390.173 207.672 390.088C208.493 389.992 209.357 389.891 210.264 389.784C211.181 389.677 212.093 389.571 213 389.464L213.048 390.968C212.184 391.096 211.309 391.224 210.424 391.352C209.539 391.469 208.691 391.587 207.88 391.704C207.08 391.811 206.349 391.912 205.688 392.008L205.528 390.296ZM218.568 386.168L219.992 387.512C219.48 387.736 218.925 387.944 218.328 388.136C217.741 388.317 217.139 388.488 216.52 388.648C215.901 388.797 215.304 388.931 214.728 389.048C214.696 388.856 214.621 388.627 214.504 388.36C214.397 388.083 214.291 387.853 214.184 387.672C214.707 387.533 215.24 387.384 215.784 387.224C216.328 387.064 216.84 386.893 217.32 386.712C217.8 386.531 218.216 386.349 218.568 386.168ZM209.128 385.4H210.904V390.84L209.128 390.968V385.4ZM206.52 386.584H208.168V390.984L206.52 391.128V386.584ZM228.936 387.24C228.499 387.848 227.944 388.477 227.272 389.128C226.611 389.779 225.875 390.403 225.064 391C224.264 391.597 223.427 392.131 222.552 392.6C222.467 392.44 222.355 392.264 222.216 392.072C222.088 391.88 221.944 391.693 221.784 391.512C221.635 391.331 221.491 391.171 221.352 391.032C222.269 390.595 223.149 390.056 223.992 389.416C224.835 388.765 225.587 388.088 226.248 387.384C226.92 386.68 227.453 386.003 227.848 385.352H229.848C230.285 385.96 230.765 386.541 231.288 387.096C231.811 387.651 232.371 388.163 232.968 388.632C233.565 389.101 234.179 389.523 234.808 389.896C235.437 390.269 236.072 390.584 236.712 390.84C236.467 391.085 236.237 391.363 236.024 391.672C235.811 391.981 235.613 392.28 235.432 392.568C234.824 392.248 234.205 391.88 233.576 391.464C232.957 391.048 232.36 390.605 231.784 390.136C231.208 389.656 230.675 389.171 230.184 388.68C229.693 388.189 229.277 387.709 228.936 387.24ZM224.936 390.2H232.984V391.88H224.936V390.2ZM223.016 393.464H234.872V395.128H223.016V393.464ZM222.216 398.328H235.816V399.976H222.216V398.328ZM227.896 390.872H229.928V399.16H227.896V390.872ZM224.024 395.736L225.56 395.096C225.763 395.363 225.96 395.656 226.152 395.976C226.355 396.296 226.536 396.611 226.696 396.92C226.856 397.229 226.973 397.507 227.048 397.752L225.4 398.488C225.336 398.243 225.229 397.96 225.08 397.64C224.931 397.309 224.765 396.979 224.584 396.648C224.403 396.317 224.216 396.013 224.024 395.736ZM232.152 395.112L233.992 395.784C233.672 396.275 233.341 396.765 233 397.256C232.659 397.736 232.344 398.147 232.056 398.488L230.616 397.88C230.797 397.624 230.984 397.341 231.176 397.032C231.368 396.712 231.549 396.387 231.72 396.056C231.891 395.715 232.035 395.4 232.152 395.112ZM239.928 395.784H250.36V397.288H239.928V395.784ZM240.344 393.208H251.08V394.808H240.344V393.208ZM237.944 398.376H252.104V400.024H237.944V398.376ZM244.072 392.232H246.056V399.512H244.072V392.232ZM241.384 389.624V390.488H248.488V389.624H241.384ZM241.384 387.432V388.264H248.488V387.432H241.384ZM239.496 385.976H250.472V391.944H239.496V385.976ZM240.328 391.784L242.2 392.328C241.965 392.851 241.683 393.363 241.352 393.864C241.021 394.365 240.669 394.835 240.296 395.272C239.923 395.709 239.555 396.088 239.192 396.408C239.064 396.291 238.904 396.157 238.712 396.008C238.52 395.859 238.323 395.715 238.12 395.576C237.917 395.427 237.736 395.309 237.576 395.224C238.131 394.808 238.653 394.296 239.144 393.688C239.645 393.069 240.04 392.435 240.328 391.784Z" fill="black"/>
<path d="M191.872 35.52H198.48V37.568H191.872V35.52ZM196.896 35.52H199.2C199.307 36.768 199.445 37.9947 199.616 39.2C199.797 40.4053 200.048 41.552 200.368 42.64C200.699 43.7173 201.115 44.6987 201.616 45.584C202.128 46.4587 202.763 47.2 203.52 47.808C203.339 47.9147 203.131 48.0587 202.896 48.24C202.661 48.432 202.432 48.6293 202.208 48.832C201.995 49.0347 201.808 49.216 201.648 49.376C200.88 48.672 200.235 47.8453 199.712 46.896C199.189 45.936 198.763 44.896 198.432 43.776C198.112 42.656 197.861 41.4827 197.68 40.256C197.499 39.0293 197.36 37.792 197.264 36.544H196.896V35.52ZM192.288 38.96L194.512 39.264C194.352 40.192 194.149 41.136 193.904 42.096C193.669 43.0453 193.376 43.9733 193.024 44.88C192.672 45.776 192.256 46.6187 191.776 47.408C191.296 48.1867 190.731 48.8693 190.08 49.456C189.963 49.3067 189.803 49.1413 189.6 48.96C189.408 48.7893 189.205 48.6187 188.992 48.448C188.789 48.288 188.608 48.1547 188.448 48.048C189.056 47.536 189.579 46.928 190.016 46.224C190.453 45.5093 190.821 44.7467 191.12 43.936C191.419 43.1147 191.659 42.2827 191.84 41.44C192.032 40.5867 192.181 39.76 192.288 38.96ZM206.992 46.432H216.928V48.368H206.992V46.432ZM206.96 41.536H216.928V43.44H206.96V41.536ZM205.968 36.736H218.08V49.392H216.032V38.688H207.904V49.408H205.968V36.736ZM210.656 34.336L213.168 34.672C212.923 35.2693 212.661 35.8507 212.384 36.416C212.107 36.9813 211.856 37.4667 211.632 37.872L209.728 37.488C209.845 37.1787 209.963 36.8427 210.08 36.48C210.208 36.1173 210.32 35.7493 210.416 35.376C210.523 35.0027 210.603 34.656 210.656 34.336ZM221.792 39.376H234.24V41.264H221.792V39.376ZM220.736 46.864H235.312V48.752H220.736V46.864ZM226.944 34.432H229.008V48.16H226.944V34.432ZM238.928 44.784H249.36V46.288H238.928V44.784ZM239.344 42.208H250.08V43.808H239.344V42.208ZM236.944 47.376H251.104V49.024H236.944V47.376ZM243.072 41.232H245.056V48.512H243.072V41.232ZM240.384 38.624V39.488H247.488V38.624H240.384ZM240.384 36.432V37.264H247.488V36.432H240.384ZM238.496 34.976H249.472V40.944H238.496V34.976ZM239.328 40.784L241.2 41.328C240.965 41.8507 240.683 42.3627 240.352 42.864C240.021 43.3653 239.669 43.8347 239.296 44.272C238.923 44.7093 238.555 45.088 238.192 45.408C238.064 45.2907 237.904 45.1573 237.712 45.008C237.52 44.8587 237.323 44.7147 237.12 44.576C236.917 44.4267 236.736 44.3093 236.576 44.224C237.131 43.808 237.653 43.296 238.144 42.688C238.645 42.0693 239.04 41.4347 239.328 40.784Z" fill="black"/>
<path d="M204.58 199.76H221.5V216.06H218.96V202.08H207V216.22H204.58V199.76ZM205.86 212.6H220.28V214.9H205.86V212.6ZM213.68 201.44H216.02V207C216.02 207.307 216.04 207.487 216.08 207.54C216.147 207.607 216.253 207.64 216.4 207.64C216.467 207.64 216.553 207.64 216.66 207.64C216.767 207.64 216.853 207.64 216.92 207.64C216.987 207.64 217.053 207.633 217.12 207.62C217.2 207.607 217.26 207.587 217.3 207.56C217.34 207.533 217.38 207.493 217.42 207.44C217.473 207.373 217.507 207.273 217.52 207.14C217.547 207.007 217.56 206.8 217.56 206.52C217.573 206.227 217.587 205.893 217.6 205.52C217.813 205.707 218.093 205.893 218.44 206.08C218.8 206.267 219.133 206.407 219.44 206.5C219.413 206.9 219.373 207.3 219.32 207.7C219.28 208.087 219.22 208.373 219.14 208.56C219.047 208.76 218.933 208.927 218.8 209.06C218.68 209.18 218.52 209.287 218.32 209.38C218.16 209.46 217.96 209.52 217.72 209.56C217.493 209.587 217.28 209.6 217.08 209.6C216.96 209.6 216.82 209.6 216.66 209.6C216.5 209.6 216.34 209.6 216.18 209.6C216.033 209.6 215.9 209.6 215.78 209.6C215.513 209.6 215.24 209.56 214.96 209.48C214.68 209.4 214.44 209.273 214.24 209.1C214.053 208.927 213.913 208.693 213.82 208.4C213.727 208.107 213.68 207.62 213.68 206.94V201.44ZM209.64 201.4H211.98C211.94 202.773 211.827 204.047 211.64 205.22C211.453 206.393 211.12 207.447 210.64 208.38C210.16 209.313 209.433 210.113 208.46 210.78C208.327 210.5 208.113 210.187 207.82 209.84C207.527 209.48 207.247 209.193 206.98 208.98C207.767 208.46 208.34 207.827 208.7 207.08C209.06 206.32 209.3 205.467 209.42 204.52C209.54 203.56 209.613 202.52 209.64 201.4ZM240.5 207.06L242.32 208.26C241.92 208.727 241.507 209.2 241.08 209.68C240.667 210.16 240.293 210.567 239.96 210.9L238.5 209.86C238.713 209.607 238.94 209.32 239.18 209C239.433 208.68 239.673 208.353 239.9 208.02C240.14 207.673 240.34 207.353 240.5 207.06ZM231.56 208.3L233.2 207.22C233.56 207.607 233.927 208.047 234.3 208.54C234.673 209.02 234.947 209.453 235.12 209.84L233.38 211.04C233.22 210.653 232.96 210.207 232.6 209.7C232.253 209.18 231.907 208.713 231.56 208.3ZM232.12 198.74H240.56V205.5H238.22V200.68H232.12V198.74ZM232.6 201.68H239.52V203.54H232.6V201.68ZM231.18 204.6H242.22V206.6H231.18V204.6ZM235.56 205.5H237.78V214.5C237.78 215.007 237.727 215.407 237.62 215.7C237.513 216.007 237.293 216.24 236.96 216.4C236.653 216.573 236.273 216.68 235.82 216.72C235.38 216.773 234.86 216.8 234.26 216.8C234.233 216.493 234.16 216.14 234.04 215.74C233.92 215.353 233.793 215.013 233.66 214.72C233.993 214.733 234.313 214.747 234.62 214.76C234.94 214.76 235.153 214.753 235.26 214.74C235.46 214.74 235.56 214.647 235.56 214.46V205.5ZM230.4 213.62C230.933 213.327 231.58 212.947 232.34 212.48C233.1 212 233.873 211.507 234.66 211L235.4 212.8C234.76 213.293 234.1 213.787 233.42 214.28C232.753 214.76 232.127 215.213 231.54 215.64L230.4 213.62ZM237.7 206.6C237.82 207.253 238 207.933 238.24 208.64C238.48 209.333 238.787 210.02 239.16 210.7C239.533 211.367 239.993 211.98 240.54 212.54C241.1 213.087 241.76 213.54 242.52 213.9C242.373 214.033 242.207 214.213 242.02 214.44C241.833 214.667 241.653 214.9 241.48 215.14C241.307 215.393 241.167 215.62 241.06 215.82C240.34 215.38 239.713 214.84 239.18 214.2C238.66 213.56 238.213 212.873 237.84 212.14C237.467 211.393 237.16 210.653 236.92 209.92C236.693 209.187 236.513 208.507 236.38 207.88L237.7 206.6ZM226.58 198.02L228.66 198.76C228.393 199.28 228.113 199.813 227.82 200.36C227.527 200.893 227.24 201.413 226.96 201.92C226.68 202.413 226.413 202.847 226.16 203.22L224.56 202.56C224.8 202.147 225.047 201.68 225.3 201.16C225.553 200.64 225.793 200.1 226.02 199.54C226.26 198.98 226.447 198.473 226.58 198.02ZM228.84 200.4L230.8 201.28C230.307 202.027 229.773 202.813 229.2 203.64C228.627 204.467 228.053 205.26 227.48 206.02C226.907 206.78 226.36 207.447 225.84 208.02L224.46 207.26C224.833 206.807 225.22 206.3 225.62 205.74C226.033 205.167 226.433 204.573 226.82 203.96C227.22 203.333 227.593 202.713 227.94 202.1C228.287 201.487 228.587 200.92 228.84 200.4ZM223.5 202.7L224.68 201.08C225.013 201.4 225.36 201.747 225.72 202.12C226.08 202.493 226.413 202.867 226.72 203.24C227.027 203.613 227.253 203.96 227.4 204.28L226.12 206.1C225.973 205.78 225.753 205.42 225.46 205.02C225.18 204.62 224.867 204.22 224.52 203.82C224.173 203.407 223.833 203.033 223.5 202.7ZM228.16 205.18L229.84 204.5C230.107 204.94 230.36 205.42 230.6 205.94C230.84 206.46 231.053 206.967 231.24 207.46C231.427 207.94 231.56 208.373 231.64 208.76L229.82 209.56C229.767 209.173 229.653 208.727 229.48 208.22C229.307 207.713 229.107 207.2 228.88 206.68C228.653 206.147 228.413 205.647 228.16 205.18ZM223.44 206.78C224.333 206.74 225.387 206.687 226.6 206.62C227.813 206.54 229.047 206.46 230.3 206.38L230.34 208.34C229.167 208.433 227.993 208.527 226.82 208.62C225.66 208.7 224.613 208.78 223.68 208.86L223.44 206.78ZM228.72 210.2L230.38 209.7C230.62 210.247 230.833 210.853 231.02 211.52C231.22 212.187 231.347 212.753 231.4 213.22L229.62 213.8C229.58 213.32 229.473 212.747 229.3 212.08C229.14 211.4 228.947 210.773 228.72 210.2ZM224.3 209.76L226.22 210.1C226.113 211.06 225.953 212.007 225.74 212.94C225.54 213.86 225.3 214.64 225.02 215.28C224.887 215.187 224.713 215.087 224.5 214.98C224.287 214.873 224.067 214.773 223.84 214.68C223.613 214.573 223.42 214.493 223.26 214.44C223.553 213.84 223.78 213.12 223.94 212.28C224.1 211.44 224.22 210.6 224.3 209.76ZM226.48 207.86H228.56V216.8H226.48V207.86ZM204.22 226.68H221.82V229.06H204.22V226.68ZM211.72 222.02H214.28V240.8H211.72V222.02ZM211.2 227.98L213.32 228.7C212.867 229.753 212.347 230.773 211.76 231.76C211.173 232.747 210.527 233.68 209.82 234.56C209.127 235.44 208.38 236.253 207.58 237C206.793 237.733 205.967 238.367 205.1 238.9C204.967 238.7 204.793 238.473 204.58 238.22C204.367 237.967 204.147 237.72 203.92 237.48C203.693 237.227 203.487 237.02 203.3 236.86C204.127 236.407 204.927 235.86 205.7 235.22C206.487 234.567 207.227 233.853 207.92 233.08C208.613 232.293 209.233 231.467 209.78 230.6C210.34 229.733 210.813 228.86 211.2 227.98ZM214.74 228.08C215.127 228.933 215.607 229.78 216.18 230.62C216.753 231.46 217.387 232.26 218.08 233.02C218.787 233.78 219.527 234.48 220.3 235.12C221.073 235.76 221.867 236.3 222.68 236.74C222.493 236.887 222.28 237.087 222.04 237.34C221.813 237.58 221.593 237.833 221.38 238.1C221.18 238.367 221.013 238.607 220.88 238.82C220.04 238.287 219.233 237.66 218.46 236.94C217.687 236.207 216.947 235.407 216.24 234.54C215.533 233.66 214.887 232.733 214.3 231.76C213.713 230.787 213.187 229.793 212.72 228.78L214.74 228.08ZM226.66 234.98H239.7V236.86H226.66V234.98ZM227.18 231.76H240.6V233.76H227.18V231.76ZM224.18 238.22H241.88V240.28H224.18V238.22ZM231.84 230.54H234.32V239.64H231.84V230.54ZM228.48 227.28V228.36H237.36V227.28H228.48ZM228.48 224.54V225.58H237.36V224.54H228.48ZM226.12 222.72H239.84V230.18H226.12V222.72ZM227.16 229.98L229.5 230.66C229.207 231.313 228.853 231.953 228.44 232.58C228.027 233.207 227.587 233.793 227.12 234.34C226.653 234.887 226.193 235.36 225.74 235.76C225.58 235.613 225.38 235.447 225.14 235.26C224.9 235.073 224.653 234.893 224.4 234.72C224.147 234.533 223.92 234.387 223.72 234.28C224.413 233.76 225.067 233.12 225.68 232.36C226.307 231.587 226.8 230.793 227.16 229.98Z" fill="white"/>
<defs>
<linearGradient id="paint0_linear_56_218" x1="220.75" y1="26" x2="220.75" y2="412.5" gradientUnits="userSpaceOnUse">
<stop stop-color="#FFFBA7"/>
<stop offset="1" stop-color="#FDFAEC"/>
</linearGradient>
<linearGradient id="paint1_linear_56_218" x1="221" y1="64" x2="221" y2="374" gradientUnits="userSpaceOnUse">
<stop stop-color="#FFFDDC"/>
<stop offset="1" stop-color="#E3F8FF"/>
</linearGradient>
<linearGradient id="paint2_linear_56_218" x1="221" y1="109" x2="221" y2="329" gradientUnits="userSpaceOnUse">
<stop stop-color="#C8EEFF"/>
<stop offset="1" stop-color="#E1F3FF"/>
</linearGradient>
<linearGradient id="paint3_linear_56_218" x1="221" y1="154" x2="221" y2="284" gradientUnits="userSpaceOnUse">
<stop stop-color="#58C7FF"/>
<stop offset="1" stop-color="#9FE0FF"/>
</linearGradient>
</defs>
</svg>
