<svg width="442" height="452" viewBox="0 0 442 452" fill="none" xmlns="http://www.w3.org/2000/svg">
<rect width="442" height="452" fill="white"/>
<path d="M272.5 26H169L27.5 166.5V270.5L169 412.5H272.5L414 270.5V166.5L272.5 26Z" fill="url(#paint0_linear_56_181)" stroke="#FFFDE8"/>
<path d="M262.507 64H179.493L66 176.691V260.106L179.493 374H262.507L376 260.106V176.691L262.507 64Z" fill="url(#paint1_linear_56_181)" stroke="#FEFFEA"/>
<path d="M250.457 109H191.543L111 188.974V248.172L191.543 329H250.457L331 248.172V188.974L250.457 109Z" fill="url(#paint2_linear_56_181)" stroke="#DDF4FF"/>
<path d="M414.37 270.528L28 167" stroke="#888686"/>
<path d="M272.528 26L186.777 346.024L169 412.37" stroke="#888686" stroke-opacity="0.82"/>
<path d="M169 26L272.528 412.37" stroke="#888686"/>
<path d="M414.37 167L28 270.528" stroke="#888886"/>
<path d="M238.406 154H203.594L156 201.257V236.238L203.594 284H238.406L286 236.238V201.257L238.406 154Z" fill="url(#paint3_linear_56_181)" stroke="#B9E7FD"/>
<path d="M126.928 212.728H141.136V214.52H126.928V212.728ZM132.96 211.416H134.96V226.44H132.96V211.416ZM132.464 220.552L134.096 221.224C133.723 221.757 133.296 222.269 132.816 222.76C132.347 223.251 131.835 223.715 131.28 224.152C130.736 224.579 130.165 224.968 129.568 225.32C128.981 225.683 128.389 225.992 127.792 226.248C127.685 226.088 127.557 225.907 127.408 225.704C127.259 225.501 127.099 225.304 126.928 225.112C126.757 224.92 126.603 224.76 126.464 224.632C127.051 224.429 127.632 224.184 128.208 223.896C128.784 223.597 129.339 223.272 129.872 222.92C130.405 222.557 130.891 222.179 131.328 221.784C131.776 221.379 132.155 220.968 132.464 220.552ZM135.504 220.616C135.824 221.021 136.208 221.421 136.656 221.816C137.115 222.2 137.611 222.573 138.144 222.936C138.688 223.288 139.253 223.608 139.84 223.896C140.427 224.173 141.013 224.413 141.6 224.616C141.451 224.744 141.285 224.904 141.104 225.096C140.933 225.299 140.768 225.501 140.608 225.704C140.459 225.917 140.331 226.109 140.224 226.28C139.627 226.035 139.035 225.731 138.448 225.368C137.861 225.016 137.291 224.627 136.736 224.2C136.192 223.763 135.68 223.299 135.2 222.808C134.731 222.317 134.309 221.811 133.936 221.288L135.504 220.616ZM130.144 219.176V220.152H137.904V219.176H130.144ZM130.144 216.872V217.832H137.904V216.872H130.144ZM128.272 215.432H139.872V221.592H128.272V215.432Z" fill="black"/>
<path d="M82.744 213.856L84.552 214.432V222.752H82.744V213.856ZM93.896 213.952H95.752V222.624C95.752 223.051 95.704 223.413 95.608 223.712C95.512 224 95.3253 224.224 95.048 224.384C94.7707 224.544 94.44 224.645 94.056 224.688C93.6827 224.731 93.2453 224.752 92.744 224.752C92.7227 224.571 92.6747 224.363 92.6 224.128C92.5253 223.893 92.44 223.659 92.344 223.424C92.2587 223.189 92.168 222.987 92.072 222.816C92.4027 222.827 92.7173 222.837 93.016 222.848C93.3147 222.848 93.5173 222.848 93.624 222.848C93.7307 222.848 93.8 222.827 93.832 222.784C93.8747 222.741 93.896 222.672 93.896 222.576V213.952ZM81.496 222.432C82.1787 222.293 83 222.112 83.96 221.888C84.92 221.653 85.896 221.419 86.888 221.184L87.096 222.8C86.2107 223.045 85.3147 223.285 84.408 223.52C83.5013 223.755 82.6747 223.973 81.928 224.176L81.496 222.432ZM86.648 215.76H88.44V220.048C88.44 220.763 88.3813 221.472 88.264 222.176C88.1573 222.869 87.944 223.541 87.624 224.192C87.304 224.843 86.8293 225.445 86.2 226C85.5707 226.555 84.7333 227.04 83.688 227.456C83.6133 227.317 83.5067 227.152 83.368 226.96C83.24 226.779 83.096 226.603 82.936 226.432C82.7867 226.261 82.648 226.123 82.52 226.016C83.4373 225.653 84.168 225.248 84.712 224.8C85.2667 224.341 85.6827 223.856 85.96 223.344C86.2373 222.821 86.4187 222.283 86.504 221.728C86.6 221.163 86.648 220.592 86.648 220.016V215.76ZM89.704 213.952H94.872V215.696H91.512V227.44H89.704V213.952ZM87.256 212.432L88.968 213.648C88.4667 213.936 87.9387 214.224 87.384 214.512C86.8293 214.789 86.28 215.051 85.736 215.296C85.2027 215.541 84.696 215.749 84.216 215.92L82.984 214.864C83.432 214.661 83.9173 214.427 84.44 214.16C84.9627 213.883 85.4693 213.595 85.96 213.296C86.4613 212.987 86.8933 212.699 87.256 212.432Z" fill="black"/>
<path d="M37.904 183.936H50.112V185.904H37.904V183.936ZM39.008 189.088H48.832V191.04H39.008V189.088ZM37.008 194.512H50.96V196.464H37.008V194.512ZM37.072 202.056H43.28V203.496H37.072V202.056ZM36.816 209.416H51.168V210.92H36.816V209.416ZM37.248 204.552H42.992V205.976H37.248V204.552ZM40.752 214.504H48.544V215.944H40.752V214.504ZM36.752 207.336C37.328 207.304 37.9787 207.267 38.704 207.224C39.44 207.181 40.2133 207.139 41.024 207.096C41.8347 207.043 42.6453 206.989 43.456 206.936L43.44 208.392C42.2773 208.477 41.1147 208.563 39.952 208.648C38.7893 208.723 37.7653 208.792 36.88 208.856L36.752 207.336ZM39.296 202.616H41.104V207.608L39.296 207.832V202.616ZM46.544 201.4L48.656 201.576C48.5067 201.949 48.3573 202.301 48.208 202.632C48.0587 202.963 47.92 203.251 47.792 203.496L46.128 203.24C46.2133 202.952 46.2933 202.643 46.368 202.312C46.4533 201.981 46.512 201.677 46.544 201.4ZM45.744 206.2V207.224H48.864V206.2H45.744ZM45.744 203.848V204.856H48.864V203.848H45.744ZM43.984 202.408H50.688V208.664H43.984V202.408ZM41.248 209.704L42.976 210.28C42.56 210.963 42.0587 211.603 41.472 212.2C40.8853 212.797 40.2507 213.336 39.568 213.816C38.8853 214.296 38.192 214.707 37.488 215.048C37.4133 214.92 37.3067 214.76 37.168 214.568C37.0293 214.365 36.8853 214.168 36.736 213.976C36.5867 213.784 36.448 213.629 36.32 213.512C36.9813 213.245 37.6267 212.92 38.256 212.536C38.8853 212.152 39.456 211.72 39.968 211.24C40.4907 210.76 40.9173 210.248 41.248 209.704ZM39.472 211.912H49.92V216.36H47.856V213.352H41.456V216.44H39.472V211.912ZM36.976 224.144H51.056V226.048H36.976V224.144ZM42.976 220.416H45.024V235.44H42.976V220.416ZM42.56 225.184L44.256 225.76C43.8933 226.603 43.4773 227.419 43.008 228.208C42.5387 228.997 42.0213 229.744 41.456 230.448C40.9013 231.152 40.304 231.803 39.664 232.4C39.0347 232.987 38.3733 233.493 37.68 233.92C37.5733 233.76 37.4347 233.579 37.264 233.376C37.0933 233.173 36.9173 232.976 36.736 232.784C36.5547 232.581 36.3893 232.416 36.24 232.288C36.9013 231.925 37.5413 231.488 38.16 230.976C38.7893 230.453 39.3813 229.883 39.936 229.264C40.4907 228.635 40.9867 227.973 41.424 227.28C41.872 226.587 42.2507 225.888 42.56 225.184ZM45.392 225.264C45.7013 225.947 46.0853 226.624 46.544 227.296C47.0027 227.968 47.5093 228.608 48.064 229.216C48.6293 229.824 49.2213 230.384 49.84 230.896C50.4587 231.408 51.0933 231.84 51.744 232.192C51.5947 232.309 51.424 232.469 51.232 232.672C51.0507 232.864 50.8747 233.067 50.704 233.28C50.544 233.493 50.4107 233.685 50.304 233.856C49.632 233.429 48.9867 232.928 48.368 232.352C47.7493 231.765 47.1573 231.125 46.592 230.432C46.0267 229.728 45.5093 228.987 45.04 228.208C44.5707 227.429 44.1493 226.635 43.776 225.824L45.392 225.264ZM38.928 249.784H49.36V251.288H38.928V249.784ZM39.344 247.208H50.08V248.808H39.344V247.208ZM36.944 252.376H51.104V254.024H36.944V252.376ZM43.072 246.232H45.056V253.512H43.072V246.232ZM40.384 243.624V244.488H47.488V243.624H40.384ZM40.384 241.432V242.264H47.488V241.432H40.384ZM38.496 239.976H49.472V245.944H38.496V239.976ZM39.328 245.784L41.2 246.328C40.9653 246.851 40.6827 247.363 40.352 247.864C40.0213 248.365 39.6693 248.835 39.296 249.272C38.9227 249.709 38.5547 250.088 38.192 250.408C38.064 250.291 37.904 250.157 37.712 250.008C37.52 249.859 37.3227 249.715 37.12 249.576C36.9173 249.427 36.736 249.309 36.576 249.224C37.1307 248.808 37.6533 248.296 38.144 247.688C38.6453 247.069 39.04 246.435 39.328 245.784Z" fill="black"/>
<path d="M390.656 188.528L405.168 186.32L405.488 188.304L390.976 190.464L390.656 188.528ZM395.184 182.736H397.28V193.776C397.28 194.128 397.307 194.395 397.36 194.576C397.424 194.747 397.541 194.864 397.712 194.928C397.883 194.981 398.144 195.008 398.496 195.008C398.603 195.008 398.763 195.008 398.976 195.008C399.189 195.008 399.429 195.008 399.696 195.008C399.963 195.008 400.229 195.008 400.496 195.008C400.763 195.008 401.003 195.008 401.216 195.008C401.44 195.008 401.605 195.008 401.712 195.008C402.075 195.008 402.347 194.923 402.528 194.752C402.709 194.571 402.843 194.245 402.928 193.776C403.013 193.296 403.088 192.597 403.152 191.68C403.312 191.808 403.509 191.936 403.744 192.064C403.989 192.181 404.229 192.288 404.464 192.384C404.709 192.48 404.923 192.549 405.104 192.592C405.019 193.659 404.875 194.512 404.672 195.152C404.469 195.781 404.149 196.235 403.712 196.512C403.275 196.789 402.656 196.928 401.856 196.928C401.749 196.928 401.573 196.928 401.328 196.928C401.093 196.928 400.827 196.928 400.528 196.928C400.24 196.928 399.947 196.928 399.648 196.928C399.349 196.928 399.083 196.928 398.848 196.928C398.613 196.928 398.443 196.928 398.336 196.928C397.525 196.928 396.891 196.832 396.432 196.64C395.973 196.459 395.648 196.139 395.456 195.68C395.275 195.221 395.184 194.576 395.184 193.744V182.736ZM401.536 209.816L403.232 209.064C403.541 209.469 403.856 209.917 404.176 210.408C404.496 210.899 404.789 211.379 405.056 211.848C405.323 212.317 405.531 212.744 405.68 213.128L403.84 213.992C403.701 213.619 403.509 213.192 403.264 212.712C403.019 212.232 402.741 211.736 402.432 211.224C402.133 210.712 401.835 210.243 401.536 209.816ZM396.976 201.432H398.944V207.224H396.976V201.432ZM390.832 206.552H405.264V208.392H390.832V206.552ZM392.432 203.08H403.904V204.904H392.432V203.08ZM398.928 207.64H400.944V214.28C400.944 214.76 400.891 215.139 400.784 215.416C400.677 215.704 400.464 215.923 400.144 216.072C399.835 216.221 399.461 216.317 399.024 216.36C398.597 216.403 398.091 216.424 397.504 216.424C397.472 216.136 397.392 215.805 397.264 215.432C397.136 215.069 397.008 214.755 396.88 214.488C397.232 214.499 397.584 214.509 397.936 214.52C398.288 214.52 398.517 214.515 398.624 214.504C398.741 214.504 398.821 214.488 398.864 214.456C398.907 214.413 398.928 214.344 398.928 214.248V207.64ZM392.608 209.192L394.56 209.688C394.357 210.189 394.112 210.701 393.824 211.224C393.536 211.736 393.227 212.227 392.896 212.696C392.565 213.155 392.219 213.56 391.856 213.912C391.664 213.741 391.413 213.555 391.104 213.352C390.795 213.139 390.533 212.968 390.32 212.84C390.661 212.531 390.976 212.173 391.264 211.768C391.563 211.352 391.829 210.92 392.064 210.472C392.299 210.024 392.48 209.597 392.608 209.192ZM395.472 207.288H397.424V209.128C397.424 209.693 397.387 210.301 397.312 210.952C397.237 211.592 397.083 212.243 396.848 212.904C396.613 213.555 396.261 214.195 395.792 214.824C395.333 215.443 394.715 216.013 393.936 216.536C393.84 216.387 393.707 216.221 393.536 216.04C393.365 215.859 393.184 215.683 392.992 215.512C392.811 215.341 392.64 215.203 392.48 215.096C393.152 214.659 393.685 214.184 394.08 213.672C394.485 213.16 394.784 212.637 394.976 212.104C395.179 211.571 395.312 211.048 395.376 210.536C395.44 210.013 395.472 209.528 395.472 209.08V207.288ZM397.936 222.24C397.499 222.848 396.944 223.477 396.272 224.128C395.611 224.779 394.875 225.403 394.064 226C393.264 226.597 392.427 227.131 391.552 227.6C391.467 227.44 391.355 227.264 391.216 227.072C391.088 226.88 390.944 226.693 390.784 226.512C390.635 226.331 390.491 226.171 390.352 226.032C391.269 225.595 392.149 225.056 392.992 224.416C393.835 223.765 394.587 223.088 395.248 222.384C395.92 221.68 396.453 221.003 396.848 220.352H398.848C399.285 220.96 399.765 221.541 400.288 222.096C400.811 222.651 401.371 223.163 401.968 223.632C402.565 224.101 403.179 224.523 403.808 224.896C404.437 225.269 405.072 225.584 405.712 225.84C405.467 226.085 405.237 226.363 405.024 226.672C404.811 226.981 404.613 227.28 404.432 227.568C403.824 227.248 403.205 226.88 402.576 226.464C401.957 226.048 401.36 225.605 400.784 225.136C400.208 224.656 399.675 224.171 399.184 223.68C398.693 223.189 398.277 222.709 397.936 222.24ZM393.936 225.2H401.984V226.88H393.936V225.2ZM392.016 228.464H403.872V230.128H392.016V228.464ZM391.216 233.328H404.816V234.976H391.216V233.328ZM396.896 225.872H398.928V234.16H396.896V225.872ZM393.024 230.736L394.56 230.096C394.763 230.363 394.96 230.656 395.152 230.976C395.355 231.296 395.536 231.611 395.696 231.92C395.856 232.229 395.973 232.507 396.048 232.752L394.4 233.488C394.336 233.243 394.229 232.96 394.08 232.64C393.931 232.309 393.765 231.979 393.584 231.648C393.403 231.317 393.216 231.013 393.024 230.736ZM401.152 230.112L402.992 230.784C402.672 231.275 402.341 231.765 402 232.256C401.659 232.736 401.344 233.147 401.056 233.488L399.616 232.88C399.797 232.624 399.984 232.341 400.176 232.032C400.368 231.712 400.549 231.387 400.72 231.056C400.891 230.715 401.035 230.4 401.152 230.112ZM392.928 249.784H403.36V251.288H392.928V249.784ZM393.344 247.208H404.08V248.808H393.344V247.208ZM390.944 252.376H405.104V254.024H390.944V252.376ZM397.072 246.232H399.056V253.512H397.072V246.232ZM394.384 243.624V244.488H401.488V243.624H394.384ZM394.384 241.432V242.264H401.488V241.432H394.384ZM392.496 239.976H403.472V245.944H392.496V239.976ZM393.328 245.784L395.2 246.328C394.965 246.851 394.683 247.363 394.352 247.864C394.021 248.365 393.669 248.835 393.296 249.272C392.923 249.709 392.555 250.088 392.192 250.408C392.064 250.291 391.904 250.157 391.712 250.008C391.52 249.859 391.323 249.715 391.12 249.576C390.917 249.427 390.736 249.309 390.576 249.224C391.131 248.808 391.653 248.296 392.144 247.688C392.645 247.069 393.04 246.435 393.328 245.784Z" fill="black"/>
<path d="M149.959 169.319L160.006 159.273L161.273 160.54L151.226 170.586L149.959 169.319ZM157.313 171.695L162.37 166.638L163.422 167.69L158.365 172.747L157.313 171.695ZM158.874 173.732L164.418 168.188L165.504 169.274L159.96 174.818L158.874 173.732ZM159.689 170.36L160.967 169.082L164.95 173.064L163.671 174.343L159.689 170.36ZM152.505 171.005L160.696 162.814L161.94 164.058L155.107 170.892L161.408 177.194L160.051 178.551L152.505 171.005ZM160.311 163.199L161.703 161.807L167.891 167.996C168.216 168.32 168.419 168.614 168.502 168.878C168.593 169.15 168.57 169.444 168.434 169.76C168.299 170.092 168.068 170.436 167.744 170.79C167.435 171.145 167.05 171.552 166.59 172.012C166.386 171.869 166.13 171.733 165.821 171.605C165.519 171.469 165.244 171.367 164.995 171.299C165.191 171.118 165.391 170.933 165.595 170.745C165.798 170.556 165.979 170.383 166.138 170.224C166.296 170.051 166.402 169.938 166.454 169.885C166.56 169.779 166.617 169.693 166.624 169.625C166.624 169.549 166.583 169.47 166.5 169.387L160.311 163.199ZM156.544 170.066L157.302 168.674C157.618 168.72 157.95 168.803 158.297 168.923C158.652 169.036 158.946 169.15 159.18 169.263L158.422 170.767C158.195 170.632 157.905 170.5 157.55 170.371C157.196 170.243 156.86 170.141 156.544 170.066ZM159.44 166.581L160.899 165.755C161.02 166.178 161.133 166.593 161.239 167C161.344 167.392 161.424 167.75 161.476 168.075L160.221 168.742C160.168 168.524 160.096 168.286 160.006 168.03C159.923 167.766 159.832 167.509 159.734 167.26C159.636 167.011 159.538 166.785 159.44 166.581ZM153.398 164.16L154.88 162.678L158.738 166.536L157.256 168.018L153.398 164.16ZM161.295 157.983L171.342 147.936L172.609 149.203L162.562 159.25L161.295 157.983ZM164.633 152.79L166.047 151.376L176.671 161.999L175.256 163.414L164.633 152.79ZM170.742 159.601L172.371 158.922C172.485 159.563 172.545 160.227 172.552 160.913C172.568 161.592 172.534 162.282 172.451 162.984C172.368 163.67 172.239 164.349 172.066 165.02C171.908 165.691 171.708 166.329 171.466 166.932C171.278 166.894 171.059 166.857 170.81 166.819C170.561 166.781 170.309 166.755 170.052 166.74C169.796 166.725 169.573 166.721 169.385 166.728C169.656 166.17 169.894 165.586 170.097 164.975C170.293 164.356 170.456 163.734 170.584 163.108C170.705 162.474 170.78 161.864 170.81 161.275C170.84 160.672 170.818 160.114 170.742 159.601ZM172.937 157.496C173.45 157.557 174.004 157.568 174.6 157.53C175.196 157.478 175.811 157.391 176.444 157.27C177.078 157.134 177.704 156.961 178.322 156.75C178.933 156.531 179.518 156.286 180.076 156.014C180.061 156.21 180.057 156.44 180.065 156.704C180.087 156.968 180.114 157.229 180.144 157.485C180.189 157.742 180.234 157.968 180.28 158.164C179.684 158.413 179.05 158.616 178.379 158.775C177.715 158.941 177.036 159.069 176.343 159.16C175.649 159.235 174.959 159.269 174.272 159.261C173.593 159.246 172.937 159.186 172.304 159.08L172.937 157.496ZM168.129 160.268L168.819 160.958L174.306 155.471L173.616 154.781L168.129 160.268ZM166.5 158.639L167.178 159.318L172.666 153.831L171.987 153.152L166.5 158.639ZM164.158 158.945L172.36 150.742L176.716 155.098L168.513 163.3L164.158 158.945Z" fill="black"/>
<path d="M113.785 145.701L122.248 137.238L123.56 138.551L115.098 147.013L113.785 145.701ZM117.847 149.876L126.626 141.096L127.86 142.329L119.08 151.109L117.847 149.876ZM117.179 146.47L123.345 140.304L124.567 141.526L118.401 147.692L117.179 146.47ZM113.005 146.482L114.362 145.124L117.802 148.563C118.284 149.046 118.797 149.589 119.34 150.192C119.883 150.796 120.415 151.441 120.936 152.127C121.456 152.813 121.916 153.522 122.316 154.254C122.723 154.978 123.025 155.702 123.221 156.426C123.063 156.434 122.863 156.468 122.621 156.528C122.388 156.581 122.15 156.645 121.909 156.72C121.675 156.788 121.479 156.864 121.32 156.947C121.147 156.275 120.879 155.616 120.517 154.967C120.155 154.318 119.74 153.692 119.273 153.089C118.805 152.485 118.326 151.916 117.836 151.38C117.345 150.845 116.878 150.355 116.433 149.91L113.005 146.482ZM119.827 148.846L121.151 147.522L125.427 151.799L124.103 153.123L119.827 148.846ZM122.814 154.005C123.146 153.583 123.515 153.093 123.922 152.534C124.33 151.961 124.76 151.358 125.212 150.724C125.672 150.083 126.129 149.446 126.581 148.812L127.848 149.921C127.449 150.517 127.037 151.124 126.615 151.742C126.193 152.361 125.782 152.953 125.382 153.519C124.997 154.084 124.639 154.609 124.307 155.091L122.814 154.005ZM123.108 145.565C124.036 146.131 124.96 146.527 125.88 146.753C126.8 146.979 127.731 147.006 128.674 146.832C129.625 146.651 130.605 146.236 131.616 145.588C131.616 145.784 131.631 146.01 131.661 146.267C131.699 146.516 131.744 146.764 131.797 147.013C131.857 147.27 131.921 147.492 131.989 147.681C130.835 148.337 129.723 148.733 128.652 148.869C127.581 148.989 126.51 148.884 125.438 148.552C124.367 148.22 123.247 147.703 122.078 147.002L123.108 145.565ZM126.457 143.755L128.425 143.348C128.342 143.823 128.241 144.317 128.12 144.83C128.007 145.335 127.882 145.829 127.746 146.312C127.611 146.78 127.479 147.213 127.35 147.613L125.767 147.839C125.88 147.439 125.982 146.998 126.072 146.516C126.17 146.025 126.253 145.543 126.321 145.067C126.389 144.577 126.434 144.14 126.457 143.755ZM138.987 145.072L126.146 132.231L127.232 131.145L140.073 143.986L138.987 145.072ZM137.375 129.488L144.084 122.779L145.419 124.114L138.71 130.823L137.375 129.488ZM133.788 125.947L141.233 118.503L146.754 124.024L145.351 125.427L141.165 121.24L135.123 127.282L133.788 125.947ZM132.974 126.762L134.388 125.347L141.674 132.633C141.968 132.927 142.221 133.12 142.432 133.21C142.636 133.293 142.858 133.259 143.099 133.109C143.348 132.95 143.68 132.664 144.095 132.249C144.216 132.128 144.404 131.939 144.661 131.683C144.917 131.427 145.204 131.14 145.521 130.823C145.845 130.499 146.169 130.174 146.494 129.85C146.818 129.526 147.108 129.235 147.365 128.979C147.629 128.715 147.821 128.523 147.942 128.402C148.319 128.025 148.56 127.701 148.666 127.429C148.771 127.142 148.749 126.833 148.598 126.501C148.44 126.162 148.149 125.721 147.727 125.178C147.923 125.132 148.138 125.068 148.372 124.985C148.598 124.895 148.824 124.789 149.05 124.668C149.277 124.548 149.469 124.438 149.627 124.34C150.035 124.868 150.348 125.355 150.566 125.8C150.778 126.237 150.88 126.656 150.872 127.056C150.872 127.448 150.748 127.851 150.499 128.266C150.265 128.681 149.903 129.134 149.412 129.624C149.322 129.714 149.171 129.865 148.96 130.076C148.756 130.28 148.519 130.518 148.247 130.789C147.983 131.053 147.708 131.328 147.421 131.615C147.135 131.902 146.859 132.177 146.595 132.441C146.331 132.705 146.098 132.939 145.894 133.142C145.698 133.339 145.555 133.482 145.464 133.572C144.913 134.123 144.423 134.545 143.993 134.84C143.563 135.134 143.152 135.303 142.76 135.349C142.368 135.394 141.972 135.307 141.572 135.088C141.165 134.862 140.724 134.511 140.248 134.036L132.974 126.762Z" fill="black"/>
<path d="M80.0429 124.348L89.6143 114.777L98.835 123.998L97.3982 125.435L89.4899 117.526L82.7243 124.292L90.7231 132.291L89.3541 133.66L80.0429 124.348ZM88.0304 130.888L96.1876 122.731L97.4887 124.032L89.3315 132.189L88.0304 130.888ZM86.141 120.151L87.4647 118.827L90.6099 121.973C90.7834 122.146 90.8965 122.237 90.9493 122.244C91.0248 122.244 91.104 122.203 91.1869 122.12C91.2246 122.082 91.2737 122.033 91.334 121.973C91.3944 121.912 91.4434 121.863 91.4811 121.825C91.5188 121.788 91.5527 121.746 91.5829 121.701C91.6206 121.648 91.6433 121.603 91.6508 121.565C91.6583 121.528 91.6583 121.482 91.6508 121.43C91.6433 121.362 91.6055 121.286 91.5377 121.203C91.4773 121.113 91.368 120.988 91.2096 120.83C91.0512 120.656 90.8702 120.46 90.6665 120.242C90.8928 120.226 91.1568 120.174 91.4585 120.083C91.7677 119.985 92.0355 119.876 92.2617 119.755C92.4729 119.996 92.6766 120.245 92.8727 120.502C93.0688 120.743 93.197 120.939 93.2573 121.09C93.3177 121.256 93.3479 121.414 93.3479 121.565C93.3479 121.701 93.3177 121.852 93.2573 122.018C93.2121 122.154 93.1329 122.301 93.0198 122.459C92.9066 122.602 92.7935 122.731 92.6803 122.844C92.6125 122.912 92.5333 122.991 92.4428 123.081C92.3522 123.172 92.2617 123.262 92.1712 123.353C92.0883 123.436 92.0128 123.511 91.945 123.579C91.7941 123.73 91.6169 123.862 91.4132 123.975C91.2096 124.088 91.0021 124.152 90.791 124.167C90.5873 124.175 90.3761 124.122 90.1574 124.009C89.9387 123.896 89.637 123.647 89.2523 123.262L86.141 120.151ZM83.833 122.414L85.1567 121.09C85.911 121.89 86.5672 122.674 87.1253 123.443C87.6835 124.213 88.0907 124.997 88.3472 125.797C88.6036 126.596 88.6451 127.46 88.4716 128.387C88.2378 128.304 87.9399 128.248 87.5779 128.218C87.2083 128.18 86.8877 128.176 86.6162 128.206C86.767 127.467 86.7331 126.785 86.5144 126.159C86.2881 125.525 85.9411 124.907 85.4735 124.303C84.9983 123.692 84.4515 123.062 83.833 122.414ZM104.492 108.159L106.2 107.808C106.238 108.298 106.272 108.8 106.302 109.313C106.34 109.818 106.359 110.259 106.359 110.636L104.944 110.874C104.922 110.61 104.888 110.319 104.843 110.003C104.805 109.678 104.756 109.358 104.696 109.041C104.635 108.709 104.567 108.415 104.492 108.159ZM100.136 113.917L100.453 112.379C100.875 112.394 101.332 112.435 101.822 112.503C102.305 112.563 102.704 112.654 103.021 112.775L102.716 114.438C102.406 114.309 102.007 114.204 101.516 114.121C101.026 114.023 100.566 113.955 100.136 113.917ZM95.0449 108.192L99.8193 103.418L103.643 107.242L102.32 108.566L99.593 105.839L96.1423 109.29L95.0449 108.192ZM96.9796 109.584L100.894 105.67L101.946 106.722L98.0317 110.636L96.9796 109.584ZM97.8281 112.039L104.073 105.794L105.205 106.925L98.9595 113.171L97.8281 112.039ZM100.815 110.071L102.071 108.815L107.162 113.906C107.449 114.193 107.645 114.449 107.75 114.675C107.863 114.909 107.871 115.165 107.773 115.445C107.697 115.716 107.543 115.991 107.309 116.27C107.09 116.55 106.811 116.859 106.472 117.198C106.283 117.04 106.042 116.881 105.748 116.723C105.461 116.572 105.197 116.451 104.956 116.361C105.152 116.18 105.34 116.006 105.521 115.841C105.702 115.66 105.819 115.535 105.872 115.467C105.985 115.354 105.989 115.245 105.883 115.139L100.815 110.071ZM102.489 117.583C102.625 117.115 102.776 116.534 102.942 115.841C103.1 115.139 103.259 114.423 103.417 113.691L104.854 114.291C104.771 114.932 104.677 115.584 104.571 116.248C104.465 116.896 104.367 117.507 104.277 118.081L102.489 117.583ZM102.648 109.482C103.085 109.784 103.572 110.067 104.107 110.331C104.635 110.587 105.197 110.802 105.793 110.976C106.381 111.142 106.988 111.228 107.614 111.236C108.24 111.228 108.87 111.111 109.504 110.885C109.496 111.044 109.504 111.24 109.526 111.473C109.549 111.707 109.579 111.941 109.617 112.175C109.662 112.416 109.711 112.624 109.764 112.797C109.108 112.956 108.448 113.005 107.784 112.944C107.128 112.876 106.487 112.741 105.861 112.537C105.227 112.326 104.635 112.081 104.085 111.802C103.542 111.515 103.055 111.232 102.625 110.953L102.648 109.482ZM91.5037 110.919L93.099 110.161C93.2423 110.606 93.3856 111.066 93.5289 111.541C93.6646 112.009 93.7966 112.465 93.9249 112.91C94.0455 113.348 94.1398 113.744 94.2077 114.098L92.9292 114.63C92.8312 114.26 92.7067 113.857 92.5559 113.419C92.405 112.982 92.2353 112.541 92.0468 112.096C91.8658 111.643 91.6847 111.251 91.5037 110.919ZM94.1285 110.987L95.735 110.376C95.8784 111.077 96.0217 111.824 96.165 112.616C96.3083 113.408 96.4327 114.181 96.5383 114.935C96.6439 115.69 96.7118 116.376 96.742 116.995L95.5314 117.345C95.4861 116.878 95.4183 116.372 95.3278 115.829C95.2372 115.271 95.1279 114.709 94.9997 114.143C94.8714 113.563 94.7319 113.001 94.581 112.458C94.4302 111.915 94.2793 111.424 94.1285 110.987ZM92.4088 115.309L92.1599 113.725C92.5295 113.717 92.9217 113.717 93.3365 113.725C93.7514 113.732 94.1511 113.755 94.5358 113.793C94.9205 113.83 95.2448 113.898 95.5088 113.996L95.8142 115.75C95.5503 115.652 95.2222 115.573 94.8299 115.512C94.4453 115.445 94.0418 115.396 93.6194 115.365C93.1895 115.328 92.7859 115.309 92.4088 115.309ZM96.4478 114.076L97.0135 112.741C97.4132 112.839 97.8281 112.967 98.258 113.125C98.6879 113.284 99.0952 113.45 99.4799 113.623C99.857 113.789 100.178 113.959 100.442 114.132L99.8645 115.614C99.6156 115.426 99.2989 115.237 98.9142 115.049C98.5295 114.86 98.126 114.683 97.7036 114.517C97.2737 114.343 96.8551 114.196 96.4478 114.076ZM94.6829 117.651C95.1656 117.123 95.7313 116.497 96.3799 115.773C97.021 115.041 97.6735 114.298 98.3372 113.544L99.4686 114.63C98.8576 115.347 98.2467 116.063 97.6357 116.78C97.0248 117.481 96.478 118.118 95.9953 118.692L94.6829 117.651ZM99.6043 116.599L100.261 115.377C100.706 115.55 101.169 115.773 101.652 116.044C102.142 116.308 102.535 116.557 102.829 116.791L102.15 118.126C101.856 117.877 101.471 117.613 100.996 117.334C100.521 117.04 100.057 116.795 99.6043 116.599ZM96.8551 118.85L98.1336 117.956C98.6163 118.56 99.0613 119.186 99.4686 119.834C99.8759 120.468 100.181 121.045 100.385 121.565C100.257 121.588 100.102 121.629 99.9211 121.69C99.7401 121.75 99.5591 121.818 99.3781 121.893C99.1895 121.961 99.0349 122.025 98.9142 122.086C98.7407 121.58 98.4616 121.045 98.077 120.479C97.6923 119.913 97.285 119.37 96.8551 118.85ZM97.0135 116.542L98.1901 115.365L103.247 120.423L102.071 121.599L97.0135 116.542ZM104.119 103.576L114.075 93.6204L115.421 94.9668L105.465 104.923L104.119 103.576ZM105.725 96.6978L107.173 95.2496L117.797 105.873L116.349 107.321L105.725 96.6978ZM108.802 100.363L110.409 99.5714C110.748 100.424 111.031 101.295 111.257 102.185C111.484 103.075 111.646 103.969 111.744 104.866C111.85 105.756 111.887 106.639 111.857 107.514C111.827 108.373 111.718 109.199 111.529 109.991C111.34 109.954 111.114 109.923 110.85 109.901C110.586 109.878 110.322 109.863 110.058 109.856C109.787 109.841 109.553 109.841 109.357 109.856C109.568 109.132 109.711 108.37 109.787 107.57C109.862 106.756 109.877 105.934 109.832 105.104C109.779 104.267 109.662 103.448 109.481 102.649C109.308 101.842 109.081 101.08 108.802 100.363ZM110.861 98.4174C111.563 98.6814 112.313 98.8888 113.113 99.0397C113.912 99.1905 114.723 99.2848 115.545 99.3225C116.375 99.3527 117.19 99.3301 117.989 99.2546C118.789 99.1792 119.543 99.0359 120.252 98.8247C120.229 99.0133 120.222 99.2471 120.229 99.5262C120.237 99.7902 120.256 100.058 120.286 100.329C120.324 100.593 120.365 100.823 120.41 101.02C119.633 101.193 118.823 101.295 117.978 101.325C117.125 101.348 116.254 101.314 115.364 101.223C114.467 101.125 113.577 100.967 112.694 100.748C111.812 100.529 110.952 100.265 110.115 99.9561L110.861 98.4174ZM121.508 95.5777L128.884 88.2012L129.948 89.2646L122.571 96.6412L121.508 95.5777ZM119.98 93.462L127.572 85.8705L128.703 87.0019L121.112 94.5934L119.98 93.462ZM121.938 98.8134L131.95 88.8008L133.116 89.9661L123.103 99.9787L121.938 98.8134ZM121.926 90.1358L123.329 88.7329L128.477 93.8806L127.074 95.2835L121.926 90.1358ZM118.181 90.1924L118.792 90.8033L123.816 85.78L123.205 85.1691L118.181 90.1924ZM116.631 88.6424L117.22 89.2307L122.243 84.2074L121.655 83.6191L116.631 88.6424ZM114.267 88.9479L122.028 81.1867L126.248 85.4067L118.487 93.1679L114.267 88.9479ZM118.962 92.4664L120.67 91.5274C120.874 92.0629 121.036 92.6248 121.157 93.2131C121.278 93.8014 121.361 94.3822 121.406 94.9554C121.451 95.5287 121.459 96.0566 121.428 96.5394C121.255 96.5469 121.048 96.5658 120.806 96.5959C120.565 96.6261 120.324 96.6638 120.082 96.7091C119.833 96.7468 119.622 96.792 119.449 96.8448C119.547 96.1585 119.554 95.4268 119.471 94.65C119.388 93.858 119.219 93.1302 118.962 92.4664Z" fill="black"/>
<path d="M270.894 146.959L280.94 157.006L279.673 158.273L269.627 148.226L270.894 146.959ZM268.518 154.313L273.575 159.37L272.523 160.422L267.466 155.365L268.518 154.313ZM266.481 155.874L272.025 161.418L270.939 162.504L265.395 156.96L266.481 155.874ZM269.853 156.689L271.131 157.967L267.149 161.95L265.87 160.671L269.853 156.689ZM269.208 149.505L277.399 157.696L276.155 158.94L269.321 152.107L263.019 158.408L261.662 157.051L269.208 149.505ZM277.014 157.311L278.406 158.703L272.217 164.891C271.893 165.216 271.599 165.419 271.335 165.502C271.063 165.593 270.769 165.57 270.453 165.434C270.121 165.299 269.777 165.068 269.423 164.744C269.068 164.435 268.661 164.05 268.201 163.59C268.344 163.386 268.48 163.13 268.608 162.821C268.744 162.519 268.846 162.244 268.914 161.995C269.095 162.191 269.28 162.391 269.468 162.595C269.657 162.798 269.83 162.979 269.989 163.138C270.162 163.296 270.275 163.402 270.328 163.454C270.434 163.56 270.52 163.617 270.588 163.624C270.664 163.624 270.743 163.583 270.826 163.5L277.014 157.311ZM270.147 153.544L271.539 154.302C271.493 154.618 271.41 154.95 271.29 155.297C271.177 155.652 271.063 155.946 270.95 156.18L269.446 155.422C269.581 155.195 269.713 154.905 269.842 154.55C269.97 154.196 270.072 153.86 270.147 153.544ZM273.632 156.44L274.458 157.899C274.035 158.02 273.62 158.133 273.213 158.239C272.821 158.344 272.463 158.424 272.138 158.476L271.471 157.221C271.689 157.168 271.927 157.096 272.184 157.006C272.447 156.923 272.704 156.832 272.953 156.734C273.202 156.636 273.428 156.538 273.632 156.44ZM276.053 150.398L277.535 151.88L273.677 155.738L272.195 154.256L276.053 150.398ZM275.702 167.267L283.373 174.938L282.117 176.194L274.446 168.523L275.702 167.267ZM280.363 160.864L289.697 170.197L282.287 177.608L280.906 176.228L287.061 170.073L280.431 163.443L274.254 169.62L272.93 168.297L280.363 160.864ZM284.957 166.498L286.258 167.799L284.221 169.835C284.078 169.979 283.999 170.08 283.984 170.141C283.984 170.201 284.04 170.288 284.153 170.401C284.176 170.424 284.225 170.473 284.3 170.548C284.383 170.631 284.463 170.71 284.538 170.786C284.621 170.869 284.681 170.929 284.719 170.967C284.787 171.035 284.847 171.072 284.9 171.08C284.968 171.087 285.051 171.057 285.149 170.989C285.255 170.929 285.398 170.816 285.579 170.65C285.594 170.786 285.632 170.952 285.692 171.148C285.768 171.344 285.85 171.54 285.941 171.736C286.047 171.932 286.148 172.102 286.246 172.245C285.847 172.539 285.504 172.732 285.217 172.822C284.93 172.913 284.666 172.913 284.425 172.822C284.191 172.739 283.946 172.569 283.69 172.313C283.629 172.253 283.558 172.181 283.475 172.098C283.392 172.015 283.301 171.925 283.203 171.827C283.113 171.736 283.026 171.649 282.943 171.566C282.86 171.483 282.792 171.415 282.739 171.363C282.377 171.001 282.143 170.676 282.038 170.39C281.94 170.111 281.966 169.828 282.117 169.541C282.268 169.255 282.532 168.923 282.909 168.546L284.957 166.498ZM282.445 157.877L292.616 168.048L291.304 169.36L281.133 159.189L282.445 157.877ZM284.538 161.961L285.873 163.296L283.61 165.559L282.275 164.224L284.538 161.961ZM287.016 164.439L288.385 165.808L286.122 168.07L284.753 166.701L287.016 164.439ZM282.807 163.828L284.074 165.095L282.954 166.215C282.577 166.592 282.14 166.931 281.642 167.233C281.144 167.535 280.578 167.731 279.945 167.821C279.311 167.912 278.598 167.833 277.806 167.584C277.829 167.441 277.837 167.252 277.829 167.018C277.822 166.784 277.803 166.547 277.772 166.305C277.75 166.072 277.72 165.883 277.682 165.74C278.399 165.974 279.006 166.068 279.503 166.023C280.009 165.985 280.439 165.857 280.793 165.638C281.148 165.419 281.457 165.178 281.721 164.914L282.807 163.828Z" fill="black"/>
<path d="M291.07 119.263L301.207 129.4L299.861 130.746L289.724 120.609L291.07 119.263ZM294.713 117.317L303.176 125.78L301.83 127.126L293.367 118.663L294.713 117.317ZM299.872 119.082L301.32 120.53L290.697 131.154L289.249 129.706L299.872 119.082ZM294.362 124.117L295.053 125.78C294.336 125.953 293.589 126.081 292.812 126.164C292.043 126.24 291.266 126.262 290.482 126.232C289.705 126.21 288.939 126.138 288.185 126.017C287.446 125.897 286.737 125.731 286.058 125.52C286.103 125.323 286.137 125.093 286.16 124.829C286.19 124.573 286.209 124.313 286.217 124.049C286.239 123.785 286.243 123.547 286.228 123.336C286.854 123.585 287.514 123.792 288.208 123.958C288.917 124.124 289.63 124.241 290.346 124.309C291.063 124.377 291.76 124.396 292.439 124.366C293.126 124.328 293.767 124.245 294.362 124.117ZM296.286 126.063C296.15 126.651 296.063 127.288 296.026 127.975C296.003 128.661 296.026 129.362 296.093 130.079C296.161 130.795 296.271 131.501 296.422 132.195C296.588 132.889 296.791 133.545 297.033 134.163C296.844 134.141 296.614 134.137 296.342 134.152C296.086 134.167 295.826 134.193 295.562 134.231C295.298 134.269 295.068 134.31 294.872 134.356C294.668 133.684 294.51 132.975 294.396 132.229C294.283 131.482 294.215 130.72 294.193 129.943C294.178 129.159 294.208 128.382 294.283 127.613C294.366 126.851 294.494 126.112 294.668 125.395L296.286 126.063ZM297.141 141.987L309.982 129.146L311.068 130.232L298.227 143.073L297.141 141.987ZM314.331 136.551L323.507 145.726L316.775 152.458L315.361 151.044L320.792 145.613L314.388 139.209L308.901 144.697L307.543 143.339L314.331 136.551ZM312.781 139.888L320.316 147.423L319.061 148.679L311.526 141.144L312.781 139.888ZM310.326 142.321L317.895 149.89L316.594 151.191L309.025 143.622L310.326 142.321ZM319.66 138.847L321.086 140.273L310.462 150.896L309.037 149.471L319.66 138.847Z" fill="black"/>
<path d="M263.713 283.073L267.073 279.713L268.419 281.059L265.059 284.419L263.713 283.073ZM266.745 275.04L268.159 273.626L276.316 281.783C276.633 282.1 276.863 282.277 277.006 282.315C277.142 282.345 277.315 282.255 277.527 282.043C277.572 281.998 277.647 281.923 277.753 281.817C277.859 281.711 277.975 281.595 278.104 281.466C278.232 281.338 278.349 281.221 278.454 281.116C278.56 281.01 278.639 280.931 278.692 280.878C278.843 280.727 278.892 280.55 278.839 280.346C278.786 280.143 278.609 279.86 278.307 279.498C278.006 279.121 277.564 278.619 276.984 277.993C277.18 277.963 277.395 277.914 277.628 277.846C277.87 277.771 278.104 277.688 278.33 277.597C278.549 277.499 278.737 277.401 278.896 277.303C279.574 278.072 280.08 278.736 280.412 279.294C280.751 279.845 280.898 280.339 280.853 280.776C280.823 281.214 280.593 281.647 280.163 282.077C280.102 282.138 280.001 282.239 279.857 282.383C279.714 282.526 279.559 282.681 279.393 282.847C279.235 283.005 279.088 283.152 278.952 283.288C278.816 283.424 278.715 283.525 278.647 283.593C278.217 284.023 277.813 284.299 277.436 284.419C277.074 284.54 276.693 284.498 276.293 284.295C275.886 284.084 275.419 283.714 274.891 283.186L266.745 275.04ZM263.894 277.891L265.308 276.477L275.626 286.795L274.212 288.209L263.894 277.891ZM272.164 272.992L274.37 273.23C274.242 273.886 274.091 274.565 273.918 275.266C273.737 275.96 273.544 276.658 273.341 277.359C273.137 278.046 272.926 278.71 272.707 279.351C272.511 279.245 272.254 279.147 271.938 279.057C271.613 278.958 271.334 278.883 271.1 278.83C271.289 278.204 271.455 277.548 271.598 276.862C271.742 276.175 271.858 275.5 271.949 274.837C272.047 274.165 272.119 273.551 272.164 272.992ZM268.43 288.605C268.649 288.206 268.898 287.738 269.177 287.202C269.449 286.659 269.732 286.082 270.026 285.471C270.312 284.853 270.599 284.242 270.886 283.639L272.368 284.6C272.058 285.422 271.73 286.256 271.383 287.101C271.044 287.938 270.731 288.703 270.444 289.397L268.43 288.605ZM282.267 276.511L289.938 268.84L291.194 270.096L283.523 277.767L282.267 276.511ZM275.864 271.85L285.197 262.516L292.608 269.926L291.228 271.307L285.073 265.152L278.443 271.782L284.62 277.959L283.297 279.283L275.864 271.85ZM281.498 267.256L282.799 265.955L284.835 267.992C284.979 268.135 285.08 268.214 285.141 268.229C285.201 268.229 285.288 268.173 285.401 268.06C285.424 268.037 285.473 267.988 285.548 267.913C285.631 267.83 285.71 267.75 285.786 267.675C285.869 267.592 285.929 267.532 285.967 267.494C286.035 267.426 286.072 267.366 286.08 267.313C286.087 267.245 286.057 267.162 285.989 267.064C285.929 266.958 285.816 266.815 285.65 266.634C285.786 266.619 285.952 266.581 286.148 266.521C286.344 266.446 286.54 266.363 286.736 266.272C286.932 266.166 287.102 266.065 287.245 265.967C287.539 266.366 287.732 266.709 287.822 266.996C287.913 267.283 287.913 267.547 287.822 267.788C287.739 268.022 287.569 268.267 287.313 268.523C287.253 268.584 287.181 268.655 287.098 268.738C287.015 268.821 286.925 268.912 286.827 269.01C286.736 269.1 286.649 269.187 286.566 269.27C286.483 269.353 286.415 269.421 286.363 269.474C286.001 269.836 285.676 270.07 285.39 270.175C285.111 270.273 284.828 270.247 284.541 270.096C284.255 269.945 283.923 269.681 283.546 269.304L281.498 267.256ZM272.877 269.768L283.048 259.597L284.36 260.909L274.189 271.08L272.877 269.768ZM276.961 267.675L278.296 266.34L280.559 268.603L279.224 269.938L276.961 267.675ZM279.439 265.197L280.808 263.828L283.07 266.091L281.701 267.46L279.439 265.197ZM278.828 269.406L280.095 268.139L281.215 269.259C281.592 269.636 281.931 270.073 282.233 270.571C282.535 271.069 282.731 271.635 282.821 272.268C282.912 272.902 282.833 273.615 282.584 274.407C282.441 274.384 282.252 274.376 282.018 274.384C281.784 274.392 281.547 274.41 281.305 274.441C281.072 274.463 280.883 274.493 280.74 274.531C280.974 273.815 281.068 273.207 281.023 272.71C280.985 272.204 280.857 271.774 280.638 271.42C280.419 271.065 280.178 270.756 279.914 270.492L278.828 269.406Z" fill="black"/>
<path d="M288.67 316.441L288.817 314.484C289.345 314.333 289.926 314.182 290.56 314.032C291.193 313.881 291.816 313.756 292.427 313.658C293.03 313.553 293.554 313.496 293.999 313.488L293.886 315.638C293.471 315.631 292.962 315.665 292.359 315.74C291.755 315.815 291.129 315.913 290.481 316.034C289.832 316.155 289.228 316.291 288.67 316.441ZM297.269 315.627L297.619 313.511C298.042 313.39 298.517 313.262 299.045 313.126C299.565 312.983 300.09 312.844 300.618 312.708C301.146 312.572 301.658 312.459 302.156 312.368C302.654 312.263 303.092 312.187 303.469 312.142L303.141 314.507C302.801 314.529 302.39 314.578 301.907 314.654C301.425 314.729 300.916 314.824 300.38 314.937C299.845 315.035 299.309 315.148 298.773 315.276C298.23 315.397 297.729 315.514 297.269 315.627ZM289.949 310.524L291.997 309.744C292.004 310.309 291.997 310.89 291.974 311.486C291.944 312.074 291.906 312.648 291.861 313.206C291.816 313.749 291.755 314.247 291.68 314.699L289.983 315.219C290.036 314.744 290.069 314.235 290.085 313.692C290.1 313.134 290.096 312.58 290.073 312.029C290.058 311.471 290.017 310.969 289.949 310.524ZM284.993 313.941L295.153 303.781L296.42 305.048L286.261 315.208L284.993 313.941ZM288.048 308.352L289.474 306.927L291.295 308.748L289.87 310.174L288.048 308.352ZM293.581 308.816L295.481 308.228C295.655 309.517 295.647 310.83 295.459 312.165C295.27 313.485 294.938 314.797 294.463 316.102C293.98 317.399 293.392 318.681 292.698 319.949C292.434 319.851 292.11 319.768 291.725 319.7C291.34 319.617 290.982 319.568 290.65 319.553C291.359 318.391 291.966 317.203 292.472 315.989C292.97 314.767 293.324 313.545 293.535 312.323C293.746 311.101 293.762 309.932 293.581 308.816ZM296.828 309.28L298.841 308.714C299.09 310.29 299.087 311.856 298.83 313.409C298.574 314.963 298.117 316.513 297.461 318.059C296.805 319.59 295.994 321.118 295.029 322.641C294.742 322.521 294.399 322.411 293.999 322.313C293.614 322.215 293.252 322.155 292.913 322.132C293.871 320.707 294.689 319.27 295.368 317.822C296.039 316.366 296.511 314.922 296.782 313.488C297.061 312.048 297.076 310.645 296.828 309.28ZM310.987 311.072L298.146 298.231L299.232 297.145L312.073 309.986L310.987 311.072ZM311.456 286.618L311.479 284.989C311.796 284.883 312.139 284.789 312.509 284.706C312.886 284.616 313.252 284.544 313.606 284.491C313.961 284.423 314.262 284.393 314.511 284.401L314.534 286.166C314.285 286.143 313.983 286.158 313.629 286.211C313.274 286.249 312.905 286.301 312.52 286.369C312.135 286.437 311.781 286.52 311.456 286.618ZM315.597 288.293L317.317 287.32C318.245 289.349 318.799 291.381 318.98 293.418C319.161 295.454 318.969 297.427 318.403 299.335C318.237 299.29 318.022 299.256 317.758 299.233C317.509 299.21 317.249 299.191 316.978 299.176C316.721 299.161 316.499 299.158 316.31 299.165C316.951 297.393 317.211 295.586 317.091 293.746C316.97 291.89 316.472 290.073 315.597 288.293ZM306.954 293.248L315.597 284.604L316.887 285.894L308.243 294.538L306.954 293.248ZM311.411 295.692L314.194 292.909L315.45 294.164L312.667 296.948L311.411 295.692ZM306.275 293.927L307.632 292.569L310.698 295.635C311.121 296.058 311.566 296.54 312.033 297.083C312.494 297.619 312.935 298.196 313.357 298.814C313.787 299.425 314.153 300.063 314.455 300.726C314.749 301.383 314.937 302.046 315.02 302.718C314.862 302.695 314.654 302.691 314.398 302.706C314.149 302.729 313.896 302.755 313.64 302.785C313.399 302.816 313.195 302.853 313.029 302.899C312.946 302.303 312.776 301.733 312.52 301.19C312.271 300.64 311.966 300.115 311.604 299.618C311.249 299.112 310.876 298.641 310.483 298.203C310.084 297.758 309.703 297.355 309.341 296.993L306.275 293.927ZM308.809 287.614L310.178 286.245C311.158 287.18 312.124 288.063 313.074 288.892C314.025 289.707 314.937 290.438 315.812 291.087C316.68 291.728 317.487 292.249 318.233 292.648C318.98 293.048 319.64 293.301 320.213 293.406C320.786 293.512 321.247 293.429 321.594 293.158C321.759 293.052 321.707 292.803 321.435 292.411C321.164 292.004 320.741 291.483 320.168 290.85C320.447 290.842 320.764 290.804 321.118 290.736C321.48 290.661 321.786 290.582 322.035 290.499C323.015 291.645 323.528 292.573 323.573 293.282C323.626 293.998 323.283 294.545 322.544 294.922C321.971 295.3 321.311 295.462 320.564 295.409C319.825 295.364 319.018 295.137 318.143 294.73C317.268 294.323 316.336 293.768 315.348 293.067C314.353 292.358 313.308 291.547 312.214 290.635C311.121 289.707 309.986 288.7 308.809 287.614Z" fill="black"/>
<path d="M305.694 347.704L315.763 337.635L317.177 339.049L307.108 349.118L305.694 347.704ZM307.504 341.006L308.997 339.513L312.188 342.703L310.694 344.197L307.504 341.006ZM310.694 347.953L312.686 346.776C313.085 347.644 313.432 348.541 313.726 349.469C314.028 350.389 314.269 351.294 314.45 352.184C314.624 353.067 314.722 353.889 314.745 354.651C314.541 354.658 314.292 354.688 313.998 354.741C313.711 354.786 313.421 354.835 313.127 354.888C312.833 354.941 312.584 354.994 312.38 355.047C312.418 354.33 312.372 353.568 312.244 352.761C312.116 351.954 311.92 351.14 311.656 350.317C311.384 349.488 311.064 348.7 310.694 347.953ZM314.96 344.751L315.785 342.816C316.396 342.93 317.038 343.058 317.709 343.201C318.38 343.344 319.051 343.503 319.723 343.676C320.386 343.842 321.012 344.023 321.601 344.219C322.197 344.408 322.717 344.604 323.162 344.808L322.291 347.014C321.876 346.81 321.374 346.603 320.786 346.392C320.205 346.173 319.587 345.969 318.931 345.781C318.274 345.577 317.603 345.388 316.917 345.215C316.238 345.034 315.586 344.879 314.96 344.751ZM315.152 334.444L325.142 324.454L326.466 325.778L316.476 335.768L315.152 334.444ZM322.642 337.68L328.536 331.786L329.758 333.007L323.863 338.902L322.642 337.68ZM325.436 340.384L331.161 334.659L332.417 335.915L326.692 341.64L325.436 340.384ZM319.813 330.733L321.816 329.41C322.042 329.802 322.268 330.202 322.494 330.609C322.713 331.009 322.924 331.393 323.128 331.763C323.332 332.117 323.501 332.446 323.637 332.747L322.019 333.709C321.831 333.4 321.616 333.072 321.374 332.725C321.126 332.37 320.865 332.019 320.594 331.672C320.33 331.318 320.07 331.005 319.813 330.733ZM318.897 335.926L326.737 328.086L334.17 335.519L332.722 336.967L326.545 330.79L321.533 335.802L327.71 341.979L326.33 343.359L318.897 335.926ZM332.134 318.911C332.254 319.65 332.307 320.487 332.292 321.422C332.285 322.35 332.205 323.312 332.055 324.307C331.911 325.295 331.696 326.264 331.41 327.215C331.236 327.162 331.033 327.117 330.799 327.079C330.572 327.034 330.339 327.004 330.097 326.989C329.863 326.966 329.649 326.955 329.452 326.955C329.792 325.997 330.033 324.994 330.177 323.945C330.312 322.889 330.365 321.879 330.335 320.913C330.312 319.94 330.21 319.084 330.029 318.345L331.444 316.931C332.183 317.051 332.933 317.123 333.695 317.146C334.457 317.168 335.215 317.134 335.969 317.044C336.723 316.953 337.455 316.818 338.164 316.636C338.873 316.455 339.544 316.229 340.178 315.958C340.178 316.305 340.212 316.663 340.28 317.032C340.348 317.402 340.419 317.753 340.495 318.085C339.838 318.288 339.141 318.466 338.402 318.616C337.67 318.76 336.935 318.869 336.195 318.944C335.449 319.012 334.728 319.046 334.034 319.046C333.341 319.046 332.707 319.001 332.134 318.911ZM331.398 323.832L337.089 318.141L338.277 319.329L332.586 325.02L331.398 323.832ZM332.349 327.498L340.732 319.114L341.909 320.291L333.525 328.674L332.349 327.498ZM335.222 331.503L344.839 321.886L346.004 323.051L336.388 332.668L335.222 331.503ZM333.967 322.214L335.403 320.777L341.264 326.638L339.827 328.075L333.967 322.214ZM334.668 328.391L335.302 326.853C335.633 326.898 335.98 326.966 336.342 327.056C336.712 327.139 337.063 327.234 337.395 327.339C337.727 327.445 338.006 327.558 338.232 327.679L337.587 329.364C337.368 329.236 337.093 329.112 336.761 328.991C336.422 328.863 336.071 328.746 335.709 328.64C335.347 328.535 335 328.452 334.668 328.391ZM339.974 322.203L341.75 321.377C341.871 321.95 341.984 322.531 342.09 323.119C342.188 323.7 342.256 324.213 342.293 324.658L340.845 325.246C340.793 324.937 340.725 324.605 340.642 324.251C340.551 323.889 340.449 323.53 340.336 323.176C340.216 322.814 340.095 322.489 339.974 322.203ZM345.948 317.18L353.324 309.803L354.388 310.866L347.011 318.243L345.948 317.18ZM344.42 315.064L352.012 307.472L353.143 308.604L345.552 316.195L344.42 315.064ZM346.378 320.415L356.39 310.403L357.556 311.568L347.543 321.581L346.378 320.415ZM346.366 311.738L347.769 310.335L352.917 315.482L351.514 316.885L346.366 311.738ZM342.622 311.794L343.233 312.405L348.256 307.382L347.645 306.771L342.622 311.794ZM341.072 310.244L341.66 310.833L346.683 305.809L346.095 305.221L341.072 310.244ZM338.707 310.55L346.468 302.789L350.688 307.009L342.927 314.77L338.707 310.55ZM343.402 314.068L345.111 313.129C345.314 313.665 345.476 314.227 345.597 314.815C345.718 315.403 345.801 315.984 345.846 316.557C345.891 317.131 345.899 317.658 345.869 318.141C345.695 318.149 345.488 318.168 345.246 318.198C345.005 318.228 344.764 318.266 344.522 318.311C344.273 318.349 344.062 318.394 343.889 318.447C343.987 317.76 343.994 317.029 343.911 316.252C343.828 315.46 343.659 314.732 343.402 314.068Z" fill="black"/>
<path d="M156.927 261.5L160.288 264.86L158.941 266.206L155.581 262.846L156.927 261.5ZM164.96 264.532L166.374 265.946L158.217 274.103C157.9 274.42 157.723 274.65 157.685 274.793C157.655 274.929 157.746 275.102 157.957 275.314C158.002 275.359 158.078 275.434 158.183 275.54C158.289 275.646 158.406 275.762 158.534 275.891C158.662 276.019 158.779 276.136 158.885 276.241C158.99 276.347 159.07 276.426 159.122 276.479C159.273 276.63 159.45 276.679 159.654 276.626C159.858 276.573 160.141 276.396 160.503 276.094C160.88 275.793 161.381 275.351 162.007 274.771C162.038 274.967 162.087 275.182 162.154 275.415C162.23 275.657 162.313 275.891 162.403 276.117C162.501 276.336 162.599 276.524 162.697 276.683C161.928 277.361 161.264 277.867 160.706 278.199C160.156 278.538 159.662 278.685 159.224 278.64C158.787 278.61 158.353 278.38 157.923 277.95C157.863 277.889 157.761 277.788 157.618 277.644C157.474 277.501 157.32 277.346 157.154 277.18C156.995 277.022 156.848 276.875 156.713 276.739C156.577 276.603 156.475 276.502 156.407 276.434C155.977 276.004 155.702 275.6 155.581 275.223C155.46 274.861 155.502 274.48 155.706 274.08C155.917 273.673 156.286 273.206 156.814 272.678L164.96 264.532ZM162.109 261.681L163.523 263.095L153.205 273.413L151.791 271.999L162.109 261.681ZM167.008 269.951L166.77 272.157C166.114 272.029 165.435 271.878 164.734 271.705C164.04 271.524 163.342 271.331 162.641 271.128C161.955 270.924 161.291 270.713 160.65 270.494C160.755 270.298 160.853 270.041 160.944 269.725C161.042 269.4 161.117 269.121 161.17 268.887C161.796 269.076 162.452 269.242 163.139 269.385C163.825 269.529 164.5 269.645 165.164 269.736C165.835 269.834 166.45 269.906 167.008 269.951ZM151.395 266.217C151.795 266.436 152.262 266.685 152.798 266.964C153.341 267.236 153.918 267.518 154.529 267.813C155.147 268.099 155.758 268.386 156.362 268.672L155.4 270.155C154.578 269.845 153.745 269.517 152.9 269.17C152.063 268.831 151.297 268.518 150.603 268.231L151.395 266.217ZM170.017 271.082L180.064 281.129L178.797 282.396L168.75 272.349L170.017 271.082ZM175.21 274.42L176.625 275.834L166.001 286.458L164.587 285.043L175.21 274.42ZM168.4 280.529L169.078 282.158C168.437 282.272 167.774 282.332 167.087 282.339C166.408 282.355 165.718 282.321 165.017 282.238C164.33 282.155 163.652 282.026 162.98 281.853C162.309 281.695 161.672 281.495 161.068 281.253C161.106 281.065 161.144 280.846 161.181 280.597C161.219 280.348 161.246 280.096 161.261 279.839C161.276 279.583 161.279 279.36 161.272 279.172C161.83 279.443 162.415 279.681 163.026 279.884C163.644 280.08 164.266 280.243 164.892 280.371C165.526 280.492 166.137 280.567 166.725 280.597C167.329 280.627 167.887 280.605 168.4 280.529ZM170.504 282.724C170.444 283.237 170.432 283.791 170.47 284.387C170.523 284.983 170.61 285.598 170.73 286.231C170.866 286.865 171.039 287.491 171.251 288.109C171.469 288.72 171.714 289.305 171.986 289.863C171.79 289.848 171.56 289.844 171.296 289.852C171.032 289.874 170.772 289.901 170.515 289.931C170.259 289.976 170.033 290.021 169.836 290.067C169.588 289.471 169.384 288.837 169.225 288.166C169.06 287.502 168.931 286.823 168.841 286.13C168.765 285.436 168.731 284.745 168.739 284.059C168.754 283.38 168.814 282.724 168.92 282.091L170.504 282.724ZM167.732 277.916L167.042 278.606L172.529 284.093L173.219 283.403L167.732 277.916ZM169.361 276.287L168.682 276.965L174.17 282.453L174.848 281.774L169.361 276.287ZM169.056 273.945L177.258 282.147L172.902 286.503L164.7 278.3L169.056 273.945Z" fill="black"/>
<path d="M132.67 290.374L134.005 291.709L129.152 296.563L127.817 295.228L132.67 290.374ZM130.838 287.297L137.06 293.52L135.963 294.617L129.74 288.394L130.838 287.297ZM127.251 292.286L126.629 292.909L131.505 297.785L132.127 297.163L127.251 292.286ZM128.824 290.714L128.213 291.325L133.089 296.201L133.7 295.59L128.824 290.714ZM128.541 288.372L136.11 295.941L131.856 300.195L124.287 292.626L128.541 288.372ZM128.111 297.717L129.808 297.626C130.08 298.185 130.347 298.762 130.611 299.357C130.883 299.961 131.132 300.534 131.358 301.077C131.599 301.62 131.799 302.099 131.958 302.514L129.966 302.469C129.838 302.084 129.676 301.628 129.48 301.1C129.291 300.579 129.08 300.029 128.846 299.448C128.613 298.867 128.367 298.29 128.111 297.717ZM135.872 287.082L137.275 288.485L135.669 290.091L134.266 288.689L135.872 287.082ZM130.962 283.756L140.681 293.474L138.18 295.975L136.789 294.583L138.056 293.316L131.064 286.324L129.797 287.591L128.462 286.256L130.962 283.756ZM126.538 294.334L126.855 296.325C126.342 296.22 125.78 296.05 125.169 295.816C124.559 295.597 123.948 295.334 123.337 295.024C122.726 294.73 122.152 294.413 121.617 294.074C121.677 293.833 121.73 293.531 121.775 293.169C121.828 292.814 121.862 292.501 121.877 292.23C122.367 292.554 122.895 292.863 123.461 293.158C124.042 293.452 124.6 293.701 125.136 293.904C125.686 294.108 126.154 294.251 126.538 294.334ZM133.141 309.987L145.982 297.146L147.068 298.232L134.227 311.073L133.141 309.987ZM151.621 304.098L158.342 310.818L157.018 312.142L150.297 305.422L151.621 304.098ZM142.378 311.531L152.47 321.623L151.157 322.935L141.066 312.844L142.378 311.531ZM146.666 306.994L157.007 317.335L155.672 318.67L145.331 308.329L146.666 306.994ZM153.035 306.96L154.427 308.352C153.839 308.835 153.22 309.333 152.572 309.845C151.923 310.358 151.267 310.871 150.603 311.384C149.947 311.905 149.298 312.41 148.657 312.9C148.016 313.39 147.401 313.847 146.813 314.269C146.24 314.692 145.719 315.069 145.252 315.401L143.837 313.986C144.335 313.654 144.882 313.274 145.478 312.844C146.074 312.414 146.688 311.957 147.322 311.475C147.971 310.992 148.623 310.498 149.279 309.993C149.943 309.48 150.592 308.967 151.225 308.454C151.859 307.941 152.462 307.443 153.035 306.96ZM157.719 310.196L159.134 311.61C158.53 312.184 157.893 312.776 157.221 313.387C156.558 313.99 155.883 314.597 155.196 315.208C154.51 315.819 153.835 316.411 153.171 316.984C152.523 317.558 151.896 318.101 151.293 318.614C150.697 319.119 150.15 319.575 149.653 319.983L148.216 318.546C148.721 318.131 149.279 317.671 149.89 317.165C150.509 316.653 151.15 316.11 151.814 315.536C152.485 314.971 153.16 314.386 153.839 313.783C154.525 313.172 155.193 312.565 155.841 311.961C156.505 311.358 157.131 310.769 157.719 310.196Z" fill="black"/>
<path d="M98.7283 309.499L103.401 314.172L101.953 315.62L97.2802 310.948L98.7283 309.499ZM102.281 313.052L103.91 314.681C103.103 315.639 102.334 316.604 101.602 317.577C100.878 318.558 100.244 319.546 99.7013 320.542C99.1734 321.537 98.7736 322.525 98.5021 323.506C98.2456 324.486 98.1702 325.459 98.2758 326.425C98.0722 326.372 97.8233 326.327 97.5291 326.289C97.2274 326.259 96.9257 326.236 96.624 326.221C96.3298 326.214 96.0696 326.21 95.8434 326.21C95.7981 325.169 95.9263 324.128 96.228 323.087C96.5373 322.039 96.971 321.002 97.5291 319.976C98.0948 318.958 98.7472 317.951 99.4864 316.955C100.226 315.96 101.002 314.987 101.817 314.036L101.557 313.776L102.281 313.052ZM96.5901 312.226L97.9477 314.014C97.1784 314.557 96.3676 315.081 95.5153 315.586C94.678 316.092 93.8144 316.54 92.9244 316.933C92.0419 317.317 91.1519 317.619 90.2544 317.838C89.3644 318.049 88.4819 318.132 87.607 318.087C87.6296 317.898 87.6334 317.668 87.6183 317.396C87.6032 317.14 87.5806 316.876 87.5504 316.604C87.5202 316.348 87.4863 316.125 87.4486 315.937C88.2405 316.005 89.04 315.944 89.8471 315.756C90.6617 315.56 91.4612 315.281 92.2456 314.919C93.0376 314.549 93.7956 314.131 94.5196 313.663C95.2588 313.195 95.9489 312.716 96.5901 312.226ZM101.704 327.907L108.73 334.933L107.361 336.302L100.335 329.276L101.704 327.907ZM105.143 324.422L112.192 331.471L110.845 332.817L103.797 325.769L105.143 324.422ZM107.836 320.327L116.4 328.891L107.451 337.84L106.003 336.392L113.572 328.823L107.825 323.076L100.244 330.656L98.8754 329.287L107.836 320.327ZM112.848 321.945L114.387 323.958C113.791 324.207 113.195 324.434 112.599 324.637C112.003 324.841 111.483 325.007 111.038 325.135L109.963 323.517C110.265 323.381 110.585 323.227 110.925 323.053C111.271 322.887 111.611 322.706 111.943 322.51C112.282 322.322 112.584 322.133 112.848 321.945ZM117.158 333.383L125.96 342.185L124.625 343.52L115.823 334.718L117.158 333.383ZM111.117 337.931L121.424 348.238L120.089 349.573L109.782 339.266L111.117 337.931ZM124.297 333.53L125.757 334.989L116.05 344.696L114.59 343.237L124.297 333.53ZM125.451 349.324L132.828 356.7L131.764 357.764L124.388 350.387L125.451 349.324ZM127.567 347.796L135.158 355.388L134.027 356.519L126.436 348.928L127.567 347.796ZM122.216 349.754L132.228 359.766L131.063 360.932L121.05 350.919L122.216 349.754ZM130.893 349.742L132.296 351.145L127.148 356.293L125.745 354.89L130.893 349.742ZM130.837 345.997L130.226 346.608L135.249 351.632L135.86 351.021L130.837 345.997ZM132.387 344.447L131.798 345.036L136.822 350.059L137.41 349.471L132.387 344.447ZM132.081 342.083L139.842 349.844L135.622 354.064L127.861 346.303L132.081 342.083ZM128.563 346.778L129.502 348.486C128.966 348.69 128.404 348.852 127.816 348.973C127.228 349.094 126.647 349.177 126.074 349.222C125.5 349.267 124.972 349.275 124.49 349.244C124.482 349.071 124.463 348.864 124.433 348.622C124.403 348.381 124.365 348.14 124.32 347.898C124.282 347.649 124.237 347.438 124.184 347.265C124.871 347.363 125.602 347.37 126.379 347.287C127.171 347.204 127.899 347.035 128.563 346.778Z" fill="black"/>
<path d="M315.782 82.0921L323.996 90.3059L322.503 91.7993L314.289 83.5855L315.782 82.0921ZM308.259 87.715L318.362 97.8182L316.812 99.3682L306.709 89.265L308.259 87.715ZM327.164 96.3927L326.496 97.0602L331.678 102.242L332.346 101.574L327.164 96.3927ZM328.793 94.7635L328.126 95.431L333.307 100.613L333.975 99.9452L328.793 94.7635ZM328.51 92.4442L336.362 100.296L332.018 104.64L324.166 96.7886L328.51 92.4442ZM323.351 97.0149L331.814 105.478L330.75 106.541L322.288 98.0784L323.351 97.0149ZM320.772 97.7164L331.022 107.967L329.891 109.098L319.64 98.8477L320.772 97.7164ZM331.214 96.0759L332.561 97.4222L325.806 104.176L324.46 102.83L331.214 96.0759ZM322.186 102.66L323.532 103.803C323.298 104.158 323.027 104.535 322.718 104.935C322.408 105.334 322.133 105.655 321.892 105.896L320.41 104.731C320.659 104.482 320.953 104.165 321.292 103.781C321.624 103.403 321.922 103.03 322.186 102.66ZM324.369 104.935L325.886 105.953C325.72 106.36 325.52 106.794 325.286 107.254C325.06 107.706 324.845 108.08 324.641 108.374L323.001 107.322C323.212 107.05 323.446 106.688 323.702 106.236C323.958 105.783 324.181 105.349 324.369 104.935ZM326.666 107.095L328.363 107.955C328.348 108.317 328.31 108.71 328.25 109.132C328.205 109.554 328.145 109.962 328.069 110.354C328.001 110.738 327.914 111.074 327.809 111.361L325.965 110.467C326.063 110.218 326.157 109.897 326.248 109.505C326.338 109.128 326.417 108.725 326.485 108.295C326.561 107.872 326.621 107.473 326.666 107.095ZM320.579 100.194L321.575 101.823C321.055 102.087 320.493 102.302 319.889 102.468C319.278 102.642 318.709 102.721 318.181 102.706L317.457 100.85C317.917 100.903 318.43 100.865 318.995 100.737C319.561 100.609 320.089 100.428 320.579 100.194ZM336.158 106.383L344.96 115.185L343.625 116.52L334.823 107.718L336.158 106.383ZM330.117 110.931L340.424 121.238L339.089 122.573L328.782 112.266L330.117 110.931ZM343.297 106.53L344.757 107.989L335.05 117.696L333.59 116.237L343.297 106.53ZM344.451 122.324L351.828 129.7L350.764 130.764L343.388 123.387L344.451 122.324ZM346.567 120.796L354.158 128.388L353.027 129.519L345.436 121.928L346.567 120.796ZM341.216 122.754L351.228 132.766L350.063 133.932L340.05 123.919L341.216 122.754ZM349.893 122.742L351.296 124.145L346.148 129.293L344.745 127.89L349.893 122.742ZM349.837 118.997L349.226 119.608L354.249 124.632L354.86 124.021L349.837 118.997ZM351.387 117.447L350.798 118.036L355.822 123.059L356.41 122.471L351.387 117.447ZM351.081 115.083L358.842 122.844L354.622 127.064L346.861 119.303L351.081 115.083ZM347.563 119.778L348.502 121.486C347.966 121.69 347.404 121.852 346.816 121.973C346.228 122.094 345.647 122.177 345.074 122.222C344.5 122.267 343.972 122.275 343.49 122.244C343.482 122.071 343.463 121.864 343.433 121.622C343.403 121.381 343.365 121.14 343.32 120.898C343.282 120.649 343.237 120.438 343.184 120.265C343.871 120.363 344.602 120.37 345.379 120.287C346.171 120.204 346.899 120.035 347.563 119.778Z" fill="black"/>
<path d="M213.896 125.728H228.104V127.52H213.896V125.728ZM217.416 132.608H224.568V134.096H217.416V132.608ZM217.08 135.152H224.92V136.688H217.08V135.152ZM220.04 133.344H221.848V138.976H220.04V133.344ZM214.504 128.72H226.088V130.48H216.424V139.392H214.504V128.72ZM225.544 128.72H227.512V137.472C227.512 137.931 227.448 138.283 227.32 138.528C227.192 138.784 226.968 138.976 226.648 139.104C226.317 139.243 225.912 139.323 225.432 139.344C224.963 139.376 224.403 139.392 223.752 139.392C223.709 139.147 223.624 138.869 223.496 138.56C223.379 138.251 223.256 137.984 223.128 137.76C223.395 137.771 223.667 137.781 223.944 137.792C224.221 137.803 224.472 137.808 224.696 137.808C224.931 137.797 225.085 137.792 225.16 137.792C225.309 137.792 225.411 137.771 225.464 137.728C225.517 137.675 225.544 137.589 225.544 137.472V128.72ZM218.024 130.912L219.544 130.464C219.736 130.72 219.912 131.013 220.072 131.344C220.243 131.675 220.371 131.963 220.456 132.208L218.856 132.736C218.792 132.48 218.68 132.181 218.52 131.84C218.36 131.499 218.195 131.189 218.024 130.912ZM222.536 130.496L224.152 130.944C223.939 131.328 223.725 131.701 223.512 132.064C223.309 132.416 223.112 132.725 222.92 132.992L221.56 132.576C221.677 132.384 221.795 132.165 221.912 131.92C222.04 131.675 222.157 131.429 222.264 131.184C222.371 130.939 222.461 130.709 222.536 130.496ZM219.976 124.512H222.072V129.968H219.976V124.512Z" fill="black"/>
<path d="M215.744 79.336L217.792 79.832C217.536 80.6427 217.227 81.4373 216.864 82.216C216.501 82.984 216.112 83.704 215.696 84.376C215.28 85.048 214.848 85.6293 214.4 86.12C214.272 86.0133 214.096 85.8853 213.872 85.736C213.648 85.5867 213.419 85.4427 213.184 85.304C212.96 85.1547 212.763 85.0373 212.592 84.952C213.051 84.5147 213.477 83.9973 213.872 83.4C214.277 82.8027 214.635 82.1573 214.944 81.464C215.264 80.7707 215.531 80.0613 215.744 79.336ZM216.192 81.416H225.984V83.288H215.232L216.192 81.416ZM212.784 86.616H227.248V88.552H212.784V86.616ZM219.008 82.248H221.008V94.44H219.008V82.248Z" fill="black"/>
<path d="M302.656 223.688H313.504V225.464H302.656V223.688ZM301.424 215.864H314.624V226.344H312.672V217.64H303.296V226.376H301.424V215.864ZM308.656 216.6H310.496V219.48C310.496 219.683 310.512 219.811 310.544 219.864C310.587 219.907 310.688 219.928 310.848 219.928C310.88 219.928 310.949 219.928 311.056 219.928C311.173 219.928 311.285 219.928 311.392 219.928C311.509 219.928 311.595 219.928 311.648 219.928C311.744 219.928 311.813 219.912 311.856 219.88C311.909 219.837 311.947 219.757 311.968 219.64C312 219.523 312.021 219.341 312.032 219.096C312.139 219.181 312.283 219.272 312.464 219.368C312.656 219.453 312.853 219.533 313.056 219.608C313.269 219.672 313.461 219.72 313.632 219.752C313.557 220.243 313.451 220.621 313.312 220.888C313.173 221.155 312.987 221.341 312.752 221.448C312.528 221.555 312.235 221.608 311.872 221.608C311.787 221.608 311.685 221.608 311.568 221.608C311.451 221.608 311.323 221.608 311.184 221.608C311.056 221.608 310.933 221.608 310.816 221.608C310.699 221.608 310.603 221.608 310.528 221.608C310.016 221.608 309.621 221.544 309.344 221.416C309.077 221.288 308.896 221.069 308.8 220.76C308.704 220.451 308.656 220.029 308.656 219.496V216.6ZM300.784 212.28H315.168V214.136H300.784V212.28ZM305.152 213.688H307.04V216.888H305.152V213.688ZM308.656 213.688H310.592V216.888H308.656V213.688ZM305.248 216.232H307.04V217.816C307.04 218.349 306.971 218.899 306.832 219.464C306.693 220.029 306.432 220.568 306.048 221.08C305.664 221.592 305.104 222.04 304.368 222.424C304.283 222.307 304.155 222.168 303.984 222.008C303.813 221.848 303.632 221.693 303.44 221.544C303.259 221.395 303.104 221.283 302.976 221.208C303.648 220.867 304.144 220.504 304.464 220.12C304.795 219.736 305.008 219.341 305.104 218.936C305.2 218.531 305.248 218.141 305.248 217.768V216.232Z" fill="black"/>
<path d="M347.928 224.008H358.488V225.688H347.928V224.008ZM347.928 221.448H358.52V223.032H347.928V221.448ZM346.584 215.672H359.48V226.424H357.608V217.384H348.376V226.424H346.584V215.672ZM353.352 213.512H355.192V218.568C355.192 218.803 355.208 218.947 355.24 219C355.283 219.053 355.368 219.08 355.496 219.08C355.528 219.08 355.576 219.08 355.64 219.08C355.704 219.08 355.773 219.08 355.848 219.08C355.923 219.08 355.992 219.08 356.056 219.08C356.131 219.08 356.184 219.08 356.216 219.08C356.291 219.08 356.349 219.059 356.392 219.016C356.445 218.973 356.483 218.888 356.504 218.76C356.525 218.632 356.541 218.445 356.552 218.2C356.733 218.328 356.973 218.451 357.272 218.568C357.581 218.685 357.859 218.776 358.104 218.84C358.019 219.523 357.848 219.992 357.592 220.248C357.336 220.504 356.941 220.632 356.408 220.632C356.333 220.632 356.237 220.632 356.12 220.632C356.013 220.632 355.896 220.632 355.768 220.632C355.651 220.632 355.539 220.632 355.432 220.632C355.325 220.632 355.235 220.632 355.16 220.632C354.659 220.632 354.28 220.573 354.024 220.456C353.768 220.328 353.592 220.115 353.496 219.816C353.4 219.507 353.352 219.091 353.352 218.568V213.512ZM350.312 213.512H352.04V217.016C352.04 217.667 351.965 218.248 351.816 218.76C351.677 219.272 351.4 219.72 350.984 220.104C350.568 220.488 349.944 220.808 349.112 221.064C348.995 220.861 348.829 220.632 348.616 220.376C348.403 220.12 348.205 219.907 348.024 219.736C348.675 219.544 349.165 219.315 349.496 219.048C349.827 218.781 350.045 218.477 350.152 218.136C350.259 217.784 350.312 217.405 350.312 217V213.512ZM345.864 212.312H360.168V214.152H345.864V212.312Z" fill="black"/>
<path d="M213.896 302.208H218.648V304.112H213.896V302.208ZM221.72 298.672H223.72V310.208C223.72 310.656 223.757 310.944 223.832 311.072C223.907 311.189 224.093 311.248 224.392 311.248C224.456 311.248 224.563 311.248 224.712 311.248C224.861 311.248 225.027 311.248 225.208 311.248C225.389 311.248 225.555 311.248 225.704 311.248C225.853 311.248 225.965 311.248 226.04 311.248C226.253 311.248 226.413 311.157 226.52 310.976C226.627 310.795 226.701 310.469 226.744 310C226.797 309.52 226.84 308.853 226.872 308C227.032 308.117 227.219 308.235 227.432 308.352C227.656 308.469 227.88 308.576 228.104 308.672C228.328 308.757 228.531 308.821 228.712 308.864C228.648 309.888 228.536 310.715 228.376 311.344C228.227 311.973 227.981 312.427 227.64 312.704C227.309 312.992 226.84 313.136 226.232 313.136C226.147 313.136 226.003 313.136 225.8 313.136C225.597 313.136 225.379 313.136 225.144 313.136C224.92 313.136 224.712 313.136 224.52 313.136C224.328 313.136 224.184 313.136 224.088 313.136C223.48 313.136 223 313.045 222.648 312.864C222.307 312.693 222.067 312.395 221.928 311.968C221.789 311.531 221.72 310.939 221.72 310.192V298.672ZM217.688 298.672H219.688V313.264H217.688V298.672ZM227 301.056L228.392 302.784C227.837 303.157 227.251 303.531 226.632 303.904C226.013 304.267 225.384 304.624 224.744 304.976C224.115 305.317 223.496 305.637 222.888 305.936C222.824 305.723 222.712 305.472 222.552 305.184C222.392 304.885 222.248 304.635 222.12 304.432C222.696 304.123 223.277 303.776 223.864 303.392C224.451 303.008 225.011 302.613 225.544 302.208C226.088 301.803 226.573 301.419 227 301.056ZM213.32 309.456C213.757 309.328 214.264 309.173 214.84 308.992C215.416 308.8 216.024 308.592 216.664 308.368C217.304 308.133 217.939 307.904 218.568 307.68L218.936 309.408C218.136 309.771 217.315 310.128 216.472 310.48C215.64 310.832 214.877 311.152 214.184 311.44L213.32 309.456Z" fill="black"/>
<path d="M213.624 350.408H228.392V352.344H213.624V350.408ZM220.008 347.864H222.024V356.2C222.024 356.744 221.949 357.165 221.8 357.464C221.661 357.763 221.395 357.987 221 358.136C220.616 358.285 220.147 358.381 219.592 358.424C219.037 358.467 218.392 358.483 217.656 358.472C217.624 358.28 217.56 358.061 217.464 357.816C217.368 357.581 217.267 357.341 217.16 357.096C217.053 356.861 216.947 356.659 216.84 356.488C217.213 356.499 217.581 356.509 217.944 356.52C218.317 356.531 218.648 356.536 218.936 356.536C219.235 356.536 219.443 356.536 219.56 356.536C219.731 356.536 219.848 356.509 219.912 356.456C219.976 356.403 220.008 356.307 220.008 356.168V347.864ZM215.304 344.392H225.384V346.28H215.304V344.392ZM224.744 344.392H225.256L225.704 344.28L227.16 345.384C226.669 345.907 226.104 346.429 225.464 346.952C224.835 347.475 224.179 347.976 223.496 348.456C222.813 348.925 222.147 349.331 221.496 349.672C221.4 349.533 221.277 349.379 221.128 349.208C220.979 349.037 220.824 348.872 220.664 348.712C220.504 348.541 220.36 348.397 220.232 348.28C220.808 347.992 221.389 347.645 221.976 347.24C222.573 346.835 223.117 346.419 223.608 345.992C224.099 345.565 224.477 345.176 224.744 344.824V344.392Z" fill="black"/>
<path d="M189.608 391.72H204.424V393.816H189.608V391.72ZM207.992 397.432H217.928V399.368H207.992V397.432ZM207.96 392.536H217.928V394.44H207.96V392.536ZM206.968 387.736H219.08V400.392H217.032V389.688H208.904V400.408H206.968V387.736ZM211.656 385.336L214.168 385.672C213.923 386.269 213.661 386.851 213.384 387.416C213.107 387.981 212.856 388.467 212.632 388.872L210.728 388.488C210.845 388.179 210.963 387.843 211.08 387.48C211.208 387.117 211.32 386.749 211.416 386.376C211.523 386.003 211.603 385.656 211.656 385.336ZM221.832 389.336H226.28V391.272H221.832V389.336ZM228.04 385.416H230.088V397.944C230.088 398.52 230.019 398.968 229.88 399.288C229.741 399.608 229.501 399.853 229.16 400.024C228.819 400.195 228.381 400.307 227.848 400.36C227.325 400.424 226.696 400.456 225.96 400.456C225.939 400.253 225.885 400.019 225.8 399.752C225.725 399.496 225.635 399.24 225.528 398.984C225.421 398.717 225.315 398.493 225.208 398.312C225.731 398.333 226.221 398.344 226.68 398.344C227.139 398.344 227.448 398.344 227.608 398.344C227.768 398.344 227.88 398.312 227.944 398.248C228.008 398.184 228.04 398.083 228.04 397.944V385.416ZM225.624 389.336H226.024L226.376 389.256L227.688 389.736C227.453 391.197 227.101 392.525 226.632 393.72C226.173 394.915 225.629 395.965 225 396.872C224.381 397.768 223.688 398.499 222.92 399.064C222.813 398.904 222.664 398.728 222.472 398.536C222.28 398.333 222.077 398.141 221.864 397.96C221.661 397.779 221.48 397.64 221.32 397.544C222.056 397.043 222.712 396.413 223.288 395.656C223.864 394.888 224.349 394.008 224.744 393.016C225.149 392.013 225.443 390.925 225.624 389.752V389.336ZM229.96 387.752C230.216 388.819 230.541 389.843 230.936 390.824C231.341 391.805 231.816 392.723 232.36 393.576C232.904 394.429 233.533 395.192 234.248 395.864C234.973 396.525 235.784 397.069 236.68 397.496C236.52 397.624 236.344 397.789 236.152 397.992C235.96 398.195 235.779 398.413 235.608 398.648C235.448 398.872 235.309 399.08 235.192 399.272C233.955 398.568 232.904 397.661 232.04 396.552C231.176 395.432 230.456 394.152 229.88 392.712C229.304 391.272 228.824 389.725 228.44 388.072L229.96 387.752ZM234.456 387.912L236.264 389.176C235.805 389.645 235.32 390.131 234.808 390.632C234.296 391.133 233.784 391.608 233.272 392.056C232.771 392.504 232.296 392.893 231.848 393.224L230.456 392.152C230.893 391.789 231.352 391.368 231.832 390.888C232.323 390.408 232.797 389.912 233.256 389.4C233.715 388.877 234.115 388.381 234.456 387.912ZM239.928 395.784H250.36V397.288H239.928V395.784ZM240.344 393.208H251.08V394.808H240.344V393.208ZM237.944 398.376H252.104V400.024H237.944V398.376ZM244.072 392.232H246.056V399.512H244.072V392.232ZM241.384 389.624V390.488H248.488V389.624H241.384ZM241.384 387.432V388.264H248.488V387.432H241.384ZM239.496 385.976H250.472V391.944H239.496V385.976ZM240.328 391.784L242.2 392.328C241.965 392.851 241.683 393.363 241.352 393.864C241.021 394.365 240.669 394.835 240.296 395.272C239.923 395.709 239.555 396.088 239.192 396.408C239.064 396.291 238.904 396.157 238.712 396.008C238.52 395.859 238.323 395.715 238.12 395.576C237.917 395.427 237.736 395.309 237.576 395.224C238.131 394.808 238.653 394.296 239.144 393.688C239.645 393.069 240.04 392.435 240.328 391.784Z" fill="black"/>
<path d="M193.152 34.624H195.248C195.237 35.8933 195.211 37.1307 195.168 38.336C195.125 39.5307 195.019 40.672 194.848 41.76C194.677 42.8373 194.4 43.8507 194.016 44.8C193.632 45.7387 193.093 46.6027 192.4 47.392C191.717 48.1707 190.832 48.8533 189.744 49.44C189.659 49.28 189.536 49.0987 189.376 48.896C189.216 48.704 189.045 48.512 188.864 48.32C188.693 48.1387 188.523 47.9947 188.352 47.888C189.365 47.3653 190.176 46.7627 190.784 46.08C191.403 45.3973 191.877 44.6453 192.208 43.824C192.539 42.992 192.768 42.0907 192.896 41.12C193.024 40.1493 193.093 39.12 193.104 38.032C193.125 36.944 193.141 35.808 193.152 34.624ZM189.168 38.336H199.008V40.272H189.168V38.336ZM197.952 38.336H199.952V46.56C199.952 46.9013 199.979 47.12 200.032 47.216C200.085 47.3013 200.208 47.344 200.4 47.344C200.443 47.344 200.512 47.344 200.608 47.344C200.704 47.344 200.811 47.344 200.928 47.344C201.045 47.344 201.152 47.344 201.248 47.344C201.355 47.344 201.429 47.344 201.472 47.344C201.611 47.344 201.712 47.28 201.776 47.152C201.84 47.024 201.888 46.784 201.92 46.432C201.952 46.08 201.979 45.568 202 44.896C202.16 45.0133 202.341 45.1253 202.544 45.232C202.757 45.3387 202.976 45.44 203.2 45.536C203.424 45.6213 203.627 45.6853 203.808 45.728C203.755 46.592 203.653 47.28 203.504 47.792C203.355 48.2933 203.136 48.6507 202.848 48.864C202.56 49.088 202.171 49.2 201.68 49.2C201.595 49.2 201.477 49.2 201.328 49.2C201.179 49.2 201.019 49.2 200.848 49.2C200.677 49.2 200.517 49.2 200.368 49.2C200.229 49.2 200.123 49.2 200.048 49.2C199.525 49.2 199.109 49.12 198.8 48.96C198.501 48.8107 198.283 48.544 198.144 48.16C198.016 47.776 197.952 47.2373 197.952 46.544V38.336ZM210.976 44.96H212.96V49.44H210.976V44.96ZM204.72 44.288C205.499 44.288 206.384 44.288 207.376 44.288C208.368 44.2773 209.424 44.2667 210.544 44.256C211.664 44.2347 212.816 44.2187 214 44.208C215.184 44.1867 216.357 44.1707 217.52 44.16L217.424 45.68C216.283 45.7227 215.131 45.76 213.968 45.792C212.816 45.824 211.685 45.856 210.576 45.888C209.477 45.9093 208.432 45.936 207.44 45.968C206.459 45.9893 205.573 46.0053 204.784 46.016L204.72 44.288ZM210.608 39.904L212.384 40.608C211.893 41.0667 211.371 41.5093 210.816 41.936C210.272 42.352 209.765 42.704 209.296 42.992L207.824 42.304C208.133 42.0907 208.459 41.8507 208.8 41.584C209.152 41.3067 209.483 41.024 209.792 40.736C210.101 40.4373 210.373 40.16 210.608 39.904ZM214.016 40.88L215.904 41.648C215.275 42.1387 214.592 42.6187 213.856 43.088C213.131 43.5573 212.405 44 211.68 44.416C210.955 44.832 210.272 45.1947 209.632 45.504L208.176 44.72C208.827 44.4 209.509 44.0213 210.224 43.584C210.949 43.1467 211.643 42.6933 212.304 42.224C212.965 41.744 213.536 41.296 214.016 40.88ZM206.32 42.416L207.696 41.296C208.133 41.4773 208.587 41.6853 209.056 41.92C209.536 42.144 209.995 42.3733 210.432 42.608C210.869 42.832 211.248 43.04 211.568 43.232L210.176 44.496C209.877 44.2933 209.504 44.0693 209.056 43.824C208.619 43.568 208.16 43.3173 207.68 43.072C207.211 42.8267 206.757 42.608 206.32 42.416ZM213.92 47.088L215.584 46.208C216 46.4107 216.432 46.6453 216.88 46.912C217.328 47.168 217.76 47.4293 218.176 47.696C218.603 47.952 218.965 48.1813 219.264 48.384L217.552 49.392C217.275 49.168 216.928 48.9173 216.512 48.64C216.096 48.3733 215.659 48.1013 215.2 47.824C214.752 47.536 214.325 47.2907 213.92 47.088ZM208.08 46.24L209.904 46.944C209.584 47.2533 209.205 47.5627 208.768 47.872C208.341 48.1813 207.899 48.4693 207.44 48.736C206.992 49.0027 206.56 49.2373 206.144 49.44C206.027 49.3227 205.872 49.1787 205.68 49.008C205.499 48.848 205.307 48.688 205.104 48.528C204.912 48.3787 204.741 48.256 204.592 48.16C205.232 47.9253 205.872 47.6373 206.512 47.296C207.152 46.9547 207.675 46.6027 208.08 46.24ZM214.48 43.312L216.128 42.592C216.523 42.9013 216.933 43.248 217.36 43.632C217.797 44.016 218.208 44.4 218.592 44.784C218.976 45.168 219.291 45.52 219.536 45.84L217.744 46.64C217.531 46.3307 217.243 45.984 216.88 45.6C216.528 45.2053 216.139 44.8107 215.712 44.416C215.285 44.0107 214.875 43.6427 214.48 43.312ZM208.912 35.808H211.92V37.328H208.912V35.808ZM212.496 34.4H214.4V38.48C214.4 38.736 214.443 38.9013 214.528 38.976C214.624 39.04 214.832 39.072 215.152 39.072C215.227 39.072 215.349 39.072 215.52 39.072C215.691 39.072 215.877 39.072 216.08 39.072C216.283 39.072 216.475 39.072 216.656 39.072C216.837 39.072 216.971 39.072 217.056 39.072C217.237 39.072 217.371 39.0453 217.456 38.992C217.552 38.928 217.621 38.8107 217.664 38.64C217.707 38.4587 217.739 38.1973 217.76 37.856C217.952 37.984 218.213 38.112 218.544 38.24C218.875 38.3573 219.173 38.4427 219.44 38.496C219.365 39.0827 219.248 39.5413 219.088 39.872C218.928 40.192 218.704 40.416 218.416 40.544C218.128 40.672 217.739 40.736 217.248 40.736C217.163 40.736 217.04 40.736 216.88 40.736C216.731 40.736 216.56 40.736 216.368 40.736C216.176 40.736 215.979 40.736 215.776 40.736C215.584 40.736 215.408 40.736 215.248 40.736C215.099 40.736 214.987 40.736 214.912 40.736C214.261 40.736 213.76 40.6667 213.408 40.528C213.067 40.3893 212.827 40.16 212.688 39.84C212.56 39.5093 212.496 39.0613 212.496 38.496V34.4ZM204.528 39.296C205.147 39.2427 205.861 39.1733 206.672 39.088C207.493 38.992 208.357 38.8907 209.264 38.784C210.181 38.6773 211.093 38.5707 212 38.464L212.048 39.968C211.184 40.096 210.309 40.224 209.424 40.352C208.539 40.4693 207.691 40.5867 206.88 40.704C206.08 40.8107 205.349 40.912 204.688 41.008L204.528 39.296ZM217.568 35.168L218.992 36.512C218.48 36.736 217.925 36.944 217.328 37.136C216.741 37.3173 216.139 37.488 215.52 37.648C214.901 37.7973 214.304 37.9307 213.728 38.048C213.696 37.856 213.621 37.6267 213.504 37.36C213.397 37.0827 213.291 36.8533 213.184 36.672C213.707 36.5333 214.24 36.384 214.784 36.224C215.328 36.064 215.84 35.8933 216.32 35.712C216.8 35.5307 217.216 35.3493 217.568 35.168ZM208.128 34.4H209.904V39.84L208.128 39.968V34.4ZM205.52 35.584H207.168V39.984L205.52 40.128V35.584ZM227.936 36.24C227.499 36.848 226.944 37.4773 226.272 38.128C225.611 38.7787 224.875 39.4027 224.064 40C223.264 40.5973 222.427 41.1307 221.552 41.6C221.467 41.44 221.355 41.264 221.216 41.072C221.088 40.88 220.944 40.6933 220.784 40.512C220.635 40.3307 220.491 40.1707 220.352 40.032C221.269 39.5947 222.149 39.056 222.992 38.416C223.835 37.7653 224.587 37.088 225.248 36.384C225.92 35.68 226.453 35.0027 226.848 34.352H228.848C229.285 34.96 229.765 35.5413 230.288 36.096C230.811 36.6507 231.371 37.1627 231.968 37.632C232.565 38.1013 233.179 38.5227 233.808 38.896C234.437 39.2693 235.072 39.584 235.712 39.84C235.467 40.0853 235.237 40.3627 235.024 40.672C234.811 40.9813 234.613 41.28 234.432 41.568C233.824 41.248 233.205 40.88 232.576 40.464C231.957 40.048 231.36 39.6053 230.784 39.136C230.208 38.656 229.675 38.1707 229.184 37.68C228.693 37.1893 228.277 36.7093 227.936 36.24ZM223.936 39.2H231.984V40.88H223.936V39.2ZM222.016 42.464H233.872V44.128H222.016V42.464ZM221.216 47.328H234.816V48.976H221.216V47.328ZM226.896 39.872H228.928V48.16H226.896V39.872ZM223.024 44.736L224.56 44.096C224.763 44.3627 224.96 44.656 225.152 44.976C225.355 45.296 225.536 45.6107 225.696 45.92C225.856 46.2293 225.973 46.5067 226.048 46.752L224.4 47.488C224.336 47.2427 224.229 46.96 224.08 46.64C223.931 46.3093 223.765 45.9787 223.584 45.648C223.403 45.3173 223.216 45.0133 223.024 44.736ZM231.152 44.112L232.992 44.784C232.672 45.2747 232.341 45.7653 232 46.256C231.659 46.736 231.344 47.1467 231.056 47.488L229.616 46.88C229.797 46.624 229.984 46.3413 230.176 46.032C230.368 45.712 230.549 45.3867 230.72 45.056C230.891 44.7147 231.035 44.4 231.152 44.112ZM238.928 44.784H249.36V46.288H238.928V44.784ZM239.344 42.208H250.08V43.808H239.344V42.208ZM236.944 47.376H251.104V49.024H236.944V47.376ZM243.072 41.232H245.056V48.512H243.072V41.232ZM240.384 38.624V39.488H247.488V38.624H240.384ZM240.384 36.432V37.264H247.488V36.432H240.384ZM238.496 34.976H249.472V40.944H238.496V34.976ZM239.328 40.784L241.2 41.328C240.965 41.8507 240.683 42.3627 240.352 42.864C240.021 43.3653 239.669 43.8347 239.296 44.272C238.923 44.7093 238.555 45.088 238.192 45.408C238.064 45.2907 237.904 45.1573 237.712 45.008C237.52 44.8587 237.323 44.7147 237.12 44.576C236.917 44.4267 236.736 44.3093 236.576 44.224C237.131 43.808 237.653 43.296 238.144 42.688C238.645 42.0693 239.04 41.4347 239.328 40.784Z" fill="black"/>
<path d="M205.24 199.84H220.7V202.22H205.24V199.84ZM204.08 213.46H222.02V215.84H204.08V213.46ZM210.8 200.68H213.54C213.34 201.88 213.12 203.127 212.88 204.42C212.64 205.713 212.393 207 212.14 208.28C211.887 209.56 211.633 210.773 211.38 211.92C211.14 213.067 210.907 214.087 210.68 214.98H207.98C208.22 214.047 208.473 213 208.74 211.84C209.007 210.667 209.26 209.447 209.5 208.18C209.753 206.9 209.993 205.62 210.22 204.34C210.447 203.06 210.64 201.84 210.8 200.68ZM205.9 205.7H218.88V214.58H216.38V208.06H205.9V205.7ZM224 202.8H242.08V204.98H224V202.8ZM225.42 199.48H240.7V201.58H225.42V199.48ZM228.72 198H231.16V203.86H228.72V198ZM234.9 198H237.38V203.86H234.9V198ZM231.78 204.04H234.26V212.24H231.78V204.04ZM228.3 210.28V211.44H237.84V210.28H228.3ZM228.3 207.62V208.74H237.84V207.62H228.3ZM226 205.96H240.26V213.08H226V205.96ZM234.44 214.36L235.78 212.84C236.513 213.08 237.253 213.34 238 213.62C238.76 213.9 239.48 214.173 240.16 214.44C240.853 214.707 241.447 214.947 241.94 215.16L240.22 216.76C239.78 216.547 239.247 216.3 238.62 216.02C237.993 215.753 237.32 215.473 236.6 215.18C235.88 214.887 235.16 214.613 234.44 214.36ZM229.84 212.92L231.88 214.34C231.347 214.673 230.72 214.993 230 215.3C229.28 215.62 228.54 215.913 227.78 216.18C227.02 216.447 226.3 216.673 225.62 216.86C225.42 216.607 225.153 216.313 224.82 215.98C224.5 215.66 224.207 215.387 223.94 215.16C224.647 215 225.367 214.8 226.1 214.56C226.847 214.307 227.553 214.033 228.22 213.74C228.887 213.447 229.427 213.173 229.84 212.92ZM205.24 228.22H220.8V230.58H205.24V228.22ZM203.92 237.58H222.14V239.94H203.92V237.58ZM211.68 222.04H214.26V239.2H211.68V222.04ZM226.66 234.98H239.7V236.86H226.66V234.98ZM227.18 231.76H240.6V233.76H227.18V231.76ZM224.18 238.22H241.88V240.28H224.18V238.22ZM231.84 230.54H234.32V239.64H231.84V230.54ZM228.48 227.28V228.36H237.36V227.28H228.48ZM228.48 224.54V225.58H237.36V224.54H228.48ZM226.12 222.72H239.84V230.18H226.12V222.72ZM227.16 229.98L229.5 230.66C229.207 231.313 228.853 231.953 228.44 232.58C228.027 233.207 227.587 233.793 227.12 234.34C226.653 234.887 226.193 235.36 225.74 235.76C225.58 235.613 225.38 235.447 225.14 235.26C224.9 235.073 224.653 234.893 224.4 234.72C224.147 234.533 223.92 234.387 223.72 234.28C224.413 233.76 225.067 233.12 225.68 232.36C226.307 231.587 226.8 230.793 227.16 229.98Z" fill="white"/>
<defs>
<linearGradient id="paint0_linear_56_181" x1="220.75" y1="26" x2="220.75" y2="412.5" gradientUnits="userSpaceOnUse">
<stop stop-color="#FFFBA7"/>
<stop offset="1" stop-color="#FDFAEC"/>
</linearGradient>
<linearGradient id="paint1_linear_56_181" x1="221" y1="64" x2="221" y2="374" gradientUnits="userSpaceOnUse">
<stop stop-color="#FFFDDC"/>
<stop offset="1" stop-color="#E3F8FF"/>
</linearGradient>
<linearGradient id="paint2_linear_56_181" x1="221" y1="109" x2="221" y2="329" gradientUnits="userSpaceOnUse">
<stop stop-color="#C8EEFF"/>
<stop offset="1" stop-color="#E1F3FF"/>
</linearGradient>
<linearGradient id="paint3_linear_56_181" x1="221" y1="154" x2="221" y2="284" gradientUnits="userSpaceOnUse">
<stop stop-color="#58C7FF"/>
<stop offset="1" stop-color="#9FE0FF"/>
</linearGradient>
</defs>
</svg>
