<svg width="442" height="452" viewBox="0 0 442 452" fill="none" xmlns="http://www.w3.org/2000/svg">
<rect width="442" height="452" fill="white"/>
<path d="M272.5 26H169L27.5 166.5V270.5L169 412.5H272.5L414 270.5V166.5L272.5 26Z" fill="url(#paint0_linear_56_253)" stroke="#FFFDE8"/>
<path d="M262.507 64H179.493L66 176.691V260.106L179.493 374H262.507L376 260.106V176.691L262.507 64Z" fill="url(#paint1_linear_56_253)" stroke="#FEFFEA"/>
<path d="M250.457 109H191.543L111 188.974V248.172L191.543 329H250.457L331 248.172V188.974L250.457 109Z" fill="url(#paint2_linear_56_253)" stroke="#DDF4FF"/>
<path d="M414.37 270.528L28 167" stroke="#888686"/>
<path d="M272.527 26L186.777 346.024L169 412.37" stroke="#888686" stroke-opacity="0.82"/>
<path d="M169 26L272.528 412.37" stroke="#888686"/>
<path d="M414.37 167L28 270.528" stroke="#888886"/>
<path d="M238.406 154H203.594L156 201.257V236.238L203.594 284H238.406L286 236.238V201.257L238.406 154Z" fill="url(#paint3_linear_56_253)" stroke="#B9E7FD"/>
<path d="M126.928 212.728H141.136V214.52H126.928V212.728ZM132.96 211.416H134.96V226.44H132.96V211.416ZM132.464 220.552L134.096 221.224C133.723 221.757 133.296 222.269 132.816 222.76C132.347 223.251 131.835 223.715 131.28 224.152C130.736 224.579 130.165 224.968 129.568 225.32C128.981 225.683 128.389 225.992 127.792 226.248C127.685 226.088 127.557 225.907 127.408 225.704C127.259 225.501 127.099 225.304 126.928 225.112C126.757 224.92 126.603 224.76 126.464 224.632C127.051 224.429 127.632 224.184 128.208 223.896C128.784 223.597 129.339 223.272 129.872 222.92C130.405 222.557 130.891 222.179 131.328 221.784C131.776 221.379 132.155 220.968 132.464 220.552ZM135.504 220.616C135.824 221.021 136.208 221.421 136.656 221.816C137.115 222.2 137.611 222.573 138.144 222.936C138.688 223.288 139.253 223.608 139.84 223.896C140.427 224.173 141.013 224.413 141.6 224.616C141.451 224.744 141.285 224.904 141.104 225.096C140.933 225.299 140.768 225.501 140.608 225.704C140.459 225.917 140.331 226.109 140.224 226.28C139.627 226.035 139.035 225.731 138.448 225.368C137.861 225.016 137.291 224.627 136.736 224.2C136.192 223.763 135.68 223.299 135.2 222.808C134.731 222.317 134.309 221.811 133.936 221.288L135.504 220.616ZM130.144 219.176V220.152H137.904V219.176H130.144ZM130.144 216.872V217.832H137.904V216.872H130.144ZM128.272 215.432H139.872V221.592H128.272V215.432Z" fill="black"/>
<path d="M82.744 213.856L84.552 214.432V222.752H82.744V213.856ZM93.896 213.952H95.752V222.624C95.752 223.051 95.704 223.413 95.608 223.712C95.512 224 95.3253 224.224 95.048 224.384C94.7707 224.544 94.44 224.645 94.056 224.688C93.6827 224.731 93.2453 224.752 92.744 224.752C92.7227 224.571 92.6747 224.363 92.6 224.128C92.5253 223.893 92.44 223.659 92.344 223.424C92.2587 223.189 92.168 222.987 92.072 222.816C92.4027 222.827 92.7173 222.837 93.016 222.848C93.3147 222.848 93.5173 222.848 93.624 222.848C93.7307 222.848 93.8 222.827 93.832 222.784C93.8747 222.741 93.896 222.672 93.896 222.576V213.952ZM81.496 222.432C82.1787 222.293 83 222.112 83.96 221.888C84.92 221.653 85.896 221.419 86.888 221.184L87.096 222.8C86.2107 223.045 85.3147 223.285 84.408 223.52C83.5013 223.755 82.6747 223.973 81.928 224.176L81.496 222.432ZM86.648 215.76H88.44V220.048C88.44 220.763 88.3813 221.472 88.264 222.176C88.1573 222.869 87.944 223.541 87.624 224.192C87.304 224.843 86.8293 225.445 86.2 226C85.5707 226.555 84.7333 227.04 83.688 227.456C83.6133 227.317 83.5067 227.152 83.368 226.96C83.24 226.779 83.096 226.603 82.936 226.432C82.7867 226.261 82.648 226.123 82.52 226.016C83.4373 225.653 84.168 225.248 84.712 224.8C85.2667 224.341 85.6827 223.856 85.96 223.344C86.2373 222.821 86.4187 222.283 86.504 221.728C86.6 221.163 86.648 220.592 86.648 220.016V215.76ZM89.704 213.952H94.872V215.696H91.512V227.44H89.704V213.952ZM87.256 212.432L88.968 213.648C88.4667 213.936 87.9387 214.224 87.384 214.512C86.8293 214.789 86.28 215.051 85.736 215.296C85.2027 215.541 84.696 215.749 84.216 215.92L82.984 214.864C83.432 214.661 83.9173 214.427 84.44 214.16C84.9627 213.883 85.4693 213.595 85.96 213.296C86.4613 212.987 86.8933 212.699 87.256 212.432Z" fill="black"/>
<path d="M37.264 183.808H50.8V196.848H48.768V185.664H39.2V196.976H37.264V183.808ZM38.288 194.08H49.824V195.92H38.288V194.08ZM44.544 185.152H46.416V189.6C46.416 189.845 46.432 189.989 46.464 190.032C46.5173 190.085 46.6027 190.112 46.72 190.112C46.7733 190.112 46.8427 190.112 46.928 190.112C47.0133 190.112 47.0827 190.112 47.136 190.112C47.1893 190.112 47.2427 190.107 47.296 190.096C47.36 190.085 47.408 190.069 47.44 190.048C47.472 190.027 47.504 189.995 47.536 189.952C47.5787 189.899 47.6053 189.819 47.616 189.712C47.6373 189.605 47.648 189.44 47.648 189.216C47.6587 188.981 47.6693 188.715 47.68 188.416C47.8507 188.565 48.0747 188.715 48.352 188.864C48.64 189.013 48.9067 189.125 49.152 189.2C49.1307 189.52 49.0987 189.84 49.056 190.16C49.024 190.469 48.976 190.699 48.912 190.848C48.8373 191.008 48.7467 191.141 48.64 191.248C48.544 191.344 48.416 191.429 48.256 191.504C48.128 191.568 47.968 191.616 47.776 191.648C47.5947 191.669 47.424 191.68 47.264 191.68C47.168 191.68 47.056 191.68 46.928 191.68C46.8 191.68 46.672 191.68 46.544 191.68C46.4267 191.68 46.32 191.68 46.224 191.68C46.0107 191.68 45.792 191.648 45.568 191.584C45.344 191.52 45.152 191.419 44.992 191.28C44.8427 191.141 44.7307 190.955 44.656 190.72C44.5813 190.485 44.544 190.096 44.544 189.552V185.152ZM41.312 185.12H43.184C43.152 186.219 43.0613 187.237 42.912 188.176C42.7627 189.115 42.496 189.957 42.112 190.704C41.728 191.451 41.1467 192.091 40.368 192.624C40.2613 192.4 40.0907 192.149 39.856 191.872C39.6213 191.584 39.3973 191.355 39.184 191.184C39.8133 190.768 40.272 190.261 40.56 189.664C40.848 189.056 41.04 188.373 41.136 187.616C41.232 186.848 41.2907 186.016 41.312 185.12ZM50 208.648L51.456 209.608C51.136 209.981 50.8053 210.36 50.464 210.744C50.1333 211.128 49.8347 211.453 49.568 211.72L48.4 210.888C48.5707 210.685 48.752 210.456 48.944 210.2C49.1467 209.944 49.3387 209.683 49.52 209.416C49.712 209.139 49.872 208.883 50 208.648ZM42.848 209.64L44.16 208.776C44.448 209.085 44.7413 209.437 45.04 209.832C45.3387 210.216 45.5573 210.563 45.696 210.872L44.304 211.832C44.176 211.523 43.968 211.165 43.68 210.76C43.4027 210.344 43.1253 209.971 42.848 209.64ZM43.296 201.992H50.048V207.4H48.176V203.544H43.296V201.992ZM43.68 204.344H49.216V205.832H43.68V204.344ZM42.544 206.68H51.376V208.28H42.544V206.68ZM46.048 207.4H47.824V214.6C47.824 215.005 47.7813 215.325 47.696 215.56C47.6107 215.805 47.4347 215.992 47.168 216.12C46.9227 216.259 46.6187 216.344 46.256 216.376C45.904 216.419 45.488 216.44 45.008 216.44C44.9867 216.195 44.928 215.912 44.832 215.592C44.736 215.283 44.6347 215.011 44.528 214.776C44.7947 214.787 45.0507 214.797 45.296 214.808C45.552 214.808 45.7227 214.803 45.808 214.792C45.968 214.792 46.048 214.717 46.048 214.568V207.4ZM41.92 213.896C42.3467 213.661 42.864 213.357 43.472 212.984C44.08 212.6 44.6987 212.205 45.328 211.8L45.92 213.24C45.408 213.635 44.88 214.029 44.336 214.424C43.8027 214.808 43.3013 215.171 42.832 215.512L41.92 213.896ZM47.76 208.28C47.856 208.803 48 209.347 48.192 209.912C48.384 210.467 48.6293 211.016 48.928 211.56C49.2267 212.093 49.5947 212.584 50.032 213.032C50.48 213.469 51.008 213.832 51.616 214.12C51.4987 214.227 51.3653 214.371 51.216 214.552C51.0667 214.733 50.9227 214.92 50.784 215.112C50.6453 215.315 50.5333 215.496 50.448 215.656C49.872 215.304 49.3707 214.872 48.944 214.36C48.528 213.848 48.1707 213.299 47.872 212.712C47.5733 212.115 47.328 211.523 47.136 210.936C46.9547 210.349 46.8107 209.805 46.704 209.304L47.76 208.28ZM38.864 201.416L40.528 202.008C40.3147 202.424 40.0907 202.851 39.856 203.288C39.6213 203.715 39.392 204.131 39.168 204.536C38.944 204.931 38.7307 205.277 38.528 205.576L37.248 205.048C37.44 204.717 37.6373 204.344 37.84 203.928C38.0427 203.512 38.2347 203.08 38.416 202.632C38.608 202.184 38.7573 201.779 38.864 201.416ZM40.672 203.32L42.24 204.024C41.8453 204.621 41.4187 205.251 40.96 205.912C40.5013 206.573 40.0427 207.208 39.584 207.816C39.1253 208.424 38.688 208.957 38.272 209.416L37.168 208.808C37.4667 208.445 37.776 208.04 38.096 207.592C38.4267 207.133 38.7467 206.659 39.056 206.168C39.376 205.667 39.6747 205.171 39.952 204.68C40.2293 204.189 40.4693 203.736 40.672 203.32ZM36.4 205.16L37.344 203.864C37.6107 204.12 37.888 204.397 38.176 204.696C38.464 204.995 38.7307 205.293 38.976 205.592C39.2213 205.891 39.4027 206.168 39.52 206.424L38.496 207.88C38.3787 207.624 38.2027 207.336 37.968 207.016C37.744 206.696 37.4933 206.376 37.216 206.056C36.9387 205.725 36.6667 205.427 36.4 205.16ZM40.128 207.144L41.472 206.6C41.6853 206.952 41.888 207.336 42.08 207.752C42.272 208.168 42.4427 208.573 42.592 208.968C42.7413 209.352 42.848 209.699 42.912 210.008L41.456 210.648C41.4133 210.339 41.3227 209.981 41.184 209.576C41.0453 209.171 40.8853 208.76 40.704 208.344C40.5227 207.917 40.3307 207.517 40.128 207.144ZM36.352 208.424C37.0667 208.392 37.9093 208.349 38.88 208.296C39.8507 208.232 40.8373 208.168 41.84 208.104L41.872 209.672C40.9333 209.747 39.9947 209.821 39.056 209.896C38.128 209.96 37.2907 210.024 36.544 210.088L36.352 208.424ZM40.576 211.16L41.904 210.76C42.096 211.197 42.2667 211.683 42.416 212.216C42.576 212.749 42.6773 213.203 42.72 213.576L41.296 214.04C41.264 213.656 41.1787 213.197 41.04 212.664C40.912 212.12 40.7573 211.619 40.576 211.16ZM37.04 210.808L38.576 211.08C38.4907 211.848 38.3627 212.605 38.192 213.352C38.032 214.088 37.84 214.712 37.616 215.224C37.5093 215.149 37.3707 215.069 37.2 214.984C37.0293 214.899 36.8533 214.819 36.672 214.744C36.4907 214.659 36.336 214.595 36.208 214.552C36.4427 214.072 36.624 213.496 36.752 212.824C36.88 212.152 36.976 211.48 37.04 210.808ZM38.784 209.288H40.448V216.44H38.784V209.288ZM36.976 224.144H51.056V226.048H36.976V224.144ZM42.976 220.416H45.024V235.44H42.976V220.416ZM42.56 225.184L44.256 225.76C43.8933 226.603 43.4773 227.419 43.008 228.208C42.5387 228.997 42.0213 229.744 41.456 230.448C40.9013 231.152 40.304 231.803 39.664 232.4C39.0347 232.987 38.3733 233.493 37.68 233.92C37.5733 233.76 37.4347 233.579 37.264 233.376C37.0933 233.173 36.9173 232.976 36.736 232.784C36.5547 232.581 36.3893 232.416 36.24 232.288C36.9013 231.925 37.5413 231.488 38.16 230.976C38.7893 230.453 39.3813 229.883 39.936 229.264C40.4907 228.635 40.9867 227.973 41.424 227.28C41.872 226.587 42.2507 225.888 42.56 225.184ZM45.392 225.264C45.7013 225.947 46.0853 226.624 46.544 227.296C47.0027 227.968 47.5093 228.608 48.064 229.216C48.6293 229.824 49.2213 230.384 49.84 230.896C50.4587 231.408 51.0933 231.84 51.744 232.192C51.5947 232.309 51.424 232.469 51.232 232.672C51.0507 232.864 50.8747 233.067 50.704 233.28C50.544 233.493 50.4107 233.685 50.304 233.856C49.632 233.429 48.9867 232.928 48.368 232.352C47.7493 231.765 47.1573 231.125 46.592 230.432C46.0267 229.728 45.5093 228.987 45.04 228.208C44.5707 227.429 44.1493 226.635 43.776 225.824L45.392 225.264ZM38.928 249.784H49.36V251.288H38.928V249.784ZM39.344 247.208H50.08V248.808H39.344V247.208ZM36.944 252.376H51.104V254.024H36.944V252.376ZM43.072 246.232H45.056V253.512H43.072V246.232ZM40.384 243.624V244.488H47.488V243.624H40.384ZM40.384 241.432V242.264H47.488V241.432H40.384ZM38.496 239.976H49.472V245.944H38.496V239.976ZM39.328 245.784L41.2 246.328C40.9653 246.851 40.6827 247.363 40.352 247.864C40.0213 248.365 39.6693 248.835 39.296 249.272C38.9227 249.709 38.5547 250.088 38.192 250.408C38.064 250.291 37.904 250.157 37.712 250.008C37.52 249.859 37.3227 249.715 37.12 249.576C36.9173 249.427 36.736 249.309 36.576 249.224C37.1307 248.808 37.6533 248.296 38.144 247.688C38.6453 247.069 39.04 246.435 39.328 245.784Z" fill="black"/>
<path d="M393.872 183.52H400.48V185.568H393.872V183.52ZM398.896 183.52H401.2C401.307 184.768 401.445 185.995 401.616 187.2C401.797 188.405 402.048 189.552 402.368 190.64C402.699 191.717 403.115 192.699 403.616 193.584C404.128 194.459 404.763 195.2 405.52 195.808C405.339 195.915 405.131 196.059 404.896 196.24C404.661 196.432 404.432 196.629 404.208 196.832C403.995 197.035 403.808 197.216 403.648 197.376C402.88 196.672 402.235 195.845 401.712 194.896C401.189 193.936 400.763 192.896 400.432 191.776C400.112 190.656 399.861 189.483 399.68 188.256C399.499 187.029 399.36 185.792 399.264 184.544H398.896V183.52ZM394.288 186.96L396.512 187.264C396.352 188.192 396.149 189.136 395.904 190.096C395.669 191.045 395.376 191.973 395.024 192.88C394.672 193.776 394.256 194.619 393.776 195.408C393.296 196.187 392.731 196.869 392.08 197.456C391.963 197.307 391.803 197.141 391.6 196.96C391.408 196.789 391.205 196.619 390.992 196.448C390.789 196.288 390.608 196.155 390.448 196.048C391.056 195.536 391.579 194.928 392.016 194.224C392.453 193.509 392.821 192.747 393.12 191.936C393.419 191.115 393.659 190.283 393.84 189.44C394.032 188.587 394.181 187.76 394.288 186.96ZM392.992 213.432H402.928V215.368H392.992V213.432ZM392.96 208.536H402.928V210.44H392.96V208.536ZM391.968 203.736H404.08V216.392H402.032V205.688H393.904V216.408H391.968V203.736ZM396.656 201.336L399.168 201.672C398.923 202.269 398.661 202.851 398.384 203.416C398.107 203.981 397.856 204.467 397.632 204.872L395.728 204.488C395.845 204.179 395.963 203.843 396.08 203.48C396.208 203.117 396.32 202.749 396.416 202.376C396.523 202.003 396.603 201.656 396.656 201.336ZM391.792 225.376H404.24V227.264H391.792V225.376ZM390.736 232.864H405.312V234.752H390.736V232.864ZM396.944 220.432H399.008V234.16H396.944V220.432ZM392.928 249.784H403.36V251.288H392.928V249.784ZM393.344 247.208H404.08V248.808H393.344V247.208ZM390.944 252.376H405.104V254.024H390.944V252.376ZM397.072 246.232H399.056V253.512H397.072V246.232ZM394.384 243.624V244.488H401.488V243.624H394.384ZM394.384 241.432V242.264H401.488V241.432H394.384ZM392.496 239.976H403.472V245.944H392.496V239.976ZM393.328 245.784L395.2 246.328C394.965 246.851 394.683 247.363 394.352 247.864C394.021 248.365 393.669 248.835 393.296 249.272C392.923 249.709 392.555 250.088 392.192 250.408C392.064 250.291 391.904 250.157 391.712 250.008C391.52 249.859 391.323 249.715 391.12 249.576C390.917 249.427 390.736 249.309 390.576 249.224C391.131 248.808 391.653 248.296 392.144 247.688C392.645 247.069 393.04 246.435 393.328 245.784Z" fill="black"/>
<path d="M149.959 169.319L160.006 159.273L161.273 160.54L151.226 170.586L149.959 169.319ZM157.313 171.695L162.37 166.638L163.422 167.69L158.365 172.747L157.313 171.695ZM158.874 173.732L164.418 168.188L165.504 169.274L159.96 174.818L158.874 173.732ZM159.689 170.36L160.967 169.082L164.95 173.064L163.671 174.343L159.689 170.36ZM152.505 171.005L160.696 162.814L161.94 164.058L155.107 170.892L161.408 177.194L160.051 178.551L152.505 171.005ZM160.311 163.199L161.703 161.807L167.891 167.996C168.216 168.32 168.419 168.614 168.502 168.878C168.593 169.15 168.57 169.444 168.434 169.76C168.299 170.092 168.068 170.436 167.744 170.79C167.435 171.145 167.05 171.552 166.59 172.012C166.386 171.869 166.13 171.733 165.821 171.605C165.519 171.469 165.244 171.367 164.995 171.299C165.191 171.118 165.391 170.933 165.595 170.745C165.798 170.556 165.979 170.383 166.138 170.224C166.296 170.051 166.402 169.938 166.454 169.885C166.56 169.779 166.617 169.693 166.624 169.625C166.624 169.549 166.583 169.47 166.5 169.387L160.311 163.199ZM156.544 170.066L157.302 168.674C157.618 168.72 157.95 168.803 158.297 168.923C158.652 169.036 158.946 169.15 159.18 169.263L158.422 170.767C158.195 170.632 157.905 170.5 157.55 170.371C157.196 170.243 156.86 170.141 156.544 170.066ZM159.44 166.581L160.899 165.755C161.02 166.178 161.133 166.593 161.239 167C161.344 167.392 161.424 167.75 161.476 168.075L160.221 168.742C160.168 168.524 160.096 168.286 160.006 168.03C159.923 167.766 159.832 167.509 159.734 167.26C159.636 167.011 159.538 166.785 159.44 166.581ZM153.398 164.16L154.88 162.678L158.738 166.536L157.256 168.018L153.398 164.16ZM161.295 157.983L171.342 147.936L172.609 149.203L162.562 159.25L161.295 157.983ZM164.633 152.79L166.047 151.376L176.671 161.999L175.256 163.414L164.633 152.79ZM170.742 159.601L172.371 158.922C172.485 159.563 172.545 160.227 172.552 160.913C172.568 161.592 172.534 162.282 172.451 162.984C172.368 163.67 172.239 164.349 172.066 165.02C171.908 165.691 171.708 166.329 171.466 166.932C171.278 166.894 171.059 166.857 170.81 166.819C170.561 166.781 170.309 166.755 170.052 166.74C169.796 166.725 169.573 166.721 169.385 166.728C169.656 166.17 169.894 165.586 170.097 164.975C170.293 164.356 170.456 163.734 170.584 163.108C170.705 162.474 170.78 161.864 170.81 161.275C170.84 160.672 170.818 160.114 170.742 159.601ZM172.937 157.496C173.45 157.557 174.004 157.568 174.6 157.53C175.196 157.478 175.811 157.391 176.444 157.27C177.078 157.134 177.704 156.961 178.322 156.75C178.933 156.531 179.518 156.286 180.076 156.014C180.061 156.21 180.057 156.44 180.065 156.704C180.087 156.968 180.114 157.229 180.144 157.485C180.189 157.742 180.234 157.968 180.28 158.164C179.684 158.413 179.05 158.616 178.379 158.775C177.715 158.941 177.036 159.069 176.343 159.16C175.649 159.235 174.959 159.269 174.272 159.261C173.593 159.246 172.937 159.186 172.304 159.08L172.937 157.496ZM168.129 160.268L168.819 160.958L174.306 155.471L173.616 154.781L168.129 160.268ZM166.5 158.639L167.178 159.318L172.666 153.831L171.987 153.152L166.5 158.639ZM164.158 158.945L172.36 150.742L176.716 155.098L168.513 163.3L164.158 158.945Z" fill="black"/>
<path d="M113.785 145.701L122.248 137.238L123.56 138.551L115.098 147.013L113.785 145.701ZM117.847 149.876L126.626 141.096L127.86 142.329L119.08 151.109L117.847 149.876ZM117.179 146.47L123.345 140.304L124.567 141.526L118.401 147.692L117.179 146.47ZM113.005 146.482L114.362 145.124L117.802 148.563C118.284 149.046 118.797 149.589 119.34 150.192C119.883 150.796 120.415 151.441 120.936 152.127C121.456 152.813 121.916 153.522 122.316 154.254C122.723 154.978 123.025 155.702 123.221 156.426C123.063 156.434 122.863 156.468 122.621 156.528C122.388 156.581 122.15 156.645 121.909 156.72C121.675 156.788 121.479 156.864 121.32 156.947C121.147 156.275 120.879 155.616 120.517 154.967C120.155 154.318 119.74 153.692 119.273 153.089C118.805 152.485 118.326 151.916 117.836 151.38C117.345 150.845 116.878 150.355 116.433 149.91L113.005 146.482ZM119.827 148.846L121.151 147.522L125.427 151.799L124.103 153.123L119.827 148.846ZM122.814 154.005C123.146 153.583 123.515 153.093 123.922 152.534C124.33 151.961 124.76 151.358 125.212 150.724C125.672 150.083 126.129 149.446 126.581 148.812L127.848 149.921C127.449 150.517 127.037 151.124 126.615 151.742C126.193 152.361 125.782 152.953 125.382 153.519C124.997 154.084 124.639 154.609 124.307 155.091L122.814 154.005ZM123.108 145.565C124.036 146.131 124.96 146.527 125.88 146.753C126.8 146.979 127.731 147.006 128.674 146.832C129.625 146.651 130.605 146.236 131.616 145.588C131.616 145.784 131.631 146.01 131.661 146.267C131.699 146.516 131.744 146.764 131.797 147.013C131.857 147.27 131.921 147.492 131.989 147.681C130.835 148.337 129.723 148.733 128.652 148.869C127.581 148.989 126.51 148.884 125.438 148.552C124.367 148.22 123.247 147.703 122.078 147.002L123.108 145.565ZM126.457 143.755L128.425 143.348C128.342 143.823 128.241 144.317 128.12 144.83C128.007 145.335 127.882 145.829 127.746 146.312C127.611 146.78 127.479 147.213 127.35 147.613L125.767 147.839C125.88 147.439 125.982 146.998 126.072 146.516C126.17 146.025 126.253 145.543 126.321 145.067C126.389 144.577 126.434 144.14 126.457 143.755ZM138.987 145.072L126.146 132.231L127.232 131.145L140.073 143.986L138.987 145.072ZM137.375 129.488L144.084 122.779L145.419 124.114L138.71 130.823L137.375 129.488ZM133.788 125.947L141.233 118.503L146.754 124.024L145.351 125.427L141.165 121.24L135.123 127.282L133.788 125.947ZM132.974 126.762L134.388 125.347L141.674 132.633C141.968 132.927 142.221 133.12 142.432 133.21C142.636 133.293 142.858 133.259 143.099 133.109C143.348 132.95 143.68 132.664 144.095 132.249C144.216 132.128 144.404 131.939 144.661 131.683C144.917 131.427 145.204 131.14 145.521 130.823C145.845 130.499 146.169 130.174 146.494 129.85C146.818 129.526 147.108 129.235 147.365 128.979C147.629 128.715 147.821 128.523 147.942 128.402C148.319 128.025 148.56 127.701 148.666 127.429C148.771 127.142 148.749 126.833 148.598 126.501C148.44 126.162 148.149 125.721 147.727 125.178C147.923 125.132 148.138 125.068 148.372 124.985C148.598 124.895 148.824 124.789 149.05 124.668C149.277 124.548 149.469 124.438 149.627 124.34C150.035 124.868 150.348 125.355 150.566 125.8C150.778 126.237 150.88 126.656 150.872 127.056C150.872 127.448 150.748 127.851 150.499 128.266C150.265 128.681 149.903 129.134 149.412 129.624C149.322 129.714 149.171 129.865 148.96 130.076C148.756 130.28 148.519 130.518 148.247 130.789C147.983 131.053 147.708 131.328 147.421 131.615C147.135 131.902 146.859 132.177 146.595 132.441C146.331 132.705 146.098 132.939 145.894 133.142C145.698 133.339 145.555 133.482 145.464 133.572C144.913 134.123 144.423 134.545 143.993 134.84C143.563 135.134 143.152 135.303 142.76 135.349C142.368 135.394 141.972 135.307 141.572 135.088C141.165 134.862 140.724 134.511 140.248 134.036L132.974 126.762Z" fill="black"/>
<path d="M80.4615 124.02L89.207 115.275L90.5534 116.621L81.8079 125.367L80.4615 124.02ZM87.51 132.381L97.6584 122.233L99.0047 123.579L88.8563 133.728L87.51 132.381ZM84.0819 121.35L85.6319 119.8C86.1976 120.592 86.7784 121.422 87.3742 122.289C87.9701 123.157 88.5584 124.024 89.1392 124.892C89.7199 125.759 90.263 126.589 90.7683 127.381C91.2812 128.165 91.7262 128.874 92.1033 129.508L90.576 131.035C90.1838 130.371 89.735 129.636 89.2297 128.829C88.7168 128.014 88.1699 127.181 87.5892 126.328C87.0084 125.461 86.4201 124.601 85.8242 123.749C85.2284 122.897 84.6476 122.097 84.0819 121.35ZM84.1498 126.962L91.4924 119.619L96.5157 124.643L95.1015 126.057L91.4132 122.369L85.4848 128.297L84.1498 126.962ZM92.7482 115.083L102.976 104.855L104.209 106.088L93.9814 116.316L92.7482 115.083ZM91.6734 112.401L100.317 103.758L101.505 104.945L92.8614 113.589L91.6734 112.401ZM92.703 109.697L94.0832 108.317L97.3982 111.632L96.0179 113.012L92.703 109.697ZM96.1989 106.201L97.6018 104.798L100.917 108.113L99.5138 109.516L96.1989 106.201ZM97.8507 111.383L99.2536 109.98L103.892 114.619L102.489 116.022L97.8507 111.383ZM99.412 116.881L100.068 117.538L105.465 112.141L104.809 111.485L99.412 116.881ZM97.9073 115.377L98.5408 116.01L103.937 110.614L103.304 109.98L97.9073 115.377ZM95.6672 115.739L103.734 107.672L107.762 111.7L99.6948 119.766L95.6672 115.739ZM105.193 115.716L105.091 114.098C105.642 113.819 106.208 113.548 106.789 113.284C107.377 113.012 107.939 112.759 108.474 112.526C109.017 112.284 109.489 112.084 109.888 111.926L109.821 113.804C109.451 113.932 109.01 114.094 108.497 114.291C107.992 114.494 107.452 114.717 106.879 114.958C106.306 115.199 105.744 115.452 105.193 115.716ZM101.777 117.504L103.734 117.153C103.621 117.643 103.447 118.179 103.213 118.759C102.987 119.348 102.734 119.932 102.455 120.513C102.176 121.094 101.897 121.629 101.618 122.12C101.362 122.089 101.045 122.074 100.668 122.074C100.306 122.074 99.9852 122.086 99.7062 122.108C100.015 121.618 100.31 121.098 100.589 120.547C100.868 119.981 101.113 119.427 101.324 118.884C101.535 118.341 101.686 117.881 101.777 117.504ZM105.567 103.871L114.369 95.0686L115.704 96.4036L106.902 105.206L105.567 103.871ZM110.115 109.912L120.422 99.6054L121.757 100.94L111.45 111.247L110.115 109.912ZM105.714 96.7317L107.173 95.2722L116.88 104.979L115.421 106.439L105.714 96.7317ZM121.508 95.5777L128.884 88.2012L129.948 89.2646L122.571 96.6412L121.508 95.5777ZM119.98 93.462L127.572 85.8705L128.703 87.0019L121.112 94.5934L119.98 93.462ZM121.938 98.8134L131.95 88.8008L133.116 89.9661L123.103 99.9787L121.938 98.8134ZM121.926 90.1358L123.329 88.7329L128.477 93.8806L127.074 95.2835L121.926 90.1358ZM118.181 90.1924L118.792 90.8033L123.816 85.78L123.205 85.1691L118.181 90.1924ZM116.631 88.6424L117.22 89.2307L122.243 84.2074L121.655 83.6191L116.631 88.6424ZM114.267 88.9479L122.028 81.1867L126.248 85.4067L118.487 93.1679L114.267 88.9479ZM118.962 92.4664L120.67 91.5274C120.874 92.0629 121.036 92.6248 121.157 93.2131C121.278 93.8014 121.361 94.3822 121.406 94.9554C121.451 95.5287 121.459 96.0566 121.428 96.5394C121.255 96.5469 121.048 96.5658 120.806 96.5959C120.565 96.6261 120.324 96.6638 120.082 96.7091C119.833 96.7468 119.622 96.792 119.449 96.8448C119.547 96.1585 119.554 95.4268 119.471 94.65C119.388 93.858 119.219 93.1302 118.962 92.4664Z" fill="black"/>
<path d="M270.894 146.959L280.94 157.006L279.673 158.273L269.627 148.226L270.894 146.959ZM268.518 154.313L273.575 159.37L272.523 160.422L267.466 155.365L268.518 154.313ZM266.481 155.874L272.025 161.418L270.939 162.504L265.395 156.96L266.481 155.874ZM269.853 156.689L271.131 157.967L267.149 161.95L265.87 160.671L269.853 156.689ZM269.208 149.505L277.399 157.696L276.155 158.94L269.321 152.107L263.019 158.408L261.662 157.051L269.208 149.505ZM277.014 157.311L278.406 158.703L272.217 164.891C271.893 165.216 271.599 165.419 271.335 165.502C271.063 165.593 270.769 165.57 270.453 165.434C270.121 165.299 269.777 165.068 269.423 164.744C269.068 164.435 268.661 164.05 268.201 163.59C268.344 163.386 268.48 163.13 268.608 162.821C268.744 162.519 268.846 162.244 268.914 161.995C269.095 162.191 269.28 162.391 269.468 162.595C269.657 162.798 269.83 162.979 269.989 163.138C270.162 163.296 270.275 163.402 270.328 163.454C270.434 163.56 270.52 163.617 270.588 163.624C270.664 163.624 270.743 163.583 270.826 163.5L277.014 157.311ZM270.147 153.544L271.539 154.302C271.493 154.618 271.41 154.95 271.29 155.297C271.177 155.652 271.063 155.946 270.95 156.18L269.446 155.422C269.581 155.195 269.713 154.905 269.842 154.55C269.97 154.196 270.072 153.86 270.147 153.544ZM273.632 156.44L274.458 157.899C274.035 158.02 273.62 158.133 273.213 158.239C272.821 158.344 272.463 158.424 272.138 158.476L271.471 157.221C271.689 157.168 271.927 157.096 272.184 157.006C272.447 156.923 272.704 156.832 272.953 156.734C273.202 156.636 273.428 156.538 273.632 156.44ZM276.053 150.398L277.535 151.88L273.677 155.738L272.195 154.256L276.053 150.398ZM275.702 167.267L283.373 174.938L282.117 176.194L274.446 168.523L275.702 167.267ZM280.363 160.864L289.697 170.197L282.287 177.608L280.906 176.228L287.061 170.073L280.431 163.443L274.254 169.62L272.93 168.297L280.363 160.864ZM284.957 166.498L286.258 167.799L284.221 169.835C284.078 169.979 283.999 170.08 283.984 170.141C283.984 170.201 284.04 170.288 284.153 170.401C284.176 170.424 284.225 170.473 284.3 170.548C284.383 170.631 284.463 170.71 284.538 170.786C284.621 170.869 284.681 170.929 284.719 170.967C284.787 171.035 284.847 171.072 284.9 171.08C284.968 171.087 285.051 171.057 285.149 170.989C285.255 170.929 285.398 170.816 285.579 170.65C285.594 170.786 285.632 170.952 285.692 171.148C285.768 171.344 285.85 171.54 285.941 171.736C286.047 171.932 286.148 172.102 286.246 172.245C285.847 172.539 285.504 172.732 285.217 172.822C284.93 172.913 284.666 172.913 284.425 172.822C284.191 172.739 283.946 172.569 283.69 172.313C283.629 172.253 283.558 172.181 283.475 172.098C283.392 172.015 283.301 171.925 283.203 171.827C283.113 171.736 283.026 171.649 282.943 171.566C282.86 171.483 282.792 171.415 282.739 171.363C282.377 171.001 282.143 170.676 282.038 170.39C281.94 170.111 281.966 169.828 282.117 169.541C282.268 169.255 282.532 168.923 282.909 168.546L284.957 166.498ZM282.445 157.877L292.616 168.048L291.304 169.36L281.133 159.189L282.445 157.877ZM284.538 161.961L285.873 163.296L283.61 165.559L282.275 164.224L284.538 161.961ZM287.016 164.439L288.385 165.808L286.122 168.07L284.753 166.701L287.016 164.439ZM282.807 163.828L284.074 165.095L282.954 166.215C282.577 166.592 282.14 166.931 281.642 167.233C281.144 167.535 280.578 167.731 279.945 167.821C279.311 167.912 278.598 167.833 277.806 167.584C277.829 167.441 277.837 167.252 277.829 167.018C277.822 166.784 277.803 166.547 277.772 166.305C277.75 166.072 277.72 165.883 277.682 165.74C278.399 165.974 279.006 166.068 279.503 166.023C280.009 165.985 280.439 165.857 280.793 165.638C281.148 165.419 281.457 165.178 281.721 164.914L282.807 163.828Z" fill="black"/>
<path d="M291.07 119.263L301.207 129.4L299.861 130.746L289.724 120.609L291.07 119.263ZM294.713 117.317L303.176 125.78L301.83 127.126L293.367 118.663L294.713 117.317ZM299.872 119.082L301.32 120.53L290.697 131.154L289.249 129.706L299.872 119.082ZM294.362 124.117L295.053 125.78C294.336 125.953 293.589 126.081 292.812 126.164C292.043 126.24 291.266 126.262 290.482 126.232C289.705 126.21 288.939 126.138 288.185 126.017C287.446 125.897 286.737 125.731 286.058 125.52C286.103 125.323 286.137 125.093 286.16 124.829C286.19 124.573 286.209 124.313 286.217 124.049C286.239 123.785 286.243 123.547 286.228 123.336C286.854 123.585 287.514 123.792 288.208 123.958C288.917 124.124 289.63 124.241 290.346 124.309C291.063 124.377 291.76 124.396 292.439 124.366C293.126 124.328 293.767 124.245 294.362 124.117ZM296.286 126.063C296.15 126.651 296.063 127.288 296.026 127.975C296.003 128.661 296.026 129.362 296.093 130.079C296.161 130.795 296.271 131.501 296.422 132.195C296.588 132.889 296.791 133.545 297.033 134.163C296.844 134.141 296.614 134.137 296.342 134.152C296.086 134.167 295.826 134.193 295.562 134.231C295.298 134.269 295.068 134.31 294.872 134.356C294.668 133.684 294.51 132.975 294.396 132.229C294.283 131.482 294.215 130.72 294.193 129.943C294.178 129.159 294.208 128.382 294.283 127.613C294.366 126.851 294.494 126.112 294.668 125.395L296.286 126.063ZM297.141 141.987L309.982 129.146L311.068 130.232L298.227 143.073L297.141 141.987ZM314.331 136.551L323.507 145.726L316.775 152.458L315.361 151.044L320.792 145.613L314.388 139.209L308.901 144.697L307.543 143.339L314.331 136.551ZM312.781 139.888L320.316 147.423L319.061 148.679L311.526 141.144L312.781 139.888ZM310.326 142.321L317.895 149.89L316.594 151.191L309.025 143.622L310.326 142.321ZM319.66 138.847L321.086 140.273L310.462 150.896L309.037 149.471L319.66 138.847Z" fill="black"/>
<path d="M263.713 283.073L267.073 279.713L268.419 281.059L265.059 284.419L263.713 283.073ZM266.745 275.04L268.159 273.626L276.316 281.783C276.633 282.1 276.863 282.277 277.006 282.315C277.142 282.345 277.315 282.255 277.527 282.043C277.572 281.998 277.647 281.923 277.753 281.817C277.859 281.711 277.975 281.595 278.104 281.466C278.232 281.338 278.349 281.221 278.454 281.116C278.56 281.01 278.639 280.931 278.692 280.878C278.843 280.727 278.892 280.55 278.839 280.346C278.786 280.143 278.609 279.86 278.307 279.498C278.006 279.121 277.564 278.619 276.984 277.993C277.18 277.963 277.395 277.914 277.628 277.846C277.87 277.771 278.104 277.688 278.33 277.597C278.549 277.499 278.737 277.401 278.896 277.303C279.574 278.072 280.08 278.736 280.412 279.294C280.751 279.845 280.898 280.339 280.853 280.776C280.823 281.214 280.593 281.647 280.163 282.077C280.102 282.138 280.001 282.239 279.857 282.383C279.714 282.526 279.559 282.681 279.393 282.847C279.235 283.005 279.088 283.152 278.952 283.288C278.816 283.424 278.715 283.525 278.647 283.593C278.217 284.023 277.813 284.299 277.436 284.419C277.074 284.54 276.693 284.498 276.293 284.295C275.886 284.084 275.419 283.714 274.891 283.186L266.745 275.04ZM263.894 277.891L265.308 276.477L275.626 286.795L274.212 288.209L263.894 277.891ZM272.164 272.992L274.37 273.23C274.242 273.886 274.091 274.565 273.918 275.266C273.737 275.96 273.544 276.658 273.341 277.359C273.137 278.046 272.926 278.71 272.707 279.351C272.511 279.245 272.254 279.147 271.938 279.057C271.613 278.958 271.334 278.883 271.1 278.83C271.289 278.204 271.455 277.548 271.598 276.862C271.742 276.175 271.858 275.5 271.949 274.837C272.047 274.165 272.119 273.551 272.164 272.992ZM268.43 288.605C268.649 288.206 268.898 287.738 269.177 287.202C269.449 286.659 269.732 286.082 270.026 285.471C270.312 284.853 270.599 284.242 270.886 283.639L272.368 284.6C272.058 285.422 271.73 286.256 271.383 287.101C271.044 287.938 270.731 288.703 270.444 289.397L268.43 288.605ZM282.267 276.511L289.938 268.84L291.194 270.096L283.523 277.767L282.267 276.511ZM275.864 271.85L285.197 262.516L292.608 269.926L291.228 271.307L285.073 265.152L278.443 271.782L284.62 277.959L283.297 279.283L275.864 271.85ZM281.498 267.256L282.799 265.955L284.835 267.992C284.979 268.135 285.08 268.214 285.141 268.229C285.201 268.229 285.288 268.173 285.401 268.06C285.424 268.037 285.473 267.988 285.548 267.913C285.631 267.83 285.71 267.75 285.786 267.675C285.869 267.592 285.929 267.532 285.967 267.494C286.035 267.426 286.072 267.366 286.08 267.313C286.087 267.245 286.057 267.162 285.989 267.064C285.929 266.958 285.816 266.815 285.65 266.634C285.786 266.619 285.952 266.581 286.148 266.521C286.344 266.446 286.54 266.363 286.736 266.272C286.932 266.166 287.102 266.065 287.245 265.967C287.539 266.366 287.732 266.709 287.822 266.996C287.913 267.283 287.913 267.547 287.822 267.788C287.739 268.022 287.569 268.267 287.313 268.523C287.253 268.584 287.181 268.655 287.098 268.738C287.015 268.821 286.925 268.912 286.827 269.01C286.736 269.1 286.649 269.187 286.566 269.27C286.483 269.353 286.415 269.421 286.363 269.474C286.001 269.836 285.676 270.07 285.39 270.175C285.111 270.273 284.828 270.247 284.541 270.096C284.255 269.945 283.923 269.681 283.546 269.304L281.498 267.256ZM272.877 269.768L283.048 259.597L284.36 260.909L274.189 271.08L272.877 269.768ZM276.961 267.675L278.296 266.34L280.559 268.603L279.224 269.938L276.961 267.675ZM279.439 265.197L280.808 263.828L283.07 266.091L281.701 267.46L279.439 265.197ZM278.828 269.406L280.095 268.139L281.215 269.259C281.592 269.636 281.931 270.073 282.233 270.571C282.535 271.069 282.731 271.635 282.821 272.268C282.912 272.902 282.833 273.615 282.584 274.407C282.441 274.384 282.252 274.376 282.018 274.384C281.784 274.392 281.547 274.41 281.305 274.441C281.072 274.463 280.883 274.493 280.74 274.531C280.974 273.815 281.068 273.207 281.023 272.71C280.985 272.204 280.857 271.774 280.638 271.42C280.419 271.065 280.178 270.756 279.914 270.492L278.828 269.406Z" fill="black"/>
<path d="M288.67 316.441L288.817 314.484C289.345 314.333 289.926 314.182 290.56 314.032C291.193 313.881 291.816 313.756 292.427 313.658C293.03 313.553 293.554 313.496 293.999 313.488L293.886 315.638C293.471 315.631 292.962 315.665 292.359 315.74C291.755 315.815 291.129 315.913 290.481 316.034C289.832 316.155 289.228 316.291 288.67 316.441ZM297.269 315.627L297.619 313.511C298.042 313.39 298.517 313.262 299.045 313.126C299.565 312.983 300.09 312.844 300.618 312.708C301.146 312.572 301.658 312.459 302.156 312.368C302.654 312.263 303.092 312.187 303.469 312.142L303.141 314.507C302.801 314.529 302.39 314.578 301.907 314.654C301.425 314.729 300.916 314.824 300.38 314.937C299.845 315.035 299.309 315.148 298.773 315.276C298.23 315.397 297.729 315.514 297.269 315.627ZM289.949 310.524L291.997 309.744C292.004 310.309 291.997 310.89 291.974 311.486C291.944 312.074 291.906 312.648 291.861 313.206C291.816 313.749 291.755 314.247 291.68 314.699L289.983 315.219C290.036 314.744 290.069 314.235 290.085 313.692C290.1 313.134 290.096 312.58 290.073 312.029C290.058 311.471 290.017 310.969 289.949 310.524ZM284.993 313.941L295.153 303.781L296.42 305.048L286.261 315.208L284.993 313.941ZM288.048 308.352L289.474 306.927L291.295 308.748L289.87 310.174L288.048 308.352ZM293.581 308.816L295.481 308.228C295.655 309.517 295.647 310.83 295.459 312.165C295.27 313.485 294.938 314.797 294.463 316.102C293.98 317.399 293.392 318.681 292.698 319.949C292.434 319.851 292.11 319.768 291.725 319.7C291.34 319.617 290.982 319.568 290.65 319.553C291.359 318.391 291.966 317.203 292.472 315.989C292.97 314.767 293.324 313.545 293.535 312.323C293.746 311.101 293.762 309.932 293.581 308.816ZM296.828 309.28L298.841 308.714C299.09 310.29 299.087 311.856 298.83 313.409C298.574 314.963 298.117 316.513 297.461 318.059C296.805 319.59 295.994 321.118 295.029 322.641C294.742 322.521 294.399 322.411 293.999 322.313C293.614 322.215 293.252 322.155 292.913 322.132C293.871 320.707 294.689 319.27 295.368 317.822C296.039 316.366 296.511 314.922 296.782 313.488C297.061 312.048 297.076 310.645 296.828 309.28ZM310.987 311.072L298.146 298.231L299.232 297.145L312.073 309.986L310.987 311.072ZM311.456 286.618L311.479 284.989C311.796 284.883 312.139 284.789 312.509 284.706C312.886 284.616 313.252 284.544 313.606 284.491C313.961 284.423 314.262 284.393 314.511 284.401L314.534 286.166C314.285 286.143 313.983 286.158 313.629 286.211C313.274 286.249 312.905 286.301 312.52 286.369C312.135 286.437 311.781 286.52 311.456 286.618ZM315.597 288.293L317.317 287.32C318.245 289.349 318.799 291.381 318.98 293.418C319.161 295.454 318.969 297.427 318.403 299.335C318.237 299.29 318.022 299.256 317.758 299.233C317.509 299.21 317.249 299.191 316.978 299.176C316.721 299.161 316.499 299.158 316.31 299.165C316.951 297.393 317.211 295.586 317.091 293.746C316.97 291.89 316.472 290.073 315.597 288.293ZM306.954 293.248L315.597 284.604L316.887 285.894L308.243 294.538L306.954 293.248ZM311.411 295.692L314.194 292.909L315.45 294.164L312.667 296.948L311.411 295.692ZM306.275 293.927L307.632 292.569L310.698 295.635C311.121 296.058 311.566 296.54 312.033 297.083C312.494 297.619 312.935 298.196 313.357 298.814C313.787 299.425 314.153 300.063 314.455 300.726C314.749 301.383 314.937 302.046 315.02 302.718C314.862 302.695 314.654 302.691 314.398 302.706C314.149 302.729 313.896 302.755 313.64 302.785C313.399 302.816 313.195 302.853 313.029 302.899C312.946 302.303 312.776 301.733 312.52 301.19C312.271 300.64 311.966 300.115 311.604 299.618C311.249 299.112 310.876 298.641 310.483 298.203C310.084 297.758 309.703 297.355 309.341 296.993L306.275 293.927ZM308.809 287.614L310.178 286.245C311.158 287.18 312.124 288.063 313.074 288.892C314.025 289.707 314.937 290.438 315.812 291.087C316.68 291.728 317.487 292.249 318.233 292.648C318.98 293.048 319.64 293.301 320.213 293.406C320.786 293.512 321.247 293.429 321.594 293.158C321.759 293.052 321.707 292.803 321.435 292.411C321.164 292.004 320.741 291.483 320.168 290.85C320.447 290.842 320.764 290.804 321.118 290.736C321.48 290.661 321.786 290.582 322.035 290.499C323.015 291.645 323.528 292.573 323.573 293.282C323.626 293.998 323.283 294.545 322.544 294.922C321.971 295.3 321.311 295.462 320.564 295.409C319.825 295.364 319.018 295.137 318.143 294.73C317.268 294.323 316.336 293.768 315.348 293.067C314.353 292.358 313.308 291.547 312.214 290.635C311.121 289.707 309.986 288.7 308.809 287.614Z" fill="black"/>
<path d="M307.391 349.718L316.091 337.895L317.72 339.072L308.986 350.86L307.391 349.718ZM306.497 342.42L307.979 340.938L315.785 348.745C316.034 348.994 316.242 349.163 316.408 349.254C316.574 349.329 316.74 349.329 316.906 349.254C317.064 349.171 317.268 349.005 317.516 348.756C317.592 348.681 317.705 348.568 317.856 348.417C318.007 348.266 318.176 348.096 318.365 347.908C318.554 347.719 318.742 347.53 318.931 347.342C319.119 347.153 319.289 346.984 319.44 346.833C319.598 346.674 319.715 346.557 319.791 346.482C320.047 346.226 320.179 345.973 320.187 345.724C320.186 345.468 320.051 345.143 319.779 344.751C319.5 344.351 319.059 343.804 318.456 343.111C318.659 343.088 318.889 343.039 319.146 342.963C319.402 342.873 319.647 342.779 319.881 342.681C320.122 342.575 320.322 342.473 320.481 342.375C321.175 343.19 321.676 343.895 321.985 344.491C322.287 345.079 322.381 345.626 322.268 346.131C322.155 346.637 321.816 347.172 321.25 347.738C321.175 347.813 321.05 347.938 320.877 348.111C320.711 348.277 320.522 348.466 320.311 348.677C320.107 348.881 319.9 349.088 319.689 349.299C319.478 349.51 319.289 349.699 319.123 349.865C318.957 350.031 318.836 350.151 318.761 350.227C318.188 350.8 317.671 351.181 317.211 351.37C316.758 351.566 316.302 351.569 315.842 351.381C315.389 351.185 314.869 350.793 314.281 350.204L306.497 342.42ZM328.016 332.329L328.683 330.598C329.188 330.665 329.728 330.76 330.301 330.88C330.874 331.001 331.421 331.133 331.941 331.276C332.462 331.42 332.911 331.574 333.288 331.74L332.598 333.652C332.236 333.486 331.798 333.32 331.285 333.155C330.772 332.989 330.226 332.834 329.645 332.691C329.072 332.54 328.528 332.419 328.016 332.329ZM318.863 329.625L320.254 328.233L324.35 332.329L322.958 333.72L318.863 329.625ZM318.139 337.589L328.344 327.385L329.645 328.686L319.44 338.891L318.139 337.589ZM316.815 334.003L324.927 325.891L326.217 327.181L318.105 335.293L316.815 334.003ZM324.633 332.634L326.058 331.209L330.754 335.904C331.093 336.243 331.323 336.549 331.444 336.82C331.572 337.099 331.576 337.405 331.455 337.737C331.342 338.061 331.146 338.393 330.867 338.732C330.595 339.064 330.252 339.437 329.837 339.852C329.611 339.671 329.32 339.494 328.966 339.32C328.619 339.155 328.306 339.023 328.027 338.924C328.283 338.683 328.54 338.442 328.796 338.2C329.045 337.952 329.204 337.786 329.271 337.703C329.354 337.62 329.4 337.552 329.407 337.499C329.407 337.439 329.373 337.375 329.305 337.307L324.633 332.634ZM321.261 338.2L322.992 337.171C323.203 337.669 323.392 338.204 323.558 338.777C323.716 339.343 323.845 339.909 323.943 340.474C324.033 341.033 324.075 341.564 324.067 342.07C323.811 342.085 323.501 342.13 323.139 342.205C322.77 342.273 322.464 342.337 322.223 342.398C322.246 341.938 322.215 341.463 322.132 340.972C322.049 340.467 321.933 339.973 321.782 339.49C321.631 339.007 321.457 338.578 321.261 338.2ZM321.94 334.829L323.32 333.449L324.621 334.75C325.021 335.149 325.425 335.606 325.832 336.119C326.232 336.624 326.583 337.193 326.884 337.827C327.178 338.453 327.382 339.155 327.495 339.931C327.608 340.693 327.574 341.534 327.393 342.454C327.22 342.417 327.009 342.394 326.76 342.386C326.511 342.379 326.258 342.383 326.002 342.398C325.753 342.405 325.534 342.428 325.346 342.466C325.511 341.681 325.553 340.969 325.47 340.327C325.395 339.679 325.236 339.098 324.995 338.585C324.761 338.065 324.486 337.601 324.169 337.193C323.845 336.779 323.524 336.413 323.207 336.096L321.94 334.829ZM332.134 318.911C332.254 319.65 332.307 320.487 332.292 321.422C332.285 322.35 332.205 323.312 332.055 324.307C331.911 325.295 331.696 326.264 331.41 327.215C331.236 327.162 331.033 327.117 330.799 327.079C330.572 327.034 330.339 327.004 330.097 326.989C329.863 326.966 329.649 326.955 329.452 326.955C329.792 325.997 330.033 324.994 330.177 323.945C330.312 322.889 330.365 321.879 330.335 320.913C330.312 319.94 330.21 319.084 330.029 318.345L331.444 316.931C332.183 317.051 332.933 317.123 333.695 317.146C334.457 317.168 335.215 317.134 335.969 317.044C336.723 316.953 337.455 316.818 338.164 316.636C338.873 316.455 339.544 316.229 340.178 315.958C340.178 316.305 340.212 316.663 340.28 317.032C340.348 317.402 340.419 317.753 340.495 318.085C339.838 318.288 339.141 318.466 338.402 318.616C337.67 318.76 336.935 318.869 336.195 318.944C335.449 319.012 334.728 319.046 334.034 319.046C333.341 319.046 332.707 319.001 332.134 318.911ZM331.398 323.832L337.089 318.141L338.277 319.329L332.586 325.02L331.398 323.832ZM332.349 327.498L340.732 319.114L341.909 320.291L333.525 328.674L332.349 327.498ZM335.222 331.503L344.839 321.886L346.004 323.051L336.388 332.668L335.222 331.503ZM333.967 322.214L335.403 320.777L341.264 326.638L339.827 328.075L333.967 322.214ZM334.668 328.391L335.302 326.853C335.633 326.898 335.98 326.966 336.342 327.056C336.712 327.139 337.063 327.234 337.395 327.339C337.727 327.445 338.006 327.558 338.232 327.679L337.587 329.364C337.368 329.236 337.093 329.112 336.761 328.991C336.422 328.863 336.071 328.746 335.709 328.64C335.347 328.535 335 328.452 334.668 328.391ZM339.974 322.203L341.75 321.377C341.871 321.95 341.984 322.531 342.09 323.119C342.188 323.7 342.256 324.213 342.293 324.658L340.845 325.246C340.793 324.937 340.725 324.605 340.642 324.251C340.551 323.889 340.449 323.53 340.336 323.176C340.216 322.814 340.095 322.489 339.974 322.203ZM345.948 317.18L353.324 309.803L354.388 310.866L347.011 318.243L345.948 317.18ZM344.42 315.064L352.012 307.472L353.143 308.604L345.552 316.195L344.42 315.064ZM346.378 320.415L356.39 310.403L357.556 311.568L347.543 321.581L346.378 320.415ZM346.366 311.738L347.769 310.335L352.917 315.482L351.514 316.885L346.366 311.738ZM342.622 311.794L343.233 312.405L348.256 307.382L347.645 306.771L342.622 311.794ZM341.072 310.244L341.66 310.833L346.683 305.809L346.095 305.221L341.072 310.244ZM338.707 310.55L346.468 302.789L350.688 307.009L342.927 314.77L338.707 310.55ZM343.402 314.068L345.111 313.129C345.314 313.665 345.476 314.227 345.597 314.815C345.718 315.403 345.801 315.984 345.846 316.557C345.891 317.131 345.899 317.658 345.869 318.141C345.695 318.149 345.488 318.168 345.246 318.198C345.005 318.228 344.764 318.266 344.522 318.311C344.273 318.349 344.062 318.394 343.889 318.447C343.987 317.76 343.994 317.029 343.911 316.252C343.828 315.46 343.659 314.732 343.402 314.068Z" fill="black"/>
<path d="M156.927 261.5L160.287 264.86L158.941 266.206L155.581 262.846L156.927 261.5ZM164.96 264.532L166.374 265.946L158.217 274.103C157.9 274.42 157.723 274.65 157.685 274.793C157.655 274.929 157.746 275.102 157.957 275.314C158.002 275.359 158.077 275.434 158.183 275.54C158.289 275.646 158.406 275.762 158.534 275.891C158.662 276.019 158.779 276.136 158.885 276.241C158.99 276.347 159.069 276.426 159.122 276.479C159.273 276.63 159.45 276.679 159.654 276.626C159.857 276.573 160.14 276.396 160.502 276.094C160.879 275.793 161.381 275.351 162.007 274.771C162.037 274.967 162.086 275.182 162.154 275.415C162.23 275.657 162.313 275.891 162.403 276.117C162.501 276.336 162.599 276.524 162.697 276.683C161.928 277.361 161.264 277.867 160.706 278.199C160.155 278.538 159.661 278.685 159.224 278.64C158.786 278.61 158.353 278.38 157.923 277.95C157.862 277.889 157.761 277.788 157.617 277.644C157.474 277.501 157.319 277.346 157.154 277.18C156.995 277.022 156.848 276.875 156.712 276.739C156.577 276.603 156.475 276.502 156.407 276.434C155.977 276.004 155.702 275.6 155.581 275.223C155.46 274.861 155.502 274.48 155.705 274.08C155.917 273.673 156.286 273.206 156.814 272.678L164.96 264.532ZM162.109 261.681L163.523 263.095L153.205 273.413L151.791 271.999L162.109 261.681ZM167.008 269.951L166.77 272.157C166.114 272.029 165.435 271.878 164.734 271.705C164.04 271.524 163.342 271.331 162.641 271.128C161.954 270.924 161.291 270.713 160.649 270.494C160.755 270.298 160.853 270.041 160.944 269.725C161.042 269.4 161.117 269.121 161.17 268.887C161.796 269.076 162.452 269.242 163.138 269.385C163.825 269.529 164.5 269.645 165.164 269.736C165.835 269.834 166.45 269.906 167.008 269.951ZM151.395 266.217C151.795 266.436 152.262 266.685 152.798 266.964C153.341 267.236 153.918 267.518 154.529 267.813C155.147 268.099 155.758 268.386 156.362 268.672L155.4 270.155C154.578 269.845 153.744 269.517 152.9 269.17C152.062 268.831 151.297 268.518 150.603 268.231L151.395 266.217ZM170.017 271.082L180.064 281.129L178.797 282.396L168.75 272.349L170.017 271.082ZM175.21 274.42L176.624 275.834L166.001 286.458L164.587 285.043L175.21 274.42ZM168.399 280.529L169.078 282.158C168.437 282.272 167.773 282.332 167.087 282.339C166.408 282.355 165.718 282.321 165.017 282.238C164.33 282.155 163.651 282.026 162.98 281.853C162.309 281.695 161.671 281.495 161.068 281.253C161.106 281.065 161.143 280.846 161.181 280.597C161.219 280.348 161.245 280.096 161.26 279.839C161.275 279.583 161.279 279.36 161.272 279.172C161.83 279.443 162.414 279.681 163.025 279.884C163.644 280.08 164.266 280.243 164.892 280.371C165.526 280.492 166.137 280.567 166.725 280.597C167.328 280.627 167.886 280.605 168.399 280.529ZM170.504 282.724C170.443 283.237 170.432 283.791 170.47 284.387C170.523 284.983 170.609 285.598 170.73 286.231C170.866 286.865 171.039 287.491 171.25 288.109C171.469 288.72 171.714 289.305 171.986 289.863C171.79 289.848 171.56 289.844 171.296 289.852C171.032 289.874 170.771 289.901 170.515 289.931C170.259 289.976 170.032 290.021 169.836 290.067C169.587 289.471 169.384 288.837 169.225 288.166C169.059 287.502 168.931 286.823 168.841 286.13C168.765 285.436 168.731 284.745 168.739 284.059C168.754 283.38 168.814 282.724 168.92 282.091L170.504 282.724ZM167.732 277.916L167.042 278.606L172.529 284.093L173.219 283.403L167.732 277.916ZM169.361 276.287L168.682 276.965L174.169 282.453L174.848 281.774L169.361 276.287ZM169.056 273.945L177.258 282.147L172.902 286.503L164.7 278.3L169.056 273.945Z" fill="black"/>
<path d="M132.67 290.374L134.005 291.709L129.152 296.563L127.817 295.228L132.67 290.374ZM130.838 287.297L137.06 293.52L135.963 294.617L129.74 288.394L130.838 287.297ZM127.251 292.286L126.629 292.909L131.505 297.785L132.127 297.163L127.251 292.286ZM128.824 290.714L128.213 291.325L133.089 296.201L133.7 295.59L128.824 290.714ZM128.541 288.372L136.11 295.941L131.856 300.195L124.287 292.626L128.541 288.372ZM128.111 297.717L129.808 297.626C130.08 298.185 130.347 298.762 130.611 299.357C130.883 299.961 131.132 300.534 131.358 301.077C131.599 301.62 131.799 302.099 131.958 302.514L129.966 302.469C129.838 302.084 129.676 301.628 129.48 301.1C129.291 300.579 129.08 300.029 128.846 299.448C128.613 298.867 128.367 298.29 128.111 297.717ZM135.872 287.082L137.275 288.485L135.669 290.091L134.266 288.689L135.872 287.082ZM130.962 283.756L140.681 293.474L138.18 295.975L136.789 294.583L138.056 293.316L131.064 286.324L129.797 287.591L128.462 286.256L130.962 283.756ZM126.538 294.334L126.855 296.325C126.342 296.22 125.78 296.05 125.169 295.816C124.559 295.597 123.948 295.334 123.337 295.024C122.726 294.73 122.152 294.413 121.617 294.074C121.677 293.833 121.73 293.531 121.775 293.169C121.828 292.814 121.862 292.501 121.877 292.23C122.367 292.554 122.895 292.863 123.461 293.158C124.042 293.452 124.6 293.701 125.136 293.904C125.686 294.108 126.154 294.251 126.538 294.334ZM133.141 309.987L145.982 297.146L147.068 298.232L134.227 311.073L133.141 309.987ZM151.621 304.098L158.342 310.818L157.018 312.142L150.297 305.422L151.621 304.098ZM142.378 311.531L152.47 321.623L151.157 322.935L141.066 312.844L142.378 311.531ZM146.666 306.994L157.007 317.335L155.672 318.67L145.331 308.329L146.666 306.994ZM153.035 306.96L154.427 308.352C153.839 308.835 153.22 309.333 152.572 309.845C151.923 310.358 151.267 310.871 150.603 311.384C149.947 311.905 149.298 312.41 148.657 312.9C148.016 313.39 147.401 313.847 146.813 314.269C146.24 314.692 145.719 315.069 145.252 315.401L143.837 313.986C144.335 313.654 144.882 313.274 145.478 312.844C146.074 312.414 146.688 311.957 147.322 311.475C147.971 310.992 148.623 310.498 149.279 309.993C149.943 309.48 150.592 308.967 151.225 308.454C151.859 307.941 152.462 307.443 153.035 306.96ZM157.719 310.196L159.134 311.61C158.53 312.184 157.893 312.776 157.221 313.387C156.558 313.99 155.883 314.597 155.196 315.208C154.51 315.819 153.835 316.411 153.171 316.984C152.523 317.558 151.896 318.101 151.293 318.614C150.697 319.119 150.15 319.575 149.653 319.983L148.216 318.546C148.721 318.131 149.279 317.671 149.89 317.165C150.509 316.653 151.15 316.11 151.814 315.536C152.485 314.971 153.16 314.386 153.839 313.783C154.525 313.172 155.193 312.565 155.841 311.961C156.505 311.358 157.131 310.769 157.719 310.196Z" fill="black"/>
<path d="M100.267 309.771L101.749 311.253C100.844 312.143 99.9502 312.999 99.0678 313.821C98.1928 314.636 97.3104 315.367 96.4204 316.016C95.5379 316.657 94.6252 317.178 93.6824 317.577C92.7472 317.97 91.7553 318.2 90.7069 318.268C89.6736 318.335 88.5649 318.192 87.3807 317.838C87.4335 317.664 87.475 317.449 87.5051 317.193C87.5278 316.944 87.5429 316.687 87.5504 316.423C87.5579 316.175 87.5391 315.952 87.4938 315.756C88.58 316.103 89.5793 316.25 90.492 316.197C91.4121 316.152 92.2795 315.956 93.0941 315.609C93.9163 315.254 94.7158 314.779 95.4926 314.183C96.2695 313.587 97.0464 312.909 97.8233 312.147C98.6077 311.393 99.4223 310.601 100.267 309.771ZM94.8251 309.579L101.783 316.537L100.414 317.906L93.4562 310.948L94.8251 309.579ZM101.036 315.79L102.451 317.204L96.6353 323.019C96.394 323.261 96.2582 323.434 96.228 323.54C96.2054 323.638 96.262 323.755 96.3977 323.89C96.4279 323.921 96.4769 323.97 96.5448 324.038C96.6127 324.105 96.6881 324.181 96.7711 324.264C96.854 324.347 96.9295 324.422 96.9974 324.49C97.0728 324.566 97.1256 324.618 97.1557 324.648C97.2538 324.747 97.3707 324.773 97.5065 324.728C97.6422 324.682 97.8459 324.547 98.1174 324.32C98.3889 324.094 98.7698 323.751 99.2601 323.291C99.2903 323.487 99.3393 323.694 99.4072 323.913C99.4826 324.139 99.5656 324.366 99.6561 324.592C99.7541 324.811 99.8522 324.999 99.9502 325.158C99.3016 325.731 98.7434 326.146 98.2758 326.402C97.8157 326.651 97.4084 326.749 97.0539 326.696C96.6919 326.651 96.3374 326.455 95.9904 326.108C95.9301 326.048 95.8471 325.965 95.7415 325.859C95.6359 325.753 95.5228 325.64 95.4021 325.52C95.2814 325.399 95.1683 325.286 95.0627 325.18C94.9647 325.082 94.8892 325.007 94.8364 324.954C94.4669 324.584 94.2293 324.234 94.1237 323.902C94.0181 323.585 94.052 323.242 94.2255 322.872C94.4065 322.51 94.7422 322.084 95.2324 321.594L101.036 315.79ZM105.562 329.683L106.965 331.086L103.797 334.254L102.394 332.851L105.562 329.683ZM101.613 324.784C102.164 325.335 102.79 325.961 103.491 326.662C104.2 327.356 104.955 328.095 105.754 328.88C106.561 329.657 107.387 330.46 108.232 331.29C109.084 332.112 109.925 332.93 110.755 333.745L109.612 334.752C108.775 333.975 107.934 333.187 107.089 332.387C106.252 331.595 105.43 330.818 104.623 330.056C103.831 329.295 103.073 328.574 102.349 327.896C101.64 327.217 101.002 326.602 100.437 326.051L101.613 324.784ZM108.877 325.848L109.635 327.601C108.963 327.579 108.281 327.522 107.587 327.432C106.908 327.341 106.301 327.232 105.765 327.104L105.211 325.576C105.581 325.644 105.98 325.704 106.41 325.757C106.855 325.81 107.289 325.844 107.711 325.859C108.141 325.867 108.53 325.863 108.877 325.848ZM110.596 328.948L111.388 330.826C110.596 330.728 109.774 330.584 108.922 330.396C108.077 330.215 107.251 330.015 106.444 329.796C105.637 329.577 104.898 329.351 104.227 329.117L103.752 327.533C104.438 327.767 105.188 327.982 106.003 328.178C106.825 328.382 107.636 328.552 108.436 328.687C109.243 328.816 109.963 328.902 110.596 328.948ZM104.068 324.592L105.833 324.773C106.014 325.21 106.188 325.678 106.354 326.176C106.535 326.674 106.697 327.16 106.84 327.635C106.991 328.103 107.112 328.518 107.202 328.88L105.324 328.789C105.256 328.435 105.151 328.012 105.007 327.522C104.879 327.032 104.732 326.53 104.566 326.017C104.408 325.512 104.242 325.037 104.068 324.592ZM106.139 333.27L107.938 333.824C108.089 334.261 108.228 334.733 108.356 335.238C108.492 335.736 108.613 336.226 108.718 336.709C108.839 337.192 108.933 337.61 109.001 337.965L107.078 337.467C107.04 337.112 106.972 336.69 106.874 336.2C106.769 335.717 106.652 335.215 106.523 334.695C106.41 334.175 106.282 333.699 106.139 333.27ZM102.609 328.54L103.401 330.328C102.956 330.32 102.469 330.271 101.941 330.181C101.421 330.098 100.904 329.989 100.391 329.853C99.8861 329.725 99.4147 329.585 98.9772 329.434C98.9772 329.268 98.9697 329.057 98.9546 328.801C98.9395 328.559 98.9169 328.31 98.8867 328.054C98.8566 327.813 98.8226 327.605 98.7849 327.432C99.4034 327.718 100.06 327.967 100.754 328.178C101.447 328.39 102.066 328.51 102.609 328.54ZM109.205 330.995L110.879 331.652C110.94 332.149 110.985 332.685 111.015 333.258C111.053 333.839 111.072 334.401 111.072 334.944C111.072 335.487 111.045 335.958 110.992 336.358L109.16 335.657C109.227 335.287 109.269 334.838 109.284 334.31C109.314 333.782 109.318 333.228 109.295 332.647C109.28 332.059 109.25 331.508 109.205 330.995ZM110.574 321.752L112.701 323.879L111.626 324.954L109.499 322.827L110.574 321.752ZM114.104 323.291L115.45 324.637L112.565 327.522C112.384 327.703 112.297 327.85 112.305 327.963C112.327 328.077 112.452 328.246 112.678 328.473C112.731 328.525 112.818 328.612 112.938 328.733C113.059 328.853 113.191 328.985 113.334 329.129C113.478 329.272 113.613 329.408 113.742 329.536C113.87 329.664 113.964 329.759 114.024 329.819C114.153 329.947 114.266 330.022 114.364 330.045C114.477 330.068 114.609 330.034 114.76 329.943C114.918 329.845 115.126 329.683 115.382 329.457C115.427 329.683 115.522 329.958 115.665 330.283C115.816 330.599 115.967 330.871 116.118 331.097C115.65 331.459 115.243 331.701 114.896 331.821C114.556 331.935 114.239 331.935 113.945 331.821C113.651 331.708 113.331 331.478 112.984 331.131C112.923 331.071 112.837 330.984 112.723 330.871C112.618 330.765 112.497 330.645 112.361 330.509C112.226 330.373 112.086 330.234 111.943 330.09C111.807 329.955 111.683 329.83 111.569 329.717C111.464 329.611 111.385 329.532 111.332 329.479C110.872 329.019 110.566 328.616 110.415 328.269C110.272 327.929 110.265 327.598 110.393 327.273C110.536 326.949 110.808 326.587 111.207 326.187L114.104 323.291ZM105.007 321.119C105.483 321.518 106.037 321.975 106.671 322.488C107.319 323 108.002 323.54 108.718 324.105C109.442 324.679 110.163 325.248 110.879 325.814L109.85 326.911C109.148 326.391 108.439 325.863 107.723 325.327C107.014 324.784 106.331 324.268 105.675 323.777C105.034 323.287 104.446 322.842 103.91 322.442L105.007 321.119ZM117.147 327.42L117.204 329.378C116.683 329.174 116.144 328.929 115.586 328.642C115.043 328.356 114.496 328.05 113.945 327.726C113.402 327.394 112.886 327.066 112.395 326.742C112.508 326.583 112.618 326.368 112.723 326.097C112.844 325.825 112.931 325.588 112.984 325.384C113.451 325.655 113.934 325.927 114.432 326.198C114.93 326.47 115.412 326.711 115.88 326.923C116.348 327.134 116.77 327.3 117.147 327.42ZM111.015 320.202L112.271 321.458L108.424 325.305L107.078 324.139L111.015 320.202ZM108.334 319.195L109.499 320.361L106.388 323.472L105.121 322.408L108.334 319.195ZM123.72 335.51C122.981 335.63 122.144 335.683 121.209 335.668C120.281 335.66 119.319 335.581 118.324 335.43C117.336 335.287 116.366 335.072 115.416 334.786C115.469 334.612 115.514 334.408 115.552 334.175C115.597 333.948 115.627 333.715 115.642 333.473C115.665 333.239 115.676 333.024 115.676 332.828C116.634 333.168 117.637 333.409 118.686 333.552C119.742 333.688 120.752 333.741 121.718 333.711C122.691 333.688 123.547 333.586 124.286 333.405L125.7 334.82C125.58 335.559 125.508 336.309 125.485 337.071C125.463 337.833 125.497 338.591 125.587 339.345C125.678 340.099 125.813 340.831 125.994 341.54C126.175 342.249 126.402 342.92 126.673 343.554C126.326 343.554 125.968 343.588 125.598 343.656C125.229 343.723 124.878 343.795 124.546 343.87C124.343 343.214 124.165 342.517 124.014 341.777C123.871 341.046 123.762 340.31 123.686 339.571C123.619 338.825 123.585 338.104 123.585 337.41C123.585 336.716 123.63 336.083 123.72 335.51ZM118.799 334.774L124.49 340.465L123.302 341.653L117.611 335.962L118.799 334.774ZM115.133 335.725L123.517 344.108L122.34 345.285L113.957 336.901L115.133 335.725ZM111.128 338.598L120.745 348.215L119.58 349.38L109.963 339.764L111.128 338.598ZM120.417 337.342L121.854 338.779L115.993 344.64L114.556 343.203L120.417 337.342ZM114.239 338.044L115.778 338.677C115.733 339.009 115.665 339.356 115.574 339.718C115.491 340.088 115.397 340.439 115.292 340.771C115.186 341.102 115.073 341.381 114.952 341.608L113.266 340.963C113.395 340.744 113.519 340.469 113.64 340.137C113.768 339.798 113.885 339.447 113.991 339.085C114.096 338.723 114.179 338.376 114.239 338.044ZM120.428 343.35L121.254 345.126C120.681 345.247 120.1 345.36 119.512 345.466C118.931 345.564 118.418 345.632 117.973 345.669L117.385 344.221C117.694 344.168 118.026 344.101 118.38 344.018C118.742 343.927 119.101 343.825 119.455 343.712C119.817 343.591 120.141 343.471 120.428 343.35ZM125.451 349.324L132.828 356.7L131.764 357.764L124.388 350.387L125.451 349.324ZM127.567 347.796L135.158 355.388L134.027 356.519L126.436 348.928L127.567 347.796ZM122.216 349.754L132.228 359.766L131.063 360.932L121.05 350.919L122.216 349.754ZM130.893 349.742L132.296 351.145L127.148 356.293L125.745 354.89L130.893 349.742ZM130.837 345.997L130.226 346.608L135.249 351.632L135.86 351.021L130.837 345.997ZM132.387 344.447L131.798 345.036L136.822 350.059L137.41 349.471L132.387 344.447ZM132.081 342.083L139.842 349.844L135.622 354.064L127.861 346.303L132.081 342.083ZM128.563 346.778L129.502 348.486C128.966 348.69 128.404 348.852 127.816 348.973C127.228 349.094 126.647 349.177 126.074 349.222C125.5 349.267 124.972 349.275 124.49 349.244C124.482 349.071 124.463 348.864 124.433 348.622C124.403 348.381 124.365 348.14 124.32 347.898C124.282 347.649 124.237 347.438 124.184 347.265C124.871 347.363 125.602 347.37 126.379 347.287C127.171 347.204 127.899 347.035 128.563 346.778Z" fill="black"/>
<path d="M316.043 81.402L324.675 90.0344L323.283 91.4259L314.651 82.7936L316.043 81.402ZM313.18 85.8257L320.127 92.7723L318.747 94.1525L311.8 87.2059L313.18 85.8257ZM307.931 88.2468L317.796 98.1123L316.416 99.4926L306.55 89.6271L307.931 88.2468ZM327.39 91.5051L331.78 95.8949L330.762 96.9131L326.372 92.5234L327.39 91.5051ZM322.005 96.5284L332.153 106.677L331.09 107.74L320.941 97.5919L322.005 96.5284ZM325.75 93.3945L329.811 97.4562L328.804 98.4631L324.743 94.4014L325.75 93.3945ZM321.19 102.909L326.7 108.419L325.682 109.437L320.172 103.928L321.19 102.909ZM323.43 95.0124C323.86 95.3971 324.347 95.8307 324.89 96.3135C325.441 96.8037 326.018 97.3204 326.621 97.8634C327.232 98.399 327.843 98.9345 328.454 99.47L327.413 100.488C326.53 99.7264 325.648 98.9646 324.765 98.2029C323.891 97.4335 323.117 96.7585 322.446 96.1777L323.43 95.0124ZM328.567 93.4737L329.845 94.7522L326.315 98.2821L324.879 97.162L328.567 93.4737ZM334.552 97.739L335.921 99.3569C335.551 99.5152 335.197 99.6586 334.857 99.7868C334.518 99.915 334.216 100.021 333.952 100.104L332.957 98.7459C333.221 98.6026 333.496 98.4404 333.782 98.2594C334.077 98.0859 334.333 97.9125 334.552 97.739ZM330.592 100.567L329.868 101.291L332.074 103.498L332.798 102.774L330.592 100.567ZM332.255 98.9043L331.542 99.6171L333.749 101.823L334.461 101.11L332.255 98.9043ZM332.029 96.6416L336.769 101.382L332.346 105.806L327.605 101.065L332.029 96.6416ZM324.935 99.866L325.75 101.495C324.973 101.684 324.166 101.782 323.329 101.789C322.491 101.797 321.662 101.729 320.84 101.586C320.017 101.442 319.237 101.242 318.498 100.986C318.535 100.843 318.573 100.654 318.611 100.42C318.656 100.179 318.694 99.9376 318.724 99.6963C318.754 99.4549 318.765 99.2475 318.758 99.074C319.414 99.3531 320.1 99.5794 320.817 99.7528C321.534 99.9263 322.243 100.024 322.944 100.047C323.653 100.077 324.317 100.017 324.935 99.866ZM322.118 100.171L329.506 107.559L326.361 110.705L324.901 109.245L327.028 107.118L322.503 102.593L320.319 104.776L318.916 103.373L322.118 100.171ZM336.453 104.935L346.409 114.891L345.062 116.237L335.106 106.281L336.453 104.935ZM343.331 106.541L344.779 107.989L334.156 118.613L332.708 117.165L343.331 106.541ZM339.666 109.618L340.458 111.225C339.605 111.564 338.734 111.847 337.844 112.073C336.954 112.3 336.06 112.462 335.163 112.56C334.273 112.666 333.39 112.703 332.515 112.673C331.656 112.643 330.83 112.534 330.038 112.345C330.075 112.156 330.106 111.93 330.128 111.666C330.151 111.402 330.166 111.138 330.173 110.874C330.189 110.603 330.189 110.369 330.173 110.173C330.898 110.384 331.659 110.527 332.459 110.603C333.273 110.678 334.096 110.693 334.925 110.648C335.762 110.595 336.581 110.478 337.38 110.297C338.187 110.124 338.949 109.897 339.666 109.618ZM341.612 111.677C341.348 112.379 341.14 113.129 340.989 113.929C340.838 114.728 340.744 115.539 340.706 116.361C340.676 117.191 340.699 118.006 340.774 118.805C340.85 119.605 340.993 120.359 341.204 121.068C341.016 121.045 340.782 121.038 340.503 121.045C340.239 121.053 339.971 121.072 339.7 121.102C339.436 121.14 339.206 121.181 339.009 121.226C338.836 120.449 338.734 119.639 338.704 118.794C338.681 117.942 338.715 117.07 338.806 116.18C338.904 115.283 339.062 114.393 339.281 113.51C339.5 112.628 339.764 111.768 340.073 110.931L341.612 111.677ZM344.451 122.324L351.828 129.7L350.764 130.764L343.388 123.387L344.451 122.324ZM346.567 120.796L354.158 128.388L353.027 129.519L345.436 121.928L346.567 120.796ZM341.216 122.754L351.228 132.766L350.063 133.932L340.05 123.919L341.216 122.754ZM349.893 122.742L351.296 124.145L346.148 129.293L344.745 127.89L349.893 122.742ZM349.837 118.997L349.226 119.608L354.249 124.632L354.86 124.021L349.837 118.997ZM351.387 117.447L350.798 118.036L355.822 123.059L356.41 122.471L351.387 117.447ZM351.081 115.083L358.842 122.844L354.622 127.064L346.861 119.303L351.081 115.083ZM347.563 119.778L348.502 121.486C347.966 121.69 347.404 121.852 346.816 121.973C346.228 122.094 345.647 122.177 345.074 122.222C344.5 122.267 343.972 122.275 343.49 122.244C343.482 122.071 343.463 121.864 343.433 121.622C343.403 121.381 343.365 121.14 343.32 120.898C343.282 120.649 343.237 120.438 343.184 120.265C343.871 120.363 344.602 120.37 345.379 120.287C346.171 120.204 346.899 120.035 347.563 119.778Z" fill="black"/>
<path d="M213.896 125.728H228.104V127.52H213.896V125.728ZM217.416 132.608H224.568V134.096H217.416V132.608ZM217.08 135.152H224.92V136.688H217.08V135.152ZM220.04 133.344H221.848V138.976H220.04V133.344ZM214.504 128.72H226.088V130.48H216.424V139.392H214.504V128.72ZM225.544 128.72H227.512V137.472C227.512 137.931 227.448 138.283 227.32 138.528C227.192 138.784 226.968 138.976 226.648 139.104C226.317 139.243 225.912 139.323 225.432 139.344C224.963 139.376 224.403 139.392 223.752 139.392C223.709 139.147 223.624 138.869 223.496 138.56C223.379 138.251 223.256 137.984 223.128 137.76C223.395 137.771 223.667 137.781 223.944 137.792C224.221 137.803 224.472 137.808 224.696 137.808C224.931 137.797 225.085 137.792 225.16 137.792C225.309 137.792 225.411 137.771 225.464 137.728C225.517 137.675 225.544 137.589 225.544 137.472V128.72ZM218.024 130.912L219.544 130.464C219.736 130.72 219.912 131.013 220.072 131.344C220.243 131.675 220.371 131.963 220.456 132.208L218.856 132.736C218.792 132.48 218.68 132.181 218.52 131.84C218.36 131.499 218.195 131.189 218.024 130.912ZM222.536 130.496L224.152 130.944C223.939 131.328 223.725 131.701 223.512 132.064C223.309 132.416 223.112 132.725 222.92 132.992L221.56 132.576C221.677 132.384 221.795 132.165 221.912 131.92C222.04 131.675 222.157 131.429 222.264 131.184C222.371 130.939 222.461 130.709 222.536 130.496ZM219.976 124.512H222.072V129.968H219.976V124.512Z" fill="black"/>
<path d="M215.744 79.336L217.792 79.832C217.536 80.6427 217.227 81.4373 216.864 82.216C216.501 82.984 216.112 83.704 215.696 84.376C215.28 85.048 214.848 85.6293 214.4 86.12C214.272 86.0133 214.096 85.8853 213.872 85.736C213.648 85.5867 213.419 85.4427 213.184 85.304C212.96 85.1547 212.763 85.0373 212.592 84.952C213.051 84.5147 213.477 83.9973 213.872 83.4C214.277 82.8027 214.635 82.1573 214.944 81.464C215.264 80.7707 215.531 80.0613 215.744 79.336ZM216.192 81.416H225.984V83.288H215.232L216.192 81.416ZM212.784 86.616H227.248V88.552H212.784V86.616ZM219.008 82.248H221.008V94.44H219.008V82.248Z" fill="black"/>
<path d="M302.656 223.688H313.504V225.464H302.656V223.688ZM301.424 215.864H314.624V226.344H312.672V217.64H303.296V226.376H301.424V215.864ZM308.656 216.6H310.496V219.48C310.496 219.683 310.512 219.811 310.544 219.864C310.587 219.907 310.688 219.928 310.848 219.928C310.88 219.928 310.949 219.928 311.056 219.928C311.173 219.928 311.285 219.928 311.392 219.928C311.509 219.928 311.595 219.928 311.648 219.928C311.744 219.928 311.813 219.912 311.856 219.88C311.909 219.837 311.947 219.757 311.968 219.64C312 219.523 312.021 219.341 312.032 219.096C312.139 219.181 312.283 219.272 312.464 219.368C312.656 219.453 312.853 219.533 313.056 219.608C313.269 219.672 313.461 219.72 313.632 219.752C313.557 220.243 313.451 220.621 313.312 220.888C313.173 221.155 312.987 221.341 312.752 221.448C312.528 221.555 312.235 221.608 311.872 221.608C311.787 221.608 311.685 221.608 311.568 221.608C311.451 221.608 311.323 221.608 311.184 221.608C311.056 221.608 310.933 221.608 310.816 221.608C310.699 221.608 310.603 221.608 310.528 221.608C310.016 221.608 309.621 221.544 309.344 221.416C309.077 221.288 308.896 221.069 308.8 220.76C308.704 220.451 308.656 220.029 308.656 219.496V216.6ZM300.784 212.28H315.168V214.136H300.784V212.28ZM305.152 213.688H307.04V216.888H305.152V213.688ZM308.656 213.688H310.592V216.888H308.656V213.688ZM305.248 216.232H307.04V217.816C307.04 218.349 306.971 218.899 306.832 219.464C306.693 220.029 306.432 220.568 306.048 221.08C305.664 221.592 305.104 222.04 304.368 222.424C304.283 222.307 304.155 222.168 303.984 222.008C303.813 221.848 303.632 221.693 303.44 221.544C303.259 221.395 303.104 221.283 302.976 221.208C303.648 220.867 304.144 220.504 304.464 220.12C304.795 219.736 305.008 219.341 305.104 218.936C305.2 218.531 305.248 218.141 305.248 217.768V216.232Z" fill="black"/>
<path d="M347.928 224.008H358.488V225.688H347.928V224.008ZM347.928 221.448H358.52V223.032H347.928V221.448ZM346.584 215.672H359.48V226.424H357.608V217.384H348.376V226.424H346.584V215.672ZM353.352 213.512H355.192V218.568C355.192 218.803 355.208 218.947 355.24 219C355.283 219.053 355.368 219.08 355.496 219.08C355.528 219.08 355.576 219.08 355.64 219.08C355.704 219.08 355.773 219.08 355.848 219.08C355.923 219.08 355.992 219.08 356.056 219.08C356.131 219.08 356.184 219.08 356.216 219.08C356.291 219.08 356.349 219.059 356.392 219.016C356.445 218.973 356.483 218.888 356.504 218.76C356.525 218.632 356.541 218.445 356.552 218.2C356.733 218.328 356.973 218.451 357.272 218.568C357.581 218.685 357.859 218.776 358.104 218.84C358.019 219.523 357.848 219.992 357.592 220.248C357.336 220.504 356.941 220.632 356.408 220.632C356.333 220.632 356.237 220.632 356.12 220.632C356.013 220.632 355.896 220.632 355.768 220.632C355.651 220.632 355.539 220.632 355.432 220.632C355.325 220.632 355.235 220.632 355.16 220.632C354.659 220.632 354.28 220.573 354.024 220.456C353.768 220.328 353.592 220.115 353.496 219.816C353.4 219.507 353.352 219.091 353.352 218.568V213.512ZM350.312 213.512H352.04V217.016C352.04 217.667 351.965 218.248 351.816 218.76C351.677 219.272 351.4 219.72 350.984 220.104C350.568 220.488 349.944 220.808 349.112 221.064C348.995 220.861 348.829 220.632 348.616 220.376C348.403 220.12 348.205 219.907 348.024 219.736C348.675 219.544 349.165 219.315 349.496 219.048C349.827 218.781 350.045 218.477 350.152 218.136C350.259 217.784 350.312 217.405 350.312 217V213.512ZM345.864 212.312H360.168V214.152H345.864V212.312Z" fill="black"/>
<path d="M213.896 302.208H218.648V304.112H213.896V302.208ZM221.72 298.672H223.72V310.208C223.72 310.656 223.757 310.944 223.832 311.072C223.907 311.189 224.093 311.248 224.392 311.248C224.456 311.248 224.563 311.248 224.712 311.248C224.861 311.248 225.027 311.248 225.208 311.248C225.389 311.248 225.555 311.248 225.704 311.248C225.853 311.248 225.965 311.248 226.04 311.248C226.253 311.248 226.413 311.157 226.52 310.976C226.627 310.795 226.701 310.469 226.744 310C226.797 309.52 226.84 308.853 226.872 308C227.032 308.117 227.219 308.235 227.432 308.352C227.656 308.469 227.88 308.576 228.104 308.672C228.328 308.757 228.531 308.821 228.712 308.864C228.648 309.888 228.536 310.715 228.376 311.344C228.227 311.973 227.981 312.427 227.64 312.704C227.309 312.992 226.84 313.136 226.232 313.136C226.147 313.136 226.003 313.136 225.8 313.136C225.597 313.136 225.379 313.136 225.144 313.136C224.92 313.136 224.712 313.136 224.52 313.136C224.328 313.136 224.184 313.136 224.088 313.136C223.48 313.136 223 313.045 222.648 312.864C222.307 312.693 222.067 312.395 221.928 311.968C221.789 311.531 221.72 310.939 221.72 310.192V298.672ZM217.688 298.672H219.688V313.264H217.688V298.672ZM227 301.056L228.392 302.784C227.837 303.157 227.251 303.531 226.632 303.904C226.013 304.267 225.384 304.624 224.744 304.976C224.115 305.317 223.496 305.637 222.888 305.936C222.824 305.723 222.712 305.472 222.552 305.184C222.392 304.885 222.248 304.635 222.12 304.432C222.696 304.123 223.277 303.776 223.864 303.392C224.451 303.008 225.011 302.613 225.544 302.208C226.088 301.803 226.573 301.419 227 301.056ZM213.32 309.456C213.757 309.328 214.264 309.173 214.84 308.992C215.416 308.8 216.024 308.592 216.664 308.368C217.304 308.133 217.939 307.904 218.568 307.68L218.936 309.408C218.136 309.771 217.315 310.128 216.472 310.48C215.64 310.832 214.877 311.152 214.184 311.44L213.32 309.456Z" fill="black"/>
<path d="M213.624 350.408H228.392V352.344H213.624V350.408ZM220.008 347.864H222.024V356.2C222.024 356.744 221.949 357.165 221.8 357.464C221.661 357.763 221.395 357.987 221 358.136C220.616 358.285 220.147 358.381 219.592 358.424C219.037 358.467 218.392 358.483 217.656 358.472C217.624 358.28 217.56 358.061 217.464 357.816C217.368 357.581 217.267 357.341 217.16 357.096C217.053 356.861 216.947 356.659 216.84 356.488C217.213 356.499 217.581 356.509 217.944 356.52C218.317 356.531 218.648 356.536 218.936 356.536C219.235 356.536 219.443 356.536 219.56 356.536C219.731 356.536 219.848 356.509 219.912 356.456C219.976 356.403 220.008 356.307 220.008 356.168V347.864ZM215.304 344.392H225.384V346.28H215.304V344.392ZM224.744 344.392H225.256L225.704 344.28L227.16 345.384C226.669 345.907 226.104 346.429 225.464 346.952C224.835 347.475 224.179 347.976 223.496 348.456C222.813 348.925 222.147 349.331 221.496 349.672C221.4 349.533 221.277 349.379 221.128 349.208C220.979 349.037 220.824 348.872 220.664 348.712C220.504 348.541 220.36 348.397 220.232 348.28C220.808 347.992 221.389 347.645 221.976 347.24C222.573 346.835 223.117 346.419 223.608 345.992C224.099 345.565 224.477 345.176 224.744 344.824V344.392Z" fill="black"/>
<path d="M191.208 387.608H202.824V389.72H191.208V387.608ZM189.864 396.904H204.152V399.096H189.864V396.904ZM209.368 389.672V390.616H216.696V389.672H209.368ZM209.368 387.368V388.312H216.696V387.368H209.368ZM207.528 385.928H218.632V392.072H207.528V385.928ZM207.112 392.808H219.08V394.312H207.112V392.808ZM205.784 395.128H220.28V396.728H205.784V395.128ZM212.008 386.584H213.912V396.136H212.008V386.584ZM210.28 397.624L212.04 397.48C212.125 397.896 212.2 398.355 212.264 398.856C212.328 399.357 212.36 399.779 212.36 400.12L210.488 400.344C210.488 399.992 210.472 399.56 210.44 399.048C210.408 398.547 210.355 398.072 210.28 397.624ZM213.432 397.688L215.224 397.336C215.395 397.741 215.56 398.189 215.72 398.68C215.88 399.16 215.992 399.576 216.056 399.928L214.152 400.344C214.109 400.003 214.019 399.581 213.88 399.08C213.741 398.579 213.592 398.115 213.432 397.688ZM216.584 397.592L218.392 397C218.637 397.267 218.888 397.571 219.144 397.912C219.411 398.243 219.656 398.573 219.88 398.904C220.104 399.224 220.28 399.523 220.408 399.8L218.472 400.472C218.365 400.227 218.205 399.933 217.992 399.592C217.789 399.261 217.56 398.92 217.304 398.568C217.059 398.216 216.819 397.891 216.584 397.592ZM207.4 397.016L209.256 397.464C209.075 398.019 208.829 398.568 208.52 399.112C208.211 399.667 207.864 400.125 207.48 400.488L205.656 399.688C206.019 399.4 206.355 399.011 206.664 398.52C206.973 398.029 207.219 397.528 207.4 397.016ZM222.792 390.376H235.24V392.264H222.792V390.376ZM221.736 397.864H236.312V399.752H221.736V397.864ZM227.944 385.432H230.008V399.16H227.944V385.432ZM239.928 395.784H250.36V397.288H239.928V395.784ZM240.344 393.208H251.08V394.808H240.344V393.208ZM237.944 398.376H252.104V400.024H237.944V398.376ZM244.072 392.232H246.056V399.512H244.072V392.232ZM241.384 389.624V390.488H248.488V389.624H241.384ZM241.384 387.432V388.264H248.488V387.432H241.384ZM239.496 385.976H250.472V391.944H239.496V385.976ZM240.328 391.784L242.2 392.328C241.965 392.851 241.683 393.363 241.352 393.864C241.021 394.365 240.669 394.835 240.296 395.272C239.923 395.709 239.555 396.088 239.192 396.408C239.064 396.291 238.904 396.157 238.712 396.008C238.52 395.859 238.323 395.715 238.12 395.576C237.917 395.427 237.736 395.309 237.576 395.224C238.131 394.808 238.653 394.296 239.144 393.688C239.645 393.069 240.04 392.435 240.328 391.784Z" fill="black"/>
<path d="M188.608 40.72H203.424V42.816H188.608V40.72ZM206.992 46.432H216.928V48.368H206.992V46.432ZM206.96 41.536H216.928V43.44H206.96V41.536ZM205.968 36.736H218.08V49.392H216.032V38.688H207.904V49.408H205.968V36.736ZM210.656 34.336L213.168 34.672C212.923 35.2693 212.661 35.8507 212.384 36.416C212.107 36.9813 211.856 37.4667 211.632 37.872L209.728 37.488C209.845 37.1787 209.963 36.8427 210.08 36.48C210.208 36.1173 210.32 35.7493 210.416 35.376C210.523 35.0027 210.603 34.656 210.656 34.336ZM220.832 38.336H225.28V40.272H220.832V38.336ZM227.04 34.416H229.088V46.944C229.088 47.52 229.019 47.968 228.88 48.288C228.741 48.608 228.501 48.8533 228.16 49.024C227.819 49.1947 227.381 49.3067 226.848 49.36C226.325 49.424 225.696 49.456 224.96 49.456C224.939 49.2533 224.885 49.0187 224.8 48.752C224.725 48.496 224.635 48.24 224.528 47.984C224.421 47.7173 224.315 47.4933 224.208 47.312C224.731 47.3333 225.221 47.344 225.68 47.344C226.139 47.344 226.448 47.344 226.608 47.344C226.768 47.344 226.88 47.312 226.944 47.248C227.008 47.184 227.04 47.0827 227.04 46.944V34.416ZM224.624 38.336H225.024L225.376 38.256L226.688 38.736C226.453 40.1973 226.101 41.5253 225.632 42.72C225.173 43.9147 224.629 44.9653 224 45.872C223.381 46.768 222.688 47.4987 221.92 48.064C221.813 47.904 221.664 47.728 221.472 47.536C221.28 47.3333 221.077 47.1413 220.864 46.96C220.661 46.7787 220.48 46.64 220.32 46.544C221.056 46.0427 221.712 45.4133 222.288 44.656C222.864 43.888 223.349 43.008 223.744 42.016C224.149 41.0133 224.443 39.9253 224.624 38.752V38.336ZM228.96 36.752C229.216 37.8187 229.541 38.8427 229.936 39.824C230.341 40.8053 230.816 41.7227 231.36 42.576C231.904 43.4293 232.533 44.192 233.248 44.864C233.973 45.5253 234.784 46.0693 235.68 46.496C235.52 46.624 235.344 46.7893 235.152 46.992C234.96 47.1947 234.779 47.4133 234.608 47.648C234.448 47.872 234.309 48.08 234.192 48.272C232.955 47.568 231.904 46.6613 231.04 45.552C230.176 44.432 229.456 43.152 228.88 41.712C228.304 40.272 227.824 38.7253 227.44 37.072L228.96 36.752ZM233.456 36.912L235.264 38.176C234.805 38.6453 234.32 39.1307 233.808 39.632C233.296 40.1333 232.784 40.608 232.272 41.056C231.771 41.504 231.296 41.8933 230.848 42.224L229.456 41.152C229.893 40.7893 230.352 40.368 230.832 39.888C231.323 39.408 231.797 38.912 232.256 38.4C232.715 37.8773 233.115 37.3813 233.456 36.912ZM238.928 44.784H249.36V46.288H238.928V44.784ZM239.344 42.208H250.08V43.808H239.344V42.208ZM236.944 47.376H251.104V49.024H236.944V47.376ZM243.072 41.232H245.056V48.512H243.072V41.232ZM240.384 38.624V39.488H247.488V38.624H240.384ZM240.384 36.432V37.264H247.488V36.432H240.384ZM238.496 34.976H249.472V40.944H238.496V34.976ZM239.328 40.784L241.2 41.328C240.965 41.8507 240.683 42.3627 240.352 42.864C240.021 43.3653 239.669 43.8347 239.296 44.272C238.923 44.7093 238.555 45.088 238.192 45.408C238.064 45.2907 237.904 45.1573 237.712 45.008C237.52 44.8587 237.323 44.7147 237.12 44.576C236.917 44.4267 236.736 44.3093 236.576 44.224C237.131 43.808 237.653 43.296 238.144 42.688C238.645 42.0693 239.04 41.4347 239.328 40.784Z" fill="black"/>
<path d="M204.1 202.38H221.9V204.88H204.1V202.38ZM211.62 198.06H214.26V203.7H211.62V198.06ZM208.3 207.02L211.1 207.74C210.687 208.86 210.2 209.96 209.64 211.04C209.093 212.12 208.507 213.133 207.88 214.08C207.253 215.013 206.613 215.827 205.96 216.52C205.773 216.347 205.527 216.153 205.22 215.94C204.927 215.727 204.627 215.513 204.32 215.3C204.013 215.087 203.747 214.913 203.52 214.78C204.187 214.18 204.82 213.467 205.42 212.64C206.02 211.813 206.567 210.92 207.06 209.96C207.553 208.987 207.967 208.007 208.3 207.02ZM214.9 207.96L217.34 206.98C217.78 207.62 218.233 208.3 218.7 209.02C219.167 209.74 219.62 210.473 220.06 211.22C220.5 211.953 220.893 212.667 221.24 213.36C221.6 214.053 221.887 214.687 222.1 215.26L219.38 216.44C219.193 215.893 218.933 215.267 218.6 214.56C218.28 213.853 217.913 213.127 217.5 212.38C217.1 211.62 216.673 210.86 216.22 210.1C215.78 209.34 215.34 208.627 214.9 207.96ZM224.18 199.02H241.84V201.36H224.18V199.02ZM227.94 208.5H238.36V210.66H227.94V208.5ZM228.02 213.36H238.14V215.58H228.02V213.36ZM231.58 199.86L234.52 200.46C234.373 201.007 234.22 201.56 234.06 202.12C233.9 202.667 233.747 203.193 233.6 203.7C233.467 204.193 233.327 204.633 233.18 205.02L230.9 204.44C231.007 204 231.107 203.52 231.2 203C231.293 202.467 231.373 201.927 231.44 201.38C231.52 200.833 231.567 200.327 231.58 199.86ZM226.18 203.64H240.04V216.78H237.48V205.86H228.62V216.78H226.18V203.64ZM212.92 224.3C212.373 225.06 211.68 225.847 210.84 226.66C210.013 227.473 209.093 228.253 208.08 229C207.08 229.747 206.033 230.413 204.94 231C204.833 230.8 204.693 230.58 204.52 230.34C204.36 230.1 204.18 229.867 203.98 229.64C203.793 229.413 203.613 229.213 203.44 229.04C204.587 228.493 205.687 227.82 206.74 227.02C207.793 226.207 208.733 225.36 209.56 224.48C210.4 223.6 211.067 222.753 211.56 221.94H214.06C214.607 222.7 215.207 223.427 215.86 224.12C216.513 224.813 217.213 225.453 217.96 226.04C218.707 226.627 219.473 227.153 220.26 227.62C221.047 228.087 221.84 228.48 222.64 228.8C222.333 229.107 222.047 229.453 221.78 229.84C221.513 230.227 221.267 230.6 221.04 230.96C220.28 230.56 219.507 230.1 218.72 229.58C217.947 229.06 217.2 228.507 216.48 227.92C215.76 227.32 215.093 226.713 214.48 226.1C213.867 225.487 213.347 224.887 212.92 224.3ZM207.92 228H217.98V230.1H207.92V228ZM205.52 232.08H220.34V234.16H205.52V232.08ZM204.52 238.16H221.52V240.22H204.52V238.16ZM211.62 228.84H214.16V239.2H211.62V228.84ZM206.78 234.92L208.7 234.12C208.953 234.453 209.2 234.82 209.44 235.22C209.693 235.62 209.92 236.013 210.12 236.4C210.32 236.787 210.467 237.133 210.56 237.44L208.5 238.36C208.42 238.053 208.287 237.7 208.1 237.3C207.913 236.887 207.707 236.473 207.48 236.06C207.253 235.647 207.02 235.267 206.78 234.92ZM216.94 234.14L219.24 234.98C218.84 235.593 218.427 236.207 218 236.82C217.573 237.42 217.18 237.933 216.82 238.36L215.02 237.6C215.247 237.28 215.48 236.927 215.72 236.54C215.96 236.14 216.187 235.733 216.4 235.32C216.613 234.893 216.793 234.5 216.94 234.14ZM226.66 234.98H239.7V236.86H226.66V234.98ZM227.18 231.76H240.6V233.76H227.18V231.76ZM224.18 238.22H241.88V240.28H224.18V238.22ZM231.84 230.54H234.32V239.64H231.84V230.54ZM228.48 227.28V228.36H237.36V227.28H228.48ZM228.48 224.54V225.58H237.36V224.54H228.48ZM226.12 222.72H239.84V230.18H226.12V222.72ZM227.16 229.98L229.5 230.66C229.207 231.313 228.853 231.953 228.44 232.58C228.027 233.207 227.587 233.793 227.12 234.34C226.653 234.887 226.193 235.36 225.74 235.76C225.58 235.613 225.38 235.447 225.14 235.26C224.9 235.073 224.653 234.893 224.4 234.72C224.147 234.533 223.92 234.387 223.72 234.28C224.413 233.76 225.067 233.12 225.68 232.36C226.307 231.587 226.8 230.793 227.16 229.98Z" fill="white"/>
<defs>
<linearGradient id="paint0_linear_56_253" x1="220.75" y1="26" x2="220.75" y2="412.5" gradientUnits="userSpaceOnUse">
<stop stop-color="#FFFBA7"/>
<stop offset="1" stop-color="#FDFAEC"/>
</linearGradient>
<linearGradient id="paint1_linear_56_253" x1="221" y1="64" x2="221" y2="374" gradientUnits="userSpaceOnUse">
<stop stop-color="#FFFDDC"/>
<stop offset="1" stop-color="#E3F8FF"/>
</linearGradient>
<linearGradient id="paint2_linear_56_253" x1="221" y1="109" x2="221" y2="329" gradientUnits="userSpaceOnUse">
<stop stop-color="#C8EEFF"/>
<stop offset="1" stop-color="#E1F3FF"/>
</linearGradient>
<linearGradient id="paint3_linear_56_253" x1="221" y1="154" x2="221" y2="284" gradientUnits="userSpaceOnUse">
<stop stop-color="#58C7FF"/>
<stop offset="1" stop-color="#9FE0FF"/>
</linearGradient>
</defs>
</svg>
