<svg width="442" height="452" viewBox="0 0 442 452" fill="none" xmlns="http://www.w3.org/2000/svg">
<rect width="442" height="452" fill="white"/>
<path d="M272.5 26H169L27.5 166.5V270.5L169 412.5H272.5L414 270.5V166.5L272.5 26Z" fill="url(#paint0_linear_56_6)" stroke="#FFFDE8"/>
<path d="M262.507 64H179.493L66 176.691V260.106L179.493 374H262.507L376 260.106V176.691L262.507 64Z" fill="url(#paint1_linear_56_6)" stroke="#FEFFEA"/>
<path d="M250.457 109H191.543L111 188.974V248.172L191.543 329H250.457L331 248.172V188.974L250.457 109Z" fill="url(#paint2_linear_56_6)" stroke="#DDF4FF"/>
<path d="M414.37 270.528L28 167" stroke="#888686"/>
<path d="M272.527 26L186.777 346.024L169 412.37" stroke="#888686" stroke-opacity="0.82"/>
<path d="M169 26L272.528 412.37" stroke="#888686"/>
<path d="M414.37 167L28 270.528" stroke="#888886"/>
<path d="M238.406 154H203.594L156 201.257V236.238L203.594 284H238.406L286 236.238V201.257L238.406 154Z" fill="url(#paint3_linear_56_6)" stroke="#B9E7FD"/>
<path d="M126.928 212.728H141.136V214.52H126.928V212.728ZM132.96 211.416H134.96V226.44H132.96V211.416ZM132.464 220.552L134.096 221.224C133.723 221.757 133.296 222.269 132.816 222.76C132.347 223.251 131.835 223.715 131.28 224.152C130.736 224.579 130.165 224.968 129.568 225.32C128.981 225.683 128.389 225.992 127.792 226.248C127.685 226.088 127.557 225.907 127.408 225.704C127.259 225.501 127.099 225.304 126.928 225.112C126.757 224.92 126.603 224.76 126.464 224.632C127.051 224.429 127.632 224.184 128.208 223.896C128.784 223.597 129.339 223.272 129.872 222.92C130.405 222.557 130.891 222.179 131.328 221.784C131.776 221.379 132.155 220.968 132.464 220.552ZM135.504 220.616C135.824 221.021 136.208 221.421 136.656 221.816C137.115 222.2 137.611 222.573 138.144 222.936C138.688 223.288 139.253 223.608 139.84 223.896C140.427 224.173 141.013 224.413 141.6 224.616C141.451 224.744 141.285 224.904 141.104 225.096C140.933 225.299 140.768 225.501 140.608 225.704C140.459 225.917 140.331 226.109 140.224 226.28C139.627 226.035 139.035 225.731 138.448 225.368C137.861 225.016 137.291 224.627 136.736 224.2C136.192 223.763 135.68 223.299 135.2 222.808C134.731 222.317 134.309 221.811 133.936 221.288L135.504 220.616ZM130.144 219.176V220.152H137.904V219.176H130.144ZM130.144 216.872V217.832H137.904V216.872H130.144ZM128.272 215.432H139.872V221.592H128.272V215.432Z" fill="black"/>
<path d="M82.744 213.856L84.552 214.432V222.752H82.744V213.856ZM93.896 213.952H95.752V222.624C95.752 223.051 95.704 223.413 95.608 223.712C95.512 224 95.3253 224.224 95.048 224.384C94.7707 224.544 94.44 224.645 94.056 224.688C93.6827 224.731 93.2453 224.752 92.744 224.752C92.7227 224.571 92.6747 224.363 92.6 224.128C92.5253 223.893 92.44 223.659 92.344 223.424C92.2587 223.189 92.168 222.987 92.072 222.816C92.4027 222.827 92.7173 222.837 93.016 222.848C93.3147 222.848 93.5173 222.848 93.624 222.848C93.7307 222.848 93.8 222.827 93.832 222.784C93.8747 222.741 93.896 222.672 93.896 222.576V213.952ZM81.496 222.432C82.1787 222.293 83 222.112 83.96 221.888C84.92 221.653 85.896 221.419 86.888 221.184L87.096 222.8C86.2107 223.045 85.3147 223.285 84.408 223.52C83.5013 223.755 82.6747 223.973 81.928 224.176L81.496 222.432ZM86.648 215.76H88.44V220.048C88.44 220.763 88.3813 221.472 88.264 222.176C88.1573 222.869 87.944 223.541 87.624 224.192C87.304 224.843 86.8293 225.445 86.2 226C85.5707 226.555 84.7333 227.04 83.688 227.456C83.6133 227.317 83.5067 227.152 83.368 226.96C83.24 226.779 83.096 226.603 82.936 226.432C82.7867 226.261 82.648 226.123 82.52 226.016C83.4373 225.653 84.168 225.248 84.712 224.8C85.2667 224.341 85.6827 223.856 85.96 223.344C86.2373 222.821 86.4187 222.283 86.504 221.728C86.6 221.163 86.648 220.592 86.648 220.016V215.76ZM89.704 213.952H94.872V215.696H91.512V227.44H89.704V213.952ZM87.256 212.432L88.968 213.648C88.4667 213.936 87.9387 214.224 87.384 214.512C86.8293 214.789 86.28 215.051 85.736 215.296C85.2027 215.541 84.696 215.749 84.216 215.92L82.984 214.864C83.432 214.661 83.9173 214.427 84.44 214.16C84.9627 213.883 85.4693 213.595 85.96 213.296C86.4613 212.987 86.8933 212.699 87.256 212.432Z" fill="black"/>
<path d="M37.792 183.872H50.16V185.776H37.792V183.872ZM36.864 194.768H51.216V196.672H36.864V194.768ZM42.24 184.544H44.432C44.272 185.504 44.096 186.501 43.904 187.536C43.712 188.571 43.5147 189.6 43.312 190.624C43.1093 191.648 42.9067 192.619 42.704 193.536C42.512 194.453 42.3253 195.269 42.144 195.984H39.984C40.176 195.237 40.3787 194.4 40.592 193.472C40.8053 192.533 41.008 191.557 41.2 190.544C41.4027 189.52 41.5947 188.496 41.776 187.472C41.9573 186.448 42.112 185.472 42.24 184.544ZM38.32 188.56H48.704V195.664H46.704V190.448H38.32V188.56ZM36.8 205.24H51.264V206.984H36.8V205.24ZM37.936 202.584H50.16V204.264H37.936V202.584ZM40.576 201.4H42.528V206.088H40.576V201.4ZM45.52 201.4H47.504V206.088H45.52V201.4ZM43.024 206.232H45.008V212.792H43.024V206.232ZM40.24 211.224V212.152H47.872V211.224H40.24ZM40.24 209.096V209.992H47.872V209.096H40.24ZM38.4 207.768H49.808V213.464H38.4V207.768ZM45.152 214.488L46.224 213.272C46.8107 213.464 47.4027 213.672 48 213.896C48.608 214.12 49.184 214.339 49.728 214.552C50.2827 214.765 50.7573 214.957 51.152 215.128L49.776 216.408C49.424 216.237 48.9973 216.04 48.496 215.816C47.9947 215.603 47.456 215.379 46.88 215.144C46.304 214.909 45.728 214.691 45.152 214.488ZM41.472 213.336L43.104 214.472C42.6773 214.739 42.176 214.995 41.6 215.24C41.024 215.496 40.432 215.731 39.824 215.944C39.216 216.157 38.64 216.339 38.096 216.488C37.936 216.285 37.7227 216.051 37.456 215.784C37.2 215.528 36.9653 215.309 36.752 215.128C37.3173 215 37.8933 214.84 38.48 214.648C39.0773 214.445 39.6427 214.227 40.176 213.992C40.7093 213.757 41.1413 213.539 41.472 213.336ZM37.792 225.376H50.24V227.264H37.792V225.376ZM36.736 232.864H51.312V234.752H36.736V232.864ZM42.944 220.432H45.008V234.16H42.944V220.432ZM38.928 249.784H49.36V251.288H38.928V249.784ZM39.344 247.208H50.08V248.808H39.344V247.208ZM36.944 252.376H51.104V254.024H36.944V252.376ZM43.072 246.232H45.056V253.512H43.072V246.232ZM40.384 243.624V244.488H47.488V243.624H40.384ZM40.384 241.432V242.264H47.488V241.432H40.384ZM38.496 239.976H49.472V245.944H38.496V239.976ZM39.328 245.784L41.2 246.328C40.9653 246.851 40.6827 247.363 40.352 247.864C40.0213 248.365 39.6693 248.835 39.296 249.272C38.9227 249.709 38.5547 250.088 38.192 250.408C38.064 250.291 37.904 250.157 37.712 250.008C37.52 249.859 37.3227 249.715 37.12 249.576C36.9173 249.427 36.736 249.309 36.576 249.224C37.1307 248.808 37.6533 248.296 38.144 247.688C38.6453 247.069 39.04 246.435 39.328 245.784Z" fill="black"/>
<path d="M395.152 182.624H397.248C397.237 183.893 397.211 185.131 397.168 186.336C397.125 187.531 397.019 188.672 396.848 189.76C396.677 190.837 396.4 191.851 396.016 192.8C395.632 193.739 395.093 194.603 394.4 195.392C393.717 196.171 392.832 196.853 391.744 197.44C391.659 197.28 391.536 197.099 391.376 196.896C391.216 196.704 391.045 196.512 390.864 196.32C390.693 196.139 390.523 195.995 390.352 195.888C391.365 195.365 392.176 194.763 392.784 194.08C393.403 193.397 393.877 192.645 394.208 191.824C394.539 190.992 394.768 190.091 394.896 189.12C395.024 188.149 395.093 187.12 395.104 186.032C395.125 184.944 395.141 183.808 395.152 182.624ZM391.168 186.336H401.008V188.272H391.168V186.336ZM399.952 186.336H401.952V194.56C401.952 194.901 401.979 195.12 402.032 195.216C402.085 195.301 402.208 195.344 402.4 195.344C402.443 195.344 402.512 195.344 402.608 195.344C402.704 195.344 402.811 195.344 402.928 195.344C403.045 195.344 403.152 195.344 403.248 195.344C403.355 195.344 403.429 195.344 403.472 195.344C403.611 195.344 403.712 195.28 403.776 195.152C403.84 195.024 403.888 194.784 403.92 194.432C403.952 194.08 403.979 193.568 404 192.896C404.16 193.013 404.341 193.125 404.544 193.232C404.757 193.339 404.976 193.44 405.2 193.536C405.424 193.621 405.627 193.685 405.808 193.728C405.755 194.592 405.653 195.28 405.504 195.792C405.355 196.293 405.136 196.651 404.848 196.864C404.56 197.088 404.171 197.2 403.68 197.2C403.595 197.2 403.477 197.2 403.328 197.2C403.179 197.2 403.019 197.2 402.848 197.2C402.677 197.2 402.517 197.2 402.368 197.2C402.229 197.2 402.123 197.2 402.048 197.2C401.525 197.2 401.109 197.12 400.8 196.96C400.501 196.811 400.283 196.544 400.144 196.16C400.016 195.776 399.952 195.237 399.952 194.544V186.336ZM396.976 211.96H398.96V216.44H396.976V211.96ZM390.72 211.288C391.499 211.288 392.384 211.288 393.376 211.288C394.368 211.277 395.424 211.267 396.544 211.256C397.664 211.235 398.816 211.219 400 211.208C401.184 211.187 402.357 211.171 403.52 211.16L403.424 212.68C402.283 212.723 401.131 212.76 399.968 212.792C398.816 212.824 397.685 212.856 396.576 212.888C395.477 212.909 394.432 212.936 393.44 212.968C392.459 212.989 391.573 213.005 390.784 213.016L390.72 211.288ZM396.608 206.904L398.384 207.608C397.893 208.067 397.371 208.509 396.816 208.936C396.272 209.352 395.765 209.704 395.296 209.992L393.824 209.304C394.133 209.091 394.459 208.851 394.8 208.584C395.152 208.307 395.483 208.024 395.792 207.736C396.101 207.437 396.373 207.16 396.608 206.904ZM400.016 207.88L401.904 208.648C401.275 209.139 400.592 209.619 399.856 210.088C399.131 210.557 398.405 211 397.68 211.416C396.955 211.832 396.272 212.195 395.632 212.504L394.176 211.72C394.827 211.4 395.509 211.021 396.224 210.584C396.949 210.147 397.643 209.693 398.304 209.224C398.965 208.744 399.536 208.296 400.016 207.88ZM392.32 209.416L393.696 208.296C394.133 208.477 394.587 208.685 395.056 208.92C395.536 209.144 395.995 209.373 396.432 209.608C396.869 209.832 397.248 210.04 397.568 210.232L396.176 211.496C395.877 211.293 395.504 211.069 395.056 210.824C394.619 210.568 394.16 210.317 393.68 210.072C393.211 209.827 392.757 209.608 392.32 209.416ZM399.92 214.088L401.584 213.208C402 213.411 402.432 213.645 402.88 213.912C403.328 214.168 403.76 214.429 404.176 214.696C404.603 214.952 404.965 215.181 405.264 215.384L403.552 216.392C403.275 216.168 402.928 215.917 402.512 215.64C402.096 215.373 401.659 215.101 401.2 214.824C400.752 214.536 400.325 214.291 399.92 214.088ZM394.08 213.24L395.904 213.944C395.584 214.253 395.205 214.563 394.768 214.872C394.341 215.181 393.899 215.469 393.44 215.736C392.992 216.003 392.56 216.237 392.144 216.44C392.027 216.323 391.872 216.179 391.68 216.008C391.499 215.848 391.307 215.688 391.104 215.528C390.912 215.379 390.741 215.256 390.592 215.16C391.232 214.925 391.872 214.637 392.512 214.296C393.152 213.955 393.675 213.603 394.08 213.24ZM400.48 210.312L402.128 209.592C402.523 209.901 402.933 210.248 403.36 210.632C403.797 211.016 404.208 211.4 404.592 211.784C404.976 212.168 405.291 212.52 405.536 212.84L403.744 213.64C403.531 213.331 403.243 212.984 402.88 212.6C402.528 212.205 402.139 211.811 401.712 211.416C401.285 211.011 400.875 210.643 400.48 210.312ZM394.912 202.808H397.92V204.328H394.912V202.808ZM398.496 201.4H400.4V205.48C400.4 205.736 400.443 205.901 400.528 205.976C400.624 206.04 400.832 206.072 401.152 206.072C401.227 206.072 401.349 206.072 401.52 206.072C401.691 206.072 401.877 206.072 402.08 206.072C402.283 206.072 402.475 206.072 402.656 206.072C402.837 206.072 402.971 206.072 403.056 206.072C403.237 206.072 403.371 206.045 403.456 205.992C403.552 205.928 403.621 205.811 403.664 205.64C403.707 205.459 403.739 205.197 403.76 204.856C403.952 204.984 404.213 205.112 404.544 205.24C404.875 205.357 405.173 205.443 405.44 205.496C405.365 206.083 405.248 206.541 405.088 206.872C404.928 207.192 404.704 207.416 404.416 207.544C404.128 207.672 403.739 207.736 403.248 207.736C403.163 207.736 403.04 207.736 402.88 207.736C402.731 207.736 402.56 207.736 402.368 207.736C402.176 207.736 401.979 207.736 401.776 207.736C401.584 207.736 401.408 207.736 401.248 207.736C401.099 207.736 400.987 207.736 400.912 207.736C400.261 207.736 399.76 207.667 399.408 207.528C399.067 207.389 398.827 207.16 398.688 206.84C398.56 206.509 398.496 206.061 398.496 205.496V201.4ZM390.528 206.296C391.147 206.243 391.861 206.173 392.672 206.088C393.493 205.992 394.357 205.891 395.264 205.784C396.181 205.677 397.093 205.571 398 205.464L398.048 206.968C397.184 207.096 396.309 207.224 395.424 207.352C394.539 207.469 393.691 207.587 392.88 207.704C392.08 207.811 391.349 207.912 390.688 208.008L390.528 206.296ZM403.568 202.168L404.992 203.512C404.48 203.736 403.925 203.944 403.328 204.136C402.741 204.317 402.139 204.488 401.52 204.648C400.901 204.797 400.304 204.931 399.728 205.048C399.696 204.856 399.621 204.627 399.504 204.36C399.397 204.083 399.291 203.853 399.184 203.672C399.707 203.533 400.24 203.384 400.784 203.224C401.328 203.064 401.84 202.893 402.32 202.712C402.8 202.531 403.216 202.349 403.568 202.168ZM394.128 201.4H395.904V206.84L394.128 206.968V201.4ZM391.52 202.584H393.168V206.984L391.52 207.128V202.584ZM397.936 222.24C397.499 222.848 396.944 223.477 396.272 224.128C395.611 224.779 394.875 225.403 394.064 226C393.264 226.597 392.427 227.131 391.552 227.6C391.467 227.44 391.355 227.264 391.216 227.072C391.088 226.88 390.944 226.693 390.784 226.512C390.635 226.331 390.491 226.171 390.352 226.032C391.269 225.595 392.149 225.056 392.992 224.416C393.835 223.765 394.587 223.088 395.248 222.384C395.92 221.68 396.453 221.003 396.848 220.352H398.848C399.285 220.96 399.765 221.541 400.288 222.096C400.811 222.651 401.371 223.163 401.968 223.632C402.565 224.101 403.179 224.523 403.808 224.896C404.437 225.269 405.072 225.584 405.712 225.84C405.467 226.085 405.237 226.363 405.024 226.672C404.811 226.981 404.613 227.28 404.432 227.568C403.824 227.248 403.205 226.88 402.576 226.464C401.957 226.048 401.36 225.605 400.784 225.136C400.208 224.656 399.675 224.171 399.184 223.68C398.693 223.189 398.277 222.709 397.936 222.24ZM393.936 225.2H401.984V226.88H393.936V225.2ZM392.016 228.464H403.872V230.128H392.016V228.464ZM391.216 233.328H404.816V234.976H391.216V233.328ZM396.896 225.872H398.928V234.16H396.896V225.872ZM393.024 230.736L394.56 230.096C394.763 230.363 394.96 230.656 395.152 230.976C395.355 231.296 395.536 231.611 395.696 231.92C395.856 232.229 395.973 232.507 396.048 232.752L394.4 233.488C394.336 233.243 394.229 232.96 394.08 232.64C393.931 232.309 393.765 231.979 393.584 231.648C393.403 231.317 393.216 231.013 393.024 230.736ZM401.152 230.112L402.992 230.784C402.672 231.275 402.341 231.765 402 232.256C401.659 232.736 401.344 233.147 401.056 233.488L399.616 232.88C399.797 232.624 399.984 232.341 400.176 232.032C400.368 231.712 400.549 231.387 400.72 231.056C400.891 230.715 401.035 230.4 401.152 230.112ZM392.928 249.784H403.36V251.288H392.928V249.784ZM393.344 247.208H404.08V248.808H393.344V247.208ZM390.944 252.376H405.104V254.024H390.944V252.376ZM397.072 246.232H399.056V253.512H397.072V246.232ZM394.384 243.624V244.488H401.488V243.624H394.384ZM394.384 241.432V242.264H401.488V241.432H394.384ZM392.496 239.976H403.472V245.944H392.496V239.976ZM393.328 245.784L395.2 246.328C394.965 246.851 394.683 247.363 394.352 247.864C394.021 248.365 393.669 248.835 393.296 249.272C392.923 249.709 392.555 250.088 392.192 250.408C392.064 250.291 391.904 250.157 391.712 250.008C391.52 249.859 391.323 249.715 391.12 249.576C390.917 249.427 390.736 249.309 390.576 249.224C391.131 248.808 391.653 248.296 392.144 247.688C392.645 247.069 393.04 246.435 393.328 245.784Z" fill="black"/>
<path d="M149.959 169.319L160.006 159.273L161.273 160.54L151.226 170.586L149.959 169.319ZM157.313 171.695L162.37 166.638L163.422 167.69L158.365 172.747L157.313 171.695ZM158.874 173.732L164.418 168.188L165.504 169.274L159.96 174.818L158.874 173.732ZM159.689 170.36L160.967 169.082L164.95 173.064L163.671 174.343L159.689 170.36ZM152.505 171.005L160.696 162.814L161.94 164.058L155.107 170.892L161.408 177.194L160.051 178.551L152.505 171.005ZM160.311 163.199L161.703 161.807L167.891 167.996C168.216 168.32 168.419 168.614 168.502 168.878C168.593 169.15 168.57 169.444 168.434 169.76C168.299 170.092 168.068 170.436 167.744 170.79C167.435 171.145 167.05 171.552 166.59 172.012C166.386 171.869 166.13 171.733 165.821 171.605C165.519 171.469 165.244 171.367 164.995 171.299C165.191 171.118 165.391 170.933 165.595 170.745C165.798 170.556 165.979 170.383 166.138 170.224C166.296 170.051 166.402 169.938 166.454 169.885C166.56 169.779 166.617 169.693 166.624 169.625C166.624 169.549 166.583 169.47 166.5 169.387L160.311 163.199ZM156.544 170.066L157.302 168.674C157.618 168.72 157.95 168.803 158.297 168.923C158.652 169.036 158.946 169.15 159.18 169.263L158.422 170.767C158.195 170.632 157.905 170.5 157.55 170.371C157.196 170.243 156.86 170.141 156.544 170.066ZM159.44 166.581L160.899 165.755C161.02 166.178 161.133 166.593 161.239 167C161.344 167.392 161.424 167.75 161.476 168.075L160.221 168.742C160.168 168.524 160.096 168.286 160.006 168.03C159.923 167.766 159.832 167.509 159.734 167.26C159.636 167.011 159.538 166.785 159.44 166.581ZM153.398 164.16L154.88 162.678L158.738 166.536L157.256 168.018L153.398 164.16ZM161.295 157.983L171.342 147.936L172.609 149.203L162.562 159.25L161.295 157.983ZM164.633 152.79L166.047 151.376L176.671 161.999L175.256 163.414L164.633 152.79ZM170.742 159.601L172.371 158.922C172.485 159.563 172.545 160.227 172.552 160.913C172.568 161.592 172.534 162.282 172.451 162.984C172.368 163.67 172.239 164.349 172.066 165.02C171.908 165.691 171.708 166.329 171.466 166.932C171.278 166.894 171.059 166.857 170.81 166.819C170.561 166.781 170.309 166.755 170.052 166.74C169.796 166.725 169.573 166.721 169.385 166.728C169.656 166.17 169.894 165.586 170.097 164.975C170.293 164.356 170.456 163.734 170.584 163.108C170.705 162.474 170.78 161.864 170.81 161.275C170.84 160.672 170.818 160.114 170.742 159.601ZM172.937 157.496C173.45 157.557 174.004 157.568 174.6 157.53C175.196 157.478 175.811 157.391 176.444 157.27C177.078 157.134 177.704 156.961 178.322 156.75C178.933 156.531 179.518 156.286 180.076 156.014C180.061 156.21 180.057 156.44 180.065 156.704C180.087 156.968 180.114 157.229 180.144 157.485C180.189 157.742 180.234 157.968 180.28 158.164C179.684 158.413 179.05 158.616 178.379 158.775C177.715 158.941 177.036 159.069 176.343 159.16C175.649 159.235 174.959 159.269 174.272 159.261C173.593 159.246 172.937 159.186 172.304 159.08L172.937 157.496ZM168.129 160.268L168.819 160.958L174.306 155.471L173.616 154.781L168.129 160.268ZM166.5 158.639L167.178 159.318L172.666 153.831L171.987 153.152L166.5 158.639ZM164.158 158.945L172.36 150.742L176.716 155.098L168.513 163.3L164.158 158.945Z" fill="black"/>
<path d="M113.785 145.701L122.248 137.238L123.56 138.551L115.098 147.013L113.785 145.701ZM117.847 149.876L126.626 141.096L127.86 142.329L119.08 151.109L117.847 149.876ZM117.179 146.47L123.345 140.304L124.567 141.526L118.401 147.692L117.179 146.47ZM113.005 146.482L114.362 145.124L117.802 148.563C118.284 149.046 118.797 149.589 119.34 150.192C119.883 150.796 120.415 151.441 120.936 152.127C121.456 152.813 121.916 153.522 122.316 154.254C122.723 154.978 123.025 155.702 123.221 156.426C123.063 156.434 122.863 156.468 122.621 156.528C122.388 156.581 122.15 156.645 121.909 156.72C121.675 156.788 121.479 156.864 121.32 156.947C121.147 156.275 120.879 155.616 120.517 154.967C120.155 154.318 119.74 153.692 119.273 153.089C118.805 152.485 118.326 151.916 117.836 151.38C117.345 150.845 116.878 150.355 116.433 149.91L113.005 146.482ZM119.827 148.846L121.151 147.522L125.427 151.799L124.103 153.123L119.827 148.846ZM122.814 154.005C123.146 153.583 123.515 153.093 123.922 152.534C124.33 151.961 124.76 151.358 125.212 150.724C125.672 150.083 126.129 149.446 126.581 148.812L127.848 149.921C127.449 150.517 127.037 151.124 126.615 151.742C126.193 152.361 125.782 152.953 125.382 153.519C124.997 154.084 124.639 154.609 124.307 155.091L122.814 154.005ZM123.108 145.565C124.036 146.131 124.96 146.527 125.88 146.753C126.8 146.979 127.731 147.006 128.674 146.832C129.625 146.651 130.605 146.236 131.616 145.588C131.616 145.784 131.631 146.01 131.661 146.267C131.699 146.516 131.744 146.764 131.797 147.013C131.857 147.27 131.921 147.492 131.989 147.681C130.835 148.337 129.723 148.733 128.652 148.869C127.581 148.989 126.51 148.884 125.438 148.552C124.367 148.22 123.247 147.703 122.078 147.002L123.108 145.565ZM126.457 143.755L128.425 143.348C128.342 143.823 128.241 144.317 128.12 144.83C128.007 145.335 127.882 145.829 127.746 146.312C127.611 146.78 127.479 147.213 127.35 147.613L125.767 147.839C125.88 147.439 125.982 146.998 126.072 146.516C126.17 146.025 126.253 145.543 126.321 145.067C126.389 144.577 126.434 144.14 126.457 143.755ZM138.987 145.072L126.146 132.231L127.232 131.145L140.073 143.986L138.987 145.072ZM137.375 129.488L144.084 122.779L145.419 124.114L138.71 130.823L137.375 129.488ZM133.788 125.947L141.233 118.503L146.754 124.024L145.351 125.427L141.165 121.24L135.123 127.282L133.788 125.947ZM132.974 126.762L134.388 125.347L141.674 132.633C141.968 132.927 142.221 133.12 142.432 133.21C142.636 133.293 142.858 133.259 143.099 133.109C143.348 132.95 143.68 132.664 144.095 132.249C144.216 132.128 144.404 131.939 144.661 131.683C144.917 131.427 145.204 131.14 145.521 130.823C145.845 130.499 146.169 130.174 146.494 129.85C146.818 129.526 147.108 129.235 147.365 128.979C147.629 128.715 147.821 128.523 147.942 128.402C148.319 128.025 148.56 127.701 148.666 127.429C148.771 127.142 148.749 126.833 148.598 126.501C148.44 126.162 148.149 125.721 147.727 125.178C147.923 125.132 148.138 125.068 148.372 124.985C148.598 124.895 148.824 124.789 149.05 124.668C149.277 124.548 149.469 124.438 149.627 124.34C150.035 124.868 150.348 125.355 150.566 125.8C150.778 126.237 150.88 126.656 150.872 127.056C150.872 127.448 150.748 127.851 150.499 128.266C150.265 128.681 149.903 129.134 149.412 129.624C149.322 129.714 149.171 129.865 148.96 130.076C148.756 130.28 148.519 130.518 148.247 130.789C147.983 131.053 147.708 131.328 147.421 131.615C147.135 131.902 146.859 132.177 146.595 132.441C146.331 132.705 146.098 132.939 145.894 133.142C145.698 133.339 145.555 133.482 145.464 133.572C144.913 134.123 144.423 134.545 143.993 134.84C143.563 135.134 143.152 135.303 142.76 135.349C142.368 135.394 141.972 135.307 141.572 135.088C141.165 134.862 140.724 134.511 140.248 134.036L132.974 126.762Z" fill="black"/>
<path d="M81.2535 126.102L91.3227 116.033L92.7369 117.447L82.6677 127.516L81.2535 126.102ZM83.0637 119.404L84.5571 117.911L87.7476 121.101L86.2542 122.595L83.0637 119.404ZM86.2542 126.351L88.2454 125.174C88.6451 126.042 88.9921 126.939 89.2862 127.867C89.5879 128.787 89.8293 129.692 90.0103 130.582C90.1838 131.465 90.2818 132.287 90.3045 133.049C90.1008 133.056 89.8519 133.086 89.5578 133.139C89.2711 133.184 88.9808 133.233 88.6866 133.286C88.3924 133.339 88.1435 133.392 87.9399 133.445C87.9776 132.728 87.9324 131.966 87.8041 131.159C87.6759 130.352 87.4798 129.538 87.2158 128.716C86.9443 127.886 86.6237 127.098 86.2542 126.351ZM90.5194 123.149L91.3453 121.215C91.9563 121.328 92.5974 121.456 93.2687 121.599C93.9399 121.743 94.6112 121.901 95.2825 122.074C95.9462 122.24 96.5723 122.421 97.1606 122.617C97.7564 122.806 98.2769 123.002 98.7219 123.206L97.8507 125.412C97.4359 125.208 96.9343 125.001 96.346 124.79C95.7652 124.571 95.1467 124.367 94.4905 124.179C93.8343 123.975 93.1631 123.787 92.4767 123.613C91.7979 123.432 91.1455 123.277 90.5194 123.149ZM90.7118 112.842L100.702 102.852L102.025 104.176L92.0355 114.166L90.7118 112.842ZM98.2014 116.078L104.096 110.184L105.318 111.406L99.4233 117.3L98.2014 116.078ZM100.996 118.782L106.721 113.057L107.976 114.313L102.252 120.038L100.996 118.782ZM95.373 109.132L97.3755 107.808C97.6018 108.2 97.8281 108.6 98.0544 109.007C98.2731 109.407 98.4843 109.791 98.6879 110.161C98.8916 110.516 99.0613 110.844 99.197 111.145L97.5792 112.107C97.3906 111.798 97.1757 111.47 96.9343 111.123C96.6854 110.768 96.4252 110.418 96.1537 110.071C95.8897 109.716 95.6295 109.403 95.373 109.132ZM94.4566 114.325L102.297 106.484L109.73 113.917L108.282 115.365L102.105 109.188L97.0927 114.2L103.27 120.377L101.89 121.758L94.4566 114.325ZM107.694 97.3087C107.814 98.0479 107.867 98.8851 107.852 99.8203C107.844 100.748 107.765 101.71 107.614 102.705C107.471 103.693 107.256 104.663 106.97 105.613C106.796 105.56 106.592 105.515 106.359 105.477C106.132 105.432 105.899 105.402 105.657 105.387C105.423 105.364 105.208 105.353 105.012 105.353C105.352 104.395 105.593 103.392 105.736 102.343C105.872 101.287 105.925 100.277 105.895 99.3112C105.872 98.3382 105.77 97.4822 105.589 96.743L107.003 95.3288C107.743 95.4495 108.493 95.5211 109.255 95.5438C110.017 95.5664 110.775 95.5324 111.529 95.4419C112.283 95.3514 113.015 95.2157 113.724 95.0346C114.433 94.8536 115.104 94.6273 115.738 94.3558C115.738 94.7028 115.772 95.061 115.84 95.4306C115.907 95.8002 115.979 96.1509 116.054 96.4828C115.398 96.6864 114.701 96.8637 113.961 97.0145C113.23 97.1578 112.494 97.2672 111.755 97.3426C111.009 97.4105 110.288 97.4445 109.594 97.4445C108.9 97.4445 108.267 97.3992 107.694 97.3087ZM106.958 102.23L112.649 96.5394L113.837 97.7273L108.146 103.418L106.958 102.23ZM107.909 105.896L116.292 97.5123L117.469 98.689L109.085 107.072L107.909 105.896ZM110.782 109.901L120.399 100.284L121.564 101.45L111.948 111.066L110.782 109.901ZM109.526 100.612L110.963 99.1755L116.824 105.036L115.387 106.473L109.526 100.612ZM110.228 106.79L110.861 105.251C111.193 105.296 111.54 105.364 111.902 105.455C112.272 105.538 112.623 105.632 112.955 105.737C113.286 105.843 113.565 105.956 113.792 106.077L113.147 107.763C112.928 107.634 112.653 107.51 112.321 107.389C111.982 107.261 111.631 107.144 111.269 107.038C110.907 106.933 110.56 106.85 110.228 106.79ZM115.534 100.601L117.31 99.7751C117.431 100.348 117.544 100.929 117.65 101.517C117.748 102.098 117.816 102.611 117.853 103.056L116.405 103.644C116.352 103.335 116.285 103.003 116.202 102.649C116.111 102.287 116.009 101.928 115.896 101.574C115.775 101.212 115.655 100.888 115.534 100.601ZM121.508 95.5777L128.884 88.2012L129.948 89.2646L122.571 96.6412L121.508 95.5777ZM119.98 93.462L127.572 85.8705L128.703 87.0019L121.112 94.5934L119.98 93.462ZM121.938 98.8134L131.95 88.8008L133.116 89.9661L123.103 99.9787L121.938 98.8134ZM121.926 90.1358L123.329 88.7329L128.477 93.8806L127.074 95.2835L121.926 90.1358ZM118.181 90.1924L118.792 90.8033L123.816 85.78L123.205 85.1691L118.181 90.1924ZM116.631 88.6424L117.22 89.2307L122.243 84.2074L121.655 83.6191L116.631 88.6424ZM114.267 88.9479L122.028 81.1867L126.248 85.4067L118.487 93.1679L114.267 88.9479ZM118.962 92.4664L120.67 91.5274C120.874 92.0629 121.036 92.6248 121.157 93.2131C121.278 93.8014 121.361 94.3822 121.406 94.9554C121.451 95.5287 121.459 96.0566 121.428 96.5394C121.255 96.5469 121.048 96.5658 120.806 96.5959C120.565 96.6261 120.324 96.6638 120.082 96.7091C119.833 96.7468 119.622 96.792 119.449 96.8448C119.547 96.1585 119.554 95.4268 119.471 94.65C119.388 93.858 119.219 93.1302 118.962 92.4664Z" fill="black"/>
<path d="M270.894 146.959L280.94 157.006L279.673 158.273L269.627 148.226L270.894 146.959ZM268.518 154.313L273.575 159.37L272.523 160.422L267.466 155.365L268.518 154.313ZM266.481 155.874L272.025 161.418L270.939 162.504L265.395 156.96L266.481 155.874ZM269.853 156.689L271.131 157.967L267.149 161.95L265.87 160.671L269.853 156.689ZM269.208 149.505L277.399 157.696L276.155 158.94L269.321 152.107L263.019 158.408L261.662 157.051L269.208 149.505ZM277.014 157.311L278.406 158.703L272.217 164.891C271.893 165.216 271.599 165.419 271.335 165.502C271.063 165.593 270.769 165.57 270.453 165.434C270.121 165.299 269.777 165.068 269.423 164.744C269.068 164.435 268.661 164.05 268.201 163.59C268.344 163.386 268.48 163.13 268.608 162.821C268.744 162.519 268.846 162.244 268.914 161.995C269.095 162.191 269.28 162.391 269.468 162.595C269.657 162.798 269.83 162.979 269.989 163.138C270.162 163.296 270.275 163.402 270.328 163.454C270.434 163.56 270.52 163.617 270.588 163.624C270.664 163.624 270.743 163.583 270.826 163.5L277.014 157.311ZM270.147 153.544L271.539 154.302C271.493 154.618 271.41 154.95 271.29 155.297C271.177 155.652 271.063 155.946 270.95 156.18L269.446 155.422C269.581 155.195 269.713 154.905 269.842 154.55C269.97 154.196 270.072 153.86 270.147 153.544ZM273.632 156.44L274.458 157.899C274.035 158.02 273.62 158.133 273.213 158.239C272.821 158.344 272.463 158.424 272.138 158.476L271.471 157.221C271.689 157.168 271.927 157.096 272.184 157.006C272.447 156.923 272.704 156.832 272.953 156.734C273.202 156.636 273.428 156.538 273.632 156.44ZM276.053 150.398L277.535 151.88L273.677 155.738L272.195 154.256L276.053 150.398ZM275.702 167.267L283.373 174.938L282.117 176.194L274.446 168.523L275.702 167.267ZM280.363 160.864L289.697 170.197L282.287 177.608L280.906 176.228L287.061 170.073L280.431 163.443L274.254 169.62L272.93 168.297L280.363 160.864ZM284.957 166.498L286.258 167.799L284.221 169.835C284.078 169.979 283.999 170.08 283.984 170.141C283.984 170.201 284.04 170.288 284.153 170.401C284.176 170.424 284.225 170.473 284.3 170.548C284.383 170.631 284.463 170.71 284.538 170.786C284.621 170.869 284.681 170.929 284.719 170.967C284.787 171.035 284.847 171.072 284.9 171.08C284.968 171.087 285.051 171.057 285.149 170.989C285.255 170.929 285.398 170.816 285.579 170.65C285.594 170.786 285.632 170.952 285.692 171.148C285.768 171.344 285.85 171.54 285.941 171.736C286.047 171.932 286.148 172.102 286.246 172.245C285.847 172.539 285.504 172.732 285.217 172.822C284.93 172.913 284.666 172.913 284.425 172.822C284.191 172.739 283.946 172.569 283.69 172.313C283.629 172.253 283.558 172.181 283.475 172.098C283.392 172.015 283.301 171.925 283.203 171.827C283.113 171.736 283.026 171.649 282.943 171.566C282.86 171.483 282.792 171.415 282.739 171.363C282.377 171.001 282.143 170.676 282.038 170.39C281.94 170.111 281.966 169.828 282.117 169.541C282.268 169.255 282.532 168.923 282.909 168.546L284.957 166.498ZM282.445 157.877L292.616 168.048L291.304 169.36L281.133 159.189L282.445 157.877ZM284.538 161.961L285.873 163.296L283.61 165.559L282.275 164.224L284.538 161.961ZM287.016 164.439L288.385 165.808L286.122 168.07L284.753 166.701L287.016 164.439ZM282.807 163.828L284.074 165.095L282.954 166.215C282.577 166.592 282.14 166.931 281.642 167.233C281.144 167.535 280.578 167.731 279.945 167.821C279.311 167.912 278.598 167.833 277.806 167.584C277.829 167.441 277.837 167.252 277.829 167.018C277.822 166.784 277.803 166.547 277.772 166.305C277.75 166.072 277.72 165.883 277.682 165.74C278.399 165.974 279.006 166.068 279.503 166.023C280.009 165.985 280.439 165.857 280.793 165.638C281.148 165.419 281.457 165.178 281.721 164.914L282.807 163.828Z" fill="black"/>
<path d="M291.07 119.263L301.207 129.4L299.861 130.746L289.724 120.609L291.07 119.263ZM294.713 117.317L303.176 125.78L301.83 127.126L293.367 118.663L294.713 117.317ZM299.872 119.082L301.32 120.53L290.697 131.154L289.249 129.706L299.872 119.082ZM294.362 124.117L295.053 125.78C294.336 125.953 293.589 126.081 292.812 126.164C292.043 126.24 291.266 126.262 290.482 126.232C289.705 126.21 288.939 126.138 288.185 126.017C287.446 125.897 286.737 125.731 286.058 125.52C286.103 125.323 286.137 125.093 286.16 124.829C286.19 124.573 286.209 124.313 286.217 124.049C286.239 123.785 286.243 123.547 286.228 123.336C286.854 123.585 287.514 123.792 288.208 123.958C288.917 124.124 289.63 124.241 290.346 124.309C291.063 124.377 291.76 124.396 292.439 124.366C293.126 124.328 293.767 124.245 294.362 124.117ZM296.286 126.063C296.15 126.651 296.063 127.288 296.026 127.975C296.003 128.661 296.026 129.362 296.093 130.079C296.161 130.795 296.271 131.501 296.422 132.195C296.588 132.889 296.791 133.545 297.033 134.163C296.844 134.141 296.614 134.137 296.342 134.152C296.086 134.167 295.826 134.193 295.562 134.231C295.298 134.269 295.068 134.31 294.872 134.356C294.668 133.684 294.51 132.975 294.396 132.229C294.283 131.482 294.215 130.72 294.193 129.943C294.178 129.159 294.208 128.382 294.283 127.613C294.366 126.851 294.494 126.112 294.668 125.395L296.286 126.063ZM297.141 141.987L309.982 129.146L311.068 130.232L298.227 143.073L297.141 141.987ZM314.331 136.551L323.507 145.726L316.775 152.458L315.361 151.044L320.792 145.613L314.388 139.209L308.901 144.697L307.543 143.339L314.331 136.551ZM312.781 139.888L320.316 147.423L319.061 148.679L311.526 141.144L312.781 139.888ZM310.326 142.321L317.895 149.89L316.594 151.191L309.025 143.622L310.326 142.321ZM319.66 138.847L321.086 140.273L310.462 150.896L309.037 149.471L319.66 138.847Z" fill="black"/>
<path d="M263.713 283.073L267.073 279.713L268.419 281.059L265.059 284.419L263.713 283.073ZM266.745 275.04L268.159 273.626L276.316 281.783C276.633 282.1 276.863 282.277 277.006 282.315C277.142 282.345 277.315 282.255 277.527 282.043C277.572 281.998 277.647 281.923 277.753 281.817C277.859 281.711 277.975 281.595 278.104 281.466C278.232 281.338 278.349 281.221 278.454 281.116C278.56 281.01 278.639 280.931 278.692 280.878C278.843 280.727 278.892 280.55 278.839 280.346C278.786 280.143 278.609 279.86 278.307 279.498C278.006 279.121 277.564 278.619 276.984 277.993C277.18 277.963 277.395 277.914 277.628 277.846C277.87 277.771 278.104 277.688 278.33 277.597C278.549 277.499 278.737 277.401 278.896 277.303C279.574 278.072 280.08 278.736 280.412 279.294C280.751 279.845 280.898 280.339 280.853 280.776C280.823 281.214 280.593 281.647 280.163 282.077C280.102 282.138 280.001 282.239 279.857 282.383C279.714 282.526 279.559 282.681 279.393 282.847C279.235 283.005 279.088 283.152 278.952 283.288C278.816 283.424 278.715 283.525 278.647 283.593C278.217 284.023 277.813 284.299 277.436 284.419C277.074 284.54 276.693 284.498 276.293 284.295C275.886 284.084 275.419 283.714 274.891 283.186L266.745 275.04ZM263.894 277.891L265.308 276.477L275.626 286.795L274.212 288.209L263.894 277.891ZM272.164 272.992L274.37 273.23C274.242 273.886 274.091 274.565 273.918 275.266C273.737 275.96 273.544 276.658 273.341 277.359C273.137 278.046 272.926 278.71 272.707 279.351C272.511 279.245 272.254 279.147 271.938 279.057C271.613 278.958 271.334 278.883 271.1 278.83C271.289 278.204 271.455 277.548 271.598 276.862C271.742 276.175 271.858 275.5 271.949 274.837C272.047 274.165 272.119 273.551 272.164 272.992ZM268.43 288.605C268.649 288.206 268.898 287.738 269.177 287.202C269.449 286.659 269.732 286.082 270.026 285.471C270.312 284.853 270.599 284.242 270.886 283.639L272.368 284.6C272.058 285.422 271.73 286.256 271.383 287.101C271.044 287.938 270.731 288.703 270.444 289.397L268.43 288.605ZM282.267 276.511L289.938 268.84L291.194 270.096L283.523 277.767L282.267 276.511ZM275.864 271.85L285.197 262.516L292.608 269.926L291.228 271.307L285.073 265.152L278.443 271.782L284.62 277.959L283.297 279.283L275.864 271.85ZM281.498 267.256L282.799 265.955L284.835 267.992C284.979 268.135 285.08 268.214 285.141 268.229C285.201 268.229 285.288 268.173 285.401 268.06C285.424 268.037 285.473 267.988 285.548 267.913C285.631 267.83 285.71 267.75 285.786 267.675C285.869 267.592 285.929 267.532 285.967 267.494C286.035 267.426 286.072 267.366 286.08 267.313C286.087 267.245 286.057 267.162 285.989 267.064C285.929 266.958 285.816 266.815 285.65 266.634C285.786 266.619 285.952 266.581 286.148 266.521C286.344 266.446 286.54 266.363 286.736 266.272C286.932 266.166 287.102 266.065 287.245 265.967C287.539 266.366 287.732 266.709 287.822 266.996C287.913 267.283 287.913 267.547 287.822 267.788C287.739 268.022 287.569 268.267 287.313 268.523C287.253 268.584 287.181 268.655 287.098 268.738C287.015 268.821 286.925 268.912 286.827 269.01C286.736 269.1 286.649 269.187 286.566 269.27C286.483 269.353 286.415 269.421 286.363 269.474C286.001 269.836 285.676 270.07 285.39 270.175C285.111 270.273 284.828 270.247 284.541 270.096C284.255 269.945 283.923 269.681 283.546 269.304L281.498 267.256ZM272.877 269.768L283.048 259.597L284.36 260.909L274.189 271.08L272.877 269.768ZM276.961 267.675L278.296 266.34L280.559 268.603L279.224 269.938L276.961 267.675ZM279.439 265.197L280.808 263.828L283.07 266.091L281.701 267.46L279.439 265.197ZM278.828 269.406L280.095 268.139L281.215 269.259C281.592 269.636 281.931 270.073 282.233 270.571C282.535 271.069 282.731 271.635 282.821 272.268C282.912 272.902 282.833 273.615 282.584 274.407C282.441 274.384 282.252 274.376 282.018 274.384C281.784 274.392 281.547 274.41 281.305 274.441C281.072 274.463 280.883 274.493 280.74 274.531C280.974 273.815 281.068 273.207 281.023 272.71C280.985 272.204 280.857 271.774 280.638 271.42C280.419 271.065 280.178 270.756 279.914 270.492L278.828 269.406Z" fill="black"/>
<path d="M288.67 316.441L288.817 314.484C289.345 314.333 289.926 314.182 290.56 314.032C291.193 313.881 291.816 313.756 292.427 313.658C293.03 313.553 293.554 313.496 293.999 313.488L293.886 315.638C293.471 315.631 292.962 315.665 292.359 315.74C291.755 315.815 291.129 315.913 290.481 316.034C289.832 316.155 289.228 316.291 288.67 316.441ZM297.269 315.627L297.619 313.511C298.042 313.39 298.517 313.262 299.045 313.126C299.565 312.983 300.09 312.844 300.618 312.708C301.146 312.572 301.658 312.459 302.156 312.368C302.654 312.263 303.092 312.187 303.469 312.142L303.141 314.507C302.801 314.529 302.39 314.578 301.907 314.654C301.425 314.729 300.916 314.824 300.38 314.937C299.845 315.035 299.309 315.148 298.773 315.276C298.23 315.397 297.729 315.514 297.269 315.627ZM289.949 310.524L291.997 309.744C292.004 310.309 291.997 310.89 291.974 311.486C291.944 312.074 291.906 312.648 291.861 313.206C291.816 313.749 291.755 314.247 291.68 314.699L289.983 315.219C290.036 314.744 290.069 314.235 290.085 313.692C290.1 313.134 290.096 312.58 290.073 312.029C290.058 311.471 290.017 310.969 289.949 310.524ZM284.993 313.941L295.153 303.781L296.42 305.048L286.261 315.208L284.993 313.941ZM288.048 308.352L289.474 306.927L291.295 308.748L289.87 310.174L288.048 308.352ZM293.581 308.816L295.481 308.228C295.655 309.517 295.647 310.83 295.459 312.165C295.27 313.485 294.938 314.797 294.463 316.102C293.98 317.399 293.392 318.681 292.698 319.949C292.434 319.851 292.11 319.768 291.725 319.7C291.34 319.617 290.982 319.568 290.65 319.553C291.359 318.391 291.966 317.203 292.472 315.989C292.97 314.767 293.324 313.545 293.535 312.323C293.746 311.101 293.762 309.932 293.581 308.816ZM296.828 309.28L298.841 308.714C299.09 310.29 299.087 311.856 298.83 313.409C298.574 314.963 298.117 316.513 297.461 318.059C296.805 319.59 295.994 321.118 295.029 322.641C294.742 322.521 294.399 322.411 293.999 322.313C293.614 322.215 293.252 322.155 292.913 322.132C293.871 320.707 294.689 319.27 295.368 317.822C296.039 316.366 296.511 314.922 296.782 313.488C297.061 312.048 297.076 310.645 296.828 309.28ZM310.987 311.072L298.146 298.231L299.232 297.145L312.073 309.986L310.987 311.072ZM311.456 286.618L311.479 284.989C311.796 284.883 312.139 284.789 312.509 284.706C312.886 284.616 313.252 284.544 313.606 284.491C313.961 284.423 314.262 284.393 314.511 284.401L314.534 286.166C314.285 286.143 313.983 286.158 313.629 286.211C313.274 286.249 312.905 286.301 312.52 286.369C312.135 286.437 311.781 286.52 311.456 286.618ZM315.597 288.293L317.317 287.32C318.245 289.349 318.799 291.381 318.98 293.418C319.161 295.454 318.969 297.427 318.403 299.335C318.237 299.29 318.022 299.256 317.758 299.233C317.509 299.21 317.249 299.191 316.978 299.176C316.721 299.161 316.499 299.158 316.31 299.165C316.951 297.393 317.211 295.586 317.091 293.746C316.97 291.89 316.472 290.073 315.597 288.293ZM306.954 293.248L315.597 284.604L316.887 285.894L308.243 294.538L306.954 293.248ZM311.411 295.692L314.194 292.909L315.45 294.164L312.667 296.948L311.411 295.692ZM306.275 293.927L307.632 292.569L310.698 295.635C311.121 296.058 311.566 296.54 312.033 297.083C312.494 297.619 312.935 298.196 313.357 298.814C313.787 299.425 314.153 300.063 314.455 300.726C314.749 301.383 314.937 302.046 315.02 302.718C314.862 302.695 314.654 302.691 314.398 302.706C314.149 302.729 313.896 302.755 313.64 302.785C313.399 302.816 313.195 302.853 313.029 302.899C312.946 302.303 312.776 301.733 312.52 301.19C312.271 300.64 311.966 300.115 311.604 299.618C311.249 299.112 310.876 298.641 310.483 298.203C310.084 297.758 309.703 297.355 309.341 296.993L306.275 293.927ZM308.809 287.614L310.178 286.245C311.158 287.18 312.124 288.063 313.074 288.892C314.025 289.707 314.937 290.438 315.812 291.087C316.68 291.728 317.487 292.249 318.233 292.648C318.98 293.048 319.64 293.301 320.213 293.406C320.786 293.512 321.247 293.429 321.594 293.158C321.759 293.052 321.707 292.803 321.435 292.411C321.164 292.004 320.741 291.483 320.168 290.85C320.447 290.842 320.764 290.804 321.118 290.736C321.48 290.661 321.786 290.582 322.035 290.499C323.015 291.645 323.528 292.573 323.573 293.282C323.626 293.998 323.283 294.545 322.544 294.922C321.971 295.3 321.311 295.462 320.564 295.409C319.825 295.364 319.018 295.137 318.143 294.73C317.268 294.323 316.336 293.768 315.348 293.067C314.353 292.358 313.308 291.547 312.214 290.635C311.121 289.707 309.986 288.7 308.809 287.614Z" fill="black"/>
<path d="M306.124 343.903L310.796 339.23L312.244 340.678L307.572 345.351L306.124 343.903ZM309.676 340.35L311.305 338.721C312.263 339.528 313.229 340.297 314.202 341.029C315.182 341.753 316.17 342.386 317.166 342.93C318.161 343.458 319.149 343.857 320.13 344.129C321.11 344.385 322.083 344.461 323.049 344.355C322.996 344.559 322.951 344.808 322.913 345.102C322.883 345.403 322.86 345.705 322.845 346.007C322.838 346.301 322.834 346.561 322.834 346.788C321.793 346.833 320.752 346.705 319.711 346.403C318.663 346.094 317.626 345.66 316.6 345.102C315.582 344.536 314.575 343.884 313.579 343.145C312.584 342.405 311.611 341.628 310.66 340.814L310.4 341.074L309.676 340.35ZM308.85 346.041L310.638 344.683C311.181 345.453 311.705 346.263 312.21 347.116C312.716 347.953 313.164 348.816 313.557 349.706C313.941 350.589 314.243 351.479 314.462 352.376C314.673 353.267 314.756 354.149 314.711 355.024C314.522 355.001 314.292 354.998 314.021 355.013C313.764 355.028 313.5 355.05 313.229 355.08C312.972 355.111 312.75 355.145 312.561 355.182C312.629 354.39 312.569 353.591 312.38 352.784C312.184 351.969 311.905 351.17 311.543 350.385C311.173 349.593 310.755 348.835 310.287 348.111C309.819 347.372 309.34 346.682 308.85 346.041ZM324.531 340.927L331.557 333.901L332.926 335.27L325.9 342.296L324.531 340.927ZM321.046 337.488L328.095 330.439L329.441 331.786L322.393 338.834L321.046 337.488ZM316.951 334.795L325.515 326.231L334.464 335.18L333.016 336.628L325.447 329.059L319.7 334.806L327.28 342.386L325.911 343.755L316.951 334.795ZM318.569 329.783L320.582 328.244C320.831 328.84 321.058 329.436 321.261 330.032C321.465 330.628 321.631 331.148 321.759 331.593L320.141 332.668C320.005 332.366 319.851 332.046 319.677 331.706C319.511 331.359 319.33 331.02 319.134 330.688C318.946 330.349 318.757 330.047 318.569 329.783ZM330.007 325.472L338.809 316.67L340.144 318.005L331.342 326.808L330.007 325.472ZM334.555 331.514L344.862 321.207L346.197 322.542L335.89 332.849L334.555 331.514ZM330.154 318.334L331.613 316.874L341.321 326.581L339.861 328.041L330.154 318.334ZM345.948 317.18L353.324 309.803L354.388 310.866L347.011 318.243L345.948 317.18ZM344.42 315.064L352.012 307.472L353.143 308.604L345.552 316.195L344.42 315.064ZM346.378 320.415L356.39 310.403L357.556 311.568L347.543 321.581L346.378 320.415ZM346.366 311.738L347.769 310.335L352.917 315.482L351.514 316.885L346.366 311.738ZM342.622 311.794L343.233 312.405L348.256 307.382L347.645 306.771L342.622 311.794ZM341.072 310.244L341.66 310.833L346.683 305.809L346.095 305.221L341.072 310.244ZM338.707 310.55L346.468 302.789L350.688 307.009L342.927 314.77L338.707 310.55ZM343.402 314.068L345.111 313.129C345.314 313.665 345.476 314.227 345.597 314.815C345.718 315.403 345.801 315.984 345.846 316.557C345.891 317.131 345.899 317.658 345.869 318.141C345.695 318.149 345.488 318.168 345.246 318.198C345.005 318.228 344.764 318.266 344.522 318.311C344.273 318.349 344.062 318.394 343.889 318.447C343.987 317.76 343.994 317.029 343.911 316.252C343.828 315.46 343.659 314.732 343.402 314.068Z" fill="black"/>
<path d="M156.927 261.5L160.287 264.86L158.941 266.206L155.581 262.846L156.927 261.5ZM164.96 264.532L166.374 265.946L158.217 274.103C157.9 274.42 157.723 274.65 157.685 274.793C157.655 274.929 157.746 275.102 157.957 275.314C158.002 275.359 158.077 275.434 158.183 275.54C158.289 275.646 158.406 275.762 158.534 275.891C158.662 276.019 158.779 276.136 158.885 276.241C158.99 276.347 159.069 276.426 159.122 276.479C159.273 276.63 159.45 276.679 159.654 276.626C159.857 276.573 160.14 276.396 160.502 276.094C160.879 275.793 161.381 275.351 162.007 274.771C162.037 274.967 162.086 275.182 162.154 275.415C162.23 275.657 162.313 275.891 162.403 276.117C162.501 276.336 162.599 276.524 162.697 276.683C161.928 277.361 161.264 277.867 160.706 278.199C160.155 278.538 159.661 278.685 159.224 278.64C158.786 278.61 158.353 278.38 157.923 277.95C157.862 277.889 157.761 277.788 157.617 277.644C157.474 277.501 157.319 277.346 157.154 277.18C156.995 277.022 156.848 276.875 156.712 276.739C156.577 276.603 156.475 276.502 156.407 276.434C155.977 276.004 155.702 275.6 155.581 275.223C155.46 274.861 155.502 274.48 155.705 274.08C155.917 273.673 156.286 273.206 156.814 272.678L164.96 264.532ZM162.109 261.681L163.523 263.095L153.205 273.413L151.791 271.999L162.109 261.681ZM167.008 269.951L166.77 272.157C166.114 272.029 165.435 271.878 164.734 271.705C164.04 271.524 163.342 271.331 162.641 271.128C161.954 270.924 161.291 270.713 160.649 270.494C160.755 270.298 160.853 270.041 160.944 269.725C161.042 269.4 161.117 269.121 161.17 268.887C161.796 269.076 162.452 269.242 163.138 269.385C163.825 269.529 164.5 269.645 165.164 269.736C165.835 269.834 166.45 269.906 167.008 269.951ZM151.395 266.217C151.795 266.436 152.262 266.685 152.798 266.964C153.341 267.236 153.918 267.518 154.529 267.813C155.147 268.099 155.758 268.386 156.362 268.672L155.4 270.155C154.578 269.845 153.744 269.517 152.9 269.17C152.062 268.831 151.297 268.518 150.603 268.231L151.395 266.217ZM170.017 271.082L180.064 281.129L178.797 282.396L168.75 272.349L170.017 271.082ZM175.21 274.42L176.624 275.834L166.001 286.458L164.587 285.043L175.21 274.42ZM168.399 280.529L169.078 282.158C168.437 282.272 167.773 282.332 167.087 282.339C166.408 282.355 165.718 282.321 165.017 282.238C164.33 282.155 163.651 282.026 162.98 281.853C162.309 281.695 161.671 281.495 161.068 281.253C161.106 281.065 161.143 280.846 161.181 280.597C161.219 280.348 161.245 280.096 161.26 279.839C161.275 279.583 161.279 279.36 161.272 279.172C161.83 279.443 162.414 279.681 163.025 279.884C163.644 280.08 164.266 280.243 164.892 280.371C165.526 280.492 166.137 280.567 166.725 280.597C167.328 280.627 167.886 280.605 168.399 280.529ZM170.504 282.724C170.443 283.237 170.432 283.791 170.47 284.387C170.523 284.983 170.609 285.598 170.73 286.231C170.866 286.865 171.039 287.491 171.25 288.109C171.469 288.72 171.714 289.305 171.986 289.863C171.79 289.848 171.56 289.844 171.296 289.852C171.032 289.874 170.771 289.901 170.515 289.931C170.259 289.976 170.032 290.021 169.836 290.067C169.587 289.471 169.384 288.837 169.225 288.166C169.059 287.502 168.931 286.823 168.841 286.13C168.765 285.436 168.731 284.745 168.739 284.059C168.754 283.38 168.814 282.724 168.92 282.091L170.504 282.724ZM167.732 277.916L167.042 278.606L172.529 284.093L173.219 283.403L167.732 277.916ZM169.361 276.287L168.682 276.965L174.169 282.453L174.848 281.774L169.361 276.287ZM169.056 273.945L177.258 282.147L172.902 286.503L164.7 278.3L169.056 273.945Z" fill="black"/>
<path d="M132.67 290.374L134.005 291.709L129.152 296.563L127.817 295.228L132.67 290.374ZM130.838 287.297L137.06 293.52L135.963 294.617L129.74 288.394L130.838 287.297ZM127.251 292.286L126.629 292.909L131.505 297.785L132.127 297.163L127.251 292.286ZM128.824 290.714L128.213 291.325L133.089 296.201L133.7 295.59L128.824 290.714ZM128.541 288.372L136.11 295.941L131.856 300.195L124.287 292.626L128.541 288.372ZM128.111 297.717L129.808 297.626C130.08 298.185 130.347 298.762 130.611 299.357C130.883 299.961 131.132 300.534 131.358 301.077C131.599 301.62 131.799 302.099 131.958 302.514L129.966 302.469C129.838 302.084 129.676 301.628 129.48 301.1C129.291 300.579 129.08 300.029 128.846 299.448C128.613 298.867 128.367 298.29 128.111 297.717ZM135.872 287.082L137.275 288.485L135.669 290.091L134.266 288.689L135.872 287.082ZM130.962 283.756L140.681 293.474L138.18 295.975L136.789 294.583L138.056 293.316L131.064 286.324L129.797 287.591L128.462 286.256L130.962 283.756ZM126.538 294.334L126.855 296.325C126.342 296.22 125.78 296.05 125.169 295.816C124.559 295.597 123.948 295.334 123.337 295.024C122.726 294.73 122.152 294.413 121.617 294.074C121.677 293.833 121.73 293.531 121.775 293.169C121.828 292.814 121.862 292.501 121.877 292.23C122.367 292.554 122.895 292.863 123.461 293.158C124.042 293.452 124.6 293.701 125.136 293.904C125.686 294.108 126.154 294.251 126.538 294.334ZM133.141 309.987L145.982 297.146L147.068 298.232L134.227 311.073L133.141 309.987ZM151.621 304.098L158.342 310.818L157.018 312.142L150.297 305.422L151.621 304.098ZM142.378 311.531L152.47 321.623L151.157 322.935L141.066 312.844L142.378 311.531ZM146.666 306.994L157.007 317.335L155.672 318.67L145.331 308.329L146.666 306.994ZM153.035 306.96L154.427 308.352C153.839 308.835 153.22 309.333 152.572 309.845C151.923 310.358 151.267 310.871 150.603 311.384C149.947 311.905 149.298 312.41 148.657 312.9C148.016 313.39 147.401 313.847 146.813 314.269C146.24 314.692 145.719 315.069 145.252 315.401L143.837 313.986C144.335 313.654 144.882 313.274 145.478 312.844C146.074 312.414 146.688 311.957 147.322 311.475C147.971 310.992 148.623 310.498 149.279 309.993C149.943 309.48 150.592 308.967 151.225 308.454C151.859 307.941 152.462 307.443 153.035 306.96ZM157.719 310.196L159.134 311.61C158.53 312.184 157.893 312.776 157.221 313.387C156.558 313.99 155.883 314.597 155.196 315.208C154.51 315.819 153.835 316.411 153.171 316.984C152.523 317.558 151.896 318.101 151.293 318.614C150.697 319.119 150.15 319.575 149.653 319.983L148.216 318.546C148.721 318.131 149.279 317.671 149.89 317.165C150.509 316.653 151.15 316.11 151.814 315.536C152.485 314.971 153.16 314.386 153.839 313.783C154.525 313.172 155.193 312.565 155.841 311.961C156.505 311.358 157.131 310.769 157.719 310.196Z" fill="black"/>
<path d="M92.7434 310.868L103.22 321.345L101.738 322.827L91.2613 312.35L92.7434 310.868ZM101.704 327.907L108.73 334.933L107.361 336.302L100.335 329.276L101.704 327.907ZM105.143 324.422L112.192 331.471L110.845 332.817L103.797 325.769L105.143 324.422ZM107.836 320.327L116.4 328.891L107.451 337.84L106.003 336.392L113.572 328.823L107.825 323.076L100.244 330.656L98.8754 329.287L107.836 320.327ZM112.848 321.945L114.387 323.958C113.791 324.207 113.195 324.434 112.599 324.637C112.003 324.841 111.483 325.007 111.038 325.135L109.963 323.517C110.265 323.381 110.585 323.227 110.925 323.053C111.271 322.887 111.611 322.706 111.943 322.51C112.282 322.322 112.584 322.133 112.848 321.945ZM117.215 331.968L120.36 335.114L118.991 336.483L115.846 333.337L117.215 331.968ZM124.377 333.586L125.825 335.034L116.966 343.893C116.559 344.3 116.193 344.568 115.869 344.696C115.544 344.825 115.201 344.828 114.839 344.708C114.477 344.587 114.089 344.357 113.674 344.018C113.259 343.693 112.791 343.271 112.271 342.75C112.399 342.592 112.527 342.388 112.656 342.139C112.784 341.906 112.901 341.661 113.006 341.404C113.119 341.14 113.202 340.906 113.255 340.703C113.61 341.087 113.949 341.442 114.273 341.766C114.598 342.09 114.816 342.309 114.93 342.422C115.043 342.535 115.145 342.592 115.235 342.592C115.326 342.592 115.42 342.543 115.518 342.445L124.377 333.586ZM119.896 334.65L120.179 334.933L120.485 335.125L121.073 336.392C119.874 337.259 118.686 337.95 117.509 338.463C116.34 338.983 115.212 339.341 114.126 339.537C113.055 339.733 112.048 339.76 111.106 339.617C111.143 339.428 111.162 339.198 111.162 338.926C111.17 338.647 111.162 338.368 111.139 338.089C111.124 337.818 111.094 337.591 111.049 337.41C111.924 337.576 112.833 337.595 113.776 337.467C114.726 337.331 115.691 337.052 116.672 336.63C117.667 336.207 118.644 335.645 119.602 334.944L119.896 334.65ZM124.082 336.596C123.509 337.531 123.015 338.485 122.6 339.458C122.193 340.439 121.88 341.423 121.661 342.411C121.443 343.399 121.348 344.383 121.378 345.364C121.424 346.344 121.612 347.302 121.944 348.238C121.74 348.215 121.499 348.207 121.22 348.215C120.941 348.222 120.658 348.249 120.371 348.294C120.1 348.339 119.855 348.388 119.636 348.441C119.259 347.068 119.157 345.684 119.331 344.289C119.512 342.886 119.908 341.472 120.519 340.046C121.129 338.621 121.884 337.188 122.781 335.747L124.082 336.596ZM127.148 339.888L127.533 342.06C126.877 342.068 126.19 342.068 125.474 342.06C124.757 342.053 124.06 342.026 123.381 341.981C122.71 341.943 122.099 341.883 121.548 341.8L121.322 340.058C121.888 340.111 122.51 340.137 123.189 340.137C123.875 340.144 124.561 340.129 125.248 340.092C125.942 340.046 126.575 339.979 127.148 339.888ZM125.451 349.324L132.828 356.7L131.764 357.764L124.388 350.387L125.451 349.324ZM127.567 347.796L135.158 355.388L134.027 356.519L126.436 348.928L127.567 347.796ZM122.216 349.754L132.228 359.766L131.063 360.932L121.05 350.919L122.216 349.754ZM130.893 349.742L132.296 351.145L127.148 356.293L125.745 354.89L130.893 349.742ZM130.837 345.997L130.226 346.608L135.249 351.632L135.86 351.021L130.837 345.997ZM132.387 344.447L131.798 345.036L136.822 350.059L137.41 349.471L132.387 344.447ZM132.081 342.083L139.842 349.844L135.622 354.064L127.861 346.303L132.081 342.083ZM128.563 346.778L129.502 348.486C128.966 348.69 128.404 348.852 127.816 348.973C127.228 349.094 126.647 349.177 126.074 349.222C125.5 349.267 124.972 349.275 124.49 349.244C124.482 349.071 124.463 348.864 124.433 348.622C124.403 348.381 124.365 348.14 124.32 347.898C124.282 347.649 124.237 347.438 124.184 347.265C124.871 347.363 125.602 347.37 126.379 347.287C127.171 347.204 127.899 347.035 128.563 346.778Z" fill="black"/>
<path d="M315.681 80.8589L325.252 90.4303L316.031 99.651L314.594 98.2142L322.503 90.3059L315.737 83.5403L307.738 91.5391L306.369 90.1701L315.681 80.8589ZM309.141 88.8464L317.298 97.0036L315.997 98.3047L307.84 90.1475L309.141 88.8464ZM319.878 86.957L321.202 88.2807L318.056 91.4259C317.883 91.5994 317.792 91.7126 317.785 91.7654C317.785 91.8408 317.826 91.92 317.909 92.0029C317.947 92.0407 317.996 92.0897 318.056 92.15C318.117 92.2104 318.166 92.2594 318.204 92.2971C318.241 92.3348 318.283 92.3688 318.328 92.3989C318.381 92.4366 318.426 92.4593 318.464 92.4668C318.501 92.4743 318.547 92.4743 318.6 92.4668C318.667 92.4593 318.743 92.4216 318.826 92.3537C318.916 92.2933 319.041 92.184 319.199 92.0256C319.373 91.8672 319.569 91.6862 319.787 91.4825C319.803 91.7088 319.855 91.9728 319.946 92.2745C320.044 92.5837 320.153 92.8515 320.274 93.0777C320.033 93.2889 319.784 93.4926 319.527 93.6887C319.286 93.8848 319.09 94.013 318.939 94.0734C318.773 94.1337 318.615 94.1639 318.464 94.1639C318.328 94.1639 318.177 94.1337 318.011 94.0734C317.875 94.0281 317.728 93.9489 317.57 93.8358C317.427 93.7226 317.298 93.6095 317.185 93.4964C317.117 93.4285 317.038 93.3493 316.948 93.2588C316.857 93.1683 316.767 93.0777 316.676 92.9872C316.593 92.9043 316.518 92.8288 316.45 92.761C316.299 92.6101 316.167 92.4329 316.054 92.2292C315.941 92.0256 315.877 91.8182 315.862 91.607C315.854 91.4033 315.907 91.1921 316.02 90.9734C316.133 90.7547 316.382 90.453 316.767 90.0683L319.878 86.957ZM317.615 84.649L318.939 85.9727C318.139 86.727 317.355 87.3832 316.586 87.9413C315.816 88.4995 315.032 88.9068 314.232 89.1632C313.433 89.4196 312.569 89.4611 311.642 89.2877C311.725 89.0538 311.781 88.7559 311.811 88.3939C311.849 88.0243 311.853 87.7037 311.823 87.4322C312.562 87.5831 313.244 87.5491 313.87 87.3304C314.504 87.1041 315.122 86.7572 315.726 86.2895C316.337 85.8143 316.967 85.2675 317.615 84.649ZM331.87 105.308L332.221 107.016C331.731 107.054 331.229 107.088 330.716 107.118C330.211 107.156 329.77 107.175 329.393 107.175L329.155 105.76C329.419 105.738 329.71 105.704 330.026 105.659C330.351 105.621 330.671 105.572 330.988 105.512C331.32 105.451 331.614 105.383 331.87 105.308ZM326.112 100.952L327.65 101.269C327.635 101.691 327.594 102.148 327.526 102.638C327.466 103.121 327.375 103.52 327.254 103.837L325.591 103.532C325.72 103.222 325.825 102.823 325.908 102.332C326.006 101.842 326.074 101.382 326.112 100.952ZM331.837 95.8609L336.611 100.635L332.787 104.459L331.463 103.136L334.19 100.409L330.739 96.9583L331.837 95.8609ZM330.445 97.7956L334.359 101.71L333.307 102.762L329.393 98.8477L330.445 97.7956ZM327.99 98.6441L334.235 104.889L333.104 106.021L326.859 99.7755L327.99 98.6441ZM329.958 101.631L331.214 102.887L326.123 107.978C325.837 108.265 325.58 108.461 325.354 108.566C325.12 108.679 324.864 108.687 324.584 108.589C324.313 108.513 324.038 108.359 323.759 108.125C323.479 107.906 323.17 107.627 322.831 107.288C322.989 107.099 323.148 106.858 323.306 106.564C323.457 106.277 323.578 106.013 323.668 105.772C323.849 105.968 324.023 106.156 324.188 106.337C324.369 106.518 324.494 106.635 324.562 106.688C324.675 106.801 324.784 106.805 324.89 106.699L329.958 101.631ZM322.446 103.305C322.914 103.441 323.495 103.592 324.188 103.758C324.89 103.916 325.606 104.075 326.338 104.233L325.738 105.67C325.097 105.587 324.445 105.493 323.781 105.387C323.133 105.281 322.522 105.183 321.948 105.093L322.446 103.305ZM330.547 103.464C330.245 103.901 329.962 104.388 329.698 104.923C329.442 105.451 329.227 106.013 329.053 106.609C328.887 107.197 328.801 107.804 328.793 108.43C328.801 109.056 328.918 109.686 329.144 110.32C328.985 110.312 328.789 110.32 328.556 110.342C328.322 110.365 328.088 110.395 327.854 110.433C327.613 110.478 327.405 110.527 327.232 110.58C327.073 109.924 327.024 109.264 327.085 108.6C327.153 107.944 327.288 107.303 327.492 106.677C327.703 106.043 327.948 105.451 328.227 104.901C328.514 104.358 328.797 103.871 329.076 103.441L330.547 103.464ZM329.11 92.3197L329.868 93.915C329.423 94.0583 328.963 94.2016 328.488 94.3449C328.02 94.4806 327.564 94.6126 327.119 94.7409C326.681 94.8615 326.285 94.9558 325.931 95.0237L325.399 93.7453C325.769 93.6472 326.172 93.5228 326.61 93.3719C327.047 93.2211 327.488 93.0513 327.933 92.8628C328.386 92.6818 328.778 92.5007 329.11 92.3197ZM329.042 94.9445L329.653 96.5511C328.952 96.6944 328.205 96.8377 327.413 96.981C326.621 97.1243 325.848 97.2487 325.094 97.3543C324.339 97.4599 323.653 97.5278 323.034 97.558L322.684 96.3474C323.151 96.3022 323.657 96.2343 324.2 96.1438C324.758 96.0533 325.32 95.9439 325.886 95.8157C326.466 95.6874 327.028 95.5479 327.571 95.3971C328.114 95.2462 328.605 95.0954 329.042 94.9445ZM324.72 93.2248L326.304 92.9759C326.312 93.3455 326.312 93.7377 326.304 94.1525C326.297 94.5674 326.274 94.9671 326.236 95.3518C326.199 95.7365 326.131 96.0608 326.033 96.3248L324.279 96.6302C324.377 96.3663 324.456 96.0382 324.517 95.646C324.584 95.2613 324.633 94.8578 324.664 94.4354C324.701 94.0055 324.72 93.6019 324.72 93.2248ZM325.953 97.2638L327.288 97.8295C327.19 98.2293 327.062 98.6441 326.904 99.074C326.745 99.5039 326.579 99.9112 326.406 100.296C326.24 100.673 326.07 100.994 325.897 101.258L324.415 100.681C324.603 100.432 324.792 100.115 324.98 99.7302C325.169 99.3455 325.346 98.942 325.512 98.5196C325.686 98.0897 325.833 97.6711 325.953 97.2638ZM322.378 95.4989C322.906 95.9816 323.532 96.5473 324.256 97.1959C324.988 97.837 325.731 98.4895 326.485 99.1532L325.399 100.285C324.683 99.6736 323.966 99.0627 323.249 98.4518C322.548 97.8408 321.911 97.294 321.337 96.8113L322.378 95.4989ZM323.43 100.42L324.652 101.077C324.479 101.522 324.256 101.985 323.985 102.468C323.721 102.958 323.472 103.351 323.238 103.645L321.903 102.966C322.152 102.672 322.416 102.287 322.695 101.812C322.989 101.337 323.234 100.873 323.43 100.42ZM321.179 97.6711L322.073 98.9496C321.469 99.4323 320.843 99.8773 320.195 100.285C319.561 100.692 318.984 100.997 318.464 101.201C318.441 101.073 318.4 100.918 318.339 100.737C318.279 100.556 318.211 100.375 318.136 100.194C318.068 100.006 318.004 99.8509 317.943 99.7302C318.449 99.5567 318.984 99.2777 319.55 98.893C320.116 98.5083 320.659 98.101 321.179 97.6711ZM323.487 97.8295L324.664 99.0061L319.606 104.063L318.43 102.887L323.487 97.8295ZM336.453 104.935L346.409 114.891L345.062 116.237L335.106 106.281L336.453 104.935ZM343.331 106.541L344.779 107.989L334.156 118.613L332.708 117.165L343.331 106.541ZM339.666 109.618L340.458 111.225C339.605 111.564 338.734 111.847 337.844 112.073C336.954 112.3 336.06 112.462 335.163 112.56C334.273 112.666 333.39 112.703 332.515 112.673C331.656 112.643 330.83 112.534 330.038 112.345C330.075 112.156 330.106 111.93 330.128 111.666C330.151 111.402 330.166 111.138 330.173 110.874C330.189 110.603 330.189 110.369 330.173 110.173C330.898 110.384 331.659 110.527 332.459 110.603C333.273 110.678 334.096 110.693 334.925 110.648C335.762 110.595 336.581 110.478 337.38 110.297C338.187 110.124 338.949 109.897 339.666 109.618ZM341.612 111.677C341.348 112.379 341.14 113.129 340.989 113.929C340.838 114.728 340.744 115.539 340.706 116.361C340.676 117.191 340.699 118.006 340.774 118.805C340.85 119.605 340.993 120.359 341.204 121.068C341.016 121.045 340.782 121.038 340.503 121.045C340.239 121.053 339.971 121.072 339.7 121.102C339.436 121.14 339.206 121.181 339.009 121.226C338.836 120.449 338.734 119.639 338.704 118.794C338.681 117.942 338.715 117.07 338.806 116.18C338.904 115.283 339.062 114.393 339.281 113.51C339.5 112.628 339.764 111.768 340.073 110.931L341.612 111.677ZM344.451 122.324L351.828 129.7L350.764 130.764L343.388 123.387L344.451 122.324ZM346.567 120.796L354.158 128.388L353.027 129.519L345.436 121.928L346.567 120.796ZM341.216 122.754L351.228 132.766L350.063 133.932L340.05 123.919L341.216 122.754ZM349.893 122.742L351.296 124.145L346.148 129.293L344.745 127.89L349.893 122.742ZM349.837 118.997L349.226 119.608L354.249 124.632L354.86 124.021L349.837 118.997ZM351.387 117.447L350.798 118.036L355.822 123.059L356.41 122.471L351.387 117.447ZM351.081 115.083L358.842 122.844L354.622 127.064L346.861 119.303L351.081 115.083ZM347.563 119.778L348.502 121.486C347.966 121.69 347.404 121.852 346.816 121.973C346.228 122.094 345.647 122.177 345.074 122.222C344.5 122.267 343.972 122.275 343.49 122.244C343.482 122.071 343.463 121.864 343.433 121.622C343.403 121.381 343.365 121.14 343.32 120.898C343.282 120.649 343.237 120.438 343.184 120.265C343.871 120.363 344.602 120.37 345.379 120.287C346.171 120.204 346.899 120.035 347.563 119.778Z" fill="black"/>
<path d="M213.896 125.728H228.104V127.52H213.896V125.728ZM217.416 132.608H224.568V134.096H217.416V132.608ZM217.08 135.152H224.92V136.688H217.08V135.152ZM220.04 133.344H221.848V138.976H220.04V133.344ZM214.504 128.72H226.088V130.48H216.424V139.392H214.504V128.72ZM225.544 128.72H227.512V137.472C227.512 137.931 227.448 138.283 227.32 138.528C227.192 138.784 226.968 138.976 226.648 139.104C226.317 139.243 225.912 139.323 225.432 139.344C224.963 139.376 224.403 139.392 223.752 139.392C223.709 139.147 223.624 138.869 223.496 138.56C223.379 138.251 223.256 137.984 223.128 137.76C223.395 137.771 223.667 137.781 223.944 137.792C224.221 137.803 224.472 137.808 224.696 137.808C224.931 137.797 225.085 137.792 225.16 137.792C225.309 137.792 225.411 137.771 225.464 137.728C225.517 137.675 225.544 137.589 225.544 137.472V128.72ZM218.024 130.912L219.544 130.464C219.736 130.72 219.912 131.013 220.072 131.344C220.243 131.675 220.371 131.963 220.456 132.208L218.856 132.736C218.792 132.48 218.68 132.181 218.52 131.84C218.36 131.499 218.195 131.189 218.024 130.912ZM222.536 130.496L224.152 130.944C223.939 131.328 223.725 131.701 223.512 132.064C223.309 132.416 223.112 132.725 222.92 132.992L221.56 132.576C221.677 132.384 221.795 132.165 221.912 131.92C222.04 131.675 222.157 131.429 222.264 131.184C222.371 130.939 222.461 130.709 222.536 130.496ZM219.976 124.512H222.072V129.968H219.976V124.512Z" fill="black"/>
<path d="M215.744 79.336L217.792 79.832C217.536 80.6427 217.227 81.4373 216.864 82.216C216.501 82.984 216.112 83.704 215.696 84.376C215.28 85.048 214.848 85.6293 214.4 86.12C214.272 86.0133 214.096 85.8853 213.872 85.736C213.648 85.5867 213.419 85.4427 213.184 85.304C212.96 85.1547 212.763 85.0373 212.592 84.952C213.051 84.5147 213.477 83.9973 213.872 83.4C214.277 82.8027 214.635 82.1573 214.944 81.464C215.264 80.7707 215.531 80.0613 215.744 79.336ZM216.192 81.416H225.984V83.288H215.232L216.192 81.416ZM212.784 86.616H227.248V88.552H212.784V86.616ZM219.008 82.248H221.008V94.44H219.008V82.248Z" fill="black"/>
<path d="M302.656 223.688H313.504V225.464H302.656V223.688ZM301.424 215.864H314.624V226.344H312.672V217.64H303.296V226.376H301.424V215.864ZM308.656 216.6H310.496V219.48C310.496 219.683 310.512 219.811 310.544 219.864C310.587 219.907 310.688 219.928 310.848 219.928C310.88 219.928 310.949 219.928 311.056 219.928C311.173 219.928 311.285 219.928 311.392 219.928C311.509 219.928 311.595 219.928 311.648 219.928C311.744 219.928 311.813 219.912 311.856 219.88C311.909 219.837 311.947 219.757 311.968 219.64C312 219.523 312.021 219.341 312.032 219.096C312.139 219.181 312.283 219.272 312.464 219.368C312.656 219.453 312.853 219.533 313.056 219.608C313.269 219.672 313.461 219.72 313.632 219.752C313.557 220.243 313.451 220.621 313.312 220.888C313.173 221.155 312.987 221.341 312.752 221.448C312.528 221.555 312.235 221.608 311.872 221.608C311.787 221.608 311.685 221.608 311.568 221.608C311.451 221.608 311.323 221.608 311.184 221.608C311.056 221.608 310.933 221.608 310.816 221.608C310.699 221.608 310.603 221.608 310.528 221.608C310.016 221.608 309.621 221.544 309.344 221.416C309.077 221.288 308.896 221.069 308.8 220.76C308.704 220.451 308.656 220.029 308.656 219.496V216.6ZM300.784 212.28H315.168V214.136H300.784V212.28ZM305.152 213.688H307.04V216.888H305.152V213.688ZM308.656 213.688H310.592V216.888H308.656V213.688ZM305.248 216.232H307.04V217.816C307.04 218.349 306.971 218.899 306.832 219.464C306.693 220.029 306.432 220.568 306.048 221.08C305.664 221.592 305.104 222.04 304.368 222.424C304.283 222.307 304.155 222.168 303.984 222.008C303.813 221.848 303.632 221.693 303.44 221.544C303.259 221.395 303.104 221.283 302.976 221.208C303.648 220.867 304.144 220.504 304.464 220.12C304.795 219.736 305.008 219.341 305.104 218.936C305.2 218.531 305.248 218.141 305.248 217.768V216.232Z" fill="black"/>
<path d="M347.928 224.008H358.488V225.688H347.928V224.008ZM347.928 221.448H358.52V223.032H347.928V221.448ZM346.584 215.672H359.48V226.424H357.608V217.384H348.376V226.424H346.584V215.672ZM353.352 213.512H355.192V218.568C355.192 218.803 355.208 218.947 355.24 219C355.283 219.053 355.368 219.08 355.496 219.08C355.528 219.08 355.576 219.08 355.64 219.08C355.704 219.08 355.773 219.08 355.848 219.08C355.923 219.08 355.992 219.08 356.056 219.08C356.131 219.08 356.184 219.08 356.216 219.08C356.291 219.08 356.349 219.059 356.392 219.016C356.445 218.973 356.483 218.888 356.504 218.76C356.525 218.632 356.541 218.445 356.552 218.2C356.733 218.328 356.973 218.451 357.272 218.568C357.581 218.685 357.859 218.776 358.104 218.84C358.019 219.523 357.848 219.992 357.592 220.248C357.336 220.504 356.941 220.632 356.408 220.632C356.333 220.632 356.237 220.632 356.12 220.632C356.013 220.632 355.896 220.632 355.768 220.632C355.651 220.632 355.539 220.632 355.432 220.632C355.325 220.632 355.235 220.632 355.16 220.632C354.659 220.632 354.28 220.573 354.024 220.456C353.768 220.328 353.592 220.115 353.496 219.816C353.4 219.507 353.352 219.091 353.352 218.568V213.512ZM350.312 213.512H352.04V217.016C352.04 217.667 351.965 218.248 351.816 218.76C351.677 219.272 351.4 219.72 350.984 220.104C350.568 220.488 349.944 220.808 349.112 221.064C348.995 220.861 348.829 220.632 348.616 220.376C348.403 220.12 348.205 219.907 348.024 219.736C348.675 219.544 349.165 219.315 349.496 219.048C349.827 218.781 350.045 218.477 350.152 218.136C350.259 217.784 350.312 217.405 350.312 217V213.512ZM345.864 212.312H360.168V214.152H345.864V212.312Z" fill="black"/>
<path d="M213.896 302.208H218.648V304.112H213.896V302.208ZM221.72 298.672H223.72V310.208C223.72 310.656 223.757 310.944 223.832 311.072C223.907 311.189 224.093 311.248 224.392 311.248C224.456 311.248 224.563 311.248 224.712 311.248C224.861 311.248 225.027 311.248 225.208 311.248C225.389 311.248 225.555 311.248 225.704 311.248C225.853 311.248 225.965 311.248 226.04 311.248C226.253 311.248 226.413 311.157 226.52 310.976C226.627 310.795 226.701 310.469 226.744 310C226.797 309.52 226.84 308.853 226.872 308C227.032 308.117 227.219 308.235 227.432 308.352C227.656 308.469 227.88 308.576 228.104 308.672C228.328 308.757 228.531 308.821 228.712 308.864C228.648 309.888 228.536 310.715 228.376 311.344C228.227 311.973 227.981 312.427 227.64 312.704C227.309 312.992 226.84 313.136 226.232 313.136C226.147 313.136 226.003 313.136 225.8 313.136C225.597 313.136 225.379 313.136 225.144 313.136C224.92 313.136 224.712 313.136 224.52 313.136C224.328 313.136 224.184 313.136 224.088 313.136C223.48 313.136 223 313.045 222.648 312.864C222.307 312.693 222.067 312.395 221.928 311.968C221.789 311.531 221.72 310.939 221.72 310.192V298.672ZM217.688 298.672H219.688V313.264H217.688V298.672ZM227 301.056L228.392 302.784C227.837 303.157 227.251 303.531 226.632 303.904C226.013 304.267 225.384 304.624 224.744 304.976C224.115 305.317 223.496 305.637 222.888 305.936C222.824 305.723 222.712 305.472 222.552 305.184C222.392 304.885 222.248 304.635 222.12 304.432C222.696 304.123 223.277 303.776 223.864 303.392C224.451 303.008 225.011 302.613 225.544 302.208C226.088 301.803 226.573 301.419 227 301.056ZM213.32 309.456C213.757 309.328 214.264 309.173 214.84 308.992C215.416 308.8 216.024 308.592 216.664 308.368C217.304 308.133 217.939 307.904 218.568 307.68L218.936 309.408C218.136 309.771 217.315 310.128 216.472 310.48C215.64 310.832 214.877 311.152 214.184 311.44L213.32 309.456Z" fill="black"/>
<path d="M213.624 350.408H228.392V352.344H213.624V350.408ZM220.008 347.864H222.024V356.2C222.024 356.744 221.949 357.165 221.8 357.464C221.661 357.763 221.395 357.987 221 358.136C220.616 358.285 220.147 358.381 219.592 358.424C219.037 358.467 218.392 358.483 217.656 358.472C217.624 358.28 217.56 358.061 217.464 357.816C217.368 357.581 217.267 357.341 217.16 357.096C217.053 356.861 216.947 356.659 216.84 356.488C217.213 356.499 217.581 356.509 217.944 356.52C218.317 356.531 218.648 356.536 218.936 356.536C219.235 356.536 219.443 356.536 219.56 356.536C219.731 356.536 219.848 356.509 219.912 356.456C219.976 356.403 220.008 356.307 220.008 356.168V347.864ZM215.304 344.392H225.384V346.28H215.304V344.392ZM224.744 344.392H225.256L225.704 344.28L227.16 345.384C226.669 345.907 226.104 346.429 225.464 346.952C224.835 347.475 224.179 347.976 223.496 348.456C222.813 348.925 222.147 349.331 221.496 349.672C221.4 349.533 221.277 349.379 221.128 349.208C220.979 349.037 220.824 348.872 220.664 348.712C220.504 348.541 220.36 348.397 220.232 348.28C220.808 347.992 221.389 347.645 221.976 347.24C222.573 346.835 223.117 346.419 223.608 345.992C224.099 345.565 224.477 345.176 224.744 344.824V344.392Z" fill="black"/>
<path d="M190.904 386.936H203.112V388.904H190.904V386.936ZM192.008 392.088H201.832V394.04H192.008V392.088ZM190.008 397.512H203.96V399.464H190.008V397.512ZM206.072 386.056H212.28V387.496H206.072V386.056ZM205.816 393.416H220.168V394.92H205.816V393.416ZM206.248 388.552H211.992V389.976H206.248V388.552ZM209.752 398.504H217.544V399.944H209.752V398.504ZM205.752 391.336C206.328 391.304 206.979 391.267 207.704 391.224C208.44 391.181 209.213 391.139 210.024 391.096C210.835 391.043 211.645 390.989 212.456 390.936L212.44 392.392C211.277 392.477 210.115 392.563 208.952 392.648C207.789 392.723 206.765 392.792 205.88 392.856L205.752 391.336ZM208.296 386.616H210.104V391.608L208.296 391.832V386.616ZM215.544 385.4L217.656 385.576C217.507 385.949 217.357 386.301 217.208 386.632C217.059 386.963 216.92 387.251 216.792 387.496L215.128 387.24C215.213 386.952 215.293 386.643 215.368 386.312C215.453 385.981 215.512 385.677 215.544 385.4ZM214.744 390.2V391.224H217.864V390.2H214.744ZM214.744 387.848V388.856H217.864V387.848H214.744ZM212.984 386.408H219.688V392.664H212.984V386.408ZM210.248 393.704L211.976 394.28C211.56 394.963 211.059 395.603 210.472 396.2C209.885 396.797 209.251 397.336 208.568 397.816C207.885 398.296 207.192 398.707 206.488 399.048C206.413 398.92 206.307 398.76 206.168 398.568C206.029 398.365 205.885 398.168 205.736 397.976C205.587 397.784 205.448 397.629 205.32 397.512C205.981 397.245 206.627 396.92 207.256 396.536C207.885 396.152 208.456 395.72 208.968 395.24C209.491 394.76 209.917 394.248 210.248 393.704ZM208.472 395.912H218.92V400.36H216.856V397.352H210.456V400.44H208.472V395.912ZM221.976 389.144H236.056V391.048H221.976V389.144ZM227.976 385.416H230.024V400.44H227.976V385.416ZM227.56 390.184L229.256 390.76C228.893 391.603 228.477 392.419 228.008 393.208C227.539 393.997 227.021 394.744 226.456 395.448C225.901 396.152 225.304 396.803 224.664 397.4C224.035 397.987 223.373 398.493 222.68 398.92C222.573 398.76 222.435 398.579 222.264 398.376C222.093 398.173 221.917 397.976 221.736 397.784C221.555 397.581 221.389 397.416 221.24 397.288C221.901 396.925 222.541 396.488 223.16 395.976C223.789 395.453 224.381 394.883 224.936 394.264C225.491 393.635 225.987 392.973 226.424 392.28C226.872 391.587 227.251 390.888 227.56 390.184ZM230.392 390.264C230.701 390.947 231.085 391.624 231.544 392.296C232.003 392.968 232.509 393.608 233.064 394.216C233.629 394.824 234.221 395.384 234.84 395.896C235.459 396.408 236.093 396.84 236.744 397.192C236.595 397.309 236.424 397.469 236.232 397.672C236.051 397.864 235.875 398.067 235.704 398.28C235.544 398.493 235.411 398.685 235.304 398.856C234.632 398.429 233.987 397.928 233.368 397.352C232.749 396.765 232.157 396.125 231.592 395.432C231.027 394.728 230.509 393.987 230.04 393.208C229.571 392.429 229.149 391.635 228.776 390.824L230.392 390.264ZM239.928 395.784H250.36V397.288H239.928V395.784ZM240.344 393.208H251.08V394.808H240.344V393.208ZM237.944 398.376H252.104V400.024H237.944V398.376ZM244.072 392.232H246.056V399.512H244.072V392.232ZM241.384 389.624V390.488H248.488V389.624H241.384ZM241.384 387.432V388.264H248.488V387.432H241.384ZM239.496 385.976H250.472V391.944H239.496V385.976ZM240.328 391.784L242.2 392.328C241.965 392.851 241.683 393.363 241.352 393.864C241.021 394.365 240.669 394.835 240.296 395.272C239.923 395.709 239.555 396.088 239.192 396.408C239.064 396.291 238.904 396.157 238.712 396.008C238.52 395.859 238.323 395.715 238.12 395.576C237.917 395.427 237.736 395.309 237.576 395.224C238.131 394.808 238.653 394.296 239.144 393.688C239.645 393.069 240.04 392.435 240.328 391.784Z" fill="black"/>
<path d="M190.208 36.608H201.824V38.72H190.208V36.608ZM188.864 45.904H203.152V48.096H188.864V45.904ZM208.368 38.672V39.616H215.696V38.672H208.368ZM208.368 36.368V37.312H215.696V36.368H208.368ZM206.528 34.928H217.632V41.072H206.528V34.928ZM206.112 41.808H218.08V43.312H206.112V41.808ZM204.784 44.128H219.28V45.728H204.784V44.128ZM211.008 35.584H212.912V45.136H211.008V35.584ZM209.28 46.624L211.04 46.48C211.125 46.896 211.2 47.3547 211.264 47.856C211.328 48.3573 211.36 48.7787 211.36 49.12L209.488 49.344C209.488 48.992 209.472 48.56 209.44 48.048C209.408 47.5467 209.355 47.072 209.28 46.624ZM212.432 46.688L214.224 46.336C214.395 46.7413 214.56 47.1893 214.72 47.68C214.88 48.16 214.992 48.576 215.056 48.928L213.152 49.344C213.109 49.0027 213.019 48.5813 212.88 48.08C212.741 47.5787 212.592 47.1147 212.432 46.688ZM215.584 46.592L217.392 46C217.637 46.2667 217.888 46.5707 218.144 46.912C218.411 47.2427 218.656 47.5733 218.88 47.904C219.104 48.224 219.28 48.5227 219.408 48.8L217.472 49.472C217.365 49.2267 217.205 48.9333 216.992 48.592C216.789 48.2613 216.56 47.92 216.304 47.568C216.059 47.216 215.819 46.8907 215.584 46.592ZM206.4 46.016L208.256 46.464C208.075 47.0187 207.829 47.568 207.52 48.112C207.211 48.6667 206.864 49.1253 206.48 49.488L204.656 48.688C205.019 48.4 205.355 48.0107 205.664 47.52C205.973 47.0293 206.219 46.528 206.4 46.016ZM221.792 39.376H234.24V41.264H221.792V39.376ZM220.736 46.864H235.312V48.752H220.736V46.864ZM226.944 34.432H229.008V48.16H226.944V34.432ZM238.928 44.784H249.36V46.288H238.928V44.784ZM239.344 42.208H250.08V43.808H239.344V42.208ZM236.944 47.376H251.104V49.024H236.944V47.376ZM243.072 41.232H245.056V48.512H243.072V41.232ZM240.384 38.624V39.488H247.488V38.624H240.384ZM240.384 36.432V37.264H247.488V36.432H240.384ZM238.496 34.976H249.472V40.944H238.496V34.976ZM239.328 40.784L241.2 41.328C240.965 41.8507 240.683 42.3627 240.352 42.864C240.021 43.3653 239.669 43.8347 239.296 44.272C238.923 44.7093 238.555 45.088 238.192 45.408C238.064 45.2907 237.904 45.1573 237.712 45.008C237.52 44.8587 237.323 44.7147 237.12 44.576C236.917 44.4267 236.736 44.3093 236.576 44.224C237.131 43.808 237.653 43.296 238.144 42.688C238.645 42.0693 239.04 41.4347 239.328 40.784Z" fill="black"/>
<path d="M203.82 205.66L221.96 202.9L222.36 205.38L204.22 208.08L203.82 205.66ZM209.48 198.42H212.1V212.22C212.1 212.66 212.133 212.993 212.2 213.22C212.28 213.433 212.427 213.58 212.64 213.66C212.853 213.727 213.18 213.76 213.62 213.76C213.753 213.76 213.953 213.76 214.22 213.76C214.487 213.76 214.787 213.76 215.12 213.76C215.453 213.76 215.787 213.76 216.12 213.76C216.453 213.76 216.753 213.76 217.02 213.76C217.3 213.76 217.507 213.76 217.64 213.76C218.093 213.76 218.433 213.653 218.66 213.44C218.887 213.213 219.053 212.807 219.16 212.22C219.267 211.62 219.36 210.747 219.44 209.6C219.64 209.76 219.887 209.92 220.18 210.08C220.487 210.227 220.787 210.36 221.08 210.48C221.387 210.6 221.653 210.687 221.88 210.74C221.773 212.073 221.593 213.14 221.34 213.94C221.087 214.727 220.687 215.293 220.14 215.64C219.593 215.987 218.82 216.16 217.82 216.16C217.687 216.16 217.467 216.16 217.16 216.16C216.867 216.16 216.533 216.16 216.16 216.16C215.8 216.16 215.433 216.16 215.06 216.16C214.687 216.16 214.353 216.16 214.06 216.16C213.767 216.16 213.553 216.16 213.42 216.16C212.407 216.16 211.613 216.04 211.04 215.8C210.467 215.573 210.06 215.173 209.82 214.6C209.593 214.027 209.48 213.22 209.48 212.18V198.42ZM237.42 208.52L239.54 207.58C239.927 208.087 240.32 208.647 240.72 209.26C241.12 209.873 241.487 210.473 241.82 211.06C242.153 211.647 242.413 212.18 242.6 212.66L240.3 213.74C240.127 213.273 239.887 212.74 239.58 212.14C239.273 211.54 238.927 210.92 238.54 210.28C238.167 209.64 237.793 209.053 237.42 208.52ZM231.72 198.04H234.18V205.28H231.72V198.04ZM224.04 204.44H242.08V206.74H224.04V204.44ZM226.04 200.1H240.38V202.38H226.04V200.1ZM234.16 205.8H236.68V214.1C236.68 214.7 236.613 215.173 236.48 215.52C236.347 215.88 236.08 216.153 235.68 216.34C235.293 216.527 234.827 216.647 234.28 216.7C233.747 216.753 233.113 216.78 232.38 216.78C232.34 216.42 232.24 216.007 232.08 215.54C231.92 215.087 231.76 214.693 231.6 214.36C232.04 214.373 232.48 214.387 232.92 214.4C233.36 214.4 233.647 214.393 233.78 214.38C233.927 214.38 234.027 214.36 234.08 214.32C234.133 214.267 234.16 214.18 234.16 214.06V205.8ZM226.26 207.74L228.7 208.36C228.447 208.987 228.14 209.627 227.78 210.28C227.42 210.92 227.033 211.533 226.62 212.12C226.207 212.693 225.773 213.2 225.32 213.64C225.08 213.427 224.767 213.193 224.38 212.94C223.993 212.673 223.667 212.46 223.4 212.3C223.827 211.913 224.22 211.467 224.58 210.96C224.953 210.44 225.287 209.9 225.58 209.34C225.873 208.78 226.1 208.247 226.26 207.74ZM229.84 205.36H232.28V207.66C232.28 208.367 232.233 209.127 232.14 209.94C232.047 210.74 231.853 211.553 231.56 212.38C231.267 213.193 230.827 213.993 230.24 214.78C229.667 215.553 228.893 216.267 227.92 216.92C227.8 216.733 227.633 216.527 227.42 216.3C227.207 216.073 226.98 215.853 226.74 215.64C226.513 215.427 226.3 215.253 226.1 215.12C226.94 214.573 227.607 213.98 228.1 213.34C228.607 212.7 228.98 212.047 229.22 211.38C229.473 210.713 229.64 210.06 229.72 209.42C229.8 208.767 229.84 208.16 229.84 207.6V205.36ZM212.92 224.3C212.373 225.06 211.68 225.847 210.84 226.66C210.013 227.473 209.093 228.253 208.08 229C207.08 229.747 206.033 230.413 204.94 231C204.833 230.8 204.693 230.58 204.52 230.34C204.36 230.1 204.18 229.867 203.98 229.64C203.793 229.413 203.613 229.213 203.44 229.04C204.587 228.493 205.687 227.82 206.74 227.02C207.793 226.207 208.733 225.36 209.56 224.48C210.4 223.6 211.067 222.753 211.56 221.94H214.06C214.607 222.7 215.207 223.427 215.86 224.12C216.513 224.813 217.213 225.453 217.96 226.04C218.707 226.627 219.473 227.153 220.26 227.62C221.047 228.087 221.84 228.48 222.64 228.8C222.333 229.107 222.047 229.453 221.78 229.84C221.513 230.227 221.267 230.6 221.04 230.96C220.28 230.56 219.507 230.1 218.72 229.58C217.947 229.06 217.2 228.507 216.48 227.92C215.76 227.32 215.093 226.713 214.48 226.1C213.867 225.487 213.347 224.887 212.92 224.3ZM207.92 228H217.98V230.1H207.92V228ZM205.52 232.08H220.34V234.16H205.52V232.08ZM204.52 238.16H221.52V240.22H204.52V238.16ZM211.62 228.84H214.16V239.2H211.62V228.84ZM206.78 234.92L208.7 234.12C208.953 234.453 209.2 234.82 209.44 235.22C209.693 235.62 209.92 236.013 210.12 236.4C210.32 236.787 210.467 237.133 210.56 237.44L208.5 238.36C208.42 238.053 208.287 237.7 208.1 237.3C207.913 236.887 207.707 236.473 207.48 236.06C207.253 235.647 207.02 235.267 206.78 234.92ZM216.94 234.14L219.24 234.98C218.84 235.593 218.427 236.207 218 236.82C217.573 237.42 217.18 237.933 216.82 238.36L215.02 237.6C215.247 237.28 215.48 236.927 215.72 236.54C215.96 236.14 216.187 235.733 216.4 235.32C216.613 234.893 216.793 234.5 216.94 234.14ZM226.66 234.98H239.7V236.86H226.66V234.98ZM227.18 231.76H240.6V233.76H227.18V231.76ZM224.18 238.22H241.88V240.28H224.18V238.22ZM231.84 230.54H234.32V239.64H231.84V230.54ZM228.48 227.28V228.36H237.36V227.28H228.48ZM228.48 224.54V225.58H237.36V224.54H228.48ZM226.12 222.72H239.84V230.18H226.12V222.72ZM227.16 229.98L229.5 230.66C229.207 231.313 228.853 231.953 228.44 232.58C228.027 233.207 227.587 233.793 227.12 234.34C226.653 234.887 226.193 235.36 225.74 235.76C225.58 235.613 225.38 235.447 225.14 235.26C224.9 235.073 224.653 234.893 224.4 234.72C224.147 234.533 223.92 234.387 223.72 234.28C224.413 233.76 225.067 233.12 225.68 232.36C226.307 231.587 226.8 230.793 227.16 229.98Z" fill="white"/>
<defs>
<linearGradient id="paint0_linear_56_6" x1="220.75" y1="26" x2="220.75" y2="412.5" gradientUnits="userSpaceOnUse">
<stop stop-color="#FFFBA7"/>
<stop offset="1" stop-color="#FDFAEC"/>
</linearGradient>
<linearGradient id="paint1_linear_56_6" x1="221" y1="64" x2="221" y2="374" gradientUnits="userSpaceOnUse">
<stop stop-color="#FFFDDC"/>
<stop offset="1" stop-color="#E3F8FF"/>
</linearGradient>
<linearGradient id="paint2_linear_56_6" x1="221" y1="109" x2="221" y2="329" gradientUnits="userSpaceOnUse">
<stop stop-color="#C8EEFF"/>
<stop offset="1" stop-color="#E1F3FF"/>
</linearGradient>
<linearGradient id="paint3_linear_56_6" x1="221" y1="154" x2="221" y2="284" gradientUnits="userSpaceOnUse">
<stop stop-color="#58C7FF"/>
<stop offset="1" stop-color="#9FE0FF"/>
</linearGradient>
</defs>
</svg>
