<svg width="442" height="452" viewBox="0 0 442 452" fill="none" xmlns="http://www.w3.org/2000/svg">
<rect width="442" height="452" fill="white"/>
<path d="M272.5 26H169L27.5 166.5V270.5L169 412.5H272.5L414 270.5V166.5L272.5 26Z" fill="url(#paint0_linear_56_146)" stroke="#FFFDE8"/>
<path d="M262.507 64H179.493L66 176.691V260.106L179.493 374H262.507L376 260.106V176.691L262.507 64Z" fill="url(#paint1_linear_56_146)" stroke="#FEFFEA"/>
<path d="M250.457 109H191.543L111 188.974V248.172L191.543 329H250.457L331 248.172V188.974L250.457 109Z" fill="url(#paint2_linear_56_146)" stroke="#DDF4FF"/>
<path d="M414.37 270.528L28 167" stroke="#888686"/>
<path d="M272.528 26L186.777 346.024L169 412.37" stroke="#888686" stroke-opacity="0.82"/>
<path d="M169 26L272.528 412.37" stroke="#888686"/>
<path d="M414.37 167L28 270.528" stroke="#888886"/>
<path d="M238.406 154H203.594L156 201.257V236.238L203.594 284H238.406L286 236.238V201.257L238.406 154Z" fill="url(#paint3_linear_56_146)" stroke="#B9E7FD"/>
<path d="M126.928 212.728H141.136V214.52H126.928V212.728ZM132.96 211.416H134.96V226.44H132.96V211.416ZM132.464 220.552L134.096 221.224C133.723 221.757 133.296 222.269 132.816 222.76C132.347 223.251 131.835 223.715 131.28 224.152C130.736 224.579 130.165 224.968 129.568 225.32C128.981 225.683 128.389 225.992 127.792 226.248C127.685 226.088 127.557 225.907 127.408 225.704C127.259 225.501 127.099 225.304 126.928 225.112C126.757 224.92 126.603 224.76 126.464 224.632C127.051 224.429 127.632 224.184 128.208 223.896C128.784 223.597 129.339 223.272 129.872 222.92C130.405 222.557 130.891 222.179 131.328 221.784C131.776 221.379 132.155 220.968 132.464 220.552ZM135.504 220.616C135.824 221.021 136.208 221.421 136.656 221.816C137.115 222.2 137.611 222.573 138.144 222.936C138.688 223.288 139.253 223.608 139.84 223.896C140.427 224.173 141.013 224.413 141.6 224.616C141.451 224.744 141.285 224.904 141.104 225.096C140.933 225.299 140.768 225.501 140.608 225.704C140.459 225.917 140.331 226.109 140.224 226.28C139.627 226.035 139.035 225.731 138.448 225.368C137.861 225.016 137.291 224.627 136.736 224.2C136.192 223.763 135.68 223.299 135.2 222.808C134.731 222.317 134.309 221.811 133.936 221.288L135.504 220.616ZM130.144 219.176V220.152H137.904V219.176H130.144ZM130.144 216.872V217.832H137.904V216.872H130.144ZM128.272 215.432H139.872V221.592H128.272V215.432Z" fill="black"/>
<path d="M82.744 213.856L84.552 214.432V222.752H82.744V213.856ZM93.896 213.952H95.752V222.624C95.752 223.051 95.704 223.413 95.608 223.712C95.512 224 95.3253 224.224 95.048 224.384C94.7707 224.544 94.44 224.645 94.056 224.688C93.6827 224.731 93.2453 224.752 92.744 224.752C92.7227 224.571 92.6747 224.363 92.6 224.128C92.5253 223.893 92.44 223.659 92.344 223.424C92.2587 223.189 92.168 222.987 92.072 222.816C92.4027 222.827 92.7173 222.837 93.016 222.848C93.3147 222.848 93.5173 222.848 93.624 222.848C93.7307 222.848 93.8 222.827 93.832 222.784C93.8747 222.741 93.896 222.672 93.896 222.576V213.952ZM81.496 222.432C82.1787 222.293 83 222.112 83.96 221.888C84.92 221.653 85.896 221.419 86.888 221.184L87.096 222.8C86.2107 223.045 85.3147 223.285 84.408 223.52C83.5013 223.755 82.6747 223.973 81.928 224.176L81.496 222.432ZM86.648 215.76H88.44V220.048C88.44 220.763 88.3813 221.472 88.264 222.176C88.1573 222.869 87.944 223.541 87.624 224.192C87.304 224.843 86.8293 225.445 86.2 226C85.5707 226.555 84.7333 227.04 83.688 227.456C83.6133 227.317 83.5067 227.152 83.368 226.96C83.24 226.779 83.096 226.603 82.936 226.432C82.7867 226.261 82.648 226.123 82.52 226.016C83.4373 225.653 84.168 225.248 84.712 224.8C85.2667 224.341 85.6827 223.856 85.96 223.344C86.2373 222.821 86.4187 222.283 86.504 221.728C86.6 221.163 86.648 220.592 86.648 220.016V215.76ZM89.704 213.952H94.872V215.696H91.512V227.44H89.704V213.952ZM87.256 212.432L88.968 213.648C88.4667 213.936 87.9387 214.224 87.384 214.512C86.8293 214.789 86.28 215.051 85.736 215.296C85.2027 215.541 84.696 215.749 84.216 215.92L82.984 214.864C83.432 214.661 83.9173 214.427 84.44 214.16C84.9627 213.883 85.4693 213.595 85.96 213.296C86.4613 212.987 86.8933 212.699 87.256 212.432Z" fill="black"/>
<path d="M36.88 185.904H51.12V187.904H36.88V185.904ZM42.896 182.448H45.008V186.96H42.896V182.448ZM40.24 189.616L42.48 190.192C42.1493 191.088 41.76 191.968 41.312 192.832C40.8747 193.696 40.4053 194.507 39.904 195.264C39.4027 196.011 38.8907 196.661 38.368 197.216C38.2187 197.077 38.0213 196.923 37.776 196.752C37.5413 196.581 37.3013 196.411 37.056 196.24C36.8107 196.069 36.5973 195.931 36.416 195.824C36.9493 195.344 37.456 194.773 37.936 194.112C38.416 193.451 38.8533 192.736 39.248 191.968C39.6427 191.189 39.9733 190.405 40.24 189.616ZM45.52 190.368L47.472 189.584C47.824 190.096 48.1867 190.64 48.56 191.216C48.9333 191.792 49.296 192.379 49.648 192.976C50 193.563 50.3147 194.133 50.592 194.688C50.88 195.243 51.1093 195.749 51.28 196.208L49.104 197.152C48.9547 196.715 48.7467 196.213 48.48 195.648C48.224 195.083 47.9307 194.501 47.6 193.904C47.28 193.296 46.9387 192.688 46.576 192.08C46.224 191.472 45.872 190.901 45.52 190.368ZM36.944 202.216H51.072V204.088H36.944V202.216ZM39.952 209.8H48.288V211.528H39.952V209.8ZM40.016 213.688H48.112V215.464H40.016V213.688ZM42.864 202.888L45.216 203.368C45.0987 203.805 44.976 204.248 44.848 204.696C44.72 205.133 44.5973 205.555 44.48 205.96C44.3733 206.355 44.2613 206.707 44.144 207.016L42.32 206.552C42.4053 206.2 42.4853 205.816 42.56 205.4C42.6347 204.973 42.6987 204.541 42.752 204.104C42.816 203.667 42.8533 203.261 42.864 202.888ZM38.544 205.912H49.632V216.424H47.584V207.688H40.496V216.424H38.544V205.912ZM43.936 222.24C43.4987 222.848 42.944 223.477 42.272 224.128C41.6107 224.779 40.8747 225.403 40.064 226C39.264 226.597 38.4267 227.131 37.552 227.6C37.4667 227.44 37.3547 227.264 37.216 227.072C37.088 226.88 36.944 226.693 36.784 226.512C36.6347 226.331 36.4907 226.171 36.352 226.032C37.2693 225.595 38.1493 225.056 38.992 224.416C39.8347 223.765 40.5867 223.088 41.248 222.384C41.92 221.68 42.4533 221.003 42.848 220.352H44.848C45.2853 220.96 45.7653 221.541 46.288 222.096C46.8107 222.651 47.3707 223.163 47.968 223.632C48.5653 224.101 49.1787 224.523 49.808 224.896C50.4373 225.269 51.072 225.584 51.712 225.84C51.4667 226.085 51.2373 226.363 51.024 226.672C50.8107 226.981 50.6133 227.28 50.432 227.568C49.824 227.248 49.2053 226.88 48.576 226.464C47.9573 226.048 47.36 225.605 46.784 225.136C46.208 224.656 45.6747 224.171 45.184 223.68C44.6933 223.189 44.2773 222.709 43.936 222.24ZM39.936 225.2H47.984V226.88H39.936V225.2ZM38.016 228.464H49.872V230.128H38.016V228.464ZM37.216 233.328H50.816V234.976H37.216V233.328ZM42.896 225.872H44.928V234.16H42.896V225.872ZM39.024 230.736L40.56 230.096C40.7627 230.363 40.96 230.656 41.152 230.976C41.3547 231.296 41.536 231.611 41.696 231.92C41.856 232.229 41.9733 232.507 42.048 232.752L40.4 233.488C40.336 233.243 40.2293 232.96 40.08 232.64C39.9307 232.309 39.7653 231.979 39.584 231.648C39.4027 231.317 39.216 231.013 39.024 230.736ZM47.152 230.112L48.992 230.784C48.672 231.275 48.3413 231.765 48 232.256C47.6587 232.736 47.344 233.147 47.056 233.488L45.616 232.88C45.7973 232.624 45.984 232.341 46.176 232.032C46.368 231.712 46.5493 231.387 46.72 231.056C46.8907 230.715 47.0347 230.4 47.152 230.112ZM38.928 249.784H49.36V251.288H38.928V249.784ZM39.344 247.208H50.08V248.808H39.344V247.208ZM36.944 252.376H51.104V254.024H36.944V252.376ZM43.072 246.232H45.056V253.512H43.072V246.232ZM40.384 243.624V244.488H47.488V243.624H40.384ZM40.384 241.432V242.264H47.488V241.432H40.384ZM38.496 239.976H49.472V245.944H38.496V239.976ZM39.328 245.784L41.2 246.328C40.9653 246.851 40.6827 247.363 40.352 247.864C40.0213 248.365 39.6693 248.835 39.296 249.272C38.9227 249.709 38.5547 250.088 38.192 250.408C38.064 250.291 37.904 250.157 37.712 250.008C37.52 249.859 37.3227 249.715 37.12 249.576C36.9173 249.427 36.736 249.309 36.576 249.224C37.1307 248.808 37.6533 248.296 38.144 247.688C38.6453 247.069 39.04 246.435 39.328 245.784Z" fill="black"/>
<path d="M390.608 188.72H405.424V190.816H390.608V188.72ZM392.992 213.432H402.928V215.368H392.992V213.432ZM392.96 208.536H402.928V210.44H392.96V208.536ZM391.968 203.736H404.08V216.392H402.032V205.688H393.904V216.408H391.968V203.736ZM396.656 201.336L399.168 201.672C398.923 202.269 398.661 202.851 398.384 203.416C398.107 203.981 397.856 204.467 397.632 204.872L395.728 204.488C395.845 204.179 395.963 203.843 396.08 203.48C396.208 203.117 396.32 202.749 396.416 202.376C396.523 202.003 396.603 201.656 396.656 201.336ZM390.832 224.336H395.28V226.272H390.832V224.336ZM397.04 220.416H399.088V232.944C399.088 233.52 399.019 233.968 398.88 234.288C398.741 234.608 398.501 234.853 398.16 235.024C397.819 235.195 397.381 235.307 396.848 235.36C396.325 235.424 395.696 235.456 394.96 235.456C394.939 235.253 394.885 235.019 394.8 234.752C394.725 234.496 394.635 234.24 394.528 233.984C394.421 233.717 394.315 233.493 394.208 233.312C394.731 233.333 395.221 233.344 395.68 233.344C396.139 233.344 396.448 233.344 396.608 233.344C396.768 233.344 396.88 233.312 396.944 233.248C397.008 233.184 397.04 233.083 397.04 232.944V220.416ZM394.624 224.336H395.024L395.376 224.256L396.688 224.736C396.453 226.197 396.101 227.525 395.632 228.72C395.173 229.915 394.629 230.965 394 231.872C393.381 232.768 392.688 233.499 391.92 234.064C391.813 233.904 391.664 233.728 391.472 233.536C391.28 233.333 391.077 233.141 390.864 232.96C390.661 232.779 390.48 232.64 390.32 232.544C391.056 232.043 391.712 231.413 392.288 230.656C392.864 229.888 393.349 229.008 393.744 228.016C394.149 227.013 394.443 225.925 394.624 224.752V224.336ZM398.96 222.752C399.216 223.819 399.541 224.843 399.936 225.824C400.341 226.805 400.816 227.723 401.36 228.576C401.904 229.429 402.533 230.192 403.248 230.864C403.973 231.525 404.784 232.069 405.68 232.496C405.52 232.624 405.344 232.789 405.152 232.992C404.96 233.195 404.779 233.413 404.608 233.648C404.448 233.872 404.309 234.08 404.192 234.272C402.955 233.568 401.904 232.661 401.04 231.552C400.176 230.432 399.456 229.152 398.88 227.712C398.304 226.272 397.824 224.725 397.44 223.072L398.96 222.752ZM403.456 222.912L405.264 224.176C404.805 224.645 404.32 225.131 403.808 225.632C403.296 226.133 402.784 226.608 402.272 227.056C401.771 227.504 401.296 227.893 400.848 228.224L399.456 227.152C399.893 226.789 400.352 226.368 400.832 225.888C401.323 225.408 401.797 224.912 402.256 224.4C402.715 223.877 403.115 223.381 403.456 222.912ZM392.928 249.784H403.36V251.288H392.928V249.784ZM393.344 247.208H404.08V248.808H393.344V247.208ZM390.944 252.376H405.104V254.024H390.944V252.376ZM397.072 246.232H399.056V253.512H397.072V246.232ZM394.384 243.624V244.488H401.488V243.624H394.384ZM394.384 241.432V242.264H401.488V241.432H394.384ZM392.496 239.976H403.472V245.944H392.496V239.976ZM393.328 245.784L395.2 246.328C394.965 246.851 394.683 247.363 394.352 247.864C394.021 248.365 393.669 248.835 393.296 249.272C392.923 249.709 392.555 250.088 392.192 250.408C392.064 250.291 391.904 250.157 391.712 250.008C391.52 249.859 391.323 249.715 391.12 249.576C390.917 249.427 390.736 249.309 390.576 249.224C391.131 248.808 391.653 248.296 392.144 247.688C392.645 247.069 393.04 246.435 393.328 245.784Z" fill="black"/>
<path d="M149.959 169.319L160.006 159.273L161.273 160.54L151.226 170.586L149.959 169.319ZM157.313 171.695L162.37 166.638L163.422 167.69L158.365 172.747L157.313 171.695ZM158.874 173.732L164.418 168.188L165.504 169.274L159.96 174.818L158.874 173.732ZM159.689 170.36L160.967 169.082L164.95 173.064L163.671 174.343L159.689 170.36ZM152.505 171.005L160.696 162.814L161.94 164.058L155.107 170.892L161.408 177.194L160.051 178.551L152.505 171.005ZM160.311 163.199L161.703 161.807L167.891 167.996C168.216 168.32 168.419 168.614 168.502 168.878C168.593 169.15 168.57 169.444 168.434 169.76C168.299 170.092 168.068 170.436 167.744 170.79C167.435 171.145 167.05 171.552 166.59 172.012C166.386 171.869 166.13 171.733 165.821 171.605C165.519 171.469 165.244 171.367 164.995 171.299C165.191 171.118 165.391 170.933 165.595 170.745C165.798 170.556 165.979 170.383 166.138 170.224C166.296 170.051 166.402 169.938 166.454 169.885C166.56 169.779 166.617 169.693 166.624 169.625C166.624 169.549 166.583 169.47 166.5 169.387L160.311 163.199ZM156.544 170.066L157.302 168.674C157.618 168.72 157.95 168.803 158.297 168.923C158.652 169.036 158.946 169.15 159.18 169.263L158.422 170.767C158.195 170.632 157.905 170.5 157.55 170.371C157.196 170.243 156.86 170.141 156.544 170.066ZM159.44 166.581L160.899 165.755C161.02 166.178 161.133 166.593 161.239 167C161.344 167.392 161.424 167.75 161.476 168.075L160.221 168.742C160.168 168.524 160.096 168.286 160.006 168.03C159.923 167.766 159.832 167.509 159.734 167.26C159.636 167.011 159.538 166.785 159.44 166.581ZM153.398 164.16L154.88 162.678L158.738 166.536L157.256 168.018L153.398 164.16ZM161.295 157.983L171.342 147.936L172.609 149.203L162.562 159.25L161.295 157.983ZM164.633 152.79L166.047 151.376L176.671 161.999L175.256 163.414L164.633 152.79ZM170.742 159.601L172.371 158.922C172.485 159.563 172.545 160.227 172.552 160.913C172.568 161.592 172.534 162.282 172.451 162.984C172.368 163.67 172.239 164.349 172.066 165.02C171.908 165.691 171.708 166.329 171.466 166.932C171.278 166.894 171.059 166.857 170.81 166.819C170.561 166.781 170.309 166.755 170.052 166.74C169.796 166.725 169.573 166.721 169.385 166.728C169.656 166.17 169.894 165.586 170.097 164.975C170.293 164.356 170.456 163.734 170.584 163.108C170.705 162.474 170.78 161.864 170.81 161.275C170.84 160.672 170.818 160.114 170.742 159.601ZM172.937 157.496C173.45 157.557 174.004 157.568 174.6 157.53C175.196 157.478 175.811 157.391 176.444 157.27C177.078 157.134 177.704 156.961 178.322 156.75C178.933 156.531 179.518 156.286 180.076 156.014C180.061 156.21 180.057 156.44 180.065 156.704C180.087 156.968 180.114 157.229 180.144 157.485C180.189 157.742 180.234 157.968 180.28 158.164C179.684 158.413 179.05 158.616 178.379 158.775C177.715 158.941 177.036 159.069 176.343 159.16C175.649 159.235 174.959 159.269 174.272 159.261C173.593 159.246 172.937 159.186 172.304 159.08L172.937 157.496ZM168.129 160.268L168.819 160.958L174.306 155.471L173.616 154.781L168.129 160.268ZM166.5 158.639L167.178 159.318L172.666 153.831L171.987 153.152L166.5 158.639ZM164.158 158.945L172.36 150.742L176.716 155.098L168.513 163.3L164.158 158.945Z" fill="black"/>
<path d="M113.785 145.701L122.248 137.238L123.56 138.551L115.098 147.013L113.785 145.701ZM117.847 149.876L126.626 141.096L127.86 142.329L119.08 151.109L117.847 149.876ZM117.179 146.47L123.345 140.304L124.567 141.526L118.401 147.692L117.179 146.47ZM113.005 146.482L114.362 145.124L117.802 148.563C118.284 149.046 118.797 149.589 119.34 150.192C119.883 150.796 120.415 151.441 120.936 152.127C121.456 152.813 121.916 153.522 122.316 154.254C122.723 154.978 123.025 155.702 123.221 156.426C123.063 156.434 122.863 156.468 122.621 156.528C122.388 156.581 122.15 156.645 121.909 156.72C121.675 156.788 121.479 156.864 121.32 156.947C121.147 156.275 120.879 155.616 120.517 154.967C120.155 154.318 119.74 153.692 119.273 153.089C118.805 152.485 118.326 151.916 117.836 151.38C117.345 150.845 116.878 150.355 116.433 149.91L113.005 146.482ZM119.827 148.846L121.151 147.522L125.427 151.799L124.103 153.123L119.827 148.846ZM122.814 154.005C123.146 153.583 123.515 153.093 123.922 152.534C124.33 151.961 124.76 151.358 125.212 150.724C125.672 150.083 126.129 149.446 126.581 148.812L127.848 149.921C127.449 150.517 127.037 151.124 126.615 151.742C126.193 152.361 125.782 152.953 125.382 153.519C124.997 154.084 124.639 154.609 124.307 155.091L122.814 154.005ZM123.108 145.565C124.036 146.131 124.96 146.527 125.88 146.753C126.8 146.979 127.731 147.006 128.674 146.832C129.625 146.651 130.605 146.236 131.616 145.588C131.616 145.784 131.631 146.01 131.661 146.267C131.699 146.516 131.744 146.764 131.797 147.013C131.857 147.27 131.921 147.492 131.989 147.681C130.835 148.337 129.723 148.733 128.652 148.869C127.581 148.989 126.51 148.884 125.438 148.552C124.367 148.22 123.247 147.703 122.078 147.002L123.108 145.565ZM126.457 143.755L128.425 143.348C128.342 143.823 128.241 144.317 128.12 144.83C128.007 145.335 127.882 145.829 127.746 146.312C127.611 146.78 127.479 147.213 127.35 147.613L125.767 147.839C125.88 147.439 125.982 146.998 126.072 146.516C126.17 146.025 126.253 145.543 126.321 145.067C126.389 144.577 126.434 144.14 126.457 143.755ZM138.987 145.072L126.146 132.231L127.232 131.145L140.073 143.986L138.987 145.072ZM137.375 129.488L144.084 122.779L145.419 124.114L138.71 130.823L137.375 129.488ZM133.788 125.947L141.233 118.503L146.754 124.024L145.351 125.427L141.165 121.24L135.123 127.282L133.788 125.947ZM132.974 126.762L134.388 125.347L141.674 132.633C141.968 132.927 142.221 133.12 142.432 133.21C142.636 133.293 142.858 133.259 143.099 133.109C143.348 132.95 143.68 132.664 144.095 132.249C144.216 132.128 144.404 131.939 144.661 131.683C144.917 131.427 145.204 131.14 145.521 130.823C145.845 130.499 146.169 130.174 146.494 129.85C146.818 129.526 147.108 129.235 147.365 128.979C147.629 128.715 147.821 128.523 147.942 128.402C148.319 128.025 148.56 127.701 148.666 127.429C148.771 127.142 148.749 126.833 148.598 126.501C148.44 126.162 148.149 125.721 147.727 125.178C147.923 125.132 148.138 125.068 148.372 124.985C148.598 124.895 148.824 124.789 149.05 124.668C149.277 124.548 149.469 124.438 149.627 124.34C150.035 124.868 150.348 125.355 150.566 125.8C150.778 126.237 150.88 126.656 150.872 127.056C150.872 127.448 150.748 127.851 150.499 128.266C150.265 128.681 149.903 129.134 149.412 129.624C149.322 129.714 149.171 129.865 148.96 130.076C148.756 130.28 148.519 130.518 148.247 130.789C147.983 131.053 147.708 131.328 147.421 131.615C147.135 131.902 146.859 132.177 146.595 132.441C146.331 132.705 146.098 132.939 145.894 133.142C145.698 133.339 145.555 133.482 145.464 133.572C144.913 134.123 144.423 134.545 143.993 134.84C143.563 135.134 143.152 135.303 142.76 135.349C142.368 135.394 141.972 135.307 141.572 135.088C141.165 134.862 140.724 134.511 140.248 134.036L132.974 126.762Z" fill="black"/>
<path d="M82.9506 128.116L91.6508 116.293L93.28 117.47L84.5458 129.259L82.9506 128.116ZM82.0568 120.819L83.5389 119.336L91.3453 127.143C91.5942 127.392 91.8016 127.562 91.9676 127.652C92.1335 127.727 92.2994 127.727 92.4654 127.652C92.6238 127.569 92.8274 127.403 93.0763 127.154C93.1517 127.079 93.2649 126.966 93.4157 126.815C93.5666 126.664 93.7363 126.494 93.9249 126.306C94.1134 126.117 94.302 125.929 94.4905 125.74C94.6791 125.551 94.8488 125.382 94.9997 125.231C95.158 125.073 95.275 124.956 95.3504 124.88C95.6068 124.624 95.7388 124.371 95.7464 124.122C95.7464 123.866 95.6106 123.541 95.3391 123.149C95.06 122.749 94.6188 122.203 94.0154 121.509C94.219 121.486 94.4491 121.437 94.7055 121.362C94.9619 121.271 95.2071 121.177 95.4409 121.079C95.6822 120.973 95.8821 120.871 96.0405 120.773C96.7344 121.588 97.236 122.293 97.5452 122.889C97.8469 123.477 97.9412 124.024 97.8281 124.529C97.7149 125.035 97.3755 125.57 96.8098 126.136C96.7344 126.211 96.61 126.336 96.4365 126.509C96.2706 126.675 96.082 126.864 95.8708 127.075C95.6672 127.279 95.4597 127.486 95.2486 127.697C95.0374 127.909 94.8488 128.097 94.6829 128.263C94.5169 128.429 94.3963 128.55 94.3208 128.625C93.7476 129.198 93.2309 129.579 92.7709 129.768C92.3183 129.964 91.862 129.968 91.4019 129.779C90.9493 129.583 90.4289 129.191 89.8406 128.602L82.0568 120.819ZM103.575 110.727L104.243 108.996C104.748 109.064 105.288 109.158 105.861 109.279C106.434 109.399 106.981 109.531 107.501 109.675C108.022 109.818 108.471 109.973 108.848 110.138L108.157 112.05C107.795 111.885 107.358 111.719 106.845 111.553C106.332 111.387 105.785 111.232 105.205 111.089C104.631 110.938 104.088 110.817 103.575 110.727ZM94.4227 108.023L95.8142 106.631L99.9098 110.727L98.5182 112.118L94.4227 108.023ZM93.6986 115.988L103.904 105.783L105.205 107.084L94.9997 117.289L93.6986 115.988ZM92.3749 112.401L100.487 104.289L101.777 105.579L93.6646 113.691L92.3749 112.401ZM100.193 111.032L101.618 109.607L106.313 114.302C106.653 114.641 106.883 114.947 107.003 115.218C107.132 115.497 107.135 115.803 107.015 116.135C106.902 116.459 106.706 116.791 106.426 117.13C106.155 117.462 105.812 117.836 105.397 118.25C105.171 118.069 104.88 117.892 104.526 117.719C104.179 117.553 103.866 117.421 103.587 117.323C103.843 117.081 104.1 116.84 104.356 116.599C104.605 116.35 104.763 116.184 104.831 116.101C104.914 116.018 104.959 115.95 104.967 115.897C104.967 115.837 104.933 115.773 104.865 115.705L100.193 111.032ZM96.8212 116.599L98.5522 115.569C98.7633 116.067 98.9519 116.602 99.1178 117.176C99.2762 117.741 99.4045 118.307 99.5025 118.873C99.593 119.431 99.6345 119.963 99.627 120.468C99.3705 120.483 99.0613 120.528 98.6992 120.604C98.3297 120.672 98.0242 120.736 97.7828 120.796C97.8055 120.336 97.7753 119.861 97.6923 119.37C97.6093 118.865 97.4924 118.371 97.3416 117.888C97.1907 117.406 97.0173 116.976 96.8212 116.599ZM97.5 113.227L98.8803 111.847L100.181 113.148C100.581 113.548 100.985 114.004 101.392 114.517C101.792 115.022 102.142 115.592 102.444 116.225C102.738 116.851 102.942 117.553 103.055 118.33C103.168 119.091 103.134 119.932 102.953 120.853C102.78 120.815 102.569 120.792 102.32 120.785C102.071 120.777 101.818 120.781 101.562 120.796C101.313 120.803 101.094 120.826 100.905 120.864C101.071 120.079 101.113 119.367 101.03 118.726C100.954 118.077 100.796 117.496 100.555 116.983C100.321 116.463 100.046 115.999 99.7288 115.592C99.4045 115.177 99.0839 114.811 98.7671 114.494L97.5 113.227ZM107.694 97.3087C107.814 98.0479 107.867 98.8851 107.852 99.8203C107.844 100.748 107.765 101.71 107.614 102.705C107.471 103.693 107.256 104.663 106.97 105.613C106.796 105.56 106.592 105.515 106.359 105.477C106.132 105.432 105.899 105.402 105.657 105.387C105.423 105.364 105.208 105.353 105.012 105.353C105.352 104.395 105.593 103.392 105.736 102.343C105.872 101.287 105.925 100.277 105.895 99.3112C105.872 98.3382 105.77 97.4822 105.589 96.743L107.003 95.3288C107.743 95.4495 108.493 95.5211 109.255 95.5438C110.017 95.5664 110.775 95.5324 111.529 95.4419C112.283 95.3514 113.015 95.2157 113.724 95.0346C114.433 94.8536 115.104 94.6273 115.738 94.3558C115.738 94.7028 115.772 95.061 115.84 95.4306C115.907 95.8002 115.979 96.1509 116.054 96.4828C115.398 96.6864 114.701 96.8637 113.961 97.0145C113.23 97.1578 112.494 97.2672 111.755 97.3426C111.009 97.4105 110.288 97.4445 109.594 97.4445C108.9 97.4445 108.267 97.3992 107.694 97.3087ZM106.958 102.23L112.649 96.5394L113.837 97.7273L108.146 103.418L106.958 102.23ZM107.909 105.896L116.292 97.5123L117.469 98.689L109.085 107.072L107.909 105.896ZM110.782 109.901L120.399 100.284L121.564 101.45L111.948 111.066L110.782 109.901ZM109.526 100.612L110.963 99.1755L116.824 105.036L115.387 106.473L109.526 100.612ZM110.228 106.79L110.861 105.251C111.193 105.296 111.54 105.364 111.902 105.455C112.272 105.538 112.623 105.632 112.955 105.737C113.286 105.843 113.565 105.956 113.792 106.077L113.147 107.763C112.928 107.634 112.653 107.51 112.321 107.389C111.982 107.261 111.631 107.144 111.269 107.038C110.907 106.933 110.56 106.85 110.228 106.79ZM115.534 100.601L117.31 99.7751C117.431 100.348 117.544 100.929 117.65 101.517C117.748 102.098 117.816 102.611 117.853 103.056L116.405 103.644C116.352 103.335 116.285 103.003 116.202 102.649C116.111 102.287 116.009 101.928 115.896 101.574C115.775 101.212 115.655 100.888 115.534 100.601ZM121.508 95.5777L128.884 88.2012L129.948 89.2646L122.571 96.6412L121.508 95.5777ZM119.98 93.462L127.572 85.8705L128.703 87.0019L121.112 94.5934L119.98 93.462ZM121.938 98.8134L131.95 88.8008L133.116 89.9661L123.103 99.9787L121.938 98.8134ZM121.926 90.1358L123.329 88.7329L128.477 93.8806L127.074 95.2835L121.926 90.1358ZM118.181 90.1924L118.792 90.8033L123.816 85.78L123.205 85.1691L118.181 90.1924ZM116.631 88.6424L117.22 89.2307L122.243 84.2074L121.655 83.6191L116.631 88.6424ZM114.267 88.9479L122.028 81.1867L126.248 85.4067L118.487 93.1679L114.267 88.9479ZM118.962 92.4664L120.67 91.5274C120.874 92.0629 121.036 92.6248 121.157 93.2131C121.278 93.8014 121.361 94.3822 121.406 94.9554C121.451 95.5287 121.459 96.0566 121.428 96.5394C121.255 96.5469 121.048 96.5658 120.806 96.5959C120.565 96.6261 120.324 96.6638 120.082 96.7091C119.833 96.7468 119.622 96.792 119.449 96.8448C119.547 96.1585 119.554 95.4268 119.471 94.65C119.388 93.858 119.219 93.1302 118.962 92.4664Z" fill="black"/>
<path d="M270.894 146.959L280.94 157.006L279.673 158.273L269.627 148.226L270.894 146.959ZM268.518 154.313L273.575 159.37L272.523 160.422L267.466 155.365L268.518 154.313ZM266.481 155.874L272.025 161.418L270.939 162.504L265.395 156.96L266.481 155.874ZM269.853 156.689L271.131 157.967L267.149 161.95L265.87 160.671L269.853 156.689ZM269.208 149.505L277.399 157.696L276.155 158.94L269.321 152.107L263.019 158.408L261.662 157.051L269.208 149.505ZM277.014 157.311L278.406 158.703L272.217 164.891C271.893 165.216 271.599 165.419 271.335 165.502C271.063 165.593 270.769 165.57 270.453 165.434C270.121 165.299 269.777 165.068 269.423 164.744C269.068 164.435 268.661 164.05 268.201 163.59C268.344 163.386 268.48 163.13 268.608 162.821C268.744 162.519 268.846 162.244 268.914 161.995C269.095 162.191 269.28 162.391 269.468 162.595C269.657 162.798 269.83 162.979 269.989 163.138C270.162 163.296 270.275 163.402 270.328 163.454C270.434 163.56 270.52 163.617 270.588 163.624C270.664 163.624 270.743 163.583 270.826 163.5L277.014 157.311ZM270.147 153.544L271.539 154.302C271.493 154.618 271.41 154.95 271.29 155.297C271.177 155.652 271.063 155.946 270.95 156.18L269.446 155.422C269.581 155.195 269.713 154.905 269.842 154.55C269.97 154.196 270.072 153.86 270.147 153.544ZM273.632 156.44L274.458 157.899C274.035 158.02 273.62 158.133 273.213 158.239C272.821 158.344 272.463 158.424 272.138 158.476L271.471 157.221C271.689 157.168 271.927 157.096 272.184 157.006C272.447 156.923 272.704 156.832 272.953 156.734C273.202 156.636 273.428 156.538 273.632 156.44ZM276.053 150.398L277.535 151.88L273.677 155.738L272.195 154.256L276.053 150.398ZM275.702 167.267L283.373 174.938L282.117 176.194L274.446 168.523L275.702 167.267ZM280.363 160.864L289.697 170.197L282.287 177.608L280.906 176.228L287.061 170.073L280.431 163.443L274.254 169.62L272.93 168.297L280.363 160.864ZM284.957 166.498L286.258 167.799L284.221 169.835C284.078 169.979 283.999 170.08 283.984 170.141C283.984 170.201 284.04 170.288 284.153 170.401C284.176 170.424 284.225 170.473 284.3 170.548C284.383 170.631 284.463 170.71 284.538 170.786C284.621 170.869 284.681 170.929 284.719 170.967C284.787 171.035 284.847 171.072 284.9 171.08C284.968 171.087 285.051 171.057 285.149 170.989C285.255 170.929 285.398 170.816 285.579 170.65C285.594 170.786 285.632 170.952 285.692 171.148C285.768 171.344 285.85 171.54 285.941 171.736C286.047 171.932 286.148 172.102 286.246 172.245C285.847 172.539 285.504 172.732 285.217 172.822C284.93 172.913 284.666 172.913 284.425 172.822C284.191 172.739 283.946 172.569 283.69 172.313C283.629 172.253 283.558 172.181 283.475 172.098C283.392 172.015 283.301 171.925 283.203 171.827C283.113 171.736 283.026 171.649 282.943 171.566C282.86 171.483 282.792 171.415 282.739 171.363C282.377 171.001 282.143 170.676 282.038 170.39C281.94 170.111 281.966 169.828 282.117 169.541C282.268 169.255 282.532 168.923 282.909 168.546L284.957 166.498ZM282.445 157.877L292.616 168.048L291.304 169.36L281.133 159.189L282.445 157.877ZM284.538 161.961L285.873 163.296L283.61 165.559L282.275 164.224L284.538 161.961ZM287.016 164.439L288.385 165.808L286.122 168.07L284.753 166.701L287.016 164.439ZM282.807 163.828L284.074 165.095L282.954 166.215C282.577 166.592 282.14 166.931 281.642 167.233C281.144 167.535 280.578 167.731 279.945 167.821C279.311 167.912 278.598 167.833 277.806 167.584C277.829 167.441 277.837 167.252 277.829 167.018C277.822 166.784 277.803 166.547 277.772 166.305C277.75 166.072 277.72 165.883 277.682 165.74C278.399 165.974 279.006 166.068 279.503 166.023C280.009 165.985 280.439 165.857 280.793 165.638C281.148 165.419 281.457 165.178 281.721 164.914L282.807 163.828Z" fill="black"/>
<path d="M291.07 119.263L301.207 129.4L299.861 130.746L289.724 120.609L291.07 119.263ZM294.713 117.317L303.176 125.78L301.83 127.126L293.367 118.663L294.713 117.317ZM299.872 119.082L301.32 120.53L290.697 131.154L289.249 129.706L299.872 119.082ZM294.362 124.117L295.053 125.78C294.336 125.953 293.589 126.081 292.812 126.164C292.043 126.24 291.266 126.262 290.482 126.232C289.705 126.21 288.939 126.138 288.185 126.017C287.446 125.897 286.737 125.731 286.058 125.52C286.103 125.323 286.137 125.093 286.16 124.829C286.19 124.573 286.209 124.313 286.217 124.049C286.239 123.785 286.243 123.547 286.228 123.336C286.854 123.585 287.514 123.792 288.208 123.958C288.917 124.124 289.63 124.241 290.346 124.309C291.063 124.377 291.76 124.396 292.439 124.366C293.126 124.328 293.767 124.245 294.362 124.117ZM296.286 126.063C296.15 126.651 296.063 127.288 296.026 127.975C296.003 128.661 296.026 129.362 296.093 130.079C296.161 130.795 296.271 131.501 296.422 132.195C296.588 132.889 296.791 133.545 297.033 134.163C296.844 134.141 296.614 134.137 296.342 134.152C296.086 134.167 295.826 134.193 295.562 134.231C295.298 134.269 295.068 134.31 294.872 134.356C294.668 133.684 294.51 132.975 294.396 132.229C294.283 131.482 294.215 130.72 294.193 129.943C294.178 129.159 294.208 128.382 294.283 127.613C294.366 126.851 294.494 126.112 294.668 125.395L296.286 126.063ZM297.141 141.987L309.982 129.146L311.068 130.232L298.227 143.073L297.141 141.987ZM314.331 136.551L323.507 145.726L316.775 152.458L315.361 151.044L320.792 145.613L314.388 139.209L308.901 144.697L307.543 143.339L314.331 136.551ZM312.781 139.888L320.316 147.423L319.061 148.679L311.526 141.144L312.781 139.888ZM310.326 142.321L317.895 149.89L316.594 151.191L309.025 143.622L310.326 142.321ZM319.66 138.847L321.086 140.273L310.462 150.896L309.037 149.471L319.66 138.847Z" fill="black"/>
<path d="M263.713 283.073L267.073 279.713L268.419 281.059L265.059 284.419L263.713 283.073ZM266.745 275.04L268.159 273.626L276.316 281.783C276.633 282.1 276.863 282.277 277.006 282.315C277.142 282.345 277.315 282.255 277.527 282.043C277.572 281.998 277.647 281.923 277.753 281.817C277.859 281.711 277.975 281.595 278.104 281.466C278.232 281.338 278.349 281.221 278.454 281.116C278.56 281.01 278.639 280.931 278.692 280.878C278.843 280.727 278.892 280.55 278.839 280.346C278.786 280.143 278.609 279.86 278.307 279.498C278.006 279.121 277.564 278.619 276.984 277.993C277.18 277.963 277.395 277.914 277.628 277.846C277.87 277.771 278.104 277.688 278.33 277.597C278.549 277.499 278.737 277.401 278.896 277.303C279.574 278.072 280.08 278.736 280.412 279.294C280.751 279.845 280.898 280.339 280.853 280.776C280.823 281.214 280.593 281.647 280.163 282.077C280.102 282.138 280.001 282.239 279.857 282.383C279.714 282.526 279.559 282.681 279.393 282.847C279.235 283.005 279.088 283.152 278.952 283.288C278.816 283.424 278.715 283.525 278.647 283.593C278.217 284.023 277.813 284.299 277.436 284.419C277.074 284.54 276.693 284.498 276.293 284.295C275.886 284.084 275.419 283.714 274.891 283.186L266.745 275.04ZM263.894 277.891L265.308 276.477L275.626 286.795L274.212 288.209L263.894 277.891ZM272.164 272.992L274.37 273.23C274.242 273.886 274.091 274.565 273.918 275.266C273.737 275.96 273.544 276.658 273.341 277.359C273.137 278.046 272.926 278.71 272.707 279.351C272.511 279.245 272.254 279.147 271.938 279.057C271.613 278.958 271.334 278.883 271.1 278.83C271.289 278.204 271.455 277.548 271.598 276.862C271.742 276.175 271.858 275.5 271.949 274.837C272.047 274.165 272.119 273.551 272.164 272.992ZM268.43 288.605C268.649 288.206 268.898 287.738 269.177 287.202C269.449 286.659 269.732 286.082 270.026 285.471C270.312 284.853 270.599 284.242 270.886 283.639L272.368 284.6C272.058 285.422 271.73 286.256 271.383 287.101C271.044 287.938 270.731 288.703 270.444 289.397L268.43 288.605ZM282.267 276.511L289.938 268.84L291.194 270.096L283.523 277.767L282.267 276.511ZM275.864 271.85L285.197 262.516L292.608 269.926L291.228 271.307L285.073 265.152L278.443 271.782L284.62 277.959L283.297 279.283L275.864 271.85ZM281.498 267.256L282.799 265.955L284.835 267.992C284.979 268.135 285.08 268.214 285.141 268.229C285.201 268.229 285.288 268.173 285.401 268.06C285.424 268.037 285.473 267.988 285.548 267.913C285.631 267.83 285.71 267.75 285.786 267.675C285.869 267.592 285.929 267.532 285.967 267.494C286.035 267.426 286.072 267.366 286.08 267.313C286.087 267.245 286.057 267.162 285.989 267.064C285.929 266.958 285.816 266.815 285.65 266.634C285.786 266.619 285.952 266.581 286.148 266.521C286.344 266.446 286.54 266.363 286.736 266.272C286.932 266.166 287.102 266.065 287.245 265.967C287.539 266.366 287.732 266.709 287.822 266.996C287.913 267.283 287.913 267.547 287.822 267.788C287.739 268.022 287.569 268.267 287.313 268.523C287.253 268.584 287.181 268.655 287.098 268.738C287.015 268.821 286.925 268.912 286.827 269.01C286.736 269.1 286.649 269.187 286.566 269.27C286.483 269.353 286.415 269.421 286.363 269.474C286.001 269.836 285.676 270.07 285.39 270.175C285.111 270.273 284.828 270.247 284.541 270.096C284.255 269.945 283.923 269.681 283.546 269.304L281.498 267.256ZM272.877 269.768L283.048 259.597L284.36 260.909L274.189 271.08L272.877 269.768ZM276.961 267.675L278.296 266.34L280.559 268.603L279.224 269.938L276.961 267.675ZM279.439 265.197L280.808 263.828L283.07 266.091L281.701 267.46L279.439 265.197ZM278.828 269.406L280.095 268.139L281.215 269.259C281.592 269.636 281.931 270.073 282.233 270.571C282.535 271.069 282.731 271.635 282.821 272.268C282.912 272.902 282.833 273.615 282.584 274.407C282.441 274.384 282.252 274.376 282.018 274.384C281.784 274.392 281.547 274.41 281.305 274.441C281.072 274.463 280.883 274.493 280.74 274.531C280.974 273.815 281.068 273.207 281.023 272.71C280.985 272.204 280.857 271.774 280.638 271.42C280.419 271.065 280.178 270.756 279.914 270.492L278.828 269.406Z" fill="black"/>
<path d="M288.67 316.441L288.817 314.484C289.345 314.333 289.926 314.182 290.56 314.032C291.193 313.881 291.816 313.756 292.427 313.658C293.03 313.553 293.554 313.496 293.999 313.488L293.886 315.638C293.471 315.631 292.962 315.665 292.359 315.74C291.755 315.815 291.129 315.913 290.481 316.034C289.832 316.155 289.228 316.291 288.67 316.441ZM297.269 315.627L297.619 313.511C298.042 313.39 298.517 313.262 299.045 313.126C299.565 312.983 300.09 312.844 300.618 312.708C301.146 312.572 301.658 312.459 302.156 312.368C302.654 312.263 303.092 312.187 303.469 312.142L303.141 314.507C302.801 314.529 302.39 314.578 301.907 314.654C301.425 314.729 300.916 314.824 300.38 314.937C299.845 315.035 299.309 315.148 298.773 315.276C298.23 315.397 297.729 315.514 297.269 315.627ZM289.949 310.524L291.997 309.744C292.004 310.309 291.997 310.89 291.974 311.486C291.944 312.074 291.906 312.648 291.861 313.206C291.816 313.749 291.755 314.247 291.68 314.699L289.983 315.219C290.036 314.744 290.069 314.235 290.085 313.692C290.1 313.134 290.096 312.58 290.073 312.029C290.058 311.471 290.017 310.969 289.949 310.524ZM284.993 313.941L295.153 303.781L296.42 305.048L286.261 315.208L284.993 313.941ZM288.048 308.352L289.474 306.927L291.295 308.748L289.87 310.174L288.048 308.352ZM293.581 308.816L295.481 308.228C295.655 309.517 295.647 310.83 295.459 312.165C295.27 313.485 294.938 314.797 294.463 316.102C293.98 317.399 293.392 318.681 292.698 319.949C292.434 319.851 292.11 319.768 291.725 319.7C291.34 319.617 290.982 319.568 290.65 319.553C291.359 318.391 291.966 317.203 292.472 315.989C292.97 314.767 293.324 313.545 293.535 312.323C293.746 311.101 293.762 309.932 293.581 308.816ZM296.828 309.28L298.841 308.714C299.09 310.29 299.087 311.856 298.83 313.409C298.574 314.963 298.117 316.513 297.461 318.059C296.805 319.59 295.994 321.118 295.029 322.641C294.742 322.521 294.399 322.411 293.999 322.313C293.614 322.215 293.252 322.155 292.913 322.132C293.871 320.707 294.689 319.27 295.368 317.822C296.039 316.366 296.511 314.922 296.782 313.488C297.061 312.048 297.076 310.645 296.828 309.28ZM310.987 311.072L298.146 298.231L299.232 297.145L312.073 309.986L310.987 311.072ZM311.456 286.618L311.479 284.989C311.796 284.883 312.139 284.789 312.509 284.706C312.886 284.616 313.252 284.544 313.606 284.491C313.961 284.423 314.262 284.393 314.511 284.401L314.534 286.166C314.285 286.143 313.983 286.158 313.629 286.211C313.274 286.249 312.905 286.301 312.52 286.369C312.135 286.437 311.781 286.52 311.456 286.618ZM315.597 288.293L317.317 287.32C318.245 289.349 318.799 291.381 318.98 293.418C319.161 295.454 318.969 297.427 318.403 299.335C318.237 299.29 318.022 299.256 317.758 299.233C317.509 299.21 317.249 299.191 316.978 299.176C316.721 299.161 316.499 299.158 316.31 299.165C316.951 297.393 317.211 295.586 317.091 293.746C316.97 291.89 316.472 290.073 315.597 288.293ZM306.954 293.248L315.597 284.604L316.887 285.894L308.243 294.538L306.954 293.248ZM311.411 295.692L314.194 292.909L315.45 294.164L312.667 296.948L311.411 295.692ZM306.275 293.927L307.632 292.569L310.698 295.635C311.121 296.058 311.566 296.54 312.033 297.083C312.494 297.619 312.935 298.196 313.357 298.814C313.787 299.425 314.153 300.063 314.455 300.726C314.749 301.383 314.937 302.046 315.02 302.718C314.862 302.695 314.654 302.691 314.398 302.706C314.149 302.729 313.896 302.755 313.64 302.785C313.399 302.816 313.195 302.853 313.029 302.899C312.946 302.303 312.776 301.733 312.52 301.19C312.271 300.64 311.966 300.115 311.604 299.618C311.249 299.112 310.876 298.641 310.483 298.203C310.084 297.758 309.703 297.355 309.341 296.993L306.275 293.927ZM308.809 287.614L310.178 286.245C311.158 287.18 312.124 288.063 313.074 288.892C314.025 289.707 314.937 290.438 315.812 291.087C316.68 291.728 317.487 292.249 318.233 292.648C318.98 293.048 319.64 293.301 320.213 293.406C320.786 293.512 321.247 293.429 321.594 293.158C321.759 293.052 321.707 292.803 321.435 292.411C321.164 292.004 320.741 291.483 320.168 290.85C320.447 290.842 320.764 290.804 321.118 290.736C321.48 290.661 321.786 290.582 322.035 290.499C323.015 291.645 323.528 292.573 323.573 293.282C323.626 293.998 323.283 294.545 322.544 294.922C321.971 295.3 321.311 295.462 320.564 295.409C319.825 295.364 319.018 295.137 318.143 294.73C317.268 294.323 316.336 293.768 315.348 293.067C314.353 292.358 313.308 291.547 312.214 290.635C311.121 289.707 309.986 288.7 308.809 287.614Z" fill="black"/>
<path d="M306.395 342.364L307.877 340.882C308.767 341.787 309.623 342.681 310.445 343.563C311.26 344.438 311.992 345.321 312.64 346.211C313.281 347.093 313.802 348.006 314.202 348.948C314.594 349.884 314.824 350.876 314.892 351.924C314.96 352.957 314.816 354.066 314.462 355.25C314.288 355.197 314.073 355.156 313.817 355.126C313.568 355.103 313.312 355.088 313.048 355.08C312.799 355.073 312.576 355.092 312.38 355.137C312.727 354.051 312.874 353.052 312.821 352.139C312.776 351.219 312.58 350.351 312.233 349.537C311.878 348.715 311.403 347.915 310.807 347.138C310.212 346.361 309.533 345.584 308.771 344.808C308.017 344.023 307.225 343.209 306.395 342.364ZM306.203 347.806L313.161 340.848L314.53 342.217L307.572 349.175L306.203 347.806ZM312.414 341.595L313.828 340.18L319.643 345.996C319.885 346.237 320.058 346.373 320.164 346.403C320.262 346.425 320.379 346.369 320.515 346.233C320.545 346.203 320.594 346.154 320.662 346.086C320.73 346.018 320.805 345.943 320.888 345.86C320.971 345.777 321.046 345.701 321.114 345.634C321.19 345.558 321.242 345.505 321.273 345.475C321.371 345.377 321.397 345.26 321.352 345.124C321.307 344.989 321.171 344.785 320.945 344.513C320.718 344.242 320.375 343.861 319.915 343.371C320.111 343.341 320.318 343.292 320.537 343.224C320.763 343.148 320.99 343.065 321.216 342.975C321.435 342.877 321.623 342.779 321.782 342.681C322.355 343.329 322.77 343.887 323.026 344.355C323.275 344.815 323.373 345.222 323.32 345.577C323.275 345.939 323.079 346.293 322.732 346.64C322.672 346.701 322.589 346.784 322.483 346.889C322.378 346.995 322.264 347.108 322.144 347.229C322.023 347.349 321.91 347.463 321.804 347.568C321.706 347.666 321.631 347.742 321.578 347.794C321.209 348.164 320.858 348.402 320.526 348.507C320.209 348.613 319.866 348.579 319.496 348.405C319.134 348.224 318.708 347.889 318.218 347.398L312.414 341.595ZM326.307 337.069L327.71 335.666L330.878 338.834L329.475 340.237L326.307 337.069ZM321.408 341.018C321.959 340.467 322.585 339.841 323.286 339.139C323.98 338.43 324.72 337.676 325.504 336.877C326.281 336.07 327.084 335.244 327.914 334.399C328.736 333.547 329.554 332.706 330.369 331.876L331.376 333.019C330.599 333.856 329.811 334.697 329.011 335.542C328.219 336.379 327.442 337.201 326.681 338.008C325.919 338.8 325.198 339.558 324.52 340.282C323.841 340.991 323.226 341.628 322.676 342.194L321.408 341.018ZM322.472 333.754L324.225 332.996C324.203 333.667 324.146 334.35 324.056 335.044C323.965 335.723 323.856 336.33 323.728 336.865L322.2 337.42C322.268 337.05 322.329 336.65 322.381 336.221C322.434 335.776 322.468 335.342 322.483 334.919C322.491 334.49 322.487 334.101 322.472 333.754ZM325.572 332.034L327.45 331.242C327.352 332.034 327.209 332.857 327.02 333.709C326.839 334.554 326.639 335.38 326.42 336.187C326.202 336.994 325.975 337.733 325.742 338.404L324.158 338.879C324.391 338.193 324.606 337.442 324.802 336.628C325.006 335.806 325.176 334.995 325.312 334.195C325.44 333.388 325.527 332.668 325.572 332.034ZM321.216 338.562L321.397 336.798C321.835 336.616 322.302 336.443 322.8 336.277C323.298 336.096 323.784 335.934 324.259 335.791C324.727 335.64 325.142 335.519 325.504 335.429L325.413 337.307C325.059 337.375 324.637 337.48 324.146 337.623C323.656 337.752 323.154 337.899 322.642 338.065C322.136 338.223 321.661 338.389 321.216 338.562ZM329.894 336.492L330.448 334.693C330.885 334.542 331.357 334.403 331.862 334.275C332.36 334.139 332.85 334.018 333.333 333.913C333.816 333.792 334.234 333.698 334.589 333.63L334.091 335.553C333.737 335.591 333.314 335.659 332.824 335.757C332.341 335.862 331.84 335.979 331.319 336.107C330.799 336.221 330.324 336.349 329.894 336.492ZM325.165 340.022L326.952 339.23C326.945 339.675 326.896 340.161 326.805 340.689C326.722 341.21 326.613 341.727 326.477 342.239C326.349 342.745 326.209 343.216 326.058 343.654C325.892 343.654 325.681 343.661 325.425 343.676C325.183 343.691 324.934 343.714 324.678 343.744C324.437 343.774 324.229 343.808 324.056 343.846C324.342 343.227 324.591 342.571 324.802 341.877C325.014 341.183 325.134 340.565 325.165 340.022ZM327.62 333.426L328.276 331.752C328.774 331.691 329.309 331.646 329.882 331.616C330.463 331.578 331.025 331.559 331.568 331.559C332.111 331.559 332.583 331.586 332.982 331.638L332.281 333.471C331.911 333.403 331.462 333.362 330.935 333.347C330.407 333.317 329.852 333.313 329.271 333.336C328.683 333.351 328.132 333.381 327.62 333.426ZM318.376 332.057L320.503 329.93L321.578 331.005L319.451 333.132L318.376 332.057ZM319.915 328.527L321.261 327.181L324.146 330.066C324.327 330.247 324.474 330.334 324.588 330.326C324.701 330.303 324.87 330.179 325.097 329.953C325.149 329.9 325.236 329.813 325.357 329.693C325.478 329.572 325.61 329.44 325.753 329.297C325.896 329.153 326.032 329.017 326.16 328.889C326.288 328.761 326.383 328.667 326.443 328.606C326.571 328.478 326.647 328.365 326.669 328.267C326.692 328.154 326.658 328.022 326.567 327.871C326.469 327.713 326.307 327.505 326.081 327.249C326.307 327.203 326.583 327.109 326.907 326.966C327.224 326.815 327.495 326.664 327.721 326.513C328.083 326.981 328.325 327.388 328.446 327.735C328.559 328.075 328.559 328.391 328.446 328.686C328.332 328.98 328.102 329.3 327.755 329.647C327.695 329.708 327.608 329.794 327.495 329.907C327.39 330.013 327.269 330.134 327.133 330.27C326.997 330.405 326.858 330.545 326.715 330.688C326.579 330.824 326.454 330.948 326.341 331.061C326.236 331.167 326.156 331.246 326.104 331.299C325.643 331.759 325.24 332.065 324.893 332.215C324.554 332.359 324.222 332.366 323.897 332.238C323.573 332.095 323.211 331.823 322.811 331.424L319.915 328.527ZM317.743 337.623C318.142 337.148 318.599 336.594 319.112 335.96C319.625 335.312 320.164 334.629 320.73 333.913C321.303 333.188 321.872 332.468 322.438 331.752L323.535 332.781C323.015 333.483 322.487 334.192 321.951 334.908C321.408 335.617 320.892 336.3 320.401 336.956C319.911 337.597 319.466 338.185 319.066 338.721L317.743 337.623ZM324.044 325.484L326.002 325.427C325.798 325.948 325.553 326.487 325.266 327.045C324.98 327.588 324.674 328.135 324.35 328.686C324.018 329.229 323.69 329.745 323.366 330.236C323.207 330.122 322.992 330.013 322.721 329.907C322.449 329.787 322.212 329.7 322.008 329.647C322.28 329.18 322.551 328.697 322.823 328.199C323.094 327.701 323.335 327.219 323.547 326.751C323.758 326.283 323.924 325.861 324.044 325.484ZM316.826 331.616L318.082 330.36L321.929 334.207L320.763 335.553L316.826 331.616ZM315.819 334.297L316.985 333.132L320.096 336.243L319.033 337.51L315.819 334.297ZM332.134 318.911C332.254 319.65 332.307 320.487 332.292 321.422C332.285 322.35 332.205 323.312 332.055 324.307C331.911 325.295 331.696 326.264 331.41 327.215C331.236 327.162 331.033 327.117 330.799 327.079C330.572 327.034 330.339 327.004 330.097 326.989C329.863 326.966 329.649 326.955 329.452 326.955C329.792 325.997 330.033 324.994 330.177 323.945C330.312 322.889 330.365 321.879 330.335 320.913C330.312 319.94 330.21 319.084 330.029 318.345L331.444 316.931C332.183 317.051 332.933 317.123 333.695 317.146C334.457 317.168 335.215 317.134 335.969 317.044C336.723 316.953 337.455 316.818 338.164 316.636C338.873 316.455 339.544 316.229 340.178 315.958C340.178 316.305 340.212 316.663 340.28 317.032C340.348 317.402 340.419 317.753 340.495 318.085C339.838 318.288 339.141 318.466 338.402 318.616C337.67 318.76 336.935 318.869 336.195 318.944C335.449 319.012 334.728 319.046 334.034 319.046C333.341 319.046 332.707 319.001 332.134 318.911ZM331.398 323.832L337.089 318.141L338.277 319.329L332.586 325.02L331.398 323.832ZM332.349 327.498L340.732 319.114L341.909 320.291L333.525 328.674L332.349 327.498ZM335.222 331.503L344.839 321.886L346.004 323.051L336.388 332.668L335.222 331.503ZM333.967 322.214L335.403 320.777L341.264 326.638L339.827 328.075L333.967 322.214ZM334.668 328.391L335.302 326.853C335.633 326.898 335.98 326.966 336.342 327.056C336.712 327.139 337.063 327.234 337.395 327.339C337.727 327.445 338.006 327.558 338.232 327.679L337.587 329.364C337.368 329.236 337.093 329.112 336.761 328.991C336.422 328.863 336.071 328.746 335.709 328.64C335.347 328.535 335 328.452 334.668 328.391ZM339.974 322.203L341.75 321.377C341.871 321.95 341.984 322.531 342.09 323.119C342.188 323.7 342.256 324.213 342.293 324.658L340.845 325.246C340.793 324.937 340.725 324.605 340.642 324.251C340.551 323.889 340.449 323.53 340.336 323.176C340.216 322.814 340.095 322.489 339.974 322.203ZM345.948 317.18L353.324 309.803L354.388 310.866L347.011 318.243L345.948 317.18ZM344.42 315.064L352.012 307.472L353.143 308.604L345.552 316.195L344.42 315.064ZM346.378 320.415L356.39 310.403L357.556 311.568L347.543 321.581L346.378 320.415ZM346.366 311.738L347.769 310.335L352.917 315.482L351.514 316.885L346.366 311.738ZM342.622 311.794L343.233 312.405L348.256 307.382L347.645 306.771L342.622 311.794ZM341.072 310.244L341.66 310.833L346.683 305.809L346.095 305.221L341.072 310.244ZM338.707 310.55L346.468 302.789L350.688 307.009L342.927 314.77L338.707 310.55ZM343.402 314.068L345.111 313.129C345.314 313.665 345.476 314.227 345.597 314.815C345.718 315.403 345.801 315.984 345.846 316.557C345.891 317.131 345.899 317.658 345.869 318.141C345.695 318.149 345.488 318.168 345.246 318.198C345.005 318.228 344.764 318.266 344.522 318.311C344.273 318.349 344.062 318.394 343.889 318.447C343.987 317.76 343.994 317.029 343.911 316.252C343.828 315.46 343.659 314.732 343.402 314.068Z" fill="black"/>
<path d="M156.927 261.5L160.288 264.86L158.941 266.206L155.581 262.846L156.927 261.5ZM164.96 264.532L166.374 265.946L158.217 274.103C157.9 274.42 157.723 274.65 157.685 274.793C157.655 274.929 157.746 275.102 157.957 275.314C158.002 275.359 158.078 275.434 158.183 275.54C158.289 275.646 158.406 275.762 158.534 275.891C158.662 276.019 158.779 276.136 158.885 276.241C158.99 276.347 159.07 276.426 159.122 276.479C159.273 276.63 159.45 276.679 159.654 276.626C159.858 276.573 160.141 276.396 160.503 276.094C160.88 275.793 161.381 275.351 162.007 274.771C162.038 274.967 162.087 275.182 162.154 275.415C162.23 275.657 162.313 275.891 162.403 276.117C162.501 276.336 162.599 276.524 162.697 276.683C161.928 277.361 161.264 277.867 160.706 278.199C160.156 278.538 159.662 278.685 159.224 278.64C158.787 278.61 158.353 278.38 157.923 277.95C157.863 277.889 157.761 277.788 157.618 277.644C157.474 277.501 157.32 277.346 157.154 277.18C156.995 277.022 156.848 276.875 156.713 276.739C156.577 276.603 156.475 276.502 156.407 276.434C155.977 276.004 155.702 275.6 155.581 275.223C155.46 274.861 155.502 274.48 155.706 274.08C155.917 273.673 156.286 273.206 156.814 272.678L164.96 264.532ZM162.109 261.681L163.523 263.095L153.205 273.413L151.791 271.999L162.109 261.681ZM167.008 269.951L166.77 272.157C166.114 272.029 165.435 271.878 164.734 271.705C164.04 271.524 163.342 271.331 162.641 271.128C161.955 270.924 161.291 270.713 160.65 270.494C160.755 270.298 160.853 270.041 160.944 269.725C161.042 269.4 161.117 269.121 161.17 268.887C161.796 269.076 162.452 269.242 163.139 269.385C163.825 269.529 164.5 269.645 165.164 269.736C165.835 269.834 166.45 269.906 167.008 269.951ZM151.395 266.217C151.795 266.436 152.262 266.685 152.798 266.964C153.341 267.236 153.918 267.518 154.529 267.813C155.147 268.099 155.758 268.386 156.362 268.672L155.4 270.155C154.578 269.845 153.745 269.517 152.9 269.17C152.063 268.831 151.297 268.518 150.603 268.231L151.395 266.217ZM170.017 271.082L180.064 281.129L178.797 282.396L168.75 272.349L170.017 271.082ZM175.21 274.42L176.625 275.834L166.001 286.458L164.587 285.043L175.21 274.42ZM168.4 280.529L169.078 282.158C168.437 282.272 167.774 282.332 167.087 282.339C166.408 282.355 165.718 282.321 165.017 282.238C164.33 282.155 163.652 282.026 162.98 281.853C162.309 281.695 161.672 281.495 161.068 281.253C161.106 281.065 161.144 280.846 161.181 280.597C161.219 280.348 161.246 280.096 161.261 279.839C161.276 279.583 161.279 279.36 161.272 279.172C161.83 279.443 162.415 279.681 163.026 279.884C163.644 280.08 164.266 280.243 164.892 280.371C165.526 280.492 166.137 280.567 166.725 280.597C167.329 280.627 167.887 280.605 168.4 280.529ZM170.504 282.724C170.444 283.237 170.432 283.791 170.47 284.387C170.523 284.983 170.61 285.598 170.73 286.231C170.866 286.865 171.039 287.491 171.251 288.109C171.469 288.72 171.714 289.305 171.986 289.863C171.79 289.848 171.56 289.844 171.296 289.852C171.032 289.874 170.772 289.901 170.515 289.931C170.259 289.976 170.033 290.021 169.836 290.067C169.588 289.471 169.384 288.837 169.225 288.166C169.06 287.502 168.931 286.823 168.841 286.13C168.765 285.436 168.731 284.745 168.739 284.059C168.754 283.38 168.814 282.724 168.92 282.091L170.504 282.724ZM167.732 277.916L167.042 278.606L172.529 284.093L173.219 283.403L167.732 277.916ZM169.361 276.287L168.682 276.965L174.17 282.453L174.848 281.774L169.361 276.287ZM169.056 273.945L177.258 282.147L172.902 286.503L164.7 278.3L169.056 273.945Z" fill="black"/>
<path d="M132.67 290.374L134.005 291.709L129.152 296.563L127.817 295.228L132.67 290.374ZM130.838 287.297L137.06 293.52L135.963 294.617L129.74 288.394L130.838 287.297ZM127.251 292.286L126.629 292.909L131.505 297.785L132.127 297.163L127.251 292.286ZM128.824 290.714L128.213 291.325L133.089 296.201L133.7 295.59L128.824 290.714ZM128.541 288.372L136.11 295.941L131.856 300.195L124.287 292.626L128.541 288.372ZM128.111 297.717L129.808 297.626C130.08 298.185 130.347 298.762 130.611 299.357C130.883 299.961 131.132 300.534 131.358 301.077C131.599 301.62 131.799 302.099 131.958 302.514L129.966 302.469C129.838 302.084 129.676 301.628 129.48 301.1C129.291 300.579 129.08 300.029 128.846 299.448C128.613 298.867 128.367 298.29 128.111 297.717ZM135.872 287.082L137.275 288.485L135.669 290.091L134.266 288.689L135.872 287.082ZM130.962 283.756L140.681 293.474L138.18 295.975L136.789 294.583L138.056 293.316L131.064 286.324L129.797 287.591L128.462 286.256L130.962 283.756ZM126.538 294.334L126.855 296.325C126.342 296.22 125.78 296.05 125.169 295.816C124.559 295.597 123.948 295.334 123.337 295.024C122.726 294.73 122.152 294.413 121.617 294.074C121.677 293.833 121.73 293.531 121.775 293.169C121.828 292.814 121.862 292.501 121.877 292.23C122.367 292.554 122.895 292.863 123.461 293.158C124.042 293.452 124.6 293.701 125.136 293.904C125.686 294.108 126.154 294.251 126.538 294.334ZM133.141 309.987L145.982 297.146L147.068 298.232L134.227 311.073L133.141 309.987ZM151.621 304.098L158.342 310.818L157.018 312.142L150.297 305.422L151.621 304.098ZM142.378 311.531L152.47 321.623L151.157 322.935L141.066 312.844L142.378 311.531ZM146.666 306.994L157.007 317.335L155.672 318.67L145.331 308.329L146.666 306.994ZM153.035 306.96L154.427 308.352C153.839 308.835 153.22 309.333 152.572 309.845C151.923 310.358 151.267 310.871 150.603 311.384C149.947 311.905 149.298 312.41 148.657 312.9C148.016 313.39 147.401 313.847 146.813 314.269C146.24 314.692 145.719 315.069 145.252 315.401L143.837 313.986C144.335 313.654 144.882 313.274 145.478 312.844C146.074 312.414 146.688 311.957 147.322 311.475C147.971 310.992 148.623 310.498 149.279 309.993C149.943 309.48 150.592 308.967 151.225 308.454C151.859 307.941 152.462 307.443 153.035 306.96ZM157.719 310.196L159.134 311.61C158.53 312.184 157.893 312.776 157.221 313.387C156.558 313.99 155.883 314.597 155.196 315.208C154.51 315.819 153.835 316.411 153.171 316.984C152.523 317.558 151.896 318.101 151.293 318.614C150.697 319.119 150.15 319.575 149.653 319.983L148.216 318.546C148.721 318.131 149.279 317.671 149.89 317.165C150.509 316.653 151.15 316.11 151.814 315.536C152.485 314.971 153.16 314.386 153.839 313.783C154.525 313.172 155.193 312.565 155.841 311.961C156.505 311.358 157.131 310.769 157.719 310.196Z" fill="black"/>
<path d="M96.7824 309.092L104.996 317.306L103.503 318.799L95.289 310.586L96.7824 309.092ZM89.2588 314.715L99.3619 324.818L97.8119 326.368L87.7088 316.265L89.2588 314.715ZM108.164 323.393L107.496 324.06L112.678 329.242L113.346 328.574L108.164 323.393ZM109.793 321.763L109.126 322.431L114.307 327.613L114.975 326.945L109.793 321.763ZM109.51 319.444L117.362 327.296L113.018 331.64L105.166 323.789L109.51 319.444ZM104.351 324.015L112.814 332.478L111.75 333.541L103.288 325.078L104.351 324.015ZM101.772 324.716L112.022 334.967L110.891 336.098L100.64 325.848L101.772 324.716ZM112.214 323.076L113.561 324.422L106.806 331.176L105.46 329.83L112.214 323.076ZM103.186 329.66L104.532 330.803C104.298 331.158 104.027 331.535 103.718 331.935C103.408 332.334 103.133 332.655 102.892 332.896L101.41 331.731C101.659 331.482 101.953 331.165 102.292 330.781C102.624 330.403 102.922 330.03 103.186 329.66ZM105.369 331.935L106.886 332.953C106.72 333.36 106.52 333.794 106.286 334.254C106.06 334.706 105.845 335.08 105.641 335.374L104.001 334.322C104.212 334.05 104.446 333.688 104.702 333.236C104.958 332.783 105.181 332.349 105.369 331.935ZM107.666 334.095L109.363 334.955C109.348 335.317 109.31 335.71 109.25 336.132C109.205 336.554 109.145 336.962 109.069 337.354C109.001 337.738 108.914 338.074 108.809 338.361L106.965 337.467C107.063 337.218 107.157 336.897 107.248 336.505C107.338 336.128 107.417 335.725 107.485 335.295C107.561 334.872 107.621 334.473 107.666 334.095ZM101.579 327.194L102.575 328.823C102.055 329.087 101.493 329.302 100.889 329.468C100.278 329.642 99.7089 329.721 99.1809 329.706L98.4568 327.85C98.9169 327.903 99.4298 327.865 99.9955 327.737C100.561 327.609 101.089 327.428 101.579 327.194ZM117.158 333.383L125.96 342.185L124.625 343.52L115.823 334.718L117.158 333.383ZM111.117 337.931L121.424 348.238L120.089 349.573L109.782 339.266L111.117 337.931ZM124.297 333.53L125.757 334.989L116.05 344.696L114.59 343.237L124.297 333.53ZM125.451 349.324L132.828 356.7L131.764 357.764L124.388 350.387L125.451 349.324ZM127.567 347.796L135.158 355.388L134.027 356.519L126.436 348.928L127.567 347.796ZM122.216 349.754L132.228 359.766L131.063 360.932L121.05 350.919L122.216 349.754ZM130.893 349.742L132.296 351.145L127.148 356.293L125.745 354.89L130.893 349.742ZM130.837 345.997L130.226 346.608L135.249 351.632L135.86 351.021L130.837 345.997ZM132.387 344.447L131.798 345.036L136.822 350.059L137.41 349.471L132.387 344.447ZM132.081 342.083L139.842 349.844L135.622 354.064L127.861 346.303L132.081 342.083ZM128.563 346.778L129.502 348.486C128.966 348.69 128.404 348.852 127.816 348.973C127.228 349.094 126.647 349.177 126.074 349.222C125.5 349.267 124.972 349.275 124.49 349.244C124.482 349.071 124.463 348.864 124.433 348.622C124.403 348.381 124.365 348.14 124.32 347.898C124.282 347.649 124.237 347.438 124.184 347.265C124.871 347.363 125.602 347.37 126.379 347.287C127.171 347.204 127.899 347.035 128.563 346.778Z" fill="black"/>
<path d="M316.009 81.2775L324.754 90.023L323.408 91.3694L314.662 82.6239L316.009 81.2775ZM307.648 88.326L317.796 98.4744L316.45 99.8207L306.302 89.6723L307.648 88.326ZM318.679 84.8979L320.229 86.4479C319.437 87.0136 318.607 87.5944 317.74 88.1902C316.872 88.7861 316.005 89.3744 315.138 89.9552C314.27 90.5359 313.44 91.079 312.648 91.5843C311.864 92.0972 311.155 92.5422 310.522 92.9194L308.994 91.392C309.658 90.9998 310.393 90.551 311.2 90.0457C312.015 89.5328 312.848 88.986 313.701 88.4052C314.568 87.8244 315.428 87.2361 316.28 86.6402C317.132 86.0444 317.932 85.4636 318.679 84.8979ZM313.067 84.9658L320.41 92.3084L315.386 97.3317L313.972 95.9175L317.66 92.2292L311.732 86.3008L313.067 84.9658ZM324.946 93.5642L335.174 103.792L333.941 105.025L323.713 94.7974L324.946 93.5642ZM327.628 92.4894L336.272 101.133L335.084 102.321L326.44 93.6774L327.628 92.4894ZM330.332 93.519L331.712 94.8993L328.397 98.2142L327.017 96.8339L330.332 93.519ZM333.828 97.0149L335.231 98.4178L331.916 101.733L330.513 100.33L333.828 97.0149ZM328.646 98.6667L330.049 100.07L325.41 104.708L324.007 103.305L328.646 98.6667ZM323.148 100.228L322.491 100.884L327.888 106.281L328.544 105.625L323.148 100.228ZM324.652 98.7233L324.019 99.3569L329.415 104.753L330.049 104.12L324.652 98.7233ZM324.29 96.4832L332.357 104.55L328.329 108.578L320.263 100.511L324.29 96.4832ZM324.313 106.009L325.931 105.907C326.21 106.458 326.481 107.024 326.745 107.605C327.017 108.193 327.27 108.755 327.503 109.29C327.745 109.833 327.945 110.305 328.103 110.705L326.225 110.637C326.097 110.267 325.935 109.826 325.738 109.313C325.535 108.808 325.312 108.268 325.071 107.695C324.83 107.122 324.577 106.56 324.313 106.009ZM322.525 102.593L322.876 104.55C322.386 104.437 321.85 104.263 321.27 104.029C320.681 103.803 320.097 103.55 319.516 103.271C318.935 102.992 318.4 102.713 317.909 102.434C317.94 102.178 317.955 101.861 317.955 101.484C317.955 101.122 317.943 100.801 317.921 100.522C318.411 100.831 318.931 101.126 319.482 101.405C320.048 101.684 320.602 101.929 321.145 102.14C321.688 102.351 322.148 102.502 322.525 102.593ZM336.158 106.383L344.96 115.185L343.625 116.52L334.823 107.718L336.158 106.383ZM330.117 110.931L340.424 121.238L339.089 122.573L328.782 112.266L330.117 110.931ZM343.297 106.53L344.757 107.989L335.05 117.696L333.59 116.237L343.297 106.53ZM344.451 122.324L351.828 129.7L350.764 130.764L343.388 123.387L344.451 122.324ZM346.567 120.796L354.158 128.388L353.027 129.519L345.436 121.928L346.567 120.796ZM341.216 122.754L351.228 132.766L350.063 133.932L340.05 123.919L341.216 122.754ZM349.893 122.742L351.296 124.145L346.148 129.293L344.745 127.89L349.893 122.742ZM349.837 118.997L349.226 119.608L354.249 124.632L354.86 124.021L349.837 118.997ZM351.387 117.447L350.798 118.036L355.822 123.059L356.41 122.471L351.387 117.447ZM351.081 115.083L358.842 122.844L354.622 127.064L346.861 119.303L351.081 115.083ZM347.563 119.778L348.502 121.486C347.966 121.69 347.404 121.852 346.816 121.973C346.228 122.094 345.647 122.177 345.074 122.222C344.5 122.267 343.972 122.275 343.49 122.244C343.482 122.071 343.463 121.864 343.433 121.622C343.403 121.381 343.365 121.14 343.32 120.898C343.282 120.649 343.237 120.438 343.184 120.265C343.871 120.363 344.602 120.37 345.379 120.287C346.171 120.204 346.899 120.035 347.563 119.778Z" fill="black"/>
<path d="M213.896 125.728H228.104V127.52H213.896V125.728ZM217.416 132.608H224.568V134.096H217.416V132.608ZM217.08 135.152H224.92V136.688H217.08V135.152ZM220.04 133.344H221.848V138.976H220.04V133.344ZM214.504 128.72H226.088V130.48H216.424V139.392H214.504V128.72ZM225.544 128.72H227.512V137.472C227.512 137.931 227.448 138.283 227.32 138.528C227.192 138.784 226.968 138.976 226.648 139.104C226.317 139.243 225.912 139.323 225.432 139.344C224.963 139.376 224.403 139.392 223.752 139.392C223.709 139.147 223.624 138.869 223.496 138.56C223.379 138.251 223.256 137.984 223.128 137.76C223.395 137.771 223.667 137.781 223.944 137.792C224.221 137.803 224.472 137.808 224.696 137.808C224.931 137.797 225.085 137.792 225.16 137.792C225.309 137.792 225.411 137.771 225.464 137.728C225.517 137.675 225.544 137.589 225.544 137.472V128.72ZM218.024 130.912L219.544 130.464C219.736 130.72 219.912 131.013 220.072 131.344C220.243 131.675 220.371 131.963 220.456 132.208L218.856 132.736C218.792 132.48 218.68 132.181 218.52 131.84C218.36 131.499 218.195 131.189 218.024 130.912ZM222.536 130.496L224.152 130.944C223.939 131.328 223.725 131.701 223.512 132.064C223.309 132.416 223.112 132.725 222.92 132.992L221.56 132.576C221.677 132.384 221.795 132.165 221.912 131.92C222.04 131.675 222.157 131.429 222.264 131.184C222.371 130.939 222.461 130.709 222.536 130.496ZM219.976 124.512H222.072V129.968H219.976V124.512Z" fill="black"/>
<path d="M215.744 79.336L217.792 79.832C217.536 80.6427 217.227 81.4373 216.864 82.216C216.501 82.984 216.112 83.704 215.696 84.376C215.28 85.048 214.848 85.6293 214.4 86.12C214.272 86.0133 214.096 85.8853 213.872 85.736C213.648 85.5867 213.419 85.4427 213.184 85.304C212.96 85.1547 212.763 85.0373 212.592 84.952C213.051 84.5147 213.477 83.9973 213.872 83.4C214.277 82.8027 214.635 82.1573 214.944 81.464C215.264 80.7707 215.531 80.0613 215.744 79.336ZM216.192 81.416H225.984V83.288H215.232L216.192 81.416ZM212.784 86.616H227.248V88.552H212.784V86.616ZM219.008 82.248H221.008V94.44H219.008V82.248Z" fill="black"/>
<path d="M302.656 223.688H313.504V225.464H302.656V223.688ZM301.424 215.864H314.624V226.344H312.672V217.64H303.296V226.376H301.424V215.864ZM308.656 216.6H310.496V219.48C310.496 219.683 310.512 219.811 310.544 219.864C310.587 219.907 310.688 219.928 310.848 219.928C310.88 219.928 310.949 219.928 311.056 219.928C311.173 219.928 311.285 219.928 311.392 219.928C311.509 219.928 311.595 219.928 311.648 219.928C311.744 219.928 311.813 219.912 311.856 219.88C311.909 219.837 311.947 219.757 311.968 219.64C312 219.523 312.021 219.341 312.032 219.096C312.139 219.181 312.283 219.272 312.464 219.368C312.656 219.453 312.853 219.533 313.056 219.608C313.269 219.672 313.461 219.72 313.632 219.752C313.557 220.243 313.451 220.621 313.312 220.888C313.173 221.155 312.987 221.341 312.752 221.448C312.528 221.555 312.235 221.608 311.872 221.608C311.787 221.608 311.685 221.608 311.568 221.608C311.451 221.608 311.323 221.608 311.184 221.608C311.056 221.608 310.933 221.608 310.816 221.608C310.699 221.608 310.603 221.608 310.528 221.608C310.016 221.608 309.621 221.544 309.344 221.416C309.077 221.288 308.896 221.069 308.8 220.76C308.704 220.451 308.656 220.029 308.656 219.496V216.6ZM300.784 212.28H315.168V214.136H300.784V212.28ZM305.152 213.688H307.04V216.888H305.152V213.688ZM308.656 213.688H310.592V216.888H308.656V213.688ZM305.248 216.232H307.04V217.816C307.04 218.349 306.971 218.899 306.832 219.464C306.693 220.029 306.432 220.568 306.048 221.08C305.664 221.592 305.104 222.04 304.368 222.424C304.283 222.307 304.155 222.168 303.984 222.008C303.813 221.848 303.632 221.693 303.44 221.544C303.259 221.395 303.104 221.283 302.976 221.208C303.648 220.867 304.144 220.504 304.464 220.12C304.795 219.736 305.008 219.341 305.104 218.936C305.2 218.531 305.248 218.141 305.248 217.768V216.232Z" fill="black"/>
<path d="M347.928 224.008H358.488V225.688H347.928V224.008ZM347.928 221.448H358.52V223.032H347.928V221.448ZM346.584 215.672H359.48V226.424H357.608V217.384H348.376V226.424H346.584V215.672ZM353.352 213.512H355.192V218.568C355.192 218.803 355.208 218.947 355.24 219C355.283 219.053 355.368 219.08 355.496 219.08C355.528 219.08 355.576 219.08 355.64 219.08C355.704 219.08 355.773 219.08 355.848 219.08C355.923 219.08 355.992 219.08 356.056 219.08C356.131 219.08 356.184 219.08 356.216 219.08C356.291 219.08 356.349 219.059 356.392 219.016C356.445 218.973 356.483 218.888 356.504 218.76C356.525 218.632 356.541 218.445 356.552 218.2C356.733 218.328 356.973 218.451 357.272 218.568C357.581 218.685 357.859 218.776 358.104 218.84C358.019 219.523 357.848 219.992 357.592 220.248C357.336 220.504 356.941 220.632 356.408 220.632C356.333 220.632 356.237 220.632 356.12 220.632C356.013 220.632 355.896 220.632 355.768 220.632C355.651 220.632 355.539 220.632 355.432 220.632C355.325 220.632 355.235 220.632 355.16 220.632C354.659 220.632 354.28 220.573 354.024 220.456C353.768 220.328 353.592 220.115 353.496 219.816C353.4 219.507 353.352 219.091 353.352 218.568V213.512ZM350.312 213.512H352.04V217.016C352.04 217.667 351.965 218.248 351.816 218.76C351.677 219.272 351.4 219.72 350.984 220.104C350.568 220.488 349.944 220.808 349.112 221.064C348.995 220.861 348.829 220.632 348.616 220.376C348.403 220.12 348.205 219.907 348.024 219.736C348.675 219.544 349.165 219.315 349.496 219.048C349.827 218.781 350.045 218.477 350.152 218.136C350.259 217.784 350.312 217.405 350.312 217V213.512ZM345.864 212.312H360.168V214.152H345.864V212.312Z" fill="black"/>
<path d="M213.896 302.208H218.648V304.112H213.896V302.208ZM221.72 298.672H223.72V310.208C223.72 310.656 223.757 310.944 223.832 311.072C223.907 311.189 224.093 311.248 224.392 311.248C224.456 311.248 224.563 311.248 224.712 311.248C224.861 311.248 225.027 311.248 225.208 311.248C225.389 311.248 225.555 311.248 225.704 311.248C225.853 311.248 225.965 311.248 226.04 311.248C226.253 311.248 226.413 311.157 226.52 310.976C226.627 310.795 226.701 310.469 226.744 310C226.797 309.52 226.84 308.853 226.872 308C227.032 308.117 227.219 308.235 227.432 308.352C227.656 308.469 227.88 308.576 228.104 308.672C228.328 308.757 228.531 308.821 228.712 308.864C228.648 309.888 228.536 310.715 228.376 311.344C228.227 311.973 227.981 312.427 227.64 312.704C227.309 312.992 226.84 313.136 226.232 313.136C226.147 313.136 226.003 313.136 225.8 313.136C225.597 313.136 225.379 313.136 225.144 313.136C224.92 313.136 224.712 313.136 224.52 313.136C224.328 313.136 224.184 313.136 224.088 313.136C223.48 313.136 223 313.045 222.648 312.864C222.307 312.693 222.067 312.395 221.928 311.968C221.789 311.531 221.72 310.939 221.72 310.192V298.672ZM217.688 298.672H219.688V313.264H217.688V298.672ZM227 301.056L228.392 302.784C227.837 303.157 227.251 303.531 226.632 303.904C226.013 304.267 225.384 304.624 224.744 304.976C224.115 305.317 223.496 305.637 222.888 305.936C222.824 305.723 222.712 305.472 222.552 305.184C222.392 304.885 222.248 304.635 222.12 304.432C222.696 304.123 223.277 303.776 223.864 303.392C224.451 303.008 225.011 302.613 225.544 302.208C226.088 301.803 226.573 301.419 227 301.056ZM213.32 309.456C213.757 309.328 214.264 309.173 214.84 308.992C215.416 308.8 216.024 308.592 216.664 308.368C217.304 308.133 217.939 307.904 218.568 307.68L218.936 309.408C218.136 309.771 217.315 310.128 216.472 310.48C215.64 310.832 214.877 311.152 214.184 311.44L213.32 309.456Z" fill="black"/>
<path d="M213.624 350.408H228.392V352.344H213.624V350.408ZM220.008 347.864H222.024V356.2C222.024 356.744 221.949 357.165 221.8 357.464C221.661 357.763 221.395 357.987 221 358.136C220.616 358.285 220.147 358.381 219.592 358.424C219.037 358.467 218.392 358.483 217.656 358.472C217.624 358.28 217.56 358.061 217.464 357.816C217.368 357.581 217.267 357.341 217.16 357.096C217.053 356.861 216.947 356.659 216.84 356.488C217.213 356.499 217.581 356.509 217.944 356.52C218.317 356.531 218.648 356.536 218.936 356.536C219.235 356.536 219.443 356.536 219.56 356.536C219.731 356.536 219.848 356.509 219.912 356.456C219.976 356.403 220.008 356.307 220.008 356.168V347.864ZM215.304 344.392H225.384V346.28H215.304V344.392ZM224.744 344.392H225.256L225.704 344.28L227.16 345.384C226.669 345.907 226.104 346.429 225.464 346.952C224.835 347.475 224.179 347.976 223.496 348.456C222.813 348.925 222.147 349.331 221.496 349.672C221.4 349.533 221.277 349.379 221.128 349.208C220.979 349.037 220.824 348.872 220.664 348.712C220.504 348.541 220.36 348.397 220.232 348.28C220.808 347.992 221.389 347.645 221.976 347.24C222.573 346.835 223.117 346.419 223.608 345.992C224.099 345.565 224.477 345.176 224.744 344.824V344.392Z" fill="black"/>
<path d="M190.264 386.808H203.8V399.848H201.768V388.664H192.2V399.976H190.264V386.808ZM191.288 397.08H202.824V398.92H191.288V397.08ZM197.544 388.152H199.416V392.6C199.416 392.845 199.432 392.989 199.464 393.032C199.517 393.085 199.603 393.112 199.72 393.112C199.773 393.112 199.843 393.112 199.928 393.112C200.013 393.112 200.083 393.112 200.136 393.112C200.189 393.112 200.243 393.107 200.296 393.096C200.36 393.085 200.408 393.069 200.44 393.048C200.472 393.027 200.504 392.995 200.536 392.952C200.579 392.899 200.605 392.819 200.616 392.712C200.637 392.605 200.648 392.44 200.648 392.216C200.659 391.981 200.669 391.715 200.68 391.416C200.851 391.565 201.075 391.715 201.352 391.864C201.64 392.013 201.907 392.125 202.152 392.2C202.131 392.52 202.099 392.84 202.056 393.16C202.024 393.469 201.976 393.699 201.912 393.848C201.837 394.008 201.747 394.141 201.64 394.248C201.544 394.344 201.416 394.429 201.256 394.504C201.128 394.568 200.968 394.616 200.776 394.648C200.595 394.669 200.424 394.68 200.264 394.68C200.168 394.68 200.056 394.68 199.928 394.68C199.8 394.68 199.672 394.68 199.544 394.68C199.427 394.68 199.32 394.68 199.224 394.68C199.011 394.68 198.792 394.648 198.568 394.584C198.344 394.52 198.152 394.419 197.992 394.28C197.843 394.141 197.731 393.955 197.656 393.72C197.581 393.485 197.544 393.096 197.544 392.552V388.152ZM194.312 388.12H196.184C196.152 389.219 196.061 390.237 195.912 391.176C195.763 392.115 195.496 392.957 195.112 393.704C194.728 394.451 194.147 395.091 193.368 395.624C193.261 395.4 193.091 395.149 192.856 394.872C192.621 394.584 192.397 394.355 192.184 394.184C192.813 393.768 193.272 393.261 193.56 392.664C193.848 392.056 194.04 391.373 194.136 390.616C194.232 389.848 194.291 389.016 194.312 388.12ZM219 392.648L220.456 393.608C220.136 393.981 219.805 394.36 219.464 394.744C219.133 395.128 218.835 395.453 218.568 395.72L217.4 394.888C217.571 394.685 217.752 394.456 217.944 394.2C218.147 393.944 218.339 393.683 218.52 393.416C218.712 393.139 218.872 392.883 219 392.648ZM211.848 393.64L213.16 392.776C213.448 393.085 213.741 393.437 214.04 393.832C214.339 394.216 214.557 394.563 214.696 394.872L213.304 395.832C213.176 395.523 212.968 395.165 212.68 394.76C212.403 394.344 212.125 393.971 211.848 393.64ZM212.296 385.992H219.048V391.4H217.176V387.544H212.296V385.992ZM212.68 388.344H218.216V389.832H212.68V388.344ZM211.544 390.68H220.376V392.28H211.544V390.68ZM215.048 391.4H216.824V398.6C216.824 399.005 216.781 399.325 216.696 399.56C216.611 399.805 216.435 399.992 216.168 400.12C215.923 400.259 215.619 400.344 215.256 400.376C214.904 400.419 214.488 400.44 214.008 400.44C213.987 400.195 213.928 399.912 213.832 399.592C213.736 399.283 213.635 399.011 213.528 398.776C213.795 398.787 214.051 398.797 214.296 398.808C214.552 398.808 214.723 398.803 214.808 398.792C214.968 398.792 215.048 398.717 215.048 398.568V391.4ZM210.92 397.896C211.347 397.661 211.864 397.357 212.472 396.984C213.08 396.6 213.699 396.205 214.328 395.8L214.92 397.24C214.408 397.635 213.88 398.029 213.336 398.424C212.803 398.808 212.301 399.171 211.832 399.512L210.92 397.896ZM216.76 392.28C216.856 392.803 217 393.347 217.192 393.912C217.384 394.467 217.629 395.016 217.928 395.56C218.227 396.093 218.595 396.584 219.032 397.032C219.48 397.469 220.008 397.832 220.616 398.12C220.499 398.227 220.365 398.371 220.216 398.552C220.067 398.733 219.923 398.92 219.784 399.112C219.645 399.315 219.533 399.496 219.448 399.656C218.872 399.304 218.371 398.872 217.944 398.36C217.528 397.848 217.171 397.299 216.872 396.712C216.573 396.115 216.328 395.523 216.136 394.936C215.955 394.349 215.811 393.805 215.704 393.304L216.76 392.28ZM207.864 385.416L209.528 386.008C209.315 386.424 209.091 386.851 208.856 387.288C208.621 387.715 208.392 388.131 208.168 388.536C207.944 388.931 207.731 389.277 207.528 389.576L206.248 389.048C206.44 388.717 206.637 388.344 206.84 387.928C207.043 387.512 207.235 387.08 207.416 386.632C207.608 386.184 207.757 385.779 207.864 385.416ZM209.672 387.32L211.24 388.024C210.845 388.621 210.419 389.251 209.96 389.912C209.501 390.573 209.043 391.208 208.584 391.816C208.125 392.424 207.688 392.957 207.272 393.416L206.168 392.808C206.467 392.445 206.776 392.04 207.096 391.592C207.427 391.133 207.747 390.659 208.056 390.168C208.376 389.667 208.675 389.171 208.952 388.68C209.229 388.189 209.469 387.736 209.672 387.32ZM205.4 389.16L206.344 387.864C206.611 388.12 206.888 388.397 207.176 388.696C207.464 388.995 207.731 389.293 207.976 389.592C208.221 389.891 208.403 390.168 208.52 390.424L207.496 391.88C207.379 391.624 207.203 391.336 206.968 391.016C206.744 390.696 206.493 390.376 206.216 390.056C205.939 389.725 205.667 389.427 205.4 389.16ZM209.128 391.144L210.472 390.6C210.685 390.952 210.888 391.336 211.08 391.752C211.272 392.168 211.443 392.573 211.592 392.968C211.741 393.352 211.848 393.699 211.912 394.008L210.456 394.648C210.413 394.339 210.323 393.981 210.184 393.576C210.045 393.171 209.885 392.76 209.704 392.344C209.523 391.917 209.331 391.517 209.128 391.144ZM205.352 392.424C206.067 392.392 206.909 392.349 207.88 392.296C208.851 392.232 209.837 392.168 210.84 392.104L210.872 393.672C209.933 393.747 208.995 393.821 208.056 393.896C207.128 393.96 206.291 394.024 205.544 394.088L205.352 392.424ZM209.576 395.16L210.904 394.76C211.096 395.197 211.267 395.683 211.416 396.216C211.576 396.749 211.677 397.203 211.72 397.576L210.296 398.04C210.264 397.656 210.179 397.197 210.04 396.664C209.912 396.12 209.757 395.619 209.576 395.16ZM206.04 394.808L207.576 395.08C207.491 395.848 207.363 396.605 207.192 397.352C207.032 398.088 206.84 398.712 206.616 399.224C206.509 399.149 206.371 399.069 206.2 398.984C206.029 398.899 205.853 398.819 205.672 398.744C205.491 398.659 205.336 398.595 205.208 398.552C205.443 398.072 205.624 397.496 205.752 396.824C205.88 396.152 205.976 395.48 206.04 394.808ZM207.784 393.288H209.448V400.44H207.784V393.288ZM221.976 389.144H236.056V391.048H221.976V389.144ZM227.976 385.416H230.024V400.44H227.976V385.416ZM227.56 390.184L229.256 390.76C228.893 391.603 228.477 392.419 228.008 393.208C227.539 393.997 227.021 394.744 226.456 395.448C225.901 396.152 225.304 396.803 224.664 397.4C224.035 397.987 223.373 398.493 222.68 398.92C222.573 398.76 222.435 398.579 222.264 398.376C222.093 398.173 221.917 397.976 221.736 397.784C221.555 397.581 221.389 397.416 221.24 397.288C221.901 396.925 222.541 396.488 223.16 395.976C223.789 395.453 224.381 394.883 224.936 394.264C225.491 393.635 225.987 392.973 226.424 392.28C226.872 391.587 227.251 390.888 227.56 390.184ZM230.392 390.264C230.701 390.947 231.085 391.624 231.544 392.296C232.003 392.968 232.509 393.608 233.064 394.216C233.629 394.824 234.221 395.384 234.84 395.896C235.459 396.408 236.093 396.84 236.744 397.192C236.595 397.309 236.424 397.469 236.232 397.672C236.051 397.864 235.875 398.067 235.704 398.28C235.544 398.493 235.411 398.685 235.304 398.856C234.632 398.429 233.987 397.928 233.368 397.352C232.749 396.765 232.157 396.125 231.592 395.432C231.027 394.728 230.509 393.987 230.04 393.208C229.571 392.429 229.149 391.635 228.776 390.824L230.392 390.264ZM239.928 395.784H250.36V397.288H239.928V395.784ZM240.344 393.208H251.08V394.808H240.344V393.208ZM237.944 398.376H252.104V400.024H237.944V398.376ZM244.072 392.232H246.056V399.512H244.072V392.232ZM241.384 389.624V390.488H248.488V389.624H241.384ZM241.384 387.432V388.264H248.488V387.432H241.384ZM239.496 385.976H250.472V391.944H239.496V385.976ZM240.328 391.784L242.2 392.328C241.965 392.851 241.683 393.363 241.352 393.864C241.021 394.365 240.669 394.835 240.296 395.272C239.923 395.709 239.555 396.088 239.192 396.408C239.064 396.291 238.904 396.157 238.712 396.008C238.52 395.859 238.323 395.715 238.12 395.576C237.917 395.427 237.736 395.309 237.576 395.224C238.131 394.808 238.653 394.296 239.144 393.688C239.645 393.069 240.04 392.435 240.328 391.784Z" fill="black"/>
<path d="M189.904 35.936H202.112V37.904H189.904V35.936ZM191.008 41.088H200.832V43.04H191.008V41.088ZM189.008 46.512H202.96V48.464H189.008V46.512ZM205.072 35.056H211.28V36.496H205.072V35.056ZM204.816 42.416H219.168V43.92H204.816V42.416ZM205.248 37.552H210.992V38.976H205.248V37.552ZM208.752 47.504H216.544V48.944H208.752V47.504ZM204.752 40.336C205.328 40.304 205.979 40.2667 206.704 40.224C207.44 40.1813 208.213 40.1387 209.024 40.096C209.835 40.0427 210.645 39.9893 211.456 39.936L211.44 41.392C210.277 41.4773 209.115 41.5627 207.952 41.648C206.789 41.7227 205.765 41.792 204.88 41.856L204.752 40.336ZM207.296 35.616H209.104V40.608L207.296 40.832V35.616ZM214.544 34.4L216.656 34.576C216.507 34.9493 216.357 35.3013 216.208 35.632C216.059 35.9627 215.92 36.2507 215.792 36.496L214.128 36.24C214.213 35.952 214.293 35.6427 214.368 35.312C214.453 34.9813 214.512 34.6773 214.544 34.4ZM213.744 39.2V40.224H216.864V39.2H213.744ZM213.744 36.848V37.856H216.864V36.848H213.744ZM211.984 35.408H218.688V41.664H211.984V35.408ZM209.248 42.704L210.976 43.28C210.56 43.9627 210.059 44.6027 209.472 45.2C208.885 45.7973 208.251 46.336 207.568 46.816C206.885 47.296 206.192 47.7067 205.488 48.048C205.413 47.92 205.307 47.76 205.168 47.568C205.029 47.3653 204.885 47.168 204.736 46.976C204.587 46.784 204.448 46.6293 204.32 46.512C204.981 46.2453 205.627 45.92 206.256 45.536C206.885 45.152 207.456 44.72 207.968 44.24C208.491 43.76 208.917 43.248 209.248 42.704ZM207.472 44.912H217.92V49.36H215.856V46.352H209.456V49.44H207.472V44.912ZM220.976 38.144H235.056V40.048H220.976V38.144ZM226.976 34.416H229.024V49.44H226.976V34.416ZM226.56 39.184L228.256 39.76C227.893 40.6027 227.477 41.4187 227.008 42.208C226.539 42.9973 226.021 43.744 225.456 44.448C224.901 45.152 224.304 45.8027 223.664 46.4C223.035 46.9867 222.373 47.4933 221.68 47.92C221.573 47.76 221.435 47.5787 221.264 47.376C221.093 47.1733 220.917 46.976 220.736 46.784C220.555 46.5813 220.389 46.416 220.24 46.288C220.901 45.9253 221.541 45.488 222.16 44.976C222.789 44.4533 223.381 43.8827 223.936 43.264C224.491 42.6347 224.987 41.9733 225.424 41.28C225.872 40.5867 226.251 39.888 226.56 39.184ZM229.392 39.264C229.701 39.9467 230.085 40.624 230.544 41.296C231.003 41.968 231.509 42.608 232.064 43.216C232.629 43.824 233.221 44.384 233.84 44.896C234.459 45.408 235.093 45.84 235.744 46.192C235.595 46.3093 235.424 46.4693 235.232 46.672C235.051 46.864 234.875 47.0667 234.704 47.28C234.544 47.4933 234.411 47.6853 234.304 47.856C233.632 47.4293 232.987 46.928 232.368 46.352C231.749 45.7653 231.157 45.1253 230.592 44.432C230.027 43.728 229.509 42.9867 229.04 42.208C228.571 41.4293 228.149 40.6347 227.776 39.824L229.392 39.264ZM238.928 44.784H249.36V46.288H238.928V44.784ZM239.344 42.208H250.08V43.808H239.344V42.208ZM236.944 47.376H251.104V49.024H236.944V47.376ZM243.072 41.232H245.056V48.512H243.072V41.232ZM240.384 38.624V39.488H247.488V38.624H240.384ZM240.384 36.432V37.264H247.488V36.432H240.384ZM238.496 34.976H249.472V40.944H238.496V34.976ZM239.328 40.784L241.2 41.328C240.965 41.8507 240.683 42.3627 240.352 42.864C240.021 43.3653 239.669 43.8347 239.296 44.272C238.923 44.7093 238.555 45.088 238.192 45.408C238.064 45.2907 237.904 45.1573 237.712 45.008C237.52 44.8587 237.323 44.7147 237.12 44.576C236.917 44.4267 236.736 44.3093 236.576 44.224C237.131 43.808 237.653 43.296 238.144 42.688C238.645 42.0693 239.04 41.4347 239.328 40.784Z" fill="black"/>
<path d="M207.84 199.4H216.1V201.96H207.84V199.4ZM214.12 199.4H217C217.133 200.96 217.307 202.493 217.52 204C217.747 205.507 218.06 206.94 218.46 208.3C218.873 209.647 219.393 210.873 220.02 211.98C220.66 213.073 221.453 214 222.4 214.76C222.173 214.893 221.913 215.073 221.62 215.3C221.327 215.54 221.04 215.787 220.76 216.04C220.493 216.293 220.26 216.52 220.06 216.72C219.1 215.84 218.293 214.807 217.64 213.62C216.987 212.42 216.453 211.12 216.04 209.72C215.64 208.32 215.327 206.853 215.1 205.32C214.873 203.787 214.7 202.24 214.58 200.68H214.12V199.4ZM208.36 203.7L211.14 204.08C210.94 205.24 210.687 206.42 210.38 207.62C210.087 208.807 209.72 209.967 209.28 211.1C208.84 212.22 208.32 213.273 207.72 214.26C207.12 215.233 206.413 216.087 205.6 216.82C205.453 216.633 205.253 216.427 205 216.2C204.76 215.987 204.507 215.773 204.24 215.56C203.987 215.36 203.76 215.193 203.56 215.06C204.32 214.42 204.973 213.66 205.52 212.78C206.067 211.887 206.527 210.933 206.9 209.92C207.273 208.893 207.573 207.853 207.8 206.8C208.04 205.733 208.227 204.7 208.36 203.7ZM226.74 213.04H239.16V215.46H226.74V213.04ZM226.7 206.92H239.16V209.3H226.7V206.92ZM225.46 200.92H240.6V216.74H238.04V203.36H227.88V216.76H225.46V200.92ZM231.32 197.92L234.46 198.34C234.153 199.087 233.827 199.813 233.48 200.52C233.133 201.227 232.82 201.833 232.54 202.34L230.16 201.86C230.307 201.473 230.453 201.053 230.6 200.6C230.76 200.147 230.9 199.687 231.02 199.22C231.153 198.753 231.253 198.32 231.32 197.92ZM205.24 228.22H220.8V230.58H205.24V228.22ZM203.92 237.58H222.14V239.94H203.92V237.58ZM211.68 222.04H214.26V239.2H211.68V222.04ZM226.66 234.98H239.7V236.86H226.66V234.98ZM227.18 231.76H240.6V233.76H227.18V231.76ZM224.18 238.22H241.88V240.28H224.18V238.22ZM231.84 230.54H234.32V239.64H231.84V230.54ZM228.48 227.28V228.36H237.36V227.28H228.48ZM228.48 224.54V225.58H237.36V224.54H228.48ZM226.12 222.72H239.84V230.18H226.12V222.72ZM227.16 229.98L229.5 230.66C229.207 231.313 228.853 231.953 228.44 232.58C228.027 233.207 227.587 233.793 227.12 234.34C226.653 234.887 226.193 235.36 225.74 235.76C225.58 235.613 225.38 235.447 225.14 235.26C224.9 235.073 224.653 234.893 224.4 234.72C224.147 234.533 223.92 234.387 223.72 234.28C224.413 233.76 225.067 233.12 225.68 232.36C226.307 231.587 226.8 230.793 227.16 229.98Z" fill="white"/>
<defs>
<linearGradient id="paint0_linear_56_146" x1="220.75" y1="26" x2="220.75" y2="412.5" gradientUnits="userSpaceOnUse">
<stop stop-color="#FFFBA7"/>
<stop offset="1" stop-color="#FDFAEC"/>
</linearGradient>
<linearGradient id="paint1_linear_56_146" x1="221" y1="64" x2="221" y2="374" gradientUnits="userSpaceOnUse">
<stop stop-color="#FFFDDC"/>
<stop offset="1" stop-color="#E3F8FF"/>
</linearGradient>
<linearGradient id="paint2_linear_56_146" x1="221" y1="109" x2="221" y2="329" gradientUnits="userSpaceOnUse">
<stop stop-color="#C8EEFF"/>
<stop offset="1" stop-color="#E1F3FF"/>
</linearGradient>
<linearGradient id="paint3_linear_56_146" x1="221" y1="154" x2="221" y2="284" gradientUnits="userSpaceOnUse">
<stop stop-color="#58C7FF"/>
<stop offset="1" stop-color="#9FE0FF"/>
</linearGradient>
</defs>
</svg>
