<svg width="442" height="452" viewBox="0 0 442 452" fill="none" xmlns="http://www.w3.org/2000/svg">
<rect width="442" height="452" fill="white"/>
<path d="M272.5 26H169L27.5 166.5V270.5L169 412.5H272.5L414 270.5V166.5L272.5 26Z" fill="url(#paint0_linear_56_111)" stroke="#FFFDE8"/>
<path d="M262.507 64H179.493L66 176.691V260.106L179.493 374H262.507L376 260.106V176.691L262.507 64Z" fill="url(#paint1_linear_56_111)" stroke="#FEFFEA"/>
<path d="M250.457 109H191.543L111 188.974V248.172L191.543 329H250.457L331 248.172V188.974L250.457 109Z" fill="url(#paint2_linear_56_111)" stroke="#DDF4FF"/>
<path d="M414.37 270.528L28 167" stroke="#888686"/>
<path d="M272.528 26L186.777 346.024L169 412.37" stroke="#888686" stroke-opacity="0.82"/>
<path d="M169 26L272.528 412.37" stroke="#888686"/>
<path d="M414.37 167L28 270.528" stroke="#888886"/>
<path d="M238.406 154H203.594L156 201.257V236.238L203.594 284H238.406L286 236.238V201.257L238.406 154Z" fill="url(#paint3_linear_56_111)" stroke="#B9E7FD"/>
<path d="M126.928 212.728H141.136V214.52H126.928V212.728ZM132.96 211.416H134.96V226.44H132.96V211.416ZM132.464 220.552L134.096 221.224C133.723 221.757 133.296 222.269 132.816 222.76C132.347 223.251 131.835 223.715 131.28 224.152C130.736 224.579 130.165 224.968 129.568 225.32C128.981 225.683 128.389 225.992 127.792 226.248C127.685 226.088 127.557 225.907 127.408 225.704C127.259 225.501 127.099 225.304 126.928 225.112C126.757 224.92 126.603 224.76 126.464 224.632C127.051 224.429 127.632 224.184 128.208 223.896C128.784 223.597 129.339 223.272 129.872 222.92C130.405 222.557 130.891 222.179 131.328 221.784C131.776 221.379 132.155 220.968 132.464 220.552ZM135.504 220.616C135.824 221.021 136.208 221.421 136.656 221.816C137.115 222.2 137.611 222.573 138.144 222.936C138.688 223.288 139.253 223.608 139.84 223.896C140.427 224.173 141.013 224.413 141.6 224.616C141.451 224.744 141.285 224.904 141.104 225.096C140.933 225.299 140.768 225.501 140.608 225.704C140.459 225.917 140.331 226.109 140.224 226.28C139.627 226.035 139.035 225.731 138.448 225.368C137.861 225.016 137.291 224.627 136.736 224.2C136.192 223.763 135.68 223.299 135.2 222.808C134.731 222.317 134.309 221.811 133.936 221.288L135.504 220.616ZM130.144 219.176V220.152H137.904V219.176H130.144ZM130.144 216.872V217.832H137.904V216.872H130.144ZM128.272 215.432H139.872V221.592H128.272V215.432Z" fill="black"/>
<path d="M82.744 213.856L84.552 214.432V222.752H82.744V213.856ZM93.896 213.952H95.752V222.624C95.752 223.051 95.704 223.413 95.608 223.712C95.512 224 95.3253 224.224 95.048 224.384C94.7707 224.544 94.44 224.645 94.056 224.688C93.6827 224.731 93.2453 224.752 92.744 224.752C92.7227 224.571 92.6747 224.363 92.6 224.128C92.5253 223.893 92.44 223.659 92.344 223.424C92.2587 223.189 92.168 222.987 92.072 222.816C92.4027 222.827 92.7173 222.837 93.016 222.848C93.3147 222.848 93.5173 222.848 93.624 222.848C93.7307 222.848 93.8 222.827 93.832 222.784C93.8747 222.741 93.896 222.672 93.896 222.576V213.952ZM81.496 222.432C82.1787 222.293 83 222.112 83.96 221.888C84.92 221.653 85.896 221.419 86.888 221.184L87.096 222.8C86.2107 223.045 85.3147 223.285 84.408 223.52C83.5013 223.755 82.6747 223.973 81.928 224.176L81.496 222.432ZM86.648 215.76H88.44V220.048C88.44 220.763 88.3813 221.472 88.264 222.176C88.1573 222.869 87.944 223.541 87.624 224.192C87.304 224.843 86.8293 225.445 86.2 226C85.5707 226.555 84.7333 227.04 83.688 227.456C83.6133 227.317 83.5067 227.152 83.368 226.96C83.24 226.779 83.096 226.603 82.936 226.432C82.7867 226.261 82.648 226.123 82.52 226.016C83.4373 225.653 84.168 225.248 84.712 224.8C85.2667 224.341 85.6827 223.856 85.96 223.344C86.2373 222.821 86.4187 222.283 86.504 221.728C86.6 221.163 86.648 220.592 86.648 220.016V215.76ZM89.704 213.952H94.872V215.696H91.512V227.44H89.704V213.952ZM87.256 212.432L88.968 213.648C88.4667 213.936 87.9387 214.224 87.384 214.512C86.8293 214.789 86.28 215.051 85.736 215.296C85.2027 215.541 84.696 215.749 84.216 215.92L82.984 214.864C83.432 214.661 83.9173 214.427 84.44 214.16C84.9627 213.883 85.4693 213.595 85.96 213.296C86.4613 212.987 86.8933 212.699 87.256 212.432Z" fill="black"/>
<path d="M36.656 188.528L51.168 186.32L51.488 188.304L36.976 190.464L36.656 188.528ZM41.184 182.736H43.28V193.776C43.28 194.128 43.3067 194.395 43.36 194.576C43.424 194.747 43.5413 194.864 43.712 194.928C43.8827 194.981 44.144 195.008 44.496 195.008C44.6027 195.008 44.7627 195.008 44.976 195.008C45.1893 195.008 45.4293 195.008 45.696 195.008C45.9627 195.008 46.2293 195.008 46.496 195.008C46.7627 195.008 47.0027 195.008 47.216 195.008C47.44 195.008 47.6053 195.008 47.712 195.008C48.0747 195.008 48.3467 194.923 48.528 194.752C48.7093 194.571 48.8427 194.245 48.928 193.776C49.0133 193.296 49.088 192.597 49.152 191.68C49.312 191.808 49.5093 191.936 49.744 192.064C49.9893 192.181 50.2293 192.288 50.464 192.384C50.7093 192.48 50.9227 192.549 51.104 192.592C51.0187 193.659 50.8747 194.512 50.672 195.152C50.4693 195.781 50.1493 196.235 49.712 196.512C49.2747 196.789 48.656 196.928 47.856 196.928C47.7493 196.928 47.5733 196.928 47.328 196.928C47.0933 196.928 46.8267 196.928 46.528 196.928C46.24 196.928 45.9467 196.928 45.648 196.928C45.3493 196.928 45.0827 196.928 44.848 196.928C44.6133 196.928 44.4427 196.928 44.336 196.928C43.5253 196.928 42.8907 196.832 42.432 196.64C41.9733 196.459 41.648 196.139 41.456 195.68C41.2747 195.221 41.184 194.576 41.184 193.744V182.736ZM47.536 209.816L49.232 209.064C49.5413 209.469 49.856 209.917 50.176 210.408C50.496 210.899 50.7893 211.379 51.056 211.848C51.3227 212.317 51.5307 212.744 51.68 213.128L49.84 213.992C49.7013 213.619 49.5093 213.192 49.264 212.712C49.0187 212.232 48.7413 211.736 48.432 211.224C48.1333 210.712 47.8347 210.243 47.536 209.816ZM42.976 201.432H44.944V207.224H42.976V201.432ZM36.832 206.552H51.264V208.392H36.832V206.552ZM38.432 203.08H49.904V204.904H38.432V203.08ZM44.928 207.64H46.944V214.28C46.944 214.76 46.8907 215.139 46.784 215.416C46.6773 215.704 46.464 215.923 46.144 216.072C45.8347 216.221 45.4613 216.317 45.024 216.36C44.5973 216.403 44.0907 216.424 43.504 216.424C43.472 216.136 43.392 215.805 43.264 215.432C43.136 215.069 43.008 214.755 42.88 214.488C43.232 214.499 43.584 214.509 43.936 214.52C44.288 214.52 44.5173 214.515 44.624 214.504C44.7413 214.504 44.8213 214.488 44.864 214.456C44.9067 214.413 44.928 214.344 44.928 214.248V207.64ZM38.608 209.192L40.56 209.688C40.3573 210.189 40.112 210.701 39.824 211.224C39.536 211.736 39.2267 212.227 38.896 212.696C38.5653 213.155 38.2187 213.56 37.856 213.912C37.664 213.741 37.4133 213.555 37.104 213.352C36.7947 213.139 36.5333 212.968 36.32 212.84C36.6613 212.531 36.976 212.173 37.264 211.768C37.5627 211.352 37.8293 210.92 38.064 210.472C38.2987 210.024 38.48 209.597 38.608 209.192ZM41.472 207.288H43.424V209.128C43.424 209.693 43.3867 210.301 43.312 210.952C43.2373 211.592 43.0827 212.243 42.848 212.904C42.6133 213.555 42.2613 214.195 41.792 214.824C41.3333 215.443 40.7147 216.013 39.936 216.536C39.84 216.387 39.7067 216.221 39.536 216.04C39.3653 215.859 39.184 215.683 38.992 215.512C38.8107 215.341 38.64 215.203 38.48 215.096C39.152 214.659 39.6853 214.184 40.08 213.672C40.4853 213.16 40.784 212.637 40.976 212.104C41.1787 211.571 41.312 211.048 41.376 210.536C41.44 210.013 41.472 209.528 41.472 209.08V207.288ZM43.936 222.24C43.4987 222.848 42.944 223.477 42.272 224.128C41.6107 224.779 40.8747 225.403 40.064 226C39.264 226.597 38.4267 227.131 37.552 227.6C37.4667 227.44 37.3547 227.264 37.216 227.072C37.088 226.88 36.944 226.693 36.784 226.512C36.6347 226.331 36.4907 226.171 36.352 226.032C37.2693 225.595 38.1493 225.056 38.992 224.416C39.8347 223.765 40.5867 223.088 41.248 222.384C41.92 221.68 42.4533 221.003 42.848 220.352H44.848C45.2853 220.96 45.7653 221.541 46.288 222.096C46.8107 222.651 47.3707 223.163 47.968 223.632C48.5653 224.101 49.1787 224.523 49.808 224.896C50.4373 225.269 51.072 225.584 51.712 225.84C51.4667 226.085 51.2373 226.363 51.024 226.672C50.8107 226.981 50.6133 227.28 50.432 227.568C49.824 227.248 49.2053 226.88 48.576 226.464C47.9573 226.048 47.36 225.605 46.784 225.136C46.208 224.656 45.6747 224.171 45.184 223.68C44.6933 223.189 44.2773 222.709 43.936 222.24ZM39.936 225.2H47.984V226.88H39.936V225.2ZM38.016 228.464H49.872V230.128H38.016V228.464ZM37.216 233.328H50.816V234.976H37.216V233.328ZM42.896 225.872H44.928V234.16H42.896V225.872ZM39.024 230.736L40.56 230.096C40.7627 230.363 40.96 230.656 41.152 230.976C41.3547 231.296 41.536 231.611 41.696 231.92C41.856 232.229 41.9733 232.507 42.048 232.752L40.4 233.488C40.336 233.243 40.2293 232.96 40.08 232.64C39.9307 232.309 39.7653 231.979 39.584 231.648C39.4027 231.317 39.216 231.013 39.024 230.736ZM47.152 230.112L48.992 230.784C48.672 231.275 48.3413 231.765 48 232.256C47.6587 232.736 47.344 233.147 47.056 233.488L45.616 232.88C45.7973 232.624 45.984 232.341 46.176 232.032C46.368 231.712 46.5493 231.387 46.72 231.056C46.8907 230.715 47.0347 230.4 47.152 230.112ZM38.928 249.784H49.36V251.288H38.928V249.784ZM39.344 247.208H50.08V248.808H39.344V247.208ZM36.944 252.376H51.104V254.024H36.944V252.376ZM43.072 246.232H45.056V253.512H43.072V246.232ZM40.384 243.624V244.488H47.488V243.624H40.384ZM40.384 241.432V242.264H47.488V241.432H40.384ZM38.496 239.976H49.472V245.944H38.496V239.976ZM39.328 245.784L41.2 246.328C40.9653 246.851 40.6827 247.363 40.352 247.864C40.0213 248.365 39.6693 248.835 39.296 249.272C38.9227 249.709 38.5547 250.088 38.192 250.408C38.064 250.291 37.904 250.157 37.712 250.008C37.52 249.859 37.3227 249.715 37.12 249.576C36.9173 249.427 36.736 249.309 36.576 249.224C37.1307 248.808 37.6533 248.296 38.144 247.688C38.6453 247.069 39.04 246.435 39.328 245.784Z" fill="black"/>
<path d="M392.208 184.608H403.824V186.72H392.208V184.608ZM390.864 193.904H405.152V196.096H390.864V193.904ZM394.368 205.672V206.616H401.696V205.672H394.368ZM394.368 203.368V204.312H401.696V203.368H394.368ZM392.528 201.928H403.632V208.072H392.528V201.928ZM392.112 208.808H404.08V210.312H392.112V208.808ZM390.784 211.128H405.28V212.728H390.784V211.128ZM397.008 202.584H398.912V212.136H397.008V202.584ZM395.28 213.624L397.04 213.48C397.125 213.896 397.2 214.355 397.264 214.856C397.328 215.357 397.36 215.779 397.36 216.12L395.488 216.344C395.488 215.992 395.472 215.56 395.44 215.048C395.408 214.547 395.355 214.072 395.28 213.624ZM398.432 213.688L400.224 213.336C400.395 213.741 400.56 214.189 400.72 214.68C400.88 215.16 400.992 215.576 401.056 215.928L399.152 216.344C399.109 216.003 399.019 215.581 398.88 215.08C398.741 214.579 398.592 214.115 398.432 213.688ZM401.584 213.592L403.392 213C403.637 213.267 403.888 213.571 404.144 213.912C404.411 214.243 404.656 214.573 404.88 214.904C405.104 215.224 405.28 215.523 405.408 215.8L403.472 216.472C403.365 216.227 403.205 215.933 402.992 215.592C402.789 215.261 402.56 214.92 402.304 214.568C402.059 214.216 401.819 213.891 401.584 213.592ZM392.4 213.016L394.256 213.464C394.075 214.019 393.829 214.568 393.52 215.112C393.211 215.667 392.864 216.125 392.48 216.488L390.656 215.688C391.019 215.4 391.355 215.011 391.664 214.52C391.973 214.029 392.219 213.528 392.4 213.016ZM391.792 225.376H404.24V227.264H391.792V225.376ZM390.736 232.864H405.312V234.752H390.736V232.864ZM396.944 220.432H399.008V234.16H396.944V220.432ZM392.928 249.784H403.36V251.288H392.928V249.784ZM393.344 247.208H404.08V248.808H393.344V247.208ZM390.944 252.376H405.104V254.024H390.944V252.376ZM397.072 246.232H399.056V253.512H397.072V246.232ZM394.384 243.624V244.488H401.488V243.624H394.384ZM394.384 241.432V242.264H401.488V241.432H394.384ZM392.496 239.976H403.472V245.944H392.496V239.976ZM393.328 245.784L395.2 246.328C394.965 246.851 394.683 247.363 394.352 247.864C394.021 248.365 393.669 248.835 393.296 249.272C392.923 249.709 392.555 250.088 392.192 250.408C392.064 250.291 391.904 250.157 391.712 250.008C391.52 249.859 391.323 249.715 391.12 249.576C390.917 249.427 390.736 249.309 390.576 249.224C391.131 248.808 391.653 248.296 392.144 247.688C392.645 247.069 393.04 246.435 393.328 245.784Z" fill="black"/>
<path d="M149.959 169.319L160.006 159.273L161.273 160.54L151.226 170.586L149.959 169.319ZM157.313 171.695L162.37 166.638L163.422 167.69L158.365 172.747L157.313 171.695ZM158.874 173.732L164.418 168.188L165.504 169.274L159.96 174.818L158.874 173.732ZM159.689 170.36L160.967 169.082L164.95 173.064L163.671 174.343L159.689 170.36ZM152.505 171.005L160.696 162.814L161.94 164.058L155.107 170.892L161.408 177.194L160.051 178.551L152.505 171.005ZM160.311 163.199L161.703 161.807L167.891 167.996C168.216 168.32 168.419 168.614 168.502 168.878C168.593 169.15 168.57 169.444 168.434 169.76C168.299 170.092 168.068 170.436 167.744 170.79C167.435 171.145 167.05 171.552 166.59 172.012C166.386 171.869 166.13 171.733 165.821 171.605C165.519 171.469 165.244 171.367 164.995 171.299C165.191 171.118 165.391 170.933 165.595 170.745C165.798 170.556 165.979 170.383 166.138 170.224C166.296 170.051 166.402 169.938 166.454 169.885C166.56 169.779 166.617 169.693 166.624 169.625C166.624 169.549 166.583 169.47 166.5 169.387L160.311 163.199ZM156.544 170.066L157.302 168.674C157.618 168.72 157.95 168.803 158.297 168.923C158.652 169.036 158.946 169.15 159.18 169.263L158.422 170.767C158.195 170.632 157.905 170.5 157.55 170.371C157.196 170.243 156.86 170.141 156.544 170.066ZM159.44 166.581L160.899 165.755C161.02 166.178 161.133 166.593 161.239 167C161.344 167.392 161.424 167.75 161.476 168.075L160.221 168.742C160.168 168.524 160.096 168.286 160.006 168.03C159.923 167.766 159.832 167.509 159.734 167.26C159.636 167.011 159.538 166.785 159.44 166.581ZM153.398 164.16L154.88 162.678L158.738 166.536L157.256 168.018L153.398 164.16ZM161.295 157.983L171.342 147.936L172.609 149.203L162.562 159.25L161.295 157.983ZM164.633 152.79L166.047 151.376L176.671 161.999L175.256 163.414L164.633 152.79ZM170.742 159.601L172.371 158.922C172.485 159.563 172.545 160.227 172.552 160.913C172.568 161.592 172.534 162.282 172.451 162.984C172.368 163.67 172.239 164.349 172.066 165.02C171.908 165.691 171.708 166.329 171.466 166.932C171.278 166.894 171.059 166.857 170.81 166.819C170.561 166.781 170.309 166.755 170.052 166.74C169.796 166.725 169.573 166.721 169.385 166.728C169.656 166.17 169.894 165.586 170.097 164.975C170.293 164.356 170.456 163.734 170.584 163.108C170.705 162.474 170.78 161.864 170.81 161.275C170.84 160.672 170.818 160.114 170.742 159.601ZM172.937 157.496C173.45 157.557 174.004 157.568 174.6 157.53C175.196 157.478 175.811 157.391 176.444 157.27C177.078 157.134 177.704 156.961 178.322 156.75C178.933 156.531 179.518 156.286 180.076 156.014C180.061 156.21 180.057 156.44 180.065 156.704C180.087 156.968 180.114 157.229 180.144 157.485C180.189 157.742 180.234 157.968 180.28 158.164C179.684 158.413 179.05 158.616 178.379 158.775C177.715 158.941 177.036 159.069 176.343 159.16C175.649 159.235 174.959 159.269 174.272 159.261C173.593 159.246 172.937 159.186 172.304 159.08L172.937 157.496ZM168.129 160.268L168.819 160.958L174.306 155.471L173.616 154.781L168.129 160.268ZM166.5 158.639L167.178 159.318L172.666 153.831L171.987 153.152L166.5 158.639ZM164.158 158.945L172.36 150.742L176.716 155.098L168.513 163.3L164.158 158.945Z" fill="black"/>
<path d="M113.785 145.701L122.248 137.238L123.56 138.551L115.098 147.013L113.785 145.701ZM117.847 149.876L126.626 141.096L127.86 142.329L119.08 151.109L117.847 149.876ZM117.179 146.47L123.345 140.304L124.567 141.526L118.401 147.692L117.179 146.47ZM113.005 146.482L114.362 145.124L117.802 148.563C118.284 149.046 118.797 149.589 119.34 150.192C119.883 150.796 120.415 151.441 120.936 152.127C121.456 152.813 121.916 153.522 122.316 154.254C122.723 154.978 123.025 155.702 123.221 156.426C123.063 156.434 122.863 156.468 122.621 156.528C122.388 156.581 122.15 156.645 121.909 156.72C121.675 156.788 121.479 156.864 121.32 156.947C121.147 156.275 120.879 155.616 120.517 154.967C120.155 154.318 119.74 153.692 119.273 153.089C118.805 152.485 118.326 151.916 117.836 151.38C117.345 150.845 116.878 150.355 116.433 149.91L113.005 146.482ZM119.827 148.846L121.151 147.522L125.427 151.799L124.103 153.123L119.827 148.846ZM122.814 154.005C123.146 153.583 123.515 153.093 123.922 152.534C124.33 151.961 124.76 151.358 125.212 150.724C125.672 150.083 126.129 149.446 126.581 148.812L127.848 149.921C127.449 150.517 127.037 151.124 126.615 151.742C126.193 152.361 125.782 152.953 125.382 153.519C124.997 154.084 124.639 154.609 124.307 155.091L122.814 154.005ZM123.108 145.565C124.036 146.131 124.96 146.527 125.88 146.753C126.8 146.979 127.731 147.006 128.674 146.832C129.625 146.651 130.605 146.236 131.616 145.588C131.616 145.784 131.631 146.01 131.661 146.267C131.699 146.516 131.744 146.764 131.797 147.013C131.857 147.27 131.921 147.492 131.989 147.681C130.835 148.337 129.723 148.733 128.652 148.869C127.581 148.989 126.51 148.884 125.438 148.552C124.367 148.22 123.247 147.703 122.078 147.002L123.108 145.565ZM126.457 143.755L128.425 143.348C128.342 143.823 128.241 144.317 128.12 144.83C128.007 145.335 127.882 145.829 127.746 146.312C127.611 146.78 127.479 147.213 127.35 147.613L125.767 147.839C125.88 147.439 125.982 146.998 126.072 146.516C126.17 146.025 126.253 145.543 126.321 145.067C126.389 144.577 126.434 144.14 126.457 143.755ZM138.987 145.072L126.146 132.231L127.232 131.145L140.073 143.986L138.987 145.072ZM137.375 129.488L144.084 122.779L145.419 124.114L138.71 130.823L137.375 129.488ZM133.788 125.947L141.233 118.503L146.754 124.024L145.351 125.427L141.165 121.24L135.123 127.282L133.788 125.947ZM132.974 126.762L134.388 125.347L141.674 132.633C141.968 132.927 142.221 133.12 142.432 133.21C142.636 133.293 142.858 133.259 143.099 133.109C143.348 132.95 143.68 132.664 144.095 132.249C144.216 132.128 144.404 131.939 144.661 131.683C144.917 131.427 145.204 131.14 145.521 130.823C145.845 130.499 146.169 130.174 146.494 129.85C146.818 129.526 147.108 129.235 147.365 128.979C147.629 128.715 147.821 128.523 147.942 128.402C148.319 128.025 148.56 127.701 148.666 127.429C148.771 127.142 148.749 126.833 148.598 126.501C148.44 126.162 148.149 125.721 147.727 125.178C147.923 125.132 148.138 125.068 148.372 124.985C148.598 124.895 148.824 124.789 149.05 124.668C149.277 124.548 149.469 124.438 149.627 124.34C150.035 124.868 150.348 125.355 150.566 125.8C150.778 126.237 150.88 126.656 150.872 127.056C150.872 127.448 150.748 127.851 150.499 128.266C150.265 128.681 149.903 129.134 149.412 129.624C149.322 129.714 149.171 129.865 148.96 130.076C148.756 130.28 148.519 130.518 148.247 130.789C147.983 131.053 147.708 131.328 147.421 131.615C147.135 131.902 146.859 132.177 146.595 132.441C146.331 132.705 146.098 132.939 145.894 133.142C145.698 133.339 145.555 133.482 145.464 133.572C144.913 134.123 144.423 134.545 143.993 134.84C143.563 135.134 143.152 135.303 142.76 135.349C142.368 135.394 141.972 135.307 141.572 135.088C141.165 134.862 140.724 134.511 140.248 134.036L132.974 126.762Z" fill="black"/>
<path d="M81.6834 122.301L86.356 117.628L87.8041 119.076L83.1316 123.749L81.6834 122.301ZM85.2359 118.748L86.8651 117.119C87.823 117.926 88.7884 118.695 89.7614 119.427C90.7419 120.151 91.73 120.785 92.7256 121.328C93.7212 121.856 94.7093 122.255 95.6898 122.527C96.6703 122.783 97.6433 122.859 98.6087 122.753C98.5559 122.957 98.5107 123.206 98.473 123.5C98.4428 123.802 98.4202 124.103 98.4051 124.405C98.3975 124.699 98.3938 124.959 98.3938 125.186C97.3529 125.231 96.312 125.103 95.2712 124.801C94.2228 124.492 93.1857 124.058 92.1599 123.5C91.1417 122.934 90.1348 122.282 89.1392 121.543C88.1435 120.803 87.1706 120.027 86.2202 119.212L85.96 119.472L85.2359 118.748ZM84.41 124.439L86.1976 123.081C86.7406 123.851 87.2648 124.661 87.7702 125.514C88.2755 126.351 88.7243 127.215 89.1165 128.105C89.5012 128.987 89.8029 129.877 90.0216 130.775C90.2328 131.665 90.3158 132.547 90.2705 133.422C90.082 133.399 89.8519 133.396 89.5804 133.411C89.3239 133.426 89.06 133.448 88.7884 133.479C88.532 133.509 88.3095 133.543 88.1209 133.58C88.1888 132.788 88.1285 131.989 87.9399 131.182C87.7438 130.367 87.4647 129.568 87.1027 128.783C86.7331 127.991 86.3145 127.233 85.8469 126.509C85.3792 125.77 84.9003 125.08 84.41 124.439ZM100.091 119.325L107.117 112.299L108.486 113.668L101.46 120.694L100.091 119.325ZM96.6062 115.886L103.655 108.837L105.001 110.184L97.9525 117.232L96.6062 115.886ZM92.5106 113.193L101.075 104.629L110.024 113.578L108.576 115.026L101.007 107.457L95.2599 113.204L102.84 120.785L101.471 122.154L92.5106 113.193ZM94.1285 108.181L96.1423 106.643C96.3912 107.238 96.6175 107.834 96.8212 108.43C97.0248 109.026 97.1907 109.546 97.319 109.991L95.7011 111.066C95.5653 110.764 95.4107 110.444 95.2372 110.104C95.0713 109.758 94.8903 109.418 94.6942 109.086C94.5056 108.747 94.3171 108.445 94.1285 108.181ZM105.567 103.871L114.369 95.0686L115.704 96.4036L106.902 105.206L105.567 103.871ZM110.115 109.912L120.422 99.6054L121.757 100.94L111.45 111.247L110.115 109.912ZM105.714 96.7317L107.173 95.2722L116.88 104.979L115.421 106.439L105.714 96.7317ZM121.508 95.5777L128.884 88.2012L129.948 89.2646L122.571 96.6412L121.508 95.5777ZM119.98 93.462L127.572 85.8705L128.703 87.0019L121.112 94.5934L119.98 93.462ZM121.938 98.8134L131.95 88.8008L133.116 89.9661L123.103 99.9787L121.938 98.8134ZM121.926 90.1358L123.329 88.7329L128.477 93.8806L127.074 95.2835L121.926 90.1358ZM118.181 90.1924L118.792 90.8033L123.816 85.78L123.205 85.1691L118.181 90.1924ZM116.631 88.6424L117.22 89.2307L122.243 84.2074L121.655 83.6191L116.631 88.6424ZM114.267 88.9479L122.028 81.1867L126.248 85.4067L118.487 93.1679L114.267 88.9479ZM118.962 92.4664L120.67 91.5274C120.874 92.0629 121.036 92.6248 121.157 93.2131C121.278 93.8014 121.361 94.3822 121.406 94.9554C121.451 95.5287 121.459 96.0566 121.428 96.5394C121.255 96.5469 121.048 96.5658 120.806 96.5959C120.565 96.6261 120.324 96.6638 120.082 96.7091C119.833 96.7468 119.622 96.792 119.449 96.8448C119.547 96.1585 119.554 95.4268 119.471 94.65C119.388 93.858 119.219 93.1302 118.962 92.4664Z" fill="black"/>
<path d="M270.894 146.959L280.94 157.006L279.673 158.273L269.627 148.226L270.894 146.959ZM268.518 154.313L273.575 159.37L272.523 160.422L267.466 155.365L268.518 154.313ZM266.481 155.874L272.025 161.418L270.939 162.504L265.395 156.96L266.481 155.874ZM269.853 156.689L271.131 157.967L267.149 161.95L265.87 160.671L269.853 156.689ZM269.208 149.505L277.399 157.696L276.155 158.94L269.321 152.107L263.019 158.408L261.662 157.051L269.208 149.505ZM277.014 157.311L278.406 158.703L272.217 164.891C271.893 165.216 271.599 165.419 271.335 165.502C271.063 165.593 270.769 165.57 270.453 165.434C270.121 165.299 269.777 165.068 269.423 164.744C269.068 164.435 268.661 164.05 268.201 163.59C268.344 163.386 268.48 163.13 268.608 162.821C268.744 162.519 268.846 162.244 268.914 161.995C269.095 162.191 269.28 162.391 269.468 162.595C269.657 162.798 269.83 162.979 269.989 163.138C270.162 163.296 270.275 163.402 270.328 163.454C270.434 163.56 270.52 163.617 270.588 163.624C270.664 163.624 270.743 163.583 270.826 163.5L277.014 157.311ZM270.147 153.544L271.539 154.302C271.493 154.618 271.41 154.95 271.29 155.297C271.177 155.652 271.063 155.946 270.95 156.18L269.446 155.422C269.581 155.195 269.713 154.905 269.842 154.55C269.97 154.196 270.072 153.86 270.147 153.544ZM273.632 156.44L274.458 157.899C274.035 158.02 273.62 158.133 273.213 158.239C272.821 158.344 272.463 158.424 272.138 158.476L271.471 157.221C271.689 157.168 271.927 157.096 272.184 157.006C272.447 156.923 272.704 156.832 272.953 156.734C273.202 156.636 273.428 156.538 273.632 156.44ZM276.053 150.398L277.535 151.88L273.677 155.738L272.195 154.256L276.053 150.398ZM275.702 167.267L283.373 174.938L282.117 176.194L274.446 168.523L275.702 167.267ZM280.363 160.864L289.697 170.197L282.287 177.608L280.906 176.228L287.061 170.073L280.431 163.443L274.254 169.62L272.93 168.297L280.363 160.864ZM284.957 166.498L286.258 167.799L284.221 169.835C284.078 169.979 283.999 170.08 283.984 170.141C283.984 170.201 284.04 170.288 284.153 170.401C284.176 170.424 284.225 170.473 284.3 170.548C284.383 170.631 284.463 170.71 284.538 170.786C284.621 170.869 284.681 170.929 284.719 170.967C284.787 171.035 284.847 171.072 284.9 171.08C284.968 171.087 285.051 171.057 285.149 170.989C285.255 170.929 285.398 170.816 285.579 170.65C285.594 170.786 285.632 170.952 285.692 171.148C285.768 171.344 285.85 171.54 285.941 171.736C286.047 171.932 286.148 172.102 286.246 172.245C285.847 172.539 285.504 172.732 285.217 172.822C284.93 172.913 284.666 172.913 284.425 172.822C284.191 172.739 283.946 172.569 283.69 172.313C283.629 172.253 283.558 172.181 283.475 172.098C283.392 172.015 283.301 171.925 283.203 171.827C283.113 171.736 283.026 171.649 282.943 171.566C282.86 171.483 282.792 171.415 282.739 171.363C282.377 171.001 282.143 170.676 282.038 170.39C281.94 170.111 281.966 169.828 282.117 169.541C282.268 169.255 282.532 168.923 282.909 168.546L284.957 166.498ZM282.445 157.877L292.616 168.048L291.304 169.36L281.133 159.189L282.445 157.877ZM284.538 161.961L285.873 163.296L283.61 165.559L282.275 164.224L284.538 161.961ZM287.016 164.439L288.385 165.808L286.122 168.07L284.753 166.701L287.016 164.439ZM282.807 163.828L284.074 165.095L282.954 166.215C282.577 166.592 282.14 166.931 281.642 167.233C281.144 167.535 280.578 167.731 279.945 167.821C279.311 167.912 278.598 167.833 277.806 167.584C277.829 167.441 277.837 167.252 277.829 167.018C277.822 166.784 277.803 166.547 277.772 166.305C277.75 166.072 277.72 165.883 277.682 165.74C278.399 165.974 279.006 166.068 279.503 166.023C280.009 165.985 280.439 165.857 280.793 165.638C281.148 165.419 281.457 165.178 281.721 164.914L282.807 163.828Z" fill="black"/>
<path d="M291.07 119.263L301.207 129.4L299.861 130.746L289.724 120.609L291.07 119.263ZM294.713 117.317L303.176 125.78L301.83 127.126L293.367 118.663L294.713 117.317ZM299.872 119.082L301.32 120.53L290.697 131.154L289.249 129.706L299.872 119.082ZM294.362 124.117L295.053 125.78C294.336 125.953 293.589 126.081 292.812 126.164C292.043 126.24 291.266 126.262 290.482 126.232C289.705 126.21 288.939 126.138 288.185 126.017C287.446 125.897 286.737 125.731 286.058 125.52C286.103 125.323 286.137 125.093 286.16 124.829C286.19 124.573 286.209 124.313 286.217 124.049C286.239 123.785 286.243 123.547 286.228 123.336C286.854 123.585 287.514 123.792 288.208 123.958C288.917 124.124 289.63 124.241 290.346 124.309C291.063 124.377 291.76 124.396 292.439 124.366C293.126 124.328 293.767 124.245 294.362 124.117ZM296.286 126.063C296.15 126.651 296.063 127.288 296.026 127.975C296.003 128.661 296.026 129.362 296.093 130.079C296.161 130.795 296.271 131.501 296.422 132.195C296.588 132.889 296.791 133.545 297.033 134.163C296.844 134.141 296.614 134.137 296.342 134.152C296.086 134.167 295.826 134.193 295.562 134.231C295.298 134.269 295.068 134.31 294.872 134.356C294.668 133.684 294.51 132.975 294.396 132.229C294.283 131.482 294.215 130.72 294.193 129.943C294.178 129.159 294.208 128.382 294.283 127.613C294.366 126.851 294.494 126.112 294.668 125.395L296.286 126.063ZM297.141 141.987L309.982 129.146L311.068 130.232L298.227 143.073L297.141 141.987ZM314.331 136.551L323.507 145.726L316.775 152.458L315.361 151.044L320.792 145.613L314.388 139.209L308.901 144.697L307.543 143.339L314.331 136.551ZM312.781 139.888L320.316 147.423L319.061 148.679L311.526 141.144L312.781 139.888ZM310.326 142.321L317.895 149.89L316.594 151.191L309.025 143.622L310.326 142.321ZM319.66 138.847L321.086 140.273L310.462 150.896L309.037 149.471L319.66 138.847Z" fill="black"/>
<path d="M263.713 283.073L267.073 279.713L268.419 281.059L265.059 284.419L263.713 283.073ZM266.745 275.04L268.159 273.626L276.316 281.783C276.633 282.1 276.863 282.277 277.006 282.315C277.142 282.345 277.315 282.255 277.527 282.043C277.572 281.998 277.647 281.923 277.753 281.817C277.859 281.711 277.975 281.595 278.104 281.466C278.232 281.338 278.349 281.221 278.454 281.116C278.56 281.01 278.639 280.931 278.692 280.878C278.843 280.727 278.892 280.55 278.839 280.346C278.786 280.143 278.609 279.86 278.307 279.498C278.006 279.121 277.564 278.619 276.984 277.993C277.18 277.963 277.395 277.914 277.628 277.846C277.87 277.771 278.104 277.688 278.33 277.597C278.549 277.499 278.737 277.401 278.896 277.303C279.574 278.072 280.08 278.736 280.412 279.294C280.751 279.845 280.898 280.339 280.853 280.776C280.823 281.214 280.593 281.647 280.163 282.077C280.102 282.138 280.001 282.239 279.857 282.383C279.714 282.526 279.559 282.681 279.393 282.847C279.235 283.005 279.088 283.152 278.952 283.288C278.816 283.424 278.715 283.525 278.647 283.593C278.217 284.023 277.813 284.299 277.436 284.419C277.074 284.54 276.693 284.498 276.293 284.295C275.886 284.084 275.419 283.714 274.891 283.186L266.745 275.04ZM263.894 277.891L265.308 276.477L275.626 286.795L274.212 288.209L263.894 277.891ZM272.164 272.992L274.37 273.23C274.242 273.886 274.091 274.565 273.918 275.266C273.737 275.96 273.544 276.658 273.341 277.359C273.137 278.046 272.926 278.71 272.707 279.351C272.511 279.245 272.254 279.147 271.938 279.057C271.613 278.958 271.334 278.883 271.1 278.83C271.289 278.204 271.455 277.548 271.598 276.862C271.742 276.175 271.858 275.5 271.949 274.837C272.047 274.165 272.119 273.551 272.164 272.992ZM268.43 288.605C268.649 288.206 268.898 287.738 269.177 287.202C269.449 286.659 269.732 286.082 270.026 285.471C270.312 284.853 270.599 284.242 270.886 283.639L272.368 284.6C272.058 285.422 271.73 286.256 271.383 287.101C271.044 287.938 270.731 288.703 270.444 289.397L268.43 288.605ZM282.267 276.511L289.938 268.84L291.194 270.096L283.523 277.767L282.267 276.511ZM275.864 271.85L285.197 262.516L292.608 269.926L291.228 271.307L285.073 265.152L278.443 271.782L284.62 277.959L283.297 279.283L275.864 271.85ZM281.498 267.256L282.799 265.955L284.835 267.992C284.979 268.135 285.08 268.214 285.141 268.229C285.201 268.229 285.288 268.173 285.401 268.06C285.424 268.037 285.473 267.988 285.548 267.913C285.631 267.83 285.71 267.75 285.786 267.675C285.869 267.592 285.929 267.532 285.967 267.494C286.035 267.426 286.072 267.366 286.08 267.313C286.087 267.245 286.057 267.162 285.989 267.064C285.929 266.958 285.816 266.815 285.65 266.634C285.786 266.619 285.952 266.581 286.148 266.521C286.344 266.446 286.54 266.363 286.736 266.272C286.932 266.166 287.102 266.065 287.245 265.967C287.539 266.366 287.732 266.709 287.822 266.996C287.913 267.283 287.913 267.547 287.822 267.788C287.739 268.022 287.569 268.267 287.313 268.523C287.253 268.584 287.181 268.655 287.098 268.738C287.015 268.821 286.925 268.912 286.827 269.01C286.736 269.1 286.649 269.187 286.566 269.27C286.483 269.353 286.415 269.421 286.363 269.474C286.001 269.836 285.676 270.07 285.39 270.175C285.111 270.273 284.828 270.247 284.541 270.096C284.255 269.945 283.923 269.681 283.546 269.304L281.498 267.256ZM272.877 269.768L283.048 259.597L284.36 260.909L274.189 271.08L272.877 269.768ZM276.961 267.675L278.296 266.34L280.559 268.603L279.224 269.938L276.961 267.675ZM279.439 265.197L280.808 263.828L283.07 266.091L281.701 267.46L279.439 265.197ZM278.828 269.406L280.095 268.139L281.215 269.259C281.592 269.636 281.931 270.073 282.233 270.571C282.535 271.069 282.731 271.635 282.821 272.268C282.912 272.902 282.833 273.615 282.584 274.407C282.441 274.384 282.252 274.376 282.018 274.384C281.784 274.392 281.547 274.41 281.305 274.441C281.072 274.463 280.883 274.493 280.74 274.531C280.974 273.815 281.068 273.207 281.023 272.71C280.985 272.204 280.857 271.774 280.638 271.42C280.419 271.065 280.178 270.756 279.914 270.492L278.828 269.406Z" fill="black"/>
<path d="M288.67 316.441L288.817 314.484C289.345 314.333 289.926 314.182 290.56 314.032C291.193 313.881 291.816 313.756 292.427 313.658C293.03 313.553 293.554 313.496 293.999 313.488L293.886 315.638C293.471 315.631 292.962 315.665 292.359 315.74C291.755 315.815 291.129 315.913 290.481 316.034C289.832 316.155 289.228 316.291 288.67 316.441ZM297.269 315.627L297.619 313.511C298.042 313.39 298.517 313.262 299.045 313.126C299.565 312.983 300.09 312.844 300.618 312.708C301.146 312.572 301.658 312.459 302.156 312.368C302.654 312.263 303.092 312.187 303.469 312.142L303.141 314.507C302.801 314.529 302.39 314.578 301.907 314.654C301.425 314.729 300.916 314.824 300.38 314.937C299.845 315.035 299.309 315.148 298.773 315.276C298.23 315.397 297.729 315.514 297.269 315.627ZM289.949 310.524L291.997 309.744C292.004 310.309 291.997 310.89 291.974 311.486C291.944 312.074 291.906 312.648 291.861 313.206C291.816 313.749 291.755 314.247 291.68 314.699L289.983 315.219C290.036 314.744 290.069 314.235 290.085 313.692C290.1 313.134 290.096 312.58 290.073 312.029C290.058 311.471 290.017 310.969 289.949 310.524ZM284.993 313.941L295.153 303.781L296.42 305.048L286.261 315.208L284.993 313.941ZM288.048 308.352L289.474 306.927L291.295 308.748L289.87 310.174L288.048 308.352ZM293.581 308.816L295.481 308.228C295.655 309.517 295.647 310.83 295.459 312.165C295.27 313.485 294.938 314.797 294.463 316.102C293.98 317.399 293.392 318.681 292.698 319.949C292.434 319.851 292.11 319.768 291.725 319.7C291.34 319.617 290.982 319.568 290.65 319.553C291.359 318.391 291.966 317.203 292.472 315.989C292.97 314.767 293.324 313.545 293.535 312.323C293.746 311.101 293.762 309.932 293.581 308.816ZM296.828 309.28L298.841 308.714C299.09 310.29 299.087 311.856 298.83 313.409C298.574 314.963 298.117 316.513 297.461 318.059C296.805 319.59 295.994 321.118 295.029 322.641C294.742 322.521 294.399 322.411 293.999 322.313C293.614 322.215 293.252 322.155 292.913 322.132C293.871 320.707 294.689 319.27 295.368 317.822C296.039 316.366 296.511 314.922 296.782 313.488C297.061 312.048 297.076 310.645 296.828 309.28ZM310.987 311.072L298.146 298.231L299.232 297.145L312.073 309.986L310.987 311.072ZM311.456 286.618L311.479 284.989C311.796 284.883 312.139 284.789 312.509 284.706C312.886 284.616 313.252 284.544 313.606 284.491C313.961 284.423 314.262 284.393 314.511 284.401L314.534 286.166C314.285 286.143 313.983 286.158 313.629 286.211C313.274 286.249 312.905 286.301 312.52 286.369C312.135 286.437 311.781 286.52 311.456 286.618ZM315.597 288.293L317.317 287.32C318.245 289.349 318.799 291.381 318.98 293.418C319.161 295.454 318.969 297.427 318.403 299.335C318.237 299.29 318.022 299.256 317.758 299.233C317.509 299.21 317.249 299.191 316.978 299.176C316.721 299.161 316.499 299.158 316.31 299.165C316.951 297.393 317.211 295.586 317.091 293.746C316.97 291.89 316.472 290.073 315.597 288.293ZM306.954 293.248L315.597 284.604L316.887 285.894L308.243 294.538L306.954 293.248ZM311.411 295.692L314.194 292.909L315.45 294.164L312.667 296.948L311.411 295.692ZM306.275 293.927L307.632 292.569L310.698 295.635C311.121 296.058 311.566 296.54 312.033 297.083C312.494 297.619 312.935 298.196 313.357 298.814C313.787 299.425 314.153 300.063 314.455 300.726C314.749 301.383 314.937 302.046 315.02 302.718C314.862 302.695 314.654 302.691 314.398 302.706C314.149 302.729 313.896 302.755 313.64 302.785C313.399 302.816 313.195 302.853 313.029 302.899C312.946 302.303 312.776 301.733 312.52 301.19C312.271 300.64 311.966 300.115 311.604 299.618C311.249 299.112 310.876 298.641 310.483 298.203C310.084 297.758 309.703 297.355 309.341 296.993L306.275 293.927ZM308.809 287.614L310.178 286.245C311.158 287.18 312.124 288.063 313.074 288.892C314.025 289.707 314.937 290.438 315.812 291.087C316.68 291.728 317.487 292.249 318.233 292.648C318.98 293.048 319.64 293.301 320.213 293.406C320.786 293.512 321.247 293.429 321.594 293.158C321.759 293.052 321.707 292.803 321.435 292.411C321.164 292.004 320.741 291.483 320.168 290.85C320.447 290.842 320.764 290.804 321.118 290.736C321.48 290.661 321.786 290.582 322.035 290.499C323.015 291.645 323.528 292.573 323.573 293.282C323.626 293.998 323.283 294.545 322.544 294.922C321.971 295.3 321.311 295.462 320.564 295.409C319.825 295.364 319.018 295.137 318.143 294.73C317.268 294.323 316.336 293.768 315.348 293.067C314.353 292.358 313.308 291.547 312.214 290.635C311.121 289.707 309.986 288.7 308.809 287.614Z" fill="black"/>
<path d="M307.493 349.887L317.969 339.411L319.451 340.893L308.975 351.37L307.493 349.887ZM324.531 340.927L331.557 333.901L332.926 335.27L325.9 342.296L324.531 340.927ZM321.046 337.488L328.095 330.439L329.441 331.786L322.393 338.834L321.046 337.488ZM316.951 334.795L325.515 326.231L334.464 335.18L333.016 336.628L325.447 329.059L319.7 334.806L327.28 342.386L325.911 343.755L316.951 334.795ZM318.569 329.783L320.582 328.244C320.831 328.84 321.058 329.436 321.261 330.032C321.465 330.628 321.631 331.148 321.759 331.593L320.141 332.668C320.005 332.366 319.851 332.046 319.677 331.706C319.511 331.359 319.33 331.02 319.134 330.688C318.946 330.349 318.757 330.047 318.569 329.783ZM328.593 325.416L331.738 322.271L333.107 323.64L329.962 326.785L328.593 325.416ZM330.21 318.254L331.659 316.806L340.517 325.665C340.925 326.072 341.192 326.438 341.321 326.762C341.449 327.087 341.453 327.43 341.332 327.792C341.211 328.154 340.981 328.542 340.642 328.957C340.317 329.372 339.895 329.84 339.375 330.36C339.216 330.232 339.013 330.104 338.764 329.975C338.53 329.847 338.285 329.73 338.028 329.625C337.764 329.511 337.53 329.429 337.327 329.376C337.711 329.021 338.066 328.682 338.39 328.357C338.715 328.033 338.933 327.814 339.046 327.701C339.16 327.588 339.216 327.486 339.216 327.396C339.216 327.305 339.167 327.211 339.069 327.113L330.21 318.254ZM331.274 322.735L331.557 322.452L331.749 322.146L333.016 321.558C333.884 322.757 334.574 323.945 335.087 325.122C335.607 326.291 335.965 327.418 336.161 328.505C336.358 329.576 336.384 330.583 336.241 331.525C336.052 331.488 335.822 331.469 335.551 331.469C335.271 331.461 334.992 331.469 334.713 331.491C334.442 331.506 334.215 331.537 334.034 331.582C334.2 330.707 334.219 329.798 334.091 328.855C333.955 327.905 333.676 326.94 333.254 325.959C332.831 324.963 332.27 323.987 331.568 323.029L331.274 322.735ZM333.22 318.549C334.155 319.122 335.109 319.616 336.082 320.031C337.063 320.438 338.047 320.751 339.035 320.97C340.023 321.188 341.007 321.283 341.988 321.252C342.969 321.207 343.926 321.019 344.862 320.687C344.839 320.89 344.832 321.132 344.839 321.411C344.847 321.69 344.873 321.973 344.918 322.259C344.964 322.531 345.013 322.776 345.065 322.995C343.693 323.372 342.309 323.474 340.913 323.3C339.51 323.119 338.096 322.723 336.671 322.112C335.245 321.501 333.812 320.747 332.371 319.85L333.22 318.549ZM336.512 315.482L338.684 315.098C338.692 315.754 338.692 316.44 338.684 317.157C338.677 317.873 338.65 318.571 338.605 319.25C338.568 319.921 338.507 320.532 338.424 321.083L336.682 321.309C336.735 320.743 336.761 320.121 336.761 319.442C336.769 318.756 336.754 318.07 336.716 317.383C336.671 316.689 336.603 316.056 336.512 315.482ZM345.948 317.18L353.324 309.803L354.388 310.866L347.011 318.243L345.948 317.18ZM344.42 315.064L352.012 307.472L353.143 308.604L345.552 316.195L344.42 315.064ZM346.378 320.415L356.39 310.403L357.556 311.568L347.543 321.581L346.378 320.415ZM346.366 311.738L347.769 310.335L352.917 315.482L351.514 316.885L346.366 311.738ZM342.622 311.794L343.233 312.405L348.256 307.382L347.645 306.771L342.622 311.794ZM341.072 310.244L341.66 310.833L346.683 305.809L346.095 305.221L341.072 310.244ZM338.707 310.55L346.468 302.789L350.688 307.009L342.927 314.77L338.707 310.55ZM343.402 314.068L345.111 313.129C345.314 313.665 345.476 314.227 345.597 314.815C345.718 315.403 345.801 315.984 345.846 316.557C345.891 317.131 345.899 317.658 345.869 318.141C345.695 318.149 345.488 318.168 345.246 318.198C345.005 318.228 344.764 318.266 344.522 318.311C344.273 318.349 344.062 318.394 343.889 318.447C343.987 317.76 343.994 317.029 343.911 316.252C343.828 315.46 343.659 314.732 343.402 314.068Z" fill="black"/>
<path d="M156.927 261.5L160.288 264.86L158.941 266.206L155.581 262.846L156.927 261.5ZM164.96 264.532L166.374 265.946L158.217 274.103C157.9 274.42 157.723 274.65 157.685 274.793C157.655 274.929 157.746 275.102 157.957 275.314C158.002 275.359 158.078 275.434 158.183 275.54C158.289 275.646 158.406 275.762 158.534 275.891C158.662 276.019 158.779 276.136 158.885 276.241C158.99 276.347 159.07 276.426 159.122 276.479C159.273 276.63 159.45 276.679 159.654 276.626C159.858 276.573 160.141 276.396 160.503 276.094C160.88 275.793 161.381 275.351 162.007 274.771C162.038 274.967 162.087 275.182 162.154 275.415C162.23 275.657 162.313 275.891 162.403 276.117C162.501 276.336 162.599 276.524 162.697 276.683C161.928 277.361 161.264 277.867 160.706 278.199C160.156 278.538 159.662 278.685 159.224 278.64C158.787 278.61 158.353 278.38 157.923 277.95C157.863 277.889 157.761 277.788 157.618 277.644C157.474 277.501 157.32 277.346 157.154 277.18C156.995 277.022 156.848 276.875 156.713 276.739C156.577 276.603 156.475 276.502 156.407 276.434C155.977 276.004 155.702 275.6 155.581 275.223C155.46 274.861 155.502 274.48 155.706 274.08C155.917 273.673 156.286 273.206 156.814 272.678L164.96 264.532ZM162.109 261.681L163.523 263.095L153.205 273.413L151.791 271.999L162.109 261.681ZM167.008 269.951L166.77 272.157C166.114 272.029 165.435 271.878 164.734 271.705C164.04 271.524 163.342 271.331 162.641 271.128C161.955 270.924 161.291 270.713 160.65 270.494C160.755 270.298 160.853 270.041 160.944 269.725C161.042 269.4 161.117 269.121 161.17 268.887C161.796 269.076 162.452 269.242 163.139 269.385C163.825 269.529 164.5 269.645 165.164 269.736C165.835 269.834 166.45 269.906 167.008 269.951ZM151.395 266.217C151.795 266.436 152.262 266.685 152.798 266.964C153.341 267.236 153.918 267.518 154.529 267.813C155.147 268.099 155.758 268.386 156.362 268.672L155.4 270.155C154.578 269.845 153.745 269.517 152.9 269.17C152.063 268.831 151.297 268.518 150.603 268.231L151.395 266.217ZM170.017 271.082L180.064 281.129L178.797 282.396L168.75 272.349L170.017 271.082ZM175.21 274.42L176.625 275.834L166.001 286.458L164.587 285.043L175.21 274.42ZM168.4 280.529L169.078 282.158C168.437 282.272 167.774 282.332 167.087 282.339C166.408 282.355 165.718 282.321 165.017 282.238C164.33 282.155 163.652 282.026 162.98 281.853C162.309 281.695 161.672 281.495 161.068 281.253C161.106 281.065 161.144 280.846 161.181 280.597C161.219 280.348 161.246 280.096 161.261 279.839C161.276 279.583 161.279 279.36 161.272 279.172C161.83 279.443 162.415 279.681 163.026 279.884C163.644 280.08 164.266 280.243 164.892 280.371C165.526 280.492 166.137 280.567 166.725 280.597C167.329 280.627 167.887 280.605 168.4 280.529ZM170.504 282.724C170.444 283.237 170.432 283.791 170.47 284.387C170.523 284.983 170.61 285.598 170.73 286.231C170.866 286.865 171.039 287.491 171.251 288.109C171.469 288.72 171.714 289.305 171.986 289.863C171.79 289.848 171.56 289.844 171.296 289.852C171.032 289.874 170.772 289.901 170.515 289.931C170.259 289.976 170.033 290.021 169.836 290.067C169.588 289.471 169.384 288.837 169.225 288.166C169.06 287.502 168.931 286.823 168.841 286.13C168.765 285.436 168.731 284.745 168.739 284.059C168.754 283.38 168.814 282.724 168.92 282.091L170.504 282.724ZM167.732 277.916L167.042 278.606L172.529 284.093L173.219 283.403L167.732 277.916ZM169.361 276.287L168.682 276.965L174.17 282.453L174.848 281.774L169.361 276.287ZM169.056 273.945L177.258 282.147L172.902 286.503L164.7 278.3L169.056 273.945Z" fill="black"/>
<path d="M132.67 290.374L134.005 291.709L129.152 296.563L127.817 295.228L132.67 290.374ZM130.838 287.297L137.06 293.52L135.963 294.617L129.74 288.394L130.838 287.297ZM127.251 292.286L126.629 292.909L131.505 297.785L132.127 297.163L127.251 292.286ZM128.824 290.714L128.213 291.325L133.089 296.201L133.7 295.59L128.824 290.714ZM128.541 288.372L136.11 295.941L131.856 300.195L124.287 292.626L128.541 288.372ZM128.111 297.717L129.808 297.626C130.08 298.185 130.347 298.762 130.611 299.357C130.883 299.961 131.132 300.534 131.358 301.077C131.599 301.62 131.799 302.099 131.958 302.514L129.966 302.469C129.838 302.084 129.676 301.628 129.48 301.1C129.291 300.579 129.08 300.029 128.846 299.448C128.613 298.867 128.367 298.29 128.111 297.717ZM135.872 287.082L137.275 288.485L135.669 290.091L134.266 288.689L135.872 287.082ZM130.962 283.756L140.681 293.474L138.18 295.975L136.789 294.583L138.056 293.316L131.064 286.324L129.797 287.591L128.462 286.256L130.962 283.756ZM126.538 294.334L126.855 296.325C126.342 296.22 125.78 296.05 125.169 295.816C124.559 295.597 123.948 295.334 123.337 295.024C122.726 294.73 122.152 294.413 121.617 294.074C121.677 293.833 121.73 293.531 121.775 293.169C121.828 292.814 121.862 292.501 121.877 292.23C122.367 292.554 122.895 292.863 123.461 293.158C124.042 293.452 124.6 293.701 125.136 293.904C125.686 294.108 126.154 294.251 126.538 294.334ZM133.141 309.987L145.982 297.146L147.068 298.232L134.227 311.073L133.141 309.987ZM151.621 304.098L158.342 310.818L157.018 312.142L150.297 305.422L151.621 304.098ZM142.378 311.531L152.47 321.623L151.157 322.935L141.066 312.844L142.378 311.531ZM146.666 306.994L157.007 317.335L155.672 318.67L145.331 308.329L146.666 306.994ZM153.035 306.96L154.427 308.352C153.839 308.835 153.22 309.333 152.572 309.845C151.923 310.358 151.267 310.871 150.603 311.384C149.947 311.905 149.298 312.41 148.657 312.9C148.016 313.39 147.401 313.847 146.813 314.269C146.24 314.692 145.719 315.069 145.252 315.401L143.837 313.986C144.335 313.654 144.882 313.274 145.478 312.844C146.074 312.414 146.688 311.957 147.322 311.475C147.971 310.992 148.623 310.498 149.279 309.993C149.943 309.48 150.592 308.967 151.225 308.454C151.859 307.941 152.462 307.443 153.035 306.96ZM157.719 310.196L159.134 311.61C158.53 312.184 157.893 312.776 157.221 313.387C156.558 313.99 155.883 314.597 155.196 315.208C154.51 315.819 153.835 316.411 153.171 316.984C152.523 317.558 151.896 318.101 151.293 318.614C150.697 319.119 150.15 319.575 149.653 319.983L148.216 318.546C148.721 318.131 149.279 317.671 149.89 317.165C150.509 316.653 151.15 316.11 151.814 315.536C152.485 314.971 153.16 314.386 153.839 313.783C154.525 313.172 155.193 312.565 155.841 311.961C156.505 311.358 157.131 310.769 157.719 310.196Z" fill="black"/>
<path d="M97.0426 308.402L105.675 317.034L104.283 318.426L95.651 309.794L97.0426 308.402ZM94.1802 312.826L101.127 319.772L99.7466 321.153L92.8 314.206L94.1802 312.826ZM88.9307 315.247L98.7962 325.112L97.416 326.493L87.5504 316.627L88.9307 315.247ZM108.39 318.505L112.78 322.895L111.762 323.913L107.372 319.523L108.39 318.505ZM103.005 323.528L113.153 333.677L112.09 334.74L101.941 324.592L103.005 323.528ZM106.75 320.395L110.811 324.456L109.804 325.463L105.743 321.401L106.75 320.395ZM102.19 329.909L107.7 335.419L106.682 336.437L101.172 330.928L102.19 329.909ZM104.43 322.012C104.86 322.397 105.347 322.831 105.89 323.313C106.441 323.804 107.018 324.32 107.621 324.863C108.232 325.399 108.843 325.934 109.454 326.47L108.413 327.488C107.53 326.726 106.648 325.965 105.765 325.203C104.891 324.434 104.117 323.758 103.446 323.178L104.43 322.012ZM109.567 320.474L110.845 321.752L107.315 325.282L105.879 324.162L109.567 320.474ZM115.552 324.739L116.921 326.357C116.551 326.515 116.197 326.659 115.857 326.787C115.518 326.915 115.216 327.021 114.952 327.104L113.957 325.746C114.221 325.603 114.496 325.44 114.782 325.259C115.077 325.086 115.333 324.912 115.552 324.739ZM111.592 327.567L110.868 328.291L113.074 330.498L113.798 329.774L111.592 327.567ZM113.255 325.904L112.542 326.617L114.749 328.823L115.461 328.11L113.255 325.904ZM113.029 323.642L117.769 328.382L113.346 332.806L108.605 328.065L113.029 323.642ZM105.935 326.866L106.75 328.495C105.973 328.684 105.166 328.782 104.329 328.789C103.491 328.797 102.662 328.729 101.84 328.586C101.017 328.442 100.237 328.242 99.4977 327.986C99.5354 327.843 99.5731 327.654 99.6108 327.42C99.6561 327.179 99.6938 326.938 99.724 326.696C99.7541 326.455 99.7654 326.247 99.7579 326.074C100.414 326.353 101.1 326.579 101.817 326.753C102.534 326.926 103.243 327.024 103.944 327.047C104.653 327.077 105.317 327.017 105.935 326.866ZM103.118 327.171L110.506 334.559L107.361 337.705L105.901 336.245L108.028 334.118L103.503 329.593L101.319 331.776L99.9163 330.373L103.118 327.171ZM117.453 331.935L127.409 341.891L126.062 343.237L116.106 333.281L117.453 331.935ZM124.331 333.541L125.779 334.989L115.156 345.613L113.708 344.165L124.331 333.541ZM120.666 336.618L121.458 338.225C120.605 338.564 119.734 338.847 118.844 339.073C117.954 339.3 117.06 339.462 116.163 339.56C115.273 339.666 114.39 339.703 113.515 339.673C112.656 339.643 111.83 339.534 111.038 339.345C111.075 339.156 111.106 338.93 111.128 338.666C111.151 338.402 111.166 338.138 111.173 337.874C111.189 337.603 111.189 337.369 111.173 337.173C111.898 337.384 112.659 337.527 113.459 337.603C114.273 337.678 115.096 337.693 115.925 337.648C116.762 337.595 117.581 337.478 118.38 337.297C119.187 337.124 119.949 336.897 120.666 336.618ZM122.612 338.677C122.348 339.379 122.14 340.129 121.989 340.929C121.838 341.728 121.744 342.539 121.706 343.361C121.676 344.191 121.699 345.006 121.774 345.805C121.85 346.605 121.993 347.359 122.204 348.068C122.016 348.045 121.782 348.038 121.503 348.045C121.239 348.053 120.971 348.072 120.7 348.102C120.436 348.14 120.206 348.181 120.009 348.226C119.836 347.449 119.734 346.639 119.704 345.794C119.681 344.942 119.715 344.07 119.806 343.18C119.904 342.283 120.062 341.393 120.281 340.51C120.5 339.628 120.764 338.768 121.073 337.931L122.612 338.677ZM125.451 349.324L132.828 356.7L131.764 357.764L124.388 350.387L125.451 349.324ZM127.567 347.796L135.158 355.388L134.027 356.519L126.436 348.928L127.567 347.796ZM122.216 349.754L132.228 359.766L131.063 360.932L121.05 350.919L122.216 349.754ZM130.893 349.742L132.296 351.145L127.148 356.293L125.745 354.89L130.893 349.742ZM130.837 345.997L130.226 346.608L135.249 351.632L135.86 351.021L130.837 345.997ZM132.387 344.447L131.798 345.036L136.822 350.059L137.41 349.471L132.387 344.447ZM132.081 342.083L139.842 349.844L135.622 354.064L127.861 346.303L132.081 342.083ZM128.563 346.778L129.502 348.486C128.966 348.69 128.404 348.852 127.816 348.973C127.228 349.094 126.647 349.177 126.074 349.222C125.5 349.267 124.972 349.275 124.49 349.244C124.482 349.071 124.463 348.864 124.433 348.622C124.403 348.381 124.365 348.14 124.32 347.898C124.282 347.649 124.237 347.438 124.184 347.265C124.871 347.363 125.602 347.37 126.379 347.287C127.171 347.204 127.899 347.035 128.563 346.778Z" fill="black"/>
<path d="M313.927 82.0695L323.996 92.1387L322.582 93.5529L312.513 83.4837L313.927 82.0695ZM320.625 83.8797L322.118 85.3731L318.928 88.5636L317.434 87.0702L320.625 83.8797ZM313.678 87.0702L314.855 89.0614C313.987 89.4611 313.09 89.8081 312.162 90.1022C311.242 90.4039 310.337 90.6453 309.447 90.8263C308.564 90.9998 307.742 91.0978 306.98 91.1205C306.973 90.9168 306.943 90.6679 306.89 90.3738C306.845 90.0872 306.796 89.7968 306.743 89.5026C306.69 89.2085 306.637 88.9596 306.584 88.7559C307.301 88.7936 308.063 88.7484 308.87 88.6201C309.677 88.4919 310.491 88.2958 311.313 88.0318C312.143 87.7603 312.931 87.4397 313.678 87.0702ZM316.88 91.3354L318.814 92.1613C318.701 92.7723 318.573 93.4134 318.43 94.0847C318.286 94.7559 318.128 95.4272 317.955 96.0985C317.789 96.7622 317.608 97.3883 317.412 97.9766C317.223 98.5724 317.027 99.0929 316.823 99.5379L314.617 98.6667C314.821 98.2519 315.028 97.7503 315.239 97.162C315.458 96.5812 315.662 95.9627 315.85 95.3065C316.054 94.6504 316.242 93.9791 316.416 93.2927C316.597 92.6139 316.752 91.9615 316.88 91.3354ZM327.187 91.5278L337.177 101.518L335.853 102.841L325.863 92.8515L327.187 91.5278ZM323.951 99.0174L329.845 104.912L328.623 106.134L322.729 100.239L323.951 99.0174ZM321.247 101.812L326.972 107.537L325.716 108.792L319.991 103.068L321.247 101.812ZM330.898 96.189L332.221 98.1915C331.829 98.4178 331.429 98.6441 331.022 98.8704C330.622 99.0891 330.238 99.3003 329.868 99.5039C329.513 99.7076 329.185 99.8773 328.884 100.013L327.922 98.3952C328.231 98.2066 328.559 97.9917 328.906 97.7503C329.261 97.5014 329.612 97.2412 329.958 96.9697C330.313 96.7057 330.626 96.4455 330.898 96.189ZM325.705 95.2726L333.545 103.113L326.112 110.546L324.664 109.098L330.841 102.921L325.829 97.9087L319.652 104.086L318.271 102.706L325.705 95.2726ZM342.72 108.51C341.981 108.63 341.144 108.683 340.209 108.668C339.281 108.66 338.319 108.581 337.324 108.43C336.336 108.287 335.366 108.072 334.416 107.786C334.469 107.612 334.514 107.408 334.552 107.175C334.597 106.948 334.627 106.715 334.642 106.473C334.665 106.239 334.676 106.024 334.676 105.828C335.634 106.168 336.637 106.409 337.686 106.552C338.742 106.688 339.752 106.741 340.718 106.711C341.691 106.688 342.547 106.586 343.286 106.405L344.7 107.82C344.58 108.559 344.508 109.309 344.485 110.071C344.463 110.833 344.497 111.591 344.587 112.345C344.678 113.099 344.813 113.831 344.994 114.54C345.175 115.249 345.402 115.92 345.673 116.554C345.326 116.554 344.968 116.588 344.598 116.656C344.229 116.723 343.878 116.795 343.546 116.87C343.343 116.214 343.165 115.517 343.014 114.777C342.871 114.046 342.762 113.31 342.686 112.571C342.619 111.825 342.585 111.104 342.585 110.41C342.585 109.716 342.63 109.083 342.72 108.51ZM337.799 107.774L343.49 113.465L342.302 114.653L336.611 108.962L337.799 107.774ZM334.133 108.725L342.517 117.108L341.34 118.285L332.957 109.901L334.133 108.725ZM330.128 111.598L339.745 121.215L338.58 122.38L328.963 112.764L330.128 111.598ZM339.417 110.342L340.854 111.779L334.993 117.64L333.556 116.203L339.417 110.342ZM333.239 111.044L334.778 111.677C334.733 112.009 334.665 112.356 334.574 112.718C334.491 113.088 334.397 113.439 334.292 113.771C334.186 114.102 334.073 114.381 333.952 114.608L332.266 113.963C332.395 113.744 332.519 113.469 332.64 113.137C332.768 112.798 332.885 112.447 332.991 112.085C333.096 111.723 333.179 111.376 333.239 111.044ZM339.428 116.35L340.254 118.126C339.681 118.247 339.1 118.36 338.512 118.466C337.931 118.564 337.418 118.632 336.973 118.669L336.385 117.221C336.694 117.168 337.026 117.101 337.38 117.018C337.742 116.927 338.101 116.825 338.455 116.712C338.817 116.591 339.141 116.471 339.428 116.35ZM344.451 122.324L351.828 129.7L350.764 130.764L343.388 123.387L344.451 122.324ZM346.567 120.796L354.158 128.388L353.027 129.519L345.436 121.928L346.567 120.796ZM341.216 122.754L351.228 132.766L350.063 133.932L340.05 123.919L341.216 122.754ZM349.893 122.742L351.296 124.145L346.148 129.293L344.745 127.89L349.893 122.742ZM349.837 118.997L349.226 119.608L354.249 124.632L354.86 124.021L349.837 118.997ZM351.387 117.447L350.798 118.036L355.822 123.059L356.41 122.471L351.387 117.447ZM351.081 115.083L358.842 122.844L354.622 127.064L346.861 119.303L351.081 115.083ZM347.563 119.778L348.502 121.486C347.966 121.69 347.404 121.852 346.816 121.973C346.228 122.094 345.647 122.177 345.074 122.222C344.5 122.267 343.972 122.275 343.49 122.244C343.482 122.071 343.463 121.864 343.433 121.622C343.403 121.381 343.365 121.14 343.32 120.898C343.282 120.649 343.237 120.438 343.184 120.265C343.871 120.363 344.602 120.37 345.379 120.287C346.171 120.204 346.899 120.035 347.563 119.778Z" fill="black"/>
<path d="M213.896 125.728H228.104V127.52H213.896V125.728ZM217.416 132.608H224.568V134.096H217.416V132.608ZM217.08 135.152H224.92V136.688H217.08V135.152ZM220.04 133.344H221.848V138.976H220.04V133.344ZM214.504 128.72H226.088V130.48H216.424V139.392H214.504V128.72ZM225.544 128.72H227.512V137.472C227.512 137.931 227.448 138.283 227.32 138.528C227.192 138.784 226.968 138.976 226.648 139.104C226.317 139.243 225.912 139.323 225.432 139.344C224.963 139.376 224.403 139.392 223.752 139.392C223.709 139.147 223.624 138.869 223.496 138.56C223.379 138.251 223.256 137.984 223.128 137.76C223.395 137.771 223.667 137.781 223.944 137.792C224.221 137.803 224.472 137.808 224.696 137.808C224.931 137.797 225.085 137.792 225.16 137.792C225.309 137.792 225.411 137.771 225.464 137.728C225.517 137.675 225.544 137.589 225.544 137.472V128.72ZM218.024 130.912L219.544 130.464C219.736 130.72 219.912 131.013 220.072 131.344C220.243 131.675 220.371 131.963 220.456 132.208L218.856 132.736C218.792 132.48 218.68 132.181 218.52 131.84C218.36 131.499 218.195 131.189 218.024 130.912ZM222.536 130.496L224.152 130.944C223.939 131.328 223.725 131.701 223.512 132.064C223.309 132.416 223.112 132.725 222.92 132.992L221.56 132.576C221.677 132.384 221.795 132.165 221.912 131.92C222.04 131.675 222.157 131.429 222.264 131.184C222.371 130.939 222.461 130.709 222.536 130.496ZM219.976 124.512H222.072V129.968H219.976V124.512Z" fill="black"/>
<path d="M215.744 79.336L217.792 79.832C217.536 80.6427 217.227 81.4373 216.864 82.216C216.501 82.984 216.112 83.704 215.696 84.376C215.28 85.048 214.848 85.6293 214.4 86.12C214.272 86.0133 214.096 85.8853 213.872 85.736C213.648 85.5867 213.419 85.4427 213.184 85.304C212.96 85.1547 212.763 85.0373 212.592 84.952C213.051 84.5147 213.477 83.9973 213.872 83.4C214.277 82.8027 214.635 82.1573 214.944 81.464C215.264 80.7707 215.531 80.0613 215.744 79.336ZM216.192 81.416H225.984V83.288H215.232L216.192 81.416ZM212.784 86.616H227.248V88.552H212.784V86.616ZM219.008 82.248H221.008V94.44H219.008V82.248Z" fill="black"/>
<path d="M302.656 223.688H313.504V225.464H302.656V223.688ZM301.424 215.864H314.624V226.344H312.672V217.64H303.296V226.376H301.424V215.864ZM308.656 216.6H310.496V219.48C310.496 219.683 310.512 219.811 310.544 219.864C310.587 219.907 310.688 219.928 310.848 219.928C310.88 219.928 310.949 219.928 311.056 219.928C311.173 219.928 311.285 219.928 311.392 219.928C311.509 219.928 311.595 219.928 311.648 219.928C311.744 219.928 311.813 219.912 311.856 219.88C311.909 219.837 311.947 219.757 311.968 219.64C312 219.523 312.021 219.341 312.032 219.096C312.139 219.181 312.283 219.272 312.464 219.368C312.656 219.453 312.853 219.533 313.056 219.608C313.269 219.672 313.461 219.72 313.632 219.752C313.557 220.243 313.451 220.621 313.312 220.888C313.173 221.155 312.987 221.341 312.752 221.448C312.528 221.555 312.235 221.608 311.872 221.608C311.787 221.608 311.685 221.608 311.568 221.608C311.451 221.608 311.323 221.608 311.184 221.608C311.056 221.608 310.933 221.608 310.816 221.608C310.699 221.608 310.603 221.608 310.528 221.608C310.016 221.608 309.621 221.544 309.344 221.416C309.077 221.288 308.896 221.069 308.8 220.76C308.704 220.451 308.656 220.029 308.656 219.496V216.6ZM300.784 212.28H315.168V214.136H300.784V212.28ZM305.152 213.688H307.04V216.888H305.152V213.688ZM308.656 213.688H310.592V216.888H308.656V213.688ZM305.248 216.232H307.04V217.816C307.04 218.349 306.971 218.899 306.832 219.464C306.693 220.029 306.432 220.568 306.048 221.08C305.664 221.592 305.104 222.04 304.368 222.424C304.283 222.307 304.155 222.168 303.984 222.008C303.813 221.848 303.632 221.693 303.44 221.544C303.259 221.395 303.104 221.283 302.976 221.208C303.648 220.867 304.144 220.504 304.464 220.12C304.795 219.736 305.008 219.341 305.104 218.936C305.2 218.531 305.248 218.141 305.248 217.768V216.232Z" fill="black"/>
<path d="M347.928 224.008H358.488V225.688H347.928V224.008ZM347.928 221.448H358.52V223.032H347.928V221.448ZM346.584 215.672H359.48V226.424H357.608V217.384H348.376V226.424H346.584V215.672ZM353.352 213.512H355.192V218.568C355.192 218.803 355.208 218.947 355.24 219C355.283 219.053 355.368 219.08 355.496 219.08C355.528 219.08 355.576 219.08 355.64 219.08C355.704 219.08 355.773 219.08 355.848 219.08C355.923 219.08 355.992 219.08 356.056 219.08C356.131 219.08 356.184 219.08 356.216 219.08C356.291 219.08 356.349 219.059 356.392 219.016C356.445 218.973 356.483 218.888 356.504 218.76C356.525 218.632 356.541 218.445 356.552 218.2C356.733 218.328 356.973 218.451 357.272 218.568C357.581 218.685 357.859 218.776 358.104 218.84C358.019 219.523 357.848 219.992 357.592 220.248C357.336 220.504 356.941 220.632 356.408 220.632C356.333 220.632 356.237 220.632 356.12 220.632C356.013 220.632 355.896 220.632 355.768 220.632C355.651 220.632 355.539 220.632 355.432 220.632C355.325 220.632 355.235 220.632 355.16 220.632C354.659 220.632 354.28 220.573 354.024 220.456C353.768 220.328 353.592 220.115 353.496 219.816C353.4 219.507 353.352 219.091 353.352 218.568V213.512ZM350.312 213.512H352.04V217.016C352.04 217.667 351.965 218.248 351.816 218.76C351.677 219.272 351.4 219.72 350.984 220.104C350.568 220.488 349.944 220.808 349.112 221.064C348.995 220.861 348.829 220.632 348.616 220.376C348.403 220.12 348.205 219.907 348.024 219.736C348.675 219.544 349.165 219.315 349.496 219.048C349.827 218.781 350.045 218.477 350.152 218.136C350.259 217.784 350.312 217.405 350.312 217V213.512ZM345.864 212.312H360.168V214.152H345.864V212.312Z" fill="black"/>
<path d="M213.896 302.208H218.648V304.112H213.896V302.208ZM221.72 298.672H223.72V310.208C223.72 310.656 223.757 310.944 223.832 311.072C223.907 311.189 224.093 311.248 224.392 311.248C224.456 311.248 224.563 311.248 224.712 311.248C224.861 311.248 225.027 311.248 225.208 311.248C225.389 311.248 225.555 311.248 225.704 311.248C225.853 311.248 225.965 311.248 226.04 311.248C226.253 311.248 226.413 311.157 226.52 310.976C226.627 310.795 226.701 310.469 226.744 310C226.797 309.52 226.84 308.853 226.872 308C227.032 308.117 227.219 308.235 227.432 308.352C227.656 308.469 227.88 308.576 228.104 308.672C228.328 308.757 228.531 308.821 228.712 308.864C228.648 309.888 228.536 310.715 228.376 311.344C228.227 311.973 227.981 312.427 227.64 312.704C227.309 312.992 226.84 313.136 226.232 313.136C226.147 313.136 226.003 313.136 225.8 313.136C225.597 313.136 225.379 313.136 225.144 313.136C224.92 313.136 224.712 313.136 224.52 313.136C224.328 313.136 224.184 313.136 224.088 313.136C223.48 313.136 223 313.045 222.648 312.864C222.307 312.693 222.067 312.395 221.928 311.968C221.789 311.531 221.72 310.939 221.72 310.192V298.672ZM217.688 298.672H219.688V313.264H217.688V298.672ZM227 301.056L228.392 302.784C227.837 303.157 227.251 303.531 226.632 303.904C226.013 304.267 225.384 304.624 224.744 304.976C224.115 305.317 223.496 305.637 222.888 305.936C222.824 305.723 222.712 305.472 222.552 305.184C222.392 304.885 222.248 304.635 222.12 304.432C222.696 304.123 223.277 303.776 223.864 303.392C224.451 303.008 225.011 302.613 225.544 302.208C226.088 301.803 226.573 301.419 227 301.056ZM213.32 309.456C213.757 309.328 214.264 309.173 214.84 308.992C215.416 308.8 216.024 308.592 216.664 308.368C217.304 308.133 217.939 307.904 218.568 307.68L218.936 309.408C218.136 309.771 217.315 310.128 216.472 310.48C215.64 310.832 214.877 311.152 214.184 311.44L213.32 309.456Z" fill="black"/>
<path d="M213.624 350.408H228.392V352.344H213.624V350.408ZM220.008 347.864H222.024V356.2C222.024 356.744 221.949 357.165 221.8 357.464C221.661 357.763 221.395 357.987 221 358.136C220.616 358.285 220.147 358.381 219.592 358.424C219.037 358.467 218.392 358.483 217.656 358.472C217.624 358.28 217.56 358.061 217.464 357.816C217.368 357.581 217.267 357.341 217.16 357.096C217.053 356.861 216.947 356.659 216.84 356.488C217.213 356.499 217.581 356.509 217.944 356.52C218.317 356.531 218.648 356.536 218.936 356.536C219.235 356.536 219.443 356.536 219.56 356.536C219.731 356.536 219.848 356.509 219.912 356.456C219.976 356.403 220.008 356.307 220.008 356.168V347.864ZM215.304 344.392H225.384V346.28H215.304V344.392ZM224.744 344.392H225.256L225.704 344.28L227.16 345.384C226.669 345.907 226.104 346.429 225.464 346.952C224.835 347.475 224.179 347.976 223.496 348.456C222.813 348.925 222.147 349.331 221.496 349.672C221.4 349.533 221.277 349.379 221.128 349.208C220.979 349.037 220.824 348.872 220.664 348.712C220.504 348.541 220.36 348.397 220.232 348.28C220.808 347.992 221.389 347.645 221.976 347.24C222.573 346.835 223.117 346.419 223.608 345.992C224.099 345.565 224.477 345.176 224.744 344.824V344.392Z" fill="black"/>
<path d="M190.792 386.872H203.16V388.776H190.792V386.872ZM189.864 397.768H204.216V399.672H189.864V397.768ZM195.24 387.544H197.432C197.272 388.504 197.096 389.501 196.904 390.536C196.712 391.571 196.515 392.6 196.312 393.624C196.109 394.648 195.907 395.619 195.704 396.536C195.512 397.453 195.325 398.269 195.144 398.984H192.984C193.176 398.237 193.379 397.4 193.592 396.472C193.805 395.533 194.008 394.557 194.2 393.544C194.403 392.52 194.595 391.496 194.776 390.472C194.957 389.448 195.112 388.472 195.24 387.544ZM191.32 391.56H201.704V398.664H199.704V393.448H191.32V391.56ZM205.8 389.24H220.264V390.984H205.8V389.24ZM206.936 386.584H219.16V388.264H206.936V386.584ZM209.576 385.4H211.528V390.088H209.576V385.4ZM214.52 385.4H216.504V390.088H214.52V385.4ZM212.024 390.232H214.008V396.792H212.024V390.232ZM209.24 395.224V396.152H216.872V395.224H209.24ZM209.24 393.096V393.992H216.872V393.096H209.24ZM207.4 391.768H218.808V397.464H207.4V391.768ZM214.152 398.488L215.224 397.272C215.811 397.464 216.403 397.672 217 397.896C217.608 398.12 218.184 398.339 218.728 398.552C219.283 398.765 219.757 398.957 220.152 399.128L218.776 400.408C218.424 400.237 217.997 400.04 217.496 399.816C216.995 399.603 216.456 399.379 215.88 399.144C215.304 398.909 214.728 398.691 214.152 398.488ZM210.472 397.336L212.104 398.472C211.677 398.739 211.176 398.995 210.6 399.24C210.024 399.496 209.432 399.731 208.824 399.944C208.216 400.157 207.64 400.339 207.096 400.488C206.936 400.285 206.723 400.051 206.456 399.784C206.2 399.528 205.965 399.309 205.752 399.128C206.317 399 206.893 398.84 207.48 398.648C208.077 398.445 208.643 398.227 209.176 397.992C209.709 397.757 210.141 397.539 210.472 397.336ZM222.792 390.376H235.24V392.264H222.792V390.376ZM221.736 397.864H236.312V399.752H221.736V397.864ZM227.944 385.432H230.008V399.16H227.944V385.432ZM239.928 395.784H250.36V397.288H239.928V395.784ZM240.344 393.208H251.08V394.808H240.344V393.208ZM237.944 398.376H252.104V400.024H237.944V398.376ZM244.072 392.232H246.056V399.512H244.072V392.232ZM241.384 389.624V390.488H248.488V389.624H241.384ZM241.384 387.432V388.264H248.488V387.432H241.384ZM239.496 385.976H250.472V391.944H239.496V385.976ZM240.328 391.784L242.2 392.328C241.965 392.851 241.683 393.363 241.352 393.864C241.021 394.365 240.669 394.835 240.296 395.272C239.923 395.709 239.555 396.088 239.192 396.408C239.064 396.291 238.904 396.157 238.712 396.008C238.52 395.859 238.323 395.715 238.12 395.576C237.917 395.427 237.736 395.309 237.576 395.224C238.131 394.808 238.653 394.296 239.144 393.688C239.645 393.069 240.04 392.435 240.328 391.784Z" fill="black"/>
<path d="M189.264 35.808H202.8V48.848H200.768V37.664H191.2V48.976H189.264V35.808ZM190.288 46.08H201.824V47.92H190.288V46.08ZM196.544 37.152H198.416V41.6C198.416 41.8453 198.432 41.9893 198.464 42.032C198.517 42.0853 198.603 42.112 198.72 42.112C198.773 42.112 198.843 42.112 198.928 42.112C199.013 42.112 199.083 42.112 199.136 42.112C199.189 42.112 199.243 42.1067 199.296 42.096C199.36 42.0853 199.408 42.0693 199.44 42.048C199.472 42.0267 199.504 41.9947 199.536 41.952C199.579 41.8987 199.605 41.8187 199.616 41.712C199.637 41.6053 199.648 41.44 199.648 41.216C199.659 40.9813 199.669 40.7147 199.68 40.416C199.851 40.5653 200.075 40.7147 200.352 40.864C200.64 41.0133 200.907 41.1253 201.152 41.2C201.131 41.52 201.099 41.84 201.056 42.16C201.024 42.4693 200.976 42.6987 200.912 42.848C200.837 43.008 200.747 43.1413 200.64 43.248C200.544 43.344 200.416 43.4293 200.256 43.504C200.128 43.568 199.968 43.616 199.776 43.648C199.595 43.6693 199.424 43.68 199.264 43.68C199.168 43.68 199.056 43.68 198.928 43.68C198.8 43.68 198.672 43.68 198.544 43.68C198.427 43.68 198.32 43.68 198.224 43.68C198.011 43.68 197.792 43.648 197.568 43.584C197.344 43.52 197.152 43.4187 196.992 43.28C196.843 43.1413 196.731 42.9547 196.656 42.72C196.581 42.4853 196.544 42.096 196.544 41.552V37.152ZM193.312 37.12H195.184C195.152 38.2187 195.061 39.2373 194.912 40.176C194.763 41.1147 194.496 41.9573 194.112 42.704C193.728 43.4507 193.147 44.0907 192.368 44.624C192.261 44.4 192.091 44.1493 191.856 43.872C191.621 43.584 191.397 43.3547 191.184 43.184C191.813 42.768 192.272 42.2613 192.56 41.664C192.848 41.056 193.04 40.3733 193.136 39.616C193.232 38.848 193.291 38.016 193.312 37.12ZM218 41.648L219.456 42.608C219.136 42.9813 218.805 43.36 218.464 43.744C218.133 44.128 217.835 44.4533 217.568 44.72L216.4 43.888C216.571 43.6853 216.752 43.456 216.944 43.2C217.147 42.944 217.339 42.6827 217.52 42.416C217.712 42.1387 217.872 41.8827 218 41.648ZM210.848 42.64L212.16 41.776C212.448 42.0853 212.741 42.4373 213.04 42.832C213.339 43.216 213.557 43.5627 213.696 43.872L212.304 44.832C212.176 44.5227 211.968 44.1653 211.68 43.76C211.403 43.344 211.125 42.9707 210.848 42.64ZM211.296 34.992H218.048V40.4H216.176V36.544H211.296V34.992ZM211.68 37.344H217.216V38.832H211.68V37.344ZM210.544 39.68H219.376V41.28H210.544V39.68ZM214.048 40.4H215.824V47.6C215.824 48.0053 215.781 48.3253 215.696 48.56C215.611 48.8053 215.435 48.992 215.168 49.12C214.923 49.2587 214.619 49.344 214.256 49.376C213.904 49.4187 213.488 49.44 213.008 49.44C212.987 49.1947 212.928 48.912 212.832 48.592C212.736 48.2827 212.635 48.0107 212.528 47.776C212.795 47.7867 213.051 47.7973 213.296 47.808C213.552 47.808 213.723 47.8027 213.808 47.792C213.968 47.792 214.048 47.7173 214.048 47.568V40.4ZM209.92 46.896C210.347 46.6613 210.864 46.3573 211.472 45.984C212.08 45.6 212.699 45.2053 213.328 44.8L213.92 46.24C213.408 46.6347 212.88 47.0293 212.336 47.424C211.803 47.808 211.301 48.1707 210.832 48.512L209.92 46.896ZM215.76 41.28C215.856 41.8027 216 42.3467 216.192 42.912C216.384 43.4667 216.629 44.016 216.928 44.56C217.227 45.0933 217.595 45.584 218.032 46.032C218.48 46.4693 219.008 46.832 219.616 47.12C219.499 47.2267 219.365 47.3707 219.216 47.552C219.067 47.7333 218.923 47.92 218.784 48.112C218.645 48.3147 218.533 48.496 218.448 48.656C217.872 48.304 217.371 47.872 216.944 47.36C216.528 46.848 216.171 46.2987 215.872 45.712C215.573 45.1147 215.328 44.5227 215.136 43.936C214.955 43.3493 214.811 42.8053 214.704 42.304L215.76 41.28ZM206.864 34.416L208.528 35.008C208.315 35.424 208.091 35.8507 207.856 36.288C207.621 36.7147 207.392 37.1307 207.168 37.536C206.944 37.9307 206.731 38.2773 206.528 38.576L205.248 38.048C205.44 37.7173 205.637 37.344 205.84 36.928C206.043 36.512 206.235 36.08 206.416 35.632C206.608 35.184 206.757 34.7787 206.864 34.416ZM208.672 36.32L210.24 37.024C209.845 37.6213 209.419 38.2507 208.96 38.912C208.501 39.5733 208.043 40.208 207.584 40.816C207.125 41.424 206.688 41.9573 206.272 42.416L205.168 41.808C205.467 41.4453 205.776 41.04 206.096 40.592C206.427 40.1333 206.747 39.6587 207.056 39.168C207.376 38.6667 207.675 38.1707 207.952 37.68C208.229 37.1893 208.469 36.736 208.672 36.32ZM204.4 38.16L205.344 36.864C205.611 37.12 205.888 37.3973 206.176 37.696C206.464 37.9947 206.731 38.2933 206.976 38.592C207.221 38.8907 207.403 39.168 207.52 39.424L206.496 40.88C206.379 40.624 206.203 40.336 205.968 40.016C205.744 39.696 205.493 39.376 205.216 39.056C204.939 38.7253 204.667 38.4267 204.4 38.16ZM208.128 40.144L209.472 39.6C209.685 39.952 209.888 40.336 210.08 40.752C210.272 41.168 210.443 41.5733 210.592 41.968C210.741 42.352 210.848 42.6987 210.912 43.008L209.456 43.648C209.413 43.3387 209.323 42.9813 209.184 42.576C209.045 42.1707 208.885 41.76 208.704 41.344C208.523 40.9173 208.331 40.5173 208.128 40.144ZM204.352 41.424C205.067 41.392 205.909 41.3493 206.88 41.296C207.851 41.232 208.837 41.168 209.84 41.104L209.872 42.672C208.933 42.7467 207.995 42.8213 207.056 42.896C206.128 42.96 205.291 43.024 204.544 43.088L204.352 41.424ZM208.576 44.16L209.904 43.76C210.096 44.1973 210.267 44.6827 210.416 45.216C210.576 45.7493 210.677 46.2027 210.72 46.576L209.296 47.04C209.264 46.656 209.179 46.1973 209.04 45.664C208.912 45.12 208.757 44.6187 208.576 44.16ZM205.04 43.808L206.576 44.08C206.491 44.848 206.363 45.6053 206.192 46.352C206.032 47.088 205.84 47.712 205.616 48.224C205.509 48.1493 205.371 48.0693 205.2 47.984C205.029 47.8987 204.853 47.8187 204.672 47.744C204.491 47.6587 204.336 47.5947 204.208 47.552C204.443 47.072 204.624 46.496 204.752 45.824C204.88 45.152 204.976 44.48 205.04 43.808ZM206.784 42.288H208.448V49.44H206.784V42.288ZM220.976 38.144H235.056V40.048H220.976V38.144ZM226.976 34.416H229.024V49.44H226.976V34.416ZM226.56 39.184L228.256 39.76C227.893 40.6027 227.477 41.4187 227.008 42.208C226.539 42.9973 226.021 43.744 225.456 44.448C224.901 45.152 224.304 45.8027 223.664 46.4C223.035 46.9867 222.373 47.4933 221.68 47.92C221.573 47.76 221.435 47.5787 221.264 47.376C221.093 47.1733 220.917 46.976 220.736 46.784C220.555 46.5813 220.389 46.416 220.24 46.288C220.901 45.9253 221.541 45.488 222.16 44.976C222.789 44.4533 223.381 43.8827 223.936 43.264C224.491 42.6347 224.987 41.9733 225.424 41.28C225.872 40.5867 226.251 39.888 226.56 39.184ZM229.392 39.264C229.701 39.9467 230.085 40.624 230.544 41.296C231.003 41.968 231.509 42.608 232.064 43.216C232.629 43.824 233.221 44.384 233.84 44.896C234.459 45.408 235.093 45.84 235.744 46.192C235.595 46.3093 235.424 46.4693 235.232 46.672C235.051 46.864 234.875 47.0667 234.704 47.28C234.544 47.4933 234.411 47.6853 234.304 47.856C233.632 47.4293 232.987 46.928 232.368 46.352C231.749 45.7653 231.157 45.1253 230.592 44.432C230.027 43.728 229.509 42.9867 229.04 42.208C228.571 41.4293 228.149 40.6347 227.776 39.824L229.392 39.264ZM238.928 44.784H249.36V46.288H238.928V44.784ZM239.344 42.208H250.08V43.808H239.344V42.208ZM236.944 47.376H251.104V49.024H236.944V47.376ZM243.072 41.232H245.056V48.512H243.072V41.232ZM240.384 38.624V39.488H247.488V38.624H240.384ZM240.384 36.432V37.264H247.488V36.432H240.384ZM238.496 34.976H249.472V40.944H238.496V34.976ZM239.328 40.784L241.2 41.328C240.965 41.8507 240.683 42.3627 240.352 42.864C240.021 43.3653 239.669 43.8347 239.296 44.272C238.923 44.7093 238.555 45.088 238.192 45.408C238.064 45.2907 237.904 45.1573 237.712 45.008C237.52 44.8587 237.323 44.7147 237.12 44.576C236.917 44.4267 236.736 44.3093 236.576 44.224C237.131 43.808 237.653 43.296 238.144 42.688C238.645 42.0693 239.04 41.4347 239.328 40.784Z" fill="black"/>
<path d="M209.44 198.28H212.06C212.047 199.867 212.013 201.413 211.96 202.92C211.907 204.413 211.773 205.84 211.56 207.2C211.347 208.547 211 209.813 210.52 211C210.04 212.173 209.367 213.253 208.5 214.24C207.647 215.213 206.54 216.067 205.18 216.8C205.073 216.6 204.92 216.373 204.72 216.12C204.52 215.88 204.307 215.64 204.08 215.4C203.867 215.173 203.653 214.993 203.44 214.86C204.707 214.207 205.72 213.453 206.48 212.6C207.253 211.747 207.847 210.807 208.26 209.78C208.673 208.74 208.96 207.613 209.12 206.4C209.28 205.187 209.367 203.9 209.38 202.54C209.407 201.18 209.427 199.76 209.44 198.28ZM204.46 202.92H216.76V205.34H204.46V202.92ZM215.44 202.92H217.94V213.2C217.94 213.627 217.973 213.9 218.04 214.02C218.107 214.127 218.26 214.18 218.5 214.18C218.553 214.18 218.64 214.18 218.76 214.18C218.88 214.18 219.013 214.18 219.16 214.18C219.307 214.18 219.44 214.18 219.56 214.18C219.693 214.18 219.787 214.18 219.84 214.18C220.013 214.18 220.14 214.1 220.22 213.94C220.3 213.78 220.36 213.48 220.4 213.04C220.44 212.6 220.473 211.96 220.5 211.12C220.7 211.267 220.927 211.407 221.18 211.54C221.447 211.673 221.72 211.8 222 211.92C222.28 212.027 222.533 212.107 222.76 212.16C222.693 213.24 222.567 214.1 222.38 214.74C222.193 215.367 221.92 215.813 221.56 216.08C221.2 216.36 220.713 216.5 220.1 216.5C219.993 216.5 219.847 216.5 219.66 216.5C219.473 216.5 219.273 216.5 219.06 216.5C218.847 216.5 218.647 216.5 218.46 216.5C218.287 216.5 218.153 216.5 218.06 216.5C217.407 216.5 216.887 216.4 216.5 216.2C216.127 216.013 215.853 215.68 215.68 215.2C215.52 214.72 215.44 214.047 215.44 213.18V202.92ZM231.72 211.2H234.2V216.8H231.72V211.2ZM223.9 210.36C224.873 210.36 225.98 210.36 227.22 210.36C228.46 210.347 229.78 210.333 231.18 210.32C232.58 210.293 234.02 210.273 235.5 210.26C236.98 210.233 238.447 210.213 239.9 210.2L239.78 212.1C238.353 212.153 236.913 212.2 235.46 212.24C234.02 212.28 232.607 212.32 231.22 212.36C229.847 212.387 228.54 212.42 227.3 212.46C226.073 212.487 224.967 212.507 223.98 212.52L223.9 210.36ZM231.26 204.88L233.48 205.76C232.867 206.333 232.213 206.887 231.52 207.42C230.84 207.94 230.207 208.38 229.62 208.74L227.78 207.88C228.167 207.613 228.573 207.313 229 206.98C229.44 206.633 229.853 206.28 230.24 205.92C230.627 205.547 230.967 205.2 231.26 204.88ZM235.52 206.1L237.88 207.06C237.093 207.673 236.24 208.273 235.32 208.86C234.413 209.447 233.507 210 232.6 210.52C231.693 211.04 230.84 211.493 230.04 211.88L228.22 210.9C229.033 210.5 229.887 210.027 230.78 209.48C231.687 208.933 232.553 208.367 233.38 207.78C234.207 207.18 234.92 206.62 235.52 206.1ZM225.9 208.02L227.62 206.62C228.167 206.847 228.733 207.107 229.32 207.4C229.92 207.68 230.493 207.967 231.04 208.26C231.587 208.54 232.06 208.8 232.46 209.04L230.72 210.62C230.347 210.367 229.88 210.087 229.32 209.78C228.773 209.46 228.2 209.147 227.6 208.84C227.013 208.533 226.447 208.26 225.9 208.02ZM235.4 213.86L237.48 212.76C238 213.013 238.54 213.307 239.1 213.64C239.66 213.96 240.2 214.287 240.72 214.62C241.253 214.94 241.707 215.227 242.08 215.48L239.94 216.74C239.593 216.46 239.16 216.147 238.64 215.8C238.12 215.467 237.573 215.127 237 214.78C236.44 214.42 235.907 214.113 235.4 213.86ZM228.1 212.8L230.38 213.68C229.98 214.067 229.507 214.453 228.96 214.84C228.427 215.227 227.873 215.587 227.3 215.92C226.74 216.253 226.2 216.547 225.68 216.8C225.533 216.653 225.34 216.473 225.1 216.26C224.873 216.06 224.633 215.86 224.38 215.66C224.14 215.473 223.927 215.32 223.74 215.2C224.54 214.907 225.34 214.547 226.14 214.12C226.94 213.693 227.593 213.253 228.1 212.8ZM236.1 209.14L238.16 208.24C238.653 208.627 239.167 209.06 239.7 209.54C240.247 210.02 240.76 210.5 241.24 210.98C241.72 211.46 242.113 211.9 242.42 212.3L240.18 213.3C239.913 212.913 239.553 212.48 239.1 212C238.66 211.507 238.173 211.013 237.64 210.52C237.107 210.013 236.593 209.553 236.1 209.14ZM229.14 199.76H232.9V201.66H229.14V199.76ZM233.62 198H236V203.1C236 203.42 236.053 203.627 236.16 203.72C236.28 203.8 236.54 203.84 236.94 203.84C237.033 203.84 237.187 203.84 237.4 203.84C237.613 203.84 237.847 203.84 238.1 203.84C238.353 203.84 238.593 203.84 238.82 203.84C239.047 203.84 239.213 203.84 239.32 203.84C239.547 203.84 239.713 203.807 239.82 203.74C239.94 203.66 240.027 203.513 240.08 203.3C240.133 203.073 240.173 202.747 240.2 202.32C240.44 202.48 240.767 202.64 241.18 202.8C241.593 202.947 241.967 203.053 242.3 203.12C242.207 203.853 242.06 204.427 241.86 204.84C241.66 205.24 241.38 205.52 241.02 205.68C240.66 205.84 240.173 205.92 239.56 205.92C239.453 205.92 239.3 205.92 239.1 205.92C238.913 205.92 238.7 205.92 238.46 205.92C238.22 205.92 237.973 205.92 237.72 205.92C237.48 205.92 237.26 205.92 237.06 205.92C236.873 205.92 236.733 205.92 236.64 205.92C235.827 205.92 235.2 205.833 234.76 205.66C234.333 205.487 234.033 205.2 233.86 204.8C233.7 204.387 233.62 203.827 233.62 203.12V198ZM223.66 204.12C224.433 204.053 225.327 203.967 226.34 203.86C227.367 203.74 228.447 203.613 229.58 203.48C230.727 203.347 231.867 203.213 233 203.08L233.06 204.96C231.98 205.12 230.887 205.28 229.78 205.44C228.673 205.587 227.613 205.733 226.6 205.88C225.6 206.013 224.687 206.14 223.86 206.26L223.66 204.12ZM239.96 198.96L241.74 200.64C241.1 200.92 240.407 201.18 239.66 201.42C238.927 201.647 238.173 201.86 237.4 202.06C236.627 202.247 235.88 202.413 235.16 202.56C235.12 202.32 235.027 202.033 234.88 201.7C234.747 201.353 234.613 201.067 234.48 200.84C235.133 200.667 235.8 200.48 236.48 200.28C237.16 200.08 237.8 199.867 238.4 199.64C239 199.413 239.52 199.187 239.96 198.96ZM228.16 198H230.38V204.8L228.16 204.96V198ZM224.9 199.48H226.96V204.98L224.9 205.16V199.48ZM212.92 224.3C212.373 225.06 211.68 225.847 210.84 226.66C210.013 227.473 209.093 228.253 208.08 229C207.08 229.747 206.033 230.413 204.94 231C204.833 230.8 204.693 230.58 204.52 230.34C204.36 230.1 204.18 229.867 203.98 229.64C203.793 229.413 203.613 229.213 203.44 229.04C204.587 228.493 205.687 227.82 206.74 227.02C207.793 226.207 208.733 225.36 209.56 224.48C210.4 223.6 211.067 222.753 211.56 221.94H214.06C214.607 222.7 215.207 223.427 215.86 224.12C216.513 224.813 217.213 225.453 217.96 226.04C218.707 226.627 219.473 227.153 220.26 227.62C221.047 228.087 221.84 228.48 222.64 228.8C222.333 229.107 222.047 229.453 221.78 229.84C221.513 230.227 221.267 230.6 221.04 230.96C220.28 230.56 219.507 230.1 218.72 229.58C217.947 229.06 217.2 228.507 216.48 227.92C215.76 227.32 215.093 226.713 214.48 226.1C213.867 225.487 213.347 224.887 212.92 224.3ZM207.92 228H217.98V230.1H207.92V228ZM205.52 232.08H220.34V234.16H205.52V232.08ZM204.52 238.16H221.52V240.22H204.52V238.16ZM211.62 228.84H214.16V239.2H211.62V228.84ZM206.78 234.92L208.7 234.12C208.953 234.453 209.2 234.82 209.44 235.22C209.693 235.62 209.92 236.013 210.12 236.4C210.32 236.787 210.467 237.133 210.56 237.44L208.5 238.36C208.42 238.053 208.287 237.7 208.1 237.3C207.913 236.887 207.707 236.473 207.48 236.06C207.253 235.647 207.02 235.267 206.78 234.92ZM216.94 234.14L219.24 234.98C218.84 235.593 218.427 236.207 218 236.82C217.573 237.42 217.18 237.933 216.82 238.36L215.02 237.6C215.247 237.28 215.48 236.927 215.72 236.54C215.96 236.14 216.187 235.733 216.4 235.32C216.613 234.893 216.793 234.5 216.94 234.14ZM226.66 234.98H239.7V236.86H226.66V234.98ZM227.18 231.76H240.6V233.76H227.18V231.76ZM224.18 238.22H241.88V240.28H224.18V238.22ZM231.84 230.54H234.32V239.64H231.84V230.54ZM228.48 227.28V228.36H237.36V227.28H228.48ZM228.48 224.54V225.58H237.36V224.54H228.48ZM226.12 222.72H239.84V230.18H226.12V222.72ZM227.16 229.98L229.5 230.66C229.207 231.313 228.853 231.953 228.44 232.58C228.027 233.207 227.587 233.793 227.12 234.34C226.653 234.887 226.193 235.36 225.74 235.76C225.58 235.613 225.38 235.447 225.14 235.26C224.9 235.073 224.653 234.893 224.4 234.72C224.147 234.533 223.92 234.387 223.72 234.28C224.413 233.76 225.067 233.12 225.68 232.36C226.307 231.587 226.8 230.793 227.16 229.98Z" fill="white"/>
<defs>
<linearGradient id="paint0_linear_56_111" x1="220.75" y1="26" x2="220.75" y2="412.5" gradientUnits="userSpaceOnUse">
<stop stop-color="#FFFBA7"/>
<stop offset="1" stop-color="#FDFAEC"/>
</linearGradient>
<linearGradient id="paint1_linear_56_111" x1="221" y1="64" x2="221" y2="374" gradientUnits="userSpaceOnUse">
<stop stop-color="#FFFDDC"/>
<stop offset="1" stop-color="#E3F8FF"/>
</linearGradient>
<linearGradient id="paint2_linear_56_111" x1="221" y1="109" x2="221" y2="329" gradientUnits="userSpaceOnUse">
<stop stop-color="#C8EEFF"/>
<stop offset="1" stop-color="#E1F3FF"/>
</linearGradient>
<linearGradient id="paint3_linear_56_111" x1="221" y1="154" x2="221" y2="284" gradientUnits="userSpaceOnUse">
<stop stop-color="#58C7FF"/>
<stop offset="1" stop-color="#9FE0FF"/>
</linearGradient>
</defs>
</svg>
