<svg width="442" height="452" viewBox="0 0 442 452" fill="none" xmlns="http://www.w3.org/2000/svg">
<rect width="442" height="452" fill="white"/>
<path d="M272.5 26H169L27.5 166.5V270.5L169 412.5H272.5L414 270.5V166.5L272.5 26Z" fill="url(#paint0_linear_2_2)" stroke="#FFFDE8"/>
<path d="M262.507 64H179.493L66 176.691V260.106L179.493 374H262.507L376 260.106V176.691L262.507 64Z" fill="url(#paint1_linear_2_2)" stroke="#FEFFEA"/>
<path d="M250.457 109H191.543L111 188.974V248.172L191.543 329H250.457L331 248.172V188.974L250.457 109Z" fill="url(#paint2_linear_2_2)" stroke="#DDF4FF"/>
<path d="M414.37 270.528L28 167" stroke="#888686"/>
<path d="M272.528 26L186.777 346.024L169 412.37" stroke="#888686" stroke-opacity="0.82"/>
<path d="M169 26L272.528 412.37" stroke="#888686"/>
<path d="M414.37 167L28 270.528" stroke="#888886"/>
<path d="M238.406 154H203.594L156 201.257V236.238L203.594 284H238.406L286 236.238V201.257L238.406 154Z" fill="url(#paint3_linear_2_2)" stroke="#B9E7FD"/>
<path d="M126.044 212.194H142.028V214.21H126.044V212.194ZM132.83 210.718H135.08V227.62H132.83V210.718ZM132.272 220.996L134.108 221.752C133.688 222.352 133.208 222.928 132.668 223.48C132.14 224.032 131.564 224.554 130.94 225.046C130.328 225.526 129.686 225.964 129.014 226.36C128.354 226.768 127.688 227.116 127.016 227.404C126.896 227.224 126.752 227.02 126.584 226.792C126.416 226.564 126.236 226.342 126.044 226.126C125.852 225.91 125.678 225.73 125.522 225.586C126.182 225.358 126.836 225.082 127.484 224.758C128.132 224.422 128.756 224.056 129.356 223.66C129.956 223.252 130.502 222.826 130.994 222.382C131.498 221.926 131.924 221.464 132.272 220.996ZM135.692 221.068C136.052 221.524 136.484 221.974 136.988 222.418C137.504 222.85 138.062 223.27 138.662 223.678C139.274 224.074 139.91 224.434 140.57 224.758C141.23 225.07 141.89 225.34 142.55 225.568C142.382 225.712 142.196 225.892 141.992 226.108C141.8 226.336 141.614 226.564 141.434 226.792C141.266 227.032 141.122 227.248 141.002 227.44C140.33 227.164 139.664 226.822 139.004 226.414C138.344 226.018 137.702 225.58 137.078 225.1C136.466 224.608 135.89 224.086 135.35 223.534C134.822 222.982 134.348 222.412 133.928 221.824L135.692 221.068ZM129.662 219.448V220.546H138.392V219.448H129.662ZM129.662 216.856V217.936H138.392V216.856H129.662ZM127.556 215.236H140.606V222.166H127.556V215.236Z" fill="black"/>
<path d="M82.744 213.856L84.552 214.432V222.752H82.744V213.856ZM93.896 213.952H95.752V222.624C95.752 223.051 95.704 223.413 95.608 223.712C95.512 224 95.3253 224.224 95.048 224.384C94.7707 224.544 94.44 224.645 94.056 224.688C93.6827 224.731 93.2453 224.752 92.744 224.752C92.7227 224.571 92.6747 224.363 92.6 224.128C92.5253 223.893 92.44 223.659 92.344 223.424C92.2587 223.189 92.168 222.987 92.072 222.816C92.4027 222.827 92.7173 222.837 93.016 222.848C93.3147 222.848 93.5173 222.848 93.624 222.848C93.7307 222.848 93.8 222.827 93.832 222.784C93.8747 222.741 93.896 222.672 93.896 222.576V213.952ZM81.496 222.432C82.1787 222.293 83 222.112 83.96 221.888C84.92 221.653 85.896 221.419 86.888 221.184L87.096 222.8C86.2107 223.045 85.3147 223.285 84.408 223.52C83.5013 223.755 82.6747 223.973 81.928 224.176L81.496 222.432ZM86.648 215.76H88.44V220.048C88.44 220.763 88.3813 221.472 88.264 222.176C88.1573 222.869 87.944 223.541 87.624 224.192C87.304 224.843 86.8293 225.445 86.2 226C85.5707 226.555 84.7333 227.04 83.688 227.456C83.6133 227.317 83.5067 227.152 83.368 226.96C83.24 226.779 83.096 226.603 82.936 226.432C82.7867 226.261 82.648 226.123 82.52 226.016C83.4373 225.653 84.168 225.248 84.712 224.8C85.2667 224.341 85.6827 223.856 85.96 223.344C86.2373 222.821 86.4187 222.283 86.504 221.728C86.6 221.163 86.648 220.592 86.648 220.016V215.76ZM89.704 213.952H94.872V215.696H91.512V227.44H89.704V213.952ZM87.256 212.432L88.968 213.648C88.4667 213.936 87.9387 214.224 87.384 214.512C86.8293 214.789 86.28 215.051 85.736 215.296C85.2027 215.541 84.696 215.749 84.216 215.92L82.984 214.864C83.432 214.661 83.9173 214.427 84.44 214.16C84.9627 213.883 85.4693 213.595 85.96 213.296C86.4613 212.987 86.8933 212.699 87.256 212.432Z" fill="black"/>
<path d="M39.098 177.18H46.945V179.612H39.098V177.18ZM45.064 177.18H47.8C47.9267 178.662 48.0913 180.119 48.294 181.55C48.5093 182.981 48.807 184.343 49.187 185.635C49.5797 186.914 50.0737 188.08 50.669 189.131C51.277 190.17 52.0307 191.05 52.93 191.772C52.7147 191.899 52.4677 192.07 52.189 192.285C51.9103 192.513 51.638 192.747 51.372 192.988C51.1187 193.229 50.897 193.444 50.707 193.634C49.795 192.798 49.0287 191.816 48.408 190.689C47.7873 189.549 47.2807 188.314 46.888 186.984C46.508 185.654 46.2103 184.261 45.995 182.804C45.7797 181.347 45.615 179.878 45.501 178.396H45.064V177.18ZM39.592 181.265L42.233 181.626C42.043 182.728 41.8023 183.849 41.511 184.989C41.2323 186.116 40.884 187.218 40.466 188.295C40.048 189.359 39.554 190.36 38.984 191.297C38.414 192.222 37.7427 193.032 36.97 193.729C36.8307 193.552 36.6407 193.355 36.4 193.14C36.172 192.937 35.9313 192.735 35.678 192.532C35.4373 192.342 35.222 192.184 35.032 192.057C35.754 191.449 36.3747 190.727 36.894 189.891C37.4133 189.042 37.8503 188.137 38.205 187.174C38.5597 186.199 38.8447 185.211 39.06 184.21C39.288 183.197 39.4653 182.215 39.592 181.265ZM38.053 213.138H49.852V215.437H38.053V213.138ZM38.015 207.324H49.852V209.585H38.015V207.324ZM36.837 201.624H51.22V216.653H48.788V203.942H39.136V216.672H36.837V201.624ZM42.404 198.774L45.387 199.173C45.0957 199.882 44.7853 200.573 44.456 201.244C44.1267 201.915 43.829 202.492 43.563 202.973L41.302 202.517C41.4413 202.15 41.5807 201.751 41.72 201.32C41.872 200.889 42.005 200.452 42.119 200.009C42.2457 199.566 42.3407 199.154 42.404 198.774ZM36.628 227.759H51.41V230.001H36.628V227.759ZM35.374 236.651H52.683V238.893H35.374V236.651ZM42.746 221.888H45.197V238.19H42.746V221.888ZM37.977 257.181H50.365V258.967H37.977V257.181ZM38.471 254.122H51.22V256.022H38.471V254.122ZM35.621 260.259H52.436V262.216H35.621V260.259ZM42.898 252.963H45.254V261.608H42.898V252.963ZM39.706 249.866V250.892H48.142V249.866H39.706ZM39.706 247.263V248.251H48.142V247.263H39.706ZM37.464 245.534H50.498V252.621H37.464V245.534ZM38.452 252.431L40.675 253.077C40.3963 253.698 40.0607 254.306 39.668 254.901C39.2753 255.496 38.8573 256.054 38.414 256.573C37.9707 257.092 37.5337 257.542 37.103 257.922C36.951 257.783 36.761 257.624 36.533 257.447C36.305 257.27 36.0707 257.099 35.83 256.934C35.5893 256.757 35.374 256.617 35.184 256.516C35.8427 256.022 36.4633 255.414 37.046 254.692C37.6413 253.957 38.11 253.204 38.452 252.431Z" fill="black"/>
<path d="M390.761 177.674H405.258V180.011H390.761V177.674ZM392.072 183.792H403.738V186.11H392.072V183.792ZM389.697 190.233H406.265V192.551H389.697V190.233ZM389.773 199.629H397.145V201.339H389.773V199.629ZM389.469 208.369H406.512V210.155H389.469V208.369ZM389.982 202.593H396.803V204.284H389.982V202.593ZM394.143 214.411H403.396V216.121H394.143V214.411ZM389.393 205.899C390.077 205.861 390.85 205.817 391.711 205.766C392.585 205.715 393.503 205.665 394.466 205.614C395.429 205.551 396.391 205.487 397.354 205.424L397.335 207.153C395.954 207.254 394.574 207.356 393.193 207.457C391.812 207.546 390.596 207.628 389.545 207.704L389.393 205.899ZM392.414 200.294H394.561V206.222L392.414 206.488V200.294ZM401.021 198.85L403.529 199.059C403.352 199.502 403.174 199.92 402.997 200.313C402.82 200.706 402.655 201.048 402.503 201.339L400.527 201.035C400.628 200.693 400.723 200.326 400.812 199.933C400.913 199.54 400.983 199.179 401.021 198.85ZM400.071 204.55V205.766H403.776V204.55H400.071ZM400.071 201.757V202.954H403.776V201.757H400.071ZM397.981 200.047H405.942V207.476H397.981V200.047ZM394.732 208.711L396.784 209.395C396.29 210.206 395.695 210.966 394.998 211.675C394.301 212.384 393.548 213.024 392.737 213.594C391.926 214.164 391.103 214.652 390.267 215.057C390.178 214.905 390.052 214.715 389.887 214.487C389.722 214.246 389.551 214.012 389.374 213.784C389.197 213.556 389.032 213.372 388.88 213.233C389.665 212.916 390.432 212.53 391.179 212.074C391.926 211.618 392.604 211.105 393.212 210.535C393.833 209.965 394.339 209.357 394.732 208.711ZM392.623 211.333H405.03V216.615H402.579V213.043H394.979V216.71H392.623V211.333ZM389.659 226.296H406.379V228.557H389.659V226.296ZM396.784 221.869H399.216V239.71H396.784V221.869ZM396.29 227.531L398.304 228.215C397.873 229.216 397.379 230.185 396.822 231.122C396.265 232.059 395.65 232.946 394.979 233.782C394.32 234.618 393.611 235.391 392.851 236.1C392.104 236.797 391.318 237.398 390.495 237.905C390.368 237.715 390.204 237.5 390.001 237.259C389.798 237.018 389.589 236.784 389.374 236.556C389.159 236.315 388.962 236.119 388.785 235.967C389.57 235.536 390.33 235.017 391.065 234.409C391.812 233.788 392.515 233.111 393.174 232.376C393.833 231.629 394.422 230.843 394.941 230.02C395.473 229.197 395.923 228.367 396.29 227.531ZM399.653 227.626C400.02 228.437 400.476 229.241 401.021 230.039C401.566 230.837 402.167 231.597 402.826 232.319C403.497 233.041 404.2 233.706 404.935 234.314C405.67 234.922 406.423 235.435 407.196 235.853C407.019 235.992 406.816 236.182 406.588 236.423C406.373 236.651 406.164 236.892 405.961 237.145C405.771 237.398 405.613 237.626 405.486 237.829C404.688 237.322 403.922 236.727 403.187 236.043C402.452 235.346 401.749 234.586 401.078 233.763C400.407 232.927 399.792 232.047 399.235 231.122C398.678 230.197 398.177 229.254 397.734 228.291L399.653 227.626ZM391.977 257.181H404.365V258.967H391.977V257.181ZM392.471 254.122H405.22V256.022H392.471V254.122ZM389.621 260.259H406.436V262.216H389.621V260.259ZM396.898 252.963H399.254V261.608H396.898V252.963ZM393.706 249.866V250.892H402.142V249.866H393.706ZM393.706 247.263V248.251H402.142V247.263H393.706ZM391.464 245.534H404.498V252.621H391.464V245.534ZM392.452 252.431L394.675 253.077C394.396 253.698 394.061 254.306 393.668 254.901C393.275 255.496 392.857 256.054 392.414 256.573C391.971 257.092 391.534 257.542 391.103 257.922C390.951 257.783 390.761 257.624 390.533 257.447C390.305 257.27 390.071 257.099 389.83 256.934C389.589 256.757 389.374 256.617 389.184 256.516C389.843 256.022 390.463 255.414 391.046 254.692C391.641 253.957 392.11 253.204 392.452 252.431Z" fill="black"/>
<path d="M148.246 170.277L159.549 158.974L160.974 160.4L149.672 171.702L148.246 170.277ZM156.52 172.95L162.209 167.26L163.393 168.444L157.703 174.133L156.52 172.95ZM158.276 175.241L164.513 169.004L165.735 170.226L159.498 176.462L158.276 175.241ZM159.192 171.448L160.631 170.009L165.111 174.49L163.673 175.928L159.192 171.448ZM151.11 172.173L160.325 162.958L161.725 164.358L154.038 172.046L161.127 179.135L159.6 180.663L151.11 172.173ZM159.892 163.391L161.458 161.825L168.42 168.788C168.785 169.152 169.014 169.483 169.107 169.78C169.209 170.086 169.184 170.417 169.031 170.773C168.878 171.146 168.62 171.533 168.255 171.931C167.907 172.33 167.474 172.788 166.956 173.306C166.727 173.145 166.439 172.992 166.091 172.848C165.752 172.695 165.442 172.58 165.162 172.504C165.382 172.3 165.607 172.093 165.836 171.88C166.065 171.668 166.269 171.473 166.447 171.295C166.625 171.1 166.744 170.972 166.804 170.913C166.922 170.794 166.986 170.697 166.995 170.62C166.995 170.535 166.948 170.446 166.855 170.353L159.892 163.391ZM155.654 171.117L156.507 169.551C156.863 169.602 157.237 169.695 157.627 169.831C158.026 169.958 158.357 170.086 158.62 170.213L157.767 171.906C157.512 171.753 157.186 171.605 156.787 171.46C156.388 171.316 156.01 171.202 155.654 171.117ZM158.912 167.197L160.554 166.267C160.69 166.743 160.817 167.209 160.936 167.667C161.055 168.109 161.144 168.512 161.203 168.877L159.791 169.628C159.731 169.381 159.651 169.114 159.549 168.826C159.455 168.529 159.354 168.24 159.243 167.96C159.133 167.68 159.023 167.426 158.912 167.197ZM152.116 164.473L153.783 162.805L158.123 167.146L156.456 168.813L152.116 164.473ZM161 157.523L172.302 146.221L173.728 147.646L162.425 158.949L161 157.523ZM164.754 151.681L166.345 150.09L178.297 162.042L176.706 163.633L164.754 151.681ZM171.628 159.343L173.46 158.58C173.588 159.301 173.656 160.048 173.664 160.82C173.681 161.584 173.643 162.36 173.549 163.149C173.456 163.921 173.312 164.685 173.117 165.44C172.939 166.195 172.714 166.912 172.442 167.591C172.23 167.549 171.984 167.506 171.704 167.464C171.424 167.421 171.14 167.392 170.851 167.375C170.563 167.358 170.312 167.354 170.1 167.362C170.406 166.734 170.673 166.076 170.902 165.389C171.123 164.693 171.305 163.993 171.449 163.289C171.585 162.576 171.67 161.889 171.704 161.227C171.738 160.548 171.712 159.92 171.628 159.343ZM174.097 156.976C174.674 157.044 175.297 157.057 175.968 157.014C176.638 156.955 177.33 156.857 178.042 156.721C178.755 156.569 179.459 156.374 180.155 156.136C180.843 155.89 181.5 155.614 182.128 155.309C182.111 155.529 182.107 155.788 182.115 156.085C182.141 156.382 182.171 156.675 182.204 156.963C182.255 157.252 182.306 157.506 182.357 157.727C181.687 158.007 180.974 158.236 180.219 158.414C179.472 158.601 178.709 158.745 177.928 158.847C177.147 158.932 176.371 158.97 175.599 158.962C174.835 158.945 174.097 158.877 173.384 158.758L174.097 156.976ZM168.687 160.094L169.464 160.871L175.637 154.698L174.86 153.921L168.687 160.094ZM166.855 158.262L167.618 159.025L173.791 152.852L173.028 152.088L166.855 158.262ZM164.22 158.605L173.448 149.377L178.348 154.278L169.12 163.505L164.22 158.605Z" fill="black"/>
<path d="M113.785 145.701L122.248 137.238L123.56 138.551L115.098 147.013L113.785 145.701ZM117.847 149.876L126.626 141.096L127.86 142.329L119.08 151.109L117.847 149.876ZM117.179 146.47L123.345 140.304L124.567 141.526L118.401 147.692L117.179 146.47ZM113.005 146.482L114.362 145.124L117.802 148.563C118.284 149.046 118.797 149.589 119.34 150.192C119.883 150.796 120.415 151.441 120.936 152.127C121.456 152.813 121.916 153.522 122.316 154.254C122.723 154.978 123.025 155.702 123.221 156.426C123.063 156.434 122.863 156.468 122.621 156.528C122.388 156.581 122.15 156.645 121.909 156.72C121.675 156.788 121.479 156.864 121.32 156.947C121.147 156.275 120.879 155.616 120.517 154.967C120.155 154.318 119.74 153.692 119.273 153.089C118.805 152.485 118.326 151.916 117.836 151.38C117.345 150.845 116.878 150.355 116.433 149.91L113.005 146.482ZM119.827 148.846L121.151 147.522L125.427 151.799L124.103 153.123L119.827 148.846ZM122.814 154.005C123.146 153.583 123.515 153.093 123.922 152.534C124.33 151.961 124.76 151.358 125.212 150.724C125.672 150.083 126.129 149.446 126.581 148.812L127.848 149.921C127.449 150.517 127.037 151.124 126.615 151.742C126.193 152.361 125.782 152.953 125.382 153.519C124.997 154.084 124.639 154.609 124.307 155.091L122.814 154.005ZM123.108 145.565C124.036 146.131 124.96 146.527 125.88 146.753C126.8 146.979 127.731 147.006 128.674 146.832C129.625 146.651 130.605 146.236 131.616 145.588C131.616 145.784 131.631 146.01 131.661 146.267C131.699 146.516 131.744 146.764 131.797 147.013C131.857 147.27 131.921 147.492 131.989 147.681C130.835 148.337 129.723 148.733 128.652 148.869C127.581 148.989 126.51 148.884 125.438 148.552C124.367 148.22 123.247 147.703 122.078 147.002L123.108 145.565ZM126.457 143.755L128.425 143.348C128.342 143.823 128.241 144.317 128.12 144.83C128.007 145.335 127.882 145.829 127.746 146.312C127.611 146.78 127.479 147.213 127.35 147.613L125.767 147.839C125.88 147.439 125.982 146.998 126.072 146.516C126.17 146.025 126.253 145.543 126.321 145.067C126.389 144.577 126.434 144.14 126.457 143.755ZM138.987 145.072L126.146 132.231L127.232 131.145L140.073 143.986L138.987 145.072ZM137.375 129.488L144.084 122.779L145.419 124.114L138.71 130.823L137.375 129.488ZM133.788 125.947L141.233 118.503L146.754 124.024L145.351 125.427L141.165 121.24L135.123 127.282L133.788 125.947ZM132.974 126.762L134.388 125.347L141.674 132.633C141.968 132.927 142.221 133.12 142.432 133.21C142.636 133.293 142.858 133.259 143.099 133.109C143.348 132.95 143.68 132.664 144.095 132.249C144.216 132.128 144.404 131.939 144.661 131.683C144.917 131.427 145.204 131.14 145.521 130.823C145.845 130.499 146.169 130.174 146.494 129.85C146.818 129.526 147.108 129.235 147.365 128.979C147.629 128.715 147.821 128.523 147.942 128.402C148.319 128.025 148.56 127.701 148.666 127.429C148.771 127.142 148.749 126.833 148.598 126.501C148.44 126.162 148.149 125.721 147.727 125.178C147.923 125.132 148.138 125.068 148.372 124.985C148.598 124.895 148.824 124.789 149.05 124.668C149.277 124.548 149.469 124.438 149.627 124.34C150.035 124.868 150.348 125.355 150.566 125.8C150.778 126.237 150.88 126.656 150.872 127.056C150.872 127.448 150.748 127.851 150.499 128.266C150.265 128.681 149.903 129.134 149.412 129.624C149.322 129.714 149.171 129.865 148.96 130.076C148.756 130.28 148.519 130.518 148.247 130.789C147.983 131.053 147.708 131.328 147.421 131.615C147.135 131.902 146.859 132.177 146.595 132.441C146.331 132.705 146.098 132.939 145.894 133.142C145.698 133.339 145.555 133.482 145.464 133.572C144.913 134.123 144.423 134.545 143.993 134.84C143.563 135.134 143.152 135.303 142.76 135.349C142.368 135.394 141.972 135.307 141.572 135.088C141.165 134.862 140.724 134.511 140.248 134.036L132.974 126.762Z" fill="black"/>
<path d="M78.0362 123.962L79.7962 122.202C80.853 123.277 81.8696 124.339 82.8459 125.386C83.8132 126.425 84.682 127.473 85.4523 128.53C86.2136 129.578 86.8316 130.662 87.3063 131.782C87.7721 132.892 88.0453 134.07 88.1259 135.315C88.2065 136.542 88.0363 137.859 87.6153 139.265C87.4093 139.202 87.1541 139.153 86.8495 139.117C86.554 139.09 86.2494 139.072 85.936 139.063C85.6404 139.054 85.3762 139.077 85.1433 139.131C85.5553 137.841 85.73 136.654 85.6673 135.57C85.6135 134.478 85.3806 133.448 84.9686 132.48C84.5477 131.504 83.9834 130.554 83.2758 129.632C82.5682 128.709 81.7621 127.787 80.8575 126.864C79.9619 125.933 79.0214 124.966 78.0362 123.962ZM77.8078 130.425L86.0703 122.162L87.6959 123.788L79.4334 132.05L77.8078 130.425ZM85.1836 123.049L86.863 121.369L93.7686 128.275C94.0552 128.562 94.2612 128.723 94.3866 128.759C94.503 128.786 94.6419 128.718 94.8031 128.557C94.8389 128.521 94.8971 128.463 94.9777 128.382C95.0583 128.302 95.1479 128.212 95.2464 128.114C95.345 128.015 95.4345 127.926 95.5151 127.845C95.6047 127.756 95.6674 127.693 95.7032 127.657C95.8197 127.541 95.851 127.402 95.7973 127.241C95.7435 127.079 95.5823 126.837 95.3136 126.515C95.0449 126.193 94.6374 125.74 94.091 125.158C94.3239 125.122 94.5702 125.064 94.8299 124.983C95.0986 124.894 95.3674 124.795 95.6361 124.688C95.8958 124.571 96.1197 124.455 96.3078 124.339C96.9885 125.109 97.4811 125.772 97.7857 126.327C98.0812 126.873 98.1977 127.357 98.135 127.778C98.0812 128.208 97.8484 128.629 97.4363 129.041C97.3647 129.112 97.2662 129.211 97.1408 129.336C97.0154 129.462 96.881 129.596 96.7377 129.739C96.5944 129.883 96.4601 130.017 96.3347 130.142C96.2182 130.259 96.1287 130.348 96.066 130.411C95.6271 130.85 95.2106 131.132 94.8165 131.258C94.4403 131.383 94.0328 131.343 93.5939 131.137C93.164 130.922 92.658 130.523 92.0758 129.941L85.1836 123.049ZM101.682 117.675L103.348 116.009L107.11 119.771L105.444 121.437L101.682 117.675ZM95.8644 122.364C96.5183 121.71 97.2617 120.966 98.0947 120.133C98.9187 119.291 99.7964 118.396 100.728 117.446C101.65 116.488 102.604 115.507 103.59 114.504C104.566 113.492 105.538 112.493 106.505 111.508L107.701 112.865C106.778 113.859 105.842 114.858 104.893 115.861C103.952 116.855 103.03 117.832 102.125 118.79C101.221 119.73 100.365 120.63 99.5591 121.49C98.753 122.332 98.023 123.089 97.3692 123.761L95.8644 122.364ZM97.1273 113.738L99.2098 112.838C99.1829 113.635 99.1157 114.446 99.0082 115.27C98.9008 116.076 98.7709 116.797 98.6186 117.433L96.8049 118.091C96.8855 117.652 96.9572 117.178 97.0199 116.667C97.0826 116.139 97.1229 115.624 97.1408 115.122C97.1497 114.612 97.1453 114.15 97.1273 113.738ZM100.809 111.696L103.039 110.756C102.922 111.696 102.752 112.672 102.528 113.685C102.313 114.688 102.076 115.668 101.816 116.627C101.556 117.585 101.288 118.463 101.01 119.26L99.1292 119.824C99.4068 119.009 99.6621 118.118 99.895 117.151C100.137 116.175 100.338 115.212 100.5 114.262C100.652 113.304 100.755 112.449 100.809 111.696ZM95.6361 119.448L95.851 117.352C96.3705 117.137 96.9258 116.931 97.517 116.734C98.1081 116.519 98.6858 116.327 99.2501 116.157C99.8054 115.977 100.298 115.834 100.728 115.727L100.62 117.957C100.199 118.038 99.6979 118.163 99.1157 118.333C98.5335 118.485 97.9379 118.66 97.3289 118.857C96.7288 119.045 96.1645 119.242 95.6361 119.448ZM105.941 116.99L106.599 114.853C107.119 114.674 107.678 114.509 108.278 114.356C108.87 114.195 109.452 114.052 110.025 113.926C110.598 113.783 111.095 113.671 111.516 113.591L110.925 115.874C110.504 115.919 110.003 116 109.42 116.116C108.847 116.242 108.252 116.381 107.634 116.533C107.016 116.667 106.451 116.819 105.941 116.99ZM100.325 121.181L102.448 120.241C102.439 120.769 102.38 121.347 102.273 121.974C102.174 122.592 102.045 123.206 101.883 123.815C101.731 124.415 101.565 124.974 101.386 125.494C101.189 125.494 100.938 125.503 100.634 125.521C100.347 125.539 100.052 125.566 99.7472 125.601C99.4606 125.637 99.2142 125.678 99.0082 125.722C99.3486 124.988 99.6442 124.209 99.895 123.385C100.146 122.561 100.289 121.826 100.325 121.181ZM103.24 113.349L104.02 111.36C104.611 111.289 105.247 111.235 105.927 111.199C106.617 111.154 107.284 111.132 107.929 111.132C108.574 111.132 109.134 111.163 109.608 111.226L108.776 113.402C108.337 113.322 107.804 113.273 107.177 113.255C106.55 113.219 105.891 113.214 105.202 113.241C104.503 113.259 103.849 113.295 103.24 113.349ZM92.2639 111.723L94.7896 109.197L96.066 110.474L93.5402 112.999L92.2639 111.723ZM94.091 107.531L95.6898 105.933L99.1157 109.358C99.3307 109.573 99.5053 109.676 99.6397 109.668C99.774 109.641 99.9756 109.493 100.244 109.224C100.307 109.161 100.41 109.058 100.553 108.915C100.697 108.772 100.853 108.615 101.023 108.445C101.194 108.275 101.355 108.114 101.507 107.961C101.659 107.809 101.771 107.697 101.843 107.625C101.995 107.473 102.085 107.339 102.112 107.222C102.139 107.088 102.098 106.931 101.991 106.752C101.874 106.564 101.682 106.318 101.413 106.013C101.682 105.959 102.009 105.847 102.394 105.677C102.77 105.498 103.092 105.319 103.361 105.14C103.791 105.695 104.078 106.179 104.221 106.591C104.355 106.994 104.355 107.37 104.221 107.719C104.087 108.069 103.814 108.449 103.401 108.861C103.33 108.933 103.227 109.036 103.092 109.17C102.967 109.296 102.824 109.439 102.663 109.6C102.501 109.762 102.336 109.927 102.165 110.097C102.004 110.259 101.856 110.406 101.722 110.541C101.597 110.666 101.503 110.76 101.44 110.823C100.894 111.369 100.414 111.732 100.002 111.911C99.5994 112.081 99.2053 112.09 98.8202 111.938C98.435 111.768 98.0051 111.445 97.5304 110.971L94.091 107.531ZM91.5115 118.333C91.9862 117.769 92.5281 117.111 93.1371 116.358C93.7462 115.588 94.3866 114.777 95.0583 113.926C95.7391 113.067 96.4153 112.211 97.087 111.36L98.3902 112.583C97.7722 113.416 97.1453 114.258 96.5093 115.109C95.8644 115.951 95.2509 116.761 94.6687 117.54C94.0865 118.302 93.5581 119 93.0834 119.636L91.5115 118.333ZM98.9948 103.917L101.319 103.85C101.077 104.468 100.786 105.109 100.446 105.771C100.105 106.416 99.7427 107.066 99.3576 107.719C98.9635 108.364 98.5738 108.978 98.1887 109.56C98.0006 109.426 97.7453 109.296 97.4229 109.17C97.1005 109.027 96.8183 108.924 96.5765 108.861C96.8989 108.306 97.2214 107.733 97.5438 107.142C97.8663 106.551 98.1529 105.977 98.4037 105.422C98.6545 104.867 98.8515 104.365 98.9948 103.917ZM90.4233 111.199L91.9145 109.708L96.4825 114.276L95.0986 115.874L90.4233 111.199ZM89.2275 114.383L90.6113 112.999L94.306 116.694L93.0431 118.199L89.2275 114.383ZM105.444 101.526L107.432 100.263C107.916 100.89 108.355 101.535 108.749 102.198C109.152 102.851 109.465 103.523 109.689 104.213C109.904 104.894 109.98 105.588 109.917 106.295L107.539 106.846C107.593 106.237 107.535 105.641 107.365 105.059C107.195 104.459 106.944 103.868 106.612 103.286C106.281 102.686 105.891 102.099 105.444 101.526ZM113.679 93.2633L116.138 92.1482C116.335 92.811 116.536 93.4962 116.742 94.2038C116.94 94.9024 117.119 95.5831 117.28 96.2459C117.441 96.8908 117.558 97.4819 117.629 98.0193L115.627 98.7851C115.502 98.2477 115.336 97.6521 115.13 96.9983C114.933 96.3355 114.709 95.6816 114.459 95.0368C114.199 94.3829 113.939 93.7918 113.679 93.2633ZM107.23 94.7681L108.104 93.8948L112.322 98.1134C112.654 98.4448 113.052 98.7717 113.518 99.0941C113.993 99.4076 114.521 99.6853 115.103 99.9271C115.686 100.169 116.322 100.357 117.011 100.491C117.71 100.617 118.453 100.671 119.241 100.653C120.03 100.635 120.863 100.527 121.74 100.33C122.618 100.115 123.536 99.7883 124.494 99.3494C124.486 99.5912 124.499 99.8734 124.535 100.196C124.571 100.518 124.615 100.841 124.669 101.163C124.732 101.477 124.799 101.75 124.871 101.983C123.966 102.368 123.075 102.641 122.197 102.802C121.319 102.963 120.482 103.049 119.685 103.057C118.888 103.049 118.144 102.986 117.455 102.869C116.765 102.753 116.151 102.605 115.614 102.426C115.085 102.238 114.647 102.05 114.297 101.862C114.512 102.202 114.714 102.637 114.902 103.165C115.099 103.684 115.26 104.285 115.386 104.965C115.511 105.628 115.578 106.349 115.587 107.128C115.605 107.899 115.538 108.718 115.386 109.587C115.242 110.447 114.991 111.324 114.633 112.22C114.436 112.166 114.185 112.122 113.881 112.086C113.576 112.05 113.263 112.023 112.94 112.005C112.618 111.987 112.345 111.983 112.121 111.992C112.631 110.872 112.967 109.802 113.128 108.781C113.29 107.742 113.326 106.774 113.236 105.879C113.146 104.983 112.967 104.159 112.699 103.407C112.43 102.637 112.112 101.96 111.745 101.378C111.377 100.778 110.988 100.272 110.576 99.8599L106.357 95.6413L107.23 94.7681ZM125.005 94.056L133.765 85.2964L135.028 86.5593L126.268 95.3189L125.005 94.056ZM123.191 91.5437L132.206 82.5287L133.55 83.8722L124.535 92.8872L123.191 91.5437ZM125.516 97.8984L137.406 86.0084L138.789 87.3922L126.899 99.2822L125.516 97.8984ZM125.502 87.5938L127.168 85.9278L133.281 92.0407L131.615 93.7067L125.502 87.5938ZM121.055 87.6609L121.781 88.3864L127.746 82.4213L127.02 81.6958L121.055 87.6609ZM119.215 85.8203L119.913 86.519L125.878 80.5538L125.18 79.8552L119.215 85.8203ZM116.407 86.1831L125.623 76.9666L130.634 81.9779L121.418 91.1943L116.407 86.1831ZM121.982 90.3614L124.011 89.2463C124.253 89.8822 124.445 90.5495 124.589 91.2481C124.732 91.9467 124.83 92.6364 124.884 93.3171C124.938 93.9978 124.947 94.6248 124.911 95.198C124.705 95.2069 124.459 95.2293 124.172 95.2652C123.885 95.301 123.599 95.3458 123.312 95.3995C123.017 95.4443 122.766 95.498 122.56 95.5607C122.676 94.7457 122.685 93.8769 122.587 92.9543C122.488 92.0139 122.287 91.1496 121.982 90.3614Z" fill="black"/>
<path d="M269.936 145.246L281.239 156.549L279.813 157.974L268.511 146.672L269.936 145.246ZM267.264 153.52L272.953 159.209L271.769 160.393L266.08 154.703L267.264 153.52ZM264.973 155.276L271.209 161.513L269.987 162.735L263.751 156.498L264.973 155.276ZM268.765 156.192L270.204 157.631L265.724 162.111L264.285 160.673L268.765 156.192ZM268.04 148.11L277.255 157.325L275.855 158.725L268.167 151.038L261.078 158.127L259.55 156.6L268.04 148.11ZM276.822 156.892L278.388 158.458L271.426 165.42C271.061 165.785 270.73 166.014 270.433 166.107C270.127 166.209 269.796 166.184 269.44 166.031C269.067 165.878 268.681 165.62 268.282 165.255C267.883 164.907 267.425 164.474 266.907 163.956C267.068 163.727 267.221 163.439 267.365 163.091C267.518 162.752 267.633 162.442 267.709 162.162C267.913 162.382 268.121 162.607 268.333 162.836C268.545 163.065 268.74 163.269 268.918 163.447C269.113 163.625 269.241 163.744 269.3 163.804C269.419 163.922 269.516 163.986 269.593 163.995C269.678 163.995 269.767 163.948 269.86 163.855L276.822 156.892ZM269.096 152.654L270.662 153.507C270.611 153.863 270.518 154.237 270.382 154.627C270.255 155.026 270.127 155.357 270 155.62L268.307 154.767C268.46 154.512 268.609 154.186 268.753 153.787C268.897 153.388 269.012 153.01 269.096 152.654ZM273.017 155.912L273.946 157.554C273.471 157.69 273.004 157.817 272.546 157.936C272.104 158.055 271.701 158.144 271.337 158.203L270.586 156.791C270.832 156.731 271.099 156.651 271.387 156.549C271.684 156.455 271.973 156.354 272.253 156.243C272.533 156.133 272.788 156.023 273.017 155.912ZM275.74 149.116L277.408 150.783L273.068 155.123L271.4 153.456L275.74 149.116ZM275.346 168.093L283.975 176.723L282.563 178.135L273.933 169.506L275.346 168.093ZM280.59 160.889L291.09 171.39L282.753 179.726L281.201 178.174L288.125 171.25L280.666 163.791L273.717 170.74L272.227 169.251L280.59 160.889ZM285.757 167.227L287.221 168.691L284.93 170.982C284.769 171.143 284.68 171.258 284.663 171.326C284.663 171.394 284.726 171.491 284.854 171.619C284.879 171.644 284.934 171.699 285.019 171.784C285.112 171.877 285.201 171.967 285.286 172.051C285.38 172.145 285.448 172.213 285.49 172.255C285.566 172.331 285.634 172.374 285.694 172.382C285.77 172.391 285.863 172.357 285.974 172.28C286.092 172.213 286.254 172.085 286.457 171.899C286.474 172.051 286.517 172.238 286.585 172.459C286.669 172.679 286.763 172.9 286.865 173.121C286.983 173.341 287.098 173.532 287.208 173.693C286.759 174.024 286.372 174.241 286.05 174.342C285.728 174.444 285.431 174.444 285.159 174.342C284.896 174.249 284.62 174.058 284.332 173.77C284.264 173.702 284.183 173.621 284.09 173.528C283.997 173.434 283.895 173.333 283.784 173.222C283.683 173.121 283.585 173.023 283.492 172.93C283.398 172.836 283.322 172.76 283.263 172.7C282.855 172.293 282.592 171.928 282.473 171.606C282.363 171.292 282.393 170.974 282.563 170.651C282.732 170.329 283.029 169.956 283.453 169.531L285.757 167.227ZM282.932 157.529L294.374 168.971L292.898 170.448L281.455 159.005L282.932 157.529ZM285.286 162.124L286.788 163.625L284.243 166.171L282.741 164.669L285.286 162.124ZM288.074 164.911L289.614 166.451L287.068 168.997L285.528 167.457L288.074 164.911ZM283.339 164.224L284.764 165.649L283.504 166.909C283.08 167.334 282.588 167.715 282.028 168.055C281.468 168.394 280.832 168.615 280.119 168.717C279.406 168.818 278.604 168.729 277.713 168.449C277.739 168.288 277.747 168.076 277.739 167.813C277.73 167.55 277.709 167.283 277.675 167.011C277.65 166.748 277.616 166.536 277.573 166.375C278.379 166.638 279.062 166.744 279.622 166.693C280.191 166.65 280.675 166.506 281.073 166.26C281.472 166.014 281.82 165.743 282.117 165.446L283.339 164.224Z" fill="black"/>
<path d="M291.07 119.263L301.207 129.4L299.861 130.746L289.724 120.609L291.07 119.263ZM294.713 117.317L303.176 125.78L301.83 127.126L293.367 118.663L294.713 117.317ZM299.872 119.082L301.321 120.53L290.697 131.154L289.249 129.706L299.872 119.082ZM294.363 124.117L295.053 125.78C294.336 125.953 293.589 126.081 292.813 126.164C292.043 126.24 291.266 126.262 290.482 126.232C289.705 126.21 288.94 126.138 288.185 126.017C287.446 125.897 286.737 125.731 286.058 125.52C286.104 125.323 286.138 125.093 286.16 124.829C286.19 124.573 286.209 124.313 286.217 124.049C286.239 123.785 286.243 123.547 286.228 123.336C286.854 123.585 287.514 123.792 288.208 123.958C288.917 124.124 289.63 124.241 290.346 124.309C291.063 124.377 291.76 124.396 292.439 124.366C293.126 124.328 293.767 124.245 294.363 124.117ZM296.286 126.063C296.15 126.651 296.063 127.288 296.026 127.975C296.003 128.661 296.026 129.362 296.094 130.079C296.161 130.795 296.271 131.501 296.422 132.195C296.588 132.889 296.791 133.545 297.033 134.163C296.844 134.141 296.614 134.137 296.342 134.152C296.086 134.167 295.826 134.193 295.562 134.231C295.298 134.269 295.068 134.31 294.872 134.356C294.668 133.684 294.51 132.975 294.397 132.229C294.283 131.482 294.216 130.72 294.193 129.943C294.178 129.159 294.208 128.382 294.283 127.613C294.366 126.851 294.495 126.112 294.668 125.395L296.286 126.063ZM297.141 141.987L309.982 129.146L311.068 130.232L298.227 143.073L297.141 141.987ZM314.332 136.551L323.507 145.726L316.775 152.458L315.361 151.044L320.792 145.613L314.388 139.209L308.901 144.697L307.543 143.339L314.332 136.551ZM312.782 139.888L320.317 147.423L319.061 148.679L311.526 141.144L312.782 139.888ZM310.327 142.321L317.895 149.89L316.594 151.191L309.025 143.622L310.327 142.321ZM319.66 138.847L321.086 140.273L310.462 150.896L309.037 149.471L319.66 138.847Z" fill="black"/>
<path d="M262.219 284.25L265.999 280.469L267.514 281.984L263.734 285.764L262.219 284.25ZM265.63 275.213L267.221 273.622L276.398 282.799C276.754 283.155 277.013 283.354 277.175 283.397C277.327 283.431 277.522 283.329 277.76 283.091C277.811 283.04 277.896 282.956 278.015 282.837C278.133 282.718 278.265 282.586 278.409 282.442C278.553 282.298 278.685 282.166 278.804 282.048C278.922 281.929 279.012 281.84 279.071 281.78C279.241 281.611 279.296 281.411 279.236 281.182C279.177 280.953 278.978 280.635 278.638 280.227C278.299 279.803 277.802 279.239 277.149 278.535C277.37 278.501 277.612 278.446 277.875 278.369C278.146 278.284 278.409 278.191 278.664 278.089C278.91 277.979 279.122 277.869 279.3 277.758C280.064 278.624 280.632 279.37 281.006 279.998C281.387 280.618 281.553 281.174 281.502 281.666C281.468 282.158 281.209 282.646 280.726 283.129C280.658 283.197 280.543 283.312 280.382 283.473C280.221 283.634 280.047 283.808 279.86 283.995C279.682 284.173 279.516 284.339 279.364 284.491C279.211 284.644 279.096 284.759 279.02 284.835C278.536 285.319 278.082 285.628 277.658 285.764C277.251 285.9 276.822 285.853 276.373 285.624C275.914 285.387 275.388 284.971 274.794 284.377L265.63 275.213ZM262.423 278.42L264.014 276.829L275.622 288.437L274.031 290.028L262.423 278.42ZM271.727 272.909L274.209 273.176C274.065 273.914 273.895 274.678 273.7 275.467C273.496 276.248 273.28 277.033 273.051 277.822C272.822 278.594 272.584 279.341 272.338 280.062C272.117 279.943 271.829 279.833 271.472 279.731C271.108 279.621 270.794 279.536 270.531 279.477C270.743 278.772 270.929 278.034 271.091 277.262C271.252 276.49 271.383 275.73 271.485 274.984C271.595 274.228 271.676 273.537 271.727 272.909ZM267.527 290.473C267.773 290.024 268.053 289.498 268.367 288.895C268.672 288.284 268.99 287.635 269.321 286.948C269.644 286.252 269.966 285.565 270.289 284.886L271.956 285.968C271.608 286.893 271.239 287.83 270.849 288.781C270.467 289.723 270.115 290.584 269.792 291.364L267.527 290.473ZM283.093 276.867L291.723 268.238L293.135 269.651L284.506 278.28L283.093 276.867ZM275.889 271.623L286.39 261.123L294.726 269.46L293.174 271.012L286.25 264.088L278.791 271.547L285.74 278.496L284.251 279.986L275.889 271.623ZM282.227 266.456L283.691 264.992L285.982 267.283C286.143 267.444 286.258 267.534 286.326 267.55C286.394 267.55 286.491 267.487 286.619 267.36C286.644 267.334 286.699 267.279 286.784 267.194C286.877 267.101 286.967 267.012 287.051 266.927C287.145 266.833 287.213 266.766 287.255 266.723C287.331 266.647 287.374 266.579 287.382 266.52C287.391 266.443 287.357 266.35 287.28 266.24C287.213 266.121 287.085 265.959 286.899 265.756C287.051 265.739 287.238 265.696 287.459 265.629C287.679 265.544 287.9 265.45 288.121 265.349C288.341 265.23 288.532 265.115 288.693 265.005C289.024 265.455 289.241 265.841 289.342 266.163C289.444 266.486 289.444 266.783 289.342 267.054C289.249 267.317 289.058 267.593 288.77 267.881C288.702 267.949 288.621 268.03 288.528 268.123C288.434 268.217 288.333 268.318 288.222 268.429C288.121 268.531 288.023 268.628 287.93 268.721C287.836 268.815 287.76 268.891 287.7 268.951C287.293 269.358 286.928 269.621 286.606 269.74C286.292 269.85 285.974 269.82 285.651 269.651C285.329 269.481 284.956 269.184 284.531 268.76L282.227 266.456ZM272.529 269.281L283.971 257.839L285.448 259.316L274.005 270.758L272.529 269.281ZM277.124 266.927L278.625 265.425L281.171 267.971L279.669 269.472L277.124 266.927ZM279.911 264.139L281.451 262.599L283.997 265.145L282.457 266.685L279.911 264.139ZM279.224 268.874L280.649 267.449L281.909 268.709C282.334 269.133 282.715 269.625 283.055 270.185C283.394 270.745 283.615 271.382 283.717 272.094C283.818 272.807 283.729 273.609 283.449 274.5C283.288 274.474 283.076 274.466 282.813 274.474C282.55 274.483 282.283 274.504 282.011 274.538C281.748 274.564 281.536 274.598 281.375 274.64C281.638 273.834 281.744 273.151 281.693 272.591C281.65 272.022 281.506 271.539 281.26 271.14C281.014 270.741 280.743 270.393 280.446 270.096L279.224 268.874Z" fill="black"/>
<path d="M288.67 316.441L288.817 314.484C289.345 314.333 289.926 314.182 290.56 314.032C291.193 313.881 291.816 313.756 292.427 313.658C293.03 313.553 293.554 313.496 293.999 313.488L293.886 315.638C293.471 315.631 292.962 315.665 292.359 315.74C291.755 315.815 291.129 315.913 290.481 316.034C289.832 316.155 289.228 316.291 288.67 316.441ZM297.269 315.627L297.619 313.511C298.042 313.39 298.517 313.262 299.045 313.126C299.565 312.983 300.09 312.844 300.618 312.708C301.146 312.572 301.658 312.459 302.156 312.368C302.654 312.263 303.092 312.187 303.469 312.142L303.141 314.507C302.801 314.529 302.39 314.578 301.907 314.654C301.425 314.729 300.916 314.824 300.38 314.937C299.845 315.035 299.309 315.148 298.773 315.276C298.23 315.397 297.729 315.514 297.269 315.627ZM289.949 310.524L291.997 309.744C292.004 310.309 291.997 310.89 291.974 311.486C291.944 312.074 291.906 312.648 291.861 313.206C291.816 313.749 291.755 314.247 291.68 314.699L289.983 315.219C290.036 314.744 290.069 314.235 290.085 313.692C290.1 313.134 290.096 312.58 290.073 312.029C290.058 311.471 290.017 310.969 289.949 310.524ZM284.993 313.941L295.153 303.781L296.42 305.048L286.261 315.208L284.993 313.941ZM288.048 308.352L289.474 306.927L291.295 308.748L289.87 310.174L288.048 308.352ZM293.581 308.816L295.481 308.228C295.655 309.517 295.647 310.83 295.459 312.165C295.27 313.485 294.938 314.797 294.463 316.102C293.98 317.399 293.392 318.681 292.698 319.949C292.434 319.851 292.11 319.768 291.725 319.7C291.34 319.617 290.982 319.568 290.65 319.553C291.359 318.391 291.966 317.203 292.472 315.989C292.97 314.767 293.324 313.545 293.535 312.323C293.746 311.101 293.762 309.932 293.581 308.816ZM296.828 309.28L298.841 308.714C299.09 310.29 299.087 311.856 298.83 313.409C298.574 314.963 298.117 316.513 297.461 318.059C296.805 319.59 295.994 321.118 295.029 322.641C294.742 322.521 294.399 322.411 293.999 322.313C293.614 322.215 293.252 322.155 292.913 322.132C293.871 320.707 294.689 319.27 295.368 317.822C296.039 316.366 296.511 314.922 296.782 313.488C297.061 312.048 297.076 310.645 296.828 309.28ZM310.987 311.072L298.146 298.231L299.232 297.145L312.073 309.986L310.987 311.072ZM311.456 286.618L311.479 284.989C311.796 284.883 312.139 284.789 312.509 284.706C312.886 284.616 313.252 284.544 313.606 284.491C313.961 284.423 314.262 284.393 314.511 284.401L314.534 286.166C314.285 286.143 313.983 286.158 313.629 286.211C313.274 286.249 312.905 286.301 312.52 286.369C312.135 286.437 311.781 286.52 311.456 286.618ZM315.597 288.293L317.317 287.32C318.245 289.349 318.799 291.381 318.98 293.418C319.161 295.454 318.969 297.427 318.403 299.335C318.237 299.29 318.022 299.256 317.758 299.233C317.509 299.21 317.249 299.191 316.978 299.176C316.721 299.161 316.499 299.158 316.31 299.165C316.951 297.393 317.211 295.586 317.091 293.746C316.97 291.89 316.472 290.073 315.597 288.293ZM306.954 293.248L315.597 284.604L316.887 285.894L308.243 294.538L306.954 293.248ZM311.411 295.692L314.194 292.909L315.45 294.164L312.667 296.948L311.411 295.692ZM306.275 293.927L307.632 292.569L310.698 295.635C311.121 296.058 311.566 296.54 312.033 297.083C312.494 297.619 312.935 298.196 313.357 298.814C313.787 299.425 314.153 300.063 314.455 300.726C314.749 301.383 314.937 302.046 315.02 302.718C314.862 302.695 314.654 302.691 314.398 302.706C314.149 302.729 313.896 302.755 313.64 302.785C313.399 302.816 313.195 302.853 313.029 302.899C312.946 302.303 312.776 301.733 312.52 301.19C312.271 300.64 311.966 300.115 311.604 299.618C311.249 299.112 310.876 298.641 310.483 298.203C310.084 297.758 309.703 297.355 309.341 296.993L306.275 293.927ZM308.809 287.614L310.178 286.245C311.158 287.18 312.124 288.063 313.074 288.892C314.025 289.707 314.937 290.438 315.812 291.087C316.68 291.728 317.487 292.249 318.233 292.648C318.98 293.048 319.64 293.301 320.213 293.406C320.786 293.512 321.247 293.429 321.594 293.158C321.759 293.052 321.707 292.803 321.435 292.411C321.164 292.004 320.741 291.483 320.168 290.85C320.447 290.842 320.764 290.804 321.118 290.736C321.48 290.661 321.786 290.582 322.035 290.499C323.015 291.645 323.528 292.573 323.573 293.282C323.626 293.998 323.283 294.545 322.544 294.922C321.971 295.3 321.311 295.462 320.564 295.409C319.825 295.364 319.018 295.137 318.143 294.73C317.268 294.323 316.336 293.768 315.348 293.067C314.353 292.358 313.308 291.547 312.214 290.635C311.121 289.707 309.986 288.7 308.809 287.614Z" fill="black"/>
<path d="M301.67 349.702L311.424 339.948L313.197 341.722L303.444 351.476L301.67 349.702ZM308.347 358.637L320.345 346.639L322.185 348.48L310.188 360.477L308.347 358.637ZM318.652 336.187L319.445 336.979L325.598 330.826L324.805 330.033L318.652 336.187ZM316.717 334.252L317.51 335.045L323.663 328.891L322.871 328.099L316.717 334.252ZM313.963 334.588L323.287 325.264L328.446 330.423L319.122 339.747L313.963 334.588ZM319.391 340.714L329.44 330.665L330.703 331.928L320.654 341.977L319.391 340.714ZM320.224 343.777L332.396 331.605L333.74 332.949L321.567 345.121L320.224 343.777ZM318.276 331.377L319.875 329.778L327.895 337.799L326.297 339.398L318.276 331.377ZM326.095 342.098L327.452 340.499C327.873 340.777 328.321 341.099 328.796 341.467C329.27 341.834 329.651 342.161 329.938 342.447L328.554 344.207C328.258 343.912 327.882 343.562 327.425 343.159C326.977 342.765 326.534 342.412 326.095 342.098ZM328.796 339.505L330.005 337.705C330.488 337.902 331.003 338.139 331.55 338.417C332.087 338.686 332.53 338.941 332.88 339.183L331.63 341.131C331.308 340.88 330.878 340.602 330.341 340.298C329.803 339.993 329.288 339.729 328.796 339.505ZM331.362 336.778L332.383 334.762C332.813 334.78 333.278 334.825 333.78 334.897C334.281 334.951 334.765 335.022 335.231 335.112C335.688 335.192 336.086 335.295 336.427 335.421L335.365 337.611C335.07 337.494 334.689 337.382 334.223 337.275C333.775 337.167 333.296 337.073 332.786 336.993C332.284 336.903 331.809 336.831 331.362 336.778ZM323.166 344.006L325.101 342.824C325.414 343.442 325.67 344.109 325.867 344.825C326.073 345.551 326.167 346.227 326.149 346.854L323.945 347.714C324.008 347.168 323.963 346.558 323.811 345.887C323.659 345.215 323.444 344.588 323.166 344.006ZM330.515 325.506L340.968 315.053L342.553 316.639L332.101 327.091L330.515 325.506ZM335.916 332.68L348.155 320.441L349.741 322.026L337.501 334.265L335.916 332.68ZM330.69 317.028L332.423 315.295L343.95 326.822L342.217 328.556L330.69 317.028ZM349.445 315.658L358.205 306.898L359.468 308.161L350.708 316.921L349.445 315.658ZM347.631 313.146L356.646 304.131L357.99 305.474L348.975 314.489L347.631 313.146ZM349.956 319.5L361.846 307.61L363.23 308.994L351.34 320.884L349.956 319.5ZM349.942 309.196L351.608 307.53L357.721 313.643L356.055 315.309L349.942 309.196ZM345.495 309.263L346.221 309.988L352.186 304.023L351.46 303.298L345.495 309.263ZM343.655 307.422L344.353 308.121L350.318 302.156L349.62 301.457L343.655 307.422ZM340.847 307.785L350.063 298.569L355.074 303.58L345.858 312.796L340.847 307.785ZM346.422 311.963L348.451 310.848C348.693 311.484 348.885 312.151 349.029 312.85C349.172 313.549 349.271 314.238 349.324 314.919C349.378 315.6 349.387 316.227 349.351 316.8C349.145 316.809 348.899 316.831 348.612 316.867C348.326 316.903 348.039 316.948 347.752 317.001C347.457 317.046 347.206 317.1 347 317.163C347.116 316.348 347.125 315.479 347.027 314.556C346.928 313.616 346.727 312.751 346.422 311.963Z" fill="black"/>
<path d="M155.751 260.006L159.531 263.786L158.016 265.301L154.236 261.521L155.751 260.006ZM164.788 263.417L166.379 265.008L157.202 274.185C156.845 274.541 156.646 274.8 156.604 274.962C156.57 275.114 156.671 275.309 156.909 275.547C156.96 275.598 157.045 275.683 157.164 275.802C157.282 275.92 157.414 276.052 157.558 276.196C157.702 276.34 157.834 276.472 157.953 276.591C158.071 276.709 158.161 276.799 158.22 276.858C158.39 277.028 158.589 277.083 158.818 277.023C159.047 276.964 159.365 276.765 159.773 276.425C160.197 276.086 160.761 275.589 161.466 274.936C161.5 275.157 161.555 275.399 161.631 275.662C161.716 275.933 161.809 276.196 161.911 276.451C162.021 276.697 162.132 276.909 162.242 277.087C161.376 277.851 160.63 278.419 160.002 278.793C159.382 279.174 158.827 279.34 158.335 279.289C157.842 279.255 157.354 278.996 156.871 278.513C156.803 278.445 156.688 278.33 156.527 278.169C156.366 278.008 156.192 277.834 156.005 277.647C155.827 277.469 155.662 277.303 155.509 277.151C155.356 276.998 155.242 276.883 155.165 276.807C154.682 276.323 154.372 275.869 154.236 275.445C154.1 275.038 154.147 274.609 154.376 274.16C154.614 273.701 155.029 273.175 155.623 272.581L164.788 263.417ZM161.58 260.21L163.171 261.801L151.563 273.409L149.972 271.818L161.58 260.21ZM167.091 269.514L166.824 271.996C166.086 271.852 165.322 271.682 164.533 271.487C163.752 271.283 162.967 271.067 162.178 270.838C161.406 270.609 160.659 270.371 159.938 270.125C160.057 269.904 160.167 269.616 160.269 269.259C160.379 268.895 160.464 268.581 160.524 268.318C161.228 268.53 161.966 268.716 162.738 268.878C163.511 269.039 164.27 269.17 165.017 269.272C165.772 269.382 166.463 269.463 167.091 269.514ZM149.527 265.314C149.977 265.56 150.503 265.84 151.105 266.154C151.716 266.459 152.365 266.777 153.052 267.108C153.748 267.431 154.436 267.753 155.114 268.076L154.032 269.743C153.108 269.395 152.17 269.026 151.22 268.636C150.278 268.254 149.416 267.902 148.636 267.579L149.527 265.314ZM170.477 270.787L181.779 282.089L180.354 283.515L169.051 272.212L170.477 270.787ZM176.319 274.541L177.91 276.132L165.959 288.084L164.368 286.493L176.319 274.541ZM168.657 281.415L169.421 283.247C168.699 283.375 167.953 283.443 167.18 283.451C166.417 283.468 165.64 283.43 164.851 283.336C164.079 283.243 163.315 283.099 162.56 282.904C161.805 282.726 161.088 282.501 160.409 282.229C160.452 282.017 160.494 281.771 160.536 281.491C160.579 281.211 160.609 280.927 160.626 280.638C160.643 280.35 160.647 280.099 160.638 279.887C161.266 280.193 161.924 280.46 162.611 280.689C163.307 280.91 164.007 281.092 164.711 281.236C165.424 281.372 166.111 281.457 166.773 281.491C167.452 281.525 168.08 281.499 168.657 281.415ZM171.024 283.884C170.956 284.461 170.944 285.084 170.986 285.755C171.045 286.425 171.143 287.117 171.279 287.829C171.432 288.542 171.627 289.246 171.864 289.942C172.11 290.63 172.386 291.287 172.692 291.915C172.471 291.898 172.212 291.894 171.915 291.902C171.618 291.928 171.325 291.958 171.037 291.991C170.748 292.042 170.494 292.093 170.273 292.144C169.993 291.474 169.764 290.761 169.586 290.006C169.399 289.259 169.255 288.496 169.153 287.715C169.068 286.934 169.03 286.158 169.039 285.386C169.056 284.622 169.124 283.884 169.242 283.171L171.024 283.884ZM167.906 278.474L167.13 279.251L173.303 285.424L174.079 284.647L167.906 278.474ZM169.739 276.642L168.975 277.405L175.148 283.578L175.912 282.815L169.739 276.642ZM169.395 274.007L178.623 283.235L173.723 288.135L164.495 278.907L169.395 274.007Z" fill="black"/>
<path d="M132.671 290.374L134.006 291.709L129.152 296.563L127.817 295.228L132.671 290.374ZM130.838 287.297L137.06 293.52L135.963 294.617L129.74 288.394L130.838 287.297ZM127.251 292.286L126.629 292.909L131.505 297.785L132.128 297.163L127.251 292.286ZM128.824 290.714L128.213 291.325L133.089 296.201L133.7 295.59L128.824 290.714ZM128.541 288.372L136.11 295.941L131.856 300.195L124.287 292.626L128.541 288.372ZM128.111 297.717L129.808 297.626C130.08 298.185 130.348 298.762 130.611 299.357C130.883 299.961 131.132 300.534 131.358 301.077C131.6 301.62 131.799 302.099 131.958 302.514L129.967 302.469C129.838 302.084 129.676 301.628 129.48 301.1C129.292 300.579 129.08 300.029 128.847 299.448C128.613 298.867 128.368 298.29 128.111 297.717ZM135.872 287.082L137.275 288.485L135.669 290.091L134.266 288.689L135.872 287.082ZM130.962 283.756L140.681 293.474L138.18 295.975L136.789 294.583L138.056 293.316L131.064 286.324L129.797 287.591L128.462 286.256L130.962 283.756ZM126.539 294.334L126.855 296.325C126.342 296.22 125.781 296.05 125.17 295.816C124.559 295.597 123.948 295.334 123.337 295.024C122.726 294.73 122.153 294.413 121.617 294.074C121.677 293.833 121.73 293.531 121.775 293.169C121.828 292.814 121.862 292.501 121.877 292.23C122.368 292.554 122.896 292.863 123.461 293.158C124.042 293.452 124.6 293.701 125.136 293.904C125.686 294.108 126.154 294.251 126.539 294.334ZM133.141 309.987L145.982 297.146L147.068 298.232L134.227 311.073L133.141 309.987ZM151.621 304.098L158.342 310.818L157.018 312.142L150.298 305.422L151.621 304.098ZM142.378 311.531L152.47 321.623L151.157 322.935L141.066 312.844L142.378 311.531ZM146.666 306.994L157.007 317.335L155.672 318.67L145.331 308.329L146.666 306.994ZM153.036 306.96L154.427 308.352C153.839 308.835 153.22 309.333 152.572 309.845C151.923 310.358 151.267 310.871 150.603 311.384C149.947 311.905 149.298 312.41 148.657 312.9C148.016 313.39 147.401 313.847 146.813 314.269C146.24 314.692 145.719 315.069 145.252 315.401L143.837 313.986C144.335 313.654 144.882 313.274 145.478 312.844C146.074 312.414 146.689 311.957 147.322 311.475C147.971 310.992 148.623 310.498 149.279 309.993C149.943 309.48 150.592 308.967 151.225 308.454C151.859 307.941 152.462 307.443 153.036 306.96ZM157.719 310.196L159.134 311.61C158.53 312.184 157.893 312.776 157.222 313.387C156.558 313.99 155.883 314.597 155.196 315.208C154.51 315.819 153.835 316.411 153.171 316.984C152.523 317.558 151.897 318.101 151.293 318.614C150.697 319.119 150.151 319.575 149.653 319.983L148.216 318.546C148.721 318.131 149.279 317.671 149.89 317.165C150.509 316.653 151.15 316.11 151.814 315.536C152.485 314.971 153.16 314.386 153.839 313.783C154.525 313.172 155.193 312.565 155.841 311.961C156.505 311.358 157.131 310.769 157.719 310.196Z" fill="black"/>
<path d="M92.8079 303.582L104.174 314.948L93.2244 325.897L91.5181 324.191L100.909 314.8L92.875 306.766L83.3765 316.264L81.7508 314.639L92.8079 303.582ZM85.0424 313.067L94.7291 322.753L93.184 324.298L83.4974 314.612L85.0424 313.067ZM97.7923 310.823L99.3642 312.395L95.6292 316.13C95.4232 316.336 95.3157 316.47 95.3068 316.533C95.3068 316.623 95.356 316.717 95.4546 316.815C95.4993 316.86 95.5576 316.918 95.6292 316.99C95.7009 317.061 95.7591 317.12 95.8039 317.164C95.8487 317.209 95.8979 317.25 95.9517 317.285C96.0144 317.33 96.0681 317.357 96.1129 317.366C96.1577 317.375 96.2114 317.375 96.2741 317.366C96.3547 317.357 96.4443 317.312 96.5428 317.232C96.6503 317.16 96.7981 317.03 96.9862 316.842C97.1922 316.654 97.425 316.439 97.6848 316.197C97.7027 316.466 97.7654 316.779 97.8729 317.138C97.9893 317.505 98.1192 317.823 98.2625 318.091C97.9759 318.342 97.6803 318.584 97.3758 318.817C97.0892 319.05 96.8563 319.202 96.6772 319.274C96.4801 319.345 96.292 319.381 96.1129 319.381C95.9517 319.381 95.7725 319.345 95.5755 319.274C95.4143 319.22 95.2396 319.126 95.0515 318.992C94.8813 318.857 94.7291 318.723 94.5947 318.589C94.5141 318.508 94.4201 318.414 94.3126 318.306C94.2051 318.199 94.0976 318.091 93.9901 317.984C93.8916 317.885 93.8021 317.796 93.7214 317.715C93.5423 317.536 93.3856 317.326 93.2512 317.084C93.1169 316.842 93.0407 316.596 93.0228 316.345C93.0139 316.103 93.0766 315.852 93.2109 315.593C93.3453 315.333 93.6408 314.975 94.0976 314.518L97.7923 310.823ZM95.1053 308.082L96.6772 309.654C95.7277 310.55 94.7962 311.329 93.8827 311.992C92.9691 312.655 92.0376 313.138 91.0882 313.443C90.1388 313.747 89.1132 313.797 88.0116 313.591C88.1101 313.313 88.1773 312.959 88.2131 312.529C88.2579 312.091 88.2623 311.71 88.2265 311.387C89.1043 311.567 89.9149 311.526 90.6583 311.266C91.4106 310.998 92.1451 310.586 92.8616 310.03C93.5871 309.466 94.335 308.817 95.1053 308.082ZM112.033 332.615L112.45 334.643C111.868 334.688 111.272 334.729 110.663 334.764C110.063 334.809 109.539 334.832 109.091 334.832L108.809 333.152C109.122 333.125 109.467 333.085 109.843 333.031C110.229 332.986 110.609 332.928 110.985 332.857C111.38 332.785 111.729 332.704 112.033 332.615ZM105.195 327.442L107.022 327.818C107.004 328.32 106.955 328.862 106.874 329.444C106.803 330.017 106.695 330.492 106.552 330.868L104.577 330.505C104.729 330.138 104.855 329.664 104.953 329.081C105.07 328.499 105.15 327.953 105.195 327.442ZM111.993 321.396L117.663 327.066L113.122 331.607L111.55 330.035L114.788 326.797L110.69 322.7L111.993 321.396ZM110.341 323.694L114.989 328.342L113.74 329.592L109.091 324.943L110.341 323.694ZM107.425 324.702L114.841 332.118L113.498 333.461L106.082 326.045L107.425 324.702ZM109.763 328.248L111.254 329.74L105.208 335.785C104.868 336.126 104.564 336.359 104.295 336.484C104.017 336.618 103.713 336.627 103.381 336.511C103.059 336.421 102.732 336.238 102.4 335.96C102.069 335.7 101.702 335.369 101.299 334.966C101.487 334.742 101.675 334.455 101.863 334.106C102.042 333.766 102.186 333.452 102.293 333.166C102.508 333.398 102.714 333.622 102.911 333.837C103.126 334.052 103.274 334.191 103.354 334.254C103.489 334.388 103.619 334.393 103.744 334.267L109.763 328.248ZM100.842 330.237C101.397 330.398 102.087 330.577 102.911 330.774C103.744 330.962 104.595 331.15 105.464 331.338L104.752 333.045C103.99 332.946 103.216 332.834 102.427 332.709C101.657 332.583 100.932 332.467 100.251 332.359L100.842 330.237ZM110.461 330.425C110.103 330.944 109.767 331.522 109.454 332.158C109.149 332.785 108.894 333.452 108.688 334.16C108.491 334.858 108.388 335.579 108.379 336.323C108.388 337.066 108.527 337.814 108.796 338.566C108.607 338.558 108.375 338.566 108.097 338.593C107.819 338.62 107.542 338.656 107.264 338.701C106.977 338.755 106.731 338.813 106.525 338.875C106.337 338.096 106.279 337.313 106.35 336.524C106.431 335.745 106.592 334.984 106.834 334.24C107.085 333.488 107.376 332.785 107.707 332.131C108.048 331.486 108.384 330.909 108.715 330.398L110.461 330.425ZM108.755 317.191L109.655 319.086C109.127 319.256 108.581 319.426 108.016 319.596C107.461 319.757 106.919 319.914 106.391 320.066C105.871 320.21 105.401 320.322 104.98 320.402L104.349 318.884C104.787 318.768 105.267 318.62 105.786 318.441C106.306 318.262 106.83 318.06 107.358 317.836C107.895 317.621 108.361 317.406 108.755 317.191ZM108.675 320.308L109.4 322.216C108.567 322.386 107.68 322.556 106.74 322.727C105.8 322.897 104.881 323.045 103.986 323.17C103.09 323.295 102.275 323.376 101.541 323.412L101.124 321.974C101.679 321.92 102.28 321.84 102.924 321.732C103.587 321.625 104.255 321.495 104.926 321.343C105.616 321.19 106.283 321.025 106.928 320.846C107.573 320.667 108.155 320.487 108.675 320.308ZM103.542 318.266L105.423 317.971C105.432 318.409 105.432 318.875 105.423 319.368C105.414 319.86 105.388 320.335 105.343 320.792C105.298 321.249 105.217 321.634 105.101 321.947L103.018 322.31C103.135 321.997 103.229 321.607 103.301 321.141C103.381 320.684 103.439 320.205 103.475 319.704C103.52 319.193 103.542 318.714 103.542 318.266ZM105.007 323.062L106.592 323.734C106.476 324.209 106.324 324.702 106.135 325.212C105.947 325.723 105.75 326.206 105.544 326.663C105.347 327.111 105.146 327.492 104.94 327.805L103.18 327.12C103.404 326.824 103.628 326.448 103.851 325.991C104.075 325.534 104.286 325.055 104.483 324.554C104.689 324.043 104.864 323.546 105.007 323.062ZM100.761 320.967C101.388 321.54 102.132 322.212 102.992 322.982C103.86 323.743 104.743 324.518 105.638 325.306L104.349 326.65C103.498 325.924 102.647 325.199 101.796 324.473C100.963 323.748 100.206 323.098 99.5254 322.525L100.761 320.967ZM102.011 326.811L103.462 327.59C103.256 328.118 102.992 328.669 102.669 329.243C102.356 329.825 102.06 330.29 101.782 330.64L100.197 329.834C100.493 329.484 100.806 329.028 101.138 328.463C101.487 327.899 101.778 327.348 102.011 326.811ZM99.3373 323.546L100.399 325.064C99.6821 325.637 98.9387 326.166 98.1684 326.65C97.4161 327.133 96.7309 327.496 96.1129 327.738C96.086 327.586 96.0367 327.402 95.9651 327.187C95.8934 326.972 95.8128 326.757 95.7233 326.542C95.6427 326.318 95.5665 326.135 95.4949 325.991C96.095 325.785 96.7309 325.454 97.4026 324.997C98.0744 324.54 98.7193 324.057 99.3373 323.546ZM102.078 323.734L103.475 325.131L97.4698 331.137L96.0726 329.74L102.078 323.734ZM117.475 332.171L129.297 343.994L127.699 345.593L115.876 333.77L117.475 332.171ZM125.643 334.079L127.363 335.799L114.747 348.414L113.028 346.695L125.643 334.079ZM121.29 337.733L122.231 339.641C121.218 340.044 120.184 340.38 119.127 340.649C118.07 340.918 117.009 341.11 115.943 341.227C114.886 341.352 113.838 341.397 112.799 341.361C111.778 341.325 110.797 341.195 109.857 340.971C109.902 340.747 109.938 340.479 109.964 340.165C109.991 339.852 110.009 339.538 110.018 339.225C110.036 338.902 110.036 338.625 110.018 338.392C110.878 338.643 111.783 338.813 112.732 338.902C113.699 338.992 114.676 339.01 115.661 338.956C116.655 338.893 117.627 338.755 118.576 338.54C119.535 338.334 120.439 338.065 121.29 337.733ZM123.601 340.179C123.287 341.012 123.041 341.903 122.862 342.852C122.683 343.802 122.571 344.764 122.526 345.741C122.49 346.726 122.517 347.693 122.607 348.643C122.696 349.592 122.867 350.488 123.117 351.33C122.893 351.303 122.616 351.294 122.284 351.303C121.971 351.312 121.653 351.334 121.33 351.37C121.017 351.415 120.744 351.464 120.511 351.518C120.305 350.595 120.184 349.632 120.148 348.629C120.121 347.617 120.162 346.583 120.269 345.526C120.386 344.46 120.574 343.403 120.833 342.355C121.093 341.307 121.407 340.286 121.774 339.292L123.601 340.179ZM126.973 352.821L135.733 361.581L134.47 362.844L125.71 354.084L126.973 352.821ZM129.485 351.007L138.5 360.022L137.157 361.366L128.142 352.351L129.485 351.007ZM123.131 353.332L135.021 365.222L133.637 366.605L121.747 354.715L123.131 353.332ZM133.435 353.318L135.101 354.984L128.988 361.097L127.322 359.431L133.435 353.318ZM133.368 348.871L132.643 349.597L138.608 355.562L139.333 354.836L133.368 348.871ZM135.209 347.031L134.51 347.729L140.475 353.694L141.174 352.996L135.209 347.031ZM134.846 344.223L144.062 353.439L139.051 358.45L129.835 349.234L134.846 344.223ZM130.668 349.798L131.783 351.827C131.147 352.069 130.48 352.261 129.781 352.405C129.082 352.548 128.393 352.646 127.712 352.7C127.031 352.754 126.404 352.763 125.831 352.727C125.822 352.521 125.8 352.275 125.764 351.988C125.728 351.701 125.683 351.415 125.63 351.128C125.585 350.833 125.531 350.582 125.468 350.376C126.283 350.492 127.152 350.501 128.075 350.403C129.015 350.304 129.88 350.103 130.668 349.798Z" fill="black"/>
<path d="M307.334 80.0345L321.374 90.366L319.976 92.3006L305.977 81.9288L307.334 80.0345ZM316 78.9731L317.76 80.7331L308.489 90.0032C308.194 90.2988 307.992 90.5451 307.885 90.7422C307.795 90.9392 307.795 91.1363 307.885 91.3333C307.983 91.5214 308.18 91.7632 308.476 92.0588C308.566 92.1484 308.7 92.2827 308.879 92.4619C309.058 92.641 309.26 92.8425 309.484 93.0664C309.708 93.2903 309.931 93.5143 310.155 93.7382C310.379 93.9621 310.581 94.1636 310.76 94.3428C310.948 94.5309 311.087 94.6697 311.176 94.7592C311.481 95.0638 311.781 95.2205 312.077 95.2295C312.381 95.2295 312.766 95.0683 313.232 94.7458C313.707 94.4144 314.356 93.8904 315.18 93.1739C315.207 93.4157 315.265 93.6889 315.355 93.9934C315.462 94.298 315.574 94.5891 315.691 94.8667C315.816 95.1533 315.937 95.3907 316.053 95.5788C315.086 96.4028 314.249 96.9984 313.541 97.3656C312.842 97.7239 312.193 97.8359 311.593 97.7015C310.993 97.5672 310.357 97.1641 309.685 96.4924C309.596 96.4028 309.448 96.255 309.242 96.049C309.045 95.852 308.821 95.628 308.57 95.3773C308.328 95.1354 308.082 94.8891 307.831 94.6383C307.58 94.3875 307.356 94.1636 307.159 93.9666C306.962 93.7695 306.819 93.6262 306.729 93.5367C306.049 92.856 305.596 92.2424 305.372 91.6961C305.14 91.1587 305.135 90.6168 305.359 90.0704C305.592 89.533 306.058 88.915 306.756 88.2164L316 78.9731ZM327.984 104.527L330.039 105.319C329.959 105.919 329.847 106.56 329.703 107.24C329.56 107.921 329.403 108.57 329.233 109.188C329.063 109.806 328.879 110.339 328.682 110.787L326.412 109.968C326.609 109.538 326.806 109.018 327.003 108.409C327.2 107.8 327.384 107.151 327.554 106.461C327.733 105.78 327.876 105.136 327.984 104.527ZM331.195 93.6576L332.847 95.3101L327.984 100.174L326.331 98.5211L331.195 93.6576ZM321.736 92.7977L333.855 104.916L332.31 106.461L320.191 94.3428L321.736 92.7977ZM325.995 91.2258L335.628 100.859L334.097 102.39L324.464 92.7574L325.995 91.2258ZM327.621 100.509L329.314 102.202L323.738 107.778C323.335 108.181 322.972 108.454 322.65 108.597C322.319 108.75 321.956 108.754 321.562 108.611C321.177 108.476 320.782 108.244 320.379 107.912C319.985 107.59 319.542 107.182 319.049 106.69C319.264 106.421 319.475 106.076 319.681 105.655C319.878 105.243 320.035 104.871 320.151 104.54C320.438 104.844 320.724 105.149 321.011 105.454C321.306 105.749 321.503 105.937 321.602 106.018C321.701 106.116 321.781 106.17 321.844 106.179C321.915 106.179 321.992 106.139 322.072 106.058L327.621 100.509ZM321.011 96.5058L322.233 98.5614C321.642 98.8121 321.006 99.0361 320.326 99.2331C319.654 99.4212 318.982 99.5735 318.31 99.6899C317.648 99.7974 317.016 99.8466 316.416 99.8377C316.398 99.5332 316.344 99.1659 316.255 98.736C316.174 98.2971 316.098 97.9344 316.026 97.6478C316.573 97.6746 317.137 97.6388 317.719 97.5403C318.319 97.4418 318.906 97.3029 319.479 97.1238C320.052 96.9447 320.563 96.7387 321.011 96.5058ZM325.014 97.3119L326.654 98.951L325.109 100.496C324.634 100.971 324.092 101.45 323.483 101.934C322.883 102.408 322.207 102.825 321.454 103.183C320.711 103.532 319.878 103.774 318.955 103.909C318.051 104.043 317.052 104.003 315.959 103.788C316.004 103.582 316.031 103.331 316.04 103.035C316.049 102.74 316.044 102.44 316.026 102.135C316.018 101.84 315.991 101.58 315.946 101.356C316.877 101.553 317.724 101.602 318.485 101.504C319.255 101.414 319.945 101.226 320.554 100.939C321.172 100.662 321.723 100.335 322.207 99.9586C322.699 99.5735 323.134 99.1928 323.51 98.8166L325.014 97.3119ZM343.918 109.417C343.04 109.56 342.046 109.623 340.935 109.605C339.833 109.596 338.691 109.502 337.509 109.323C336.336 109.153 335.185 108.897 334.056 108.557C334.119 108.351 334.173 108.109 334.217 107.832C334.271 107.563 334.307 107.285 334.325 106.999C334.352 106.721 334.365 106.466 334.365 106.233C335.503 106.636 336.694 106.922 337.939 107.093C339.193 107.254 340.393 107.317 341.54 107.281C342.695 107.254 343.712 107.133 344.589 106.918L346.269 108.597C346.125 109.475 346.04 110.366 346.013 111.271C345.987 112.176 346.027 113.076 346.134 113.971C346.242 114.867 346.403 115.736 346.618 116.578C346.833 117.42 347.102 118.217 347.424 118.969C347.012 118.969 346.587 119.009 346.148 119.09C345.709 119.171 345.292 119.256 344.898 119.345C344.657 118.566 344.446 117.738 344.267 116.86C344.097 115.991 343.967 115.118 343.877 114.24C343.797 113.353 343.756 112.498 343.756 111.674C343.756 110.85 343.81 110.098 343.918 109.417ZM338.073 108.544L344.831 115.301L343.42 116.712L336.663 109.954L338.073 108.544ZM333.72 109.672L343.676 119.627L342.279 121.025L332.323 111.069L333.72 109.672ZM328.964 113.085L340.384 124.504L339 125.888L327.581 114.468L328.964 113.085ZM339.995 111.593L341.701 113.3L334.741 120.259L333.035 118.553L339.995 111.593ZM332.659 112.426L334.486 113.179C334.432 113.573 334.352 113.985 334.244 114.415C334.146 114.854 334.034 115.27 333.908 115.664C333.783 116.058 333.649 116.39 333.505 116.658L331.504 115.893C331.656 115.633 331.804 115.306 331.947 114.912C332.099 114.509 332.238 114.092 332.363 113.662C332.489 113.232 332.587 112.82 332.659 112.426ZM340.008 118.727L340.989 120.837C340.308 120.98 339.618 121.114 338.92 121.24C338.23 121.356 337.621 121.437 337.093 121.482L336.394 119.762C336.761 119.699 337.155 119.619 337.576 119.52C338.006 119.413 338.432 119.292 338.853 119.157C339.282 119.014 339.668 118.871 340.008 118.727ZM345.973 125.821L354.733 134.581L353.47 135.844L344.71 127.084L345.973 125.821ZM348.485 124.007L357.5 133.022L356.157 134.366L347.142 125.351L348.485 124.007ZM342.131 126.332L354.021 138.222L352.637 139.605L340.747 127.715L342.131 126.332ZM352.435 126.318L354.101 127.984L347.988 134.097L346.322 132.431L352.435 126.318ZM352.368 121.871L351.643 122.597L357.608 128.562L358.333 127.836L352.368 121.871ZM354.209 120.031L353.51 120.729L359.475 126.694L360.174 125.996L354.209 120.031ZM353.846 117.223L363.062 126.439L358.051 131.45L348.835 122.234L353.846 117.223ZM349.668 122.798L350.783 124.827C350.147 125.069 349.48 125.261 348.781 125.405C348.082 125.548 347.393 125.646 346.712 125.7C346.031 125.754 345.404 125.763 344.831 125.727C344.822 125.521 344.8 125.275 344.764 124.988C344.728 124.701 344.683 124.415 344.63 124.128C344.585 123.833 344.531 123.582 344.468 123.376C345.283 123.492 346.152 123.501 347.075 123.403C348.015 123.304 348.88 123.103 349.668 122.798Z" fill="black"/>
<path d="M213.008 125.194H228.992V127.21H213.008V125.194ZM216.968 132.934H225.014V134.608H216.968V132.934ZM216.59 135.796H225.41V137.524H216.59V135.796ZM219.92 133.762H221.954V140.098H219.92V133.762ZM213.692 128.56H226.724V130.54H215.852V140.566H213.692V128.56ZM226.112 128.56H228.326V138.406C228.326 138.922 228.254 139.318 228.11 139.594C227.966 139.882 227.714 140.098 227.354 140.242C226.982 140.398 226.526 140.488 225.986 140.512C225.458 140.548 224.828 140.566 224.096 140.566C224.048 140.29 223.952 139.978 223.808 139.63C223.676 139.282 223.538 138.982 223.394 138.73C223.694 138.742 224 138.754 224.312 138.766C224.624 138.778 224.906 138.784 225.158 138.784C225.422 138.772 225.596 138.766 225.68 138.766C225.848 138.766 225.962 138.742 226.022 138.694C226.082 138.634 226.112 138.538 226.112 138.406V128.56ZM217.652 131.026L219.362 130.522C219.578 130.81 219.776 131.14 219.956 131.512C220.148 131.884 220.292 132.208 220.388 132.484L218.588 133.078C218.516 132.79 218.39 132.454 218.21 132.07C218.03 131.686 217.844 131.338 217.652 131.026ZM222.728 130.558L224.546 131.062C224.306 131.494 224.066 131.914 223.826 132.322C223.598 132.718 223.376 133.066 223.16 133.366L221.63 132.898C221.762 132.682 221.894 132.436 222.026 132.16C222.17 131.884 222.302 131.608 222.422 131.332C222.542 131.056 222.644 130.798 222.728 130.558ZM219.848 123.826H222.206V129.964H219.848V123.826Z" fill="black"/>
<path d="M215.744 79.336L217.792 79.832C217.536 80.6427 217.227 81.4373 216.864 82.216C216.501 82.984 216.112 83.704 215.696 84.376C215.28 85.048 214.848 85.6293 214.4 86.12C214.272 86.0133 214.096 85.8853 213.872 85.736C213.648 85.5867 213.419 85.4427 213.184 85.304C212.96 85.1547 212.763 85.0373 212.592 84.952C213.051 84.5147 213.477 83.9973 213.872 83.4C214.277 82.8027 214.635 82.1573 214.944 81.464C215.264 80.7707 215.531 80.0613 215.744 79.336ZM216.192 81.416H225.984V83.288H215.232L216.192 81.416ZM212.784 86.616H227.248V88.552H212.784V86.616ZM219.008 82.248H221.008V94.44H219.008V82.248Z" fill="black"/>
<path d="M301.988 224.524H314.192V226.522H301.988V224.524ZM300.602 215.722H315.452V227.512H313.256V217.72H302.708V227.548H300.602V215.722ZM308.738 216.55H310.808V219.79C310.808 220.018 310.826 220.162 310.862 220.222C310.91 220.27 311.024 220.294 311.204 220.294C311.24 220.294 311.318 220.294 311.438 220.294C311.57 220.294 311.696 220.294 311.816 220.294C311.948 220.294 312.044 220.294 312.104 220.294C312.212 220.294 312.29 220.276 312.338 220.24C312.398 220.192 312.44 220.102 312.464 219.97C312.5 219.838 312.524 219.634 312.536 219.358C312.656 219.454 312.818 219.556 313.022 219.664C313.238 219.76 313.46 219.85 313.688 219.934C313.928 220.006 314.144 220.06 314.336 220.096C314.252 220.648 314.132 221.074 313.976 221.374C313.82 221.674 313.61 221.884 313.346 222.004C313.094 222.124 312.764 222.184 312.356 222.184C312.26 222.184 312.146 222.184 312.014 222.184C311.882 222.184 311.738 222.184 311.582 222.184C311.438 222.184 311.3 222.184 311.168 222.184C311.036 222.184 310.928 222.184 310.844 222.184C310.268 222.184 309.824 222.112 309.512 221.968C309.212 221.824 309.008 221.578 308.9 221.23C308.792 220.882 308.738 220.408 308.738 219.808V216.55ZM299.882 211.69H316.064V213.778H299.882V211.69ZM304.796 213.274H306.92V216.874H304.796V213.274ZM308.738 213.274H310.916V216.874H308.738V213.274ZM304.904 216.136H306.92V217.918C306.92 218.518 306.842 219.136 306.686 219.772C306.53 220.408 306.236 221.014 305.804 221.59C305.372 222.166 304.742 222.67 303.914 223.102C303.818 222.97 303.674 222.814 303.482 222.634C303.29 222.454 303.086 222.28 302.87 222.112C302.666 221.944 302.492 221.818 302.348 221.734C303.104 221.35 303.662 220.942 304.022 220.51C304.394 220.078 304.634 219.634 304.742 219.178C304.85 218.722 304.904 218.284 304.904 217.864V216.136Z" fill="black"/>
<path d="M347.928 224.008H358.488V225.688H347.928V224.008ZM347.928 221.448H358.52V223.032H347.928V221.448ZM346.584 215.672H359.48V226.424H357.608V217.384H348.376V226.424H346.584V215.672ZM353.352 213.512H355.192V218.568C355.192 218.803 355.208 218.947 355.24 219C355.283 219.053 355.368 219.08 355.496 219.08C355.528 219.08 355.576 219.08 355.64 219.08C355.704 219.08 355.773 219.08 355.848 219.08C355.923 219.08 355.992 219.08 356.056 219.08C356.131 219.08 356.184 219.08 356.216 219.08C356.291 219.08 356.349 219.059 356.392 219.016C356.445 218.973 356.483 218.888 356.504 218.76C356.525 218.632 356.541 218.445 356.552 218.2C356.733 218.328 356.973 218.451 357.272 218.568C357.581 218.685 357.859 218.776 358.104 218.84C358.019 219.523 357.848 219.992 357.592 220.248C357.336 220.504 356.941 220.632 356.408 220.632C356.333 220.632 356.237 220.632 356.12 220.632C356.013 220.632 355.896 220.632 355.768 220.632C355.651 220.632 355.539 220.632 355.432 220.632C355.325 220.632 355.235 220.632 355.16 220.632C354.659 220.632 354.28 220.573 354.024 220.456C353.768 220.328 353.592 220.115 353.496 219.816C353.4 219.507 353.352 219.091 353.352 218.568V213.512ZM350.312 213.512H352.04V217.016C352.04 217.667 351.965 218.248 351.816 218.76C351.677 219.272 351.4 219.72 350.984 220.104C350.568 220.488 349.944 220.808 349.112 221.064C348.995 220.861 348.829 220.632 348.616 220.376C348.403 220.12 348.205 219.907 348.024 219.736C348.675 219.544 349.165 219.315 349.496 219.048C349.827 218.781 350.045 218.477 350.152 218.136C350.259 217.784 350.312 217.405 350.312 217V213.512ZM345.864 212.312H360.168V214.152H345.864V212.312Z" fill="black"/>
<path d="M213.008 301.984H218.354V304.126H213.008V301.984ZM221.81 298.006H224.06V310.984C224.06 311.488 224.102 311.812 224.186 311.956C224.27 312.088 224.48 312.154 224.816 312.154C224.888 312.154 225.008 312.154 225.176 312.154C225.344 312.154 225.53 312.154 225.734 312.154C225.938 312.154 226.124 312.154 226.292 312.154C226.46 312.154 226.586 312.154 226.67 312.154C226.91 312.154 227.09 312.052 227.21 311.848C227.33 311.644 227.414 311.278 227.462 310.75C227.522 310.21 227.57 309.46 227.606 308.5C227.786 308.632 227.996 308.764 228.236 308.896C228.488 309.028 228.74 309.148 228.992 309.256C229.244 309.352 229.472 309.424 229.676 309.472C229.604 310.624 229.478 311.554 229.298 312.262C229.13 312.97 228.854 313.48 228.47 313.792C228.098 314.116 227.57 314.278 226.886 314.278C226.79 314.278 226.628 314.278 226.4 314.278C226.172 314.278 225.926 314.278 225.662 314.278C225.41 314.278 225.176 314.278 224.96 314.278C224.744 314.278 224.582 314.278 224.474 314.278C223.79 314.278 223.25 314.176 222.854 313.972C222.47 313.78 222.2 313.444 222.044 312.964C221.888 312.472 221.81 311.806 221.81 310.966V298.006ZM217.274 298.006H219.524V314.422H217.274V298.006ZM227.75 300.688L229.316 302.632C228.692 303.052 228.032 303.472 227.336 303.892C226.64 304.3 225.932 304.702 225.212 305.098C224.504 305.482 223.808 305.842 223.124 306.178C223.052 305.938 222.926 305.656 222.746 305.332C222.566 304.996 222.404 304.714 222.26 304.486C222.908 304.138 223.562 303.748 224.222 303.316C224.882 302.884 225.512 302.44 226.112 301.984C226.724 301.528 227.27 301.096 227.75 300.688ZM212.36 310.138C212.852 309.994 213.422 309.82 214.07 309.616C214.718 309.4 215.402 309.166 216.122 308.914C216.842 308.65 217.556 308.392 218.264 308.14L218.678 310.084C217.778 310.492 216.854 310.894 215.906 311.29C214.97 311.686 214.112 312.046 213.332 312.37L212.36 310.138Z" fill="black"/>
<path d="M213.624 350.408H228.392V352.344H213.624V350.408ZM220.008 347.864H222.024V356.2C222.024 356.744 221.949 357.165 221.8 357.464C221.661 357.763 221.395 357.987 221 358.136C220.616 358.285 220.147 358.381 219.592 358.424C219.037 358.467 218.392 358.483 217.656 358.472C217.624 358.28 217.56 358.061 217.464 357.816C217.368 357.581 217.267 357.341 217.16 357.096C217.053 356.861 216.947 356.659 216.84 356.488C217.213 356.499 217.581 356.509 217.944 356.52C218.317 356.531 218.648 356.536 218.936 356.536C219.235 356.536 219.443 356.536 219.56 356.536C219.731 356.536 219.848 356.509 219.912 356.456C219.976 356.403 220.008 356.307 220.008 356.168V347.864ZM215.304 344.392H225.384V346.28H215.304V344.392ZM224.744 344.392H225.256L225.704 344.28L227.16 345.384C226.669 345.907 226.104 346.429 225.464 346.952C224.835 347.475 224.179 347.976 223.496 348.456C222.813 348.925 222.147 349.331 221.496 349.672C221.4 349.533 221.277 349.379 221.128 349.208C220.979 349.037 220.824 348.872 220.664 348.712C220.504 348.541 220.36 348.397 220.232 348.28C220.808 347.992 221.389 347.645 221.976 347.24C222.573 346.835 223.117 346.419 223.608 345.992C224.099 345.565 224.477 345.176 224.744 344.824V344.392Z" fill="black"/>
<path d="M184.045 389.011H200.955V391.386H184.045V389.011ZM191.189 384.907H193.697V390.265H191.189V384.907ZM188.035 393.419L190.695 394.103C190.302 395.167 189.84 396.212 189.308 397.238C188.789 398.264 188.231 399.227 187.636 400.126C187.041 401.013 186.433 401.785 185.812 402.444C185.635 402.279 185.4 402.096 185.109 401.893C184.83 401.69 184.545 401.488 184.254 401.285C183.963 401.082 183.709 400.918 183.494 400.791C184.127 400.221 184.729 399.543 185.299 398.758C185.869 397.973 186.388 397.124 186.857 396.212C187.326 395.287 187.718 394.356 188.035 393.419ZM194.305 394.312L196.623 393.381C197.041 393.989 197.472 394.635 197.915 395.319C198.358 396.003 198.789 396.7 199.207 397.409C199.625 398.106 199.999 398.783 200.328 399.442C200.67 400.101 200.942 400.702 201.145 401.247L198.561 402.368C198.384 401.849 198.137 401.253 197.82 400.582C197.516 399.911 197.168 399.22 196.775 398.511C196.395 397.789 195.99 397.067 195.559 396.345C195.141 395.623 194.723 394.945 194.305 394.312ZM203.121 385.819H219.898V388.042H203.121V385.819ZM206.693 394.825H216.592V396.877H206.693V394.825ZM206.769 399.442H216.383V401.551H206.769V399.442ZM210.151 386.617L212.944 387.187C212.805 387.706 212.659 388.232 212.507 388.764C212.355 389.283 212.209 389.784 212.07 390.265C211.943 390.734 211.81 391.152 211.671 391.519L209.505 390.968C209.606 390.55 209.701 390.094 209.79 389.6C209.879 389.093 209.955 388.58 210.018 388.061C210.094 387.542 210.138 387.06 210.151 386.617ZM205.021 390.208H218.188V402.691H215.756V392.317H207.339V402.691H205.021V390.208ZM230.424 387.035C229.905 387.757 229.246 388.504 228.448 389.277C227.663 390.05 226.789 390.791 225.826 391.5C224.876 392.209 223.882 392.843 222.843 393.4C222.742 393.21 222.609 393.001 222.444 392.773C222.292 392.545 222.121 392.323 221.931 392.108C221.754 391.893 221.583 391.703 221.418 391.538C222.507 391.019 223.552 390.379 224.553 389.619C225.554 388.846 226.447 388.042 227.232 387.206C228.03 386.37 228.663 385.566 229.132 384.793H231.507C232.026 385.515 232.596 386.205 233.217 386.864C233.838 387.523 234.503 388.131 235.212 388.688C235.921 389.245 236.65 389.746 237.397 390.189C238.144 390.632 238.898 391.006 239.658 391.31C239.367 391.601 239.094 391.931 238.841 392.298C238.588 392.665 238.353 393.02 238.138 393.362C237.416 392.982 236.681 392.545 235.934 392.051C235.199 391.557 234.49 391.031 233.806 390.474C233.122 389.904 232.489 389.328 231.906 388.745C231.323 388.162 230.829 387.592 230.424 387.035ZM225.674 390.55H235.231V392.545H225.674V390.55ZM223.394 394.426H237.473V396.402H223.394V394.426ZM222.444 400.202H238.594V402.159H222.444V400.202ZM229.189 391.348H231.602V401.19H229.189V391.348ZM224.591 397.124L226.415 396.364C226.656 396.681 226.89 397.029 227.118 397.409C227.359 397.789 227.574 398.163 227.764 398.53C227.954 398.897 228.093 399.227 228.182 399.518L226.225 400.392C226.149 400.101 226.022 399.765 225.845 399.385C225.668 398.992 225.471 398.6 225.256 398.207C225.041 397.814 224.819 397.453 224.591 397.124ZM234.243 396.383L236.428 397.181C236.048 397.764 235.655 398.346 235.25 398.929C234.845 399.499 234.471 399.987 234.129 400.392L232.419 399.67C232.634 399.366 232.856 399.03 233.084 398.663C233.312 398.283 233.527 397.897 233.73 397.504C233.933 397.099 234.104 396.725 234.243 396.383ZM243.477 397.181H255.865V398.967H243.477V397.181ZM243.971 394.122H256.72V396.022H243.971V394.122ZM241.121 400.259H257.936V402.216H241.121V400.259ZM248.398 392.963H250.754V401.608H248.398V392.963ZM245.206 389.866V390.892H253.642V389.866H245.206ZM245.206 387.263V388.251H253.642V387.263H245.206ZM242.964 385.534H255.998V392.621H242.964V385.534ZM243.952 392.431L246.175 393.077C245.896 393.698 245.561 394.306 245.168 394.901C244.775 395.496 244.357 396.054 243.914 396.573C243.471 397.092 243.034 397.542 242.603 397.922C242.451 397.783 242.261 397.624 242.033 397.447C241.805 397.27 241.571 397.099 241.33 396.934C241.089 396.757 240.874 396.617 240.684 396.516C241.343 396.022 241.963 395.414 242.546 394.692C243.141 393.957 243.61 393.204 243.952 392.431Z" fill="black"/>
<path d="M184.128 35.598H198.815V37.859H184.128V35.598ZM183.026 48.537H200.069V50.798H183.026V48.537ZM189.41 36.396H192.013C191.823 37.536 191.614 38.7203 191.386 39.949C191.158 41.1777 190.924 42.4 190.683 43.616C190.442 44.832 190.202 45.9847 189.961 47.074C189.733 48.1633 189.511 49.1323 189.296 49.981H186.731C186.959 49.0943 187.2 48.1 187.453 46.998C187.706 45.8833 187.947 44.7243 188.175 43.521C188.416 42.305 188.644 41.089 188.859 39.873C189.074 38.657 189.258 37.498 189.41 36.396ZM184.755 41.165H197.086V49.601H194.711V43.407H184.755V41.165ZM201.95 38.41H219.126V40.481H201.95V38.41ZM203.299 35.256H217.815V37.251H203.299V35.256ZM206.434 33.85H208.752V39.417H206.434V33.85ZM212.305 33.85H214.661V39.417H212.305V33.85ZM209.341 39.588H211.697V47.378H209.341V39.588ZM206.035 45.516V46.618H215.098V45.516H206.035ZM206.035 42.989V44.053H215.098V42.989H206.035ZM203.85 41.412H217.397V48.176H203.85V41.412ZM211.868 49.392L213.141 47.948C213.838 48.176 214.541 48.423 215.25 48.689C215.972 48.955 216.656 49.2147 217.302 49.468C217.961 49.7213 218.524 49.9493 218.993 50.152L217.359 51.672C216.941 51.4693 216.434 51.235 215.839 50.969C215.244 50.7157 214.604 50.4497 213.92 50.171C213.236 49.8923 212.552 49.6327 211.868 49.392ZM207.498 48.024L209.436 49.373C208.929 49.6897 208.334 49.9937 207.65 50.285C206.966 50.589 206.263 50.8677 205.541 51.121C204.819 51.3743 204.135 51.5897 203.489 51.767C203.299 51.5263 203.046 51.2477 202.729 50.931C202.425 50.627 202.146 50.3673 201.893 50.152C202.564 50 203.248 49.81 203.945 49.582C204.654 49.3413 205.326 49.0817 205.959 48.803C206.592 48.5243 207.105 48.2647 207.498 48.024ZM222.128 39.759H236.91V42.001H222.128V39.759ZM220.874 48.651H238.183V50.893H220.874V48.651ZM228.246 33.888H230.697V50.19H228.246V33.888ZM242.477 46.181H254.865V47.967H242.477V46.181ZM242.971 43.122H255.72V45.022H242.971V43.122ZM240.121 49.259H256.936V51.216H240.121V49.259ZM247.398 41.963H249.754V50.608H247.398V41.963ZM244.206 38.866V39.892H252.642V38.866H244.206ZM244.206 36.263V37.251H252.642V36.263H244.206ZM241.964 34.534H254.998V41.621H241.964V34.534ZM242.952 41.431L245.175 42.077C244.896 42.6977 244.561 43.3057 244.168 43.901C243.775 44.4963 243.357 45.0537 242.914 45.573C242.471 46.0923 242.034 46.542 241.603 46.922C241.451 46.7827 241.261 46.6243 241.033 46.447C240.805 46.2697 240.571 46.0987 240.33 45.934C240.089 45.7567 239.874 45.6173 239.684 45.516C240.343 45.022 240.963 44.414 241.546 43.692C242.141 42.9573 242.61 42.2037 242.952 41.431Z" fill="black"/>
<path d="M202.798 204.445H222.244V207.196H202.798V204.445ZM226.927 211.942H239.968V214.483H226.927V211.942ZM226.885 205.516H239.968V208.015H226.885V205.516ZM225.583 199.216H241.48V215.827H238.792V201.778H228.124V215.848H225.583V199.216ZM231.736 196.066L235.033 196.507C234.711 197.291 234.368 198.054 234.004 198.796C233.64 199.538 233.311 200.175 233.017 200.707L230.518 200.203C230.672 199.797 230.826 199.356 230.98 198.88C231.148 198.404 231.295 197.921 231.421 197.431C231.561 196.941 231.666 196.486 231.736 196.066ZM203.092 226.316H208.93V228.857H203.092V226.316ZM211.24 221.171H213.928V237.614C213.928 238.37 213.837 238.958 213.655 239.378C213.473 239.798 213.158 240.12 212.71 240.344C212.262 240.568 211.688 240.715 210.988 240.785C210.302 240.869 209.476 240.911 208.51 240.911C208.482 240.645 208.412 240.337 208.3 239.987C208.202 239.651 208.083 239.315 207.943 238.979C207.803 238.629 207.663 238.335 207.523 238.097C208.209 238.125 208.853 238.139 209.455 238.139C210.057 238.139 210.463 238.139 210.673 238.139C210.883 238.139 211.03 238.097 211.114 238.013C211.198 237.929 211.24 237.796 211.24 237.614V221.171ZM208.069 226.316H208.594L209.056 226.211L210.778 226.841C210.47 228.759 210.008 230.502 209.392 232.07C208.79 233.638 208.076 235.017 207.25 236.207C206.438 237.383 205.528 238.342 204.52 239.084C204.38 238.874 204.184 238.643 203.932 238.391C203.68 238.125 203.414 237.873 203.134 237.635C202.868 237.397 202.63 237.215 202.42 237.089C203.386 236.431 204.247 235.605 205.003 234.611C205.759 233.603 206.396 232.448 206.914 231.146C207.446 229.83 207.831 228.402 208.069 226.862V226.316ZM213.76 224.237C214.096 225.637 214.523 226.981 215.041 228.269C215.573 229.557 216.196 230.761 216.91 231.881C217.624 233.001 218.45 234.002 219.388 234.884C220.34 235.752 221.404 236.466 222.58 237.026C222.37 237.194 222.139 237.411 221.887 237.677C221.635 237.943 221.397 238.23 221.173 238.538C220.963 238.832 220.781 239.105 220.627 239.357C219.003 238.433 217.624 237.243 216.49 235.787C215.356 234.317 214.411 232.637 213.655 230.747C212.899 228.857 212.269 226.827 211.765 224.657L213.76 224.237ZM219.661 224.447L222.034 226.106C221.432 226.722 220.795 227.359 220.123 228.017C219.451 228.675 218.779 229.298 218.107 229.886C217.449 230.474 216.826 230.985 216.238 231.419L214.411 230.012C214.985 229.536 215.587 228.983 216.217 228.353C216.861 227.723 217.484 227.072 218.086 226.4C218.688 225.714 219.213 225.063 219.661 224.447ZM226.843 234.779H240.535V236.753H226.843V234.779ZM227.389 231.398H241.48V233.498H227.389V231.398ZM224.239 238.181H242.824V240.344H224.239V238.181ZM232.282 230.117H234.886V239.672H232.282V230.117ZM228.754 226.694V227.828H238.078V226.694H228.754ZM228.754 223.817V224.909H238.078V223.817H228.754ZM226.276 221.906H240.682V229.739H226.276V221.906ZM227.368 229.529L229.825 230.243C229.517 230.929 229.146 231.601 228.712 232.259C228.278 232.917 227.816 233.533 227.326 234.107C226.836 234.681 226.353 235.178 225.877 235.598C225.709 235.444 225.499 235.269 225.247 235.073C224.995 234.877 224.736 234.688 224.47 234.506C224.204 234.31 223.966 234.156 223.756 234.044C224.484 233.498 225.17 232.826 225.814 232.028C226.472 231.216 226.99 230.383 227.368 229.529Z" fill="white"/>
<defs>
<linearGradient id="paint0_linear_2_2" x1="220.75" y1="26" x2="220.75" y2="412.5" gradientUnits="userSpaceOnUse">
<stop stop-color="#FFFBA7"/>
<stop offset="1" stop-color="#FDFAEC"/>
</linearGradient>
<linearGradient id="paint1_linear_2_2" x1="221" y1="64" x2="221" y2="374" gradientUnits="userSpaceOnUse">
<stop stop-color="#FFFDDC"/>
<stop offset="1" stop-color="#E3F8FF"/>
</linearGradient>
<linearGradient id="paint2_linear_2_2" x1="221" y1="109" x2="221" y2="329" gradientUnits="userSpaceOnUse">
<stop stop-color="#C8EEFF"/>
<stop offset="1" stop-color="#E1F3FF"/>
</linearGradient>
<linearGradient id="paint3_linear_2_2" x1="221" y1="154" x2="221" y2="284" gradientUnits="userSpaceOnUse">
<stop stop-color="#58C7FF"/>
<stop offset="1" stop-color="#9FE0FF"/>
</linearGradient>
</defs>
</svg>
