<svg width="442" height="452" viewBox="0 0 442 452" fill="none" xmlns="http://www.w3.org/2000/svg">
<rect width="442" height="452" fill="white"/>
<path d="M272.5 26H169L27.5 166.5V270.5L169 412.5H272.5L414 270.5V166.5L272.5 26Z" fill="url(#paint0_linear_2_274)" stroke="#FFFDE8"/>
<path d="M262.507 64H179.493L66 176.691V260.106L179.493 374H262.507L376 260.106V176.691L262.507 64Z" fill="url(#paint1_linear_2_274)" stroke="#FEFFEA"/>
<path d="M250.457 109H191.543L111 188.974V248.172L191.543 329H250.457L331 248.172V188.974L250.457 109Z" fill="url(#paint2_linear_2_274)" stroke="#DDF4FF"/>
<path d="M414.37 270.528L28 167" stroke="#888686"/>
<path d="M272.528 26L186.777 346.024L169 412.37" stroke="#888686" stroke-opacity="0.82"/>
<path d="M169 26L272.528 412.37" stroke="#888686"/>
<path d="M414.37 167L28 270.528" stroke="#888886"/>
<path d="M238.406 154H203.594L156 201.257V236.238L203.594 284H238.406L286 236.238V201.257L238.406 154Z" fill="url(#paint3_linear_2_274)" stroke="#B9E7FD"/>
<path d="M126.044 212.194H142.028V214.21H126.044V212.194ZM132.83 210.718H135.08V227.62H132.83V210.718ZM132.272 220.996L134.108 221.752C133.688 222.352 133.208 222.928 132.668 223.48C132.14 224.032 131.564 224.554 130.94 225.046C130.328 225.526 129.686 225.964 129.014 226.36C128.354 226.768 127.688 227.116 127.016 227.404C126.896 227.224 126.752 227.02 126.584 226.792C126.416 226.564 126.236 226.342 126.044 226.126C125.852 225.91 125.678 225.73 125.522 225.586C126.182 225.358 126.836 225.082 127.484 224.758C128.132 224.422 128.756 224.056 129.356 223.66C129.956 223.252 130.502 222.826 130.994 222.382C131.498 221.926 131.924 221.464 132.272 220.996ZM135.692 221.068C136.052 221.524 136.484 221.974 136.988 222.418C137.504 222.85 138.062 223.27 138.662 223.678C139.274 224.074 139.91 224.434 140.57 224.758C141.23 225.07 141.89 225.34 142.55 225.568C142.382 225.712 142.196 225.892 141.992 226.108C141.8 226.336 141.614 226.564 141.434 226.792C141.266 227.032 141.122 227.248 141.002 227.44C140.33 227.164 139.664 226.822 139.004 226.414C138.344 226.018 137.702 225.58 137.078 225.1C136.466 224.608 135.89 224.086 135.35 223.534C134.822 222.982 134.348 222.412 133.928 221.824L135.692 221.068ZM129.662 219.448V220.546H138.392V219.448H129.662ZM129.662 216.856V217.936H138.392V216.856H129.662ZM127.556 215.236H140.606V222.166H127.556V215.236Z" fill="black"/>
<path d="M82.744 213.856L84.552 214.432V222.752H82.744V213.856ZM93.896 213.952H95.752V222.624C95.752 223.051 95.704 223.413 95.608 223.712C95.512 224 95.3253 224.224 95.048 224.384C94.7707 224.544 94.44 224.645 94.056 224.688C93.6827 224.731 93.2453 224.752 92.744 224.752C92.7227 224.571 92.6747 224.363 92.6 224.128C92.5253 223.893 92.44 223.659 92.344 223.424C92.2587 223.189 92.168 222.987 92.072 222.816C92.4027 222.827 92.7173 222.837 93.016 222.848C93.3147 222.848 93.5173 222.848 93.624 222.848C93.7307 222.848 93.8 222.827 93.832 222.784C93.8747 222.741 93.896 222.672 93.896 222.576V213.952ZM81.496 222.432C82.1787 222.293 83 222.112 83.96 221.888C84.92 221.653 85.896 221.419 86.888 221.184L87.096 222.8C86.2107 223.045 85.3147 223.285 84.408 223.52C83.5013 223.755 82.6747 223.973 81.928 224.176L81.496 222.432ZM86.648 215.76H88.44V220.048C88.44 220.763 88.3813 221.472 88.264 222.176C88.1573 222.869 87.944 223.541 87.624 224.192C87.304 224.843 86.8293 225.445 86.2 226C85.5707 226.555 84.7333 227.04 83.688 227.456C83.6133 227.317 83.5067 227.152 83.368 226.96C83.24 226.779 83.096 226.603 82.936 226.432C82.7867 226.261 82.648 226.123 82.52 226.016C83.4373 225.653 84.168 225.248 84.712 224.8C85.2667 224.341 85.6827 223.856 85.96 223.344C86.2373 222.821 86.4187 222.283 86.504 221.728C86.6 221.163 86.648 220.592 86.648 220.016V215.76ZM89.704 213.952H94.872V215.696H91.512V227.44H89.704V213.952ZM87.256 212.432L88.968 213.648C88.4667 213.936 87.9387 214.224 87.384 214.512C86.8293 214.789 86.28 215.051 85.736 215.296C85.2027 215.541 84.696 215.749 84.216 215.92L82.984 214.864C83.432 214.661 83.9173 214.427 84.44 214.16C84.9627 213.883 85.4693 213.595 85.96 213.296C86.4613 212.987 86.8933 212.699 87.256 212.432Z" fill="black"/>
<path d="M40.618 176.116H43.107C43.0943 177.623 43.0627 179.093 43.012 180.524C42.9613 181.943 42.8347 183.298 42.632 184.59C42.4293 185.869 42.1 187.073 41.644 188.2C41.188 189.315 40.5483 190.341 39.725 191.278C38.9143 192.203 37.863 193.013 36.571 193.71C36.4697 193.52 36.324 193.305 36.134 193.064C35.944 192.836 35.7413 192.608 35.526 192.38C35.3233 192.165 35.1207 191.994 34.918 191.867C36.1213 191.246 37.084 190.531 37.806 189.72C38.5407 188.909 39.1043 188.016 39.497 187.041C39.8897 186.053 40.162 184.983 40.314 183.83C40.466 182.677 40.5483 181.455 40.561 180.163C40.5863 178.871 40.6053 177.522 40.618 176.116ZM35.887 180.524H47.572V182.823H35.887V180.524ZM46.318 180.524H48.693V190.29C48.693 190.695 48.7247 190.955 48.788 191.069C48.8513 191.17 48.997 191.221 49.225 191.221C49.2757 191.221 49.358 191.221 49.472 191.221C49.586 191.221 49.7127 191.221 49.852 191.221C49.9913 191.221 50.118 191.221 50.232 191.221C50.3587 191.221 50.4473 191.221 50.498 191.221C50.6627 191.221 50.783 191.145 50.859 190.993C50.935 190.841 50.992 190.556 51.03 190.138C51.068 189.72 51.0997 189.112 51.125 188.314C51.315 188.453 51.5303 188.586 51.771 188.713C52.0243 188.84 52.284 188.96 52.55 189.074C52.816 189.175 53.0567 189.251 53.272 189.302C53.2087 190.328 53.0883 191.145 52.911 191.753C52.7337 192.348 52.474 192.773 52.132 193.026C51.79 193.292 51.3277 193.425 50.745 193.425C50.6437 193.425 50.5043 193.425 50.327 193.425C50.1497 193.425 49.9597 193.425 49.757 193.425C49.5543 193.425 49.3643 193.425 49.187 193.425C49.0223 193.425 48.8957 193.425 48.807 193.425C48.1863 193.425 47.6923 193.33 47.325 193.14C46.9703 192.963 46.7107 192.646 46.546 192.19C46.394 191.734 46.318 191.094 46.318 190.271V180.524ZM42.784 211.39H45.14V216.71H42.784V211.39ZM35.355 210.592C36.2797 210.592 37.331 210.592 38.509 210.592C39.687 210.579 40.941 210.567 42.271 210.554C43.601 210.529 44.969 210.51 46.375 210.497C47.781 210.472 49.1743 210.453 50.555 210.44L50.441 212.245C49.0857 212.296 47.7177 212.34 46.337 212.378C44.969 212.416 43.6263 212.454 42.309 212.492C41.0043 212.517 39.763 212.549 38.585 212.587C37.4197 212.612 36.3683 212.631 35.431 212.644L35.355 210.592ZM42.347 205.386L44.456 206.222C43.8733 206.767 43.2527 207.292 42.594 207.799C41.948 208.293 41.3463 208.711 40.789 209.053L39.041 208.236C39.4083 207.983 39.7947 207.698 40.2 207.381C40.618 207.052 41.0107 206.716 41.378 206.374C41.7453 206.019 42.0683 205.69 42.347 205.386ZM46.394 206.545L48.636 207.457C47.8887 208.04 47.078 208.61 46.204 209.167C45.3427 209.724 44.4813 210.25 43.62 210.744C42.7587 211.238 41.948 211.669 41.188 212.036L39.459 211.105C40.2317 210.725 41.0423 210.275 41.891 209.756C42.7523 209.237 43.5757 208.698 44.361 208.141C45.1463 207.571 45.824 207.039 46.394 206.545ZM37.255 208.369L38.889 207.039C39.4083 207.254 39.9467 207.501 40.504 207.78C41.074 208.046 41.6187 208.318 42.138 208.597C42.6573 208.863 43.107 209.11 43.487 209.338L41.834 210.839C41.4793 210.598 41.036 210.332 40.504 210.041C39.9847 209.737 39.44 209.439 38.87 209.148C38.3127 208.857 37.7743 208.597 37.255 208.369ZM46.28 213.917L48.256 212.872C48.75 213.113 49.263 213.391 49.795 213.708C50.327 214.012 50.84 214.322 51.334 214.639C51.8407 214.943 52.2713 215.215 52.626 215.456L50.593 216.653C50.2637 216.387 49.852 216.089 49.358 215.76C48.864 215.443 48.3447 215.12 47.8 214.791C47.268 214.449 46.7613 214.158 46.28 213.917ZM39.345 212.91L41.511 213.746C41.131 214.113 40.6813 214.481 40.162 214.848C39.6553 215.215 39.1297 215.557 38.585 215.874C38.053 216.191 37.54 216.469 37.046 216.71C36.9067 216.571 36.723 216.4 36.495 216.197C36.2797 216.007 36.0517 215.817 35.811 215.627C35.583 215.45 35.3803 215.304 35.203 215.19C35.963 214.911 36.723 214.569 37.483 214.164C38.243 213.759 38.8637 213.341 39.345 212.91ZM46.945 209.433L48.902 208.578C49.3707 208.945 49.8583 209.357 50.365 209.813C50.8843 210.269 51.372 210.725 51.828 211.181C52.284 211.637 52.6577 212.055 52.949 212.435L50.821 213.385C50.5677 213.018 50.2257 212.606 49.795 212.15C49.377 211.681 48.9147 211.213 48.408 210.744C47.9013 210.263 47.4137 209.826 46.945 209.433ZM40.333 200.522H43.905V202.327H40.333V200.522ZM44.589 198.85H46.85V203.695C46.85 203.999 46.9007 204.195 47.002 204.284C47.116 204.36 47.363 204.398 47.743 204.398C47.8317 204.398 47.9773 204.398 48.18 204.398C48.3827 204.398 48.6043 204.398 48.845 204.398C49.0857 204.398 49.3137 204.398 49.529 204.398C49.7443 204.398 49.9027 204.398 50.004 204.398C50.2193 204.398 50.3777 204.366 50.479 204.303C50.593 204.227 50.6753 204.088 50.726 203.885C50.7767 203.67 50.8147 203.359 50.84 202.954C51.068 203.106 51.3783 203.258 51.771 203.41C52.1637 203.549 52.5183 203.651 52.835 203.714C52.7463 204.411 52.607 204.955 52.417 205.348C52.227 205.728 51.961 205.994 51.619 206.146C51.277 206.298 50.8147 206.374 50.232 206.374C50.1307 206.374 49.985 206.374 49.795 206.374C49.6177 206.374 49.415 206.374 49.187 206.374C48.959 206.374 48.7247 206.374 48.484 206.374C48.256 206.374 48.047 206.374 47.857 206.374C47.6797 206.374 47.5467 206.374 47.458 206.374C46.6853 206.374 46.09 206.292 45.672 206.127C45.2667 205.962 44.9817 205.69 44.817 205.31C44.665 204.917 44.589 204.385 44.589 203.714V198.85ZM35.127 204.664C35.8617 204.601 36.7103 204.518 37.673 204.417C38.6483 204.303 39.6743 204.183 40.751 204.056C41.8403 203.929 42.9233 203.803 44 203.676L44.057 205.462C43.031 205.614 41.9923 205.766 40.941 205.918C39.8897 206.057 38.8827 206.197 37.92 206.336C36.97 206.463 36.1023 206.583 35.317 206.697L35.127 204.664ZM50.612 199.762L52.303 201.358C51.695 201.624 51.0363 201.871 50.327 202.099C49.6303 202.314 48.9147 202.517 48.18 202.707C47.4453 202.884 46.736 203.043 46.052 203.182C46.014 202.954 45.9253 202.682 45.786 202.365C45.6593 202.036 45.5327 201.763 45.406 201.548C46.0267 201.383 46.66 201.206 47.306 201.016C47.952 200.826 48.56 200.623 49.13 200.408C49.7 200.193 50.194 199.977 50.612 199.762ZM39.402 198.85H41.511V205.31L39.402 205.462V198.85ZM36.305 200.256H38.262V205.481L36.305 205.652V200.256ZM37.863 225.631L40.162 226.144C40.0607 226.929 39.915 227.696 39.725 228.443C39.5477 229.19 39.2943 229.887 38.965 230.533C38.6357 231.166 38.1987 231.711 37.654 232.167L35.583 230.875C36.0517 230.482 36.4317 230.02 36.723 229.488C37.027 228.943 37.2677 228.348 37.445 227.702C37.635 227.043 37.7743 226.353 37.863 225.631ZM49.529 225.612L52.056 226.562C51.7267 227.17 51.3847 227.797 51.03 228.443C50.6753 229.076 50.3207 229.684 49.966 230.267C49.624 230.837 49.2883 231.337 48.959 231.768L47.002 230.894C47.2933 230.425 47.5973 229.887 47.914 229.279C48.2433 228.671 48.5473 228.05 48.826 227.417C49.1047 226.771 49.339 226.169 49.529 225.612ZM43.905 222.116H45.14V228.082C45.14 228.551 45.1907 229.064 45.292 229.621C45.406 230.178 45.5833 230.748 45.824 231.331C46.0647 231.914 46.3813 232.496 46.774 233.079C47.1793 233.662 47.667 234.225 48.237 234.77C48.807 235.315 49.472 235.828 50.232 236.309C51.0047 236.778 51.885 237.196 52.873 237.563C52.6957 237.728 52.5057 237.937 52.303 238.19C52.1003 238.443 51.904 238.703 51.714 238.969C51.5367 239.235 51.391 239.476 51.277 239.691C50.365 239.324 49.5417 238.887 48.807 238.38C48.0723 237.873 47.42 237.341 46.85 236.784C46.2927 236.214 45.8113 235.644 45.406 235.074C45.0007 234.504 44.6713 233.966 44.418 233.459C44.1773 232.952 44 232.509 43.886 232.129C43.7973 232.522 43.6327 232.971 43.392 233.478C43.164 233.985 42.8537 234.523 42.461 235.093C42.081 235.65 41.6187 236.208 41.074 236.765C40.542 237.322 39.915 237.854 39.193 238.361C38.4837 238.868 37.6857 239.311 36.799 239.691C36.6977 239.514 36.552 239.305 36.362 239.064C36.172 238.823 35.9693 238.583 35.754 238.342C35.5387 238.101 35.3487 237.905 35.184 237.753C36.3367 237.322 37.331 236.803 38.167 236.195C39.0157 235.574 39.725 234.916 40.295 234.219C40.865 233.522 41.321 232.813 41.663 232.091C42.0177 231.356 42.271 230.653 42.423 229.982C42.5877 229.298 42.67 228.665 42.67 228.082V222.116H43.905ZM37.977 257.181H50.365V258.967H37.977V257.181ZM38.471 254.122H51.22V256.022H38.471V254.122ZM35.621 260.259H52.436V262.216H35.621V260.259ZM42.898 252.963H45.254V261.608H42.898V252.963ZM39.706 249.866V250.892H48.142V249.866H39.706ZM39.706 247.263V248.251H48.142V247.263H39.706ZM37.464 245.534H50.498V252.621H37.464V245.534ZM38.452 252.431L40.675 253.077C40.3963 253.698 40.0607 254.306 39.668 254.901C39.2753 255.496 38.8573 256.054 38.414 256.573C37.9707 257.092 37.5337 257.542 37.103 257.922C36.951 257.783 36.761 257.624 36.533 257.447C36.305 257.27 36.0707 257.099 35.83 256.934C35.5893 256.757 35.374 256.617 35.184 256.516C35.8427 256.022 36.4633 255.414 37.046 254.692C37.6413 253.957 38.11 253.204 38.452 252.431Z" fill="black"/>
<path d="M390.001 177.522H406.075V193.007H403.662V179.726H392.3V193.159H390.001V177.522ZM391.217 189.72H404.916V191.905H391.217V189.72ZM398.646 179.118H400.869V184.4C400.869 184.691 400.888 184.862 400.926 184.913C400.989 184.976 401.091 185.008 401.23 185.008C401.293 185.008 401.376 185.008 401.477 185.008C401.578 185.008 401.661 185.008 401.724 185.008C401.787 185.008 401.851 185.002 401.914 184.989C401.99 184.976 402.047 184.957 402.085 184.932C402.123 184.907 402.161 184.869 402.199 184.818C402.25 184.755 402.281 184.66 402.294 184.533C402.319 184.406 402.332 184.21 402.332 183.944C402.345 183.665 402.357 183.349 402.37 182.994C402.573 183.171 402.839 183.349 403.168 183.526C403.51 183.703 403.827 183.836 404.118 183.925C404.093 184.305 404.055 184.685 404.004 185.065C403.966 185.432 403.909 185.705 403.833 185.882C403.744 186.072 403.637 186.23 403.51 186.357C403.396 186.471 403.244 186.572 403.054 186.661C402.902 186.737 402.712 186.794 402.484 186.832C402.269 186.857 402.066 186.87 401.876 186.87C401.762 186.87 401.629 186.87 401.477 186.87C401.325 186.87 401.173 186.87 401.021 186.87C400.882 186.87 400.755 186.87 400.641 186.87C400.388 186.87 400.128 186.832 399.862 186.756C399.596 186.68 399.368 186.56 399.178 186.395C399.001 186.23 398.868 186.009 398.779 185.73C398.69 185.451 398.646 184.989 398.646 184.343V179.118ZM394.808 179.08H397.031C396.993 180.385 396.885 181.594 396.708 182.709C396.531 183.824 396.214 184.824 395.758 185.711C395.302 186.598 394.612 187.358 393.687 187.991C393.56 187.725 393.358 187.427 393.079 187.098C392.8 186.756 392.534 186.484 392.281 186.281C393.028 185.787 393.573 185.185 393.915 184.476C394.257 183.754 394.485 182.943 394.599 182.044C394.713 181.132 394.783 180.144 394.808 179.08ZM405.125 207.457L406.854 208.597C406.474 209.04 406.081 209.49 405.676 209.946C405.283 210.402 404.929 210.788 404.612 211.105L403.225 210.117C403.428 209.876 403.643 209.604 403.871 209.3C404.112 208.996 404.34 208.686 404.555 208.369C404.783 208.04 404.973 207.736 405.125 207.457ZM396.632 208.635L398.19 207.609C398.532 207.976 398.88 208.394 399.235 208.863C399.59 209.319 399.849 209.731 400.014 210.098L398.361 211.238C398.209 210.871 397.962 210.446 397.62 209.965C397.291 209.471 396.961 209.028 396.632 208.635ZM397.164 199.553H405.182V205.975H402.959V201.396H397.164V199.553ZM397.62 202.346H404.194V204.113H397.62V202.346ZM396.271 205.12H406.759V207.02H396.271V205.12ZM400.432 205.975H402.541V214.525C402.541 215.006 402.49 215.386 402.389 215.665C402.288 215.956 402.079 216.178 401.762 216.33C401.471 216.495 401.11 216.596 400.679 216.634C400.261 216.685 399.767 216.71 399.197 216.71C399.172 216.419 399.102 216.083 398.988 215.703C398.874 215.336 398.754 215.013 398.627 214.734C398.944 214.747 399.248 214.759 399.539 214.772C399.843 214.772 400.046 214.766 400.147 214.753C400.337 214.753 400.432 214.664 400.432 214.487V205.975ZM395.53 213.689C396.037 213.41 396.651 213.049 397.373 212.606C398.095 212.15 398.83 211.681 399.577 211.2L400.28 212.91C399.672 213.379 399.045 213.847 398.399 214.316C397.766 214.772 397.17 215.203 396.613 215.608L395.53 213.689ZM402.465 207.02C402.579 207.641 402.75 208.287 402.978 208.958C403.206 209.617 403.497 210.269 403.852 210.915C404.207 211.548 404.644 212.131 405.163 212.663C405.695 213.182 406.322 213.613 407.044 213.955C406.905 214.082 406.746 214.253 406.569 214.468C406.392 214.683 406.221 214.905 406.056 215.133C405.891 215.374 405.758 215.589 405.657 215.779C404.973 215.361 404.378 214.848 403.871 214.24C403.377 213.632 402.953 212.98 402.598 212.283C402.243 211.574 401.952 210.871 401.724 210.174C401.509 209.477 401.338 208.831 401.211 208.236L402.465 207.02ZM391.901 198.869L393.877 199.572C393.624 200.066 393.358 200.573 393.079 201.092C392.8 201.599 392.528 202.093 392.262 202.574C391.996 203.043 391.743 203.454 391.502 203.809L389.982 203.182C390.21 202.789 390.444 202.346 390.685 201.852C390.926 201.358 391.154 200.845 391.369 200.313C391.597 199.781 391.774 199.3 391.901 198.869ZM394.048 201.13L395.91 201.966C395.441 202.675 394.935 203.423 394.39 204.208C393.845 204.993 393.301 205.747 392.756 206.469C392.211 207.191 391.692 207.824 391.198 208.369L389.887 207.647C390.242 207.216 390.609 206.735 390.989 206.203C391.382 205.658 391.762 205.095 392.129 204.512C392.509 203.917 392.864 203.328 393.193 202.745C393.522 202.162 393.807 201.624 394.048 201.13ZM388.975 203.315L390.096 201.776C390.413 202.08 390.742 202.409 391.084 202.764C391.426 203.119 391.743 203.473 392.034 203.828C392.325 204.183 392.541 204.512 392.68 204.816L391.464 206.545C391.325 206.241 391.116 205.899 390.837 205.519C390.571 205.139 390.273 204.759 389.944 204.379C389.615 203.986 389.292 203.632 388.975 203.315ZM393.402 205.671L394.998 205.025C395.251 205.443 395.492 205.899 395.72 206.393C395.948 206.887 396.151 207.368 396.328 207.837C396.505 208.293 396.632 208.705 396.708 209.072L394.979 209.832C394.928 209.465 394.821 209.04 394.656 208.559C394.491 208.078 394.301 207.59 394.086 207.096C393.871 206.589 393.643 206.114 393.402 205.671ZM388.918 207.191C389.767 207.153 390.767 207.102 391.92 207.039C393.073 206.963 394.244 206.887 395.435 206.811L395.473 208.673C394.358 208.762 393.244 208.85 392.129 208.939C391.027 209.015 390.033 209.091 389.146 209.167L388.918 207.191ZM393.934 210.44L395.511 209.965C395.739 210.484 395.942 211.061 396.119 211.694C396.309 212.327 396.429 212.866 396.48 213.309L394.789 213.86C394.751 213.404 394.65 212.859 394.485 212.226C394.333 211.58 394.149 210.985 393.934 210.44ZM389.735 210.022L391.559 210.345C391.458 211.257 391.306 212.156 391.103 213.043C390.913 213.917 390.685 214.658 390.419 215.266C390.292 215.177 390.128 215.082 389.925 214.981C389.722 214.88 389.513 214.785 389.298 214.696C389.083 214.595 388.899 214.519 388.747 214.468C389.026 213.898 389.241 213.214 389.393 212.416C389.545 211.618 389.659 210.82 389.735 210.022ZM391.806 208.217H393.782V216.71H391.806V208.217ZM389.659 226.296H406.379V228.557H389.659V226.296ZM396.784 221.869H399.216V239.71H396.784V221.869ZM396.29 227.531L398.304 228.215C397.873 229.216 397.379 230.185 396.822 231.122C396.265 232.059 395.65 232.946 394.979 233.782C394.32 234.618 393.611 235.391 392.851 236.1C392.104 236.797 391.318 237.398 390.495 237.905C390.368 237.715 390.204 237.5 390.001 237.259C389.798 237.018 389.589 236.784 389.374 236.556C389.159 236.315 388.962 236.119 388.785 235.967C389.57 235.536 390.33 235.017 391.065 234.409C391.812 233.788 392.515 233.111 393.174 232.376C393.833 231.629 394.422 230.843 394.941 230.02C395.473 229.197 395.923 228.367 396.29 227.531ZM399.653 227.626C400.02 228.437 400.476 229.241 401.021 230.039C401.566 230.837 402.167 231.597 402.826 232.319C403.497 233.041 404.2 233.706 404.935 234.314C405.67 234.922 406.423 235.435 407.196 235.853C407.019 235.992 406.816 236.182 406.588 236.423C406.373 236.651 406.164 236.892 405.961 237.145C405.771 237.398 405.613 237.626 405.486 237.829C404.688 237.322 403.922 236.727 403.187 236.043C402.452 235.346 401.749 234.586 401.078 233.763C400.407 232.927 399.792 232.047 399.235 231.122C398.678 230.197 398.177 229.254 397.734 228.291L399.653 227.626ZM391.977 257.181H404.365V258.967H391.977V257.181ZM392.471 254.122H405.22V256.022H392.471V254.122ZM389.621 260.259H406.436V262.216H389.621V260.259ZM396.898 252.963H399.254V261.608H396.898V252.963ZM393.706 249.866V250.892H402.142V249.866H393.706ZM393.706 247.263V248.251H402.142V247.263H393.706ZM391.464 245.534H404.498V252.621H391.464V245.534ZM392.452 252.431L394.675 253.077C394.396 253.698 394.061 254.306 393.668 254.901C393.275 255.496 392.857 256.054 392.414 256.573C391.971 257.092 391.534 257.542 391.103 257.922C390.951 257.783 390.761 257.624 390.533 257.447C390.305 257.27 390.071 257.099 389.83 256.934C389.589 256.757 389.374 256.617 389.184 256.516C389.843 256.022 390.463 255.414 391.046 254.692C391.641 253.957 392.11 253.204 392.452 252.431Z" fill="black"/>
<path d="M148.246 170.277L159.549 158.974L160.974 160.4L149.672 171.702L148.246 170.277ZM156.52 172.95L162.209 167.26L163.393 168.444L157.703 174.133L156.52 172.95ZM158.276 175.241L164.513 169.004L165.735 170.226L159.498 176.462L158.276 175.241ZM159.192 171.448L160.631 170.009L165.111 174.49L163.673 175.928L159.192 171.448ZM151.11 172.173L160.325 162.958L161.725 164.358L154.038 172.046L161.127 179.135L159.6 180.663L151.11 172.173ZM159.892 163.391L161.458 161.825L168.42 168.788C168.785 169.152 169.014 169.483 169.107 169.78C169.209 170.086 169.184 170.417 169.031 170.773C168.878 171.146 168.62 171.533 168.255 171.931C167.907 172.33 167.474 172.788 166.956 173.306C166.727 173.145 166.439 172.992 166.091 172.848C165.752 172.695 165.442 172.58 165.162 172.504C165.382 172.3 165.607 172.093 165.836 171.88C166.065 171.668 166.269 171.473 166.447 171.295C166.625 171.1 166.744 170.972 166.804 170.913C166.922 170.794 166.986 170.697 166.995 170.62C166.995 170.535 166.948 170.446 166.855 170.353L159.892 163.391ZM155.654 171.117L156.507 169.551C156.863 169.602 157.237 169.695 157.627 169.831C158.026 169.958 158.357 170.086 158.62 170.213L157.767 171.906C157.512 171.753 157.186 171.605 156.787 171.46C156.388 171.316 156.01 171.202 155.654 171.117ZM158.912 167.197L160.554 166.267C160.69 166.743 160.817 167.209 160.936 167.667C161.055 168.109 161.144 168.512 161.203 168.877L159.791 169.628C159.731 169.381 159.651 169.114 159.549 168.826C159.455 168.529 159.354 168.24 159.243 167.96C159.133 167.68 159.023 167.426 158.912 167.197ZM152.116 164.473L153.783 162.805L158.123 167.146L156.456 168.813L152.116 164.473ZM161 157.523L172.302 146.221L173.728 147.646L162.425 158.949L161 157.523ZM164.754 151.681L166.345 150.09L178.297 162.042L176.706 163.633L164.754 151.681ZM171.628 159.343L173.46 158.58C173.588 159.301 173.656 160.048 173.664 160.82C173.681 161.584 173.643 162.36 173.549 163.149C173.456 163.921 173.312 164.685 173.117 165.44C172.939 166.195 172.714 166.912 172.442 167.591C172.23 167.549 171.984 167.506 171.704 167.464C171.424 167.421 171.14 167.392 170.851 167.375C170.563 167.358 170.312 167.354 170.1 167.362C170.406 166.734 170.673 166.076 170.902 165.389C171.123 164.693 171.305 163.993 171.449 163.289C171.585 162.576 171.67 161.889 171.704 161.227C171.738 160.548 171.712 159.92 171.628 159.343ZM174.097 156.976C174.674 157.044 175.297 157.057 175.968 157.014C176.638 156.955 177.33 156.857 178.042 156.721C178.755 156.569 179.459 156.374 180.155 156.136C180.843 155.89 181.5 155.614 182.128 155.309C182.111 155.529 182.107 155.788 182.115 156.085C182.141 156.382 182.171 156.675 182.204 156.963C182.255 157.252 182.306 157.506 182.357 157.727C181.687 158.007 180.974 158.236 180.219 158.414C179.472 158.601 178.709 158.745 177.928 158.847C177.147 158.932 176.371 158.97 175.599 158.962C174.835 158.945 174.097 158.877 173.384 158.758L174.097 156.976ZM168.687 160.094L169.464 160.871L175.637 154.698L174.86 153.921L168.687 160.094ZM166.855 158.262L167.618 159.025L173.791 152.852L173.028 152.088L166.855 158.262ZM164.22 158.605L173.448 149.377L178.348 154.278L169.12 163.505L164.22 158.605Z" fill="black"/>
<path d="M113.785 145.701L122.248 137.238L123.56 138.551L115.098 147.013L113.785 145.701ZM117.847 149.876L126.626 141.096L127.86 142.329L119.08 151.109L117.847 149.876ZM117.179 146.47L123.345 140.304L124.567 141.526L118.401 147.692L117.179 146.47ZM113.005 146.482L114.362 145.124L117.802 148.563C118.284 149.046 118.797 149.589 119.34 150.192C119.883 150.796 120.415 151.441 120.936 152.127C121.456 152.813 121.916 153.522 122.316 154.254C122.723 154.978 123.025 155.702 123.221 156.426C123.063 156.434 122.863 156.468 122.621 156.528C122.388 156.581 122.15 156.645 121.909 156.72C121.675 156.788 121.479 156.864 121.32 156.947C121.147 156.275 120.879 155.616 120.517 154.967C120.155 154.318 119.74 153.692 119.273 153.089C118.805 152.485 118.326 151.916 117.836 151.38C117.345 150.845 116.878 150.355 116.433 149.91L113.005 146.482ZM119.827 148.846L121.151 147.522L125.427 151.799L124.103 153.123L119.827 148.846ZM122.814 154.005C123.146 153.583 123.515 153.093 123.922 152.534C124.33 151.961 124.76 151.358 125.212 150.724C125.672 150.083 126.129 149.446 126.581 148.812L127.848 149.921C127.449 150.517 127.037 151.124 126.615 151.742C126.193 152.361 125.782 152.953 125.382 153.519C124.997 154.084 124.639 154.609 124.307 155.091L122.814 154.005ZM123.108 145.565C124.036 146.131 124.96 146.527 125.88 146.753C126.8 146.979 127.731 147.006 128.674 146.832C129.625 146.651 130.605 146.236 131.616 145.588C131.616 145.784 131.631 146.01 131.661 146.267C131.699 146.516 131.744 146.764 131.797 147.013C131.857 147.27 131.921 147.492 131.989 147.681C130.835 148.337 129.723 148.733 128.652 148.869C127.581 148.989 126.51 148.884 125.438 148.552C124.367 148.22 123.247 147.703 122.078 147.002L123.108 145.565ZM126.457 143.755L128.425 143.348C128.342 143.823 128.241 144.317 128.12 144.83C128.007 145.335 127.882 145.829 127.746 146.312C127.611 146.78 127.479 147.213 127.35 147.613L125.767 147.839C125.88 147.439 125.982 146.998 126.072 146.516C126.17 146.025 126.253 145.543 126.321 145.067C126.389 144.577 126.434 144.14 126.457 143.755ZM138.987 145.072L126.146 132.231L127.232 131.145L140.073 143.986L138.987 145.072ZM137.375 129.488L144.084 122.779L145.419 124.114L138.71 130.823L137.375 129.488ZM133.788 125.947L141.233 118.503L146.754 124.024L145.351 125.427L141.165 121.24L135.123 127.282L133.788 125.947ZM132.974 126.762L134.388 125.347L141.674 132.633C141.968 132.927 142.221 133.12 142.432 133.21C142.636 133.293 142.858 133.259 143.099 133.109C143.348 132.95 143.68 132.664 144.095 132.249C144.216 132.128 144.404 131.939 144.661 131.683C144.917 131.427 145.204 131.14 145.521 130.823C145.845 130.499 146.169 130.174 146.494 129.85C146.818 129.526 147.108 129.235 147.365 128.979C147.629 128.715 147.821 128.523 147.942 128.402C148.319 128.025 148.56 127.701 148.666 127.429C148.771 127.142 148.749 126.833 148.598 126.501C148.44 126.162 148.149 125.721 147.727 125.178C147.923 125.132 148.138 125.068 148.372 124.985C148.598 124.895 148.824 124.789 149.05 124.668C149.277 124.548 149.469 124.438 149.627 124.34C150.035 124.868 150.348 125.355 150.566 125.8C150.778 126.237 150.88 126.656 150.872 127.056C150.872 127.448 150.748 127.851 150.499 128.266C150.265 128.681 149.903 129.134 149.412 129.624C149.322 129.714 149.171 129.865 148.96 130.076C148.756 130.28 148.519 130.518 148.247 130.789C147.983 131.053 147.708 131.328 147.421 131.615C147.135 131.902 146.859 132.177 146.595 132.441C146.331 132.705 146.098 132.939 145.894 133.142C145.698 133.339 145.555 133.482 145.464 133.572C144.913 134.123 144.423 134.545 143.993 134.84C143.563 135.134 143.152 135.303 142.76 135.349C142.368 135.394 141.972 135.307 141.572 135.088C141.165 134.862 140.724 134.511 140.248 134.036L132.974 126.762Z" fill="black"/>
<path d="M79.3394 132.897L91.7802 120.456L93.5402 122.216L81.0993 134.657L79.3394 132.897ZM99.5725 122.256L107.916 113.913L109.541 115.539L101.198 123.882L99.5725 122.256ZM95.4345 118.172L103.805 109.802L105.403 111.401L97.0333 119.771L95.4345 118.172ZM90.571 114.974L100.741 104.804L111.368 115.431L109.649 117.151L100.661 108.163L93.8358 114.988L102.837 123.989L101.212 125.615L90.571 114.974ZM92.4923 109.023L94.8837 107.195C95.1793 107.903 95.448 108.611 95.6898 109.318C95.9316 110.026 96.1287 110.644 96.2809 111.172L94.3597 112.449C94.1985 112.09 94.0149 111.71 93.8089 111.307C93.6118 110.895 93.3969 110.492 93.164 110.097C92.9401 109.694 92.7162 109.336 92.4923 109.023ZM104.396 103.837L108.131 100.102L109.756 101.727L106.021 105.462L104.396 103.837ZM106.317 95.3323L108.037 93.6126L118.556 104.132C119.04 104.616 119.358 105.05 119.51 105.435C119.662 105.821 119.667 106.228 119.524 106.658C119.38 107.088 119.107 107.549 118.704 108.042C118.319 108.534 117.817 109.09 117.199 109.708C117.011 109.556 116.769 109.403 116.474 109.251C116.196 109.099 115.905 108.96 115.601 108.835C115.287 108.7 115.009 108.602 114.768 108.539C115.224 108.118 115.645 107.715 116.03 107.33C116.416 106.945 116.675 106.685 116.81 106.551C116.944 106.416 117.011 106.295 117.011 106.188C117.011 106.08 116.953 105.968 116.837 105.852L106.317 95.3323ZM107.58 100.653L107.916 100.317L108.144 99.954L109.649 99.2554C110.679 100.679 111.498 102.09 112.107 103.487C112.725 104.876 113.151 106.215 113.384 107.504C113.617 108.776 113.648 109.972 113.478 111.092C113.254 111.047 112.981 111.024 112.658 111.024C112.327 111.015 111.995 111.024 111.664 111.051C111.342 111.069 111.073 111.105 110.858 111.159C111.055 110.12 111.077 109.041 110.925 107.921C110.764 106.792 110.432 105.646 109.931 104.482C109.429 103.299 108.762 102.139 107.929 101.002L107.58 100.653ZM109.891 95.6816C111.001 96.3623 112.134 96.949 113.29 97.4416C114.454 97.9253 115.623 98.297 116.796 98.5567C117.97 98.8165 119.138 98.9284 120.303 98.8926C121.467 98.8389 122.605 98.615 123.715 98.2209C123.688 98.4627 123.679 98.7493 123.688 99.0807C123.697 99.4121 123.729 99.748 123.782 100.088C123.836 100.411 123.894 100.702 123.957 100.962C122.327 101.409 120.683 101.53 119.026 101.324C117.36 101.109 115.681 100.639 113.988 99.9137C112.295 99.1882 110.594 98.2925 108.883 97.2267L109.891 95.6816ZM113.8 92.0407L116.38 91.584C116.389 92.3632 116.389 93.1782 116.38 94.0291C116.371 94.88 116.339 95.7085 116.286 96.5146C116.241 97.3118 116.169 98.0372 116.071 98.6911L114.002 98.9598C114.064 98.288 114.096 97.5491 114.096 96.743C114.105 95.9279 114.087 95.1129 114.042 94.2978C113.988 93.4738 113.908 92.7215 113.8 92.0407ZM125.005 94.056L133.765 85.2964L135.028 86.5593L126.268 95.3189L125.005 94.056ZM123.191 91.5437L132.206 82.5287L133.55 83.8722L124.535 92.8872L123.191 91.5437ZM125.516 97.8984L137.406 86.0084L138.789 87.3922L126.899 99.2822L125.516 97.8984ZM125.502 87.5938L127.168 85.9278L133.281 92.0407L131.615 93.7067L125.502 87.5938ZM121.055 87.6609L121.781 88.3864L127.746 82.4213L127.02 81.6958L121.055 87.6609ZM119.215 85.8203L119.913 86.519L125.878 80.5538L125.18 79.8552L119.215 85.8203ZM116.407 86.1831L125.623 76.9666L130.634 81.9779L121.418 91.1943L116.407 86.1831ZM121.982 90.3614L124.011 89.2463C124.253 89.8822 124.445 90.5495 124.589 91.2481C124.732 91.9467 124.83 92.6364 124.884 93.3171C124.938 93.9978 124.947 94.6248 124.911 95.198C124.705 95.2069 124.459 95.2293 124.172 95.2652C123.885 95.301 123.599 95.3458 123.312 95.3995C123.017 95.4443 122.766 95.498 122.56 95.5607C122.676 94.7457 122.685 93.8769 122.587 92.9543C122.488 92.0139 122.287 91.1496 121.982 90.3614Z" fill="black"/>
<path d="M269.936 145.246L281.239 156.549L279.813 157.974L268.511 146.672L269.936 145.246ZM267.264 153.52L272.953 159.209L271.769 160.393L266.08 154.703L267.264 153.52ZM264.973 155.276L271.209 161.513L269.987 162.735L263.751 156.498L264.973 155.276ZM268.765 156.192L270.204 157.631L265.724 162.111L264.285 160.673L268.765 156.192ZM268.04 148.11L277.255 157.325L275.855 158.725L268.167 151.038L261.078 158.127L259.55 156.6L268.04 148.11ZM276.822 156.892L278.388 158.458L271.426 165.42C271.061 165.785 270.73 166.014 270.433 166.107C270.127 166.209 269.796 166.184 269.44 166.031C269.067 165.878 268.681 165.62 268.282 165.255C267.883 164.907 267.425 164.474 266.907 163.956C267.068 163.727 267.221 163.439 267.365 163.091C267.518 162.752 267.633 162.442 267.709 162.162C267.913 162.382 268.121 162.607 268.333 162.836C268.545 163.065 268.74 163.269 268.918 163.447C269.113 163.625 269.241 163.744 269.3 163.804C269.419 163.922 269.516 163.986 269.593 163.995C269.678 163.995 269.767 163.948 269.86 163.855L276.822 156.892ZM269.096 152.654L270.662 153.507C270.611 153.863 270.518 154.237 270.382 154.627C270.255 155.026 270.127 155.357 270 155.62L268.307 154.767C268.46 154.512 268.609 154.186 268.753 153.787C268.897 153.388 269.012 153.01 269.096 152.654ZM273.017 155.912L273.946 157.554C273.471 157.69 273.004 157.817 272.546 157.936C272.104 158.055 271.701 158.144 271.337 158.203L270.586 156.791C270.832 156.731 271.099 156.651 271.387 156.549C271.684 156.455 271.973 156.354 272.253 156.243C272.533 156.133 272.788 156.023 273.017 155.912ZM275.74 149.116L277.408 150.783L273.068 155.123L271.4 153.456L275.74 149.116ZM275.346 168.093L283.975 176.723L282.563 178.135L273.933 169.506L275.346 168.093ZM280.59 160.889L291.09 171.39L282.753 179.726L281.201 178.174L288.125 171.25L280.666 163.791L273.717 170.74L272.227 169.251L280.59 160.889ZM285.757 167.227L287.221 168.691L284.93 170.982C284.769 171.143 284.68 171.258 284.663 171.326C284.663 171.394 284.726 171.491 284.854 171.619C284.879 171.644 284.934 171.699 285.019 171.784C285.112 171.877 285.201 171.967 285.286 172.051C285.38 172.145 285.448 172.213 285.49 172.255C285.566 172.331 285.634 172.374 285.694 172.382C285.77 172.391 285.863 172.357 285.974 172.28C286.092 172.213 286.254 172.085 286.457 171.899C286.474 172.051 286.517 172.238 286.585 172.459C286.669 172.679 286.763 172.9 286.865 173.121C286.983 173.341 287.098 173.532 287.208 173.693C286.759 174.024 286.372 174.241 286.05 174.342C285.728 174.444 285.431 174.444 285.159 174.342C284.896 174.249 284.62 174.058 284.332 173.77C284.264 173.702 284.183 173.621 284.09 173.528C283.997 173.434 283.895 173.333 283.784 173.222C283.683 173.121 283.585 173.023 283.492 172.93C283.398 172.836 283.322 172.76 283.263 172.7C282.855 172.293 282.592 171.928 282.473 171.606C282.363 171.292 282.393 170.974 282.563 170.651C282.732 170.329 283.029 169.956 283.453 169.531L285.757 167.227ZM282.932 157.529L294.374 168.971L292.898 170.448L281.455 159.005L282.932 157.529ZM285.286 162.124L286.788 163.625L284.243 166.171L282.741 164.669L285.286 162.124ZM288.074 164.911L289.614 166.451L287.068 168.997L285.528 167.457L288.074 164.911ZM283.339 164.224L284.764 165.649L283.504 166.909C283.08 167.334 282.588 167.715 282.028 168.055C281.468 168.394 280.832 168.615 280.119 168.717C279.406 168.818 278.604 168.729 277.713 168.449C277.739 168.288 277.747 168.076 277.739 167.813C277.73 167.55 277.709 167.283 277.675 167.011C277.65 166.748 277.616 166.536 277.573 166.375C278.379 166.638 279.062 166.744 279.622 166.693C280.191 166.65 280.675 166.506 281.073 166.26C281.472 166.014 281.82 165.743 282.117 165.446L283.339 164.224Z" fill="black"/>
<path d="M291.07 119.263L301.207 129.4L299.861 130.746L289.724 120.609L291.07 119.263ZM294.713 117.317L303.176 125.78L301.83 127.126L293.367 118.663L294.713 117.317ZM299.872 119.082L301.321 120.53L290.697 131.154L289.249 129.706L299.872 119.082ZM294.363 124.117L295.053 125.78C294.336 125.953 293.589 126.081 292.813 126.164C292.043 126.24 291.266 126.262 290.482 126.232C289.705 126.21 288.94 126.138 288.185 126.017C287.446 125.897 286.737 125.731 286.058 125.52C286.104 125.323 286.138 125.093 286.16 124.829C286.19 124.573 286.209 124.313 286.217 124.049C286.239 123.785 286.243 123.547 286.228 123.336C286.854 123.585 287.514 123.792 288.208 123.958C288.917 124.124 289.63 124.241 290.346 124.309C291.063 124.377 291.76 124.396 292.439 124.366C293.126 124.328 293.767 124.245 294.363 124.117ZM296.286 126.063C296.15 126.651 296.063 127.288 296.026 127.975C296.003 128.661 296.026 129.362 296.094 130.079C296.161 130.795 296.271 131.501 296.422 132.195C296.588 132.889 296.791 133.545 297.033 134.163C296.844 134.141 296.614 134.137 296.342 134.152C296.086 134.167 295.826 134.193 295.562 134.231C295.298 134.269 295.068 134.31 294.872 134.356C294.668 133.684 294.51 132.975 294.397 132.229C294.283 131.482 294.216 130.72 294.193 129.943C294.178 129.159 294.208 128.382 294.283 127.613C294.366 126.851 294.495 126.112 294.668 125.395L296.286 126.063ZM297.141 141.987L309.982 129.146L311.068 130.232L298.227 143.073L297.141 141.987ZM314.332 136.551L323.507 145.726L316.775 152.458L315.361 151.044L320.792 145.613L314.388 139.209L308.901 144.697L307.543 143.339L314.332 136.551ZM312.782 139.888L320.317 147.423L319.061 148.679L311.526 141.144L312.782 139.888ZM310.327 142.321L317.895 149.89L316.594 151.191L309.025 143.622L310.327 142.321ZM319.66 138.847L321.086 140.273L310.462 150.896L309.037 149.471L319.66 138.847Z" fill="black"/>
<path d="M262.219 284.25L265.999 280.469L267.514 281.984L263.734 285.764L262.219 284.25ZM265.63 275.213L267.221 273.622L276.398 282.799C276.754 283.155 277.013 283.354 277.175 283.397C277.327 283.431 277.522 283.329 277.76 283.091C277.811 283.04 277.896 282.956 278.015 282.837C278.133 282.718 278.265 282.586 278.409 282.442C278.553 282.298 278.685 282.166 278.804 282.048C278.922 281.929 279.012 281.84 279.071 281.78C279.241 281.611 279.296 281.411 279.236 281.182C279.177 280.953 278.978 280.635 278.638 280.227C278.299 279.803 277.802 279.239 277.149 278.535C277.37 278.501 277.612 278.446 277.875 278.369C278.146 278.284 278.409 278.191 278.664 278.089C278.91 277.979 279.122 277.869 279.3 277.758C280.064 278.624 280.632 279.37 281.006 279.998C281.387 280.618 281.553 281.174 281.502 281.666C281.468 282.158 281.209 282.646 280.726 283.129C280.658 283.197 280.543 283.312 280.382 283.473C280.221 283.634 280.047 283.808 279.86 283.995C279.682 284.173 279.516 284.339 279.364 284.491C279.211 284.644 279.096 284.759 279.02 284.835C278.536 285.319 278.082 285.628 277.658 285.764C277.251 285.9 276.822 285.853 276.373 285.624C275.914 285.387 275.388 284.971 274.794 284.377L265.63 275.213ZM262.423 278.42L264.014 276.829L275.622 288.437L274.031 290.028L262.423 278.42ZM271.727 272.909L274.209 273.176C274.065 273.914 273.895 274.678 273.7 275.467C273.496 276.248 273.28 277.033 273.051 277.822C272.822 278.594 272.584 279.341 272.338 280.062C272.117 279.943 271.829 279.833 271.472 279.731C271.108 279.621 270.794 279.536 270.531 279.477C270.743 278.772 270.929 278.034 271.091 277.262C271.252 276.49 271.383 275.73 271.485 274.984C271.595 274.228 271.676 273.537 271.727 272.909ZM267.527 290.473C267.773 290.024 268.053 289.498 268.367 288.895C268.672 288.284 268.99 287.635 269.321 286.948C269.644 286.252 269.966 285.565 270.289 284.886L271.956 285.968C271.608 286.893 271.239 287.83 270.849 288.781C270.467 289.723 270.115 290.584 269.792 291.364L267.527 290.473ZM283.093 276.867L291.723 268.238L293.135 269.651L284.506 278.28L283.093 276.867ZM275.889 271.623L286.39 261.123L294.726 269.46L293.174 271.012L286.25 264.088L278.791 271.547L285.74 278.496L284.251 279.986L275.889 271.623ZM282.227 266.456L283.691 264.992L285.982 267.283C286.143 267.444 286.258 267.534 286.326 267.55C286.394 267.55 286.491 267.487 286.619 267.36C286.644 267.334 286.699 267.279 286.784 267.194C286.877 267.101 286.967 267.012 287.051 266.927C287.145 266.833 287.213 266.766 287.255 266.723C287.331 266.647 287.374 266.579 287.382 266.52C287.391 266.443 287.357 266.35 287.28 266.24C287.213 266.121 287.085 265.959 286.899 265.756C287.051 265.739 287.238 265.696 287.459 265.629C287.679 265.544 287.9 265.45 288.121 265.349C288.341 265.23 288.532 265.115 288.693 265.005C289.024 265.455 289.241 265.841 289.342 266.163C289.444 266.486 289.444 266.783 289.342 267.054C289.249 267.317 289.058 267.593 288.77 267.881C288.702 267.949 288.621 268.03 288.528 268.123C288.434 268.217 288.333 268.318 288.222 268.429C288.121 268.531 288.023 268.628 287.93 268.721C287.836 268.815 287.76 268.891 287.7 268.951C287.293 269.358 286.928 269.621 286.606 269.74C286.292 269.85 285.974 269.82 285.651 269.651C285.329 269.481 284.956 269.184 284.531 268.76L282.227 266.456ZM272.529 269.281L283.971 257.839L285.448 259.316L274.005 270.758L272.529 269.281ZM277.124 266.927L278.625 265.425L281.171 267.971L279.669 269.472L277.124 266.927ZM279.911 264.139L281.451 262.599L283.997 265.145L282.457 266.685L279.911 264.139ZM279.224 268.874L280.649 267.449L281.909 268.709C282.334 269.133 282.715 269.625 283.055 270.185C283.394 270.745 283.615 271.382 283.717 272.094C283.818 272.807 283.729 273.609 283.449 274.5C283.288 274.474 283.076 274.466 282.813 274.474C282.55 274.483 282.283 274.504 282.011 274.538C281.748 274.564 281.536 274.598 281.375 274.64C281.638 273.834 281.744 273.151 281.693 272.591C281.65 272.022 281.506 271.539 281.26 271.14C281.014 270.741 280.743 270.393 280.446 270.096L279.224 268.874Z" fill="black"/>
<path d="M288.67 316.441L288.817 314.484C289.345 314.333 289.926 314.182 290.56 314.032C291.193 313.881 291.816 313.756 292.427 313.658C293.03 313.553 293.554 313.496 293.999 313.488L293.886 315.638C293.471 315.631 292.962 315.665 292.359 315.74C291.755 315.815 291.129 315.913 290.481 316.034C289.832 316.155 289.228 316.291 288.67 316.441ZM297.269 315.627L297.619 313.511C298.042 313.39 298.517 313.262 299.045 313.126C299.565 312.983 300.09 312.844 300.618 312.708C301.146 312.572 301.658 312.459 302.156 312.368C302.654 312.263 303.092 312.187 303.469 312.142L303.141 314.507C302.801 314.529 302.39 314.578 301.907 314.654C301.425 314.729 300.916 314.824 300.38 314.937C299.845 315.035 299.309 315.148 298.773 315.276C298.23 315.397 297.729 315.514 297.269 315.627ZM289.949 310.524L291.997 309.744C292.004 310.309 291.997 310.89 291.974 311.486C291.944 312.074 291.906 312.648 291.861 313.206C291.816 313.749 291.755 314.247 291.68 314.699L289.983 315.219C290.036 314.744 290.069 314.235 290.085 313.692C290.1 313.134 290.096 312.58 290.073 312.029C290.058 311.471 290.017 310.969 289.949 310.524ZM284.993 313.941L295.153 303.781L296.42 305.048L286.261 315.208L284.993 313.941ZM288.048 308.352L289.474 306.927L291.295 308.748L289.87 310.174L288.048 308.352ZM293.581 308.816L295.481 308.228C295.655 309.517 295.647 310.83 295.459 312.165C295.27 313.485 294.938 314.797 294.463 316.102C293.98 317.399 293.392 318.681 292.698 319.949C292.434 319.851 292.11 319.768 291.725 319.7C291.34 319.617 290.982 319.568 290.65 319.553C291.359 318.391 291.966 317.203 292.472 315.989C292.97 314.767 293.324 313.545 293.535 312.323C293.746 311.101 293.762 309.932 293.581 308.816ZM296.828 309.28L298.841 308.714C299.09 310.29 299.087 311.856 298.83 313.409C298.574 314.963 298.117 316.513 297.461 318.059C296.805 319.59 295.994 321.118 295.029 322.641C294.742 322.521 294.399 322.411 293.999 322.313C293.614 322.215 293.252 322.155 292.913 322.132C293.871 320.707 294.689 319.27 295.368 317.822C296.039 316.366 296.511 314.922 296.782 313.488C297.061 312.048 297.076 310.645 296.828 309.28ZM310.987 311.072L298.146 298.231L299.232 297.145L312.073 309.986L310.987 311.072ZM311.456 286.618L311.479 284.989C311.796 284.883 312.139 284.789 312.509 284.706C312.886 284.616 313.252 284.544 313.606 284.491C313.961 284.423 314.262 284.393 314.511 284.401L314.534 286.166C314.285 286.143 313.983 286.158 313.629 286.211C313.274 286.249 312.905 286.301 312.52 286.369C312.135 286.437 311.781 286.52 311.456 286.618ZM315.597 288.293L317.317 287.32C318.245 289.349 318.799 291.381 318.98 293.418C319.161 295.454 318.969 297.427 318.403 299.335C318.237 299.29 318.022 299.256 317.758 299.233C317.509 299.21 317.249 299.191 316.978 299.176C316.721 299.161 316.499 299.158 316.31 299.165C316.951 297.393 317.211 295.586 317.091 293.746C316.97 291.89 316.472 290.073 315.597 288.293ZM306.954 293.248L315.597 284.604L316.887 285.894L308.243 294.538L306.954 293.248ZM311.411 295.692L314.194 292.909L315.45 294.164L312.667 296.948L311.411 295.692ZM306.275 293.927L307.632 292.569L310.698 295.635C311.121 296.058 311.566 296.54 312.033 297.083C312.494 297.619 312.935 298.196 313.357 298.814C313.787 299.425 314.153 300.063 314.455 300.726C314.749 301.383 314.937 302.046 315.02 302.718C314.862 302.695 314.654 302.691 314.398 302.706C314.149 302.729 313.896 302.755 313.64 302.785C313.399 302.816 313.195 302.853 313.029 302.899C312.946 302.303 312.776 301.733 312.52 301.19C312.271 300.64 311.966 300.115 311.604 299.618C311.249 299.112 310.876 298.641 310.483 298.203C310.084 297.758 309.703 297.355 309.341 296.993L306.275 293.927ZM308.809 287.614L310.178 286.245C311.158 287.18 312.124 288.063 313.074 288.892C314.025 289.707 314.937 290.438 315.812 291.087C316.68 291.728 317.487 292.249 318.233 292.648C318.98 293.048 319.64 293.301 320.213 293.406C320.786 293.512 321.247 293.429 321.594 293.158C321.759 293.052 321.707 292.803 321.435 292.411C321.164 292.004 320.741 291.483 320.168 290.85C320.447 290.842 320.764 290.804 321.118 290.736C321.48 290.661 321.786 290.582 322.035 290.499C323.015 291.645 323.528 292.573 323.573 293.282C323.626 293.998 323.283 294.545 322.544 294.922C321.971 295.3 321.311 295.462 320.564 295.409C319.825 295.364 319.018 295.137 318.143 294.73C317.268 294.323 316.336 293.768 315.348 293.067C314.353 292.358 313.308 291.547 312.214 290.635C311.121 289.707 309.986 288.7 308.809 287.614Z" fill="black"/>
<path d="M300.851 349.393L311.102 339.142L312.754 340.795L302.503 351.046L300.851 349.393ZM306.104 352.792L314.353 344.543L315.992 346.182L307.743 354.431L306.104 352.792ZM308.979 359.026L320.694 347.311L322.333 348.95L310.618 360.665L308.979 359.026ZM312.848 335.918L318.061 330.705L319.27 331.914L314.057 337.127L312.848 335.918ZM318.813 342.313L330.865 330.262L332.127 331.525L320.076 343.576L318.813 342.313ZM315.092 337.866L319.915 333.043L321.111 334.239L316.288 339.062L315.092 337.866ZM326.391 343.28L332.934 336.737L334.143 337.947L327.6 344.489L326.391 343.28ZM317.013 340.62C317.47 340.11 317.985 339.532 318.558 338.887C319.14 338.233 319.754 337.548 320.399 336.831C321.035 336.106 321.67 335.381 322.306 334.655L323.516 335.891C322.611 336.939 321.706 337.987 320.802 339.035C319.888 340.074 319.086 340.992 318.397 341.789L317.013 340.62ZM315.186 334.521L316.704 333.003L320.896 337.194L319.566 338.9L315.186 334.521ZM320.251 327.414L322.172 325.788C322.36 326.227 322.53 326.648 322.683 327.051C322.835 327.454 322.96 327.812 323.059 328.126L321.447 329.308C321.276 328.994 321.084 328.667 320.869 328.327C320.663 327.978 320.457 327.673 320.251 327.414ZM323.61 332.116L324.469 332.976L327.089 330.356L326.229 329.496L323.61 332.116ZM321.635 330.141L322.481 330.987L325.101 328.367L324.254 327.521L321.635 330.141ZM318.948 330.41L324.577 324.78L329.83 330.033L324.201 335.663L318.948 330.41ZM322.777 338.833L324.711 337.866C324.935 338.789 325.052 339.747 325.061 340.741C325.07 341.735 324.989 342.721 324.819 343.697C324.649 344.673 324.411 345.6 324.107 346.478C323.937 346.433 323.713 346.388 323.435 346.343C323.148 346.29 322.862 346.245 322.575 346.209C322.288 346.173 322.042 346.16 321.836 346.169C322.168 345.39 322.436 344.575 322.642 343.724C322.848 342.873 322.965 342.031 322.992 341.198C323.027 340.356 322.956 339.568 322.777 338.833ZM323.139 342.179L331.912 333.406L335.647 337.14L333.914 338.874L331.388 336.348L326.014 341.722L328.607 344.315L326.941 345.981L323.139 342.179ZM328.796 325.156L340.618 313.334L342.217 314.932L330.394 326.755L328.796 325.156ZM330.703 316.988L332.423 315.268L345.038 327.884L343.319 329.603L330.703 316.988ZM334.358 321.341L336.265 320.4C336.668 321.413 337.004 322.447 337.273 323.504C337.542 324.561 337.734 325.622 337.851 326.688C337.976 327.745 338.021 328.793 337.985 329.832C337.949 330.853 337.819 331.834 337.595 332.774C337.372 332.729 337.103 332.693 336.789 332.667C336.476 332.64 336.162 332.622 335.849 332.613C335.526 332.595 335.249 332.595 335.016 332.613C335.267 331.753 335.437 330.848 335.526 329.899C335.616 328.932 335.634 327.955 335.58 326.97C335.518 325.976 335.379 325.004 335.164 324.055C334.958 323.096 334.689 322.192 334.358 321.341ZM336.803 319.03C337.636 319.344 338.527 319.59 339.476 319.769C340.426 319.948 341.389 320.06 342.365 320.105C343.35 320.141 344.317 320.114 345.267 320.024C346.216 319.935 347.112 319.765 347.954 319.514C347.927 319.738 347.918 320.015 347.927 320.347C347.936 320.66 347.958 320.978 347.994 321.301C348.039 321.614 348.088 321.887 348.142 322.12C347.219 322.326 346.257 322.447 345.253 322.483C344.241 322.51 343.207 322.469 342.15 322.362C341.084 322.246 340.027 322.057 338.979 321.798C337.931 321.538 336.91 321.224 335.916 320.857L336.803 319.03ZM349.445 315.658L358.205 306.898L359.468 308.161L350.708 316.921L349.445 315.658ZM347.631 313.146L356.646 304.131L357.99 305.474L348.975 314.489L347.631 313.146ZM349.956 319.5L361.846 307.61L363.23 308.994L351.34 320.884L349.956 319.5ZM349.942 309.196L351.608 307.53L357.721 313.643L356.055 315.309L349.942 309.196ZM345.495 309.263L346.221 309.988L352.186 304.023L351.46 303.298L345.495 309.263ZM343.655 307.422L344.353 308.121L350.318 302.156L349.62 301.457L343.655 307.422ZM340.847 307.785L350.063 298.569L355.074 303.58L345.858 312.796L340.847 307.785ZM346.422 311.963L348.451 310.848C348.693 311.484 348.885 312.151 349.029 312.85C349.172 313.549 349.271 314.238 349.324 314.919C349.378 315.6 349.387 316.227 349.351 316.8C349.145 316.809 348.899 316.831 348.612 316.867C348.326 316.903 348.039 316.948 347.752 317.001C347.457 317.046 347.206 317.1 347 317.163C347.116 316.348 347.125 315.479 347.027 314.556C346.928 313.616 346.727 312.751 346.422 311.963Z" fill="black"/>
<path d="M155.751 260.006L159.531 263.786L158.016 265.301L154.236 261.521L155.751 260.006ZM164.788 263.417L166.379 265.008L157.202 274.185C156.845 274.541 156.646 274.8 156.603 274.962C156.57 275.114 156.671 275.309 156.909 275.547C156.96 275.598 157.045 275.683 157.164 275.802C157.282 275.92 157.414 276.052 157.558 276.196C157.702 276.34 157.834 276.472 157.953 276.591C158.071 276.709 158.161 276.799 158.22 276.858C158.39 277.028 158.589 277.083 158.818 277.023C159.047 276.964 159.365 276.765 159.773 276.425C160.197 276.086 160.761 275.589 161.466 274.936C161.5 275.157 161.555 275.399 161.631 275.662C161.716 275.933 161.809 276.196 161.911 276.451C162.021 276.697 162.132 276.909 162.242 277.087C161.376 277.851 160.63 278.419 160.002 278.793C159.382 279.174 158.827 279.34 158.334 279.289C157.842 279.255 157.354 278.996 156.871 278.513C156.803 278.445 156.688 278.33 156.527 278.169C156.366 278.008 156.192 277.834 156.005 277.647C155.827 277.469 155.662 277.303 155.509 277.151C155.356 276.998 155.242 276.883 155.165 276.807C154.682 276.323 154.372 275.869 154.236 275.445C154.1 275.038 154.147 274.609 154.376 274.16C154.614 273.701 155.029 273.175 155.623 272.581L164.788 263.417ZM161.58 260.21L163.171 261.801L151.563 273.409L149.972 271.818L161.58 260.21ZM167.091 269.514L166.824 271.996C166.086 271.852 165.322 271.682 164.533 271.487C163.752 271.283 162.967 271.067 162.178 270.838C161.406 270.609 160.659 270.371 159.938 270.125C160.057 269.904 160.167 269.616 160.269 269.259C160.379 268.895 160.464 268.581 160.524 268.318C161.228 268.53 161.966 268.716 162.738 268.878C163.511 269.039 164.27 269.17 165.017 269.272C165.772 269.382 166.463 269.463 167.091 269.514ZM149.527 265.314C149.976 265.56 150.503 265.84 151.105 266.154C151.716 266.459 152.365 266.777 153.052 267.108C153.748 267.431 154.436 267.753 155.114 268.076L154.032 269.743C153.108 269.395 152.17 269.026 151.22 268.636C150.278 268.254 149.416 267.902 148.636 267.579L149.527 265.314ZM170.477 270.787L181.779 282.089L180.354 283.515L169.051 272.212L170.477 270.787ZM176.319 274.541L177.91 276.132L165.959 288.084L164.368 286.493L176.319 274.541ZM168.657 281.415L169.421 283.247C168.699 283.375 167.953 283.443 167.18 283.451C166.417 283.468 165.64 283.43 164.851 283.336C164.079 283.243 163.315 283.099 162.56 282.904C161.805 282.726 161.088 282.501 160.409 282.229C160.452 282.017 160.494 281.771 160.536 281.491C160.579 281.211 160.609 280.927 160.626 280.638C160.642 280.35 160.647 280.099 160.638 279.887C161.266 280.193 161.924 280.46 162.611 280.689C163.307 280.91 164.007 281.092 164.711 281.236C165.424 281.372 166.111 281.457 166.773 281.491C167.452 281.525 168.08 281.499 168.657 281.415ZM171.024 283.884C170.956 284.461 170.944 285.084 170.986 285.755C171.045 286.425 171.143 287.117 171.279 287.829C171.432 288.542 171.627 289.246 171.864 289.942C172.11 290.63 172.386 291.287 172.692 291.915C172.471 291.898 172.212 291.894 171.915 291.902C171.618 291.928 171.325 291.958 171.037 291.991C170.748 292.042 170.494 292.093 170.273 292.144C169.993 291.474 169.764 290.761 169.586 290.006C169.399 289.259 169.255 288.496 169.153 287.715C169.068 286.934 169.03 286.158 169.039 285.386C169.056 284.622 169.124 283.884 169.242 283.171L171.024 283.884ZM167.906 278.474L167.129 279.251L173.303 285.424L174.079 284.647L167.906 278.474ZM169.739 276.642L168.975 277.405L175.148 283.578L175.912 282.815L169.739 276.642ZM169.395 274.007L178.623 283.235L173.723 288.135L164.495 278.907L169.395 274.007Z" fill="black"/>
<path d="M132.671 290.374L134.006 291.709L129.152 296.563L127.817 295.228L132.671 290.374ZM130.838 287.297L137.06 293.52L135.963 294.617L129.74 288.394L130.838 287.297ZM127.251 292.286L126.629 292.909L131.505 297.785L132.128 297.163L127.251 292.286ZM128.824 290.714L128.213 291.325L133.089 296.201L133.7 295.59L128.824 290.714ZM128.541 288.372L136.11 295.941L131.856 300.195L124.287 292.626L128.541 288.372ZM128.111 297.717L129.808 297.626C130.08 298.185 130.348 298.762 130.611 299.357C130.883 299.961 131.132 300.534 131.358 301.077C131.6 301.62 131.799 302.099 131.958 302.514L129.967 302.469C129.838 302.084 129.676 301.628 129.48 301.1C129.292 300.579 129.08 300.029 128.847 299.448C128.613 298.867 128.368 298.29 128.111 297.717ZM135.872 287.082L137.275 288.485L135.669 290.091L134.266 288.689L135.872 287.082ZM130.962 283.756L140.681 293.474L138.18 295.975L136.789 294.583L138.056 293.316L131.064 286.324L129.797 287.591L128.462 286.256L130.962 283.756ZM126.539 294.334L126.855 296.325C126.342 296.22 125.781 296.05 125.17 295.816C124.559 295.597 123.948 295.334 123.337 295.024C122.726 294.73 122.153 294.413 121.617 294.074C121.677 293.833 121.73 293.531 121.775 293.169C121.828 292.814 121.862 292.501 121.877 292.23C122.368 292.554 122.896 292.863 123.461 293.158C124.042 293.452 124.6 293.701 125.136 293.904C125.686 294.108 126.154 294.251 126.539 294.334ZM133.141 309.987L145.982 297.146L147.068 298.232L134.227 311.073L133.141 309.987ZM151.621 304.098L158.342 310.818L157.018 312.142L150.298 305.422L151.621 304.098ZM142.378 311.531L152.47 321.623L151.157 322.935L141.066 312.844L142.378 311.531ZM146.666 306.994L157.007 317.335L155.672 318.67L145.331 308.329L146.666 306.994ZM153.036 306.96L154.427 308.352C153.839 308.835 153.22 309.333 152.572 309.845C151.923 310.358 151.267 310.871 150.603 311.384C149.947 311.905 149.298 312.41 148.657 312.9C148.016 313.39 147.401 313.847 146.813 314.269C146.24 314.692 145.719 315.069 145.252 315.401L143.837 313.986C144.335 313.654 144.882 313.274 145.478 312.844C146.074 312.414 146.689 311.957 147.322 311.475C147.971 310.992 148.623 310.498 149.279 309.993C149.943 309.48 150.592 308.967 151.225 308.454C151.859 307.941 152.462 307.443 153.036 306.96ZM157.719 310.196L159.134 311.61C158.53 312.184 157.893 312.776 157.222 313.387C156.558 313.99 155.883 314.597 155.196 315.208C154.51 315.819 153.835 316.411 153.171 316.984C152.523 317.558 151.897 318.101 151.293 318.614C150.697 319.119 150.151 319.575 149.653 319.983L148.216 318.546C148.721 318.131 149.279 317.671 149.89 317.165C150.509 316.653 151.15 316.11 151.814 315.536C152.485 314.971 153.16 314.386 153.839 313.783C154.525 313.172 155.193 312.565 155.841 311.961C156.505 311.358 157.131 310.769 157.719 310.196Z" fill="black"/>
<path d="M93.1975 304.079L103.583 314.464L101.984 316.063L91.5987 305.678L93.1975 304.079ZM83.269 312.449L95.3202 324.5L93.7214 326.099L81.6702 314.048L83.269 312.449ZM96.3681 308.378L98.2087 310.219C97.2683 310.89 96.2831 311.58 95.253 312.288C94.223 312.995 93.193 313.694 92.163 314.383C91.133 315.073 90.1477 315.718 89.2073 316.318C88.2758 316.927 87.4339 317.456 86.6815 317.903L84.8678 316.09C85.656 315.624 86.5292 315.091 87.4876 314.491C88.4549 313.882 89.4446 313.232 90.4567 312.543C91.4868 311.853 92.5078 311.155 93.5199 310.447C94.532 309.739 95.4814 309.05 96.3681 308.378ZM89.7044 308.459L98.4237 317.178L92.4586 323.143L90.7792 321.464L95.159 317.084L88.119 310.044L89.7044 308.459ZM103.811 318.669L115.956 330.814L114.492 332.279L102.347 320.134L103.811 318.669ZM106.995 317.393L117.26 327.657L115.849 329.068L105.585 318.804L106.995 317.393ZM110.206 318.615L111.845 320.255L107.909 324.191L106.27 322.552L110.206 318.615ZM114.358 322.767L116.024 324.433L112.087 328.369L110.421 326.703L114.358 322.767ZM108.204 324.728L109.87 326.394L104.362 331.903L102.696 330.237L108.204 324.728ZM101.675 326.582L100.896 327.362L107.304 333.77L108.083 332.991L101.675 326.582ZM103.462 324.796L102.709 325.548L109.118 331.956L109.87 331.204L103.462 324.796ZM103.032 322.135L112.611 331.715L107.828 336.497L98.2491 326.918L103.032 322.135ZM103.059 333.448L104.98 333.327C105.311 333.981 105.634 334.652 105.947 335.342C106.27 336.041 106.57 336.708 106.847 337.344C107.134 337.989 107.371 338.549 107.56 339.023L105.329 338.943C105.177 338.504 104.984 337.98 104.752 337.371C104.51 336.771 104.246 336.13 103.959 335.45C103.672 334.769 103.372 334.102 103.059 333.448ZM100.936 329.39L101.353 331.715C100.77 331.58 100.134 331.374 99.4448 331.097C98.7461 330.828 98.052 330.528 97.3623 330.196C96.6727 329.865 96.0367 329.534 95.4546 329.202C95.4904 328.898 95.5083 328.522 95.5083 328.074C95.5083 327.644 95.4949 327.263 95.468 326.932C96.0502 327.299 96.6682 327.648 97.322 327.98C97.9938 328.311 98.6521 328.602 99.297 328.853C99.9419 329.104 100.488 329.283 100.936 329.39ZM117.125 333.891L127.578 344.344L125.992 345.929L115.54 335.476L117.125 333.891ZM109.951 339.292L122.19 351.531L120.605 353.117L108.366 340.877L109.951 339.292ZM125.603 334.066L127.336 335.799L115.809 347.326L114.076 345.593L125.603 334.066ZM126.973 352.821L135.733 361.581L134.47 362.844L125.71 354.084L126.973 352.821ZM129.485 351.007L138.5 360.022L137.157 361.366L128.142 352.351L129.485 351.007ZM123.131 353.332L135.021 365.222L133.637 366.605L121.747 354.715L123.131 353.332ZM133.435 353.318L135.101 354.984L128.988 361.097L127.322 359.431L133.435 353.318ZM133.368 348.871L132.643 349.597L138.608 355.562L139.333 354.836L133.368 348.871ZM135.209 347.031L134.51 347.729L140.475 353.694L141.174 352.996L135.209 347.031ZM134.846 344.223L144.062 353.439L139.051 358.45L129.835 349.234L134.846 344.223ZM130.668 349.798L131.783 351.827C131.147 352.069 130.48 352.261 129.781 352.405C129.082 352.548 128.393 352.646 127.712 352.7C127.031 352.754 126.404 352.763 125.831 352.727C125.822 352.521 125.8 352.275 125.764 351.988C125.728 351.701 125.683 351.415 125.63 351.128C125.585 350.833 125.531 350.582 125.468 350.376C126.283 350.492 127.152 350.501 128.075 350.403C129.015 350.304 129.88 350.103 130.668 349.798Z" fill="black"/>
<path d="M314.24 78.5297L319.788 84.0784L318.069 85.7981L312.52 80.2494L314.24 78.5297ZM318.458 82.7483L320.393 84.683C319.434 85.8205 318.521 86.9669 317.652 88.1223C316.792 89.2867 316.04 90.46 315.395 91.6423C314.768 92.8246 314.293 93.9979 313.971 95.1623C313.666 96.3267 313.577 97.4821 313.702 98.6285C313.46 98.5658 313.165 98.5121 312.815 98.4673C312.457 98.4315 312.099 98.4046 311.741 98.3867C311.391 98.3777 311.082 98.3733 310.814 98.3733C310.76 97.1372 310.912 95.9012 311.27 94.6652C311.638 93.4202 312.153 92.1887 312.815 90.9706C313.487 89.7614 314.262 88.5657 315.14 87.3834C316.018 86.2011 316.94 85.0457 317.907 83.9172L317.598 83.6082L318.458 82.7483ZM311.7 81.7676L313.313 83.8903C312.399 84.5352 311.436 85.1577 310.424 85.7578C309.43 86.3579 308.404 86.8908 307.347 87.3565C306.3 87.8133 305.243 88.1716 304.177 88.4313C303.12 88.6821 302.072 88.7807 301.033 88.7269C301.06 88.503 301.064 88.2298 301.046 87.9074C301.028 87.6029 301.002 87.2894 300.966 86.9669C300.93 86.6624 300.89 86.3982 300.845 86.1743C301.785 86.2549 302.735 86.1832 303.693 85.9593C304.66 85.7264 305.61 85.395 306.541 84.9651C307.482 84.5262 308.382 84.0291 309.242 83.4738C310.12 82.9185 310.939 82.3498 311.7 81.7676ZM317.773 100.389L326.116 108.732L324.491 110.357L316.147 102.014L317.773 100.389ZM321.857 96.2505L330.227 104.621L328.629 106.219L320.258 97.8493L321.857 96.2505ZM325.055 91.3871L335.225 101.557L324.598 112.184L322.878 110.465L331.866 101.477L325.041 94.6518L316.04 103.653L314.414 102.028L325.055 91.3871ZM331.007 93.3083L332.834 95.6997C332.126 95.9953 331.419 96.264 330.711 96.5058C330.003 96.7476 329.385 96.9447 328.857 97.0969L327.581 95.1757C327.939 95.0145 328.32 94.8309 328.723 94.6249C329.135 94.4278 329.538 94.2129 329.932 93.98C330.335 93.7561 330.693 93.5322 331.007 93.3083ZM336.125 106.891L346.578 117.344L344.992 118.929L334.54 108.476L336.125 106.891ZM328.951 112.292L341.19 124.531L339.605 126.117L327.366 113.877L328.951 112.292ZM344.603 107.066L346.336 108.799L334.809 120.326L333.076 118.593L344.603 107.066ZM345.973 125.821L354.733 134.581L353.47 135.844L344.71 127.084L345.973 125.821ZM348.485 124.007L357.5 133.022L356.157 134.366L347.142 125.351L348.485 124.007ZM342.131 126.332L354.021 138.222L352.637 139.605L340.747 127.715L342.131 126.332ZM352.435 126.318L354.101 127.984L347.988 134.097L346.322 132.431L352.435 126.318ZM352.368 121.871L351.643 122.597L357.608 128.562L358.333 127.836L352.368 121.871ZM354.209 120.031L353.51 120.729L359.475 126.694L360.174 125.996L354.209 120.031ZM353.846 117.223L363.062 126.439L358.051 131.45L348.835 122.234L353.846 117.223ZM349.668 122.798L350.783 124.827C350.147 125.069 349.48 125.261 348.781 125.405C348.082 125.548 347.393 125.646 346.712 125.7C346.031 125.754 345.404 125.763 344.831 125.727C344.822 125.521 344.8 125.275 344.764 124.988C344.728 124.701 344.683 124.415 344.63 124.128C344.585 123.833 344.531 123.582 344.468 123.376C345.283 123.492 346.152 123.501 347.075 123.403C348.015 123.304 348.88 123.103 349.668 122.798Z" fill="black"/>
<path d="M213.008 125.194H228.992V127.21H213.008V125.194ZM216.968 132.934H225.014V134.608H216.968V132.934ZM216.59 135.796H225.41V137.524H216.59V135.796ZM219.92 133.762H221.954V140.098H219.92V133.762ZM213.692 128.56H226.724V130.54H215.852V140.566H213.692V128.56ZM226.112 128.56H228.326V138.406C228.326 138.922 228.254 139.318 228.11 139.594C227.966 139.882 227.714 140.098 227.354 140.242C226.982 140.398 226.526 140.488 225.986 140.512C225.458 140.548 224.828 140.566 224.096 140.566C224.048 140.29 223.952 139.978 223.808 139.63C223.676 139.282 223.538 138.982 223.394 138.73C223.694 138.742 224 138.754 224.312 138.766C224.624 138.778 224.906 138.784 225.158 138.784C225.422 138.772 225.596 138.766 225.68 138.766C225.848 138.766 225.962 138.742 226.022 138.694C226.082 138.634 226.112 138.538 226.112 138.406V128.56ZM217.652 131.026L219.362 130.522C219.578 130.81 219.776 131.14 219.956 131.512C220.148 131.884 220.292 132.208 220.388 132.484L218.588 133.078C218.516 132.79 218.39 132.454 218.21 132.07C218.03 131.686 217.844 131.338 217.652 131.026ZM222.728 130.558L224.546 131.062C224.306 131.494 224.066 131.914 223.826 132.322C223.598 132.718 223.376 133.066 223.16 133.366L221.63 132.898C221.762 132.682 221.894 132.436 222.026 132.16C222.17 131.884 222.302 131.608 222.422 131.332C222.542 131.056 222.644 130.798 222.728 130.558ZM219.848 123.826H222.206V129.964H219.848V123.826Z" fill="black"/>
<path d="M215.744 79.336L217.792 79.832C217.536 80.6427 217.227 81.4373 216.864 82.216C216.501 82.984 216.112 83.704 215.696 84.376C215.28 85.048 214.848 85.6293 214.4 86.12C214.272 86.0133 214.096 85.8853 213.872 85.736C213.648 85.5867 213.419 85.4427 213.184 85.304C212.96 85.1547 212.763 85.0373 212.592 84.952C213.051 84.5147 213.477 83.9973 213.872 83.4C214.277 82.8027 214.635 82.1573 214.944 81.464C215.264 80.7707 215.531 80.0613 215.744 79.336ZM216.192 81.416H225.984V83.288H215.232L216.192 81.416ZM212.784 86.616H227.248V88.552H212.784V86.616ZM219.008 82.248H221.008V94.44H219.008V82.248Z" fill="black"/>
<path d="M301.988 224.524H314.192V226.522H301.988V224.524ZM300.602 215.722H315.452V227.512H313.256V217.72H302.708V227.548H300.602V215.722ZM308.738 216.55H310.808V219.79C310.808 220.018 310.826 220.162 310.862 220.222C310.91 220.27 311.024 220.294 311.204 220.294C311.24 220.294 311.318 220.294 311.438 220.294C311.57 220.294 311.696 220.294 311.816 220.294C311.948 220.294 312.044 220.294 312.104 220.294C312.212 220.294 312.29 220.276 312.338 220.24C312.398 220.192 312.44 220.102 312.464 219.97C312.5 219.838 312.524 219.634 312.536 219.358C312.656 219.454 312.818 219.556 313.022 219.664C313.238 219.76 313.46 219.85 313.688 219.934C313.928 220.006 314.144 220.06 314.336 220.096C314.252 220.648 314.132 221.074 313.976 221.374C313.82 221.674 313.61 221.884 313.346 222.004C313.094 222.124 312.764 222.184 312.356 222.184C312.26 222.184 312.146 222.184 312.014 222.184C311.882 222.184 311.738 222.184 311.582 222.184C311.438 222.184 311.3 222.184 311.168 222.184C311.036 222.184 310.928 222.184 310.844 222.184C310.268 222.184 309.824 222.112 309.512 221.968C309.212 221.824 309.008 221.578 308.9 221.23C308.792 220.882 308.738 220.408 308.738 219.808V216.55ZM299.882 211.69H316.064V213.778H299.882V211.69ZM304.796 213.274H306.92V216.874H304.796V213.274ZM308.738 213.274H310.916V216.874H308.738V213.274ZM304.904 216.136H306.92V217.918C306.92 218.518 306.842 219.136 306.686 219.772C306.53 220.408 306.236 221.014 305.804 221.59C305.372 222.166 304.742 222.67 303.914 223.102C303.818 222.97 303.674 222.814 303.482 222.634C303.29 222.454 303.086 222.28 302.87 222.112C302.666 221.944 302.492 221.818 302.348 221.734C303.104 221.35 303.662 220.942 304.022 220.51C304.394 220.078 304.634 219.634 304.742 219.178C304.85 218.722 304.904 218.284 304.904 217.864V216.136Z" fill="black"/>
<path d="M347.928 224.008H358.488V225.688H347.928V224.008ZM347.928 221.448H358.52V223.032H347.928V221.448ZM346.584 215.672H359.48V226.424H357.608V217.384H348.376V226.424H346.584V215.672ZM353.352 213.512H355.192V218.568C355.192 218.803 355.208 218.947 355.24 219C355.283 219.053 355.368 219.08 355.496 219.08C355.528 219.08 355.576 219.08 355.64 219.08C355.704 219.08 355.773 219.08 355.848 219.08C355.923 219.08 355.992 219.08 356.056 219.08C356.131 219.08 356.184 219.08 356.216 219.08C356.291 219.08 356.349 219.059 356.392 219.016C356.445 218.973 356.483 218.888 356.504 218.76C356.525 218.632 356.541 218.445 356.552 218.2C356.733 218.328 356.973 218.451 357.272 218.568C357.581 218.685 357.859 218.776 358.104 218.84C358.019 219.523 357.848 219.992 357.592 220.248C357.336 220.504 356.941 220.632 356.408 220.632C356.333 220.632 356.237 220.632 356.12 220.632C356.013 220.632 355.896 220.632 355.768 220.632C355.651 220.632 355.539 220.632 355.432 220.632C355.325 220.632 355.235 220.632 355.16 220.632C354.659 220.632 354.28 220.573 354.024 220.456C353.768 220.328 353.592 220.115 353.496 219.816C353.4 219.507 353.352 219.091 353.352 218.568V213.512ZM350.312 213.512H352.04V217.016C352.04 217.667 351.965 218.248 351.816 218.76C351.677 219.272 351.4 219.72 350.984 220.104C350.568 220.488 349.944 220.808 349.112 221.064C348.995 220.861 348.829 220.632 348.616 220.376C348.403 220.12 348.205 219.907 348.024 219.736C348.675 219.544 349.165 219.315 349.496 219.048C349.827 218.781 350.045 218.477 350.152 218.136C350.259 217.784 350.312 217.405 350.312 217V213.512ZM345.864 212.312H360.168V214.152H345.864V212.312Z" fill="black"/>
<path d="M213.008 301.984H218.354V304.126H213.008V301.984ZM221.81 298.006H224.06V310.984C224.06 311.488 224.102 311.812 224.186 311.956C224.27 312.088 224.48 312.154 224.816 312.154C224.888 312.154 225.008 312.154 225.176 312.154C225.344 312.154 225.53 312.154 225.734 312.154C225.938 312.154 226.124 312.154 226.292 312.154C226.46 312.154 226.586 312.154 226.67 312.154C226.91 312.154 227.09 312.052 227.21 311.848C227.33 311.644 227.414 311.278 227.462 310.75C227.522 310.21 227.57 309.46 227.606 308.5C227.786 308.632 227.996 308.764 228.236 308.896C228.488 309.028 228.74 309.148 228.992 309.256C229.244 309.352 229.472 309.424 229.676 309.472C229.604 310.624 229.478 311.554 229.298 312.262C229.13 312.97 228.854 313.48 228.47 313.792C228.098 314.116 227.57 314.278 226.886 314.278C226.79 314.278 226.628 314.278 226.4 314.278C226.172 314.278 225.926 314.278 225.662 314.278C225.41 314.278 225.176 314.278 224.96 314.278C224.744 314.278 224.582 314.278 224.474 314.278C223.79 314.278 223.25 314.176 222.854 313.972C222.47 313.78 222.2 313.444 222.044 312.964C221.888 312.472 221.81 311.806 221.81 310.966V298.006ZM217.274 298.006H219.524V314.422H217.274V298.006ZM227.75 300.688L229.316 302.632C228.692 303.052 228.032 303.472 227.336 303.892C226.64 304.3 225.932 304.702 225.212 305.098C224.504 305.482 223.808 305.842 223.124 306.178C223.052 305.938 222.926 305.656 222.746 305.332C222.566 304.996 222.404 304.714 222.26 304.486C222.908 304.138 223.562 303.748 224.222 303.316C224.882 302.884 225.512 302.44 226.112 301.984C226.724 301.528 227.27 301.096 227.75 300.688ZM212.36 310.138C212.852 309.994 213.422 309.82 214.07 309.616C214.718 309.4 215.402 309.166 216.122 308.914C216.842 308.65 217.556 308.392 218.264 308.14L218.678 310.084C217.778 310.492 216.854 310.894 215.906 311.29C214.97 311.686 214.112 312.046 213.332 312.37L212.36 310.138Z" fill="black"/>
<path d="M213.624 350.408H228.392V352.344H213.624V350.408ZM220.008 347.864H222.024V356.2C222.024 356.744 221.949 357.165 221.8 357.464C221.661 357.763 221.395 357.987 221 358.136C220.616 358.285 220.147 358.381 219.592 358.424C219.037 358.467 218.392 358.483 217.656 358.472C217.624 358.28 217.56 358.061 217.464 357.816C217.368 357.581 217.267 357.341 217.16 357.096C217.053 356.861 216.947 356.659 216.84 356.488C217.213 356.499 217.581 356.509 217.944 356.52C218.317 356.531 218.648 356.536 218.936 356.536C219.235 356.536 219.443 356.536 219.56 356.536C219.731 356.536 219.848 356.509 219.912 356.456C219.976 356.403 220.008 356.307 220.008 356.168V347.864ZM215.304 344.392H225.384V346.28H215.304V344.392ZM224.744 344.392H225.256L225.704 344.28L227.16 345.384C226.669 345.907 226.104 346.429 225.464 346.952C224.835 347.475 224.179 347.976 223.496 348.456C222.813 348.925 222.147 349.331 221.496 349.672C221.4 349.533 221.277 349.379 221.128 349.208C220.979 349.037 220.824 348.872 220.664 348.712C220.504 348.541 220.36 348.397 220.232 348.28C220.808 347.992 221.389 347.645 221.976 347.24C222.573 346.835 223.117 346.419 223.608 345.992C224.099 345.565 224.477 345.176 224.744 344.824V344.392Z" fill="black"/>
<path d="M183.779 392.127L201.012 389.505L201.392 391.861L184.159 394.426L183.779 392.127ZM189.156 385.249H191.645V398.359C191.645 398.777 191.677 399.094 191.74 399.309C191.816 399.512 191.955 399.651 192.158 399.727C192.361 399.79 192.671 399.822 193.089 399.822C193.216 399.822 193.406 399.822 193.659 399.822C193.912 399.822 194.197 399.822 194.514 399.822C194.831 399.822 195.147 399.822 195.464 399.822C195.781 399.822 196.066 399.822 196.319 399.822C196.585 399.822 196.781 399.822 196.908 399.822C197.339 399.822 197.662 399.721 197.877 399.518C198.092 399.303 198.251 398.916 198.352 398.359C198.453 397.789 198.542 396.959 198.618 395.87C198.808 396.022 199.042 396.174 199.321 396.326C199.612 396.465 199.897 396.592 200.176 396.706C200.467 396.82 200.721 396.902 200.936 396.953C200.835 398.22 200.664 399.233 200.423 399.993C200.182 400.74 199.802 401.279 199.283 401.608C198.764 401.937 198.029 402.102 197.079 402.102C196.952 402.102 196.743 402.102 196.452 402.102C196.173 402.102 195.857 402.102 195.502 402.102C195.16 402.102 194.812 402.102 194.457 402.102C194.102 402.102 193.786 402.102 193.507 402.102C193.228 402.102 193.026 402.102 192.899 402.102C191.936 402.102 191.183 401.988 190.638 401.76C190.093 401.545 189.707 401.165 189.479 400.62C189.264 400.075 189.156 399.309 189.156 398.321V385.249ZM215.699 394.844L217.713 393.951C218.08 394.432 218.454 394.964 218.834 395.547C219.214 396.13 219.562 396.7 219.879 397.257C220.196 397.814 220.443 398.321 220.62 398.777L218.435 399.803C218.27 399.36 218.042 398.853 217.751 398.283C217.46 397.713 217.13 397.124 216.763 396.516C216.408 395.908 216.054 395.351 215.699 394.844ZM210.284 384.888H212.621V391.766H210.284V384.888ZM202.988 390.968H220.126V393.153H202.988V390.968ZM204.888 386.845H218.511V389.011H204.888V386.845ZM212.602 392.26H214.996V400.145C214.996 400.715 214.933 401.165 214.806 401.494C214.679 401.836 214.426 402.096 214.046 402.273C213.679 402.45 213.235 402.564 212.716 402.615C212.209 402.666 211.608 402.691 210.911 402.691C210.873 402.349 210.778 401.956 210.626 401.513C210.474 401.082 210.322 400.709 210.17 400.392C210.588 400.405 211.006 400.417 211.424 400.43C211.842 400.43 212.114 400.424 212.241 400.411C212.38 400.411 212.475 400.392 212.526 400.354C212.577 400.303 212.602 400.221 212.602 400.107V392.26ZM205.097 394.103L207.415 394.692C207.174 395.287 206.883 395.895 206.541 396.516C206.199 397.124 205.832 397.707 205.439 398.264C205.046 398.809 204.635 399.29 204.204 399.708C203.976 399.505 203.678 399.284 203.311 399.043C202.944 398.79 202.633 398.587 202.38 398.435C202.785 398.068 203.159 397.643 203.501 397.162C203.856 396.668 204.172 396.155 204.451 395.623C204.73 395.091 204.945 394.584 205.097 394.103ZM208.498 391.842H210.816V394.027C210.816 394.698 210.772 395.42 210.683 396.193C210.594 396.953 210.411 397.726 210.132 398.511C209.853 399.284 209.435 400.044 208.878 400.791C208.333 401.526 207.599 402.203 206.674 402.824C206.56 402.647 206.402 402.45 206.199 402.235C205.996 402.02 205.781 401.811 205.553 401.608C205.338 401.405 205.135 401.241 204.945 401.114C205.743 400.595 206.376 400.031 206.845 399.423C207.326 398.815 207.681 398.194 207.909 397.561C208.15 396.928 208.308 396.307 208.384 395.699C208.46 395.078 208.498 394.502 208.498 393.97V391.842ZM230.424 387.035C229.905 387.757 229.246 388.504 228.448 389.277C227.663 390.05 226.789 390.791 225.826 391.5C224.876 392.209 223.882 392.843 222.843 393.4C222.742 393.21 222.609 393.001 222.444 392.773C222.292 392.545 222.121 392.323 221.931 392.108C221.754 391.893 221.583 391.703 221.418 391.538C222.507 391.019 223.552 390.379 224.553 389.619C225.554 388.846 226.447 388.042 227.232 387.206C228.03 386.37 228.663 385.566 229.132 384.793H231.507C232.026 385.515 232.596 386.205 233.217 386.864C233.838 387.523 234.503 388.131 235.212 388.688C235.921 389.245 236.65 389.746 237.397 390.189C238.144 390.632 238.898 391.006 239.658 391.31C239.367 391.601 239.094 391.931 238.841 392.298C238.588 392.665 238.353 393.02 238.138 393.362C237.416 392.982 236.681 392.545 235.934 392.051C235.199 391.557 234.49 391.031 233.806 390.474C233.122 389.904 232.489 389.328 231.906 388.745C231.323 388.162 230.829 387.592 230.424 387.035ZM225.674 390.55H235.231V392.545H225.674V390.55ZM223.394 394.426H237.473V396.402H223.394V394.426ZM222.444 400.202H238.594V402.159H222.444V400.202ZM229.189 391.348H231.602V401.19H229.189V391.348ZM224.591 397.124L226.415 396.364C226.656 396.681 226.89 397.029 227.118 397.409C227.359 397.789 227.574 398.163 227.764 398.53C227.954 398.897 228.093 399.227 228.182 399.518L226.225 400.392C226.149 400.101 226.022 399.765 225.845 399.385C225.668 398.992 225.471 398.6 225.256 398.207C225.041 397.814 224.819 397.453 224.591 397.124ZM234.243 396.383L236.428 397.181C236.048 397.764 235.655 398.346 235.25 398.929C234.845 399.499 234.471 399.987 234.129 400.392L232.419 399.67C232.634 399.366 232.856 399.03 233.084 398.663C233.312 398.283 233.527 397.897 233.73 397.504C233.933 397.099 234.104 396.725 234.243 396.383ZM243.477 397.181H255.865V398.967H243.477V397.181ZM243.971 394.122H256.72V396.022H243.971V394.122ZM241.121 400.259H257.936V402.216H241.121V400.259ZM248.398 392.963H250.754V401.608H248.398V392.963ZM245.206 389.866V390.892H253.642V389.866H245.206ZM245.206 387.263V388.251H253.642V387.263H245.206ZM242.964 385.534H255.998V392.621H242.964V385.534ZM243.952 392.431L246.175 393.077C245.896 393.698 245.561 394.306 245.168 394.901C244.775 395.496 244.357 396.054 243.914 396.573C243.471 397.092 243.034 397.542 242.603 397.922C242.451 397.783 242.261 397.624 242.033 397.447C241.805 397.27 241.571 397.099 241.33 396.934C241.089 396.757 240.874 396.617 240.684 396.516C241.343 396.022 241.963 395.414 242.546 394.692C243.141 393.957 243.61 393.204 243.952 392.431Z" fill="black"/>
<path d="M183.045 38.011H199.955V40.386H183.045V38.011ZM190.189 33.907H192.697V39.265H190.189V33.907ZM187.035 42.419L189.695 43.103C189.302 44.167 188.84 45.212 188.308 46.238C187.789 47.264 187.231 48.2267 186.636 49.126C186.041 50.0127 185.433 50.7853 184.812 51.444C184.635 51.2793 184.4 51.0957 184.109 50.893C183.83 50.6903 183.545 50.4877 183.254 50.285C182.963 50.0823 182.709 49.9177 182.494 49.791C183.127 49.221 183.729 48.5433 184.299 47.758C184.869 46.9727 185.388 46.124 185.857 45.212C186.326 44.2873 186.718 43.3563 187.035 42.419ZM193.305 43.312L195.623 42.381C196.041 42.989 196.472 43.635 196.915 44.319C197.358 45.003 197.789 45.6997 198.207 46.409C198.625 47.1057 198.999 47.7833 199.328 48.442C199.67 49.1007 199.942 49.7023 200.145 50.247L197.561 51.368C197.384 50.8487 197.137 50.2533 196.82 49.582C196.516 48.9107 196.168 48.2203 195.775 47.511C195.395 46.789 194.99 46.067 194.559 45.345C194.141 44.623 193.723 43.9453 193.305 43.312ZM202.121 34.819H218.898V37.042H202.121V34.819ZM205.693 43.825H215.592V45.877H205.693V43.825ZM205.769 48.442H215.383V50.551H205.769V48.442ZM209.151 35.617L211.944 36.187C211.805 36.7063 211.659 37.232 211.507 37.764C211.355 38.2833 211.209 38.7837 211.07 39.265C210.943 39.7337 210.81 40.1517 210.671 40.519L208.505 39.968C208.606 39.55 208.701 39.094 208.79 38.6C208.879 38.0933 208.955 37.5803 209.018 37.061C209.094 36.5417 209.138 36.0603 209.151 35.617ZM204.021 39.208H217.188V51.691H214.756V41.317H206.339V51.691H204.021V39.208ZM229.424 36.035C228.905 36.757 228.246 37.5043 227.448 38.277C226.663 39.0497 225.789 39.7907 224.826 40.5C223.876 41.2093 222.882 41.8427 221.843 42.4C221.742 42.21 221.609 42.001 221.444 41.773C221.292 41.545 221.121 41.3233 220.931 41.108C220.754 40.8927 220.583 40.7027 220.418 40.538C221.507 40.0187 222.552 39.379 223.553 38.619C224.554 37.8463 225.447 37.042 226.232 36.206C227.03 35.37 227.663 34.5657 228.132 33.793H230.507C231.026 34.515 231.596 35.2053 232.217 35.864C232.838 36.5227 233.503 37.1307 234.212 37.688C234.921 38.2453 235.65 38.7457 236.397 39.189C237.144 39.6323 237.898 40.006 238.658 40.31C238.367 40.6013 238.094 40.9307 237.841 41.298C237.588 41.6653 237.353 42.02 237.138 42.362C236.416 41.982 235.681 41.545 234.934 41.051C234.199 40.557 233.49 40.0313 232.806 39.474C232.122 38.904 231.489 38.3277 230.906 37.745C230.323 37.1623 229.829 36.5923 229.424 36.035ZM224.674 39.55H234.231V41.545H224.674V39.55ZM222.394 43.426H236.473V45.402H222.394V43.426ZM221.444 49.202H237.594V51.159H221.444V49.202ZM228.189 40.348H230.602V50.19H228.189V40.348ZM223.591 46.124L225.415 45.364C225.656 45.6807 225.89 46.029 226.118 46.409C226.359 46.789 226.574 47.1627 226.764 47.53C226.954 47.8973 227.093 48.2267 227.182 48.518L225.225 49.392C225.149 49.1007 225.022 48.765 224.845 48.385C224.668 47.9923 224.471 47.5997 224.256 47.207C224.041 46.8143 223.819 46.4533 223.591 46.124ZM233.243 45.383L235.428 46.181C235.048 46.7637 234.655 47.3463 234.25 47.929C233.845 48.499 233.471 48.9867 233.129 49.392L231.419 48.67C231.634 48.366 231.856 48.0303 232.084 47.663C232.312 47.283 232.527 46.8967 232.73 46.504C232.933 46.0987 233.104 45.725 233.243 45.383ZM242.477 46.181H254.865V47.967H242.477V46.181ZM242.971 43.122H255.72V45.022H242.971V43.122ZM240.121 49.259H256.936V51.216H240.121V49.259ZM247.398 41.963H249.754V50.608H247.398V41.963ZM244.206 38.866V39.892H252.642V38.866H244.206ZM244.206 36.263V37.251H252.642V36.263H244.206ZM241.964 34.534H254.998V41.621H241.964V34.534ZM242.952 41.431L245.175 42.077C244.896 42.6977 244.561 43.3057 244.168 43.901C243.775 44.4963 243.357 45.0537 242.914 45.573C242.471 46.0923 242.034 46.542 241.603 46.922C241.451 46.7827 241.261 46.6243 241.033 46.447C240.805 46.2697 240.571 46.0987 240.33 45.934C240.089 45.7567 239.874 45.6173 239.684 45.516C240.343 45.022 240.963 44.414 241.546 43.692C242.141 42.9573 242.61 42.2037 242.952 41.431Z" fill="black"/>
<path d="M204.898 199.048H220.144V201.82H204.898V199.048ZM203.134 211.249H221.887V214.126H203.134V211.249ZM228.733 201.757V202.996H238.351V201.757H228.733ZM228.733 198.733V199.972H238.351V198.733H228.733ZM226.318 196.843H240.892V204.907H226.318V196.843ZM225.772 205.873H241.48V207.847H225.772V205.873ZM224.029 208.918H243.055V211.018H224.029V208.918ZM232.198 197.704H234.697V210.241H232.198V197.704ZM229.93 212.194L232.24 212.005C232.352 212.551 232.45 213.153 232.534 213.811C232.618 214.469 232.66 215.022 232.66 215.47L230.203 215.764C230.203 215.302 230.182 214.735 230.14 214.063C230.098 213.405 230.028 212.782 229.93 212.194ZM234.067 212.278L236.419 211.816C236.643 212.348 236.86 212.936 237.07 213.58C237.28 214.21 237.427 214.756 237.511 215.218L235.012 215.764C234.956 215.316 234.837 214.763 234.655 214.105C234.473 213.447 234.277 212.838 234.067 212.278ZM238.204 212.152L240.577 211.375C240.899 211.725 241.228 212.124 241.564 212.572C241.914 213.006 242.236 213.44 242.53 213.874C242.824 214.294 243.055 214.686 243.223 215.05L240.682 215.932C240.542 215.61 240.332 215.225 240.052 214.777C239.786 214.343 239.485 213.895 239.149 213.433C238.827 212.971 238.512 212.544 238.204 212.152ZM226.15 211.396L228.586 211.984C228.348 212.712 228.026 213.433 227.62 214.147C227.214 214.875 226.759 215.477 226.255 215.953L223.861 214.903C224.337 214.525 224.778 214.014 225.184 213.37C225.59 212.726 225.912 212.068 226.15 211.396ZM204.352 227.681H220.69V230.159H204.352V227.681ZM202.966 237.509H222.097V239.987H202.966V237.509ZM211.114 221.192H213.823V239.21H211.114V221.192ZM226.843 234.779H240.535V236.753H226.843V234.779ZM227.389 231.398H241.48V233.498H227.389V231.398ZM224.239 238.181H242.824V240.344H224.239V238.181ZM232.282 230.117H234.886V239.672H232.282V230.117ZM228.754 226.694V227.828H238.078V226.694H228.754ZM228.754 223.817V224.909H238.078V223.817H228.754ZM226.276 221.906H240.682V229.739H226.276V221.906ZM227.368 229.529L229.825 230.243C229.517 230.929 229.146 231.601 228.712 232.259C228.278 232.917 227.816 233.533 227.326 234.107C226.836 234.681 226.353 235.178 225.877 235.598C225.709 235.444 225.499 235.269 225.247 235.073C224.995 234.877 224.736 234.688 224.47 234.506C224.204 234.31 223.966 234.156 223.756 234.044C224.484 233.498 225.17 232.826 225.814 232.028C226.472 231.216 226.99 230.383 227.368 229.529Z" fill="white"/>
<defs>
<linearGradient id="paint0_linear_2_274" x1="220.75" y1="26" x2="220.75" y2="412.5" gradientUnits="userSpaceOnUse">
<stop stop-color="#FFFBA7"/>
<stop offset="1" stop-color="#FDFAEC"/>
</linearGradient>
<linearGradient id="paint1_linear_2_274" x1="221" y1="64" x2="221" y2="374" gradientUnits="userSpaceOnUse">
<stop stop-color="#FFFDDC"/>
<stop offset="1" stop-color="#E3F8FF"/>
</linearGradient>
<linearGradient id="paint2_linear_2_274" x1="221" y1="109" x2="221" y2="329" gradientUnits="userSpaceOnUse">
<stop stop-color="#C8EEFF"/>
<stop offset="1" stop-color="#E1F3FF"/>
</linearGradient>
<linearGradient id="paint3_linear_2_274" x1="221" y1="154" x2="221" y2="284" gradientUnits="userSpaceOnUse">
<stop stop-color="#58C7FF"/>
<stop offset="1" stop-color="#9FE0FF"/>
</linearGradient>
</defs>
</svg>
