<svg width="442" height="452" viewBox="0 0 442 452" fill="none" xmlns="http://www.w3.org/2000/svg">
<rect width="442" height="452" fill="white"/>
<path d="M272.5 26H169L27.5 166.5V270.5L169 412.5H272.5L414 270.5V166.5L272.5 26Z" fill="url(#paint0_linear_2_70)" stroke="#FFFDE8"/>
<path d="M262.507 64H179.493L66 176.691V260.106L179.493 374H262.507L376 260.106V176.691L262.507 64Z" fill="url(#paint1_linear_2_70)" stroke="#FEFFEA"/>
<path d="M250.457 109H191.543L111 188.974V248.172L191.543 329H250.457L331 248.172V188.974L250.457 109Z" fill="url(#paint2_linear_2_70)" stroke="#DDF4FF"/>
<path d="M414.37 270.528L28 167" stroke="#888686"/>
<path d="M272.528 26L186.777 346.024L169 412.37" stroke="#888686" stroke-opacity="0.82"/>
<path d="M169 26L272.528 412.37" stroke="#888686"/>
<path d="M414.37 167L28 270.528" stroke="#888886"/>
<path d="M238.406 154H203.594L156 201.257V236.238L203.594 284H238.406L286 236.238V201.257L238.406 154Z" fill="url(#paint3_linear_2_70)" stroke="#B9E7FD"/>
<path d="M126.044 212.194H142.028V214.21H126.044V212.194ZM132.83 210.718H135.08V227.62H132.83V210.718ZM132.272 220.996L134.108 221.752C133.688 222.352 133.208 222.928 132.668 223.48C132.14 224.032 131.564 224.554 130.94 225.046C130.328 225.526 129.686 225.964 129.014 226.36C128.354 226.768 127.688 227.116 127.016 227.404C126.896 227.224 126.752 227.02 126.584 226.792C126.416 226.564 126.236 226.342 126.044 226.126C125.852 225.91 125.678 225.73 125.522 225.586C126.182 225.358 126.836 225.082 127.484 224.758C128.132 224.422 128.756 224.056 129.356 223.66C129.956 223.252 130.502 222.826 130.994 222.382C131.498 221.926 131.924 221.464 132.272 220.996ZM135.692 221.068C136.052 221.524 136.484 221.974 136.988 222.418C137.504 222.85 138.062 223.27 138.662 223.678C139.274 224.074 139.91 224.434 140.57 224.758C141.23 225.07 141.89 225.34 142.55 225.568C142.382 225.712 142.196 225.892 141.992 226.108C141.8 226.336 141.614 226.564 141.434 226.792C141.266 227.032 141.122 227.248 141.002 227.44C140.33 227.164 139.664 226.822 139.004 226.414C138.344 226.018 137.702 225.58 137.078 225.1C136.466 224.608 135.89 224.086 135.35 223.534C134.822 222.982 134.348 222.412 133.928 221.824L135.692 221.068ZM129.662 219.448V220.546H138.392V219.448H129.662ZM129.662 216.856V217.936H138.392V216.856H129.662ZM127.556 215.236H140.606V222.166H127.556V215.236Z" fill="black"/>
<path d="M82.744 213.856L84.552 214.432V222.752H82.744V213.856ZM93.896 213.952H95.752V222.624C95.752 223.051 95.704 223.413 95.608 223.712C95.512 224 95.3253 224.224 95.048 224.384C94.7707 224.544 94.44 224.645 94.056 224.688C93.6827 224.731 93.2453 224.752 92.744 224.752C92.7227 224.571 92.6747 224.363 92.6 224.128C92.5253 223.893 92.44 223.659 92.344 223.424C92.2587 223.189 92.168 222.987 92.072 222.816C92.4027 222.827 92.7173 222.837 93.016 222.848C93.3147 222.848 93.5173 222.848 93.624 222.848C93.7307 222.848 93.8 222.827 93.832 222.784C93.8747 222.741 93.896 222.672 93.896 222.576V213.952ZM81.496 222.432C82.1787 222.293 83 222.112 83.96 221.888C84.92 221.653 85.896 221.419 86.888 221.184L87.096 222.8C86.2107 223.045 85.3147 223.285 84.408 223.52C83.5013 223.755 82.6747 223.973 81.928 224.176L81.496 222.432ZM86.648 215.76H88.44V220.048C88.44 220.763 88.3813 221.472 88.264 222.176C88.1573 222.869 87.944 223.541 87.624 224.192C87.304 224.843 86.8293 225.445 86.2 226C85.5707 226.555 84.7333 227.04 83.688 227.456C83.6133 227.317 83.5067 227.152 83.368 226.96C83.24 226.779 83.096 226.603 82.936 226.432C82.7867 226.261 82.648 226.123 82.52 226.016C83.4373 225.653 84.168 225.248 84.712 224.8C85.2667 224.341 85.6827 223.856 85.96 223.344C86.2373 222.821 86.4187 222.283 86.504 221.728C86.6 221.163 86.648 220.592 86.648 220.016V215.76ZM89.704 213.952H94.872V215.696H91.512V227.44H89.704V213.952ZM87.256 212.432L88.968 213.648C88.4667 213.936 87.9387 214.224 87.384 214.512C86.8293 214.789 86.28 215.051 85.736 215.296C85.2027 215.541 84.696 215.749 84.216 215.92L82.984 214.864C83.432 214.661 83.9173 214.427 84.44 214.16C84.9627 213.883 85.4693 213.595 85.96 213.296C86.4613 212.987 86.8933 212.699 87.256 212.432Z" fill="black"/>
<path d="M35.222 183.355H52.816V185.844H35.222V183.355ZM38.053 213.138H49.852V215.437H38.053V213.138ZM38.015 207.324H49.852V209.585H38.015V207.324ZM36.837 201.624H51.22V216.653H48.788V203.942H39.136V216.672H36.837V201.624ZM42.404 198.774L45.387 199.173C45.0957 199.882 44.7853 200.573 44.456 201.244C44.1267 201.915 43.829 202.492 43.563 202.973L41.302 202.517C41.4413 202.15 41.5807 201.751 41.72 201.32C41.872 200.889 42.005 200.452 42.119 200.009C42.2457 199.566 42.3407 199.154 42.404 198.774ZM35.488 226.524H40.77V228.823H35.488V226.524ZM42.86 221.869H45.292V236.746C45.292 237.43 45.2097 237.962 45.045 238.342C44.8803 238.722 44.5953 239.013 44.19 239.216C43.7847 239.419 43.2653 239.552 42.632 239.615C42.0113 239.691 41.264 239.729 40.39 239.729C40.3647 239.488 40.3013 239.21 40.2 238.893C40.1113 238.589 40.0037 238.285 39.877 237.981C39.7503 237.664 39.6237 237.398 39.497 237.183C40.1177 237.208 40.7003 237.221 41.245 237.221C41.7897 237.221 42.157 237.221 42.347 237.221C42.537 237.221 42.67 237.183 42.746 237.107C42.822 237.031 42.86 236.911 42.86 236.746V221.869ZM39.991 226.524H40.466L40.884 226.429L42.442 226.999C42.1633 228.734 41.7453 230.311 41.188 231.73C40.6433 233.149 39.9973 234.396 39.25 235.473C38.5153 236.537 37.692 237.405 36.78 238.076C36.6533 237.886 36.476 237.677 36.248 237.449C36.02 237.208 35.7793 236.98 35.526 236.765C35.2853 236.55 35.07 236.385 34.88 236.271C35.754 235.676 36.533 234.928 37.217 234.029C37.901 233.117 38.4773 232.072 38.946 230.894C39.4273 229.703 39.7757 228.411 39.991 227.018V226.524ZM45.14 224.643C45.444 225.91 45.8303 227.126 46.299 228.291C46.7803 229.456 47.344 230.546 47.99 231.559C48.636 232.572 49.3833 233.478 50.232 234.276C51.0933 235.061 52.056 235.707 53.12 236.214C52.93 236.366 52.721 236.562 52.493 236.803C52.265 237.044 52.0497 237.303 51.847 237.582C51.657 237.848 51.4923 238.095 51.353 238.323C49.8837 237.487 48.636 236.41 47.61 235.093C46.584 233.763 45.729 232.243 45.045 230.533C44.361 228.823 43.791 226.986 43.335 225.023L45.14 224.643ZM50.479 224.833L52.626 226.334C52.0813 226.891 51.505 227.468 50.897 228.063C50.289 228.658 49.681 229.222 49.073 229.754C48.4777 230.286 47.914 230.748 47.382 231.141L45.729 229.868C46.2483 229.437 46.793 228.937 47.363 228.367C47.9457 227.797 48.5093 227.208 49.054 226.6C49.5987 225.979 50.0737 225.39 50.479 224.833ZM37.977 257.181H50.365V258.967H37.977V257.181ZM38.471 254.122H51.22V256.022H38.471V254.122ZM35.621 260.259H52.436V262.216H35.621V260.259ZM42.898 252.963H45.254V261.608H42.898V252.963ZM39.706 249.866V250.892H48.142V249.866H39.706ZM39.706 247.263V248.251H48.142V247.263H39.706ZM37.464 245.534H50.498V252.621H37.464V245.534ZM38.452 252.431L40.675 253.077C40.3963 253.698 40.0607 254.306 39.668 254.901C39.2753 255.496 38.8573 256.054 38.414 256.573C37.9707 257.092 37.5337 257.542 37.103 257.922C36.951 257.783 36.761 257.624 36.533 257.447C36.305 257.27 36.0707 257.099 35.83 256.934C35.5893 256.757 35.374 256.617 35.184 256.516C35.8427 256.022 36.4633 255.414 37.046 254.692C37.6413 253.957 38.11 253.204 38.452 252.431Z" fill="black"/>
<path d="M390.628 177.598H405.315V179.859H390.628V177.598ZM389.526 190.537H406.569V192.798H389.526V190.537ZM395.91 178.396H398.513C398.323 179.536 398.114 180.72 397.886 181.949C397.658 183.178 397.424 184.4 397.183 185.616C396.942 186.832 396.702 187.985 396.461 189.074C396.233 190.163 396.011 191.132 395.796 191.981H393.231C393.459 191.094 393.7 190.1 393.953 188.998C394.206 187.883 394.447 186.724 394.675 185.521C394.916 184.305 395.144 183.089 395.359 181.873C395.574 180.657 395.758 179.498 395.91 178.396ZM391.255 183.165H403.586V191.601H401.211V185.407H391.255V183.165ZM389.45 203.41H406.626V205.481H389.45V203.41ZM390.799 200.256H405.315V202.251H390.799V200.256ZM393.934 198.85H396.252V204.417H393.934V198.85ZM399.805 198.85H402.161V204.417H399.805V198.85ZM396.841 204.588H399.197V212.378H396.841V204.588ZM393.535 210.516V211.618H402.598V210.516H393.535ZM393.535 207.989V209.053H402.598V207.989H393.535ZM391.35 206.412H404.897V213.176H391.35V206.412ZM399.368 214.392L400.641 212.948C401.338 213.176 402.041 213.423 402.75 213.689C403.472 213.955 404.156 214.215 404.802 214.468C405.461 214.721 406.024 214.949 406.493 215.152L404.859 216.672C404.441 216.469 403.934 216.235 403.339 215.969C402.744 215.716 402.104 215.45 401.42 215.171C400.736 214.892 400.052 214.633 399.368 214.392ZM394.998 213.024L396.936 214.373C396.429 214.69 395.834 214.994 395.15 215.285C394.466 215.589 393.763 215.868 393.041 216.121C392.319 216.374 391.635 216.59 390.989 216.767C390.799 216.526 390.546 216.248 390.229 215.931C389.925 215.627 389.646 215.367 389.393 215.152C390.064 215 390.748 214.81 391.445 214.582C392.154 214.341 392.826 214.082 393.459 213.803C394.092 213.524 394.605 213.265 394.998 213.024ZM390.628 227.759H405.41V230.001H390.628V227.759ZM389.374 236.651H406.683V238.893H389.374V236.651ZM396.746 221.888H399.197V238.19H396.746V221.888ZM391.977 257.181H404.365V258.967H391.977V257.181ZM392.471 254.122H405.22V256.022H392.471V254.122ZM389.621 260.259H406.436V262.216H389.621V260.259ZM396.898 252.963H399.254V261.608H396.898V252.963ZM393.706 249.866V250.892H402.142V249.866H393.706ZM393.706 247.263V248.251H402.142V247.263H393.706ZM391.464 245.534H404.498V252.621H391.464V245.534ZM392.452 252.431L394.675 253.077C394.396 253.698 394.061 254.306 393.668 254.901C393.275 255.496 392.857 256.054 392.414 256.573C391.971 257.092 391.534 257.542 391.103 257.922C390.951 257.783 390.761 257.624 390.533 257.447C390.305 257.27 390.071 257.099 389.83 256.934C389.589 256.757 389.374 256.617 389.184 256.516C389.843 256.022 390.463 255.414 391.046 254.692C391.641 253.957 392.11 253.204 392.452 252.431Z" fill="black"/>
<path d="M148.246 170.277L159.549 158.974L160.974 160.4L149.672 171.702L148.246 170.277ZM156.52 172.95L162.209 167.26L163.393 168.444L157.703 174.133L156.52 172.95ZM158.276 175.241L164.513 169.004L165.735 170.226L159.498 176.462L158.276 175.241ZM159.192 171.448L160.631 170.009L165.111 174.49L163.673 175.928L159.192 171.448ZM151.11 172.173L160.325 162.958L161.725 164.358L154.038 172.046L161.127 179.135L159.6 180.663L151.11 172.173ZM159.892 163.391L161.458 161.825L168.42 168.788C168.785 169.152 169.014 169.483 169.107 169.78C169.209 170.086 169.184 170.417 169.031 170.773C168.878 171.146 168.62 171.533 168.255 171.931C167.907 172.33 167.474 172.788 166.956 173.306C166.727 173.145 166.439 172.992 166.091 172.848C165.752 172.695 165.442 172.58 165.162 172.504C165.382 172.3 165.607 172.093 165.836 171.88C166.065 171.668 166.269 171.473 166.447 171.295C166.625 171.1 166.744 170.972 166.804 170.913C166.922 170.794 166.986 170.697 166.995 170.62C166.995 170.535 166.948 170.446 166.855 170.353L159.892 163.391ZM155.654 171.117L156.507 169.551C156.863 169.602 157.237 169.695 157.627 169.831C158.026 169.958 158.357 170.086 158.62 170.213L157.767 171.906C157.512 171.753 157.186 171.605 156.787 171.46C156.388 171.316 156.01 171.202 155.654 171.117ZM158.912 167.197L160.554 166.267C160.69 166.743 160.817 167.209 160.936 167.667C161.055 168.109 161.144 168.512 161.203 168.877L159.791 169.628C159.731 169.381 159.651 169.114 159.549 168.826C159.455 168.529 159.354 168.24 159.243 167.96C159.133 167.68 159.023 167.426 158.912 167.197ZM152.116 164.473L153.783 162.805L158.123 167.146L156.456 168.813L152.116 164.473ZM161 157.523L172.302 146.221L173.728 147.646L162.425 158.949L161 157.523ZM164.754 151.681L166.345 150.09L178.297 162.042L176.706 163.633L164.754 151.681ZM171.628 159.343L173.46 158.58C173.588 159.301 173.656 160.048 173.664 160.82C173.681 161.584 173.643 162.36 173.549 163.149C173.456 163.921 173.312 164.685 173.117 165.44C172.939 166.195 172.714 166.912 172.442 167.591C172.23 167.549 171.984 167.506 171.704 167.464C171.424 167.421 171.14 167.392 170.851 167.375C170.563 167.358 170.312 167.354 170.1 167.362C170.406 166.734 170.673 166.076 170.902 165.389C171.123 164.693 171.305 163.993 171.449 163.289C171.585 162.576 171.67 161.889 171.704 161.227C171.738 160.548 171.712 159.92 171.628 159.343ZM174.097 156.976C174.674 157.044 175.297 157.057 175.968 157.014C176.638 156.955 177.33 156.857 178.042 156.721C178.755 156.569 179.459 156.374 180.155 156.136C180.843 155.89 181.5 155.614 182.128 155.309C182.111 155.529 182.107 155.788 182.115 156.085C182.141 156.382 182.171 156.675 182.204 156.963C182.255 157.252 182.306 157.506 182.357 157.727C181.687 158.007 180.974 158.236 180.219 158.414C179.472 158.601 178.709 158.745 177.928 158.847C177.147 158.932 176.371 158.97 175.599 158.962C174.835 158.945 174.097 158.877 173.384 158.758L174.097 156.976ZM168.687 160.094L169.464 160.871L175.637 154.698L174.86 153.921L168.687 160.094ZM166.855 158.262L167.618 159.025L173.791 152.852L173.028 152.088L166.855 158.262ZM164.22 158.605L173.448 149.377L178.348 154.278L169.12 163.505L164.22 158.605Z" fill="black"/>
<path d="M113.785 145.701L122.248 137.238L123.56 138.551L115.098 147.013L113.785 145.701ZM117.847 149.876L126.626 141.096L127.86 142.329L119.08 151.109L117.847 149.876ZM117.179 146.47L123.345 140.304L124.567 141.526L118.401 147.692L117.179 146.47ZM113.005 146.482L114.362 145.124L117.802 148.563C118.284 149.046 118.797 149.589 119.34 150.192C119.883 150.796 120.415 151.441 120.936 152.127C121.456 152.813 121.916 153.522 122.316 154.254C122.723 154.978 123.025 155.702 123.221 156.426C123.063 156.434 122.863 156.468 122.621 156.528C122.388 156.581 122.15 156.645 121.909 156.72C121.675 156.788 121.479 156.864 121.32 156.947C121.147 156.275 120.879 155.616 120.517 154.967C120.155 154.318 119.74 153.692 119.273 153.089C118.805 152.485 118.326 151.916 117.836 151.38C117.345 150.845 116.878 150.355 116.433 149.91L113.005 146.482ZM119.827 148.846L121.151 147.522L125.427 151.799L124.103 153.123L119.827 148.846ZM122.814 154.005C123.146 153.583 123.515 153.093 123.922 152.534C124.33 151.961 124.76 151.358 125.212 150.724C125.672 150.083 126.129 149.446 126.581 148.812L127.848 149.921C127.449 150.517 127.037 151.124 126.615 151.742C126.193 152.361 125.782 152.953 125.382 153.519C124.997 154.084 124.639 154.609 124.307 155.091L122.814 154.005ZM123.108 145.565C124.036 146.131 124.96 146.527 125.88 146.753C126.8 146.979 127.731 147.006 128.674 146.832C129.625 146.651 130.605 146.236 131.616 145.588C131.616 145.784 131.631 146.01 131.661 146.267C131.699 146.516 131.744 146.764 131.797 147.013C131.857 147.27 131.921 147.492 131.989 147.681C130.835 148.337 129.723 148.733 128.652 148.869C127.581 148.989 126.51 148.884 125.438 148.552C124.367 148.22 123.247 147.703 122.078 147.002L123.108 145.565ZM126.457 143.755L128.425 143.348C128.342 143.823 128.241 144.317 128.12 144.83C128.007 145.335 127.882 145.829 127.746 146.312C127.611 146.78 127.479 147.213 127.35 147.613L125.767 147.839C125.88 147.439 125.982 146.998 126.072 146.516C126.17 146.025 126.253 145.543 126.321 145.067C126.389 144.577 126.434 144.14 126.457 143.755ZM138.987 145.072L126.146 132.231L127.232 131.145L140.073 143.986L138.987 145.072ZM137.375 129.488L144.084 122.779L145.419 124.114L138.71 130.823L137.375 129.488ZM133.788 125.947L141.233 118.503L146.754 124.024L145.351 125.427L141.165 121.24L135.123 127.282L133.788 125.947ZM132.974 126.762L134.388 125.347L141.674 132.633C141.968 132.927 142.221 133.12 142.432 133.21C142.636 133.293 142.858 133.259 143.099 133.109C143.348 132.95 143.68 132.664 144.095 132.249C144.216 132.128 144.404 131.939 144.661 131.683C144.917 131.427 145.204 131.14 145.521 130.823C145.845 130.499 146.169 130.174 146.494 129.85C146.818 129.526 147.108 129.235 147.365 128.979C147.629 128.715 147.821 128.523 147.942 128.402C148.319 128.025 148.56 127.701 148.666 127.429C148.771 127.142 148.749 126.833 148.598 126.501C148.44 126.162 148.149 125.721 147.727 125.178C147.923 125.132 148.138 125.068 148.372 124.985C148.598 124.895 148.824 124.789 149.05 124.668C149.277 124.548 149.469 124.438 149.627 124.34C150.035 124.868 150.348 125.355 150.566 125.8C150.778 126.237 150.88 126.656 150.872 127.056C150.872 127.448 150.748 127.851 150.499 128.266C150.265 128.681 149.903 129.134 149.412 129.624C149.322 129.714 149.171 129.865 148.96 130.076C148.756 130.28 148.519 130.518 148.247 130.789C147.983 131.053 147.708 131.328 147.421 131.615C147.135 131.902 146.859 132.177 146.595 132.441C146.331 132.705 146.098 132.939 145.894 133.142C145.698 133.339 145.555 133.482 145.464 133.572C144.913 134.123 144.423 134.545 143.993 134.84C143.563 135.134 143.152 135.303 142.76 135.349C142.368 135.394 141.972 135.307 141.572 135.088C141.165 134.862 140.724 134.511 140.248 134.036L132.974 126.762Z" fill="black"/>
<path d="M77.2301 128.1L86.9839 118.347L88.7573 120.12L79.0035 129.874L77.2301 128.1ZM83.9073 137.035L95.9048 125.037L97.7454 126.878L85.7479 138.875L83.9073 137.035ZM94.2119 114.585L95.0046 115.377L101.158 109.224L100.365 108.431L94.2119 114.585ZM92.2773 112.65L93.07 113.443L99.2232 107.29L98.4305 106.497L92.2773 112.65ZM89.5231 112.986L98.847 103.662L104.006 108.821L94.6822 118.145L89.5231 112.986ZM94.9509 119.112L105 109.063L106.263 110.326L96.2138 120.375L94.9509 119.112ZM95.7838 122.176L107.956 110.003L109.299 111.347L97.1273 123.519L95.7838 122.176ZM93.8358 109.775L95.4345 108.176L103.455 116.197L101.856 117.796L93.8358 109.775ZM101.655 120.496L103.012 118.897C103.433 119.175 103.881 119.497 104.355 119.865C104.83 120.232 105.211 120.559 105.497 120.845L104.114 122.605C103.818 122.31 103.442 121.961 102.985 121.558C102.537 121.163 102.094 120.81 101.655 120.496ZM104.355 117.903L105.565 116.103C106.048 116.3 106.563 116.537 107.11 116.815C107.647 117.084 108.09 117.339 108.44 117.581L107.19 119.529C106.868 119.278 106.438 119 105.9 118.696C105.363 118.391 104.848 118.127 104.355 117.903ZM106.921 115.176L107.943 113.161C108.372 113.179 108.838 113.223 109.34 113.295C109.841 113.349 110.325 113.42 110.791 113.51C111.248 113.591 111.646 113.694 111.986 113.819L110.925 116.009C110.63 115.892 110.249 115.78 109.783 115.673C109.335 115.565 108.856 115.471 108.346 115.391C107.844 115.301 107.369 115.23 106.921 115.176ZM98.7261 122.404L100.661 121.222C100.974 121.84 101.23 122.507 101.427 123.223C101.633 123.949 101.727 124.625 101.709 125.252L99.5053 126.112C99.568 125.566 99.5233 124.957 99.371 124.285C99.2187 123.613 99.0038 122.986 98.7261 122.404ZM106.075 103.904L116.528 93.4514L118.113 95.0368L107.66 105.489L106.075 103.904ZM111.476 111.078L123.715 98.8389L125.301 100.424L113.061 112.664L111.476 111.078ZM106.25 95.4264L107.983 93.6933L119.51 105.221L117.777 106.954L106.25 95.4264ZM125.005 94.056L133.765 85.2964L135.028 86.5593L126.268 95.3189L125.005 94.056ZM123.191 91.5437L132.206 82.5287L133.55 83.8722L124.535 92.8872L123.191 91.5437ZM125.516 97.8984L137.406 86.0084L138.789 87.3922L126.899 99.2822L125.516 97.8984ZM125.502 87.5938L127.168 85.9278L133.281 92.0407L131.615 93.7067L125.502 87.5938ZM121.055 87.6609L121.781 88.3864L127.746 82.4213L127.02 81.6958L121.055 87.6609ZM119.215 85.8203L119.913 86.519L125.878 80.5538L125.18 79.8552L119.215 85.8203ZM116.407 86.1831L125.623 76.9666L130.634 81.9779L121.418 91.1943L116.407 86.1831ZM121.982 90.3614L124.011 89.2463C124.253 89.8822 124.445 90.5495 124.589 91.2481C124.732 91.9467 124.83 92.6364 124.884 93.3171C124.938 93.9978 124.947 94.6248 124.911 95.198C124.705 95.2069 124.459 95.2293 124.172 95.2652C123.885 95.301 123.599 95.3458 123.312 95.3995C123.017 95.4443 122.766 95.498 122.56 95.5607C122.676 94.7457 122.685 93.8769 122.587 92.9543C122.488 92.0139 122.287 91.1496 121.982 90.3614Z" fill="black"/>
<path d="M269.936 145.246L281.239 156.549L279.813 157.974L268.511 146.672L269.936 145.246ZM267.264 153.52L272.953 159.209L271.769 160.393L266.08 154.703L267.264 153.52ZM264.973 155.276L271.209 161.513L269.987 162.735L263.751 156.498L264.973 155.276ZM268.765 156.192L270.204 157.631L265.724 162.111L264.285 160.673L268.765 156.192ZM268.04 148.11L277.255 157.325L275.855 158.725L268.167 151.038L261.078 158.127L259.55 156.6L268.04 148.11ZM276.822 156.892L278.388 158.458L271.426 165.42C271.061 165.785 270.73 166.014 270.433 166.107C270.127 166.209 269.796 166.184 269.44 166.031C269.067 165.878 268.681 165.62 268.282 165.255C267.883 164.907 267.425 164.474 266.907 163.956C267.068 163.727 267.221 163.439 267.365 163.091C267.518 162.752 267.633 162.442 267.709 162.162C267.913 162.382 268.121 162.607 268.333 162.836C268.545 163.065 268.74 163.269 268.918 163.447C269.113 163.625 269.241 163.744 269.3 163.804C269.419 163.922 269.516 163.986 269.593 163.995C269.678 163.995 269.767 163.948 269.86 163.855L276.822 156.892ZM269.096 152.654L270.662 153.507C270.611 153.863 270.518 154.237 270.382 154.627C270.255 155.026 270.127 155.357 270 155.62L268.307 154.767C268.46 154.512 268.609 154.186 268.753 153.787C268.897 153.388 269.012 153.01 269.096 152.654ZM273.017 155.912L273.946 157.554C273.471 157.69 273.004 157.817 272.546 157.936C272.104 158.055 271.701 158.144 271.337 158.203L270.586 156.791C270.832 156.731 271.099 156.651 271.387 156.549C271.684 156.455 271.973 156.354 272.253 156.243C272.533 156.133 272.788 156.023 273.017 155.912ZM275.74 149.116L277.408 150.783L273.068 155.123L271.4 153.456L275.74 149.116ZM275.346 168.093L283.975 176.723L282.563 178.135L273.933 169.506L275.346 168.093ZM280.59 160.889L291.09 171.39L282.753 179.726L281.201 178.174L288.125 171.25L280.666 163.791L273.717 170.74L272.227 169.251L280.59 160.889ZM285.757 167.227L287.221 168.691L284.93 170.982C284.769 171.143 284.68 171.258 284.663 171.326C284.663 171.394 284.726 171.491 284.854 171.619C284.879 171.644 284.934 171.699 285.019 171.784C285.112 171.877 285.201 171.967 285.286 172.051C285.38 172.145 285.448 172.213 285.49 172.255C285.566 172.331 285.634 172.374 285.694 172.382C285.77 172.391 285.863 172.357 285.974 172.28C286.092 172.213 286.254 172.085 286.457 171.899C286.474 172.051 286.517 172.238 286.585 172.459C286.669 172.679 286.763 172.9 286.865 173.121C286.983 173.341 287.098 173.532 287.208 173.693C286.759 174.024 286.372 174.241 286.05 174.342C285.728 174.444 285.431 174.444 285.159 174.342C284.896 174.249 284.62 174.058 284.332 173.77C284.264 173.702 284.183 173.621 284.09 173.528C283.997 173.434 283.895 173.333 283.784 173.222C283.683 173.121 283.585 173.023 283.492 172.93C283.398 172.836 283.322 172.76 283.263 172.7C282.855 172.293 282.592 171.928 282.473 171.606C282.363 171.292 282.393 170.974 282.563 170.651C282.732 170.329 283.029 169.956 283.453 169.531L285.757 167.227ZM282.932 157.529L294.374 168.971L292.898 170.448L281.455 159.005L282.932 157.529ZM285.286 162.124L286.788 163.625L284.243 166.171L282.741 164.669L285.286 162.124ZM288.074 164.911L289.614 166.451L287.068 168.997L285.528 167.457L288.074 164.911ZM283.339 164.224L284.764 165.649L283.504 166.909C283.08 167.334 282.588 167.715 282.028 168.055C281.468 168.394 280.832 168.615 280.119 168.717C279.406 168.818 278.604 168.729 277.713 168.449C277.739 168.288 277.747 168.076 277.739 167.813C277.73 167.55 277.709 167.283 277.675 167.011C277.65 166.748 277.616 166.536 277.573 166.375C278.379 166.638 279.062 166.744 279.622 166.693C280.191 166.65 280.675 166.506 281.073 166.26C281.472 166.014 281.82 165.743 282.117 165.446L283.339 164.224Z" fill="black"/>
<path d="M291.07 119.263L301.207 129.4L299.861 130.746L289.724 120.609L291.07 119.263ZM294.713 117.317L303.176 125.78L301.83 127.126L293.367 118.663L294.713 117.317ZM299.872 119.082L301.321 120.53L290.697 131.154L289.249 129.706L299.872 119.082ZM294.363 124.117L295.053 125.78C294.336 125.953 293.589 126.081 292.813 126.164C292.043 126.24 291.266 126.262 290.482 126.232C289.705 126.21 288.94 126.138 288.185 126.017C287.446 125.897 286.737 125.731 286.058 125.52C286.104 125.323 286.138 125.093 286.16 124.829C286.19 124.573 286.209 124.313 286.217 124.049C286.239 123.785 286.243 123.547 286.228 123.336C286.854 123.585 287.514 123.792 288.208 123.958C288.917 124.124 289.63 124.241 290.346 124.309C291.063 124.377 291.76 124.396 292.439 124.366C293.126 124.328 293.767 124.245 294.363 124.117ZM296.286 126.063C296.15 126.651 296.063 127.288 296.026 127.975C296.003 128.661 296.026 129.362 296.094 130.079C296.161 130.795 296.271 131.501 296.422 132.195C296.588 132.889 296.791 133.545 297.033 134.163C296.844 134.141 296.614 134.137 296.342 134.152C296.086 134.167 295.826 134.193 295.562 134.231C295.298 134.269 295.068 134.31 294.872 134.356C294.668 133.684 294.51 132.975 294.397 132.229C294.283 131.482 294.216 130.72 294.193 129.943C294.178 129.159 294.208 128.382 294.283 127.613C294.366 126.851 294.495 126.112 294.668 125.395L296.286 126.063ZM297.141 141.987L309.982 129.146L311.068 130.232L298.227 143.073L297.141 141.987ZM314.332 136.551L323.507 145.726L316.775 152.458L315.361 151.044L320.792 145.613L314.388 139.209L308.901 144.697L307.543 143.339L314.332 136.551ZM312.782 139.888L320.317 147.423L319.061 148.679L311.526 141.144L312.782 139.888ZM310.327 142.321L317.895 149.89L316.594 151.191L309.025 143.622L310.327 142.321ZM319.66 138.847L321.086 140.273L310.462 150.896L309.037 149.471L319.66 138.847Z" fill="black"/>
<path d="M262.219 284.25L265.999 280.469L267.514 281.984L263.734 285.764L262.219 284.25ZM265.63 275.213L267.221 273.622L276.398 282.799C276.754 283.155 277.013 283.354 277.175 283.397C277.327 283.431 277.522 283.329 277.76 283.091C277.811 283.04 277.896 282.956 278.015 282.837C278.133 282.718 278.265 282.586 278.409 282.442C278.553 282.298 278.685 282.166 278.804 282.048C278.922 281.929 279.012 281.84 279.071 281.78C279.241 281.611 279.296 281.411 279.236 281.182C279.177 280.953 278.978 280.635 278.638 280.227C278.299 279.803 277.802 279.239 277.149 278.535C277.37 278.501 277.612 278.446 277.875 278.369C278.146 278.284 278.409 278.191 278.664 278.089C278.91 277.979 279.122 277.869 279.3 277.758C280.064 278.624 280.632 279.37 281.006 279.998C281.387 280.618 281.553 281.174 281.502 281.666C281.468 282.158 281.209 282.646 280.726 283.129C280.658 283.197 280.543 283.312 280.382 283.473C280.221 283.634 280.047 283.808 279.86 283.995C279.682 284.173 279.516 284.339 279.364 284.491C279.211 284.644 279.096 284.759 279.02 284.835C278.536 285.319 278.082 285.628 277.658 285.764C277.251 285.9 276.822 285.853 276.373 285.624C275.914 285.387 275.388 284.971 274.794 284.377L265.63 275.213ZM262.423 278.42L264.014 276.829L275.622 288.437L274.031 290.028L262.423 278.42ZM271.727 272.909L274.209 273.176C274.065 273.914 273.895 274.678 273.7 275.467C273.496 276.248 273.28 277.033 273.051 277.822C272.822 278.594 272.584 279.341 272.338 280.062C272.117 279.943 271.829 279.833 271.472 279.731C271.108 279.621 270.794 279.536 270.531 279.477C270.743 278.772 270.929 278.034 271.091 277.262C271.252 276.49 271.383 275.73 271.485 274.984C271.595 274.228 271.676 273.537 271.727 272.909ZM267.527 290.473C267.773 290.024 268.053 289.498 268.367 288.895C268.672 288.284 268.99 287.635 269.321 286.948C269.644 286.252 269.966 285.565 270.289 284.886L271.956 285.968C271.608 286.893 271.239 287.83 270.849 288.781C270.467 289.723 270.115 290.584 269.792 291.364L267.527 290.473ZM283.093 276.867L291.723 268.238L293.135 269.651L284.506 278.28L283.093 276.867ZM275.889 271.623L286.39 261.123L294.726 269.46L293.174 271.012L286.25 264.088L278.791 271.547L285.74 278.496L284.251 279.986L275.889 271.623ZM282.227 266.456L283.691 264.992L285.982 267.283C286.143 267.444 286.258 267.534 286.326 267.55C286.394 267.55 286.491 267.487 286.619 267.36C286.644 267.334 286.699 267.279 286.784 267.194C286.877 267.101 286.967 267.012 287.051 266.927C287.145 266.833 287.213 266.766 287.255 266.723C287.331 266.647 287.374 266.579 287.382 266.52C287.391 266.443 287.357 266.35 287.28 266.24C287.213 266.121 287.085 265.959 286.899 265.756C287.051 265.739 287.238 265.696 287.459 265.629C287.679 265.544 287.9 265.45 288.121 265.349C288.341 265.23 288.532 265.115 288.693 265.005C289.024 265.455 289.241 265.841 289.342 266.163C289.444 266.486 289.444 266.783 289.342 267.054C289.249 267.317 289.058 267.593 288.77 267.881C288.702 267.949 288.621 268.03 288.528 268.123C288.434 268.217 288.333 268.318 288.222 268.429C288.121 268.531 288.023 268.628 287.93 268.721C287.836 268.815 287.76 268.891 287.7 268.951C287.293 269.358 286.928 269.621 286.606 269.74C286.292 269.85 285.974 269.82 285.651 269.651C285.329 269.481 284.956 269.184 284.531 268.76L282.227 266.456ZM272.529 269.281L283.971 257.839L285.448 259.316L274.005 270.758L272.529 269.281ZM277.124 266.927L278.625 265.425L281.171 267.971L279.669 269.472L277.124 266.927ZM279.911 264.139L281.451 262.599L283.997 265.145L282.457 266.685L279.911 264.139ZM279.224 268.874L280.649 267.449L281.909 268.709C282.334 269.133 282.715 269.625 283.055 270.185C283.394 270.745 283.615 271.382 283.717 272.094C283.818 272.807 283.729 273.609 283.449 274.5C283.288 274.474 283.076 274.466 282.813 274.474C282.55 274.483 282.283 274.504 282.011 274.538C281.748 274.564 281.536 274.598 281.375 274.64C281.638 273.834 281.744 273.151 281.693 272.591C281.65 272.022 281.506 271.539 281.26 271.14C281.014 270.741 280.743 270.393 280.446 270.096L279.224 268.874Z" fill="black"/>
<path d="M288.67 316.441L288.817 314.484C289.345 314.333 289.926 314.182 290.56 314.032C291.193 313.881 291.816 313.756 292.427 313.658C293.03 313.553 293.554 313.496 293.999 313.488L293.886 315.638C293.471 315.631 292.962 315.665 292.359 315.74C291.755 315.815 291.129 315.913 290.481 316.034C289.832 316.155 289.228 316.291 288.67 316.441ZM297.269 315.627L297.619 313.511C298.042 313.39 298.517 313.262 299.045 313.126C299.565 312.983 300.09 312.844 300.618 312.708C301.146 312.572 301.658 312.459 302.156 312.368C302.654 312.263 303.092 312.187 303.469 312.142L303.141 314.507C302.801 314.529 302.39 314.578 301.907 314.654C301.425 314.729 300.916 314.824 300.38 314.937C299.845 315.035 299.309 315.148 298.773 315.276C298.23 315.397 297.729 315.514 297.269 315.627ZM289.949 310.524L291.997 309.744C292.004 310.309 291.997 310.89 291.974 311.486C291.944 312.074 291.906 312.648 291.861 313.206C291.816 313.749 291.755 314.247 291.68 314.699L289.983 315.219C290.036 314.744 290.069 314.235 290.085 313.692C290.1 313.134 290.096 312.58 290.073 312.029C290.058 311.471 290.017 310.969 289.949 310.524ZM284.993 313.941L295.153 303.781L296.42 305.048L286.261 315.208L284.993 313.941ZM288.048 308.352L289.474 306.927L291.295 308.748L289.87 310.174L288.048 308.352ZM293.581 308.816L295.481 308.228C295.655 309.517 295.647 310.83 295.459 312.165C295.27 313.485 294.938 314.797 294.463 316.102C293.98 317.399 293.392 318.681 292.698 319.949C292.434 319.851 292.11 319.768 291.725 319.7C291.34 319.617 290.982 319.568 290.65 319.553C291.359 318.391 291.966 317.203 292.472 315.989C292.97 314.767 293.324 313.545 293.535 312.323C293.746 311.101 293.762 309.932 293.581 308.816ZM296.828 309.28L298.841 308.714C299.09 310.29 299.087 311.856 298.83 313.409C298.574 314.963 298.117 316.513 297.461 318.059C296.805 319.59 295.994 321.118 295.029 322.641C294.742 322.521 294.399 322.411 293.999 322.313C293.614 322.215 293.252 322.155 292.913 322.132C293.871 320.707 294.689 319.27 295.368 317.822C296.039 316.366 296.511 314.922 296.782 313.488C297.061 312.048 297.076 310.645 296.828 309.28ZM310.987 311.072L298.146 298.231L299.232 297.145L312.073 309.986L310.987 311.072ZM311.456 286.618L311.479 284.989C311.796 284.883 312.139 284.789 312.509 284.706C312.886 284.616 313.252 284.544 313.606 284.491C313.961 284.423 314.262 284.393 314.511 284.401L314.534 286.166C314.285 286.143 313.983 286.158 313.629 286.211C313.274 286.249 312.905 286.301 312.52 286.369C312.135 286.437 311.781 286.52 311.456 286.618ZM315.597 288.293L317.317 287.32C318.245 289.349 318.799 291.381 318.98 293.418C319.161 295.454 318.969 297.427 318.403 299.335C318.237 299.29 318.022 299.256 317.758 299.233C317.509 299.21 317.249 299.191 316.978 299.176C316.721 299.161 316.499 299.158 316.31 299.165C316.951 297.393 317.211 295.586 317.091 293.746C316.97 291.89 316.472 290.073 315.597 288.293ZM306.954 293.248L315.597 284.604L316.887 285.894L308.243 294.538L306.954 293.248ZM311.411 295.692L314.194 292.909L315.45 294.164L312.667 296.948L311.411 295.692ZM306.275 293.927L307.632 292.569L310.698 295.635C311.121 296.058 311.566 296.54 312.033 297.083C312.494 297.619 312.935 298.196 313.357 298.814C313.787 299.425 314.153 300.063 314.455 300.726C314.749 301.383 314.937 302.046 315.02 302.718C314.862 302.695 314.654 302.691 314.398 302.706C314.149 302.729 313.896 302.755 313.64 302.785C313.399 302.816 313.195 302.853 313.029 302.899C312.946 302.303 312.776 301.733 312.52 301.19C312.271 300.64 311.966 300.115 311.604 299.618C311.249 299.112 310.876 298.641 310.483 298.203C310.084 297.758 309.703 297.355 309.341 296.993L306.275 293.927ZM308.809 287.614L310.178 286.245C311.158 287.18 312.124 288.063 313.074 288.892C314.025 289.707 314.937 290.438 315.812 291.087C316.68 291.728 317.487 292.249 318.233 292.648C318.98 293.048 319.64 293.301 320.213 293.406C320.786 293.512 321.247 293.429 321.594 293.158C321.759 293.052 321.707 292.803 321.435 292.411C321.164 292.004 320.741 291.483 320.168 290.85C320.447 290.842 320.764 290.804 321.118 290.736C321.48 290.661 321.786 290.582 322.035 290.499C323.015 291.645 323.528 292.573 323.573 293.282C323.626 293.998 323.283 294.545 322.544 294.922C321.971 295.3 321.311 295.462 320.564 295.409C319.825 295.364 319.018 295.137 318.143 294.73C317.268 294.323 316.336 293.768 315.348 293.067C314.353 292.358 313.308 291.547 312.214 290.635C311.121 289.707 309.986 288.7 308.809 287.614Z" fill="black"/>
<path d="M300.206 349.823L311.572 338.457L322.521 349.407L320.815 351.113L311.424 341.722L303.39 349.756L312.888 359.255L311.263 360.88L300.206 349.823ZM309.691 357.589L319.378 347.902L320.923 349.447L311.236 359.134L309.691 357.589ZM307.447 344.839L309.019 343.267L312.754 347.002C312.96 347.208 313.094 347.315 313.157 347.324C313.247 347.324 313.341 347.275 313.439 347.176C313.484 347.132 313.542 347.073 313.614 347.002C313.686 346.93 313.744 346.872 313.789 346.827C313.833 346.782 313.874 346.733 313.91 346.679C313.954 346.617 313.981 346.563 313.99 346.518C313.999 346.473 313.999 346.42 313.99 346.357C313.981 346.276 313.936 346.187 313.856 346.088C313.784 345.981 313.654 345.833 313.466 345.645C313.278 345.439 313.063 345.206 312.821 344.946C313.09 344.928 313.403 344.866 313.762 344.758C314.129 344.642 314.447 344.512 314.716 344.369C314.966 344.655 315.208 344.951 315.441 345.255C315.674 345.542 315.826 345.775 315.898 345.954C315.97 346.151 316.005 346.339 316.005 346.518C316.005 346.679 315.97 346.858 315.898 347.056C315.844 347.217 315.75 347.391 315.616 347.58C315.481 347.75 315.347 347.902 315.213 348.036C315.132 348.117 315.038 348.211 314.931 348.318C314.823 348.426 314.716 348.533 314.608 348.641C314.51 348.739 314.42 348.829 314.339 348.91C314.16 349.089 313.95 349.245 313.708 349.38C313.466 349.514 313.22 349.59 312.969 349.608C312.727 349.617 312.476 349.554 312.217 349.42C311.957 349.286 311.599 348.99 311.142 348.533L307.447 344.839ZM304.707 347.526L306.278 345.954C307.174 346.903 307.953 347.835 308.616 348.748C309.279 349.662 309.763 350.593 310.067 351.543C310.372 352.492 310.421 353.518 310.215 354.619C309.937 354.521 309.583 354.454 309.154 354.418C308.715 354.373 308.334 354.369 308.012 354.405C308.191 353.527 308.15 352.716 307.891 351.973C307.622 351.22 307.21 350.486 306.655 349.769C306.09 349.044 305.441 348.296 304.707 347.526ZM329.239 330.598L331.268 330.181C331.312 330.763 331.353 331.359 331.388 331.968C331.433 332.568 331.456 333.092 331.456 333.54L329.776 333.822C329.749 333.509 329.709 333.164 329.655 332.788C329.611 332.402 329.552 332.022 329.481 331.646C329.409 331.251 329.328 330.902 329.239 330.598ZM324.066 337.436L324.443 335.609C324.944 335.627 325.486 335.676 326.068 335.757C326.641 335.828 327.116 335.936 327.492 336.079L327.13 338.054C326.762 337.902 326.288 337.776 325.705 337.678C325.123 337.561 324.577 337.481 324.066 337.436ZM318.021 330.638L323.69 324.968L328.231 329.509L326.659 331.081L323.422 327.843L319.324 331.941L318.021 330.638ZM320.318 332.29L324.967 327.642L326.216 328.891L321.567 333.54L320.318 332.29ZM321.326 335.206L328.742 327.79L330.085 329.133L322.669 336.549L321.326 335.206ZM324.872 332.868L326.364 331.377L332.41 337.423C332.75 337.763 332.983 338.068 333.108 338.336C333.243 338.614 333.251 338.918 333.135 339.25C333.045 339.572 332.862 339.899 332.584 340.231C332.324 340.562 331.993 340.929 331.59 341.332C331.366 341.144 331.079 340.956 330.73 340.768C330.39 340.589 330.076 340.446 329.79 340.338C330.023 340.123 330.247 339.917 330.461 339.72C330.676 339.505 330.815 339.357 330.878 339.277C331.012 339.142 331.017 339.012 330.891 338.887L324.872 332.868ZM326.861 341.789C327.022 341.234 327.201 340.544 327.398 339.72C327.586 338.887 327.774 338.036 327.963 337.167L329.669 337.879C329.57 338.641 329.458 339.415 329.333 340.204C329.208 340.974 329.091 341.699 328.984 342.38L326.861 341.789ZM327.049 332.17C327.568 332.528 328.146 332.864 328.782 333.177C329.409 333.482 330.076 333.737 330.784 333.943C331.483 334.14 332.204 334.243 332.947 334.252C333.69 334.243 334.438 334.104 335.191 333.835C335.182 334.024 335.191 334.256 335.217 334.534C335.244 334.812 335.28 335.089 335.325 335.367C335.379 335.654 335.437 335.9 335.5 336.106C334.72 336.294 333.937 336.352 333.148 336.281C332.369 336.2 331.608 336.039 330.865 335.797C330.112 335.546 329.409 335.255 328.755 334.924C328.11 334.583 327.533 334.247 327.022 333.916L327.049 332.17ZM313.815 333.876L315.71 332.976C315.88 333.504 316.05 334.05 316.22 334.615C316.382 335.17 316.538 335.712 316.691 336.24C316.834 336.76 316.946 337.23 317.026 337.651L315.508 338.282C315.392 337.844 315.244 337.364 315.065 336.845C314.886 336.325 314.684 335.801 314.46 335.273C314.245 334.736 314.03 334.27 313.815 333.876ZM316.932 333.956L318.84 333.231C319.01 334.064 319.181 334.951 319.351 335.891C319.521 336.831 319.669 337.75 319.794 338.645C319.919 339.541 320 340.356 320.036 341.09L318.598 341.507C318.545 340.952 318.464 340.351 318.357 339.707C318.249 339.044 318.119 338.377 317.967 337.705C317.815 337.015 317.649 336.348 317.47 335.703C317.291 335.058 317.112 334.476 316.932 333.956ZM314.89 339.089L314.595 337.208C315.034 337.199 315.499 337.199 315.992 337.208C316.485 337.217 316.959 337.243 317.416 337.288C317.873 337.333 318.258 337.414 318.571 337.53L318.934 339.613C318.621 339.496 318.231 339.402 317.765 339.33C317.309 339.25 316.829 339.192 316.328 339.156C315.817 339.111 315.338 339.089 314.89 339.089ZM319.687 337.624L320.358 336.039C320.833 336.155 321.326 336.308 321.836 336.496C322.347 336.684 322.83 336.881 323.287 337.087C323.735 337.284 324.116 337.485 324.429 337.691L323.744 339.451C323.448 339.227 323.072 339.003 322.615 338.78C322.159 338.556 321.679 338.345 321.178 338.148C320.667 337.942 320.17 337.767 319.687 337.624ZM317.591 341.87C318.164 341.243 318.836 340.499 319.606 339.639C320.367 338.771 321.142 337.888 321.93 336.993L323.274 338.282C322.548 339.133 321.823 339.984 321.097 340.835C320.372 341.668 319.722 342.425 319.149 343.106L317.591 341.87ZM323.435 340.62L324.214 339.169C324.743 339.375 325.293 339.639 325.867 339.962C326.449 340.275 326.915 340.571 327.264 340.849L326.458 342.434C326.109 342.138 325.652 341.825 325.087 341.493C324.523 341.144 323.972 340.853 323.435 340.62ZM320.17 343.294L321.688 342.232C322.262 342.949 322.79 343.692 323.274 344.463C323.757 345.215 324.12 345.9 324.362 346.518C324.21 346.545 324.026 346.594 323.811 346.666C323.596 346.738 323.381 346.818 323.166 346.908C322.942 346.988 322.759 347.065 322.615 347.136C322.409 346.536 322.078 345.9 321.621 345.228C321.164 344.557 320.681 343.912 320.17 343.294ZM320.358 340.553L321.756 339.156L327.761 345.161L326.364 346.558L320.358 340.553ZM328.796 325.156L340.618 313.334L342.217 314.932L330.394 326.755L328.796 325.156ZM330.703 316.988L332.423 315.268L345.038 327.884L343.319 329.603L330.703 316.988ZM334.358 321.341L336.265 320.4C336.668 321.413 337.004 322.447 337.273 323.504C337.542 324.561 337.734 325.622 337.851 326.688C337.976 327.745 338.021 328.793 337.985 329.832C337.949 330.853 337.819 331.834 337.595 332.774C337.372 332.729 337.103 332.693 336.789 332.667C336.476 332.64 336.162 332.622 335.849 332.613C335.526 332.595 335.249 332.595 335.016 332.613C335.267 331.753 335.437 330.848 335.526 329.899C335.616 328.932 335.634 327.955 335.58 326.97C335.518 325.976 335.379 325.004 335.164 324.055C334.958 323.096 334.689 322.192 334.358 321.341ZM336.803 319.03C337.636 319.344 338.527 319.59 339.476 319.769C340.426 319.948 341.389 320.06 342.365 320.105C343.35 320.141 344.317 320.114 345.267 320.024C346.216 319.935 347.112 319.765 347.954 319.514C347.927 319.738 347.918 320.015 347.927 320.347C347.936 320.66 347.958 320.978 347.994 321.301C348.039 321.614 348.088 321.887 348.142 322.12C347.219 322.326 346.257 322.447 345.253 322.483C344.241 322.51 343.207 322.469 342.15 322.362C341.084 322.246 340.027 322.057 338.979 321.798C337.931 321.538 336.91 321.224 335.916 320.857L336.803 319.03ZM349.445 315.658L358.205 306.898L359.468 308.161L350.708 316.921L349.445 315.658ZM347.631 313.146L356.646 304.131L357.99 305.474L348.975 314.489L347.631 313.146ZM349.956 319.5L361.846 307.61L363.23 308.994L351.34 320.884L349.956 319.5ZM349.942 309.196L351.608 307.53L357.721 313.643L356.055 315.309L349.942 309.196ZM345.495 309.263L346.221 309.988L352.186 304.023L351.46 303.298L345.495 309.263ZM343.655 307.422L344.353 308.121L350.318 302.156L349.62 301.457L343.655 307.422ZM340.847 307.785L350.063 298.569L355.074 303.58L345.858 312.796L340.847 307.785ZM346.422 311.963L348.451 310.848C348.693 311.484 348.885 312.151 349.029 312.85C349.172 313.549 349.271 314.238 349.324 314.919C349.378 315.6 349.387 316.227 349.351 316.8C349.145 316.809 348.899 316.831 348.612 316.867C348.326 316.903 348.039 316.948 347.752 317.001C347.457 317.046 347.206 317.1 347 317.163C347.116 316.348 347.125 315.479 347.027 314.556C346.928 313.616 346.727 312.751 346.422 311.963Z" fill="black"/>
<path d="M155.751 260.006L159.531 263.786L158.016 265.301L154.236 261.521L155.751 260.006ZM164.788 263.417L166.379 265.008L157.202 274.185C156.845 274.541 156.646 274.8 156.603 274.962C156.57 275.114 156.671 275.309 156.909 275.547C156.96 275.598 157.045 275.683 157.164 275.802C157.282 275.92 157.414 276.052 157.558 276.196C157.702 276.34 157.834 276.472 157.953 276.591C158.071 276.709 158.161 276.799 158.22 276.858C158.39 277.028 158.589 277.083 158.818 277.023C159.047 276.964 159.365 276.765 159.773 276.425C160.197 276.086 160.761 275.589 161.466 274.936C161.5 275.157 161.555 275.399 161.631 275.662C161.716 275.933 161.809 276.196 161.911 276.451C162.021 276.697 162.132 276.909 162.242 277.087C161.376 277.851 160.63 278.419 160.002 278.793C159.382 279.174 158.827 279.34 158.334 279.289C157.842 279.255 157.354 278.996 156.871 278.513C156.803 278.445 156.688 278.33 156.527 278.169C156.366 278.008 156.192 277.834 156.005 277.647C155.827 277.469 155.662 277.303 155.509 277.151C155.356 276.998 155.242 276.883 155.165 276.807C154.682 276.323 154.372 275.869 154.236 275.445C154.1 275.038 154.147 274.609 154.376 274.16C154.614 273.701 155.029 273.175 155.623 272.581L164.788 263.417ZM161.58 260.21L163.171 261.801L151.563 273.409L149.972 271.818L161.58 260.21ZM167.091 269.514L166.824 271.996C166.086 271.852 165.322 271.682 164.533 271.487C163.752 271.283 162.967 271.067 162.178 270.838C161.406 270.609 160.659 270.371 159.938 270.125C160.057 269.904 160.167 269.616 160.269 269.259C160.379 268.895 160.464 268.581 160.524 268.318C161.228 268.53 161.966 268.716 162.738 268.878C163.511 269.039 164.27 269.17 165.017 269.272C165.772 269.382 166.463 269.463 167.091 269.514ZM149.527 265.314C149.976 265.56 150.503 265.84 151.105 266.154C151.716 266.459 152.365 266.777 153.052 267.108C153.748 267.431 154.436 267.753 155.114 268.076L154.032 269.743C153.108 269.395 152.17 269.026 151.22 268.636C150.278 268.254 149.416 267.902 148.636 267.579L149.527 265.314ZM170.477 270.787L181.779 282.089L180.354 283.515L169.051 272.212L170.477 270.787ZM176.319 274.541L177.91 276.132L165.959 288.084L164.368 286.493L176.319 274.541ZM168.657 281.415L169.421 283.247C168.699 283.375 167.953 283.443 167.18 283.451C166.417 283.468 165.64 283.43 164.851 283.336C164.079 283.243 163.315 283.099 162.56 282.904C161.805 282.726 161.088 282.501 160.409 282.229C160.452 282.017 160.494 281.771 160.536 281.491C160.579 281.211 160.609 280.927 160.626 280.638C160.642 280.35 160.647 280.099 160.638 279.887C161.266 280.193 161.924 280.46 162.611 280.689C163.307 280.91 164.007 281.092 164.711 281.236C165.424 281.372 166.111 281.457 166.773 281.491C167.452 281.525 168.08 281.499 168.657 281.415ZM171.024 283.884C170.956 284.461 170.944 285.084 170.986 285.755C171.045 286.425 171.143 287.117 171.279 287.829C171.432 288.542 171.627 289.246 171.864 289.942C172.11 290.63 172.386 291.287 172.692 291.915C172.471 291.898 172.212 291.894 171.915 291.902C171.618 291.928 171.325 291.958 171.037 291.991C170.748 292.042 170.494 292.093 170.273 292.144C169.993 291.474 169.764 290.761 169.586 290.006C169.399 289.259 169.255 288.496 169.153 287.715C169.068 286.934 169.03 286.158 169.039 285.386C169.056 284.622 169.124 283.884 169.242 283.171L171.024 283.884ZM167.906 278.474L167.129 279.251L173.303 285.424L174.079 284.647L167.906 278.474ZM169.739 276.642L168.975 277.405L175.148 283.578L175.912 282.815L169.739 276.642ZM169.395 274.007L178.623 283.235L173.723 288.135L164.495 278.907L169.395 274.007Z" fill="black"/>
<path d="M132.671 290.374L134.006 291.709L129.152 296.563L127.817 295.228L132.671 290.374ZM130.838 287.297L137.06 293.52L135.963 294.617L129.74 288.394L130.838 287.297ZM127.251 292.286L126.629 292.909L131.505 297.785L132.128 297.163L127.251 292.286ZM128.824 290.714L128.213 291.325L133.089 296.201L133.7 295.59L128.824 290.714ZM128.541 288.372L136.11 295.941L131.856 300.195L124.287 292.626L128.541 288.372ZM128.111 297.717L129.808 297.626C130.08 298.185 130.348 298.762 130.611 299.357C130.883 299.961 131.132 300.534 131.358 301.077C131.6 301.62 131.799 302.099 131.958 302.514L129.967 302.469C129.838 302.084 129.676 301.628 129.48 301.1C129.292 300.579 129.08 300.029 128.847 299.448C128.613 298.867 128.368 298.29 128.111 297.717ZM135.872 287.082L137.275 288.485L135.669 290.091L134.266 288.689L135.872 287.082ZM130.962 283.756L140.681 293.474L138.18 295.975L136.789 294.583L138.056 293.316L131.064 286.324L129.797 287.591L128.462 286.256L130.962 283.756ZM126.539 294.334L126.855 296.325C126.342 296.22 125.781 296.05 125.17 295.816C124.559 295.597 123.948 295.334 123.337 295.024C122.726 294.73 122.153 294.413 121.617 294.074C121.677 293.833 121.73 293.531 121.775 293.169C121.828 292.814 121.862 292.501 121.877 292.23C122.368 292.554 122.896 292.863 123.461 293.158C124.042 293.452 124.6 293.701 125.136 293.904C125.686 294.108 126.154 294.251 126.539 294.334ZM133.141 309.987L145.982 297.146L147.068 298.232L134.227 311.073L133.141 309.987ZM151.621 304.098L158.342 310.818L157.018 312.142L150.298 305.422L151.621 304.098ZM142.378 311.531L152.47 321.623L151.157 322.935L141.066 312.844L142.378 311.531ZM146.666 306.994L157.007 317.335L155.672 318.67L145.331 308.329L146.666 306.994ZM153.036 306.96L154.427 308.352C153.839 308.835 153.22 309.333 152.572 309.845C151.923 310.358 151.267 310.871 150.603 311.384C149.947 311.905 149.298 312.41 148.657 312.9C148.016 313.39 147.401 313.847 146.813 314.269C146.24 314.692 145.719 315.069 145.252 315.401L143.837 313.986C144.335 313.654 144.882 313.274 145.478 312.844C146.074 312.414 146.689 311.957 147.322 311.475C147.971 310.992 148.623 310.498 149.279 309.993C149.943 309.48 150.592 308.967 151.225 308.454C151.859 307.941 152.462 307.443 153.036 306.96ZM157.719 310.196L159.134 311.61C158.53 312.184 157.893 312.776 157.222 313.387C156.558 313.99 155.883 314.597 155.196 315.208C154.51 315.819 153.835 316.411 153.171 316.984C152.523 317.558 151.897 318.101 151.293 318.614C150.697 319.119 150.151 319.575 149.653 319.983L148.216 318.546C148.721 318.131 149.279 317.671 149.89 317.165C150.509 316.653 151.15 316.11 151.814 315.536C152.485 314.971 153.16 314.386 153.839 313.783C154.525 313.172 155.193 312.565 155.841 311.961C156.505 311.358 157.131 310.769 157.719 310.196Z" fill="black"/>
<path d="M90.7254 305.019L102.683 316.976L101.003 318.656L89.0461 306.699L90.7254 305.019ZM98.679 307.169L100.452 308.942L96.6637 312.731L94.8903 310.957L98.679 307.169ZM90.4299 310.957L91.8271 313.322C90.7971 313.797 89.7312 314.209 88.6296 314.558C87.5369 314.916 86.4621 315.203 85.4052 315.418C84.3572 315.624 83.381 315.74 82.4763 315.767C82.4674 315.525 82.4315 315.23 82.3688 314.881C82.3151 314.54 82.2569 314.195 82.1942 313.846C82.1315 313.497 82.0688 313.201 82.0061 312.959C82.857 313.004 83.7616 312.95 84.72 312.798C85.6783 312.646 86.6457 312.413 87.6219 312.099C88.6072 311.777 89.5432 311.396 90.4299 310.957ZM94.232 316.022L96.5294 317.003C96.395 317.729 96.2428 318.49 96.0726 319.287C95.9024 320.084 95.7143 320.881 95.5083 321.679C95.3113 322.467 95.0963 323.21 94.8634 323.909C94.6395 324.616 94.4066 325.234 94.1648 325.763L91.545 324.728C91.7868 324.236 92.0331 323.64 92.2839 322.942C92.5436 322.252 92.7855 321.517 93.0094 320.738C93.2512 319.959 93.4751 319.162 93.6811 318.347C93.8961 317.541 94.0797 316.766 94.232 316.022ZM106.471 316.251L118.334 328.114L116.763 329.686L104.899 317.823L106.471 316.251ZM102.629 325.145L109.629 332.145L108.178 333.596L101.178 326.596L102.629 325.145ZM99.4179 328.463L106.216 335.261L104.725 336.753L97.9266 329.955L99.4179 328.463ZM110.878 321.786L112.45 324.164C111.984 324.433 111.509 324.702 111.026 324.97C110.551 325.23 110.094 325.481 109.655 325.723C109.234 325.964 108.845 326.166 108.487 326.327L107.345 324.406C107.712 324.182 108.101 323.927 108.513 323.64C108.934 323.345 109.351 323.036 109.763 322.713C110.184 322.4 110.556 322.091 110.878 321.786ZM104.711 320.698L114.022 330.008L105.195 338.835L103.475 337.115L110.811 329.78L104.859 323.828L97.5236 331.164L95.8845 329.525L104.711 320.698ZM124.918 336.417C124.04 336.56 123.046 336.623 121.935 336.605C120.833 336.596 119.691 336.502 118.509 336.323C117.336 336.153 116.185 335.897 115.056 335.557C115.119 335.351 115.173 335.109 115.217 334.832C115.271 334.563 115.307 334.285 115.325 333.999C115.352 333.721 115.365 333.466 115.365 333.233C116.503 333.636 117.694 333.922 118.939 334.093C120.193 334.254 121.393 334.317 122.54 334.281C123.695 334.254 124.712 334.133 125.589 333.918L127.269 335.597C127.125 336.475 127.04 337.366 127.013 338.271C126.987 339.176 127.027 340.076 127.134 340.971C127.242 341.867 127.403 342.736 127.618 343.578C127.833 344.42 128.102 345.217 128.424 345.969C128.012 345.969 127.587 346.009 127.148 346.09C126.709 346.171 126.292 346.256 125.898 346.345C125.657 345.566 125.446 344.738 125.267 343.86C125.097 342.991 124.967 342.118 124.877 341.24C124.797 340.353 124.756 339.498 124.756 338.674C124.756 337.85 124.81 337.098 124.918 336.417ZM119.073 335.544L125.831 342.301L124.42 343.712L117.663 336.954L119.073 335.544ZM114.72 336.672L124.676 346.627L123.279 348.025L113.323 338.069L114.72 336.672ZM109.964 340.085L121.384 351.504L120 352.888L108.581 341.468L109.964 340.085ZM120.995 338.593L122.701 340.3L115.741 347.259L114.035 345.553L120.995 338.593ZM113.659 339.426L115.486 340.179C115.432 340.573 115.352 340.985 115.244 341.415C115.146 341.854 115.034 342.27 114.908 342.664C114.783 343.058 114.649 343.39 114.505 343.658L112.504 342.893C112.656 342.633 112.804 342.306 112.947 341.912C113.099 341.509 113.238 341.092 113.363 340.662C113.489 340.232 113.587 339.82 113.659 339.426ZM121.008 345.727L121.989 347.837C121.308 347.98 120.618 348.114 119.92 348.24C119.23 348.356 118.621 348.437 118.093 348.482L117.394 346.762C117.761 346.699 118.155 346.619 118.576 346.52C119.006 346.413 119.432 346.292 119.853 346.157C120.282 346.014 120.668 345.871 121.008 345.727ZM126.973 352.821L135.733 361.581L134.47 362.844L125.71 354.084L126.973 352.821ZM129.485 351.007L138.5 360.022L137.157 361.366L128.142 352.351L129.485 351.007ZM123.131 353.332L135.021 365.222L133.637 366.605L121.747 354.715L123.131 353.332ZM133.435 353.318L135.101 354.984L128.988 361.097L127.322 359.431L133.435 353.318ZM133.368 348.871L132.643 349.597L138.608 355.562L139.333 354.836L133.368 348.871ZM135.209 347.031L134.51 347.729L140.475 353.694L141.174 352.996L135.209 347.031ZM134.846 344.223L144.062 353.439L139.051 358.45L129.835 349.234L134.846 344.223ZM130.668 349.798L131.783 351.827C131.147 352.069 130.48 352.261 129.781 352.405C129.082 352.548 128.393 352.646 127.712 352.7C127.031 352.754 126.404 352.763 125.831 352.727C125.822 352.521 125.8 352.275 125.764 351.988C125.728 351.701 125.683 351.415 125.63 351.128C125.585 350.833 125.531 350.582 125.468 350.376C126.283 350.492 127.152 350.501 128.075 350.403C129.015 350.304 129.88 350.103 130.668 349.798Z" fill="black"/>
<path d="M316.067 78.8522L317.827 80.6122C316.752 81.669 315.691 82.6856 314.643 83.6619C313.604 84.6292 312.556 85.498 311.499 86.2683C310.451 87.0296 309.367 87.6476 308.248 88.1223C307.137 88.5881 305.959 88.8613 304.714 88.9419C303.487 89.0225 302.17 88.8523 300.764 88.4313C300.827 88.2253 300.876 87.9701 300.912 87.6656C300.939 87.37 300.957 87.0655 300.966 86.752C300.975 86.4564 300.952 86.1922 300.899 85.9593C302.188 86.3713 303.375 86.546 304.459 86.4833C305.552 86.4295 306.582 86.1967 307.549 85.7846C308.525 85.3637 309.475 84.7994 310.397 84.0918C311.32 83.3843 312.242 82.5782 313.165 81.6735C314.096 80.7779 315.064 79.8374 316.067 78.8522ZM309.605 78.6238L317.867 86.8863L316.241 88.512L307.979 80.2494L309.605 78.6238ZM316.98 85.9996L318.66 87.679L311.754 94.5846C311.468 94.8712 311.306 95.0772 311.27 95.2026C311.244 95.319 311.311 95.4579 311.472 95.6191C311.508 95.6549 311.566 95.7131 311.647 95.7937C311.727 95.8744 311.817 95.9639 311.915 96.0624C312.014 96.161 312.103 96.2505 312.184 96.3311C312.274 96.4207 312.336 96.4834 312.372 96.5192C312.489 96.6357 312.627 96.667 312.789 96.6133C312.95 96.5595 313.192 96.3983 313.514 96.1296C313.837 95.8609 314.289 95.4534 314.871 94.907C314.907 95.1399 314.965 95.3862 315.046 95.646C315.135 95.9147 315.234 96.1834 315.341 96.4521C315.458 96.7118 315.574 96.9357 315.691 97.1238C314.92 97.8045 314.258 98.2971 313.702 98.6017C313.156 98.8972 312.672 99.0137 312.251 98.951C311.821 98.8972 311.4 98.6644 310.988 98.2524C310.917 98.1807 310.818 98.0822 310.693 97.9568C310.567 97.8314 310.433 97.697 310.29 97.5537C310.146 97.4104 310.012 97.2761 309.887 97.1507C309.77 97.0342 309.681 96.9447 309.618 96.882C309.179 96.4431 308.897 96.0266 308.772 95.6325C308.646 95.2563 308.686 94.8488 308.892 94.4099C309.107 93.98 309.506 93.474 310.088 92.8918L316.98 85.9996ZM322.354 102.498L324.02 104.164L320.258 107.926L318.593 106.26L322.354 102.498ZM317.666 96.6805C318.319 97.3343 319.063 98.0777 319.896 98.9107C320.738 99.7347 321.633 100.612 322.583 101.544C323.541 102.466 324.522 103.42 325.525 104.406C326.537 105.382 327.536 106.354 328.521 107.321L327.164 108.517C326.17 107.594 325.171 106.658 324.168 105.709C323.174 104.768 322.198 103.846 321.239 102.941C320.299 102.037 319.399 101.181 318.539 100.375C317.697 99.569 316.94 98.839 316.268 98.1852L317.666 96.6805ZM326.291 97.9433L327.191 100.026C326.394 99.9989 325.583 99.9317 324.759 99.8243C323.953 99.7168 323.232 99.5869 322.596 99.4346L321.938 97.6209C322.377 97.7015 322.851 97.7732 323.362 97.8359C323.89 97.8986 324.405 97.9389 324.907 97.9568C325.418 97.9657 325.879 97.9613 326.291 97.9433ZM328.333 101.625L329.273 103.855C328.333 103.738 327.357 103.568 326.345 103.344C325.341 103.129 324.361 102.892 323.402 102.632C322.444 102.372 321.566 102.104 320.769 101.826L320.205 99.9452C321.02 100.223 321.911 100.478 322.878 100.711C323.855 100.953 324.817 101.154 325.767 101.316C326.725 101.468 327.581 101.571 328.333 101.625ZM320.581 96.4521L322.677 96.667C322.892 97.1865 323.098 97.7418 323.295 98.333C323.51 98.9241 323.702 99.5018 323.873 100.066C324.052 100.621 324.195 101.114 324.302 101.544L322.072 101.436C321.992 101.015 321.866 100.514 321.696 99.9317C321.544 99.3495 321.369 98.7539 321.172 98.1449C320.984 97.5448 320.787 96.9805 320.581 96.4521ZM323.04 106.757L325.176 107.415C325.355 107.935 325.521 108.494 325.673 109.094C325.834 109.686 325.977 110.268 326.103 110.841C326.246 111.414 326.358 111.911 326.439 112.332L324.155 111.741C324.11 111.32 324.029 110.819 323.913 110.236C323.787 109.663 323.649 109.068 323.496 108.45C323.362 107.832 323.21 107.267 323.04 106.757ZM318.848 101.141L319.788 103.264C319.26 103.255 318.682 103.196 318.055 103.089C317.437 102.99 316.824 102.861 316.215 102.699C315.614 102.547 315.055 102.381 314.535 102.202C314.535 102.005 314.526 101.754 314.508 101.45C314.49 101.163 314.464 100.868 314.428 100.563C314.392 100.277 314.352 100.03 314.307 99.8243C315.041 100.165 315.82 100.46 316.644 100.711C317.468 100.962 318.203 101.105 318.848 101.141ZM326.68 104.056L328.669 104.836C328.74 105.427 328.794 106.063 328.83 106.743C328.875 107.433 328.897 108.1 328.897 108.745C328.897 109.39 328.866 109.95 328.803 110.424L326.627 109.592C326.707 109.153 326.757 108.62 326.774 107.993C326.81 107.366 326.815 106.707 326.788 106.018C326.77 105.319 326.734 104.665 326.68 104.056ZM328.306 93.0799L330.832 95.6057L329.556 96.882L327.03 94.3562L328.306 93.0799ZM332.498 94.907L334.097 96.5058L330.671 99.9317C330.456 100.147 330.353 100.321 330.362 100.456C330.389 100.59 330.536 100.792 330.805 101.06C330.868 101.123 330.971 101.226 331.114 101.369C331.257 101.513 331.414 101.669 331.584 101.84C331.754 102.01 331.916 102.171 332.068 102.323C332.22 102.475 332.332 102.587 332.404 102.659C332.556 102.811 332.69 102.901 332.807 102.928C332.941 102.955 333.098 102.914 333.277 102.807C333.465 102.69 333.711 102.498 334.016 102.229C334.07 102.498 334.182 102.825 334.352 103.21C334.531 103.586 334.71 103.909 334.889 104.177C334.334 104.607 333.85 104.894 333.438 105.037C333.035 105.171 332.659 105.171 332.31 105.037C331.96 104.903 331.58 104.63 331.168 104.218C331.096 104.146 330.993 104.043 330.859 103.909C330.733 103.783 330.59 103.64 330.429 103.479C330.268 103.317 330.102 103.152 329.932 102.981C329.77 102.82 329.623 102.672 329.488 102.538C329.363 102.413 329.269 102.319 329.206 102.256C328.66 101.71 328.297 101.23 328.118 100.818C327.948 100.415 327.939 100.021 328.091 99.6362C328.261 99.251 328.584 98.8211 329.058 98.3464L332.498 94.907ZM321.696 92.3275C322.26 92.8022 322.919 93.3441 323.671 93.9531C324.441 94.5622 325.252 95.2026 326.103 95.8744C326.963 96.5551 327.818 97.2313 328.669 97.903L327.446 99.2062C326.613 98.5882 325.771 97.9613 324.92 97.3253C324.079 96.6805 323.268 96.0669 322.489 95.4847C321.727 94.9026 321.029 94.3741 320.393 93.8994L321.696 92.3275ZM336.112 99.8108L336.179 102.135C335.561 101.893 334.921 101.602 334.258 101.262C333.613 100.921 332.964 100.559 332.31 100.174C331.665 99.7795 331.051 99.3899 330.469 99.0047C330.603 98.8166 330.733 98.5614 330.859 98.2389C331.002 97.9165 331.105 97.6343 331.168 97.3925C331.723 97.715 332.296 98.0374 332.887 98.3598C333.479 98.6823 334.052 98.9689 334.607 99.2197C335.162 99.4705 335.664 99.6675 336.112 99.8108ZM328.83 91.2393L330.321 92.7306L325.753 97.2985L324.155 95.9147L328.83 91.2393ZM325.646 90.0436L327.03 91.4274L323.335 95.122L321.83 93.8591L325.646 90.0436ZM338.503 106.26L339.766 108.248C339.139 108.732 338.494 109.171 337.832 109.565C337.178 109.968 336.506 110.281 335.816 110.505C335.136 110.72 334.441 110.796 333.734 110.733L333.183 108.355C333.792 108.409 334.388 108.351 334.97 108.181C335.57 108.011 336.161 107.76 336.743 107.428C337.343 107.097 337.93 106.707 338.503 106.26ZM346.766 114.495L347.881 116.954C347.218 117.151 346.533 117.352 345.825 117.558C345.127 117.756 344.446 117.935 343.783 118.096C343.138 118.257 342.547 118.374 342.01 118.445L341.244 116.443C341.781 116.318 342.377 116.152 343.031 115.946C343.694 115.749 344.348 115.525 344.992 115.275C345.646 115.015 346.237 114.755 346.766 114.495ZM345.261 108.046L346.134 108.92L341.916 113.138C341.584 113.47 341.257 113.868 340.935 114.334C340.622 114.809 340.344 115.337 340.102 115.919C339.86 116.502 339.672 117.138 339.538 117.827C339.412 118.526 339.359 119.269 339.377 120.057C339.394 120.846 339.502 121.679 339.699 122.556C339.914 123.434 340.241 124.352 340.68 125.311C340.438 125.302 340.156 125.315 339.833 125.351C339.511 125.387 339.188 125.431 338.866 125.485C338.553 125.548 338.279 125.615 338.046 125.687C337.661 124.782 337.388 123.891 337.227 123.013C337.066 122.135 336.981 121.298 336.972 120.501C336.981 119.704 337.043 118.96 337.16 118.271C337.276 117.581 337.424 116.967 337.603 116.43C337.791 115.902 337.979 115.463 338.167 115.113C337.827 115.328 337.393 115.53 336.864 115.718C336.345 115.915 335.745 116.076 335.064 116.202C334.401 116.327 333.68 116.394 332.901 116.403C332.131 116.421 331.311 116.354 330.442 116.202C329.582 116.058 328.705 115.807 327.809 115.449C327.863 115.252 327.908 115.001 327.943 114.697C327.979 114.392 328.006 114.079 328.024 113.756C328.042 113.434 328.046 113.161 328.037 112.937C329.157 113.447 330.227 113.783 331.248 113.944C332.287 114.106 333.255 114.142 334.15 114.052C335.046 113.962 335.87 113.783 336.622 113.515C337.393 113.246 338.069 112.928 338.651 112.561C339.251 112.193 339.757 111.804 340.169 111.392L344.388 107.173L345.261 108.046ZM345.973 125.821L354.733 134.581L353.47 135.844L344.71 127.084L345.973 125.821ZM348.485 124.007L357.5 133.022L356.157 134.366L347.142 125.351L348.485 124.007ZM342.131 126.332L354.021 138.222L352.637 139.605L340.747 127.715L342.131 126.332ZM352.435 126.318L354.101 127.984L347.988 134.097L346.322 132.431L352.435 126.318ZM352.368 121.871L351.643 122.597L357.608 128.562L358.333 127.836L352.368 121.871ZM354.209 120.031L353.51 120.729L359.475 126.694L360.174 125.996L354.209 120.031ZM353.846 117.223L363.062 126.439L358.051 131.45L348.835 122.234L353.846 117.223ZM349.668 122.798L350.783 124.827C350.147 125.069 349.48 125.261 348.781 125.405C348.082 125.548 347.393 125.646 346.712 125.7C346.031 125.754 345.404 125.763 344.831 125.727C344.822 125.521 344.8 125.275 344.764 124.988C344.728 124.701 344.683 124.415 344.63 124.128C344.585 123.833 344.531 123.582 344.468 123.376C345.283 123.492 346.152 123.501 347.075 123.403C348.015 123.304 348.88 123.103 349.668 122.798Z" fill="black"/>
<path d="M213.008 125.194H228.992V127.21H213.008V125.194ZM216.968 132.934H225.014V134.608H216.968V132.934ZM216.59 135.796H225.41V137.524H216.59V135.796ZM219.92 133.762H221.954V140.098H219.92V133.762ZM213.692 128.56H226.724V130.54H215.852V140.566H213.692V128.56ZM226.112 128.56H228.326V138.406C228.326 138.922 228.254 139.318 228.11 139.594C227.966 139.882 227.714 140.098 227.354 140.242C226.982 140.398 226.526 140.488 225.986 140.512C225.458 140.548 224.828 140.566 224.096 140.566C224.048 140.29 223.952 139.978 223.808 139.63C223.676 139.282 223.538 138.982 223.394 138.73C223.694 138.742 224 138.754 224.312 138.766C224.624 138.778 224.906 138.784 225.158 138.784C225.422 138.772 225.596 138.766 225.68 138.766C225.848 138.766 225.962 138.742 226.022 138.694C226.082 138.634 226.112 138.538 226.112 138.406V128.56ZM217.652 131.026L219.362 130.522C219.578 130.81 219.776 131.14 219.956 131.512C220.148 131.884 220.292 132.208 220.388 132.484L218.588 133.078C218.516 132.79 218.39 132.454 218.21 132.07C218.03 131.686 217.844 131.338 217.652 131.026ZM222.728 130.558L224.546 131.062C224.306 131.494 224.066 131.914 223.826 132.322C223.598 132.718 223.376 133.066 223.16 133.366L221.63 132.898C221.762 132.682 221.894 132.436 222.026 132.16C222.17 131.884 222.302 131.608 222.422 131.332C222.542 131.056 222.644 130.798 222.728 130.558ZM219.848 123.826H222.206V129.964H219.848V123.826Z" fill="black"/>
<path d="M215.744 79.336L217.792 79.832C217.536 80.6427 217.227 81.4373 216.864 82.216C216.501 82.984 216.112 83.704 215.696 84.376C215.28 85.048 214.848 85.6293 214.4 86.12C214.272 86.0133 214.096 85.8853 213.872 85.736C213.648 85.5867 213.419 85.4427 213.184 85.304C212.96 85.1547 212.763 85.0373 212.592 84.952C213.051 84.5147 213.477 83.9973 213.872 83.4C214.277 82.8027 214.635 82.1573 214.944 81.464C215.264 80.7707 215.531 80.0613 215.744 79.336ZM216.192 81.416H225.984V83.288H215.232L216.192 81.416ZM212.784 86.616H227.248V88.552H212.784V86.616ZM219.008 82.248H221.008V94.44H219.008V82.248Z" fill="black"/>
<path d="M301.988 224.524H314.192V226.522H301.988V224.524ZM300.602 215.722H315.452V227.512H313.256V217.72H302.708V227.548H300.602V215.722ZM308.738 216.55H310.808V219.79C310.808 220.018 310.826 220.162 310.862 220.222C310.91 220.27 311.024 220.294 311.204 220.294C311.24 220.294 311.318 220.294 311.438 220.294C311.57 220.294 311.696 220.294 311.816 220.294C311.948 220.294 312.044 220.294 312.104 220.294C312.212 220.294 312.29 220.276 312.338 220.24C312.398 220.192 312.44 220.102 312.464 219.97C312.5 219.838 312.524 219.634 312.536 219.358C312.656 219.454 312.818 219.556 313.022 219.664C313.238 219.76 313.46 219.85 313.688 219.934C313.928 220.006 314.144 220.06 314.336 220.096C314.252 220.648 314.132 221.074 313.976 221.374C313.82 221.674 313.61 221.884 313.346 222.004C313.094 222.124 312.764 222.184 312.356 222.184C312.26 222.184 312.146 222.184 312.014 222.184C311.882 222.184 311.738 222.184 311.582 222.184C311.438 222.184 311.3 222.184 311.168 222.184C311.036 222.184 310.928 222.184 310.844 222.184C310.268 222.184 309.824 222.112 309.512 221.968C309.212 221.824 309.008 221.578 308.9 221.23C308.792 220.882 308.738 220.408 308.738 219.808V216.55ZM299.882 211.69H316.064V213.778H299.882V211.69ZM304.796 213.274H306.92V216.874H304.796V213.274ZM308.738 213.274H310.916V216.874H308.738V213.274ZM304.904 216.136H306.92V217.918C306.92 218.518 306.842 219.136 306.686 219.772C306.53 220.408 306.236 221.014 305.804 221.59C305.372 222.166 304.742 222.67 303.914 223.102C303.818 222.97 303.674 222.814 303.482 222.634C303.29 222.454 303.086 222.28 302.87 222.112C302.666 221.944 302.492 221.818 302.348 221.734C303.104 221.35 303.662 220.942 304.022 220.51C304.394 220.078 304.634 219.634 304.742 219.178C304.85 218.722 304.904 218.284 304.904 217.864V216.136Z" fill="black"/>
<path d="M347.928 224.008H358.488V225.688H347.928V224.008ZM347.928 221.448H358.52V223.032H347.928V221.448ZM346.584 215.672H359.48V226.424H357.608V217.384H348.376V226.424H346.584V215.672ZM353.352 213.512H355.192V218.568C355.192 218.803 355.208 218.947 355.24 219C355.283 219.053 355.368 219.08 355.496 219.08C355.528 219.08 355.576 219.08 355.64 219.08C355.704 219.08 355.773 219.08 355.848 219.08C355.923 219.08 355.992 219.08 356.056 219.08C356.131 219.08 356.184 219.08 356.216 219.08C356.291 219.08 356.349 219.059 356.392 219.016C356.445 218.973 356.483 218.888 356.504 218.76C356.525 218.632 356.541 218.445 356.552 218.2C356.733 218.328 356.973 218.451 357.272 218.568C357.581 218.685 357.859 218.776 358.104 218.84C358.019 219.523 357.848 219.992 357.592 220.248C357.336 220.504 356.941 220.632 356.408 220.632C356.333 220.632 356.237 220.632 356.12 220.632C356.013 220.632 355.896 220.632 355.768 220.632C355.651 220.632 355.539 220.632 355.432 220.632C355.325 220.632 355.235 220.632 355.16 220.632C354.659 220.632 354.28 220.573 354.024 220.456C353.768 220.328 353.592 220.115 353.496 219.816C353.4 219.507 353.352 219.091 353.352 218.568V213.512ZM350.312 213.512H352.04V217.016C352.04 217.667 351.965 218.248 351.816 218.76C351.677 219.272 351.4 219.72 350.984 220.104C350.568 220.488 349.944 220.808 349.112 221.064C348.995 220.861 348.829 220.632 348.616 220.376C348.403 220.12 348.205 219.907 348.024 219.736C348.675 219.544 349.165 219.315 349.496 219.048C349.827 218.781 350.045 218.477 350.152 218.136C350.259 217.784 350.312 217.405 350.312 217V213.512ZM345.864 212.312H360.168V214.152H345.864V212.312Z" fill="black"/>
<path d="M213.008 301.984H218.354V304.126H213.008V301.984ZM221.81 298.006H224.06V310.984C224.06 311.488 224.102 311.812 224.186 311.956C224.27 312.088 224.48 312.154 224.816 312.154C224.888 312.154 225.008 312.154 225.176 312.154C225.344 312.154 225.53 312.154 225.734 312.154C225.938 312.154 226.124 312.154 226.292 312.154C226.46 312.154 226.586 312.154 226.67 312.154C226.91 312.154 227.09 312.052 227.21 311.848C227.33 311.644 227.414 311.278 227.462 310.75C227.522 310.21 227.57 309.46 227.606 308.5C227.786 308.632 227.996 308.764 228.236 308.896C228.488 309.028 228.74 309.148 228.992 309.256C229.244 309.352 229.472 309.424 229.676 309.472C229.604 310.624 229.478 311.554 229.298 312.262C229.13 312.97 228.854 313.48 228.47 313.792C228.098 314.116 227.57 314.278 226.886 314.278C226.79 314.278 226.628 314.278 226.4 314.278C226.172 314.278 225.926 314.278 225.662 314.278C225.41 314.278 225.176 314.278 224.96 314.278C224.744 314.278 224.582 314.278 224.474 314.278C223.79 314.278 223.25 314.176 222.854 313.972C222.47 313.78 222.2 313.444 222.044 312.964C221.888 312.472 221.81 311.806 221.81 310.966V298.006ZM217.274 298.006H219.524V314.422H217.274V298.006ZM227.75 300.688L229.316 302.632C228.692 303.052 228.032 303.472 227.336 303.892C226.64 304.3 225.932 304.702 225.212 305.098C224.504 305.482 223.808 305.842 223.124 306.178C223.052 305.938 222.926 305.656 222.746 305.332C222.566 304.996 222.404 304.714 222.26 304.486C222.908 304.138 223.562 303.748 224.222 303.316C224.882 302.884 225.512 302.44 226.112 301.984C226.724 301.528 227.27 301.096 227.75 300.688ZM212.36 310.138C212.852 309.994 213.422 309.82 214.07 309.616C214.718 309.4 215.402 309.166 216.122 308.914C216.842 308.65 217.556 308.392 218.264 308.14L218.678 310.084C217.778 310.492 216.854 310.894 215.906 311.29C214.97 311.686 214.112 312.046 213.332 312.37L212.36 310.138Z" fill="black"/>
<path d="M213.624 350.408H228.392V352.344H213.624V350.408ZM220.008 347.864H222.024V356.2C222.024 356.744 221.949 357.165 221.8 357.464C221.661 357.763 221.395 357.987 221 358.136C220.616 358.285 220.147 358.381 219.592 358.424C219.037 358.467 218.392 358.483 217.656 358.472C217.624 358.28 217.56 358.061 217.464 357.816C217.368 357.581 217.267 357.341 217.16 357.096C217.053 356.861 216.947 356.659 216.84 356.488C217.213 356.499 217.581 356.509 217.944 356.52C218.317 356.531 218.648 356.536 218.936 356.536C219.235 356.536 219.443 356.536 219.56 356.536C219.731 356.536 219.848 356.509 219.912 356.456C219.976 356.403 220.008 356.307 220.008 356.168V347.864ZM215.304 344.392H225.384V346.28H215.304V344.392ZM224.744 344.392H225.256L225.704 344.28L227.16 345.384C226.669 345.907 226.104 346.429 225.464 346.952C224.835 347.475 224.179 347.976 223.496 348.456C222.813 348.925 222.147 349.331 221.496 349.672C221.4 349.533 221.277 349.379 221.128 349.208C220.979 349.037 220.824 348.872 220.664 348.712C220.504 348.541 220.36 348.397 220.232 348.28C220.808 347.992 221.389 347.645 221.976 347.24C222.573 346.835 223.117 346.419 223.608 345.992C224.099 345.565 224.477 345.176 224.744 344.824V344.392Z" fill="black"/>
<path d="M187.598 386.18H195.445V388.612H187.598V386.18ZM193.564 386.18H196.3C196.427 387.662 196.591 389.119 196.794 390.55C197.009 391.981 197.307 393.343 197.687 394.635C198.08 395.914 198.574 397.08 199.169 398.131C199.777 399.17 200.531 400.05 201.43 400.772C201.215 400.899 200.968 401.07 200.689 401.285C200.41 401.513 200.138 401.747 199.872 401.988C199.619 402.229 199.397 402.444 199.207 402.634C198.295 401.798 197.529 400.816 196.908 399.689C196.287 398.549 195.781 397.314 195.388 395.984C195.008 394.654 194.71 393.261 194.495 391.804C194.28 390.347 194.115 388.878 194.001 387.396H193.564V386.18ZM188.092 390.265L190.733 390.626C190.543 391.728 190.302 392.849 190.011 393.989C189.732 395.116 189.384 396.218 188.966 397.295C188.548 398.359 188.054 399.36 187.484 400.297C186.914 401.222 186.243 402.032 185.47 402.729C185.331 402.552 185.141 402.355 184.9 402.14C184.672 401.937 184.431 401.735 184.178 401.532C183.937 401.342 183.722 401.184 183.532 401.057C184.254 400.449 184.875 399.727 185.394 398.891C185.913 398.042 186.35 397.137 186.705 396.174C187.06 395.199 187.345 394.211 187.56 393.21C187.788 392.197 187.965 391.215 188.092 390.265ZM205.553 399.138H217.352V401.437H205.553V399.138ZM205.515 393.324H217.352V395.585H205.515V393.324ZM204.337 387.624H218.72V402.653H216.288V389.942H206.636V402.672H204.337V387.624ZM209.904 384.774L212.887 385.173C212.596 385.882 212.285 386.573 211.956 387.244C211.627 387.915 211.329 388.492 211.063 388.973L208.802 388.517C208.941 388.15 209.081 387.751 209.22 387.32C209.372 386.889 209.505 386.452 209.619 386.009C209.746 385.566 209.841 385.154 209.904 384.774ZM223.128 390.759H237.91V393.001H223.128V390.759ZM221.874 399.651H239.183V401.893H221.874V399.651ZM229.246 384.888H231.697V401.19H229.246V384.888ZM243.477 397.181H255.865V398.967H243.477V397.181ZM243.971 394.122H256.72V396.022H243.971V394.122ZM241.121 400.259H257.936V402.216H241.121V400.259ZM248.398 392.963H250.754V401.608H248.398V392.963ZM245.206 389.866V390.892H253.642V389.866H245.206ZM245.206 387.263V388.251H253.642V387.263H245.206ZM242.964 385.534H255.998V392.621H242.964V385.534ZM243.952 392.431L246.175 393.077C245.896 393.698 245.561 394.306 245.168 394.901C244.775 395.496 244.357 396.054 243.914 396.573C243.471 397.092 243.034 397.542 242.603 397.922C242.451 397.783 242.261 397.624 242.033 397.447C241.805 397.27 241.571 397.099 241.33 396.934C241.089 396.757 240.874 396.617 240.684 396.516C241.343 396.022 241.963 395.414 242.546 394.692C243.141 393.957 243.61 393.204 243.952 392.431Z" fill="black"/>
<path d="M182.779 41.127L200.012 38.505L200.392 40.861L183.159 43.426L182.779 41.127ZM188.156 34.249H190.645V47.359C190.645 47.777 190.677 48.0937 190.74 48.309C190.816 48.5117 190.955 48.651 191.158 48.727C191.361 48.7903 191.671 48.822 192.089 48.822C192.216 48.822 192.406 48.822 192.659 48.822C192.912 48.822 193.197 48.822 193.514 48.822C193.831 48.822 194.147 48.822 194.464 48.822C194.781 48.822 195.066 48.822 195.319 48.822C195.585 48.822 195.781 48.822 195.908 48.822C196.339 48.822 196.662 48.7207 196.877 48.518C197.092 48.3027 197.251 47.9163 197.352 47.359C197.453 46.789 197.542 45.9593 197.618 44.87C197.808 45.022 198.042 45.174 198.321 45.326C198.612 45.4653 198.897 45.592 199.176 45.706C199.467 45.82 199.721 45.9023 199.936 45.953C199.835 47.2197 199.664 48.233 199.423 48.993C199.182 49.7403 198.802 50.2787 198.283 50.608C197.764 50.9373 197.029 51.102 196.079 51.102C195.952 51.102 195.743 51.102 195.452 51.102C195.173 51.102 194.857 51.102 194.502 51.102C194.16 51.102 193.812 51.102 193.457 51.102C193.102 51.102 192.786 51.102 192.507 51.102C192.228 51.102 192.026 51.102 191.899 51.102C190.936 51.102 190.183 50.988 189.638 50.76C189.093 50.5447 188.707 50.1647 188.479 49.62C188.264 49.0753 188.156 48.309 188.156 47.321V34.249ZM214.699 43.844L216.713 42.951C217.08 43.4323 217.454 43.9643 217.834 44.547C218.214 45.1297 218.562 45.6997 218.879 46.257C219.196 46.8143 219.443 47.321 219.62 47.777L217.435 48.803C217.27 48.3597 217.042 47.853 216.751 47.283C216.46 46.713 216.13 46.124 215.763 45.516C215.408 44.908 215.054 44.3507 214.699 43.844ZM209.284 33.888H211.621V40.766H209.284V33.888ZM201.988 39.968H219.126V42.153H201.988V39.968ZM203.888 35.845H217.511V38.011H203.888V35.845ZM211.602 41.26H213.996V49.145C213.996 49.715 213.933 50.1647 213.806 50.494C213.679 50.836 213.426 51.0957 213.046 51.273C212.679 51.4503 212.235 51.5643 211.716 51.615C211.209 51.6657 210.608 51.691 209.911 51.691C209.873 51.349 209.778 50.9563 209.626 50.513C209.474 50.0823 209.322 49.7087 209.17 49.392C209.588 49.4047 210.006 49.4173 210.424 49.43C210.842 49.43 211.114 49.4237 211.241 49.411C211.38 49.411 211.475 49.392 211.526 49.354C211.577 49.3033 211.602 49.221 211.602 49.107V41.26ZM204.097 43.103L206.415 43.692C206.174 44.2873 205.883 44.8953 205.541 45.516C205.199 46.124 204.832 46.7067 204.439 47.264C204.046 47.8087 203.635 48.29 203.204 48.708C202.976 48.5053 202.678 48.2837 202.311 48.043C201.944 47.7897 201.633 47.587 201.38 47.435C201.785 47.0677 202.159 46.6433 202.501 46.162C202.856 45.668 203.172 45.155 203.451 44.623C203.73 44.091 203.945 43.5843 204.097 43.103ZM207.498 40.842H209.816V43.027C209.816 43.6983 209.772 44.4203 209.683 45.193C209.594 45.953 209.411 46.7257 209.132 47.511C208.853 48.2837 208.435 49.0437 207.878 49.791C207.333 50.5257 206.599 51.2033 205.674 51.824C205.56 51.6467 205.402 51.4503 205.199 51.235C204.996 51.0197 204.781 50.8107 204.553 50.608C204.338 50.4053 204.135 50.2407 203.945 50.114C204.743 49.5947 205.376 49.031 205.845 48.423C206.326 47.815 206.681 47.1943 206.909 46.561C207.15 45.9277 207.308 45.307 207.384 44.699C207.46 44.0783 207.498 43.502 207.498 42.97V40.842ZM229.424 36.035C228.905 36.757 228.246 37.5043 227.448 38.277C226.663 39.0497 225.789 39.7907 224.826 40.5C223.876 41.2093 222.882 41.8427 221.843 42.4C221.742 42.21 221.609 42.001 221.444 41.773C221.292 41.545 221.121 41.3233 220.931 41.108C220.754 40.8927 220.583 40.7027 220.418 40.538C221.507 40.0187 222.552 39.379 223.553 38.619C224.554 37.8463 225.447 37.042 226.232 36.206C227.03 35.37 227.663 34.5657 228.132 33.793H230.507C231.026 34.515 231.596 35.2053 232.217 35.864C232.838 36.5227 233.503 37.1307 234.212 37.688C234.921 38.2453 235.65 38.7457 236.397 39.189C237.144 39.6323 237.898 40.006 238.658 40.31C238.367 40.6013 238.094 40.9307 237.841 41.298C237.588 41.6653 237.353 42.02 237.138 42.362C236.416 41.982 235.681 41.545 234.934 41.051C234.199 40.557 233.49 40.0313 232.806 39.474C232.122 38.904 231.489 38.3277 230.906 37.745C230.323 37.1623 229.829 36.5923 229.424 36.035ZM224.674 39.55H234.231V41.545H224.674V39.55ZM222.394 43.426H236.473V45.402H222.394V43.426ZM221.444 49.202H237.594V51.159H221.444V49.202ZM228.189 40.348H230.602V50.19H228.189V40.348ZM223.591 46.124L225.415 45.364C225.656 45.6807 225.89 46.029 226.118 46.409C226.359 46.789 226.574 47.1627 226.764 47.53C226.954 47.8973 227.093 48.2267 227.182 48.518L225.225 49.392C225.149 49.1007 225.022 48.765 224.845 48.385C224.668 47.9923 224.471 47.5997 224.256 47.207C224.041 46.8143 223.819 46.4533 223.591 46.124ZM233.243 45.383L235.428 46.181C235.048 46.7637 234.655 47.3463 234.25 47.929C233.845 48.499 233.471 48.9867 233.129 49.392L231.419 48.67C231.634 48.366 231.856 48.0303 232.084 47.663C232.312 47.283 232.527 46.8967 232.73 46.504C232.933 46.0987 233.104 45.725 233.243 45.383ZM242.477 46.181H254.865V47.967H242.477V46.181ZM242.971 43.122H255.72V45.022H242.971V43.122ZM240.121 49.259H256.936V51.216H240.121V49.259ZM247.398 41.963H249.754V50.608H247.398V41.963ZM244.206 38.866V39.892H252.642V38.866H244.206ZM244.206 36.263V37.251H252.642V36.263H244.206ZM241.964 34.534H254.998V41.621H241.964V34.534ZM242.952 41.431L245.175 42.077C244.896 42.6977 244.561 43.3057 244.168 43.901C243.775 44.4963 243.357 45.0537 242.914 45.573C242.471 46.0923 242.034 46.542 241.603 46.922C241.451 46.7827 241.261 46.6243 241.033 46.447C240.805 46.2697 240.571 46.0987 240.33 45.934C240.089 45.7567 239.874 45.6173 239.684 45.516C240.343 45.022 240.963 44.414 241.546 43.692C242.141 42.9573 242.61 42.2037 242.952 41.431Z" fill="black"/>
<path d="M204.499 198.166H220.522V200.749H204.499V198.166ZM205.948 204.928H218.842V207.49H205.948V204.928ZM203.323 212.047H221.635V214.609H203.323V212.047ZM224.407 197.011H232.555V198.901H224.407V197.011ZM224.071 206.671H242.908V208.645H224.071V206.671ZM224.638 200.287H232.177V202.156H224.638V200.287ZM229.237 213.349H239.464V215.239H229.237V213.349ZM223.987 203.941C224.743 203.899 225.597 203.85 226.549 203.794C227.515 203.738 228.53 203.682 229.594 203.626C230.658 203.556 231.722 203.486 232.786 203.416L232.765 205.327C231.239 205.439 229.713 205.551 228.187 205.663C226.661 205.761 225.317 205.852 224.155 205.936L223.987 203.941ZM227.326 197.746H229.699V204.298L227.326 204.592V197.746ZM236.839 196.15L239.611 196.381C239.415 196.871 239.219 197.333 239.023 197.767C238.827 198.201 238.645 198.579 238.477 198.901L236.293 198.565C236.405 198.187 236.51 197.781 236.608 197.347C236.72 196.913 236.797 196.514 236.839 196.15ZM235.789 202.45V203.794H239.884V202.45H235.789ZM235.789 199.363V200.686H239.884V199.363H235.789ZM233.479 197.473H242.278V205.684H233.479V197.473ZM229.888 207.049L232.156 207.805C231.61 208.701 230.952 209.541 230.182 210.325C229.412 211.109 228.579 211.816 227.683 212.446C226.787 213.076 225.877 213.615 224.953 214.063C224.855 213.895 224.715 213.685 224.533 213.433C224.351 213.167 224.162 212.908 223.966 212.656C223.77 212.404 223.588 212.201 223.42 212.047C224.288 211.697 225.135 211.27 225.961 210.766C226.787 210.262 227.536 209.695 228.208 209.065C228.894 208.435 229.454 207.763 229.888 207.049ZM227.557 209.947H241.27V215.785H238.561V211.837H230.161V215.89H227.557V209.947ZM203.281 226.064H221.761V228.563H203.281V226.064ZM211.156 221.171H213.844V240.89H211.156V221.171ZM210.61 227.429L212.836 228.185C212.36 229.291 211.814 230.362 211.198 231.398C210.582 232.434 209.903 233.414 209.161 234.338C208.433 235.262 207.649 236.116 206.809 236.9C205.983 237.67 205.115 238.335 204.205 238.895C204.065 238.685 203.883 238.447 203.659 238.181C203.435 237.915 203.204 237.656 202.966 237.404C202.728 237.138 202.511 236.921 202.315 236.753C203.183 236.277 204.023 235.703 204.835 235.031C205.661 234.345 206.438 233.596 207.166 232.784C207.894 231.958 208.545 231.09 209.119 230.18C209.707 229.27 210.204 228.353 210.61 227.429ZM214.327 227.534C214.733 228.43 215.237 229.319 215.839 230.201C216.441 231.083 217.106 231.923 217.834 232.721C218.576 233.519 219.353 234.254 220.165 234.926C220.977 235.598 221.81 236.165 222.664 236.627C222.468 236.781 222.244 236.991 221.992 237.257C221.754 237.509 221.523 237.775 221.299 238.055C221.089 238.335 220.914 238.587 220.774 238.811C219.892 238.251 219.045 237.593 218.233 236.837C217.421 236.067 216.644 235.227 215.902 234.317C215.16 233.393 214.481 232.42 213.865 231.398C213.249 230.376 212.696 229.333 212.206 228.269L214.327 227.534ZM226.843 234.779H240.535V236.753H226.843V234.779ZM227.389 231.398H241.48V233.498H227.389V231.398ZM224.239 238.181H242.824V240.344H224.239V238.181ZM232.282 230.117H234.886V239.672H232.282V230.117ZM228.754 226.694V227.828H238.078V226.694H228.754ZM228.754 223.817V224.909H238.078V223.817H228.754ZM226.276 221.906H240.682V229.739H226.276V221.906ZM227.368 229.529L229.825 230.243C229.517 230.929 229.146 231.601 228.712 232.259C228.278 232.917 227.816 233.533 227.326 234.107C226.836 234.681 226.353 235.178 225.877 235.598C225.709 235.444 225.499 235.269 225.247 235.073C224.995 234.877 224.736 234.688 224.47 234.506C224.204 234.31 223.966 234.156 223.756 234.044C224.484 233.498 225.17 232.826 225.814 232.028C226.472 231.216 226.99 230.383 227.368 229.529Z" fill="white"/>
<defs>
<linearGradient id="paint0_linear_2_70" x1="220.75" y1="26" x2="220.75" y2="412.5" gradientUnits="userSpaceOnUse">
<stop stop-color="#FFFBA7"/>
<stop offset="1" stop-color="#FDFAEC"/>
</linearGradient>
<linearGradient id="paint1_linear_2_70" x1="221" y1="64" x2="221" y2="374" gradientUnits="userSpaceOnUse">
<stop stop-color="#FFFDDC"/>
<stop offset="1" stop-color="#E3F8FF"/>
</linearGradient>
<linearGradient id="paint2_linear_2_70" x1="221" y1="109" x2="221" y2="329" gradientUnits="userSpaceOnUse">
<stop stop-color="#C8EEFF"/>
<stop offset="1" stop-color="#E1F3FF"/>
</linearGradient>
<linearGradient id="paint3_linear_2_70" x1="221" y1="154" x2="221" y2="284" gradientUnits="userSpaceOnUse">
<stop stop-color="#58C7FF"/>
<stop offset="1" stop-color="#9FE0FF"/>
</linearGradient>
</defs>
</svg>
