<svg width="442" height="452" viewBox="0 0 442 452" fill="none" xmlns="http://www.w3.org/2000/svg">
<rect width="442" height="452" fill="white"/>
<path d="M272.5 26H169L27.5 166.5V270.5L169 412.5H272.5L414 270.5V166.5L272.5 26Z" fill="url(#paint0_linear_2_206)" stroke="#FFFDE8"/>
<path d="M262.507 64H179.493L66 176.691V260.106L179.493 374H262.507L376 260.106V176.691L262.507 64Z" fill="url(#paint1_linear_2_206)" stroke="#FEFFEA"/>
<path d="M250.457 109H191.543L111 188.974V248.172L191.543 329H250.457L331 248.172V188.974L250.457 109Z" fill="url(#paint2_linear_2_206)" stroke="#DDF4FF"/>
<path d="M414.37 270.528L28 167" stroke="#888686"/>
<path d="M272.528 26L186.777 346.024L169 412.37" stroke="#888686" stroke-opacity="0.82"/>
<path d="M169 26L272.528 412.37" stroke="#888686"/>
<path d="M414.37 167L28 270.528" stroke="#888886"/>
<path d="M238.406 154H203.594L156 201.257V236.238L203.594 284H238.406L286 236.238V201.257L238.406 154Z" fill="url(#paint3_linear_2_206)" stroke="#B9E7FD"/>
<path d="M126.044 212.194H142.028V214.21H126.044V212.194ZM132.83 210.718H135.08V227.62H132.83V210.718ZM132.272 220.996L134.108 221.752C133.688 222.352 133.208 222.928 132.668 223.48C132.14 224.032 131.564 224.554 130.94 225.046C130.328 225.526 129.686 225.964 129.014 226.36C128.354 226.768 127.688 227.116 127.016 227.404C126.896 227.224 126.752 227.02 126.584 226.792C126.416 226.564 126.236 226.342 126.044 226.126C125.852 225.91 125.678 225.73 125.522 225.586C126.182 225.358 126.836 225.082 127.484 224.758C128.132 224.422 128.756 224.056 129.356 223.66C129.956 223.252 130.502 222.826 130.994 222.382C131.498 221.926 131.924 221.464 132.272 220.996ZM135.692 221.068C136.052 221.524 136.484 221.974 136.988 222.418C137.504 222.85 138.062 223.27 138.662 223.678C139.274 224.074 139.91 224.434 140.57 224.758C141.23 225.07 141.89 225.34 142.55 225.568C142.382 225.712 142.196 225.892 141.992 226.108C141.8 226.336 141.614 226.564 141.434 226.792C141.266 227.032 141.122 227.248 141.002 227.44C140.33 227.164 139.664 226.822 139.004 226.414C138.344 226.018 137.702 225.58 137.078 225.1C136.466 224.608 135.89 224.086 135.35 223.534C134.822 222.982 134.348 222.412 133.928 221.824L135.692 221.068ZM129.662 219.448V220.546H138.392V219.448H129.662ZM129.662 216.856V217.936H138.392V216.856H129.662ZM127.556 215.236H140.606V222.166H127.556V215.236Z" fill="black"/>
<path d="M82.744 213.856L84.552 214.432V222.752H82.744V213.856ZM93.896 213.952H95.752V222.624C95.752 223.051 95.704 223.413 95.608 223.712C95.512 224 95.3253 224.224 95.048 224.384C94.7707 224.544 94.44 224.645 94.056 224.688C93.6827 224.731 93.2453 224.752 92.744 224.752C92.7227 224.571 92.6747 224.363 92.6 224.128C92.5253 223.893 92.44 223.659 92.344 223.424C92.2587 223.189 92.168 222.987 92.072 222.816C92.4027 222.827 92.7173 222.837 93.016 222.848C93.3147 222.848 93.5173 222.848 93.624 222.848C93.7307 222.848 93.8 222.827 93.832 222.784C93.8747 222.741 93.896 222.672 93.896 222.576V213.952ZM81.496 222.432C82.1787 222.293 83 222.112 83.96 221.888C84.92 221.653 85.896 221.419 86.888 221.184L87.096 222.8C86.2107 223.045 85.3147 223.285 84.408 223.52C83.5013 223.755 82.6747 223.973 81.928 224.176L81.496 222.432ZM86.648 215.76H88.44V220.048C88.44 220.763 88.3813 221.472 88.264 222.176C88.1573 222.869 87.944 223.541 87.624 224.192C87.304 224.843 86.8293 225.445 86.2 226C85.5707 226.555 84.7333 227.04 83.688 227.456C83.6133 227.317 83.5067 227.152 83.368 226.96C83.24 226.779 83.096 226.603 82.936 226.432C82.7867 226.261 82.648 226.123 82.52 226.016C83.4373 225.653 84.168 225.248 84.712 224.8C85.2667 224.341 85.6827 223.856 85.96 223.344C86.2373 222.821 86.4187 222.283 86.504 221.728C86.6 221.163 86.648 220.592 86.648 220.016V215.76ZM89.704 213.952H94.872V215.696H91.512V227.44H89.704V213.952ZM87.256 212.432L88.968 213.648C88.4667 213.936 87.9387 214.224 87.384 214.512C86.8293 214.789 86.28 215.051 85.736 215.296C85.2027 215.541 84.696 215.749 84.216 215.92L82.984 214.864C83.432 214.661 83.9173 214.427 84.44 214.16C84.9627 213.883 85.4693 213.595 85.96 213.296C86.4613 212.987 86.8933 212.699 87.256 212.432Z" fill="black"/>
<path d="M37.122 178.472H50.916V180.98H37.122V178.472ZM35.526 189.511H52.493V192.114H35.526V189.511ZM39.687 203.923V205.044H48.389V203.923H39.687ZM39.687 201.187V202.308H48.389V201.187H39.687ZM37.502 199.477H50.688V206.773H37.502V199.477ZM37.008 207.647H51.22V209.433H37.008V207.647ZM35.431 210.402H52.645V212.302H35.431V210.402ZM42.822 200.256H45.083V211.599H42.822V200.256ZM40.77 213.366L42.86 213.195C42.9613 213.689 43.05 214.234 43.126 214.829C43.202 215.424 43.24 215.925 43.24 216.33L41.017 216.596C41.017 216.178 40.998 215.665 40.96 215.057C40.922 214.462 40.8587 213.898 40.77 213.366ZM44.513 213.442L46.641 213.024C46.8437 213.505 47.04 214.037 47.23 214.62C47.42 215.19 47.553 215.684 47.629 216.102L45.368 216.596C45.3173 216.191 45.2097 215.69 45.045 215.095C44.8803 214.5 44.703 213.949 44.513 213.442ZM48.256 213.328L50.403 212.625C50.6943 212.942 50.992 213.303 51.296 213.708C51.6127 214.101 51.904 214.493 52.17 214.886C52.436 215.266 52.645 215.621 52.797 215.95L50.498 216.748C50.3713 216.457 50.1813 216.108 49.928 215.703C49.6873 215.31 49.415 214.905 49.111 214.487C48.8197 214.069 48.5347 213.683 48.256 213.328ZM37.35 212.644L39.554 213.176C39.3387 213.835 39.0473 214.487 38.68 215.133C38.3127 215.792 37.901 216.336 37.445 216.767L35.279 215.817C35.7097 215.475 36.1087 215.013 36.476 214.43C36.8433 213.847 37.1347 213.252 37.35 212.644ZM36.628 227.759H51.41V230.001H36.628V227.759ZM35.374 236.651H52.683V238.893H35.374V236.651ZM42.746 221.888H45.197V238.19H42.746V221.888ZM37.977 257.181H50.365V258.967H37.977V257.181ZM38.471 254.122H51.22V256.022H38.471V254.122ZM35.621 260.259H52.436V262.216H35.621V260.259ZM42.898 252.963H45.254V261.608H42.898V252.963ZM39.706 249.866V250.892H48.142V249.866H39.706ZM39.706 247.263V248.251H48.142V247.263H39.706ZM37.464 245.534H50.498V252.621H37.464V245.534ZM38.452 252.431L40.675 253.077C40.3963 253.698 40.0607 254.306 39.668 254.901C39.2753 255.496 38.8573 256.054 38.414 256.573C37.9707 257.092 37.5337 257.542 37.103 257.922C36.951 257.783 36.761 257.624 36.533 257.447C36.305 257.27 36.0707 257.099 35.83 256.934C35.5893 256.757 35.374 256.617 35.184 256.516C35.8427 256.022 36.4633 255.414 37.046 254.692C37.6413 253.957 38.11 253.204 38.452 252.431Z" fill="black"/>
<path d="M389.545 180.011H406.455V182.386H389.545V180.011ZM396.689 175.907H399.197V181.265H396.689V175.907ZM393.535 184.419L396.195 185.103C395.802 186.167 395.34 187.212 394.808 188.238C394.289 189.264 393.731 190.227 393.136 191.126C392.541 192.013 391.933 192.785 391.312 193.444C391.135 193.279 390.9 193.096 390.609 192.893C390.33 192.69 390.045 192.488 389.754 192.285C389.463 192.082 389.209 191.918 388.994 191.791C389.627 191.221 390.229 190.543 390.799 189.758C391.369 188.973 391.888 188.124 392.357 187.212C392.826 186.287 393.218 185.356 393.535 184.419ZM399.805 185.312L402.123 184.381C402.541 184.989 402.972 185.635 403.415 186.319C403.858 187.003 404.289 187.7 404.707 188.409C405.125 189.106 405.499 189.783 405.828 190.442C406.17 191.101 406.442 191.702 406.645 192.247L404.061 193.368C403.884 192.849 403.637 192.253 403.32 191.582C403.016 190.911 402.668 190.22 402.275 189.511C401.895 188.789 401.49 188.067 401.059 187.345C400.641 186.623 400.223 185.945 399.805 185.312ZM389.621 199.819H406.398V202.042H389.621V199.819ZM393.193 208.825H403.092V210.877H393.193V208.825ZM393.269 213.442H402.883V215.551H393.269V213.442ZM396.651 200.617L399.444 201.187C399.305 201.706 399.159 202.232 399.007 202.764C398.855 203.283 398.709 203.784 398.57 204.265C398.443 204.734 398.31 205.152 398.171 205.519L396.005 204.968C396.106 204.55 396.201 204.094 396.29 203.6C396.379 203.093 396.455 202.58 396.518 202.061C396.594 201.542 396.638 201.06 396.651 200.617ZM391.521 204.208H404.688V216.691H402.256V206.317H393.839V216.691H391.521V204.208ZM397.924 224.035C397.405 224.757 396.746 225.504 395.948 226.277C395.163 227.05 394.289 227.791 393.326 228.5C392.376 229.209 391.382 229.843 390.343 230.4C390.242 230.21 390.109 230.001 389.944 229.773C389.792 229.545 389.621 229.323 389.431 229.108C389.254 228.893 389.083 228.703 388.918 228.538C390.007 228.019 391.052 227.379 392.053 226.619C393.054 225.846 393.947 225.042 394.732 224.206C395.53 223.37 396.163 222.566 396.632 221.793H399.007C399.526 222.515 400.096 223.205 400.717 223.864C401.338 224.523 402.003 225.131 402.712 225.688C403.421 226.245 404.15 226.746 404.897 227.189C405.644 227.632 406.398 228.006 407.158 228.31C406.867 228.601 406.594 228.931 406.341 229.298C406.088 229.665 405.853 230.02 405.638 230.362C404.916 229.982 404.181 229.545 403.434 229.051C402.699 228.557 401.99 228.031 401.306 227.474C400.622 226.904 399.989 226.328 399.406 225.745C398.823 225.162 398.329 224.592 397.924 224.035ZM393.174 227.55H402.731V229.545H393.174V227.55ZM390.894 231.426H404.973V233.402H390.894V231.426ZM389.944 237.202H406.094V239.159H389.944V237.202ZM396.689 228.348H399.102V238.19H396.689V228.348ZM392.091 234.124L393.915 233.364C394.156 233.681 394.39 234.029 394.618 234.409C394.859 234.789 395.074 235.163 395.264 235.53C395.454 235.897 395.593 236.227 395.682 236.518L393.725 237.392C393.649 237.101 393.522 236.765 393.345 236.385C393.168 235.992 392.971 235.6 392.756 235.207C392.541 234.814 392.319 234.453 392.091 234.124ZM401.743 233.383L403.928 234.181C403.548 234.764 403.155 235.346 402.75 235.929C402.345 236.499 401.971 236.987 401.629 237.392L399.919 236.67C400.134 236.366 400.356 236.03 400.584 235.663C400.812 235.283 401.027 234.897 401.23 234.504C401.433 234.099 401.604 233.725 401.743 233.383ZM391.977 257.181H404.365V258.967H391.977V257.181ZM392.471 254.122H405.22V256.022H392.471V254.122ZM389.621 260.259H406.436V262.216H389.621V260.259ZM396.898 252.963H399.254V261.608H396.898V252.963ZM393.706 249.866V250.892H402.142V249.866H393.706ZM393.706 247.263V248.251H402.142V247.263H393.706ZM391.464 245.534H404.498V252.621H391.464V245.534ZM392.452 252.431L394.675 253.077C394.396 253.698 394.061 254.306 393.668 254.901C393.275 255.496 392.857 256.054 392.414 256.573C391.971 257.092 391.534 257.542 391.103 257.922C390.951 257.783 390.761 257.624 390.533 257.447C390.305 257.27 390.071 257.099 389.83 256.934C389.589 256.757 389.374 256.617 389.184 256.516C389.843 256.022 390.463 255.414 391.046 254.692C391.641 253.957 392.11 253.204 392.452 252.431Z" fill="black"/>
<path d="M148.246 170.277L159.549 158.974L160.974 160.4L149.672 171.702L148.246 170.277ZM156.52 172.95L162.209 167.26L163.393 168.444L157.703 174.133L156.52 172.95ZM158.276 175.241L164.513 169.004L165.735 170.226L159.498 176.462L158.276 175.241ZM159.192 171.448L160.631 170.009L165.111 174.49L163.673 175.928L159.192 171.448ZM151.11 172.173L160.325 162.958L161.725 164.358L154.038 172.046L161.127 179.135L159.6 180.663L151.11 172.173ZM159.892 163.391L161.458 161.825L168.42 168.788C168.785 169.152 169.014 169.483 169.107 169.78C169.209 170.086 169.184 170.417 169.031 170.773C168.878 171.146 168.62 171.533 168.255 171.931C167.907 172.33 167.474 172.788 166.956 173.306C166.727 173.145 166.439 172.992 166.091 172.848C165.752 172.695 165.442 172.58 165.162 172.504C165.382 172.3 165.607 172.093 165.836 171.88C166.065 171.668 166.269 171.473 166.447 171.295C166.625 171.1 166.744 170.972 166.804 170.913C166.922 170.794 166.986 170.697 166.995 170.62C166.995 170.535 166.948 170.446 166.855 170.353L159.892 163.391ZM155.654 171.117L156.507 169.551C156.863 169.602 157.237 169.695 157.627 169.831C158.026 169.958 158.357 170.086 158.62 170.213L157.767 171.906C157.512 171.753 157.186 171.605 156.787 171.46C156.388 171.316 156.01 171.202 155.654 171.117ZM158.912 167.197L160.554 166.267C160.69 166.743 160.817 167.209 160.936 167.667C161.055 168.109 161.144 168.512 161.203 168.877L159.791 169.628C159.731 169.381 159.651 169.114 159.549 168.826C159.455 168.529 159.354 168.24 159.243 167.96C159.133 167.68 159.023 167.426 158.912 167.197ZM152.116 164.473L153.783 162.805L158.123 167.146L156.456 168.813L152.116 164.473ZM161 157.523L172.302 146.221L173.728 147.646L162.425 158.949L161 157.523ZM164.754 151.681L166.345 150.09L178.297 162.042L176.706 163.633L164.754 151.681ZM171.628 159.343L173.46 158.58C173.588 159.301 173.656 160.048 173.664 160.82C173.681 161.584 173.643 162.36 173.549 163.149C173.456 163.921 173.312 164.685 173.117 165.44C172.939 166.195 172.714 166.912 172.442 167.591C172.23 167.549 171.984 167.506 171.704 167.464C171.424 167.421 171.14 167.392 170.851 167.375C170.563 167.358 170.312 167.354 170.1 167.362C170.406 166.734 170.673 166.076 170.902 165.389C171.123 164.693 171.305 163.993 171.449 163.289C171.585 162.576 171.67 161.889 171.704 161.227C171.738 160.548 171.712 159.92 171.628 159.343ZM174.097 156.976C174.674 157.044 175.297 157.057 175.968 157.014C176.638 156.955 177.33 156.857 178.042 156.721C178.755 156.569 179.459 156.374 180.155 156.136C180.843 155.89 181.5 155.614 182.128 155.309C182.111 155.529 182.107 155.788 182.115 156.085C182.141 156.382 182.171 156.675 182.204 156.963C182.255 157.252 182.306 157.506 182.357 157.727C181.687 158.007 180.974 158.236 180.219 158.414C179.472 158.601 178.709 158.745 177.928 158.847C177.147 158.932 176.371 158.97 175.599 158.962C174.835 158.945 174.097 158.877 173.384 158.758L174.097 156.976ZM168.687 160.094L169.464 160.871L175.637 154.698L174.86 153.921L168.687 160.094ZM166.855 158.262L167.618 159.025L173.791 152.852L173.028 152.088L166.855 158.262ZM164.22 158.605L173.448 149.377L178.348 154.278L169.12 163.505L164.22 158.605Z" fill="black"/>
<path d="M113.785 145.701L122.248 137.238L123.56 138.551L115.098 147.013L113.785 145.701ZM117.847 149.876L126.626 141.096L127.86 142.329L119.08 151.109L117.847 149.876ZM117.179 146.47L123.345 140.304L124.567 141.526L118.401 147.692L117.179 146.47ZM113.005 146.482L114.362 145.124L117.802 148.563C118.284 149.046 118.797 149.589 119.34 150.192C119.883 150.796 120.415 151.441 120.936 152.127C121.456 152.813 121.916 153.522 122.316 154.254C122.723 154.978 123.025 155.702 123.221 156.426C123.063 156.434 122.863 156.468 122.621 156.528C122.388 156.581 122.15 156.645 121.909 156.72C121.675 156.788 121.479 156.864 121.32 156.947C121.147 156.275 120.879 155.616 120.517 154.967C120.155 154.318 119.74 153.692 119.273 153.089C118.805 152.485 118.326 151.916 117.836 151.38C117.345 150.845 116.878 150.355 116.433 149.91L113.005 146.482ZM119.827 148.846L121.151 147.522L125.427 151.799L124.103 153.123L119.827 148.846ZM122.814 154.005C123.146 153.583 123.515 153.093 123.922 152.534C124.33 151.961 124.76 151.358 125.212 150.724C125.672 150.083 126.129 149.446 126.581 148.812L127.848 149.921C127.449 150.517 127.037 151.124 126.615 151.742C126.193 152.361 125.782 152.953 125.382 153.519C124.997 154.084 124.639 154.609 124.307 155.091L122.814 154.005ZM123.108 145.565C124.036 146.131 124.96 146.527 125.88 146.753C126.8 146.979 127.731 147.006 128.674 146.832C129.625 146.651 130.605 146.236 131.616 145.588C131.616 145.784 131.631 146.01 131.661 146.267C131.699 146.516 131.744 146.764 131.797 147.013C131.857 147.27 131.921 147.492 131.989 147.681C130.835 148.337 129.723 148.733 128.652 148.869C127.581 148.989 126.51 148.884 125.438 148.552C124.367 148.22 123.247 147.703 122.078 147.002L123.108 145.565ZM126.457 143.755L128.425 143.348C128.342 143.823 128.241 144.317 128.12 144.83C128.007 145.335 127.882 145.829 127.746 146.312C127.611 146.78 127.479 147.213 127.35 147.613L125.767 147.839C125.88 147.439 125.982 146.998 126.072 146.516C126.17 146.025 126.253 145.543 126.321 145.067C126.389 144.577 126.434 144.14 126.457 143.755ZM138.987 145.072L126.146 132.231L127.232 131.145L140.073 143.986L138.987 145.072ZM137.375 129.488L144.084 122.779L145.419 124.114L138.71 130.823L137.375 129.488ZM133.788 125.947L141.233 118.503L146.754 124.024L145.351 125.427L141.165 121.24L135.123 127.282L133.788 125.947ZM132.974 126.762L134.388 125.347L141.674 132.633C141.968 132.927 142.221 133.12 142.432 133.21C142.636 133.293 142.858 133.259 143.099 133.109C143.348 132.95 143.68 132.664 144.095 132.249C144.216 132.128 144.404 131.939 144.661 131.683C144.917 131.427 145.204 131.14 145.521 130.823C145.845 130.499 146.169 130.174 146.494 129.85C146.818 129.526 147.108 129.235 147.365 128.979C147.629 128.715 147.821 128.523 147.942 128.402C148.319 128.025 148.56 127.701 148.666 127.429C148.771 127.142 148.749 126.833 148.598 126.501C148.44 126.162 148.149 125.721 147.727 125.178C147.923 125.132 148.138 125.068 148.372 124.985C148.598 124.895 148.824 124.789 149.05 124.668C149.277 124.548 149.469 124.438 149.627 124.34C150.035 124.868 150.348 125.355 150.566 125.8C150.778 126.237 150.88 126.656 150.872 127.056C150.872 127.448 150.748 127.851 150.499 128.266C150.265 128.681 149.903 129.134 149.412 129.624C149.322 129.714 149.171 129.865 148.96 130.076C148.756 130.28 148.519 130.518 148.247 130.789C147.983 131.053 147.708 131.328 147.421 131.615C147.135 131.902 146.859 132.177 146.595 132.441C146.331 132.705 146.098 132.939 145.894 133.142C145.698 133.339 145.555 133.482 145.464 133.572C144.913 134.123 144.423 134.545 143.993 134.84C143.563 135.134 143.152 135.303 142.76 135.349C142.368 135.394 141.972 135.307 141.572 135.088C141.165 134.862 140.724 134.511 140.248 134.036L132.974 126.762Z" fill="black"/>
<path d="M76.4105 127.791L86.6615 117.54L88.314 119.193L78.063 129.444L76.4105 127.791ZM81.6636 131.19L89.9127 122.941L91.5518 124.58L83.3027 132.829L81.6636 131.19ZM84.5387 137.424L96.2541 125.709L97.8931 127.348L86.1778 139.063L84.5387 137.424ZM88.408 114.316L93.6208 109.103L94.8299 110.312L89.6172 115.525L88.408 114.316ZM94.3732 120.711L106.424 108.66L107.687 109.923L95.6361 121.974L94.3732 120.711ZM90.6517 116.264L95.4748 111.441L96.6705 112.637L91.8474 117.46L90.6517 116.264ZM101.951 121.678L108.493 115.136L109.703 116.345L103.16 122.888L101.951 121.678ZM92.5729 119.018C93.0297 118.508 93.5447 117.93 94.1179 117.285C94.7001 116.631 95.3136 115.946 95.9585 115.23C96.5944 114.504 97.2303 113.779 97.8663 113.053L99.0754 114.289C98.1708 115.337 97.2662 116.385 96.3615 117.433C95.448 118.472 94.6463 119.39 93.9567 120.187L92.5729 119.018ZM90.7457 112.919L92.2639 111.401L96.4556 115.592L95.1255 117.299L90.7457 112.919ZM95.8107 105.812L97.7319 104.186C97.92 104.625 98.0902 105.046 98.2424 105.449C98.3947 105.852 98.5201 106.21 98.6186 106.524L97.0064 107.706C96.8362 107.393 96.6437 107.066 96.4287 106.725C96.2227 106.376 96.0167 106.071 95.8107 105.812ZM99.1695 110.514L100.029 111.374L102.649 108.754L101.789 107.894L99.1695 110.514ZM97.1945 108.539L98.0409 109.385L100.661 106.766L99.8143 105.919L97.1945 108.539ZM94.5075 108.808L100.137 103.178L105.39 108.431L99.7606 114.061L94.5075 108.808ZM98.3365 117.231L100.271 116.264C100.495 117.187 100.611 118.145 100.62 119.139C100.629 120.133 100.549 121.119 100.379 122.095C100.208 123.071 99.9711 123.998 99.6666 124.876C99.4964 124.831 99.2725 124.786 98.9948 124.742C98.7082 124.688 98.4216 124.643 98.135 124.607C97.8484 124.571 97.602 124.558 97.396 124.567C97.7274 123.788 97.9961 122.973 98.2021 122.122C98.4081 121.271 98.5246 120.429 98.5515 119.596C98.5873 118.754 98.5156 117.966 98.3365 117.231ZM98.6992 120.577L107.472 111.804L111.207 115.539L109.474 117.272L106.948 114.746L101.574 120.12L104.167 122.713L102.501 124.379L98.6992 120.577ZM104.355 103.555L116.178 91.7317L117.777 93.3305L105.954 105.153L104.355 103.555ZM106.263 95.3861L107.983 93.6664L120.598 106.282L118.879 108.002L106.263 95.3861ZM109.917 99.739L111.825 98.7986C112.228 99.8107 112.564 100.845 112.833 101.902C113.102 102.959 113.294 104.02 113.411 105.086C113.536 106.143 113.581 107.191 113.545 108.23C113.509 109.251 113.379 110.232 113.155 111.172C112.931 111.127 112.663 111.092 112.349 111.065C112.036 111.038 111.722 111.02 111.409 111.011C111.086 110.993 110.809 110.993 110.576 111.011C110.827 110.151 110.997 109.247 111.086 108.297C111.176 107.33 111.194 106.354 111.14 105.368C111.077 104.374 110.939 103.402 110.724 102.453C110.518 101.495 110.249 100.59 109.917 99.739ZM112.363 97.4282C113.196 97.7417 114.087 97.988 115.036 98.1671C115.986 98.3463 116.948 98.4582 117.925 98.503C118.91 98.5388 119.877 98.512 120.827 98.4224C121.776 98.3328 122.672 98.1626 123.514 97.9119C123.487 98.1358 123.478 98.4134 123.487 98.7448C123.496 99.0583 123.518 99.3763 123.554 99.6987C123.599 100.012 123.648 100.285 123.702 100.518C122.779 100.724 121.816 100.845 120.813 100.881C119.801 100.908 118.767 100.868 117.71 100.76C116.644 100.644 115.587 100.456 114.539 100.196C113.491 99.9361 112.47 99.6226 111.476 99.2554L112.363 97.4282ZM125.005 94.056L133.765 85.2964L135.028 86.5593L126.268 95.3189L125.005 94.056ZM123.191 91.5437L132.206 82.5287L133.55 83.8722L124.535 92.8872L123.191 91.5437ZM125.516 97.8984L137.406 86.0084L138.789 87.3922L126.899 99.2822L125.516 97.8984ZM125.502 87.5938L127.168 85.9278L133.281 92.0407L131.615 93.7067L125.502 87.5938ZM121.055 87.6609L121.781 88.3864L127.746 82.4213L127.02 81.6958L121.055 87.6609ZM119.215 85.8203L119.913 86.519L125.878 80.5538L125.18 79.8552L119.215 85.8203ZM116.407 86.1831L125.623 76.9666L130.634 81.9779L121.418 91.1943L116.407 86.1831ZM121.982 90.3614L124.011 89.2463C124.253 89.8822 124.445 90.5495 124.589 91.2481C124.732 91.9467 124.83 92.6364 124.884 93.3171C124.938 93.9978 124.947 94.6248 124.911 95.198C124.705 95.2069 124.459 95.2293 124.172 95.2652C123.885 95.301 123.599 95.3458 123.312 95.3995C123.017 95.4443 122.766 95.498 122.56 95.5607C122.676 94.7457 122.685 93.8769 122.587 92.9543C122.488 92.0139 122.287 91.1496 121.982 90.3614Z" fill="black"/>
<path d="M269.936 145.246L281.239 156.549L279.813 157.974L268.511 146.672L269.936 145.246ZM267.264 153.52L272.953 159.209L271.769 160.393L266.08 154.703L267.264 153.52ZM264.973 155.276L271.209 161.513L269.987 162.735L263.751 156.498L264.973 155.276ZM268.765 156.192L270.204 157.631L265.724 162.111L264.285 160.673L268.765 156.192ZM268.04 148.11L277.255 157.325L275.855 158.725L268.167 151.038L261.078 158.127L259.55 156.6L268.04 148.11ZM276.822 156.892L278.388 158.458L271.426 165.42C271.061 165.785 270.73 166.014 270.433 166.107C270.127 166.209 269.796 166.184 269.44 166.031C269.067 165.878 268.681 165.62 268.282 165.255C267.883 164.907 267.425 164.474 266.907 163.956C267.068 163.727 267.221 163.439 267.365 163.091C267.518 162.752 267.633 162.442 267.709 162.162C267.913 162.382 268.121 162.607 268.333 162.836C268.545 163.065 268.74 163.269 268.918 163.447C269.113 163.625 269.241 163.744 269.3 163.804C269.419 163.922 269.516 163.986 269.593 163.995C269.678 163.995 269.767 163.948 269.86 163.855L276.822 156.892ZM269.096 152.654L270.662 153.507C270.611 153.863 270.518 154.237 270.382 154.627C270.255 155.026 270.127 155.357 270 155.62L268.307 154.767C268.46 154.512 268.609 154.186 268.753 153.787C268.897 153.388 269.012 153.01 269.096 152.654ZM273.017 155.912L273.946 157.554C273.471 157.69 273.004 157.817 272.546 157.936C272.104 158.055 271.701 158.144 271.337 158.203L270.586 156.791C270.832 156.731 271.099 156.651 271.387 156.549C271.684 156.455 271.973 156.354 272.253 156.243C272.533 156.133 272.788 156.023 273.017 155.912ZM275.74 149.116L277.408 150.783L273.068 155.123L271.4 153.456L275.74 149.116ZM275.346 168.093L283.975 176.723L282.563 178.135L273.933 169.506L275.346 168.093ZM280.59 160.889L291.09 171.39L282.753 179.726L281.201 178.174L288.125 171.25L280.666 163.791L273.717 170.74L272.227 169.251L280.59 160.889ZM285.757 167.227L287.221 168.691L284.93 170.982C284.769 171.143 284.68 171.258 284.663 171.326C284.663 171.394 284.726 171.491 284.854 171.619C284.879 171.644 284.934 171.699 285.019 171.784C285.112 171.877 285.201 171.967 285.286 172.051C285.38 172.145 285.448 172.213 285.49 172.255C285.566 172.331 285.634 172.374 285.694 172.382C285.77 172.391 285.863 172.357 285.974 172.28C286.092 172.213 286.254 172.085 286.457 171.899C286.474 172.051 286.517 172.238 286.585 172.459C286.669 172.679 286.763 172.9 286.865 173.121C286.983 173.341 287.098 173.532 287.208 173.693C286.759 174.024 286.372 174.241 286.05 174.342C285.728 174.444 285.431 174.444 285.159 174.342C284.896 174.249 284.62 174.058 284.332 173.77C284.264 173.702 284.183 173.621 284.09 173.528C283.997 173.434 283.895 173.333 283.784 173.222C283.683 173.121 283.585 173.023 283.492 172.93C283.398 172.836 283.322 172.76 283.263 172.7C282.855 172.293 282.592 171.928 282.473 171.606C282.363 171.292 282.393 170.974 282.563 170.651C282.732 170.329 283.029 169.956 283.453 169.531L285.757 167.227ZM282.932 157.529L294.374 168.971L292.898 170.448L281.455 159.005L282.932 157.529ZM285.286 162.124L286.788 163.625L284.243 166.171L282.741 164.669L285.286 162.124ZM288.074 164.911L289.614 166.451L287.068 168.997L285.528 167.457L288.074 164.911ZM283.339 164.224L284.764 165.649L283.504 166.909C283.08 167.334 282.588 167.715 282.028 168.055C281.468 168.394 280.832 168.615 280.119 168.717C279.406 168.818 278.604 168.729 277.713 168.449C277.739 168.288 277.747 168.076 277.739 167.813C277.73 167.55 277.709 167.283 277.675 167.011C277.65 166.748 277.616 166.536 277.573 166.375C278.379 166.638 279.062 166.744 279.622 166.693C280.191 166.65 280.675 166.506 281.073 166.26C281.472 166.014 281.82 165.743 282.117 165.446L283.339 164.224Z" fill="black"/>
<path d="M291.07 119.263L301.207 129.4L299.861 130.746L289.724 120.609L291.07 119.263ZM294.713 117.317L303.176 125.78L301.83 127.126L293.367 118.663L294.713 117.317ZM299.872 119.082L301.321 120.53L290.697 131.154L289.249 129.706L299.872 119.082ZM294.363 124.117L295.053 125.78C294.336 125.953 293.589 126.081 292.813 126.164C292.043 126.24 291.266 126.262 290.482 126.232C289.705 126.21 288.94 126.138 288.185 126.017C287.446 125.897 286.737 125.731 286.058 125.52C286.104 125.323 286.138 125.093 286.16 124.829C286.19 124.573 286.209 124.313 286.217 124.049C286.239 123.785 286.243 123.547 286.228 123.336C286.854 123.585 287.514 123.792 288.208 123.958C288.917 124.124 289.63 124.241 290.346 124.309C291.063 124.377 291.76 124.396 292.439 124.366C293.126 124.328 293.767 124.245 294.363 124.117ZM296.286 126.063C296.15 126.651 296.063 127.288 296.026 127.975C296.003 128.661 296.026 129.362 296.094 130.079C296.161 130.795 296.271 131.501 296.422 132.195C296.588 132.889 296.791 133.545 297.033 134.163C296.844 134.141 296.614 134.137 296.342 134.152C296.086 134.167 295.826 134.193 295.562 134.231C295.298 134.269 295.068 134.31 294.872 134.356C294.668 133.684 294.51 132.975 294.397 132.229C294.283 131.482 294.216 130.72 294.193 129.943C294.178 129.159 294.208 128.382 294.283 127.613C294.366 126.851 294.495 126.112 294.668 125.395L296.286 126.063ZM297.141 141.987L309.982 129.146L311.068 130.232L298.227 143.073L297.141 141.987ZM314.332 136.551L323.507 145.726L316.775 152.458L315.361 151.044L320.792 145.613L314.388 139.209L308.901 144.697L307.543 143.339L314.332 136.551ZM312.782 139.888L320.317 147.423L319.061 148.679L311.526 141.144L312.782 139.888ZM310.327 142.321L317.895 149.89L316.594 151.191L309.025 143.622L310.327 142.321ZM319.66 138.847L321.086 140.273L310.462 150.896L309.037 149.471L319.66 138.847Z" fill="black"/>
<path d="M262.219 284.25L265.999 280.469L267.514 281.984L263.734 285.764L262.219 284.25ZM265.63 275.213L267.221 273.622L276.398 282.799C276.754 283.155 277.013 283.354 277.175 283.397C277.327 283.431 277.522 283.329 277.76 283.091C277.811 283.04 277.896 282.956 278.015 282.837C278.133 282.718 278.265 282.586 278.409 282.442C278.553 282.298 278.685 282.166 278.804 282.048C278.922 281.929 279.012 281.84 279.071 281.78C279.241 281.611 279.296 281.411 279.236 281.182C279.177 280.953 278.978 280.635 278.638 280.227C278.299 279.803 277.802 279.239 277.149 278.535C277.37 278.501 277.612 278.446 277.875 278.369C278.146 278.284 278.409 278.191 278.664 278.089C278.91 277.979 279.122 277.869 279.3 277.758C280.064 278.624 280.632 279.37 281.006 279.998C281.387 280.618 281.553 281.174 281.502 281.666C281.468 282.158 281.209 282.646 280.726 283.129C280.658 283.197 280.543 283.312 280.382 283.473C280.221 283.634 280.047 283.808 279.86 283.995C279.682 284.173 279.516 284.339 279.364 284.491C279.211 284.644 279.096 284.759 279.02 284.835C278.536 285.319 278.082 285.628 277.658 285.764C277.251 285.9 276.822 285.853 276.373 285.624C275.914 285.387 275.388 284.971 274.794 284.377L265.63 275.213ZM262.423 278.42L264.014 276.829L275.622 288.437L274.031 290.028L262.423 278.42ZM271.727 272.909L274.209 273.176C274.065 273.914 273.895 274.678 273.7 275.467C273.496 276.248 273.28 277.033 273.051 277.822C272.822 278.594 272.584 279.341 272.338 280.062C272.117 279.943 271.829 279.833 271.472 279.731C271.108 279.621 270.794 279.536 270.531 279.477C270.743 278.772 270.929 278.034 271.091 277.262C271.252 276.49 271.383 275.73 271.485 274.984C271.595 274.228 271.676 273.537 271.727 272.909ZM267.527 290.473C267.773 290.024 268.053 289.498 268.367 288.895C268.672 288.284 268.99 287.635 269.321 286.948C269.644 286.252 269.966 285.565 270.289 284.886L271.956 285.968C271.608 286.893 271.239 287.83 270.849 288.781C270.467 289.723 270.115 290.584 269.792 291.364L267.527 290.473ZM283.093 276.867L291.723 268.238L293.135 269.651L284.506 278.28L283.093 276.867ZM275.889 271.623L286.39 261.123L294.726 269.46L293.174 271.012L286.25 264.088L278.791 271.547L285.74 278.496L284.251 279.986L275.889 271.623ZM282.227 266.456L283.691 264.992L285.982 267.283C286.143 267.444 286.258 267.534 286.326 267.55C286.394 267.55 286.491 267.487 286.619 267.36C286.644 267.334 286.699 267.279 286.784 267.194C286.877 267.101 286.967 267.012 287.051 266.927C287.145 266.833 287.213 266.766 287.255 266.723C287.331 266.647 287.374 266.579 287.382 266.52C287.391 266.443 287.357 266.35 287.28 266.24C287.213 266.121 287.085 265.959 286.899 265.756C287.051 265.739 287.238 265.696 287.459 265.629C287.679 265.544 287.9 265.45 288.121 265.349C288.341 265.23 288.532 265.115 288.693 265.005C289.024 265.455 289.241 265.841 289.342 266.163C289.444 266.486 289.444 266.783 289.342 267.054C289.249 267.317 289.058 267.593 288.77 267.881C288.702 267.949 288.621 268.03 288.528 268.123C288.434 268.217 288.333 268.318 288.222 268.429C288.121 268.531 288.023 268.628 287.93 268.721C287.836 268.815 287.76 268.891 287.7 268.951C287.293 269.358 286.928 269.621 286.606 269.74C286.292 269.85 285.974 269.82 285.651 269.651C285.329 269.481 284.956 269.184 284.531 268.76L282.227 266.456ZM272.529 269.281L283.971 257.839L285.448 259.316L274.005 270.758L272.529 269.281ZM277.124 266.927L278.625 265.425L281.171 267.971L279.669 269.472L277.124 266.927ZM279.911 264.139L281.451 262.599L283.997 265.145L282.457 266.685L279.911 264.139ZM279.224 268.874L280.649 267.449L281.909 268.709C282.334 269.133 282.715 269.625 283.055 270.185C283.394 270.745 283.615 271.382 283.717 272.094C283.818 272.807 283.729 273.609 283.449 274.5C283.288 274.474 283.076 274.466 282.813 274.474C282.55 274.483 282.283 274.504 282.011 274.538C281.748 274.564 281.536 274.598 281.375 274.64C281.638 273.834 281.744 273.151 281.693 272.591C281.65 272.022 281.506 271.539 281.26 271.14C281.014 270.741 280.743 270.393 280.446 270.096L279.224 268.874Z" fill="black"/>
<path d="M288.67 316.441L288.817 314.484C289.345 314.333 289.926 314.182 290.56 314.032C291.193 313.881 291.816 313.756 292.427 313.658C293.03 313.553 293.554 313.496 293.999 313.488L293.886 315.638C293.471 315.631 292.962 315.665 292.359 315.74C291.755 315.815 291.129 315.913 290.481 316.034C289.832 316.155 289.228 316.291 288.67 316.441ZM297.269 315.627L297.619 313.511C298.042 313.39 298.517 313.262 299.045 313.126C299.565 312.983 300.09 312.844 300.618 312.708C301.146 312.572 301.658 312.459 302.156 312.368C302.654 312.263 303.092 312.187 303.469 312.142L303.141 314.507C302.801 314.529 302.39 314.578 301.907 314.654C301.425 314.729 300.916 314.824 300.38 314.937C299.845 315.035 299.309 315.148 298.773 315.276C298.23 315.397 297.729 315.514 297.269 315.627ZM289.949 310.524L291.997 309.744C292.004 310.309 291.997 310.89 291.974 311.486C291.944 312.074 291.906 312.648 291.861 313.206C291.816 313.749 291.755 314.247 291.68 314.699L289.983 315.219C290.036 314.744 290.069 314.235 290.085 313.692C290.1 313.134 290.096 312.58 290.073 312.029C290.058 311.471 290.017 310.969 289.949 310.524ZM284.993 313.941L295.153 303.781L296.42 305.048L286.261 315.208L284.993 313.941ZM288.048 308.352L289.474 306.927L291.295 308.748L289.87 310.174L288.048 308.352ZM293.581 308.816L295.481 308.228C295.655 309.517 295.647 310.83 295.459 312.165C295.27 313.485 294.938 314.797 294.463 316.102C293.98 317.399 293.392 318.681 292.698 319.949C292.434 319.851 292.11 319.768 291.725 319.7C291.34 319.617 290.982 319.568 290.65 319.553C291.359 318.391 291.966 317.203 292.472 315.989C292.97 314.767 293.324 313.545 293.535 312.323C293.746 311.101 293.762 309.932 293.581 308.816ZM296.828 309.28L298.841 308.714C299.09 310.29 299.087 311.856 298.83 313.409C298.574 314.963 298.117 316.513 297.461 318.059C296.805 319.59 295.994 321.118 295.029 322.641C294.742 322.521 294.399 322.411 293.999 322.313C293.614 322.215 293.252 322.155 292.913 322.132C293.871 320.707 294.689 319.27 295.368 317.822C296.039 316.366 296.511 314.922 296.782 313.488C297.061 312.048 297.076 310.645 296.828 309.28ZM310.987 311.072L298.146 298.231L299.232 297.145L312.073 309.986L310.987 311.072ZM311.456 286.618L311.479 284.989C311.796 284.883 312.139 284.789 312.509 284.706C312.886 284.616 313.252 284.544 313.606 284.491C313.961 284.423 314.262 284.393 314.511 284.401L314.534 286.166C314.285 286.143 313.983 286.158 313.629 286.211C313.274 286.249 312.905 286.301 312.52 286.369C312.135 286.437 311.781 286.52 311.456 286.618ZM315.597 288.293L317.317 287.32C318.245 289.349 318.799 291.381 318.98 293.418C319.161 295.454 318.969 297.427 318.403 299.335C318.237 299.29 318.022 299.256 317.758 299.233C317.509 299.21 317.249 299.191 316.978 299.176C316.721 299.161 316.499 299.158 316.31 299.165C316.951 297.393 317.211 295.586 317.091 293.746C316.97 291.89 316.472 290.073 315.597 288.293ZM306.954 293.248L315.597 284.604L316.887 285.894L308.243 294.538L306.954 293.248ZM311.411 295.692L314.194 292.909L315.45 294.164L312.667 296.948L311.411 295.692ZM306.275 293.927L307.632 292.569L310.698 295.635C311.121 296.058 311.566 296.54 312.033 297.083C312.494 297.619 312.935 298.196 313.357 298.814C313.787 299.425 314.153 300.063 314.455 300.726C314.749 301.383 314.937 302.046 315.02 302.718C314.862 302.695 314.654 302.691 314.398 302.706C314.149 302.729 313.896 302.755 313.64 302.785C313.399 302.816 313.195 302.853 313.029 302.899C312.946 302.303 312.776 301.733 312.52 301.19C312.271 300.64 311.966 300.115 311.604 299.618C311.249 299.112 310.876 298.641 310.483 298.203C310.084 297.758 309.703 297.355 309.341 296.993L306.275 293.927ZM308.809 287.614L310.178 286.245C311.158 287.18 312.124 288.063 313.074 288.892C314.025 289.707 314.937 290.438 315.812 291.087C316.68 291.728 317.487 292.249 318.233 292.648C318.98 293.048 319.64 293.301 320.213 293.406C320.786 293.512 321.247 293.429 321.594 293.158C321.759 293.052 321.707 292.803 321.435 292.411C321.164 292.004 320.741 291.483 320.168 290.85C320.447 290.842 320.764 290.804 321.118 290.736C321.48 290.661 321.786 290.582 322.035 290.499C323.015 291.645 323.528 292.573 323.573 293.282C323.626 293.998 323.283 294.545 322.544 294.922C321.971 295.3 321.311 295.462 320.564 295.409C319.825 295.364 319.018 295.137 318.143 294.73C317.268 294.323 316.336 293.768 315.348 293.067C314.353 292.358 313.308 291.547 312.214 290.635C311.121 289.707 309.986 288.7 308.809 287.614Z" fill="black"/>
<path d="M300.703 349.434L311.088 339.048L312.687 340.647L302.302 351.032L300.703 349.434ZM309.073 359.362L321.124 347.311L322.723 348.91L310.672 360.961L309.073 359.362ZM305.002 346.263L306.843 344.422C307.514 345.363 308.204 346.348 308.912 347.378C309.619 348.408 310.318 349.438 311.008 350.468C311.697 351.498 312.342 352.483 312.942 353.424C313.551 354.355 314.08 355.197 314.528 355.95L312.714 357.763C312.248 356.975 311.715 356.102 311.115 355.143C310.506 354.176 309.857 353.186 309.167 352.174C308.477 351.144 307.779 350.123 307.071 349.111C306.364 348.099 305.674 347.15 305.002 346.263ZM305.083 352.927L313.802 344.207L319.767 350.172L318.088 351.852L313.708 347.472L306.668 354.512L305.083 352.927ZM315.293 338.82L327.439 326.675L328.903 328.139L316.758 340.284L315.293 338.82ZM314.017 335.636L324.281 325.371L325.692 326.782L315.428 337.046L314.017 335.636ZM315.24 332.425L316.879 330.786L320.815 334.722L319.176 336.361L315.24 332.425ZM319.391 328.273L321.057 326.607L324.993 330.544L323.327 332.21L319.391 328.273ZM321.353 334.427L323.018 332.761L328.527 338.269L326.861 339.935L321.353 334.427ZM323.207 340.956L323.986 341.735L330.394 335.327L329.615 334.548L323.207 340.956ZM321.42 339.169L322.172 339.922L328.581 333.513L327.828 332.761L321.42 339.169ZM318.76 339.599L328.339 330.02L333.122 334.803L323.542 344.382L318.76 339.599ZM330.072 339.572L329.951 337.651C330.605 337.32 331.277 336.997 331.966 336.684C332.665 336.361 333.332 336.061 333.968 335.784C334.613 335.497 335.173 335.26 335.647 335.071L335.567 337.302C335.128 337.454 334.604 337.647 333.995 337.879C333.395 338.121 332.754 338.385 332.074 338.672C331.393 338.959 330.726 339.259 330.072 339.572ZM326.014 341.695L328.339 341.278C328.204 341.861 327.998 342.497 327.721 343.186C327.452 343.885 327.152 344.579 326.821 345.269C326.489 345.958 326.158 346.594 325.826 347.176C325.522 347.141 325.146 347.123 324.698 347.123C324.268 347.123 323.887 347.136 323.556 347.163C323.923 346.581 324.272 345.963 324.604 345.309C324.935 344.637 325.226 343.979 325.477 343.334C325.728 342.689 325.907 342.143 326.014 341.695ZM330.515 325.506L340.968 315.053L342.553 316.639L332.101 327.091L330.515 325.506ZM335.916 332.68L348.155 320.441L349.741 322.026L337.501 334.265L335.916 332.68ZM330.69 317.028L332.423 315.295L343.95 326.822L342.217 328.555L330.69 317.028ZM349.445 315.658L358.205 306.898L359.468 308.161L350.708 316.921L349.445 315.658ZM347.631 313.146L356.646 304.131L357.99 305.474L348.975 314.489L347.631 313.146ZM349.956 319.5L361.846 307.61L363.23 308.994L351.34 320.884L349.956 319.5ZM349.942 309.196L351.608 307.53L357.721 313.643L356.055 315.309L349.942 309.196ZM345.495 309.263L346.221 309.988L352.186 304.023L351.46 303.298L345.495 309.263ZM343.655 307.422L344.353 308.121L350.318 302.156L349.62 301.457L343.655 307.422ZM340.847 307.785L350.063 298.568L355.074 303.58L345.858 312.796L340.847 307.785ZM346.422 311.963L348.451 310.848C348.693 311.484 348.885 312.151 349.029 312.85C349.172 313.549 349.271 314.238 349.324 314.919C349.378 315.6 349.387 316.227 349.351 316.8C349.145 316.809 348.899 316.831 348.612 316.867C348.326 316.903 348.039 316.948 347.752 317.001C347.457 317.046 347.206 317.1 347 317.163C347.116 316.348 347.125 315.479 347.027 314.556C346.928 313.616 346.727 312.751 346.422 311.963Z" fill="black"/>
<path d="M155.751 260.006L159.531 263.786L158.016 265.301L154.236 261.521L155.751 260.006ZM164.788 263.417L166.379 265.008L157.202 274.185C156.845 274.541 156.646 274.8 156.604 274.961C156.57 275.114 156.671 275.309 156.909 275.547C156.96 275.598 157.045 275.683 157.164 275.802C157.282 275.92 157.414 276.052 157.558 276.196C157.702 276.34 157.834 276.472 157.953 276.591C158.071 276.709 158.161 276.799 158.22 276.858C158.39 277.028 158.589 277.083 158.818 277.023C159.047 276.964 159.365 276.765 159.773 276.425C160.197 276.086 160.761 275.589 161.466 274.936C161.5 275.157 161.555 275.398 161.631 275.662C161.716 275.933 161.809 276.196 161.911 276.451C162.021 276.697 162.132 276.909 162.242 277.087C161.376 277.851 160.63 278.419 160.002 278.793C159.382 279.174 158.827 279.34 158.335 279.289C157.842 279.255 157.354 278.996 156.871 278.513C156.803 278.445 156.688 278.33 156.527 278.169C156.366 278.008 156.192 277.834 156.005 277.647C155.827 277.469 155.662 277.303 155.509 277.151C155.356 276.998 155.242 276.883 155.165 276.807C154.682 276.323 154.372 275.869 154.236 275.445C154.1 275.038 154.147 274.609 154.376 274.16C154.614 273.701 155.029 273.175 155.623 272.581L164.788 263.417ZM161.58 260.21L163.171 261.801L151.563 273.409L149.972 271.818L161.58 260.21ZM167.091 269.514L166.824 271.996C166.086 271.852 165.322 271.682 164.533 271.487C163.752 271.283 162.967 271.067 162.178 270.838C161.406 270.609 160.659 270.371 159.938 270.125C160.057 269.904 160.167 269.616 160.269 269.259C160.379 268.895 160.464 268.581 160.524 268.318C161.228 268.53 161.966 268.716 162.738 268.878C163.511 269.039 164.27 269.17 165.017 269.272C165.772 269.382 166.463 269.463 167.091 269.514ZM149.527 265.314C149.977 265.56 150.503 265.84 151.105 266.154C151.716 266.459 152.365 266.777 153.052 267.108C153.748 267.431 154.436 267.753 155.114 268.076L154.032 269.743C153.108 269.395 152.17 269.026 151.22 268.636C150.278 268.254 149.416 267.902 148.636 267.579L149.527 265.314ZM170.477 270.787L181.779 282.089L180.354 283.515L169.051 272.212L170.477 270.787ZM176.319 274.541L177.91 276.132L165.959 288.084L164.368 286.493L176.319 274.541ZM168.657 281.415L169.421 283.247C168.699 283.375 167.953 283.443 167.18 283.451C166.417 283.468 165.64 283.43 164.851 283.336C164.079 283.243 163.315 283.099 162.56 282.904C161.805 282.726 161.088 282.501 160.409 282.229C160.452 282.017 160.494 281.771 160.536 281.491C160.579 281.211 160.609 280.927 160.626 280.638C160.643 280.35 160.647 280.099 160.638 279.887C161.266 280.193 161.924 280.46 162.611 280.689C163.307 280.91 164.007 281.092 164.711 281.236C165.424 281.372 166.111 281.457 166.773 281.491C167.452 281.525 168.08 281.499 168.657 281.415ZM171.024 283.884C170.956 284.461 170.944 285.084 170.986 285.755C171.045 286.425 171.143 287.117 171.279 287.829C171.432 288.542 171.627 289.246 171.864 289.942C172.11 290.63 172.386 291.287 172.692 291.915C172.471 291.898 172.212 291.894 171.915 291.902C171.618 291.928 171.325 291.958 171.037 291.991C170.748 292.042 170.494 292.093 170.273 292.144C169.993 291.474 169.764 290.761 169.586 290.006C169.399 289.259 169.255 288.496 169.153 287.715C169.068 286.934 169.03 286.158 169.039 285.386C169.056 284.622 169.124 283.884 169.242 283.171L171.024 283.884ZM167.906 278.474L167.13 279.251L173.303 285.424L174.079 284.647L167.906 278.474ZM169.739 276.642L168.975 277.405L175.148 283.578L175.912 282.815L169.739 276.642ZM169.395 274.007L178.623 283.235L173.723 288.135L164.495 278.907L169.395 274.007Z" fill="black"/>
<path d="M132.671 290.374L134.006 291.709L129.152 296.563L127.817 295.228L132.671 290.374ZM130.838 287.297L137.06 293.52L135.963 294.617L129.74 288.394L130.838 287.297ZM127.251 292.286L126.629 292.909L131.505 297.785L132.128 297.163L127.251 292.286ZM128.824 290.714L128.213 291.325L133.089 296.201L133.7 295.59L128.824 290.714ZM128.541 288.372L136.11 295.941L131.856 300.195L124.287 292.626L128.541 288.372ZM128.111 297.717L129.808 297.626C130.08 298.185 130.348 298.762 130.611 299.357C130.883 299.961 131.132 300.534 131.358 301.077C131.6 301.62 131.799 302.099 131.958 302.514L129.967 302.469C129.838 302.084 129.676 301.628 129.48 301.1C129.292 300.579 129.08 300.029 128.847 299.448C128.613 298.867 128.368 298.29 128.111 297.717ZM135.872 287.082L137.275 288.485L135.669 290.091L134.266 288.689L135.872 287.082ZM130.962 283.756L140.681 293.474L138.18 295.975L136.789 294.583L138.056 293.316L131.064 286.324L129.797 287.591L128.462 286.256L130.962 283.756ZM126.539 294.334L126.855 296.325C126.342 296.22 125.781 296.05 125.17 295.816C124.559 295.597 123.948 295.334 123.337 295.024C122.726 294.73 122.153 294.413 121.617 294.074C121.677 293.833 121.73 293.531 121.775 293.169C121.828 292.814 121.862 292.501 121.877 292.23C122.368 292.554 122.896 292.863 123.461 293.158C124.042 293.452 124.6 293.701 125.136 293.904C125.686 294.108 126.154 294.251 126.539 294.334ZM133.141 309.987L145.982 297.146L147.068 298.232L134.227 311.073L133.141 309.987ZM151.621 304.098L158.342 310.818L157.018 312.142L150.298 305.422L151.621 304.098ZM142.378 311.531L152.47 321.623L151.157 322.935L141.066 312.844L142.378 311.531ZM146.666 306.994L157.007 317.335L155.672 318.67L145.331 308.329L146.666 306.994ZM153.036 306.96L154.427 308.352C153.839 308.835 153.22 309.333 152.572 309.845C151.923 310.358 151.267 310.871 150.603 311.384C149.947 311.905 149.298 312.41 148.657 312.9C148.016 313.39 147.401 313.847 146.813 314.269C146.24 314.692 145.719 315.069 145.252 315.401L143.837 313.986C144.335 313.654 144.882 313.274 145.478 312.844C146.074 312.414 146.689 311.957 147.322 311.475C147.971 310.992 148.623 310.498 149.279 309.993C149.943 309.48 150.592 308.967 151.225 308.454C151.859 307.941 152.462 307.443 153.036 306.96ZM157.719 310.196L159.134 311.61C158.53 312.184 157.893 312.776 157.222 313.387C156.558 313.99 155.883 314.597 155.196 315.208C154.51 315.819 153.835 316.411 153.171 316.984C152.523 317.558 151.897 318.101 151.293 318.614C150.697 319.119 150.151 319.575 149.653 319.983L148.216 318.546C148.721 318.131 149.279 317.671 149.89 317.165C150.509 316.653 151.15 316.11 151.814 315.536C152.485 314.971 153.16 314.386 153.839 313.783C154.525 313.172 155.193 312.565 155.841 311.961C156.505 311.358 157.131 310.769 157.719 310.196Z" fill="black"/>
<path d="M88.334 307.034L102.374 317.366L100.976 319.301L86.9771 308.929L88.334 307.034ZM96.9996 305.973L98.7596 307.733L89.4894 317.003C89.1938 317.299 88.9923 317.545 88.8848 317.742C88.7953 317.939 88.7953 318.136 88.8848 318.333C88.9834 318.521 89.1804 318.763 89.476 319.059C89.5655 319.148 89.6999 319.283 89.879 319.462C90.0582 319.641 90.2597 319.843 90.4836 320.066C90.7075 320.29 90.9314 320.514 91.1554 320.738C91.3793 320.962 91.5808 321.164 91.7599 321.343C91.948 321.531 92.0869 321.67 92.1764 321.759C92.4809 322.064 92.781 322.221 93.0766 322.229C93.3811 322.229 93.7662 322.068 94.232 321.746C94.7067 321.414 95.356 320.89 96.1801 320.174C96.2069 320.416 96.2651 320.689 96.3547 320.993C96.4622 321.298 96.5742 321.589 96.6906 321.867C96.816 322.153 96.9369 322.391 97.0533 322.579C96.086 323.403 95.2486 323.998 94.541 324.366C93.8424 324.724 93.193 324.836 92.5929 324.702C91.9928 324.567 91.3569 324.164 90.6851 323.492C90.5956 323.403 90.4478 323.255 90.2418 323.049C90.0447 322.852 89.8208 322.628 89.57 322.377C89.3282 322.135 89.0819 321.889 88.8311 321.638C88.5803 321.388 88.3564 321.164 88.1593 320.967C87.9623 320.77 87.819 320.626 87.7294 320.537C87.0487 319.856 86.5964 319.242 86.3725 318.696C86.1396 318.159 86.1351 317.617 86.3591 317.07C86.5919 316.533 87.0577 315.915 87.7563 315.216L96.9996 305.973ZM108.984 331.527L111.039 332.319C110.959 332.919 110.847 333.56 110.703 334.24C110.56 334.921 110.403 335.57 110.233 336.188C110.063 336.806 109.879 337.339 109.682 337.787L107.412 336.968C107.609 336.538 107.806 336.018 108.003 335.409C108.2 334.8 108.384 334.151 108.554 333.461C108.733 332.78 108.876 332.136 108.984 331.527ZM112.195 320.658L113.847 322.31L108.984 327.174L107.331 325.521L112.195 320.658ZM102.736 319.798L114.855 331.916L113.31 333.461L101.191 321.343L102.736 319.798ZM106.995 318.226L116.628 327.859L115.097 329.39L105.464 319.757L106.995 318.226ZM108.621 327.509L110.314 329.202L104.738 334.778C104.335 335.181 103.972 335.454 103.65 335.597C103.319 335.75 102.956 335.754 102.562 335.611C102.177 335.476 101.782 335.244 101.379 334.912C100.985 334.59 100.542 334.182 100.049 333.69C100.264 333.421 100.475 333.076 100.681 332.655C100.878 332.243 101.035 331.871 101.151 331.54C101.438 331.844 101.724 332.149 102.011 332.454C102.306 332.749 102.503 332.937 102.602 333.018C102.701 333.116 102.781 333.17 102.844 333.179C102.915 333.179 102.992 333.139 103.072 333.058L108.621 327.509ZM102.011 323.506L103.233 325.561C102.642 325.812 102.006 326.036 101.326 326.233C100.654 326.421 99.9822 326.573 99.3104 326.69C98.6476 326.797 98.0162 326.847 97.4161 326.838C97.3982 326.533 97.3444 326.166 97.2549 325.736C97.1742 325.297 97.0981 324.934 97.0265 324.648C97.5728 324.675 98.1371 324.639 98.7193 324.54C99.3194 324.442 99.906 324.303 100.479 324.124C101.052 323.945 101.563 323.739 102.011 323.506ZM106.014 324.312L107.654 325.951L106.109 327.496C105.634 327.971 105.092 328.45 104.483 328.934C103.883 329.408 103.207 329.825 102.454 330.183C101.711 330.532 100.878 330.774 99.9553 330.909C99.0507 331.043 98.052 331.003 96.9593 330.788C97.0041 330.582 97.0309 330.331 97.0399 330.035C97.0489 329.74 97.0444 329.44 97.0265 329.135C97.0175 328.84 96.9906 328.58 96.9459 328.356C97.8773 328.553 98.7238 328.602 99.4851 328.504C100.255 328.414 100.945 328.226 101.554 327.939C102.172 327.662 102.723 327.335 103.207 326.959C103.699 326.573 104.134 326.193 104.51 325.817L106.014 324.312ZM124.918 336.417C124.04 336.56 123.046 336.623 121.935 336.605C120.833 336.596 119.691 336.502 118.509 336.323C117.336 336.153 116.185 335.897 115.056 335.557C115.119 335.351 115.173 335.109 115.217 334.832C115.271 334.563 115.307 334.285 115.325 333.999C115.352 333.721 115.365 333.466 115.365 333.233C116.503 333.636 117.694 333.922 118.939 334.093C120.193 334.254 121.393 334.317 122.54 334.281C123.695 334.254 124.712 334.133 125.589 333.918L127.269 335.597C127.125 336.475 127.04 337.366 127.013 338.271C126.987 339.176 127.027 340.076 127.134 340.971C127.242 341.867 127.403 342.736 127.618 343.578C127.833 344.42 128.102 345.217 128.424 345.969C128.012 345.969 127.587 346.009 127.148 346.09C126.709 346.171 126.292 346.256 125.898 346.345C125.657 345.566 125.446 344.738 125.267 343.86C125.097 342.991 124.967 342.118 124.877 341.24C124.797 340.353 124.756 339.498 124.756 338.674C124.756 337.85 124.81 337.098 124.918 336.417ZM119.073 335.544L125.831 342.301L124.42 343.712L117.663 336.954L119.073 335.544ZM114.72 336.672L124.676 346.627L123.279 348.025L113.323 338.069L114.72 336.672ZM109.964 340.085L121.384 351.504L120 352.888L108.581 341.468L109.964 340.085ZM120.995 338.593L122.701 340.3L115.741 347.259L114.035 345.553L120.995 338.593ZM113.659 339.426L115.486 340.179C115.432 340.573 115.352 340.985 115.244 341.415C115.146 341.854 115.034 342.27 114.908 342.664C114.783 343.058 114.649 343.39 114.505 343.658L112.504 342.893C112.656 342.633 112.804 342.306 112.947 341.912C113.099 341.509 113.238 341.092 113.363 340.662C113.489 340.232 113.587 339.82 113.659 339.426ZM121.008 345.727L121.989 347.837C121.308 347.98 120.618 348.114 119.92 348.24C119.23 348.356 118.621 348.437 118.093 348.482L117.394 346.762C117.761 346.699 118.155 346.619 118.576 346.52C119.006 346.413 119.432 346.292 119.853 346.157C120.282 346.014 120.668 345.871 121.008 345.727ZM126.973 352.821L135.733 361.581L134.47 362.844L125.71 354.084L126.973 352.821ZM129.485 351.007L138.5 360.022L137.157 361.366L128.142 352.351L129.485 351.007ZM123.131 353.332L135.021 365.222L133.637 366.605L121.747 354.715L123.131 353.332ZM133.435 353.318L135.101 354.984L128.988 361.097L127.322 359.431L133.435 353.318ZM133.368 348.871L132.643 349.597L138.608 355.562L139.333 354.836L133.368 348.871ZM135.209 347.031L134.51 347.729L140.475 353.694L141.174 352.996L135.209 347.031ZM134.846 344.223L144.062 353.439L139.051 358.45L129.835 349.234L134.846 344.223ZM130.668 349.798L131.783 351.827C131.147 352.069 130.48 352.261 129.781 352.405C129.082 352.548 128.393 352.646 127.712 352.7C127.031 352.754 126.404 352.763 125.831 352.727C125.822 352.521 125.8 352.275 125.764 351.988C125.728 351.701 125.683 351.415 125.63 351.128C125.585 350.833 125.531 350.582 125.468 350.376C126.283 350.492 127.152 350.501 128.075 350.403C129.015 350.304 129.88 350.103 130.668 349.798Z" fill="black"/>
<path d="M307.132 80.1554L319.573 92.5962L317.813 94.3562L305.372 81.9154L307.132 80.1554ZM317.773 100.389L326.116 108.732L324.491 110.357L316.147 102.014L317.773 100.389ZM321.857 96.2505L330.227 104.621L328.629 106.219L320.258 97.8493L321.857 96.2505ZM325.055 91.3871L335.225 101.557L324.598 112.184L322.878 110.465L331.866 101.477L325.041 94.6518L316.04 103.653L314.414 102.028L325.055 91.3871ZM331.007 93.3083L332.834 95.6997C332.126 95.9953 331.419 96.264 330.711 96.5058C330.003 96.7476 329.385 96.9447 328.857 97.0969L327.581 95.1757C327.939 95.0145 328.32 94.8309 328.723 94.6249C329.135 94.4278 329.538 94.2129 329.932 93.98C330.335 93.7561 330.693 93.5322 331.007 93.3083ZM336.192 105.212L339.927 108.947L338.302 110.572L334.567 106.837L336.192 105.212ZM344.697 107.133L346.416 108.853L335.897 119.372C335.413 119.856 334.979 120.174 334.594 120.326C334.209 120.478 333.801 120.483 333.371 120.34C332.941 120.196 332.48 119.923 331.987 119.52C331.495 119.135 330.939 118.633 330.321 118.015C330.474 117.827 330.626 117.585 330.778 117.29C330.93 117.012 331.069 116.721 331.195 116.417C331.329 116.103 331.427 115.825 331.49 115.584C331.911 116.04 332.314 116.461 332.699 116.846C333.084 117.232 333.344 117.491 333.479 117.626C333.613 117.76 333.734 117.827 333.841 117.827C333.949 117.827 334.061 117.769 334.177 117.653L344.697 107.133ZM339.377 108.396L339.712 108.732L340.075 108.96L340.774 110.465C339.35 111.495 337.939 112.314 336.542 112.923C335.153 113.541 333.814 113.967 332.525 114.2C331.253 114.433 330.057 114.464 328.938 114.294C328.982 114.07 329.005 113.797 329.005 113.474C329.014 113.143 329.005 112.811 328.978 112.48C328.96 112.158 328.924 111.889 328.87 111.674C329.909 111.871 330.989 111.893 332.108 111.741C333.237 111.58 334.383 111.249 335.548 110.747C336.73 110.245 337.89 109.578 339.027 108.745L339.377 108.396ZM344.348 110.707C343.667 111.817 343.08 112.95 342.588 114.106C342.104 115.27 341.732 116.439 341.472 117.612C341.213 118.786 341.101 119.954 341.137 121.119C341.19 122.283 341.414 123.421 341.808 124.531C341.566 124.504 341.28 124.495 340.948 124.504C340.617 124.513 340.281 124.545 339.941 124.598C339.618 124.652 339.327 124.71 339.068 124.773C338.62 123.143 338.499 121.499 338.705 119.842C338.92 118.177 339.39 116.497 340.115 114.804C340.841 113.111 341.737 111.41 342.802 109.699L344.348 110.707ZM347.988 114.616L348.445 117.196C347.666 117.205 346.851 117.205 346 117.196C345.149 117.187 344.321 117.155 343.515 117.102C342.717 117.057 341.992 116.985 341.338 116.887L341.069 114.818C341.741 114.88 342.48 114.912 343.286 114.912C344.101 114.921 344.916 114.903 345.731 114.858C346.555 114.804 347.308 114.724 347.988 114.616ZM345.973 125.821L354.733 134.581L353.47 135.844L344.71 127.084L345.973 125.821ZM348.485 124.007L357.5 133.022L356.157 134.366L347.142 125.351L348.485 124.007ZM342.131 126.332L354.021 138.222L352.637 139.605L340.747 127.715L342.131 126.332ZM352.435 126.318L354.101 127.984L347.988 134.097L346.322 132.431L352.435 126.318ZM352.368 121.871L351.643 122.597L357.608 128.562L358.333 127.836L352.368 121.871ZM354.209 120.031L353.51 120.729L359.475 126.694L360.174 125.996L354.209 120.031ZM353.846 117.223L363.062 126.439L358.051 131.45L348.835 122.234L353.846 117.223ZM349.668 122.798L350.783 124.827C350.147 125.069 349.48 125.261 348.781 125.405C348.082 125.548 347.393 125.646 346.712 125.7C346.031 125.754 345.404 125.763 344.831 125.727C344.822 125.521 344.8 125.275 344.764 124.988C344.728 124.701 344.683 124.415 344.63 124.128C344.585 123.833 344.531 123.582 344.468 123.376C345.283 123.492 346.152 123.501 347.075 123.403C348.015 123.304 348.88 123.103 349.668 122.798Z" fill="black"/>
<path d="M213.008 125.194H228.992V127.21H213.008V125.194ZM216.968 132.934H225.014V134.608H216.968V132.934ZM216.59 135.796H225.41V137.524H216.59V135.796ZM219.92 133.762H221.954V140.098H219.92V133.762ZM213.692 128.56H226.724V130.54H215.852V140.566H213.692V128.56ZM226.112 128.56H228.326V138.406C228.326 138.922 228.254 139.318 228.11 139.594C227.966 139.882 227.714 140.098 227.354 140.242C226.982 140.398 226.526 140.488 225.986 140.512C225.458 140.548 224.828 140.566 224.096 140.566C224.048 140.29 223.952 139.978 223.808 139.63C223.676 139.282 223.538 138.982 223.394 138.73C223.694 138.742 224 138.754 224.312 138.766C224.624 138.778 224.906 138.784 225.158 138.784C225.422 138.772 225.596 138.766 225.68 138.766C225.848 138.766 225.962 138.742 226.022 138.694C226.082 138.634 226.112 138.538 226.112 138.406V128.56ZM217.652 131.026L219.362 130.522C219.578 130.81 219.776 131.14 219.956 131.512C220.148 131.884 220.292 132.208 220.388 132.484L218.588 133.078C218.516 132.79 218.39 132.454 218.21 132.07C218.03 131.686 217.844 131.338 217.652 131.026ZM222.728 130.558L224.546 131.062C224.306 131.494 224.066 131.914 223.826 132.322C223.598 132.718 223.376 133.066 223.16 133.366L221.63 132.898C221.762 132.682 221.894 132.436 222.026 132.16C222.17 131.884 222.302 131.608 222.422 131.332C222.542 131.056 222.644 130.798 222.728 130.558ZM219.848 123.826H222.206V129.964H219.848V123.826Z" fill="black"/>
<path d="M215.744 79.336L217.792 79.832C217.536 80.6427 217.227 81.4373 216.864 82.216C216.501 82.984 216.112 83.704 215.696 84.376C215.28 85.048 214.848 85.6293 214.4 86.12C214.272 86.0133 214.096 85.8853 213.872 85.736C213.648 85.5867 213.419 85.4427 213.184 85.304C212.96 85.1547 212.763 85.0373 212.592 84.952C213.051 84.5147 213.477 83.9973 213.872 83.4C214.277 82.8027 214.635 82.1573 214.944 81.464C215.264 80.7707 215.531 80.0613 215.744 79.336ZM216.192 81.416H225.984V83.288H215.232L216.192 81.416ZM212.784 86.616H227.248V88.552H212.784V86.616ZM219.008 82.248H221.008V94.44H219.008V82.248Z" fill="black"/>
<path d="M301.988 224.524H314.192V226.522H301.988V224.524ZM300.602 215.722H315.452V227.512H313.256V217.72H302.708V227.548H300.602V215.722ZM308.738 216.55H310.808V219.79C310.808 220.018 310.826 220.162 310.862 220.222C310.91 220.27 311.024 220.294 311.204 220.294C311.24 220.294 311.318 220.294 311.438 220.294C311.57 220.294 311.696 220.294 311.816 220.294C311.948 220.294 312.044 220.294 312.104 220.294C312.212 220.294 312.29 220.276 312.338 220.24C312.398 220.192 312.44 220.102 312.464 219.97C312.5 219.838 312.524 219.634 312.536 219.358C312.656 219.454 312.818 219.556 313.022 219.664C313.238 219.76 313.46 219.85 313.688 219.934C313.928 220.006 314.144 220.06 314.336 220.096C314.252 220.648 314.132 221.074 313.976 221.374C313.82 221.674 313.61 221.884 313.346 222.004C313.094 222.124 312.764 222.184 312.356 222.184C312.26 222.184 312.146 222.184 312.014 222.184C311.882 222.184 311.738 222.184 311.582 222.184C311.438 222.184 311.3 222.184 311.168 222.184C311.036 222.184 310.928 222.184 310.844 222.184C310.268 222.184 309.824 222.112 309.512 221.968C309.212 221.824 309.008 221.578 308.9 221.23C308.792 220.882 308.738 220.408 308.738 219.808V216.55ZM299.882 211.69H316.064V213.778H299.882V211.69ZM304.796 213.274H306.92V216.874H304.796V213.274ZM308.738 213.274H310.916V216.874H308.738V213.274ZM304.904 216.136H306.92V217.918C306.92 218.518 306.842 219.136 306.686 219.772C306.53 220.408 306.236 221.014 305.804 221.59C305.372 222.166 304.742 222.67 303.914 223.102C303.818 222.97 303.674 222.814 303.482 222.634C303.29 222.454 303.086 222.28 302.87 222.112C302.666 221.944 302.492 221.818 302.348 221.734C303.104 221.35 303.662 220.942 304.022 220.51C304.394 220.078 304.634 219.634 304.742 219.178C304.85 218.722 304.904 218.284 304.904 217.864V216.136Z" fill="black"/>
<path d="M347.928 224.008H358.488V225.688H347.928V224.008ZM347.928 221.448H358.52V223.032H347.928V221.448ZM346.584 215.672H359.48V226.424H357.608V217.384H348.376V226.424H346.584V215.672ZM353.352 213.512H355.192V218.568C355.192 218.803 355.208 218.947 355.24 219C355.283 219.053 355.368 219.08 355.496 219.08C355.528 219.08 355.576 219.08 355.64 219.08C355.704 219.08 355.773 219.08 355.848 219.08C355.923 219.08 355.992 219.08 356.056 219.08C356.131 219.08 356.184 219.08 356.216 219.08C356.291 219.08 356.349 219.059 356.392 219.016C356.445 218.973 356.483 218.888 356.504 218.76C356.525 218.632 356.541 218.445 356.552 218.2C356.733 218.328 356.973 218.451 357.272 218.568C357.581 218.685 357.859 218.776 358.104 218.84C358.019 219.523 357.848 219.992 357.592 220.248C357.336 220.504 356.941 220.632 356.408 220.632C356.333 220.632 356.237 220.632 356.12 220.632C356.013 220.632 355.896 220.632 355.768 220.632C355.651 220.632 355.539 220.632 355.432 220.632C355.325 220.632 355.235 220.632 355.16 220.632C354.659 220.632 354.28 220.573 354.024 220.456C353.768 220.328 353.592 220.115 353.496 219.816C353.4 219.507 353.352 219.091 353.352 218.568V213.512ZM350.312 213.512H352.04V217.016C352.04 217.667 351.965 218.248 351.816 218.76C351.677 219.272 351.4 219.72 350.984 220.104C350.568 220.488 349.944 220.808 349.112 221.064C348.995 220.861 348.829 220.632 348.616 220.376C348.403 220.12 348.205 219.907 348.024 219.736C348.675 219.544 349.165 219.315 349.496 219.048C349.827 218.781 350.045 218.477 350.152 218.136C350.259 217.784 350.312 217.405 350.312 217V213.512ZM345.864 212.312H360.168V214.152H345.864V212.312Z" fill="black"/>
<path d="M213.008 301.984H218.354V304.126H213.008V301.984ZM221.81 298.006H224.06V310.984C224.06 311.488 224.102 311.812 224.186 311.956C224.27 312.088 224.48 312.154 224.816 312.154C224.888 312.154 225.008 312.154 225.176 312.154C225.344 312.154 225.53 312.154 225.734 312.154C225.938 312.154 226.124 312.154 226.292 312.154C226.46 312.154 226.586 312.154 226.67 312.154C226.91 312.154 227.09 312.052 227.21 311.848C227.33 311.644 227.414 311.278 227.462 310.75C227.522 310.21 227.57 309.46 227.606 308.5C227.786 308.632 227.996 308.764 228.236 308.896C228.488 309.028 228.74 309.148 228.992 309.256C229.244 309.352 229.472 309.424 229.676 309.472C229.604 310.624 229.478 311.554 229.298 312.262C229.13 312.97 228.854 313.48 228.47 313.792C228.098 314.116 227.57 314.278 226.886 314.278C226.79 314.278 226.628 314.278 226.4 314.278C226.172 314.278 225.926 314.278 225.662 314.278C225.41 314.278 225.176 314.278 224.96 314.278C224.744 314.278 224.582 314.278 224.474 314.278C223.79 314.278 223.25 314.176 222.854 313.972C222.47 313.78 222.2 313.444 222.044 312.964C221.888 312.472 221.81 311.806 221.81 310.966V298.006ZM217.274 298.006H219.524V314.422H217.274V298.006ZM227.75 300.688L229.316 302.632C228.692 303.052 228.032 303.472 227.336 303.892C226.64 304.3 225.932 304.702 225.212 305.098C224.504 305.482 223.808 305.842 223.124 306.178C223.052 305.938 222.926 305.656 222.746 305.332C222.566 304.996 222.404 304.714 222.26 304.486C222.908 304.138 223.562 303.748 224.222 303.316C224.882 302.884 225.512 302.44 226.112 301.984C226.724 301.528 227.27 301.096 227.75 300.688ZM212.36 310.138C212.852 309.994 213.422 309.82 214.07 309.616C214.718 309.4 215.402 309.166 216.122 308.914C216.842 308.65 217.556 308.392 218.264 308.14L218.678 310.084C217.778 310.492 216.854 310.894 215.906 311.29C214.97 311.686 214.112 312.046 213.332 312.37L212.36 310.138Z" fill="black"/>
<path d="M213.624 350.408H228.392V352.344H213.624V350.408ZM220.008 347.864H222.024V356.2C222.024 356.744 221.949 357.165 221.8 357.464C221.661 357.763 221.395 357.987 221 358.136C220.616 358.285 220.147 358.381 219.592 358.424C219.037 358.467 218.392 358.483 217.656 358.472C217.624 358.28 217.56 358.061 217.464 357.816C217.368 357.581 217.267 357.341 217.16 357.096C217.053 356.861 216.947 356.659 216.84 356.488C217.213 356.499 217.581 356.509 217.944 356.52C218.317 356.531 218.648 356.536 218.936 356.536C219.235 356.536 219.443 356.536 219.56 356.536C219.731 356.536 219.848 356.509 219.912 356.456C219.976 356.403 220.008 356.307 220.008 356.168V347.864ZM215.304 344.392H225.384V346.28H215.304V344.392ZM224.744 344.392H225.256L225.704 344.28L227.16 345.384C226.669 345.907 226.104 346.429 225.464 346.952C224.835 347.475 224.179 347.976 223.496 348.456C222.813 348.925 222.147 349.331 221.496 349.672C221.4 349.533 221.277 349.379 221.128 349.208C220.979 349.037 220.824 348.872 220.664 348.712C220.504 348.541 220.36 348.397 220.232 348.28C220.808 347.992 221.389 347.645 221.976 347.24C222.573 346.835 223.117 346.419 223.608 345.992C224.099 345.565 224.477 345.176 224.744 344.824V344.392Z" fill="black"/>
<path d="M189.118 385.116H191.607C191.594 386.623 191.563 388.093 191.512 389.524C191.461 390.943 191.335 392.298 191.132 393.59C190.929 394.869 190.6 396.073 190.144 397.2C189.688 398.315 189.048 399.341 188.225 400.278C187.414 401.203 186.363 402.013 185.071 402.71C184.97 402.52 184.824 402.305 184.634 402.064C184.444 401.836 184.241 401.608 184.026 401.38C183.823 401.165 183.621 400.994 183.418 400.867C184.621 400.246 185.584 399.531 186.306 398.72C187.041 397.909 187.604 397.016 187.997 396.041C188.39 395.053 188.662 393.983 188.814 392.83C188.966 391.677 189.048 390.455 189.061 389.163C189.086 387.871 189.105 386.522 189.118 385.116ZM184.387 389.524H196.072V391.823H184.387V389.524ZM194.818 389.524H197.193V399.29C197.193 399.695 197.225 399.955 197.288 400.069C197.351 400.17 197.497 400.221 197.725 400.221C197.776 400.221 197.858 400.221 197.972 400.221C198.086 400.221 198.213 400.221 198.352 400.221C198.491 400.221 198.618 400.221 198.732 400.221C198.859 400.221 198.947 400.221 198.998 400.221C199.163 400.221 199.283 400.145 199.359 399.993C199.435 399.841 199.492 399.556 199.53 399.138C199.568 398.72 199.6 398.112 199.625 397.314C199.815 397.453 200.03 397.586 200.271 397.713C200.524 397.84 200.784 397.96 201.05 398.074C201.316 398.175 201.557 398.251 201.772 398.302C201.709 399.328 201.588 400.145 201.411 400.753C201.234 401.348 200.974 401.773 200.632 402.026C200.29 402.292 199.828 402.425 199.245 402.425C199.144 402.425 199.004 402.425 198.827 402.425C198.65 402.425 198.46 402.425 198.257 402.425C198.054 402.425 197.864 402.425 197.687 402.425C197.522 402.425 197.396 402.425 197.307 402.425C196.686 402.425 196.192 402.33 195.825 402.14C195.47 401.963 195.211 401.646 195.046 401.19C194.894 400.734 194.818 400.094 194.818 399.271V389.524ZM210.284 397.39H212.64V402.71H210.284V397.39ZM202.855 396.592C203.78 396.592 204.831 396.592 206.009 396.592C207.187 396.579 208.441 396.567 209.771 396.554C211.101 396.529 212.469 396.51 213.875 396.497C215.281 396.472 216.674 396.453 218.055 396.44L217.941 398.245C216.586 398.296 215.218 398.34 213.837 398.378C212.469 398.416 211.126 398.454 209.809 398.492C208.504 398.517 207.263 398.549 206.085 398.587C204.92 398.612 203.868 398.631 202.931 398.644L202.855 396.592ZM209.847 391.386L211.956 392.222C211.373 392.767 210.753 393.292 210.094 393.799C209.448 394.293 208.846 394.711 208.289 395.053L206.541 394.236C206.908 393.983 207.295 393.698 207.7 393.381C208.118 393.052 208.511 392.716 208.878 392.374C209.245 392.019 209.568 391.69 209.847 391.386ZM213.894 392.545L216.136 393.457C215.389 394.04 214.578 394.61 213.704 395.167C212.843 395.724 211.981 396.25 211.12 396.744C210.259 397.238 209.448 397.669 208.688 398.036L206.959 397.105C207.732 396.725 208.542 396.275 209.391 395.756C210.252 395.237 211.076 394.698 211.861 394.141C212.646 393.571 213.324 393.039 213.894 392.545ZM204.755 394.369L206.389 393.039C206.908 393.254 207.447 393.501 208.004 393.78C208.574 394.046 209.119 394.318 209.638 394.597C210.157 394.863 210.607 395.11 210.987 395.338L209.334 396.839C208.979 396.598 208.536 396.332 208.004 396.041C207.485 395.737 206.94 395.439 206.37 395.148C205.813 394.857 205.274 394.597 204.755 394.369ZM213.78 399.917L215.756 398.872C216.25 399.113 216.763 399.391 217.295 399.708C217.827 400.012 218.34 400.322 218.834 400.639C219.341 400.943 219.771 401.215 220.126 401.456L218.093 402.653C217.764 402.387 217.352 402.089 216.858 401.76C216.364 401.443 215.845 401.12 215.3 400.791C214.768 400.449 214.261 400.158 213.78 399.917ZM206.845 398.91L209.011 399.746C208.631 400.113 208.181 400.481 207.662 400.848C207.155 401.215 206.63 401.557 206.085 401.874C205.553 402.191 205.04 402.469 204.546 402.71C204.407 402.571 204.223 402.4 203.995 402.197C203.78 402.007 203.552 401.817 203.311 401.627C203.083 401.45 202.88 401.304 202.703 401.19C203.463 400.911 204.223 400.569 204.983 400.164C205.743 399.759 206.364 399.341 206.845 398.91ZM214.445 395.433L216.402 394.578C216.871 394.945 217.358 395.357 217.865 395.813C218.384 396.269 218.872 396.725 219.328 397.181C219.784 397.637 220.158 398.055 220.449 398.435L218.321 399.385C218.068 399.018 217.726 398.606 217.295 398.15C216.877 397.681 216.415 397.213 215.908 396.744C215.401 396.263 214.914 395.826 214.445 395.433ZM207.833 386.522H211.405V388.327H207.833V386.522ZM212.089 384.85H214.35V389.695C214.35 389.999 214.401 390.195 214.502 390.284C214.616 390.36 214.863 390.398 215.243 390.398C215.332 390.398 215.477 390.398 215.68 390.398C215.883 390.398 216.104 390.398 216.345 390.398C216.586 390.398 216.814 390.398 217.029 390.398C217.244 390.398 217.403 390.398 217.504 390.398C217.719 390.398 217.878 390.366 217.979 390.303C218.093 390.227 218.175 390.088 218.226 389.885C218.277 389.67 218.315 389.359 218.34 388.954C218.568 389.106 218.878 389.258 219.271 389.41C219.664 389.549 220.018 389.651 220.335 389.714C220.246 390.411 220.107 390.955 219.917 391.348C219.727 391.728 219.461 391.994 219.119 392.146C218.777 392.298 218.315 392.374 217.732 392.374C217.631 392.374 217.485 392.374 217.295 392.374C217.118 392.374 216.915 392.374 216.687 392.374C216.459 392.374 216.225 392.374 215.984 392.374C215.756 392.374 215.547 392.374 215.357 392.374C215.18 392.374 215.047 392.374 214.958 392.374C214.185 392.374 213.59 392.292 213.172 392.127C212.767 391.962 212.482 391.69 212.317 391.31C212.165 390.917 212.089 390.385 212.089 389.714V384.85ZM202.627 390.664C203.362 390.601 204.21 390.518 205.173 390.417C206.148 390.303 207.174 390.183 208.251 390.056C209.34 389.929 210.423 389.803 211.5 389.676L211.557 391.462C210.531 391.614 209.492 391.766 208.441 391.918C207.39 392.057 206.383 392.197 205.42 392.336C204.47 392.463 203.602 392.583 202.817 392.697L202.627 390.664ZM218.112 385.762L219.803 387.358C219.195 387.624 218.536 387.871 217.827 388.099C217.13 388.314 216.415 388.517 215.68 388.707C214.945 388.884 214.236 389.043 213.552 389.182C213.514 388.954 213.425 388.682 213.286 388.365C213.159 388.036 213.033 387.763 212.906 387.548C213.527 387.383 214.16 387.206 214.806 387.016C215.452 386.826 216.06 386.623 216.63 386.408C217.2 386.193 217.694 385.977 218.112 385.762ZM206.902 384.85H209.011V391.31L206.902 391.462V384.85ZM203.805 386.256H205.762V391.481L203.805 391.652V386.256ZM224.363 388.631L226.662 389.144C226.561 389.929 226.415 390.696 226.225 391.443C226.048 392.19 225.794 392.887 225.465 393.533C225.136 394.166 224.699 394.711 224.154 395.167L222.083 393.875C222.552 393.482 222.932 393.02 223.223 392.488C223.527 391.943 223.768 391.348 223.945 390.702C224.135 390.043 224.274 389.353 224.363 388.631ZM236.029 388.612L238.556 389.562C238.227 390.17 237.885 390.797 237.53 391.443C237.175 392.076 236.821 392.684 236.466 393.267C236.124 393.837 235.788 394.337 235.459 394.768L233.502 393.894C233.793 393.425 234.097 392.887 234.414 392.279C234.743 391.671 235.047 391.05 235.326 390.417C235.605 389.771 235.839 389.169 236.029 388.612ZM230.405 385.116H231.64V391.082C231.64 391.551 231.691 392.064 231.792 392.621C231.906 393.178 232.083 393.748 232.324 394.331C232.565 394.914 232.881 395.496 233.274 396.079C233.679 396.662 234.167 397.225 234.737 397.77C235.307 398.315 235.972 398.828 236.732 399.309C237.505 399.778 238.385 400.196 239.373 400.563C239.196 400.728 239.006 400.937 238.803 401.19C238.6 401.443 238.404 401.703 238.214 401.969C238.037 402.235 237.891 402.476 237.777 402.691C236.865 402.324 236.042 401.887 235.307 401.38C234.572 400.873 233.92 400.341 233.35 399.784C232.793 399.214 232.311 398.644 231.906 398.074C231.501 397.504 231.171 396.966 230.918 396.459C230.677 395.952 230.5 395.509 230.386 395.129C230.297 395.522 230.133 395.971 229.892 396.478C229.664 396.985 229.354 397.523 228.961 398.093C228.581 398.65 228.119 399.208 227.574 399.765C227.042 400.322 226.415 400.854 225.693 401.361C224.984 401.868 224.186 402.311 223.299 402.691C223.198 402.514 223.052 402.305 222.862 402.064C222.672 401.823 222.469 401.583 222.254 401.342C222.039 401.101 221.849 400.905 221.684 400.753C222.837 400.322 223.831 399.803 224.667 399.195C225.516 398.574 226.225 397.916 226.795 397.219C227.365 396.522 227.821 395.813 228.163 395.091C228.518 394.356 228.771 393.653 228.923 392.982C229.088 392.298 229.17 391.665 229.17 391.082V385.116H230.405ZM243.477 397.181H255.865V398.967H243.477V397.181ZM243.971 394.122H256.72V396.022H243.971V394.122ZM241.121 400.259H257.936V402.216H241.121V400.259ZM248.398 392.963H250.754V401.608H248.398V392.963ZM245.206 389.866V390.892H253.642V389.866H245.206ZM245.206 387.263V388.251H253.642V387.263H245.206ZM242.964 385.534H255.998V392.621H242.964V385.534ZM243.952 392.431L246.175 393.077C245.896 393.698 245.561 394.306 245.168 394.901C244.775 395.496 244.357 396.054 243.914 396.573C243.471 397.092 243.034 397.542 242.603 397.922C242.451 397.783 242.261 397.624 242.033 397.447C241.805 397.27 241.571 397.099 241.33 396.934C241.089 396.757 240.874 396.617 240.684 396.516C241.343 396.022 241.963 395.414 242.546 394.692C243.141 393.957 243.61 393.204 243.952 392.431Z" fill="black"/>
<path d="M186.598 35.18H194.445V37.612H186.598V35.18ZM192.564 35.18H195.3C195.427 36.662 195.591 38.1187 195.794 39.55C196.009 40.9813 196.307 42.343 196.687 43.635C197.08 44.9143 197.574 46.0797 198.169 47.131C198.777 48.1697 199.531 49.05 200.43 49.772C200.215 49.8987 199.968 50.0697 199.689 50.285C199.41 50.513 199.138 50.7473 198.872 50.988C198.619 51.2287 198.397 51.444 198.207 51.634C197.295 50.798 196.529 49.8163 195.908 48.689C195.287 47.549 194.781 46.314 194.388 44.984C194.008 43.654 193.71 42.2607 193.495 40.804C193.28 39.3473 193.115 37.878 193.001 36.396H192.564V35.18ZM187.092 39.265L189.733 39.626C189.543 40.728 189.302 41.849 189.011 42.989C188.732 44.1163 188.384 45.2183 187.966 46.295C187.548 47.359 187.054 48.3597 186.484 49.297C185.914 50.2217 185.243 51.0323 184.47 51.729C184.331 51.5517 184.141 51.3553 183.9 51.14C183.672 50.9373 183.431 50.7347 183.178 50.532C182.937 50.342 182.722 50.1837 182.532 50.057C183.254 49.449 183.875 48.727 184.394 47.891C184.913 47.0423 185.35 46.1367 185.705 45.174C186.06 44.1987 186.345 43.2107 186.56 42.21C186.788 41.1967 186.965 40.215 187.092 39.265ZM204.553 48.138H216.352V50.437H204.553V48.138ZM204.515 42.324H216.352V44.585H204.515V42.324ZM203.337 36.624H217.72V51.653H215.288V38.942H205.636V51.672H203.337V36.624ZM208.904 33.774L211.887 34.173C211.596 34.8823 211.285 35.5727 210.956 36.244C210.627 36.9153 210.329 37.4917 210.063 37.973L207.802 37.517C207.941 37.1497 208.081 36.7507 208.22 36.32C208.372 35.8893 208.505 35.4523 208.619 35.009C208.746 34.5657 208.841 34.154 208.904 33.774ZM222.128 39.759H236.91V42.001H222.128V39.759ZM220.874 48.651H238.183V50.893H220.874V48.651ZM228.246 33.888H230.697V50.19H228.246V33.888ZM242.477 46.181H254.865V47.967H242.477V46.181ZM242.971 43.122H255.72V45.022H242.971V43.122ZM240.121 49.259H256.936V51.216H240.121V49.259ZM247.398 41.963H249.754V50.608H247.398V41.963ZM244.206 38.866V39.892H252.642V38.866H244.206ZM244.206 36.263V37.251H252.642V36.263H244.206ZM241.964 34.534H254.998V41.621H241.964V34.534ZM242.952 41.431L245.175 42.077C244.896 42.6977 244.561 43.3057 244.168 43.901C243.775 44.4963 243.357 45.0537 242.914 45.573C242.471 46.0923 242.034 46.542 241.603 46.922C241.451 46.7827 241.261 46.6243 241.033 46.447C240.805 46.2697 240.571 46.0987 240.33 45.934C240.089 45.7567 239.874 45.6173 239.684 45.516C240.343 45.022 240.963 44.414 241.546 43.692C242.141 42.9573 242.61 42.2037 242.952 41.431Z" fill="black"/>
<path d="M203.659 197.998H221.425V215.113H218.758V200.434H206.2V215.281H203.659V197.998ZM205.003 211.48H220.144V213.895H205.003V211.48ZM213.214 199.762H215.671V205.6C215.671 205.922 215.692 206.111 215.734 206.167C215.804 206.237 215.916 206.272 216.07 206.272C216.14 206.272 216.231 206.272 216.343 206.272C216.455 206.272 216.546 206.272 216.616 206.272C216.686 206.272 216.756 206.265 216.826 206.251C216.91 206.237 216.973 206.216 217.015 206.188C217.057 206.16 217.099 206.118 217.141 206.062C217.197 205.992 217.232 205.887 217.246 205.747C217.274 205.607 217.288 205.39 217.288 205.096C217.302 204.788 217.316 204.438 217.33 204.046C217.554 204.242 217.848 204.438 218.212 204.634C218.59 204.83 218.94 204.977 219.262 205.075C219.234 205.495 219.192 205.915 219.136 206.335C219.094 206.741 219.031 207.042 218.947 207.238C218.849 207.448 218.73 207.623 218.59 207.763C218.464 207.889 218.296 208.001 218.086 208.099C217.918 208.183 217.708 208.246 217.456 208.288C217.218 208.316 216.994 208.33 216.784 208.33C216.658 208.33 216.511 208.33 216.343 208.33C216.175 208.33 216.007 208.33 215.839 208.33C215.685 208.33 215.545 208.33 215.419 208.33C215.139 208.33 214.852 208.288 214.558 208.204C214.264 208.12 214.012 207.987 213.802 207.805C213.606 207.623 213.459 207.378 213.361 207.07C213.263 206.762 213.214 206.251 213.214 205.537V199.762ZM208.972 199.72H211.429C211.387 201.162 211.268 202.499 211.072 203.731C210.876 204.963 210.526 206.069 210.022 207.049C209.518 208.029 208.755 208.869 207.733 209.569C207.593 209.275 207.369 208.946 207.061 208.582C206.753 208.204 206.459 207.903 206.179 207.679C207.005 207.133 207.607 206.468 207.985 205.684C208.363 204.886 208.615 203.99 208.741 202.996C208.867 201.988 208.944 200.896 208.972 199.72ZM241.375 205.663L243.286 206.923C242.866 207.413 242.432 207.91 241.984 208.414C241.55 208.918 241.158 209.345 240.808 209.695L239.275 208.603C239.499 208.337 239.737 208.036 239.989 207.7C240.255 207.364 240.507 207.021 240.745 206.671C240.997 206.307 241.207 205.971 241.375 205.663ZM231.988 206.965L233.71 205.831C234.088 206.237 234.473 206.699 234.865 207.217C235.257 207.721 235.544 208.176 235.726 208.582L233.899 209.842C233.731 209.436 233.458 208.967 233.08 208.435C232.716 207.889 232.352 207.399 231.988 206.965ZM232.576 196.927H241.438V204.025H238.981V198.964H232.576V196.927ZM233.08 200.014H240.346V201.967H233.08V200.014ZM231.589 203.08H243.181V205.18H231.589V203.08ZM236.188 204.025H238.519V213.475C238.519 214.007 238.463 214.427 238.351 214.735C238.239 215.057 238.008 215.302 237.658 215.47C237.336 215.652 236.937 215.764 236.461 215.806C235.999 215.862 235.453 215.89 234.823 215.89C234.795 215.568 234.718 215.197 234.592 214.777C234.466 214.371 234.333 214.014 234.193 213.706C234.543 213.72 234.879 213.734 235.201 213.748C235.537 213.748 235.761 213.741 235.873 213.727C236.083 213.727 236.188 213.629 236.188 213.433V204.025ZM230.77 212.551C231.33 212.243 232.009 211.844 232.807 211.354C233.605 210.85 234.417 210.332 235.243 209.8L236.02 211.69C235.348 212.208 234.655 212.726 233.941 213.244C233.241 213.748 232.583 214.224 231.967 214.672L230.77 212.551ZM238.435 205.18C238.561 205.866 238.75 206.58 239.002 207.322C239.254 208.05 239.576 208.771 239.968 209.485C240.36 210.185 240.843 210.829 241.417 211.417C242.005 211.991 242.698 212.467 243.496 212.845C243.342 212.985 243.167 213.174 242.971 213.412C242.775 213.65 242.586 213.895 242.404 214.147C242.222 214.413 242.075 214.651 241.963 214.861C241.207 214.399 240.549 213.832 239.989 213.16C239.443 212.488 238.974 211.767 238.582 210.997C238.19 210.213 237.868 209.436 237.616 208.666C237.378 207.896 237.189 207.182 237.049 206.524L238.435 205.18ZM226.759 196.171L228.943 196.948C228.663 197.494 228.369 198.054 228.061 198.628C227.753 199.188 227.452 199.734 227.158 200.266C226.864 200.784 226.584 201.239 226.318 201.631L224.638 200.938C224.89 200.504 225.149 200.014 225.415 199.468C225.681 198.922 225.933 198.355 226.171 197.767C226.423 197.179 226.619 196.647 226.759 196.171ZM229.132 198.67L231.19 199.594C230.672 200.378 230.112 201.204 229.51 202.072C228.908 202.94 228.306 203.773 227.704 204.571C227.102 205.369 226.528 206.069 225.982 206.671L224.533 205.873C224.925 205.397 225.331 204.865 225.751 204.277C226.185 203.675 226.605 203.052 227.011 202.408C227.431 201.75 227.823 201.099 228.187 200.455C228.551 199.811 228.866 199.216 229.132 198.67ZM223.525 201.085L224.764 199.384C225.114 199.72 225.478 200.084 225.856 200.476C226.234 200.868 226.584 201.26 226.906 201.652C227.228 202.044 227.466 202.408 227.62 202.744L226.276 204.655C226.122 204.319 225.891 203.941 225.583 203.521C225.289 203.101 224.96 202.681 224.596 202.261C224.232 201.827 223.875 201.435 223.525 201.085ZM228.418 203.689L230.182 202.975C230.462 203.437 230.728 203.941 230.98 204.487C231.232 205.033 231.456 205.565 231.652 206.083C231.848 206.587 231.988 207.042 232.072 207.448L230.161 208.288C230.105 207.882 229.986 207.413 229.804 206.881C229.622 206.349 229.412 205.81 229.174 205.264C228.936 204.704 228.684 204.179 228.418 203.689ZM223.462 205.369C224.4 205.327 225.506 205.271 226.78 205.201C228.054 205.117 229.349 205.033 230.665 204.949L230.707 207.007C229.475 207.105 228.243 207.203 227.011 207.301C225.793 207.385 224.694 207.469 223.714 207.553L223.462 205.369ZM229.006 208.96L230.749 208.435C231.001 209.009 231.225 209.646 231.421 210.346C231.631 211.046 231.764 211.641 231.82 212.131L229.951 212.74C229.909 212.236 229.797 211.634 229.615 210.934C229.447 210.22 229.244 209.562 229.006 208.96ZM224.365 208.498L226.381 208.855C226.269 209.863 226.101 210.857 225.877 211.837C225.667 212.803 225.415 213.622 225.121 214.294C224.981 214.196 224.799 214.091 224.575 213.979C224.351 213.867 224.12 213.762 223.882 213.664C223.644 213.552 223.441 213.468 223.273 213.412C223.581 212.782 223.819 212.026 223.987 211.144C224.155 210.262 224.281 209.38 224.365 208.498ZM226.654 206.503H228.838V215.89H226.654V206.503ZM203.281 226.064H221.761V228.563H203.281V226.064ZM211.156 221.171H213.844V240.89H211.156V221.171ZM210.61 227.429L212.836 228.185C212.36 229.291 211.814 230.362 211.198 231.398C210.582 232.434 209.903 233.414 209.161 234.338C208.433 235.262 207.649 236.116 206.809 236.9C205.983 237.67 205.115 238.335 204.205 238.895C204.065 238.685 203.883 238.447 203.659 238.181C203.435 237.915 203.204 237.656 202.966 237.404C202.728 237.138 202.511 236.921 202.315 236.753C203.183 236.277 204.023 235.703 204.835 235.031C205.661 234.345 206.438 233.596 207.166 232.784C207.894 231.958 208.545 231.09 209.119 230.18C209.707 229.27 210.204 228.353 210.61 227.429ZM214.327 227.534C214.733 228.43 215.237 229.319 215.839 230.201C216.441 231.083 217.106 231.923 217.834 232.721C218.576 233.519 219.353 234.254 220.165 234.926C220.977 235.598 221.81 236.165 222.664 236.627C222.468 236.781 222.244 236.991 221.992 237.257C221.754 237.509 221.523 237.775 221.299 238.055C221.089 238.335 220.914 238.587 220.774 238.811C219.892 238.251 219.045 237.593 218.233 236.837C217.421 236.067 216.644 235.227 215.902 234.317C215.16 233.393 214.481 232.42 213.865 231.398C213.249 230.376 212.696 229.333 212.206 228.269L214.327 227.534ZM226.843 234.779H240.535V236.753H226.843V234.779ZM227.389 231.398H241.48V233.498H227.389V231.398ZM224.239 238.181H242.824V240.344H224.239V238.181ZM232.282 230.117H234.886V239.672H232.282V230.117ZM228.754 226.694V227.828H238.078V226.694H228.754ZM228.754 223.817V224.909H238.078V223.817H228.754ZM226.276 221.906H240.682V229.739H226.276V221.906ZM227.368 229.529L229.825 230.243C229.517 230.929 229.146 231.601 228.712 232.259C228.278 232.917 227.816 233.533 227.326 234.107C226.836 234.681 226.353 235.178 225.877 235.598C225.709 235.444 225.499 235.269 225.247 235.073C224.995 234.877 224.736 234.688 224.47 234.506C224.204 234.31 223.966 234.156 223.756 234.044C224.484 233.498 225.17 232.826 225.814 232.028C226.472 231.216 226.99 230.383 227.368 229.529Z" fill="white"/>
<defs>
<linearGradient id="paint0_linear_2_206" x1="220.75" y1="26" x2="220.75" y2="412.5" gradientUnits="userSpaceOnUse">
<stop stop-color="#FFFBA7"/>
<stop offset="1" stop-color="#FDFAEC"/>
</linearGradient>
<linearGradient id="paint1_linear_2_206" x1="221" y1="64" x2="221" y2="374" gradientUnits="userSpaceOnUse">
<stop stop-color="#FFFDDC"/>
<stop offset="1" stop-color="#E3F8FF"/>
</linearGradient>
<linearGradient id="paint2_linear_2_206" x1="221" y1="109" x2="221" y2="329" gradientUnits="userSpaceOnUse">
<stop stop-color="#C8EEFF"/>
<stop offset="1" stop-color="#E1F3FF"/>
</linearGradient>
<linearGradient id="paint3_linear_2_206" x1="221" y1="154" x2="221" y2="284" gradientUnits="userSpaceOnUse">
<stop stop-color="#58C7FF"/>
<stop offset="1" stop-color="#9FE0FF"/>
</linearGradient>
</defs>
</svg>
