<svg width="442" height="452" viewBox="0 0 442 452" fill="none" xmlns="http://www.w3.org/2000/svg">
<rect width="442" height="452" fill="white"/>
<path d="M272.5 26H169L27.5 166.5V270.5L169 412.5H272.5L414 270.5V166.5L272.5 26Z" fill="url(#paint0_linear_2_172)" stroke="#FFFDE8"/>
<path d="M262.507 64H179.493L66 176.691V260.106L179.493 374H262.507L376 260.106V176.691L262.507 64Z" fill="url(#paint1_linear_2_172)" stroke="#FEFFEA"/>
<path d="M250.457 109H191.543L111 188.974V248.172L191.543 329H250.457L331 248.172V188.974L250.457 109Z" fill="url(#paint2_linear_2_172)" stroke="#DDF4FF"/>
<path d="M414.37 270.528L28 167" stroke="#888686"/>
<path d="M272.528 26L186.777 346.024L169 412.37" stroke="#888686" stroke-opacity="0.82"/>
<path d="M169 26L272.528 412.37" stroke="#888686"/>
<path d="M414.37 167L28 270.528" stroke="#888886"/>
<path d="M238.406 154H203.594L156 201.257V236.238L203.594 284H238.406L286 236.238V201.257L238.406 154Z" fill="url(#paint3_linear_2_172)" stroke="#B9E7FD"/>
<path d="M126.044 212.194H142.028V214.21H126.044V212.194ZM132.83 210.718H135.08V227.62H132.83V210.718ZM132.272 220.996L134.108 221.752C133.688 222.352 133.208 222.928 132.668 223.48C132.14 224.032 131.564 224.554 130.94 225.046C130.328 225.526 129.686 225.964 129.014 226.36C128.354 226.768 127.688 227.116 127.016 227.404C126.896 227.224 126.752 227.02 126.584 226.792C126.416 226.564 126.236 226.342 126.044 226.126C125.852 225.91 125.678 225.73 125.522 225.586C126.182 225.358 126.836 225.082 127.484 224.758C128.132 224.422 128.756 224.056 129.356 223.66C129.956 223.252 130.502 222.826 130.994 222.382C131.498 221.926 131.924 221.464 132.272 220.996ZM135.692 221.068C136.052 221.524 136.484 221.974 136.988 222.418C137.504 222.85 138.062 223.27 138.662 223.678C139.274 224.074 139.91 224.434 140.57 224.758C141.23 225.07 141.89 225.34 142.55 225.568C142.382 225.712 142.196 225.892 141.992 226.108C141.8 226.336 141.614 226.564 141.434 226.792C141.266 227.032 141.122 227.248 141.002 227.44C140.33 227.164 139.664 226.822 139.004 226.414C138.344 226.018 137.702 225.58 137.078 225.1C136.466 224.608 135.89 224.086 135.35 223.534C134.822 222.982 134.348 222.412 133.928 221.824L135.692 221.068ZM129.662 219.448V220.546H138.392V219.448H129.662ZM129.662 216.856V217.936H138.392V216.856H129.662ZM127.556 215.236H140.606V222.166H127.556V215.236Z" fill="black"/>
<path d="M82.744 213.856L84.552 214.432V222.752H82.744V213.856ZM93.896 213.952H95.752V222.624C95.752 223.051 95.704 223.413 95.608 223.712C95.512 224 95.3253 224.224 95.048 224.384C94.7707 224.544 94.44 224.645 94.056 224.688C93.6827 224.731 93.2453 224.752 92.744 224.752C92.7227 224.571 92.6747 224.363 92.6 224.128C92.5253 223.893 92.44 223.659 92.344 223.424C92.2587 223.189 92.168 222.987 92.072 222.816C92.4027 222.827 92.7173 222.837 93.016 222.848C93.3147 222.848 93.5173 222.848 93.624 222.848C93.7307 222.848 93.8 222.827 93.832 222.784C93.8747 222.741 93.896 222.672 93.896 222.576V213.952ZM81.496 222.432C82.1787 222.293 83 222.112 83.96 221.888C84.92 221.653 85.896 221.419 86.888 221.184L87.096 222.8C86.2107 223.045 85.3147 223.285 84.408 223.52C83.5013 223.755 82.6747 223.973 81.928 224.176L81.496 222.432ZM86.648 215.76H88.44V220.048C88.44 220.763 88.3813 221.472 88.264 222.176C88.1573 222.869 87.944 223.541 87.624 224.192C87.304 224.843 86.8293 225.445 86.2 226C85.5707 226.555 84.7333 227.04 83.688 227.456C83.6133 227.317 83.5067 227.152 83.368 226.96C83.24 226.779 83.096 226.603 82.936 226.432C82.7867 226.261 82.648 226.123 82.52 226.016C83.4373 225.653 84.168 225.248 84.712 224.8C85.2667 224.341 85.6827 223.856 85.96 223.344C86.2373 222.821 86.4187 222.283 86.504 221.728C86.6 221.163 86.648 220.592 86.648 220.016V215.76ZM89.704 213.952H94.872V215.696H91.512V227.44H89.704V213.952ZM87.256 212.432L88.968 213.648C88.4667 213.936 87.9387 214.224 87.384 214.512C86.8293 214.789 86.28 215.051 85.736 215.296C85.2027 215.541 84.696 215.749 84.216 215.92L82.984 214.864C83.432 214.661 83.9173 214.427 84.44 214.16C84.9627 213.883 85.4693 213.595 85.96 213.296C86.4613 212.987 86.8933 212.699 87.256 212.432Z" fill="black"/>
<path d="M36.761 177.674H51.258V180.011H36.761V177.674ZM38.072 183.792H49.738V186.11H38.072V183.792ZM35.697 190.233H52.265V192.551H35.697V190.233ZM35.773 199.629H43.145V201.339H35.773V199.629ZM35.469 208.369H52.512V210.155H35.469V208.369ZM35.982 202.593H42.803V204.284H35.982V202.593ZM40.143 214.411H49.396V216.121H40.143V214.411ZM35.393 205.899C36.077 205.861 36.8497 205.817 37.711 205.766C38.585 205.715 39.5033 205.665 40.466 205.614C41.4287 205.551 42.3913 205.487 43.354 205.424L43.335 207.153C41.9543 207.254 40.5737 207.356 39.193 207.457C37.8123 207.546 36.5963 207.628 35.545 207.704L35.393 205.899ZM38.414 200.294H40.561V206.222L38.414 206.488V200.294ZM47.021 198.85L49.529 199.059C49.3517 199.502 49.1743 199.92 48.997 200.313C48.8197 200.706 48.655 201.048 48.503 201.339L46.527 201.035C46.6283 200.693 46.7233 200.326 46.812 199.933C46.9133 199.54 46.983 199.179 47.021 198.85ZM46.071 204.55V205.766H49.776V204.55H46.071ZM46.071 201.757V202.954H49.776V201.757H46.071ZM43.981 200.047H51.942V207.476H43.981V200.047ZM40.732 208.711L42.784 209.395C42.29 210.206 41.6947 210.966 40.998 211.675C40.3013 212.384 39.5477 213.024 38.737 213.594C37.9263 214.164 37.103 214.652 36.267 215.057C36.1783 214.905 36.0517 214.715 35.887 214.487C35.7223 214.246 35.5513 214.012 35.374 213.784C35.1967 213.556 35.032 213.372 34.88 213.233C35.6653 212.916 36.4317 212.53 37.179 212.074C37.9263 211.618 38.604 211.105 39.212 210.535C39.8327 209.965 40.3393 209.357 40.732 208.711ZM38.623 211.333H51.03V216.615H48.579V213.043H40.979V216.71H38.623V211.333ZM35.659 226.296H52.379V228.557H35.659V226.296ZM42.784 221.869H45.216V239.71H42.784V221.869ZM42.29 227.531L44.304 228.215C43.8733 229.216 43.3793 230.185 42.822 231.122C42.2647 232.059 41.6503 232.946 40.979 233.782C40.3203 234.618 39.611 235.391 38.851 236.1C38.1037 236.797 37.3183 237.398 36.495 237.905C36.3683 237.715 36.2037 237.5 36.001 237.259C35.7983 237.018 35.5893 236.784 35.374 236.556C35.1587 236.315 34.9623 236.119 34.785 235.967C35.5703 235.536 36.3303 235.017 37.065 234.409C37.8123 233.788 38.5153 233.111 39.174 232.376C39.8327 231.629 40.4217 230.843 40.941 230.02C41.473 229.197 41.9227 228.367 42.29 227.531ZM45.653 227.626C46.0203 228.437 46.4763 229.241 47.021 230.039C47.5657 230.837 48.1673 231.597 48.826 232.319C49.4973 233.041 50.2003 233.706 50.935 234.314C51.6697 234.922 52.4233 235.435 53.196 235.853C53.0187 235.992 52.816 236.182 52.588 236.423C52.3727 236.651 52.1637 236.892 51.961 237.145C51.771 237.398 51.6127 237.626 51.486 237.829C50.688 237.322 49.9217 236.727 49.187 236.043C48.4523 235.346 47.7493 234.586 47.078 233.763C46.4067 232.927 45.7923 232.047 45.235 231.122C44.6777 230.197 44.1773 229.254 43.734 228.291L45.653 227.626ZM37.977 257.181H50.365V258.967H37.977V257.181ZM38.471 254.122H51.22V256.022H38.471V254.122ZM35.621 260.259H52.436V262.216H35.621V260.259ZM42.898 252.963H45.254V261.608H42.898V252.963ZM39.706 249.866V250.892H48.142V249.866H39.706ZM39.706 247.263V248.251H48.142V247.263H39.706ZM37.464 245.534H50.498V252.621H37.464V245.534ZM38.452 252.431L40.675 253.077C40.3963 253.698 40.0607 254.306 39.668 254.901C39.2753 255.496 38.8573 256.054 38.414 256.573C37.9707 257.092 37.5337 257.542 37.103 257.922C36.951 257.783 36.761 257.624 36.533 257.447C36.305 257.27 36.0707 257.099 35.83 256.934C35.5893 256.757 35.374 256.617 35.184 256.516C35.8427 256.022 36.4633 255.414 37.046 254.692C37.6413 253.957 38.11 253.204 38.452 252.431Z" fill="black"/>
<path d="M389.279 183.127L406.512 180.505L406.892 182.861L389.659 185.426L389.279 183.127ZM394.656 176.249H397.145V189.359C397.145 189.777 397.177 190.094 397.24 190.309C397.316 190.512 397.455 190.651 397.658 190.727C397.861 190.79 398.171 190.822 398.589 190.822C398.716 190.822 398.906 190.822 399.159 190.822C399.412 190.822 399.697 190.822 400.014 190.822C400.331 190.822 400.647 190.822 400.964 190.822C401.281 190.822 401.566 190.822 401.819 190.822C402.085 190.822 402.281 190.822 402.408 190.822C402.839 190.822 403.162 190.721 403.377 190.518C403.592 190.303 403.751 189.916 403.852 189.359C403.953 188.789 404.042 187.959 404.118 186.87C404.308 187.022 404.542 187.174 404.821 187.326C405.112 187.465 405.397 187.592 405.676 187.706C405.967 187.82 406.221 187.902 406.436 187.953C406.335 189.22 406.164 190.233 405.923 190.993C405.682 191.74 405.302 192.279 404.783 192.608C404.264 192.937 403.529 193.102 402.579 193.102C402.452 193.102 402.243 193.102 401.952 193.102C401.673 193.102 401.357 193.102 401.002 193.102C400.66 193.102 400.312 193.102 399.957 193.102C399.602 193.102 399.286 193.102 399.007 193.102C398.728 193.102 398.526 193.102 398.399 193.102C397.436 193.102 396.683 192.988 396.138 192.76C395.593 192.545 395.207 192.165 394.979 191.62C394.764 191.075 394.656 190.309 394.656 189.321V176.249ZM402.199 208.844L404.213 207.951C404.58 208.432 404.954 208.964 405.334 209.547C405.714 210.13 406.062 210.7 406.379 211.257C406.696 211.814 406.943 212.321 407.12 212.777L404.935 213.803C404.77 213.36 404.542 212.853 404.251 212.283C403.96 211.713 403.63 211.124 403.263 210.516C402.908 209.908 402.554 209.351 402.199 208.844ZM396.784 198.888H399.121V205.766H396.784V198.888ZM389.488 204.968H406.626V207.153H389.488V204.968ZM391.388 200.845H405.011V203.011H391.388V200.845ZM399.102 206.26H401.496V214.145C401.496 214.715 401.433 215.165 401.306 215.494C401.179 215.836 400.926 216.096 400.546 216.273C400.179 216.45 399.735 216.564 399.216 216.615C398.709 216.666 398.108 216.691 397.411 216.691C397.373 216.349 397.278 215.956 397.126 215.513C396.974 215.082 396.822 214.709 396.67 214.392C397.088 214.405 397.506 214.417 397.924 214.43C398.342 214.43 398.614 214.424 398.741 214.411C398.88 214.411 398.975 214.392 399.026 214.354C399.077 214.303 399.102 214.221 399.102 214.107V206.26ZM391.597 208.103L393.915 208.692C393.674 209.287 393.383 209.895 393.041 210.516C392.699 211.124 392.332 211.707 391.939 212.264C391.546 212.809 391.135 213.29 390.704 213.708C390.476 213.505 390.178 213.284 389.811 213.043C389.444 212.79 389.133 212.587 388.88 212.435C389.285 212.068 389.659 211.643 390.001 211.162C390.356 210.668 390.672 210.155 390.951 209.623C391.23 209.091 391.445 208.584 391.597 208.103ZM394.998 205.842H397.316V208.027C397.316 208.698 397.272 209.42 397.183 210.193C397.094 210.953 396.911 211.726 396.632 212.511C396.353 213.284 395.935 214.044 395.378 214.791C394.833 215.526 394.099 216.203 393.174 216.824C393.06 216.647 392.902 216.45 392.699 216.235C392.496 216.02 392.281 215.811 392.053 215.608C391.838 215.405 391.635 215.241 391.445 215.114C392.243 214.595 392.876 214.031 393.345 213.423C393.826 212.815 394.181 212.194 394.409 211.561C394.65 210.928 394.808 210.307 394.884 209.699C394.96 209.078 394.998 208.502 394.998 207.97V205.842ZM397.924 224.035C397.405 224.757 396.746 225.504 395.948 226.277C395.163 227.05 394.289 227.791 393.326 228.5C392.376 229.209 391.382 229.843 390.343 230.4C390.242 230.21 390.109 230.001 389.944 229.773C389.792 229.545 389.621 229.323 389.431 229.108C389.254 228.893 389.083 228.703 388.918 228.538C390.007 228.019 391.052 227.379 392.053 226.619C393.054 225.846 393.947 225.042 394.732 224.206C395.53 223.37 396.163 222.566 396.632 221.793H399.007C399.526 222.515 400.096 223.205 400.717 223.864C401.338 224.523 402.003 225.131 402.712 225.688C403.421 226.245 404.15 226.746 404.897 227.189C405.644 227.632 406.398 228.006 407.158 228.31C406.867 228.601 406.594 228.931 406.341 229.298C406.088 229.665 405.853 230.02 405.638 230.362C404.916 229.982 404.181 229.545 403.434 229.051C402.699 228.557 401.99 228.031 401.306 227.474C400.622 226.904 399.989 226.328 399.406 225.745C398.823 225.162 398.329 224.592 397.924 224.035ZM393.174 227.55H402.731V229.545H393.174V227.55ZM390.894 231.426H404.973V233.402H390.894V231.426ZM389.944 237.202H406.094V239.159H389.944V237.202ZM396.689 228.348H399.102V238.19H396.689V228.348ZM392.091 234.124L393.915 233.364C394.156 233.681 394.39 234.029 394.618 234.409C394.859 234.789 395.074 235.163 395.264 235.53C395.454 235.897 395.593 236.227 395.682 236.518L393.725 237.392C393.649 237.101 393.522 236.765 393.345 236.385C393.168 235.992 392.971 235.6 392.756 235.207C392.541 234.814 392.319 234.453 392.091 234.124ZM401.743 233.383L403.928 234.181C403.548 234.764 403.155 235.346 402.75 235.929C402.345 236.499 401.971 236.987 401.629 237.392L399.919 236.67C400.134 236.366 400.356 236.03 400.584 235.663C400.812 235.283 401.027 234.897 401.23 234.504C401.433 234.099 401.604 233.725 401.743 233.383ZM391.977 257.181H404.365V258.967H391.977V257.181ZM392.471 254.122H405.22V256.022H392.471V254.122ZM389.621 260.259H406.436V262.216H389.621V260.259ZM396.898 252.963H399.254V261.608H396.898V252.963ZM393.706 249.866V250.892H402.142V249.866H393.706ZM393.706 247.263V248.251H402.142V247.263H393.706ZM391.464 245.534H404.498V252.621H391.464V245.534ZM392.452 252.431L394.675 253.077C394.396 253.698 394.061 254.306 393.668 254.901C393.275 255.496 392.857 256.054 392.414 256.573C391.971 257.092 391.534 257.542 391.103 257.922C390.951 257.783 390.761 257.624 390.533 257.447C390.305 257.27 390.071 257.099 389.83 256.934C389.589 256.757 389.374 256.617 389.184 256.516C389.843 256.022 390.463 255.414 391.046 254.692C391.641 253.957 392.11 253.204 392.452 252.431Z" fill="black"/>
<path d="M148.246 170.277L159.549 158.974L160.974 160.4L149.672 171.702L148.246 170.277ZM156.52 172.95L162.209 167.26L163.393 168.444L157.703 174.133L156.52 172.95ZM158.276 175.241L164.513 169.004L165.735 170.226L159.498 176.462L158.276 175.241ZM159.192 171.448L160.631 170.009L165.111 174.49L163.673 175.928L159.192 171.448ZM151.11 172.173L160.325 162.958L161.725 164.358L154.038 172.046L161.127 179.135L159.6 180.663L151.11 172.173ZM159.892 163.391L161.458 161.825L168.42 168.788C168.785 169.152 169.014 169.483 169.107 169.78C169.209 170.086 169.184 170.417 169.031 170.773C168.878 171.146 168.62 171.533 168.255 171.931C167.907 172.33 167.474 172.788 166.956 173.306C166.727 173.145 166.439 172.992 166.091 172.848C165.752 172.695 165.442 172.58 165.162 172.504C165.382 172.3 165.607 172.093 165.836 171.88C166.065 171.668 166.269 171.473 166.447 171.295C166.625 171.1 166.744 170.972 166.804 170.913C166.922 170.794 166.986 170.697 166.995 170.62C166.995 170.535 166.948 170.446 166.855 170.353L159.892 163.391ZM155.654 171.117L156.507 169.551C156.863 169.602 157.237 169.695 157.627 169.831C158.026 169.958 158.357 170.086 158.62 170.213L157.767 171.906C157.512 171.753 157.186 171.605 156.787 171.46C156.388 171.316 156.01 171.202 155.654 171.117ZM158.912 167.197L160.554 166.267C160.69 166.743 160.817 167.209 160.936 167.667C161.055 168.109 161.144 168.512 161.203 168.877L159.791 169.628C159.731 169.381 159.651 169.114 159.549 168.826C159.455 168.529 159.354 168.24 159.243 167.96C159.133 167.68 159.023 167.426 158.912 167.197ZM152.116 164.473L153.783 162.805L158.123 167.146L156.456 168.813L152.116 164.473ZM161 157.523L172.302 146.221L173.728 147.646L162.425 158.949L161 157.523ZM164.754 151.681L166.345 150.09L178.297 162.042L176.706 163.633L164.754 151.681ZM171.628 159.343L173.46 158.58C173.588 159.301 173.656 160.048 173.664 160.82C173.681 161.584 173.643 162.36 173.549 163.149C173.456 163.921 173.312 164.685 173.117 165.44C172.939 166.195 172.714 166.912 172.442 167.591C172.23 167.549 171.984 167.506 171.704 167.464C171.424 167.421 171.14 167.392 170.851 167.375C170.563 167.358 170.312 167.354 170.1 167.362C170.406 166.734 170.673 166.076 170.902 165.389C171.123 164.693 171.305 163.993 171.449 163.289C171.585 162.576 171.67 161.889 171.704 161.227C171.738 160.548 171.712 159.92 171.628 159.343ZM174.097 156.976C174.674 157.044 175.297 157.057 175.968 157.014C176.638 156.955 177.33 156.857 178.042 156.721C178.755 156.569 179.459 156.374 180.155 156.136C180.843 155.89 181.5 155.614 182.128 155.309C182.111 155.529 182.107 155.788 182.115 156.085C182.141 156.382 182.171 156.675 182.204 156.963C182.255 157.252 182.306 157.506 182.357 157.727C181.687 158.007 180.974 158.236 180.219 158.414C179.472 158.601 178.709 158.745 177.928 158.847C177.147 158.932 176.371 158.97 175.599 158.962C174.835 158.945 174.097 158.877 173.384 158.758L174.097 156.976ZM168.687 160.094L169.464 160.871L175.637 154.698L174.86 153.921L168.687 160.094ZM166.855 158.262L167.618 159.025L173.791 152.852L173.028 152.088L166.855 158.262ZM164.22 158.605L173.448 149.377L178.348 154.278L169.12 163.505L164.22 158.605Z" fill="black"/>
<path d="M113.785 145.701L122.248 137.238L123.56 138.551L115.098 147.013L113.785 145.701ZM117.847 149.876L126.626 141.096L127.86 142.329L119.08 151.109L117.847 149.876ZM117.179 146.47L123.345 140.304L124.567 141.526L118.401 147.692L117.179 146.47ZM113.005 146.482L114.362 145.124L117.802 148.563C118.284 149.046 118.797 149.589 119.34 150.192C119.883 150.796 120.415 151.441 120.936 152.127C121.456 152.813 121.916 153.522 122.316 154.254C122.723 154.978 123.025 155.702 123.221 156.426C123.063 156.434 122.863 156.468 122.621 156.528C122.388 156.581 122.15 156.645 121.909 156.72C121.675 156.788 121.479 156.864 121.32 156.947C121.147 156.275 120.879 155.616 120.517 154.967C120.155 154.318 119.74 153.692 119.273 153.089C118.805 152.485 118.326 151.916 117.836 151.38C117.345 150.845 116.878 150.355 116.433 149.91L113.005 146.482ZM119.827 148.846L121.151 147.522L125.427 151.799L124.103 153.123L119.827 148.846ZM122.814 154.005C123.146 153.583 123.515 153.093 123.922 152.534C124.33 151.961 124.76 151.358 125.212 150.724C125.672 150.083 126.129 149.446 126.581 148.812L127.848 149.921C127.449 150.517 127.037 151.124 126.615 151.742C126.193 152.361 125.782 152.953 125.382 153.519C124.997 154.084 124.639 154.609 124.307 155.091L122.814 154.005ZM123.108 145.565C124.036 146.131 124.96 146.527 125.88 146.753C126.8 146.979 127.731 147.006 128.674 146.832C129.625 146.651 130.605 146.236 131.616 145.588C131.616 145.784 131.631 146.01 131.661 146.267C131.699 146.516 131.744 146.764 131.797 147.013C131.857 147.27 131.921 147.492 131.989 147.681C130.835 148.337 129.723 148.733 128.652 148.869C127.581 148.989 126.51 148.884 125.438 148.552C124.367 148.22 123.247 147.703 122.078 147.002L123.108 145.565ZM126.457 143.755L128.425 143.348C128.342 143.823 128.241 144.317 128.12 144.83C128.007 145.335 127.882 145.829 127.746 146.312C127.611 146.78 127.479 147.213 127.35 147.613L125.767 147.839C125.88 147.439 125.982 146.998 126.072 146.516C126.17 146.025 126.253 145.543 126.321 145.067C126.389 144.577 126.434 144.14 126.457 143.755ZM138.987 145.072L126.146 132.231L127.232 131.145L140.073 143.986L138.987 145.072ZM137.375 129.488L144.084 122.779L145.419 124.114L138.71 130.823L137.375 129.488ZM133.788 125.947L141.233 118.503L146.754 124.024L145.351 125.427L141.165 121.24L135.123 127.282L133.788 125.947ZM132.974 126.762L134.388 125.347L141.674 132.633C141.968 132.927 142.221 133.12 142.432 133.21C142.636 133.293 142.858 133.259 143.099 133.109C143.348 132.95 143.68 132.664 144.095 132.249C144.216 132.128 144.404 131.939 144.661 131.683C144.917 131.427 145.204 131.14 145.521 130.823C145.845 130.499 146.169 130.174 146.494 129.85C146.818 129.526 147.108 129.235 147.365 128.979C147.629 128.715 147.821 128.523 147.942 128.402C148.319 128.025 148.56 127.701 148.666 127.429C148.771 127.142 148.749 126.833 148.598 126.501C148.44 126.162 148.149 125.721 147.727 125.178C147.923 125.132 148.138 125.068 148.372 124.985C148.598 124.895 148.824 124.789 149.05 124.668C149.277 124.548 149.469 124.438 149.627 124.34C150.035 124.868 150.348 125.355 150.566 125.8C150.778 126.237 150.88 126.656 150.872 127.056C150.872 127.448 150.748 127.851 150.499 128.266C150.265 128.681 149.903 129.134 149.412 129.624C149.322 129.714 149.171 129.865 148.96 130.076C148.756 130.28 148.519 130.518 148.247 130.789C147.983 131.053 147.708 131.328 147.421 131.615C147.135 131.902 146.859 132.177 146.595 132.441C146.331 132.705 146.098 132.939 145.894 133.142C145.698 133.339 145.555 133.482 145.464 133.572C144.913 134.123 144.423 134.545 143.993 134.84C143.563 135.134 143.152 135.303 142.76 135.349C142.368 135.394 141.972 135.307 141.572 135.088C141.165 134.862 140.724 134.511 140.248 134.036L132.974 126.762Z" fill="black"/>
<path d="M75.7656 128.221L87.1317 116.855L98.0812 127.805L96.375 129.511L86.9839 120.12L78.9497 128.154L88.4483 137.653L86.8227 139.278L75.7656 128.221ZM85.2508 135.987L94.9374 126.3L96.4825 127.845L86.7958 137.532L85.2508 135.987ZM83.0071 123.237L84.579 121.665L88.314 125.4C88.52 125.606 88.6543 125.713 88.717 125.722C88.8066 125.722 88.9006 125.673 88.9991 125.575C89.0439 125.53 89.1021 125.472 89.1738 125.4C89.2455 125.328 89.3037 125.27 89.3485 125.225C89.3932 125.18 89.4335 125.131 89.4694 125.077C89.5142 125.015 89.541 124.961 89.55 124.916C89.5589 124.871 89.5589 124.818 89.55 124.755C89.541 124.674 89.4962 124.585 89.4156 124.486C89.344 124.379 89.2141 124.231 89.026 124.043C88.8379 123.837 88.623 123.604 88.3811 123.344C88.6498 123.326 88.9633 123.264 89.3216 123.156C89.6888 123.04 90.0068 122.91 90.2755 122.767C90.5263 123.053 90.7681 123.349 91.001 123.653C91.2338 123.94 91.3861 124.173 91.4578 124.352C91.5294 124.549 91.5652 124.737 91.5652 124.916C91.5652 125.077 91.5294 125.257 91.4578 125.454C91.404 125.615 91.31 125.79 91.1756 125.978C91.0413 126.148 90.9069 126.3 90.7726 126.434C90.692 126.515 90.5979 126.609 90.4904 126.717C90.383 126.824 90.2755 126.932 90.168 127.039C90.0695 127.138 89.9799 127.227 89.8993 127.308C89.7202 127.487 89.5097 127.644 89.2678 127.778C89.026 127.912 88.7797 127.988 88.5289 128.006C88.2871 128.015 88.0363 127.953 87.7766 127.818C87.5168 127.684 87.1585 127.388 86.7018 126.932L83.0071 123.237ZM80.2664 125.924L81.8383 124.352C82.7339 125.301 83.5132 126.233 84.176 127.146C84.8388 128.06 85.3224 128.992 85.627 129.941C85.9315 130.89 85.9807 131.916 85.7747 133.018C85.4971 132.919 85.1433 132.852 84.7134 132.816C84.2745 132.771 83.8938 132.767 83.5714 132.803C83.7505 131.925 83.7102 131.114 83.4505 130.371C83.1818 129.619 82.7698 128.884 82.2145 128.168C81.6502 127.442 81.0008 126.694 80.2664 125.924ZM104.799 108.996L106.827 108.579C106.872 109.161 106.913 109.757 106.948 110.366C106.993 110.966 107.016 111.49 107.016 111.938L105.336 112.22C105.309 111.907 105.269 111.562 105.215 111.186C105.17 110.801 105.112 110.42 105.041 110.044C104.969 109.65 104.888 109.3 104.799 108.996ZM99.6263 115.834L100.002 114.007C100.504 114.025 101.046 114.074 101.628 114.155C102.201 114.226 102.676 114.334 103.052 114.477L102.689 116.452C102.322 116.3 101.848 116.175 101.265 116.076C100.683 115.96 100.137 115.879 99.6263 115.834ZM93.5805 109.036L99.2501 103.366L103.791 107.908L102.219 109.479L98.9814 106.242L94.8837 110.339L93.5805 109.036ZM95.8779 110.689L100.526 106.04L101.776 107.29L97.1273 111.938L95.8779 110.689ZM96.8855 113.604L104.302 106.188L105.645 107.531L98.229 114.947L96.8855 113.604ZM100.432 111.266L101.924 109.775L107.969 115.821C108.31 116.161 108.543 116.466 108.668 116.734C108.802 117.012 108.811 117.317 108.695 117.648C108.605 117.97 108.422 118.297 108.144 118.629C107.884 118.96 107.553 119.327 107.15 119.73C106.926 119.542 106.639 119.354 106.29 119.166C105.95 118.987 105.636 118.844 105.35 118.736C105.582 118.521 105.806 118.315 106.021 118.118C106.236 117.903 106.375 117.755 106.438 117.675C106.572 117.54 106.577 117.411 106.451 117.285L100.432 111.266ZM102.421 120.187C102.582 119.632 102.761 118.942 102.958 118.118C103.146 117.285 103.334 116.434 103.522 115.565L105.229 116.278C105.13 117.039 105.018 117.814 104.893 118.602C104.767 119.372 104.651 120.098 104.543 120.778L102.421 120.187ZM102.609 110.568C103.128 110.926 103.706 111.262 104.342 111.575C104.969 111.88 105.636 112.135 106.344 112.341C107.042 112.538 107.763 112.641 108.507 112.65C109.25 112.641 109.998 112.502 110.75 112.234C110.742 112.422 110.75 112.655 110.777 112.932C110.804 113.21 110.84 113.488 110.885 113.765C110.939 114.052 110.997 114.298 111.059 114.504C110.28 114.692 109.497 114.75 108.708 114.679C107.929 114.598 107.168 114.437 106.424 114.195C105.672 113.944 104.969 113.653 104.315 113.322C103.67 112.981 103.092 112.646 102.582 112.314L102.609 110.568ZM89.3753 112.274L91.2697 111.374C91.4398 111.902 91.61 112.449 91.7802 113.013C91.9414 113.568 92.0982 114.11 92.2504 114.638C92.3937 115.158 92.5057 115.628 92.5863 116.049L91.0681 116.681C90.9517 116.242 90.8039 115.763 90.6248 115.243C90.4457 114.724 90.2441 114.2 90.0202 113.671C89.8052 113.134 89.5903 112.668 89.3753 112.274ZM92.4923 112.355L94.4 111.629C94.5702 112.462 94.7404 113.349 94.9106 114.289C95.0807 115.23 95.2285 116.148 95.3539 117.043C95.4793 117.939 95.5599 118.754 95.5957 119.489L94.1582 119.905C94.1045 119.35 94.0238 118.75 93.9164 118.105C93.8089 117.442 93.679 116.775 93.5268 116.103C93.3745 115.413 93.2088 114.746 93.0297 114.101C92.8505 113.456 92.6714 112.874 92.4923 112.355ZM90.4501 117.487L90.1546 115.606C90.5934 115.597 91.0592 115.597 91.5518 115.606C92.0444 115.615 92.5191 115.642 92.9759 115.686C93.4327 115.731 93.8178 115.812 94.1313 115.928L94.4941 118.011C94.1806 117.894 93.791 117.8 93.3252 117.729C92.8684 117.648 92.3893 117.59 91.8877 117.554C91.3771 117.509 90.898 117.487 90.4501 117.487ZM95.2464 116.022L95.9182 114.437C96.3929 114.553 96.8855 114.706 97.396 114.894C97.9066 115.082 98.3902 115.279 98.847 115.485C99.2949 115.682 99.6755 115.883 99.989 116.089L99.3038 117.849C99.0082 117.626 98.6321 117.402 98.1753 117.178C97.7185 116.954 97.2393 116.743 96.7377 116.546C96.2272 116.34 95.7301 116.166 95.2464 116.022ZM93.1506 120.268C93.7238 119.641 94.3955 118.897 95.1658 118.038C95.9271 117.169 96.7019 116.286 97.4901 115.391L98.8336 116.681C98.1081 117.531 97.3826 118.382 96.6571 119.233C95.9316 120.066 95.2823 120.823 94.709 121.504L93.1506 120.268ZM98.9948 119.018L99.774 117.567C100.302 117.773 100.853 118.038 101.427 118.36C102.009 118.673 102.474 118.969 102.824 119.247L102.018 120.832C101.668 120.536 101.212 120.223 100.647 119.892C100.083 119.542 99.5322 119.251 98.9948 119.018ZM95.7301 121.692L97.2483 120.63C97.8215 121.347 98.3499 122.09 98.8336 122.861C99.3172 123.613 99.68 124.298 99.9218 124.916C99.7696 124.943 99.5859 124.992 99.371 125.064C99.156 125.136 98.9411 125.216 98.7261 125.306C98.5022 125.386 98.3186 125.463 98.1753 125.534C97.9693 124.934 97.6379 124.298 97.1811 123.626C96.7243 122.955 96.2406 122.31 95.7301 121.692ZM95.9182 118.951L97.3154 117.554L103.321 123.559L101.924 124.957L95.9182 118.951ZM104.355 103.555L116.178 91.7317L117.777 93.3305L105.954 105.153L104.355 103.555ZM106.263 95.3861L107.983 93.6664L120.598 106.282L118.879 108.002L106.263 95.3861ZM109.917 99.739L111.825 98.7986C112.228 99.8107 112.564 100.845 112.833 101.902C113.102 102.959 113.294 104.02 113.411 105.086C113.536 106.143 113.581 107.191 113.545 108.23C113.509 109.251 113.379 110.232 113.155 111.172C112.931 111.127 112.663 111.092 112.349 111.065C112.036 111.038 111.722 111.02 111.409 111.011C111.086 110.993 110.809 110.993 110.576 111.011C110.827 110.151 110.997 109.247 111.086 108.297C111.176 107.33 111.194 106.354 111.14 105.368C111.077 104.374 110.939 103.402 110.724 102.453C110.518 101.495 110.249 100.59 109.917 99.739ZM112.363 97.4282C113.196 97.7417 114.087 97.988 115.036 98.1671C115.986 98.3463 116.948 98.4582 117.925 98.503C118.91 98.5388 119.877 98.512 120.827 98.4224C121.776 98.3328 122.672 98.1626 123.514 97.9119C123.487 98.1358 123.478 98.4134 123.487 98.7448C123.496 99.0583 123.518 99.3763 123.554 99.6987C123.599 100.012 123.648 100.285 123.702 100.518C122.779 100.724 121.816 100.845 120.813 100.881C119.801 100.908 118.767 100.868 117.71 100.76C116.644 100.644 115.587 100.456 114.539 100.196C113.491 99.9361 112.47 99.6226 111.476 99.2554L112.363 97.4282ZM125.005 94.056L133.765 85.2964L135.028 86.5593L126.268 95.3189L125.005 94.056ZM123.191 91.5437L132.206 82.5287L133.55 83.8722L124.535 92.8872L123.191 91.5437ZM125.516 97.8984L137.406 86.0084L138.789 87.3922L126.899 99.2822L125.516 97.8984ZM125.502 87.5938L127.168 85.9278L133.281 92.0407L131.615 93.7067L125.502 87.5938ZM121.055 87.6609L121.781 88.3864L127.746 82.4213L127.02 81.6958L121.055 87.6609ZM119.215 85.8203L119.913 86.519L125.878 80.5538L125.18 79.8552L119.215 85.8203ZM116.407 86.1831L125.623 76.9666L130.634 81.9779L121.418 91.1943L116.407 86.1831ZM121.982 90.3614L124.011 89.2463C124.253 89.8822 124.445 90.5495 124.589 91.2481C124.732 91.9467 124.83 92.6364 124.884 93.3171C124.938 93.9978 124.947 94.6248 124.911 95.198C124.705 95.2069 124.459 95.2293 124.172 95.2652C123.885 95.301 123.599 95.3458 123.312 95.3995C123.017 95.4443 122.766 95.498 122.56 95.5607C122.676 94.7457 122.685 93.8769 122.587 92.9543C122.488 92.0139 122.287 91.1496 121.982 90.3614Z" fill="black"/>
<path d="M269.936 145.246L281.239 156.549L279.813 157.974L268.511 146.672L269.936 145.246ZM267.264 153.52L272.953 159.209L271.769 160.393L266.08 154.703L267.264 153.52ZM264.973 155.276L271.209 161.513L269.987 162.735L263.751 156.498L264.973 155.276ZM268.765 156.192L270.204 157.631L265.724 162.111L264.285 160.673L268.765 156.192ZM268.04 148.11L277.255 157.325L275.855 158.725L268.167 151.038L261.078 158.127L259.55 156.6L268.04 148.11ZM276.822 156.892L278.388 158.458L271.426 165.42C271.061 165.785 270.73 166.014 270.433 166.107C270.127 166.209 269.796 166.184 269.44 166.031C269.067 165.878 268.681 165.62 268.282 165.255C267.883 164.907 267.425 164.474 266.907 163.956C267.068 163.727 267.221 163.439 267.365 163.091C267.518 162.752 267.633 162.442 267.709 162.162C267.913 162.382 268.121 162.607 268.333 162.836C268.545 163.065 268.74 163.269 268.918 163.447C269.113 163.625 269.241 163.744 269.3 163.804C269.419 163.922 269.516 163.986 269.593 163.995C269.678 163.995 269.767 163.948 269.86 163.855L276.822 156.892ZM269.096 152.654L270.662 153.507C270.611 153.863 270.518 154.237 270.382 154.627C270.255 155.026 270.127 155.357 270 155.62L268.307 154.767C268.46 154.512 268.609 154.186 268.753 153.787C268.897 153.388 269.012 153.01 269.096 152.654ZM273.017 155.912L273.946 157.554C273.471 157.69 273.004 157.817 272.546 157.936C272.104 158.055 271.701 158.144 271.337 158.203L270.586 156.791C270.832 156.731 271.099 156.651 271.387 156.549C271.684 156.455 271.973 156.354 272.253 156.243C272.533 156.133 272.788 156.023 273.017 155.912ZM275.74 149.116L277.408 150.783L273.068 155.123L271.4 153.456L275.74 149.116ZM275.346 168.093L283.975 176.723L282.563 178.135L273.933 169.506L275.346 168.093ZM280.59 160.889L291.09 171.39L282.753 179.726L281.201 178.174L288.125 171.25L280.666 163.791L273.717 170.74L272.227 169.251L280.59 160.889ZM285.757 167.227L287.221 168.691L284.93 170.982C284.769 171.143 284.68 171.258 284.663 171.326C284.663 171.394 284.726 171.491 284.854 171.619C284.879 171.644 284.934 171.699 285.019 171.784C285.112 171.877 285.201 171.967 285.286 172.051C285.38 172.145 285.448 172.213 285.49 172.255C285.566 172.331 285.634 172.374 285.694 172.382C285.77 172.391 285.863 172.357 285.974 172.28C286.092 172.213 286.254 172.085 286.457 171.899C286.474 172.051 286.517 172.238 286.585 172.459C286.669 172.679 286.763 172.9 286.865 173.121C286.983 173.341 287.098 173.532 287.208 173.693C286.759 174.024 286.372 174.241 286.05 174.342C285.728 174.444 285.431 174.444 285.159 174.342C284.896 174.249 284.62 174.058 284.332 173.77C284.264 173.702 284.183 173.621 284.09 173.528C283.997 173.434 283.895 173.333 283.784 173.222C283.683 173.121 283.585 173.023 283.492 172.93C283.398 172.836 283.322 172.76 283.263 172.7C282.855 172.293 282.592 171.928 282.473 171.606C282.363 171.292 282.393 170.974 282.563 170.651C282.732 170.329 283.029 169.956 283.453 169.531L285.757 167.227ZM282.932 157.529L294.374 168.971L292.898 170.448L281.455 159.005L282.932 157.529ZM285.286 162.124L286.788 163.625L284.243 166.171L282.741 164.669L285.286 162.124ZM288.074 164.911L289.614 166.451L287.068 168.997L285.528 167.457L288.074 164.911ZM283.339 164.224L284.764 165.649L283.504 166.909C283.08 167.334 282.588 167.715 282.028 168.055C281.468 168.394 280.832 168.615 280.119 168.717C279.406 168.818 278.604 168.729 277.713 168.449C277.739 168.288 277.747 168.076 277.739 167.813C277.73 167.55 277.709 167.283 277.675 167.011C277.65 166.748 277.616 166.536 277.573 166.375C278.379 166.638 279.062 166.744 279.622 166.693C280.191 166.65 280.675 166.506 281.073 166.26C281.472 166.014 281.82 165.743 282.117 165.446L283.339 164.224Z" fill="black"/>
<path d="M291.07 119.263L301.207 129.4L299.861 130.746L289.724 120.609L291.07 119.263ZM294.713 117.317L303.176 125.78L301.83 127.126L293.367 118.663L294.713 117.317ZM299.872 119.082L301.321 120.53L290.697 131.154L289.249 129.706L299.872 119.082ZM294.363 124.117L295.053 125.78C294.336 125.953 293.589 126.081 292.813 126.164C292.043 126.24 291.266 126.262 290.482 126.232C289.705 126.21 288.94 126.138 288.185 126.017C287.446 125.897 286.737 125.731 286.058 125.52C286.104 125.323 286.138 125.093 286.16 124.829C286.19 124.573 286.209 124.313 286.217 124.049C286.239 123.785 286.243 123.547 286.228 123.336C286.854 123.585 287.514 123.792 288.208 123.958C288.917 124.124 289.63 124.241 290.346 124.309C291.063 124.377 291.76 124.396 292.439 124.366C293.126 124.328 293.767 124.245 294.363 124.117ZM296.286 126.063C296.15 126.651 296.063 127.288 296.026 127.975C296.003 128.661 296.026 129.362 296.094 130.079C296.161 130.795 296.271 131.501 296.422 132.195C296.588 132.889 296.791 133.545 297.033 134.163C296.844 134.141 296.614 134.137 296.342 134.152C296.086 134.167 295.826 134.193 295.562 134.231C295.298 134.269 295.068 134.31 294.872 134.356C294.668 133.684 294.51 132.975 294.397 132.229C294.283 131.482 294.216 130.72 294.193 129.943C294.178 129.159 294.208 128.382 294.283 127.613C294.366 126.851 294.495 126.112 294.668 125.395L296.286 126.063ZM297.141 141.987L309.982 129.146L311.068 130.232L298.227 143.073L297.141 141.987ZM314.332 136.551L323.507 145.726L316.775 152.458L315.361 151.044L320.792 145.613L314.388 139.209L308.901 144.697L307.543 143.339L314.332 136.551ZM312.782 139.888L320.317 147.423L319.061 148.679L311.526 141.144L312.782 139.888ZM310.327 142.321L317.895 149.89L316.594 151.191L309.025 143.622L310.327 142.321ZM319.66 138.847L321.086 140.273L310.462 150.896L309.037 149.471L319.66 138.847Z" fill="black"/>
<path d="M262.219 284.25L265.999 280.469L267.514 281.984L263.734 285.764L262.219 284.25ZM265.63 275.213L267.221 273.622L276.398 282.799C276.754 283.155 277.013 283.354 277.175 283.397C277.327 283.431 277.522 283.329 277.76 283.091C277.811 283.04 277.896 282.956 278.015 282.837C278.133 282.718 278.265 282.586 278.409 282.442C278.553 282.298 278.685 282.166 278.804 282.048C278.922 281.929 279.012 281.84 279.071 281.78C279.241 281.611 279.296 281.411 279.236 281.182C279.177 280.953 278.978 280.635 278.638 280.227C278.299 279.803 277.802 279.239 277.149 278.535C277.37 278.501 277.612 278.446 277.875 278.369C278.146 278.284 278.409 278.191 278.664 278.089C278.91 277.979 279.122 277.869 279.3 277.758C280.064 278.624 280.632 279.37 281.006 279.998C281.387 280.618 281.553 281.174 281.502 281.666C281.468 282.158 281.209 282.646 280.726 283.129C280.658 283.197 280.543 283.312 280.382 283.473C280.221 283.634 280.047 283.808 279.86 283.995C279.682 284.173 279.516 284.339 279.364 284.491C279.211 284.644 279.096 284.759 279.02 284.835C278.536 285.319 278.082 285.628 277.658 285.764C277.251 285.9 276.822 285.853 276.373 285.624C275.914 285.387 275.388 284.971 274.794 284.377L265.63 275.213ZM262.423 278.42L264.014 276.829L275.622 288.437L274.031 290.028L262.423 278.42ZM271.727 272.909L274.209 273.176C274.065 273.914 273.895 274.678 273.7 275.467C273.496 276.248 273.28 277.033 273.051 277.822C272.822 278.594 272.584 279.341 272.338 280.062C272.117 279.943 271.829 279.833 271.472 279.731C271.108 279.621 270.794 279.536 270.531 279.477C270.743 278.772 270.929 278.034 271.091 277.262C271.252 276.49 271.383 275.73 271.485 274.984C271.595 274.228 271.676 273.537 271.727 272.909ZM267.527 290.473C267.773 290.024 268.053 289.498 268.367 288.895C268.672 288.284 268.99 287.635 269.321 286.948C269.644 286.252 269.966 285.565 270.289 284.886L271.956 285.968C271.608 286.893 271.239 287.83 270.849 288.781C270.467 289.723 270.115 290.584 269.792 291.364L267.527 290.473ZM283.093 276.867L291.723 268.238L293.135 269.651L284.506 278.28L283.093 276.867ZM275.889 271.623L286.39 261.123L294.726 269.46L293.174 271.012L286.25 264.088L278.791 271.547L285.74 278.496L284.251 279.986L275.889 271.623ZM282.227 266.456L283.691 264.992L285.982 267.283C286.143 267.444 286.258 267.534 286.326 267.55C286.394 267.55 286.491 267.487 286.619 267.36C286.644 267.334 286.699 267.279 286.784 267.194C286.877 267.101 286.967 267.012 287.051 266.927C287.145 266.833 287.213 266.766 287.255 266.723C287.331 266.647 287.374 266.579 287.382 266.52C287.391 266.443 287.357 266.35 287.28 266.24C287.213 266.121 287.085 265.959 286.899 265.756C287.051 265.739 287.238 265.696 287.459 265.629C287.679 265.544 287.9 265.45 288.121 265.349C288.341 265.23 288.532 265.115 288.693 265.005C289.024 265.455 289.241 265.841 289.342 266.163C289.444 266.486 289.444 266.783 289.342 267.054C289.249 267.317 289.058 267.593 288.77 267.881C288.702 267.949 288.621 268.03 288.528 268.123C288.434 268.217 288.333 268.318 288.222 268.429C288.121 268.531 288.023 268.628 287.93 268.721C287.836 268.815 287.76 268.891 287.7 268.951C287.293 269.358 286.928 269.621 286.606 269.74C286.292 269.85 285.974 269.82 285.651 269.651C285.329 269.481 284.956 269.184 284.531 268.76L282.227 266.456ZM272.529 269.281L283.971 257.839L285.448 259.316L274.005 270.758L272.529 269.281ZM277.124 266.927L278.625 265.425L281.171 267.971L279.669 269.472L277.124 266.927ZM279.911 264.139L281.451 262.599L283.997 265.145L282.457 266.685L279.911 264.139ZM279.224 268.874L280.649 267.449L281.909 268.709C282.334 269.133 282.715 269.625 283.055 270.185C283.394 270.745 283.615 271.382 283.717 272.094C283.818 272.807 283.729 273.609 283.449 274.5C283.288 274.474 283.076 274.466 282.813 274.474C282.55 274.483 282.283 274.504 282.011 274.538C281.748 274.564 281.536 274.598 281.375 274.64C281.638 273.834 281.744 273.151 281.693 272.591C281.65 272.022 281.506 271.539 281.26 271.14C281.014 270.741 280.743 270.393 280.446 270.096L279.224 268.874Z" fill="black"/>
<path d="M288.67 316.441L288.817 314.484C289.345 314.333 289.926 314.182 290.56 314.032C291.193 313.881 291.816 313.756 292.427 313.658C293.03 313.553 293.554 313.496 293.999 313.488L293.886 315.638C293.471 315.631 292.962 315.665 292.359 315.74C291.755 315.815 291.129 315.913 290.481 316.034C289.832 316.155 289.228 316.291 288.67 316.441ZM297.269 315.627L297.619 313.511C298.042 313.39 298.517 313.262 299.045 313.126C299.565 312.983 300.09 312.844 300.618 312.708C301.146 312.572 301.658 312.459 302.156 312.368C302.654 312.263 303.092 312.187 303.469 312.142L303.141 314.507C302.801 314.529 302.39 314.578 301.907 314.654C301.425 314.729 300.916 314.824 300.38 314.937C299.845 315.035 299.309 315.148 298.773 315.276C298.23 315.397 297.729 315.514 297.269 315.627ZM289.949 310.524L291.997 309.744C292.004 310.309 291.997 310.89 291.974 311.486C291.944 312.074 291.906 312.648 291.861 313.206C291.816 313.749 291.755 314.247 291.68 314.699L289.983 315.219C290.036 314.744 290.069 314.235 290.085 313.692C290.1 313.134 290.096 312.58 290.073 312.029C290.058 311.471 290.017 310.969 289.949 310.524ZM284.993 313.941L295.153 303.781L296.42 305.048L286.261 315.208L284.993 313.941ZM288.048 308.352L289.474 306.927L291.295 308.748L289.87 310.174L288.048 308.352ZM293.581 308.816L295.481 308.228C295.655 309.517 295.647 310.83 295.459 312.165C295.27 313.485 294.938 314.797 294.463 316.102C293.98 317.399 293.392 318.681 292.698 319.949C292.434 319.851 292.11 319.768 291.725 319.7C291.34 319.617 290.982 319.568 290.65 319.553C291.359 318.391 291.966 317.203 292.472 315.989C292.97 314.767 293.324 313.545 293.535 312.323C293.746 311.101 293.762 309.932 293.581 308.816ZM296.828 309.28L298.841 308.714C299.09 310.29 299.087 311.856 298.83 313.409C298.574 314.963 298.117 316.513 297.461 318.059C296.805 319.59 295.994 321.118 295.029 322.641C294.742 322.521 294.399 322.411 293.999 322.313C293.614 322.215 293.252 322.155 292.913 322.132C293.871 320.707 294.689 319.27 295.368 317.822C296.039 316.366 296.511 314.922 296.782 313.488C297.061 312.048 297.076 310.645 296.828 309.28ZM310.987 311.072L298.146 298.231L299.232 297.145L312.073 309.986L310.987 311.072ZM311.456 286.618L311.479 284.989C311.796 284.883 312.139 284.789 312.509 284.706C312.886 284.616 313.252 284.544 313.606 284.491C313.961 284.423 314.262 284.393 314.511 284.401L314.534 286.166C314.285 286.143 313.983 286.158 313.629 286.211C313.274 286.249 312.905 286.301 312.52 286.369C312.135 286.437 311.781 286.52 311.456 286.618ZM315.597 288.293L317.317 287.32C318.245 289.349 318.799 291.381 318.98 293.418C319.161 295.454 318.969 297.427 318.403 299.335C318.237 299.29 318.022 299.256 317.758 299.233C317.509 299.21 317.249 299.191 316.978 299.176C316.721 299.161 316.499 299.158 316.31 299.165C316.951 297.393 317.211 295.586 317.091 293.746C316.97 291.89 316.472 290.073 315.597 288.293ZM306.954 293.248L315.597 284.604L316.887 285.894L308.243 294.538L306.954 293.248ZM311.411 295.692L314.194 292.909L315.45 294.164L312.667 296.948L311.411 295.692ZM306.275 293.927L307.632 292.569L310.698 295.635C311.121 296.058 311.566 296.54 312.033 297.083C312.494 297.619 312.935 298.196 313.357 298.814C313.787 299.425 314.153 300.063 314.455 300.726C314.749 301.383 314.937 302.046 315.02 302.718C314.862 302.695 314.654 302.691 314.398 302.706C314.149 302.729 313.896 302.755 313.64 302.785C313.399 302.816 313.195 302.853 313.029 302.899C312.946 302.303 312.776 301.733 312.52 301.19C312.271 300.64 311.966 300.115 311.604 299.618C311.249 299.112 310.876 298.641 310.483 298.203C310.084 297.758 309.703 297.355 309.341 296.993L306.275 293.927ZM308.809 287.614L310.178 286.245C311.158 287.18 312.124 288.063 313.074 288.892C314.025 289.707 314.937 290.438 315.812 291.087C316.68 291.728 317.487 292.249 318.233 292.648C318.98 293.048 319.64 293.301 320.213 293.406C320.786 293.512 321.247 293.429 321.594 293.158C321.759 293.052 321.707 292.803 321.435 292.411C321.164 292.004 320.741 291.483 320.168 290.85C320.447 290.842 320.764 290.804 321.118 290.736C321.48 290.661 321.786 290.582 322.035 290.499C323.015 291.645 323.528 292.573 323.573 293.282C323.626 293.998 323.283 294.545 322.544 294.922C321.971 295.3 321.311 295.462 320.564 295.409C319.825 295.364 319.018 295.137 318.143 294.73C317.268 294.323 316.336 293.768 315.348 293.067C314.353 292.358 313.308 291.547 312.214 290.635C311.121 289.707 309.986 288.7 308.809 287.614Z" fill="black"/>
<path d="M301.643 351.906L313.601 339.948L315.28 341.628L303.323 353.585L301.643 351.906ZM303.793 343.952L305.566 342.179L309.355 345.967L307.582 347.741L303.793 343.952ZM307.582 352.201L309.946 350.804C310.421 351.834 310.833 352.9 311.182 354.001C311.54 355.094 311.827 356.169 312.042 357.226C312.248 358.274 312.364 359.25 312.391 360.155C312.15 360.164 311.854 360.199 311.505 360.262C311.164 360.316 310.819 360.374 310.47 360.437C310.121 360.5 309.825 360.562 309.583 360.625C309.628 359.774 309.574 358.869 309.422 357.911C309.27 356.953 309.037 355.985 308.724 355.009C308.401 354.024 308.02 353.088 307.582 352.201ZM312.647 348.399L313.627 346.102C314.353 346.236 315.114 346.388 315.911 346.558C316.708 346.729 317.506 346.917 318.303 347.123C319.091 347.32 319.834 347.535 320.533 347.768C321.241 347.991 321.859 348.224 322.387 348.466L321.353 351.086C320.86 350.844 320.264 350.598 319.566 350.347C318.876 350.087 318.142 349.846 317.362 349.622C316.583 349.38 315.786 349.156 314.971 348.95C314.165 348.735 313.39 348.551 312.647 348.399ZM312.875 336.16L324.738 324.297L326.31 325.868L314.447 337.732L312.875 336.16ZM321.769 340.002L328.769 333.002L330.22 334.453L323.22 341.453L321.769 340.002ZM325.087 343.213L331.886 336.415L333.377 337.906L326.579 344.704L325.087 343.213ZM318.41 331.753L320.788 330.181C321.057 330.647 321.326 331.122 321.594 331.605C321.854 332.08 322.105 332.537 322.347 332.976C322.589 333.397 322.79 333.786 322.951 334.144L321.03 335.286C320.806 334.919 320.551 334.53 320.264 334.118C319.969 333.697 319.66 333.28 319.337 332.868C319.024 332.447 318.715 332.075 318.41 331.753ZM317.322 337.92L326.632 328.609L335.459 337.436L333.74 339.156L326.404 331.82L320.452 337.772L327.788 345.107L326.149 346.747L317.322 337.92ZM333.041 317.713C333.184 318.591 333.247 319.585 333.229 320.696C333.22 321.798 333.126 322.94 332.947 324.122C332.777 325.295 332.522 326.446 332.181 327.575C331.975 327.512 331.733 327.458 331.456 327.414C331.187 327.36 330.909 327.324 330.623 327.306C330.345 327.279 330.09 327.266 329.857 327.266C330.26 326.128 330.547 324.937 330.717 323.692C330.878 322.438 330.941 321.238 330.905 320.091C330.878 318.936 330.757 317.919 330.542 317.042L332.221 315.362C333.099 315.506 333.99 315.591 334.895 315.618C335.8 315.644 336.7 315.604 337.595 315.497C338.491 315.389 339.36 315.228 340.202 315.013C341.044 314.798 341.841 314.529 342.593 314.207C342.593 314.619 342.634 315.044 342.714 315.483C342.795 315.922 342.88 316.339 342.969 316.733C342.19 316.974 341.362 317.185 340.484 317.364C339.615 317.534 338.742 317.664 337.864 317.754C336.977 317.834 336.122 317.875 335.298 317.875C334.474 317.875 333.722 317.821 333.041 317.713ZM332.168 323.558L338.926 316.8L340.336 318.211L333.578 324.968L332.168 323.558ZM333.296 327.911L343.252 317.955L344.649 319.352L334.694 329.308L333.296 327.911ZM336.709 332.667L348.129 321.247L349.512 322.631L338.093 334.05L336.709 332.667ZM335.217 321.636L336.924 319.93L343.883 326.89L342.177 328.596L335.217 321.636ZM336.05 328.972L336.803 327.145C337.197 327.199 337.609 327.279 338.039 327.387C338.478 327.485 338.894 327.597 339.288 327.723C339.682 327.848 340.014 327.982 340.282 328.126L339.517 330.127C339.257 329.975 338.93 329.827 338.536 329.684C338.133 329.532 337.716 329.393 337.286 329.268C336.857 329.142 336.445 329.044 336.05 328.972ZM342.351 321.623L344.461 320.642C344.604 321.323 344.738 322.013 344.864 322.711C344.98 323.401 345.061 324.01 345.106 324.538L343.386 325.237C343.323 324.87 343.243 324.476 343.144 324.055C343.037 323.625 342.916 323.199 342.781 322.778C342.638 322.348 342.495 321.963 342.351 321.623ZM349.445 315.658L358.205 306.898L359.468 308.161L350.708 316.921L349.445 315.658ZM347.631 313.146L356.646 304.131L357.99 305.474L348.975 314.489L347.631 313.146ZM349.956 319.5L361.846 307.61L363.23 308.994L351.34 320.884L349.956 319.5ZM349.942 309.196L351.608 307.53L357.721 313.643L356.055 315.309L349.942 309.196ZM345.495 309.263L346.221 309.988L352.186 304.023L351.46 303.298L345.495 309.263ZM343.655 307.422L344.353 308.121L350.318 302.156L349.62 301.457L343.655 307.422ZM340.847 307.785L350.063 298.568L355.074 303.58L345.858 312.796L340.847 307.785ZM346.422 311.963L348.451 310.848C348.693 311.484 348.885 312.151 349.029 312.85C349.172 313.549 349.271 314.238 349.324 314.919C349.378 315.6 349.387 316.227 349.351 316.8C349.145 316.809 348.899 316.831 348.612 316.867C348.326 316.903 348.039 316.948 347.752 317.001C347.457 317.046 347.206 317.1 347 317.163C347.116 316.348 347.125 315.479 347.027 314.556C346.928 313.616 346.727 312.751 346.422 311.963Z" fill="black"/>
<path d="M155.751 260.006L159.531 263.786L158.016 265.301L154.236 261.521L155.751 260.006ZM164.788 263.417L166.379 265.008L157.202 274.185C156.845 274.541 156.646 274.8 156.603 274.961C156.57 275.114 156.671 275.309 156.909 275.547C156.96 275.598 157.045 275.683 157.164 275.802C157.282 275.92 157.414 276.052 157.558 276.196C157.702 276.34 157.834 276.472 157.953 276.591C158.071 276.709 158.161 276.799 158.22 276.858C158.39 277.028 158.589 277.083 158.818 277.023C159.047 276.964 159.365 276.765 159.773 276.425C160.197 276.086 160.761 275.589 161.466 274.936C161.5 275.157 161.555 275.398 161.631 275.662C161.716 275.933 161.809 276.196 161.911 276.451C162.021 276.697 162.132 276.909 162.242 277.087C161.376 277.851 160.63 278.419 160.002 278.793C159.382 279.174 158.827 279.34 158.334 279.289C157.842 279.255 157.354 278.996 156.871 278.513C156.803 278.445 156.688 278.33 156.527 278.169C156.366 278.008 156.192 277.834 156.005 277.647C155.827 277.469 155.662 277.303 155.509 277.151C155.356 276.998 155.242 276.883 155.165 276.807C154.682 276.323 154.372 275.869 154.236 275.445C154.1 275.038 154.147 274.609 154.376 274.16C154.614 273.701 155.029 273.175 155.623 272.581L164.788 263.417ZM161.58 260.21L163.171 261.801L151.563 273.409L149.972 271.818L161.58 260.21ZM167.091 269.514L166.824 271.996C166.086 271.852 165.322 271.682 164.533 271.487C163.752 271.283 162.967 271.067 162.178 270.838C161.406 270.609 160.659 270.371 159.938 270.125C160.057 269.904 160.167 269.616 160.269 269.259C160.379 268.895 160.464 268.581 160.524 268.318C161.228 268.53 161.966 268.716 162.738 268.878C163.511 269.039 164.27 269.17 165.017 269.272C165.772 269.382 166.463 269.463 167.091 269.514ZM149.527 265.314C149.976 265.56 150.503 265.84 151.105 266.154C151.716 266.459 152.365 266.777 153.052 267.108C153.748 267.431 154.436 267.753 155.114 268.076L154.032 269.743C153.108 269.395 152.17 269.026 151.22 268.636C150.278 268.254 149.416 267.902 148.636 267.579L149.527 265.314ZM170.477 270.787L181.779 282.089L180.354 283.515L169.051 272.212L170.477 270.787ZM176.319 274.541L177.91 276.132L165.959 288.084L164.368 286.493L176.319 274.541ZM168.657 281.415L169.421 283.247C168.699 283.375 167.953 283.443 167.18 283.451C166.417 283.468 165.64 283.43 164.851 283.336C164.079 283.243 163.315 283.099 162.56 282.904C161.805 282.726 161.088 282.501 160.409 282.229C160.452 282.017 160.494 281.771 160.536 281.491C160.579 281.211 160.609 280.927 160.626 280.638C160.642 280.35 160.647 280.099 160.638 279.887C161.266 280.193 161.924 280.46 162.611 280.689C163.307 280.91 164.007 281.092 164.711 281.236C165.424 281.372 166.111 281.457 166.773 281.491C167.452 281.525 168.08 281.499 168.657 281.415ZM171.024 283.884C170.956 284.461 170.944 285.084 170.986 285.755C171.045 286.425 171.143 287.117 171.279 287.829C171.432 288.542 171.627 289.246 171.864 289.942C172.11 290.63 172.386 291.287 172.692 291.915C172.471 291.898 172.212 291.894 171.915 291.902C171.618 291.928 171.325 291.958 171.037 291.991C170.748 292.042 170.494 292.093 170.273 292.144C169.993 291.474 169.764 290.761 169.586 290.006C169.399 289.259 169.255 288.496 169.153 287.715C169.068 286.934 169.03 286.158 169.039 285.386C169.056 284.622 169.124 283.884 169.242 283.171L171.024 283.884ZM167.906 278.474L167.129 279.251L173.303 285.424L174.079 284.647L167.906 278.474ZM169.739 276.642L168.975 277.405L175.148 283.578L175.912 282.815L169.739 276.642ZM169.395 274.007L178.623 283.235L173.723 288.135L164.495 278.907L169.395 274.007Z" fill="black"/>
<path d="M132.671 290.374L134.006 291.709L129.152 296.563L127.817 295.228L132.671 290.374ZM130.838 287.297L137.06 293.52L135.963 294.617L129.74 288.394L130.838 287.297ZM127.251 292.286L126.629 292.909L131.505 297.785L132.128 297.163L127.251 292.286ZM128.824 290.714L128.213 291.325L133.089 296.201L133.7 295.59L128.824 290.714ZM128.541 288.372L136.11 295.941L131.856 300.195L124.287 292.626L128.541 288.372ZM128.111 297.717L129.808 297.626C130.08 298.185 130.348 298.762 130.611 299.357C130.883 299.961 131.132 300.534 131.358 301.077C131.6 301.62 131.799 302.099 131.958 302.514L129.967 302.469C129.838 302.084 129.676 301.628 129.48 301.1C129.292 300.579 129.08 300.029 128.847 299.448C128.613 298.867 128.368 298.29 128.111 297.717ZM135.872 287.082L137.275 288.485L135.669 290.091L134.266 288.689L135.872 287.082ZM130.962 283.756L140.681 293.474L138.18 295.975L136.789 294.583L138.056 293.316L131.064 286.324L129.797 287.591L128.462 286.256L130.962 283.756ZM126.539 294.334L126.855 296.325C126.342 296.22 125.781 296.05 125.17 295.816C124.559 295.597 123.948 295.334 123.337 295.024C122.726 294.73 122.153 294.413 121.617 294.074C121.677 293.833 121.73 293.531 121.775 293.169C121.828 292.814 121.862 292.501 121.877 292.23C122.368 292.554 122.896 292.863 123.461 293.158C124.042 293.452 124.6 293.701 125.136 293.904C125.686 294.108 126.154 294.251 126.539 294.334ZM133.141 309.987L145.982 297.146L147.068 298.232L134.227 311.073L133.141 309.987ZM151.621 304.098L158.342 310.818L157.018 312.142L150.298 305.422L151.621 304.098ZM142.378 311.531L152.47 321.623L151.157 322.935L141.066 312.844L142.378 311.531ZM146.666 306.994L157.007 317.335L155.672 318.67L145.331 308.329L146.666 306.994ZM153.036 306.96L154.427 308.352C153.839 308.835 153.22 309.333 152.572 309.845C151.923 310.358 151.267 310.871 150.603 311.384C149.947 311.905 149.298 312.41 148.657 312.9C148.016 313.39 147.401 313.847 146.813 314.269C146.24 314.692 145.719 315.069 145.252 315.401L143.837 313.986C144.335 313.654 144.882 313.274 145.478 312.844C146.074 312.414 146.689 311.957 147.322 311.475C147.971 310.992 148.623 310.498 149.279 309.993C149.943 309.48 150.592 308.967 151.225 308.454C151.859 307.941 152.462 307.443 153.036 306.96ZM157.719 310.196L159.134 311.61C158.53 312.184 157.893 312.776 157.222 313.387C156.558 313.99 155.883 314.597 155.196 315.208C154.51 315.819 153.835 316.411 153.171 316.984C152.523 317.558 151.897 318.101 151.293 318.614C150.697 319.119 150.151 319.575 149.653 319.983L148.216 318.546C148.721 318.131 149.279 317.671 149.89 317.165C150.509 316.653 151.15 316.11 151.814 315.536C152.485 314.971 153.16 314.386 153.839 313.783C154.525 313.172 155.193 312.565 155.841 311.961C156.505 311.358 157.131 310.769 157.719 310.196Z" fill="black"/>
<path d="M95.2396 305.53L100.788 311.078L99.0686 312.798L93.5199 307.249L95.2396 305.53ZM99.4582 309.748L101.393 311.683C100.434 312.82 99.5209 313.967 98.6521 315.122C97.7923 316.287 97.0399 317.46 96.395 318.642C95.768 319.825 95.2933 320.998 94.9709 322.162C94.6664 323.327 94.5768 324.482 94.7022 325.629C94.4604 325.566 94.1648 325.512 93.8155 325.467C93.4572 325.431 93.099 325.405 92.7407 325.387C92.3914 325.378 92.0824 325.373 91.8137 325.373C91.7599 324.137 91.9122 322.901 92.2705 321.665C92.6377 320.42 93.1527 319.189 93.8155 317.971C94.4872 316.761 95.262 315.566 96.1398 314.383C97.0175 313.201 97.94 312.046 98.9074 310.917L98.5984 310.608L99.4582 309.748ZM92.7004 308.768L94.3126 310.89C93.399 311.535 92.4362 312.158 91.4241 312.758C90.4299 313.358 89.4043 313.891 88.3474 314.357C87.2995 314.813 86.2426 315.172 85.1768 315.431C84.1199 315.682 83.0719 315.781 82.033 315.727C82.0598 315.503 82.0643 315.23 82.0464 314.907C82.0285 314.603 82.0016 314.289 81.9658 313.967C81.93 313.662 81.8897 313.398 81.8449 313.174C82.7853 313.255 83.7347 313.183 84.6931 312.959C85.6604 312.726 86.6098 312.395 87.5413 311.965C88.4818 311.526 89.3819 311.029 90.2418 310.474C91.1195 309.919 91.9391 309.35 92.7004 308.768ZM98.773 327.389L107.116 335.732L105.491 337.357L97.1474 329.014L98.773 327.389ZM102.857 323.251L111.227 331.621L109.629 333.219L101.258 324.849L102.857 323.251ZM106.055 318.387L116.225 328.557L105.598 339.184L103.878 337.465L112.866 328.477L106.041 321.652L97.0399 330.653L95.4143 329.028L106.055 318.387ZM112.007 320.308L113.834 322.7C113.126 322.995 112.419 323.264 111.711 323.506C111.003 323.748 110.385 323.945 109.857 324.097L108.581 322.176C108.939 322.015 109.32 321.831 109.723 321.625C110.135 321.428 110.538 321.213 110.932 320.98C111.335 320.756 111.693 320.532 112.007 320.308ZM117.125 333.891L127.578 344.344L125.992 345.929L115.54 335.476L117.125 333.891ZM109.951 339.292L122.19 351.531L120.605 353.117L108.366 340.877L109.951 339.292ZM125.603 334.066L127.336 335.799L115.809 347.326L114.076 345.593L125.603 334.066ZM126.973 352.821L135.733 361.581L134.47 362.844L125.71 354.084L126.973 352.821ZM129.485 351.007L138.5 360.022L137.157 361.366L128.142 352.351L129.485 351.007ZM123.131 353.332L135.021 365.222L133.637 366.605L121.747 354.715L123.131 353.332ZM133.435 353.318L135.101 354.984L128.988 361.097L127.322 359.431L133.435 353.318ZM133.368 348.871L132.643 349.597L138.608 355.562L139.333 354.836L133.368 348.871ZM135.209 347.031L134.51 347.729L140.475 353.694L141.174 352.996L135.209 347.031ZM134.846 344.223L144.062 353.439L139.051 358.45L129.835 349.234L134.846 344.223ZM130.668 349.798L131.783 351.827C131.147 352.069 130.48 352.261 129.781 352.405C129.082 352.548 128.393 352.646 127.712 352.7C127.031 352.754 126.404 352.763 125.831 352.727C125.822 352.521 125.8 352.275 125.764 351.988C125.728 351.701 125.683 351.415 125.63 351.128C125.585 350.833 125.531 350.582 125.468 350.376C126.283 350.492 127.152 350.501 128.075 350.403C129.015 350.304 129.88 350.103 130.668 349.798Z" fill="black"/>
<path d="M311.929 78.0461L321.683 87.7999L319.909 89.5733L310.155 79.8195L311.929 78.0461ZM302.994 84.7233L314.992 96.7208L313.151 98.5614L301.154 86.5639L302.994 84.7233ZM325.444 95.0279L324.652 95.8206L330.805 101.974L331.598 101.181L325.444 95.0279ZM327.379 93.0933L326.586 93.886L332.74 100.039L333.532 99.2465L327.379 93.0933ZM327.043 90.3391L336.367 99.663L331.208 104.822L321.884 95.4982L327.043 90.3391ZM320.917 95.7669L330.966 105.816L329.703 107.079L319.654 97.0298L320.917 95.7669ZM317.854 96.5998L330.026 108.772L328.682 110.115L316.51 97.9433L317.854 96.5998ZM330.254 94.6518L331.853 96.2505L323.832 104.271L322.233 102.672L330.254 94.6518ZM319.533 102.471L321.132 103.828C320.854 104.249 320.532 104.697 320.164 105.171C319.797 105.646 319.47 106.027 319.184 106.313L317.424 104.93C317.719 104.634 318.069 104.258 318.472 103.801C318.866 103.353 319.22 102.91 319.533 102.471ZM322.126 105.171L323.926 106.381C323.729 106.864 323.492 107.379 323.214 107.926C322.946 108.463 322.69 108.906 322.448 109.256L320.5 108.006C320.751 107.684 321.029 107.254 321.333 106.716C321.638 106.179 321.902 105.664 322.126 105.171ZM324.853 107.737L326.869 108.759C326.851 109.188 326.806 109.654 326.734 110.156C326.68 110.657 326.609 111.141 326.519 111.607C326.439 112.064 326.336 112.462 326.21 112.802L324.02 111.741C324.137 111.446 324.249 111.065 324.356 110.599C324.464 110.151 324.558 109.672 324.638 109.162C324.728 108.66 324.8 108.185 324.853 107.737ZM317.625 99.5421L318.808 101.477C318.19 101.79 317.522 102.046 316.806 102.243C316.08 102.449 315.404 102.543 314.777 102.525L313.917 100.321C314.464 100.384 315.073 100.339 315.744 100.187C316.416 100.035 317.043 99.8198 317.625 99.5421ZM336.125 106.891L346.578 117.344L344.992 118.929L334.54 108.476L336.125 106.891ZM328.951 112.292L341.19 124.531L339.605 126.117L327.366 113.877L328.951 112.292ZM344.603 107.066L346.336 108.799L334.809 120.326L333.076 118.593L344.603 107.066ZM345.973 125.821L354.733 134.581L353.47 135.844L344.71 127.084L345.973 125.821ZM348.485 124.007L357.5 133.022L356.157 134.366L347.142 125.351L348.485 124.007ZM342.131 126.332L354.021 138.222L352.637 139.605L340.747 127.715L342.131 126.332ZM352.435 126.318L354.101 127.984L347.988 134.097L346.322 132.431L352.435 126.318ZM352.368 121.871L351.643 122.597L357.608 128.562L358.333 127.836L352.368 121.871ZM354.209 120.031L353.51 120.729L359.475 126.694L360.174 125.996L354.209 120.031ZM353.846 117.223L363.062 126.439L358.051 131.45L348.835 122.234L353.846 117.223ZM349.668 122.798L350.783 124.827C350.147 125.069 349.48 125.261 348.781 125.405C348.082 125.548 347.393 125.646 346.712 125.7C346.031 125.754 345.404 125.763 344.831 125.727C344.822 125.521 344.8 125.275 344.764 124.988C344.728 124.701 344.683 124.415 344.63 124.128C344.585 123.833 344.531 123.582 344.468 123.376C345.283 123.492 346.152 123.501 347.075 123.403C348.015 123.304 348.88 123.103 349.668 122.798Z" fill="black"/>
<path d="M213.008 125.194H228.992V127.21H213.008V125.194ZM216.968 132.934H225.014V134.608H216.968V132.934ZM216.59 135.796H225.41V137.524H216.59V135.796ZM219.92 133.762H221.954V140.098H219.92V133.762ZM213.692 128.56H226.724V130.54H215.852V140.566H213.692V128.56ZM226.112 128.56H228.326V138.406C228.326 138.922 228.254 139.318 228.11 139.594C227.966 139.882 227.714 140.098 227.354 140.242C226.982 140.398 226.526 140.488 225.986 140.512C225.458 140.548 224.828 140.566 224.096 140.566C224.048 140.29 223.952 139.978 223.808 139.63C223.676 139.282 223.538 138.982 223.394 138.73C223.694 138.742 224 138.754 224.312 138.766C224.624 138.778 224.906 138.784 225.158 138.784C225.422 138.772 225.596 138.766 225.68 138.766C225.848 138.766 225.962 138.742 226.022 138.694C226.082 138.634 226.112 138.538 226.112 138.406V128.56ZM217.652 131.026L219.362 130.522C219.578 130.81 219.776 131.14 219.956 131.512C220.148 131.884 220.292 132.208 220.388 132.484L218.588 133.078C218.516 132.79 218.39 132.454 218.21 132.07C218.03 131.686 217.844 131.338 217.652 131.026ZM222.728 130.558L224.546 131.062C224.306 131.494 224.066 131.914 223.826 132.322C223.598 132.718 223.376 133.066 223.16 133.366L221.63 132.898C221.762 132.682 221.894 132.436 222.026 132.16C222.17 131.884 222.302 131.608 222.422 131.332C222.542 131.056 222.644 130.798 222.728 130.558ZM219.848 123.826H222.206V129.964H219.848V123.826Z" fill="black"/>
<path d="M215.744 79.336L217.792 79.832C217.536 80.6427 217.227 81.4373 216.864 82.216C216.501 82.984 216.112 83.704 215.696 84.376C215.28 85.048 214.848 85.6293 214.4 86.12C214.272 86.0133 214.096 85.8853 213.872 85.736C213.648 85.5867 213.419 85.4427 213.184 85.304C212.96 85.1547 212.763 85.0373 212.592 84.952C213.051 84.5147 213.477 83.9973 213.872 83.4C214.277 82.8027 214.635 82.1573 214.944 81.464C215.264 80.7707 215.531 80.0613 215.744 79.336ZM216.192 81.416H225.984V83.288H215.232L216.192 81.416ZM212.784 86.616H227.248V88.552H212.784V86.616ZM219.008 82.248H221.008V94.44H219.008V82.248Z" fill="black"/>
<path d="M301.988 224.524H314.192V226.522H301.988V224.524ZM300.602 215.722H315.452V227.512H313.256V217.72H302.708V227.548H300.602V215.722ZM308.738 216.55H310.808V219.79C310.808 220.018 310.826 220.162 310.862 220.222C310.91 220.27 311.024 220.294 311.204 220.294C311.24 220.294 311.318 220.294 311.438 220.294C311.57 220.294 311.696 220.294 311.816 220.294C311.948 220.294 312.044 220.294 312.104 220.294C312.212 220.294 312.29 220.276 312.338 220.24C312.398 220.192 312.44 220.102 312.464 219.97C312.5 219.838 312.524 219.634 312.536 219.358C312.656 219.454 312.818 219.556 313.022 219.664C313.238 219.76 313.46 219.85 313.688 219.934C313.928 220.006 314.144 220.06 314.336 220.096C314.252 220.648 314.132 221.074 313.976 221.374C313.82 221.674 313.61 221.884 313.346 222.004C313.094 222.124 312.764 222.184 312.356 222.184C312.26 222.184 312.146 222.184 312.014 222.184C311.882 222.184 311.738 222.184 311.582 222.184C311.438 222.184 311.3 222.184 311.168 222.184C311.036 222.184 310.928 222.184 310.844 222.184C310.268 222.184 309.824 222.112 309.512 221.968C309.212 221.824 309.008 221.578 308.9 221.23C308.792 220.882 308.738 220.408 308.738 219.808V216.55ZM299.882 211.69H316.064V213.778H299.882V211.69ZM304.796 213.274H306.92V216.874H304.796V213.274ZM308.738 213.274H310.916V216.874H308.738V213.274ZM304.904 216.136H306.92V217.918C306.92 218.518 306.842 219.136 306.686 219.772C306.53 220.408 306.236 221.014 305.804 221.59C305.372 222.166 304.742 222.67 303.914 223.102C303.818 222.97 303.674 222.814 303.482 222.634C303.29 222.454 303.086 222.28 302.87 222.112C302.666 221.944 302.492 221.818 302.348 221.734C303.104 221.35 303.662 220.942 304.022 220.51C304.394 220.078 304.634 219.634 304.742 219.178C304.85 218.722 304.904 218.284 304.904 217.864V216.136Z" fill="black"/>
<path d="M347.928 224.008H358.488V225.688H347.928V224.008ZM347.928 221.448H358.52V223.032H347.928V221.448ZM346.584 215.672H359.48V226.424H357.608V217.384H348.376V226.424H346.584V215.672ZM353.352 213.512H355.192V218.568C355.192 218.803 355.208 218.947 355.24 219C355.283 219.053 355.368 219.08 355.496 219.08C355.528 219.08 355.576 219.08 355.64 219.08C355.704 219.08 355.773 219.08 355.848 219.08C355.923 219.08 355.992 219.08 356.056 219.08C356.131 219.08 356.184 219.08 356.216 219.08C356.291 219.08 356.349 219.059 356.392 219.016C356.445 218.973 356.483 218.888 356.504 218.76C356.525 218.632 356.541 218.445 356.552 218.2C356.733 218.328 356.973 218.451 357.272 218.568C357.581 218.685 357.859 218.776 358.104 218.84C358.019 219.523 357.848 219.992 357.592 220.248C357.336 220.504 356.941 220.632 356.408 220.632C356.333 220.632 356.237 220.632 356.12 220.632C356.013 220.632 355.896 220.632 355.768 220.632C355.651 220.632 355.539 220.632 355.432 220.632C355.325 220.632 355.235 220.632 355.16 220.632C354.659 220.632 354.28 220.573 354.024 220.456C353.768 220.328 353.592 220.115 353.496 219.816C353.4 219.507 353.352 219.091 353.352 218.568V213.512ZM350.312 213.512H352.04V217.016C352.04 217.667 351.965 218.248 351.816 218.76C351.677 219.272 351.4 219.72 350.984 220.104C350.568 220.488 349.944 220.808 349.112 221.064C348.995 220.861 348.829 220.632 348.616 220.376C348.403 220.12 348.205 219.907 348.024 219.736C348.675 219.544 349.165 219.315 349.496 219.048C349.827 218.781 350.045 218.477 350.152 218.136C350.259 217.784 350.312 217.405 350.312 217V213.512ZM345.864 212.312H360.168V214.152H345.864V212.312Z" fill="black"/>
<path d="M213.008 301.984H218.354V304.126H213.008V301.984ZM221.81 298.006H224.06V310.984C224.06 311.488 224.102 311.812 224.186 311.956C224.27 312.088 224.48 312.154 224.816 312.154C224.888 312.154 225.008 312.154 225.176 312.154C225.344 312.154 225.53 312.154 225.734 312.154C225.938 312.154 226.124 312.154 226.292 312.154C226.46 312.154 226.586 312.154 226.67 312.154C226.91 312.154 227.09 312.052 227.21 311.848C227.33 311.644 227.414 311.278 227.462 310.75C227.522 310.21 227.57 309.46 227.606 308.5C227.786 308.632 227.996 308.764 228.236 308.896C228.488 309.028 228.74 309.148 228.992 309.256C229.244 309.352 229.472 309.424 229.676 309.472C229.604 310.624 229.478 311.554 229.298 312.262C229.13 312.97 228.854 313.48 228.47 313.792C228.098 314.116 227.57 314.278 226.886 314.278C226.79 314.278 226.628 314.278 226.4 314.278C226.172 314.278 225.926 314.278 225.662 314.278C225.41 314.278 225.176 314.278 224.96 314.278C224.744 314.278 224.582 314.278 224.474 314.278C223.79 314.278 223.25 314.176 222.854 313.972C222.47 313.78 222.2 313.444 222.044 312.964C221.888 312.472 221.81 311.806 221.81 310.966V298.006ZM217.274 298.006H219.524V314.422H217.274V298.006ZM227.75 300.688L229.316 302.632C228.692 303.052 228.032 303.472 227.336 303.892C226.64 304.3 225.932 304.702 225.212 305.098C224.504 305.482 223.808 305.842 223.124 306.178C223.052 305.938 222.926 305.656 222.746 305.332C222.566 304.996 222.404 304.714 222.26 304.486C222.908 304.138 223.562 303.748 224.222 303.316C224.882 302.884 225.512 302.44 226.112 301.984C226.724 301.528 227.27 301.096 227.75 300.688ZM212.36 310.138C212.852 309.994 213.422 309.82 214.07 309.616C214.718 309.4 215.402 309.166 216.122 308.914C216.842 308.65 217.556 308.392 218.264 308.14L218.678 310.084C217.778 310.492 216.854 310.894 215.906 311.29C214.97 311.686 214.112 312.046 213.332 312.37L212.36 310.138Z" fill="black"/>
<path d="M213.624 350.408H228.392V352.344H213.624V350.408ZM220.008 347.864H222.024V356.2C222.024 356.744 221.949 357.165 221.8 357.464C221.661 357.763 221.395 357.987 221 358.136C220.616 358.285 220.147 358.381 219.592 358.424C219.037 358.467 218.392 358.483 217.656 358.472C217.624 358.28 217.56 358.061 217.464 357.816C217.368 357.581 217.267 357.341 217.16 357.096C217.053 356.861 216.947 356.659 216.84 356.488C217.213 356.499 217.581 356.509 217.944 356.52C218.317 356.531 218.648 356.536 218.936 356.536C219.235 356.536 219.443 356.536 219.56 356.536C219.731 356.536 219.848 356.509 219.912 356.456C219.976 356.403 220.008 356.307 220.008 356.168V347.864ZM215.304 344.392H225.384V346.28H215.304V344.392ZM224.744 344.392H225.256L225.704 344.28L227.16 345.384C226.669 345.907 226.104 346.429 225.464 346.952C224.835 347.475 224.179 347.976 223.496 348.456C222.813 348.925 222.147 349.331 221.496 349.672C221.4 349.533 221.277 349.379 221.128 349.208C220.979 349.037 220.824 348.872 220.664 348.712C220.504 348.541 220.36 348.397 220.232 348.28C220.808 347.992 221.389 347.645 221.976 347.24C222.573 346.835 223.117 346.419 223.608 345.992C224.099 345.565 224.477 345.176 224.744 344.824V344.392Z" fill="black"/>
<path d="M183.722 392.355H201.316V394.844H183.722V392.355ZM205.553 399.138H217.352V401.437H205.553V399.138ZM205.515 393.324H217.352V395.585H205.515V393.324ZM204.337 387.624H218.72V402.653H216.288V389.942H206.636V402.672H204.337V387.624ZM209.904 384.774L212.887 385.173C212.596 385.882 212.285 386.573 211.956 387.244C211.627 387.915 211.329 388.492 211.063 388.973L208.802 388.517C208.941 388.15 209.081 387.751 209.22 387.32C209.372 386.889 209.505 386.452 209.619 386.009C209.746 385.566 209.841 385.154 209.904 384.774ZM221.988 389.524H227.27V391.823H221.988V389.524ZM229.36 384.869H231.792V399.746C231.792 400.43 231.71 400.962 231.545 401.342C231.38 401.722 231.095 402.013 230.69 402.216C230.285 402.419 229.765 402.552 229.132 402.615C228.511 402.691 227.764 402.729 226.89 402.729C226.865 402.488 226.801 402.21 226.7 401.893C226.611 401.589 226.504 401.285 226.377 400.981C226.25 400.664 226.124 400.398 225.997 400.183C226.618 400.208 227.2 400.221 227.745 400.221C228.29 400.221 228.657 400.221 228.847 400.221C229.037 400.221 229.17 400.183 229.246 400.107C229.322 400.031 229.36 399.911 229.36 399.746V384.869ZM226.491 389.524H226.966L227.384 389.429L228.942 389.999C228.663 391.734 228.245 393.311 227.688 394.73C227.143 396.149 226.497 397.396 225.75 398.473C225.015 399.537 224.192 400.405 223.28 401.076C223.153 400.886 222.976 400.677 222.748 400.449C222.52 400.208 222.279 399.98 222.026 399.765C221.785 399.55 221.57 399.385 221.38 399.271C222.254 398.676 223.033 397.928 223.717 397.029C224.401 396.117 224.977 395.072 225.446 393.894C225.927 392.703 226.276 391.411 226.491 390.018V389.524ZM231.64 387.643C231.944 388.91 232.33 390.126 232.799 391.291C233.28 392.456 233.844 393.546 234.49 394.559C235.136 395.572 235.883 396.478 236.732 397.276C237.593 398.061 238.556 398.707 239.62 399.214C239.43 399.366 239.221 399.562 238.993 399.803C238.765 400.044 238.55 400.303 238.347 400.582C238.157 400.848 237.992 401.095 237.853 401.323C236.384 400.487 235.136 399.41 234.11 398.093C233.084 396.763 232.229 395.243 231.545 393.533C230.861 391.823 230.291 389.986 229.835 388.023L231.64 387.643ZM236.979 387.833L239.126 389.334C238.581 389.891 238.005 390.468 237.397 391.063C236.789 391.658 236.181 392.222 235.573 392.754C234.978 393.286 234.414 393.748 233.882 394.141L232.229 392.868C232.748 392.437 233.293 391.937 233.863 391.367C234.446 390.797 235.009 390.208 235.554 389.6C236.099 388.979 236.574 388.39 236.979 387.833ZM243.477 397.181H255.865V398.967H243.477V397.181ZM243.971 394.122H256.72V396.022H243.971V394.122ZM241.121 400.259H257.936V402.216H241.121V400.259ZM248.398 392.963H250.754V401.608H248.398V392.963ZM245.206 389.866V390.892H253.642V389.866H245.206ZM245.206 387.263V388.251H253.642V387.263H245.206ZM242.964 385.534H255.998V392.621H242.964V385.534ZM243.952 392.431L246.175 393.077C245.896 393.698 245.561 394.306 245.168 394.901C244.775 395.496 244.357 396.054 243.914 396.573C243.471 397.092 243.034 397.542 242.603 397.922C242.451 397.783 242.261 397.624 242.033 397.447C241.805 397.27 241.571 397.099 241.33 396.934C241.089 396.757 240.874 396.617 240.684 396.516C241.343 396.022 241.963 395.414 242.546 394.692C243.141 393.957 243.61 393.204 243.952 392.431Z" fill="black"/>
<path d="M188.118 34.116H190.607C190.594 35.6233 190.563 37.0927 190.512 38.524C190.461 39.9427 190.335 41.298 190.132 42.59C189.929 43.8693 189.6 45.0727 189.144 46.2C188.688 47.3147 188.048 48.3407 187.225 49.278C186.414 50.2027 185.363 51.0133 184.071 51.71C183.97 51.52 183.824 51.3047 183.634 51.064C183.444 50.836 183.241 50.608 183.026 50.38C182.823 50.1647 182.621 49.9937 182.418 49.867C183.621 49.2463 184.584 48.5307 185.306 47.72C186.041 46.9093 186.604 46.0163 186.997 45.041C187.39 44.053 187.662 42.9827 187.814 41.83C187.966 40.6773 188.048 39.455 188.061 38.163C188.086 36.871 188.105 35.522 188.118 34.116ZM183.387 38.524H195.072V40.823H183.387V38.524ZM193.818 38.524H196.193V48.29C196.193 48.6953 196.225 48.955 196.288 49.069C196.351 49.1703 196.497 49.221 196.725 49.221C196.776 49.221 196.858 49.221 196.972 49.221C197.086 49.221 197.213 49.221 197.352 49.221C197.491 49.221 197.618 49.221 197.732 49.221C197.859 49.221 197.947 49.221 197.998 49.221C198.163 49.221 198.283 49.145 198.359 48.993C198.435 48.841 198.492 48.556 198.53 48.138C198.568 47.72 198.6 47.112 198.625 46.314C198.815 46.4533 199.03 46.5863 199.271 46.713C199.524 46.8397 199.784 46.96 200.05 47.074C200.316 47.1753 200.557 47.2513 200.772 47.302C200.709 48.328 200.588 49.145 200.411 49.753C200.234 50.3483 199.974 50.7727 199.632 51.026C199.29 51.292 198.828 51.425 198.245 51.425C198.144 51.425 198.004 51.425 197.827 51.425C197.65 51.425 197.46 51.425 197.257 51.425C197.054 51.425 196.864 51.425 196.687 51.425C196.522 51.425 196.396 51.425 196.307 51.425C195.686 51.425 195.192 51.33 194.825 51.14C194.47 50.9627 194.211 50.646 194.046 50.19C193.894 49.734 193.818 49.0943 193.818 48.271V38.524ZM209.284 46.39H211.64V51.71H209.284V46.39ZM201.855 45.592C202.78 45.592 203.831 45.592 205.009 45.592C206.187 45.5793 207.441 45.5667 208.771 45.554C210.101 45.5287 211.469 45.5097 212.875 45.497C214.281 45.4717 215.674 45.4527 217.055 45.44L216.941 47.245C215.586 47.2957 214.218 47.34 212.837 47.378C211.469 47.416 210.126 47.454 208.809 47.492C207.504 47.5173 206.263 47.549 205.085 47.587C203.92 47.6123 202.868 47.6313 201.931 47.644L201.855 45.592ZM208.847 40.386L210.956 41.222C210.373 41.7667 209.753 42.2923 209.094 42.799C208.448 43.293 207.846 43.711 207.289 44.053L205.541 43.236C205.908 42.9827 206.295 42.6977 206.7 42.381C207.118 42.0517 207.511 41.716 207.878 41.374C208.245 41.0193 208.568 40.69 208.847 40.386ZM212.894 41.545L215.136 42.457C214.389 43.0397 213.578 43.6097 212.704 44.167C211.843 44.7243 210.981 45.25 210.12 45.744C209.259 46.238 208.448 46.6687 207.688 47.036L205.959 46.105C206.732 45.725 207.542 45.2753 208.391 44.756C209.252 44.2367 210.076 43.6983 210.861 43.141C211.646 42.571 212.324 42.039 212.894 41.545ZM203.755 43.369L205.389 42.039C205.908 42.2543 206.447 42.5013 207.004 42.78C207.574 43.046 208.119 43.3183 208.638 43.597C209.157 43.863 209.607 44.11 209.987 44.338L208.334 45.839C207.979 45.5983 207.536 45.3323 207.004 45.041C206.485 44.737 205.94 44.4393 205.37 44.148C204.813 43.8567 204.274 43.597 203.755 43.369ZM212.78 48.917L214.756 47.872C215.25 48.1127 215.763 48.3913 216.295 48.708C216.827 49.012 217.34 49.3223 217.834 49.639C218.341 49.943 218.771 50.2153 219.126 50.456L217.093 51.653C216.764 51.387 216.352 51.0893 215.858 50.76C215.364 50.4433 214.845 50.1203 214.3 49.791C213.768 49.449 213.261 49.1577 212.78 48.917ZM205.845 47.91L208.011 48.746C207.631 49.1133 207.181 49.4807 206.662 49.848C206.155 50.2153 205.63 50.5573 205.085 50.874C204.553 51.1907 204.04 51.4693 203.546 51.71C203.407 51.5707 203.223 51.3997 202.995 51.197C202.78 51.007 202.552 50.817 202.311 50.627C202.083 50.4497 201.88 50.304 201.703 50.19C202.463 49.9113 203.223 49.5693 203.983 49.164C204.743 48.7587 205.364 48.3407 205.845 47.91ZM213.445 44.433L215.402 43.578C215.871 43.9453 216.358 44.357 216.865 44.813C217.384 45.269 217.872 45.725 218.328 46.181C218.784 46.637 219.158 47.055 219.449 47.435L217.321 48.385C217.068 48.0177 216.726 47.606 216.295 47.15C215.877 46.6813 215.415 46.2127 214.908 45.744C214.401 45.2627 213.914 44.8257 213.445 44.433ZM206.833 35.522H210.405V37.327H206.833V35.522ZM211.089 33.85H213.35V38.695C213.35 38.999 213.401 39.1953 213.502 39.284C213.616 39.36 213.863 39.398 214.243 39.398C214.332 39.398 214.477 39.398 214.68 39.398C214.883 39.398 215.104 39.398 215.345 39.398C215.586 39.398 215.814 39.398 216.029 39.398C216.244 39.398 216.403 39.398 216.504 39.398C216.719 39.398 216.878 39.3663 216.979 39.303C217.093 39.227 217.175 39.0877 217.226 38.885C217.277 38.6697 217.315 38.3593 217.34 37.954C217.568 38.106 217.878 38.258 218.271 38.41C218.664 38.5493 219.018 38.6507 219.335 38.714C219.246 39.4107 219.107 39.9553 218.917 40.348C218.727 40.728 218.461 40.994 218.119 41.146C217.777 41.298 217.315 41.374 216.732 41.374C216.631 41.374 216.485 41.374 216.295 41.374C216.118 41.374 215.915 41.374 215.687 41.374C215.459 41.374 215.225 41.374 214.984 41.374C214.756 41.374 214.547 41.374 214.357 41.374C214.18 41.374 214.047 41.374 213.958 41.374C213.185 41.374 212.59 41.2917 212.172 41.127C211.767 40.9623 211.482 40.69 211.317 40.31C211.165 39.9173 211.089 39.3853 211.089 38.714V33.85ZM201.627 39.664C202.362 39.6007 203.21 39.5183 204.173 39.417C205.148 39.303 206.174 39.1827 207.251 39.056C208.34 38.9293 209.423 38.8027 210.5 38.676L210.557 40.462C209.531 40.614 208.492 40.766 207.441 40.918C206.39 41.0573 205.383 41.1967 204.42 41.336C203.47 41.4627 202.602 41.583 201.817 41.697L201.627 39.664ZM217.112 34.762L218.803 36.358C218.195 36.624 217.536 36.871 216.827 37.099C216.13 37.3143 215.415 37.517 214.68 37.707C213.945 37.8843 213.236 38.0427 212.552 38.182C212.514 37.954 212.425 37.6817 212.286 37.365C212.159 37.0357 212.033 36.7633 211.906 36.548C212.527 36.3833 213.16 36.206 213.806 36.016C214.452 35.826 215.06 35.6233 215.63 35.408C216.2 35.1927 216.694 34.9773 217.112 34.762ZM205.902 33.85H208.011V40.31L205.902 40.462V33.85ZM202.805 35.256H204.762V40.481L202.805 40.652V35.256ZM223.363 37.631L225.662 38.144C225.561 38.9293 225.415 39.6957 225.225 40.443C225.048 41.1903 224.794 41.887 224.465 42.533C224.136 43.1663 223.699 43.711 223.154 44.167L221.083 42.875C221.552 42.4823 221.932 42.02 222.223 41.488C222.527 40.9433 222.768 40.348 222.945 39.702C223.135 39.0433 223.274 38.353 223.363 37.631ZM235.029 37.612L237.556 38.562C237.227 39.17 236.885 39.797 236.53 40.443C236.175 41.0763 235.821 41.6843 235.466 42.267C235.124 42.837 234.788 43.3373 234.459 43.768L232.502 42.894C232.793 42.4253 233.097 41.887 233.414 41.279C233.743 40.671 234.047 40.0503 234.326 39.417C234.605 38.771 234.839 38.1693 235.029 37.612ZM229.405 34.116H230.64V40.082C230.64 40.5507 230.691 41.0637 230.792 41.621C230.906 42.1783 231.083 42.7483 231.324 43.331C231.565 43.9137 231.881 44.4963 232.274 45.079C232.679 45.6617 233.167 46.2253 233.737 46.77C234.307 47.3147 234.972 47.8277 235.732 48.309C236.505 48.7777 237.385 49.1957 238.373 49.563C238.196 49.7277 238.006 49.9367 237.803 50.19C237.6 50.4433 237.404 50.703 237.214 50.969C237.037 51.235 236.891 51.4757 236.777 51.691C235.865 51.3237 235.042 50.8867 234.307 50.38C233.572 49.8733 232.92 49.3413 232.35 48.784C231.793 48.214 231.311 47.644 230.906 47.074C230.501 46.504 230.171 45.9657 229.918 45.459C229.677 44.9523 229.5 44.509 229.386 44.129C229.297 44.5217 229.133 44.9713 228.892 45.478C228.664 45.9847 228.354 46.523 227.961 47.093C227.581 47.6503 227.119 48.2077 226.574 48.765C226.042 49.3223 225.415 49.8543 224.693 50.361C223.984 50.8677 223.186 51.311 222.299 51.691C222.198 51.5137 222.052 51.3047 221.862 51.064C221.672 50.8233 221.469 50.5827 221.254 50.342C221.039 50.1013 220.849 49.905 220.684 49.753C221.837 49.3223 222.831 48.803 223.667 48.195C224.516 47.5743 225.225 46.9157 225.795 46.219C226.365 45.5223 226.821 44.813 227.163 44.091C227.518 43.3563 227.771 42.6533 227.923 41.982C228.088 41.298 228.17 40.6647 228.17 40.082V34.116H229.405ZM242.477 46.181H254.865V47.967H242.477V46.181ZM242.971 43.122H255.72V45.022H242.971V43.122ZM240.121 49.259H256.936V51.216H240.121V49.259ZM247.398 41.963H249.754V50.608H247.398V41.963ZM244.206 38.866V39.892H252.642V38.866H244.206ZM244.206 36.263V37.251H252.642V36.263H244.206ZM241.964 34.534H254.998V41.621H241.964V34.534ZM242.952 41.431L245.175 42.077C244.896 42.6977 244.561 43.3057 244.168 43.901C243.775 44.4963 243.357 45.0537 242.914 45.573C242.471 46.0923 242.034 46.542 241.603 46.922C241.451 46.7827 241.261 46.6243 241.033 46.447C240.805 46.2697 240.571 46.0987 240.33 45.934C240.089 45.7567 239.874 45.6173 239.684 45.516C240.343 45.022 240.963 44.414 241.546 43.692C242.141 42.9573 242.61 42.2037 242.952 41.431Z" fill="black"/>
<path d="M204.352 198.082H220.585V200.581H204.352V198.082ZM203.134 212.383H221.971V214.882H203.134V212.383ZM210.19 198.964H213.067C212.857 200.224 212.626 201.533 212.374 202.891C212.122 204.249 211.863 205.6 211.597 206.944C211.331 208.288 211.065 209.562 210.799 210.766C210.547 211.97 210.302 213.041 210.064 213.979H207.229C207.481 212.999 207.747 211.9 208.027 210.682C208.307 209.45 208.573 208.169 208.825 206.839C209.091 205.495 209.343 204.151 209.581 202.807C209.819 201.463 210.022 200.182 210.19 198.964ZM205.045 204.235H218.674V213.559H216.049V206.713H205.045V204.235ZM224.05 201.19H243.034V203.479H224.05V201.19ZM225.541 197.704H241.585V199.909H225.541V197.704ZM229.006 196.15H231.568V202.303H229.006V196.15ZM235.495 196.15H238.099V202.303H235.495V196.15ZM232.219 202.492H234.823V211.102H232.219V202.492ZM228.565 209.044V210.262H238.582V209.044H228.565ZM228.565 206.251V207.427H238.582V206.251H228.565ZM226.15 204.508H241.123V211.984H226.15V204.508ZM235.012 213.328L236.419 211.732C237.189 211.984 237.966 212.257 238.75 212.551C239.548 212.845 240.304 213.132 241.018 213.412C241.746 213.692 242.369 213.944 242.887 214.168L241.081 215.848C240.619 215.624 240.059 215.365 239.401 215.071C238.743 214.791 238.036 214.497 237.28 214.189C236.524 213.881 235.768 213.594 235.012 213.328ZM230.182 211.816L232.324 213.307C231.764 213.657 231.106 213.993 230.35 214.315C229.594 214.651 228.817 214.959 228.019 215.239C227.221 215.519 226.465 215.757 225.751 215.953C225.541 215.687 225.261 215.379 224.911 215.029C224.575 214.693 224.267 214.406 223.987 214.168C224.729 214 225.485 213.79 226.255 213.538C227.039 213.272 227.781 212.985 228.481 212.677C229.181 212.369 229.748 212.082 230.182 211.816ZM204.352 227.681H220.69V230.159H204.352V227.681ZM202.966 237.509H222.097V239.987H202.966V237.509ZM211.114 221.192H213.823V239.21H211.114V221.192ZM226.843 234.779H240.535V236.753H226.843V234.779ZM227.389 231.398H241.48V233.498H227.389V231.398ZM224.239 238.181H242.824V240.344H224.239V238.181ZM232.282 230.117H234.886V239.672H232.282V230.117ZM228.754 226.694V227.828H238.078V226.694H228.754ZM228.754 223.817V224.909H238.078V223.817H228.754ZM226.276 221.906H240.682V229.739H226.276V221.906ZM227.368 229.529L229.825 230.243C229.517 230.929 229.146 231.601 228.712 232.259C228.278 232.917 227.816 233.533 227.326 234.107C226.836 234.681 226.353 235.178 225.877 235.598C225.709 235.444 225.499 235.269 225.247 235.073C224.995 234.877 224.736 234.688 224.47 234.506C224.204 234.31 223.966 234.156 223.756 234.044C224.484 233.498 225.17 232.826 225.814 232.028C226.472 231.216 226.99 230.383 227.368 229.529Z" fill="white"/>
<defs>
<linearGradient id="paint0_linear_2_172" x1="220.75" y1="26" x2="220.75" y2="412.5" gradientUnits="userSpaceOnUse">
<stop stop-color="#FFFBA7"/>
<stop offset="1" stop-color="#FDFAEC"/>
</linearGradient>
<linearGradient id="paint1_linear_2_172" x1="221" y1="64" x2="221" y2="374" gradientUnits="userSpaceOnUse">
<stop stop-color="#FFFDDC"/>
<stop offset="1" stop-color="#E3F8FF"/>
</linearGradient>
<linearGradient id="paint2_linear_2_172" x1="221" y1="109" x2="221" y2="329" gradientUnits="userSpaceOnUse">
<stop stop-color="#C8EEFF"/>
<stop offset="1" stop-color="#E1F3FF"/>
</linearGradient>
<linearGradient id="paint3_linear_2_172" x1="221" y1="154" x2="221" y2="284" gradientUnits="userSpaceOnUse">
<stop stop-color="#58C7FF"/>
<stop offset="1" stop-color="#9FE0FF"/>
</linearGradient>
</defs>
</svg>
