<svg width="442" height="452" viewBox="0 0 442 452" fill="none" xmlns="http://www.w3.org/2000/svg">
<rect width="442" height="452" fill="white"/>
<path d="M272.5 26H169L27.5 166.5V270.5L169 412.5H272.5L414 270.5V166.5L272.5 26Z" fill="url(#paint0_linear_2_240)" stroke="#FFFDE8"/>
<path d="M262.507 64H179.493L66 176.691V260.106L179.493 374H262.507L376 260.106V176.691L262.507 64Z" fill="url(#paint1_linear_2_240)" stroke="#FEFFEA"/>
<path d="M250.457 109H191.543L111 188.974V248.172L191.543 329H250.457L331 248.172V188.974L250.457 109Z" fill="url(#paint2_linear_2_240)" stroke="#DDF4FF"/>
<path d="M414.37 270.528L28 167" stroke="#888686"/>
<path d="M272.528 26L186.777 346.024L169 412.37" stroke="#888686" stroke-opacity="0.82"/>
<path d="M169 26L272.528 412.37" stroke="#888686"/>
<path d="M414.37 167L28 270.528" stroke="#888886"/>
<path d="M238.406 154H203.594L156 201.257V236.238L203.594 284H238.406L286 236.238V201.257L238.406 154Z" fill="url(#paint3_linear_2_240)" stroke="#B9E7FD"/>
<path d="M126.044 212.194H142.028V214.21H126.044V212.194ZM132.83 210.718H135.08V227.62H132.83V210.718ZM132.272 220.996L134.108 221.752C133.688 222.352 133.208 222.928 132.668 223.48C132.14 224.032 131.564 224.554 130.94 225.046C130.328 225.526 129.686 225.964 129.014 226.36C128.354 226.768 127.688 227.116 127.016 227.404C126.896 227.224 126.752 227.02 126.584 226.792C126.416 226.564 126.236 226.342 126.044 226.126C125.852 225.91 125.678 225.73 125.522 225.586C126.182 225.358 126.836 225.082 127.484 224.758C128.132 224.422 128.756 224.056 129.356 223.66C129.956 223.252 130.502 222.826 130.994 222.382C131.498 221.926 131.924 221.464 132.272 220.996ZM135.692 221.068C136.052 221.524 136.484 221.974 136.988 222.418C137.504 222.85 138.062 223.27 138.662 223.678C139.274 224.074 139.91 224.434 140.57 224.758C141.23 225.07 141.89 225.34 142.55 225.568C142.382 225.712 142.196 225.892 141.992 226.108C141.8 226.336 141.614 226.564 141.434 226.792C141.266 227.032 141.122 227.248 141.002 227.44C140.33 227.164 139.664 226.822 139.004 226.414C138.344 226.018 137.702 225.58 137.078 225.1C136.466 224.608 135.89 224.086 135.35 223.534C134.822 222.982 134.348 222.412 133.928 221.824L135.692 221.068ZM129.662 219.448V220.546H138.392V219.448H129.662ZM129.662 216.856V217.936H138.392V216.856H129.662ZM127.556 215.236H140.606V222.166H127.556V215.236Z" fill="black"/>
<path d="M82.744 213.856L84.552 214.432V222.752H82.744V213.856ZM93.896 213.952H95.752V222.624C95.752 223.051 95.704 223.413 95.608 223.712C95.512 224 95.3253 224.224 95.048 224.384C94.7707 224.544 94.44 224.645 94.056 224.688C93.6827 224.731 93.2453 224.752 92.744 224.752C92.7227 224.571 92.6747 224.363 92.6 224.128C92.5253 223.893 92.44 223.659 92.344 223.424C92.2587 223.189 92.168 222.987 92.072 222.816C92.4027 222.827 92.7173 222.837 93.016 222.848C93.3147 222.848 93.5173 222.848 93.624 222.848C93.7307 222.848 93.8 222.827 93.832 222.784C93.8747 222.741 93.896 222.672 93.896 222.576V213.952ZM81.496 222.432C82.1787 222.293 83 222.112 83.96 221.888C84.92 221.653 85.896 221.419 86.888 221.184L87.096 222.8C86.2107 223.045 85.3147 223.285 84.408 223.52C83.5013 223.755 82.6747 223.973 81.928 224.176L81.496 222.432ZM86.648 215.76H88.44V220.048C88.44 220.763 88.3813 221.472 88.264 222.176C88.1573 222.869 87.944 223.541 87.624 224.192C87.304 224.843 86.8293 225.445 86.2 226C85.5707 226.555 84.7333 227.04 83.688 227.456C83.6133 227.317 83.5067 227.152 83.368 226.96C83.24 226.779 83.096 226.603 82.936 226.432C82.7867 226.261 82.648 226.123 82.52 226.016C83.4373 225.653 84.168 225.248 84.712 224.8C85.2667 224.341 85.6827 223.856 85.96 223.344C86.2373 222.821 86.4187 222.283 86.504 221.728C86.6 221.163 86.648 220.592 86.648 220.016V215.76ZM89.704 213.952H94.872V215.696H91.512V227.44H89.704V213.952ZM87.256 212.432L88.968 213.648C88.4667 213.936 87.9387 214.224 87.384 214.512C86.8293 214.789 86.28 215.051 85.736 215.296C85.2027 215.541 84.696 215.749 84.216 215.92L82.984 214.864C83.432 214.661 83.9173 214.427 84.44 214.16C84.9627 213.883 85.4693 213.595 85.96 213.296C86.4613 212.987 86.8933 212.699 87.256 212.432Z" fill="black"/>
<path d="M36.001 177.522H52.075V193.007H49.662V179.726H38.3V193.159H36.001V177.522ZM37.217 189.72H50.916V191.905H37.217V189.72ZM44.646 179.118H46.869V184.4C46.869 184.691 46.888 184.862 46.926 184.913C46.9893 184.976 47.0907 185.008 47.23 185.008C47.2933 185.008 47.3757 185.008 47.477 185.008C47.5783 185.008 47.6607 185.008 47.724 185.008C47.7873 185.008 47.8507 185.002 47.914 184.989C47.99 184.976 48.047 184.957 48.085 184.932C48.123 184.907 48.161 184.869 48.199 184.818C48.2497 184.755 48.2813 184.66 48.294 184.533C48.3193 184.406 48.332 184.21 48.332 183.944C48.3447 183.665 48.3573 183.349 48.37 182.994C48.5727 183.171 48.8387 183.349 49.168 183.526C49.51 183.703 49.8267 183.836 50.118 183.925C50.0927 184.305 50.0547 184.685 50.004 185.065C49.966 185.432 49.909 185.705 49.833 185.882C49.7443 186.072 49.6367 186.23 49.51 186.357C49.396 186.471 49.244 186.572 49.054 186.661C48.902 186.737 48.712 186.794 48.484 186.832C48.2687 186.857 48.066 186.87 47.876 186.87C47.762 186.87 47.629 186.87 47.477 186.87C47.325 186.87 47.173 186.87 47.021 186.87C46.8817 186.87 46.755 186.87 46.641 186.87C46.3877 186.87 46.128 186.832 45.862 186.756C45.596 186.68 45.368 186.56 45.178 186.395C45.0007 186.23 44.8677 186.009 44.779 185.73C44.6903 185.451 44.646 184.989 44.646 184.343V179.118ZM40.808 179.08H43.031C42.993 180.385 42.8853 181.594 42.708 182.709C42.5307 183.824 42.214 184.824 41.758 185.711C41.302 186.598 40.6117 187.358 39.687 187.991C39.5603 187.725 39.3577 187.427 39.079 187.098C38.8003 186.756 38.5343 186.484 38.281 186.281C39.0283 185.787 39.573 185.185 39.915 184.476C40.257 183.754 40.485 182.943 40.599 182.044C40.713 181.132 40.7827 180.144 40.808 179.08ZM51.125 207.457L52.854 208.597C52.474 209.04 52.0813 209.49 51.676 209.946C51.2833 210.402 50.9287 210.788 50.612 211.105L49.225 210.117C49.4277 209.876 49.643 209.604 49.871 209.3C50.1117 208.996 50.3397 208.686 50.555 208.369C50.783 208.04 50.973 207.736 51.125 207.457ZM42.632 208.635L44.19 207.609C44.532 207.976 44.8803 208.394 45.235 208.863C45.5897 209.319 45.8493 209.731 46.014 210.098L44.361 211.238C44.209 210.871 43.962 210.446 43.62 209.965C43.2907 209.471 42.9613 209.028 42.632 208.635ZM43.164 199.553H51.182V205.975H48.959V201.396H43.164V199.553ZM43.62 202.346H50.194V204.113H43.62V202.346ZM42.271 205.12H52.759V207.02H42.271V205.12ZM46.432 205.975H48.541V214.525C48.541 215.006 48.4903 215.386 48.389 215.665C48.2877 215.956 48.0787 216.178 47.762 216.33C47.4707 216.495 47.1097 216.596 46.679 216.634C46.261 216.685 45.767 216.71 45.197 216.71C45.1717 216.419 45.102 216.083 44.988 215.703C44.874 215.336 44.7537 215.013 44.627 214.734C44.9437 214.747 45.2477 214.759 45.539 214.772C45.843 214.772 46.0457 214.766 46.147 214.753C46.337 214.753 46.432 214.664 46.432 214.487V205.975ZM41.53 213.689C42.0367 213.41 42.651 213.049 43.373 212.606C44.095 212.15 44.8297 211.681 45.577 211.2L46.28 212.91C45.672 213.379 45.045 213.847 44.399 214.316C43.7657 214.772 43.1703 215.203 42.613 215.608L41.53 213.689ZM48.465 207.02C48.579 207.641 48.75 208.287 48.978 208.958C49.206 209.617 49.4973 210.269 49.852 210.915C50.2067 211.548 50.6437 212.131 51.163 212.663C51.695 213.182 52.322 213.613 53.044 213.955C52.9047 214.082 52.7463 214.253 52.569 214.468C52.3917 214.683 52.2207 214.905 52.056 215.133C51.8913 215.374 51.7583 215.589 51.657 215.779C50.973 215.361 50.3777 214.848 49.871 214.24C49.377 213.632 48.9527 212.98 48.598 212.283C48.2433 211.574 47.952 210.871 47.724 210.174C47.5087 209.477 47.3377 208.831 47.211 208.236L48.465 207.02ZM37.901 198.869L39.877 199.572C39.6237 200.066 39.3577 200.573 39.079 201.092C38.8003 201.599 38.528 202.093 38.262 202.574C37.996 203.043 37.7427 203.454 37.502 203.809L35.982 203.182C36.21 202.789 36.4443 202.346 36.685 201.852C36.9257 201.358 37.1537 200.845 37.369 200.313C37.597 199.781 37.7743 199.3 37.901 198.869ZM40.048 201.13L41.91 201.966C41.4413 202.675 40.9347 203.423 40.39 204.208C39.8453 204.993 39.3007 205.747 38.756 206.469C38.2113 207.191 37.692 207.824 37.198 208.369L35.887 207.647C36.2417 207.216 36.609 206.735 36.989 206.203C37.3817 205.658 37.7617 205.095 38.129 204.512C38.509 203.917 38.8637 203.328 39.193 202.745C39.5223 202.162 39.8073 201.624 40.048 201.13ZM34.975 203.315L36.096 201.776C36.4127 202.08 36.742 202.409 37.084 202.764C37.426 203.119 37.7427 203.473 38.034 203.828C38.3253 204.183 38.5407 204.512 38.68 204.816L37.464 206.545C37.3247 206.241 37.1157 205.899 36.837 205.519C36.571 205.139 36.2733 204.759 35.944 204.379C35.6147 203.986 35.2917 203.632 34.975 203.315ZM39.402 205.671L40.998 205.025C41.2513 205.443 41.492 205.899 41.72 206.393C41.948 206.887 42.1507 207.368 42.328 207.837C42.5053 208.293 42.632 208.705 42.708 209.072L40.979 209.832C40.9283 209.465 40.8207 209.04 40.656 208.559C40.4913 208.078 40.3013 207.59 40.086 207.096C39.8707 206.589 39.6427 206.114 39.402 205.671ZM34.918 207.191C35.7667 207.153 36.7673 207.102 37.92 207.039C39.0727 206.963 40.2443 206.887 41.435 206.811L41.473 208.673C40.3583 208.762 39.2437 208.85 38.129 208.939C37.027 209.015 36.0327 209.091 35.146 209.167L34.918 207.191ZM39.934 210.44L41.511 209.965C41.739 210.484 41.9417 211.061 42.119 211.694C42.309 212.327 42.4293 212.866 42.48 213.309L40.789 213.86C40.751 213.404 40.6497 212.859 40.485 212.226C40.333 211.58 40.1493 210.985 39.934 210.44ZM35.735 210.022L37.559 210.345C37.4577 211.257 37.3057 212.156 37.103 213.043C36.913 213.917 36.685 214.658 36.419 215.266C36.2923 215.177 36.1277 215.082 35.925 214.981C35.7223 214.88 35.5133 214.785 35.298 214.696C35.0827 214.595 34.899 214.519 34.747 214.468C35.0257 213.898 35.241 213.214 35.393 212.416C35.545 211.618 35.659 210.82 35.735 210.022ZM37.806 208.217H39.782V216.71H37.806V208.217ZM35.659 226.296H52.379V228.557H35.659V226.296ZM42.784 221.869H45.216V239.71H42.784V221.869ZM42.29 227.531L44.304 228.215C43.8733 229.216 43.3793 230.185 42.822 231.122C42.2647 232.059 41.6503 232.946 40.979 233.782C40.3203 234.618 39.611 235.391 38.851 236.1C38.1037 236.797 37.3183 237.398 36.495 237.905C36.3683 237.715 36.2037 237.5 36.001 237.259C35.7983 237.018 35.5893 236.784 35.374 236.556C35.1587 236.315 34.9623 236.119 34.785 235.967C35.5703 235.536 36.3303 235.017 37.065 234.409C37.8123 233.788 38.5153 233.111 39.174 232.376C39.8327 231.629 40.4217 230.843 40.941 230.02C41.473 229.197 41.9227 228.367 42.29 227.531ZM45.653 227.626C46.0203 228.437 46.4763 229.241 47.021 230.039C47.5657 230.837 48.1673 231.597 48.826 232.319C49.4973 233.041 50.2003 233.706 50.935 234.314C51.6697 234.922 52.4233 235.435 53.196 235.853C53.0187 235.992 52.816 236.182 52.588 236.423C52.3727 236.651 52.1637 236.892 51.961 237.145C51.771 237.398 51.6127 237.626 51.486 237.829C50.688 237.322 49.9217 236.727 49.187 236.043C48.4523 235.346 47.7493 234.586 47.078 233.763C46.4067 232.927 45.7923 232.047 45.235 231.122C44.6777 230.197 44.1773 229.254 43.734 228.291L45.653 227.626ZM37.977 257.181H50.365V258.967H37.977V257.181ZM38.471 254.122H51.22V256.022H38.471V254.122ZM35.621 260.259H52.436V262.216H35.621V260.259ZM42.898 252.963H45.254V261.608H42.898V252.963ZM39.706 249.866V250.892H48.142V249.866H39.706ZM39.706 247.263V248.251H48.142V247.263H39.706ZM37.464 245.534H50.498V252.621H37.464V245.534ZM38.452 252.431L40.675 253.077C40.3963 253.698 40.0607 254.306 39.668 254.901C39.2753 255.496 38.8573 256.054 38.414 256.573C37.9707 257.092 37.5337 257.542 37.103 257.922C36.951 257.783 36.761 257.624 36.533 257.447C36.305 257.27 36.0707 257.099 35.83 256.934C35.5893 256.757 35.374 256.617 35.184 256.516C35.8427 256.022 36.4633 255.414 37.046 254.692C37.6413 253.957 38.11 253.204 38.452 252.431Z" fill="black"/>
<path d="M393.098 177.18H400.945V179.612H393.098V177.18ZM399.064 177.18H401.8C401.927 178.662 402.091 180.119 402.294 181.55C402.509 182.981 402.807 184.343 403.187 185.635C403.58 186.914 404.074 188.08 404.669 189.131C405.277 190.17 406.031 191.05 406.93 191.772C406.715 191.899 406.468 192.07 406.189 192.285C405.91 192.513 405.638 192.747 405.372 192.988C405.119 193.229 404.897 193.444 404.707 193.634C403.795 192.798 403.029 191.816 402.408 190.689C401.787 189.549 401.281 188.314 400.888 186.984C400.508 185.654 400.21 184.261 399.995 182.804C399.78 181.347 399.615 179.878 399.501 178.396H399.064V177.18ZM393.592 181.265L396.233 181.626C396.043 182.728 395.802 183.849 395.511 184.989C395.232 186.116 394.884 187.218 394.466 188.295C394.048 189.359 393.554 190.36 392.984 191.297C392.414 192.222 391.743 193.032 390.97 193.729C390.831 193.552 390.641 193.355 390.4 193.14C390.172 192.937 389.931 192.735 389.678 192.532C389.437 192.342 389.222 192.184 389.032 192.057C389.754 191.449 390.375 190.727 390.894 189.891C391.413 189.042 391.85 188.137 392.205 187.174C392.56 186.199 392.845 185.211 393.06 184.21C393.288 183.197 393.465 182.215 393.592 181.265ZM392.053 213.138H403.852V215.437H392.053V213.138ZM392.015 207.324H403.852V209.585H392.015V207.324ZM390.837 201.624H405.22V216.653H402.788V203.942H393.136V216.672H390.837V201.624ZM396.404 198.774L399.387 199.173C399.096 199.882 398.785 200.573 398.456 201.244C398.127 201.915 397.829 202.492 397.563 202.973L395.302 202.517C395.441 202.15 395.581 201.751 395.72 201.32C395.872 200.889 396.005 200.452 396.119 200.009C396.246 199.566 396.341 199.154 396.404 198.774ZM390.628 227.759H405.41V230.001H390.628V227.759ZM389.374 236.651H406.683V238.893H389.374V236.651ZM396.746 221.888H399.197V238.19H396.746V221.888ZM391.977 257.181H404.365V258.967H391.977V257.181ZM392.471 254.122H405.22V256.022H392.471V254.122ZM389.621 260.259H406.436V262.216H389.621V260.259ZM396.898 252.963H399.254V261.608H396.898V252.963ZM393.706 249.866V250.892H402.142V249.866H393.706ZM393.706 247.263V248.251H402.142V247.263H393.706ZM391.464 245.534H404.498V252.621H391.464V245.534ZM392.452 252.431L394.675 253.077C394.396 253.698 394.061 254.306 393.668 254.901C393.275 255.496 392.857 256.054 392.414 256.573C391.971 257.092 391.534 257.542 391.103 257.922C390.951 257.783 390.761 257.624 390.533 257.447C390.305 257.27 390.071 257.099 389.83 256.934C389.589 256.757 389.374 256.617 389.184 256.516C389.843 256.022 390.463 255.414 391.046 254.692C391.641 253.957 392.11 253.204 392.452 252.431Z" fill="black"/>
<path d="M148.246 170.277L159.549 158.974L160.974 160.4L149.672 171.702L148.246 170.277ZM156.52 172.95L162.209 167.26L163.393 168.444L157.703 174.133L156.52 172.95ZM158.276 175.241L164.513 169.004L165.735 170.226L159.498 176.462L158.276 175.241ZM159.192 171.448L160.631 170.009L165.111 174.49L163.673 175.928L159.192 171.448ZM151.11 172.173L160.325 162.958L161.725 164.358L154.038 172.046L161.127 179.135L159.6 180.663L151.11 172.173ZM159.892 163.391L161.458 161.825L168.42 168.788C168.785 169.152 169.014 169.483 169.107 169.78C169.209 170.086 169.184 170.417 169.031 170.773C168.878 171.146 168.62 171.533 168.255 171.931C167.907 172.33 167.474 172.788 166.956 173.306C166.727 173.145 166.439 172.992 166.091 172.848C165.752 172.695 165.442 172.58 165.162 172.504C165.382 172.3 165.607 172.093 165.836 171.88C166.065 171.668 166.269 171.473 166.447 171.295C166.625 171.1 166.744 170.972 166.804 170.913C166.922 170.794 166.986 170.697 166.995 170.62C166.995 170.535 166.948 170.446 166.855 170.353L159.892 163.391ZM155.654 171.117L156.507 169.551C156.863 169.602 157.237 169.695 157.627 169.831C158.026 169.958 158.357 170.086 158.62 170.213L157.767 171.906C157.512 171.753 157.186 171.605 156.787 171.46C156.388 171.316 156.01 171.202 155.654 171.117ZM158.912 167.197L160.554 166.267C160.69 166.743 160.817 167.209 160.936 167.667C161.055 168.109 161.144 168.512 161.203 168.877L159.791 169.628C159.731 169.381 159.651 169.114 159.549 168.826C159.455 168.529 159.354 168.24 159.243 167.96C159.133 167.68 159.023 167.426 158.912 167.197ZM152.116 164.473L153.783 162.805L158.123 167.146L156.456 168.813L152.116 164.473ZM161 157.523L172.302 146.221L173.728 147.646L162.425 158.949L161 157.523ZM164.754 151.681L166.345 150.09L178.297 162.042L176.706 163.633L164.754 151.681ZM171.628 159.343L173.46 158.58C173.588 159.301 173.656 160.048 173.664 160.82C173.681 161.584 173.643 162.36 173.549 163.149C173.456 163.921 173.312 164.685 173.117 165.44C172.939 166.195 172.714 166.912 172.442 167.591C172.23 167.549 171.984 167.506 171.704 167.464C171.424 167.421 171.14 167.392 170.851 167.375C170.563 167.358 170.312 167.354 170.1 167.362C170.406 166.734 170.673 166.076 170.902 165.389C171.123 164.693 171.305 163.993 171.449 163.289C171.585 162.576 171.67 161.889 171.704 161.227C171.738 160.548 171.712 159.92 171.628 159.343ZM174.097 156.976C174.674 157.044 175.297 157.057 175.968 157.014C176.638 156.955 177.33 156.857 178.042 156.721C178.755 156.569 179.459 156.374 180.155 156.136C180.843 155.89 181.5 155.614 182.128 155.309C182.111 155.529 182.107 155.788 182.115 156.085C182.141 156.382 182.171 156.675 182.204 156.963C182.255 157.252 182.306 157.506 182.357 157.727C181.687 158.007 180.974 158.236 180.219 158.414C179.472 158.601 178.709 158.745 177.928 158.847C177.147 158.932 176.371 158.97 175.599 158.962C174.835 158.945 174.097 158.877 173.384 158.758L174.097 156.976ZM168.687 160.094L169.464 160.871L175.637 154.698L174.86 153.921L168.687 160.094ZM166.855 158.262L167.618 159.025L173.791 152.852L173.028 152.088L166.855 158.262ZM164.22 158.605L173.448 149.377L178.348 154.278L169.12 163.505L164.22 158.605Z" fill="black"/>
<path d="M113.785 145.701L122.248 137.238L123.56 138.551L115.098 147.013L113.785 145.701ZM117.847 149.876L126.626 141.096L127.86 142.329L119.08 151.109L117.847 149.876ZM117.179 146.47L123.345 140.304L124.567 141.526L118.401 147.692L117.179 146.47ZM113.005 146.482L114.362 145.124L117.802 148.563C118.284 149.046 118.797 149.589 119.34 150.192C119.883 150.796 120.415 151.441 120.936 152.127C121.456 152.813 121.916 153.522 122.316 154.254C122.723 154.978 123.025 155.702 123.221 156.426C123.063 156.434 122.863 156.468 122.621 156.528C122.388 156.581 122.15 156.645 121.909 156.72C121.675 156.788 121.479 156.864 121.32 156.947C121.147 156.275 120.879 155.616 120.517 154.967C120.155 154.318 119.74 153.692 119.273 153.089C118.805 152.485 118.326 151.916 117.836 151.38C117.345 150.845 116.878 150.355 116.433 149.91L113.005 146.482ZM119.827 148.846L121.151 147.522L125.427 151.799L124.103 153.123L119.827 148.846ZM122.814 154.005C123.146 153.583 123.515 153.093 123.922 152.534C124.33 151.961 124.76 151.358 125.212 150.724C125.672 150.083 126.129 149.446 126.581 148.812L127.848 149.921C127.449 150.517 127.037 151.124 126.615 151.742C126.193 152.361 125.782 152.953 125.382 153.519C124.997 154.084 124.639 154.609 124.307 155.091L122.814 154.005ZM123.108 145.565C124.036 146.131 124.96 146.527 125.88 146.753C126.8 146.979 127.731 147.006 128.674 146.832C129.625 146.651 130.605 146.236 131.616 145.588C131.616 145.784 131.631 146.01 131.661 146.267C131.699 146.516 131.744 146.764 131.797 147.013C131.857 147.27 131.921 147.492 131.989 147.681C130.835 148.337 129.723 148.733 128.652 148.869C127.581 148.989 126.51 148.884 125.438 148.552C124.367 148.22 123.247 147.703 122.078 147.002L123.108 145.565ZM126.457 143.755L128.425 143.348C128.342 143.823 128.241 144.317 128.12 144.83C128.007 145.335 127.882 145.829 127.746 146.312C127.611 146.78 127.479 147.213 127.35 147.613L125.767 147.839C125.88 147.439 125.982 146.998 126.072 146.516C126.17 146.025 126.253 145.543 126.321 145.067C126.389 144.577 126.434 144.14 126.457 143.755ZM138.987 145.072L126.146 132.231L127.232 131.145L140.073 143.986L138.987 145.072ZM137.375 129.488L144.084 122.779L145.419 124.114L138.71 130.823L137.375 129.488ZM133.788 125.947L141.233 118.503L146.754 124.024L145.351 125.427L141.165 121.24L135.123 127.282L133.788 125.947ZM132.974 126.762L134.388 125.347L141.674 132.633C141.968 132.927 142.221 133.12 142.432 133.21C142.636 133.293 142.858 133.259 143.099 133.109C143.348 132.95 143.68 132.664 144.095 132.249C144.216 132.128 144.404 131.939 144.661 131.683C144.917 131.427 145.204 131.14 145.521 130.823C145.845 130.499 146.169 130.174 146.494 129.85C146.818 129.526 147.108 129.235 147.365 128.979C147.629 128.715 147.821 128.523 147.942 128.402C148.319 128.025 148.56 127.701 148.666 127.429C148.771 127.142 148.749 126.833 148.598 126.501C148.44 126.162 148.149 125.721 147.727 125.178C147.923 125.132 148.138 125.068 148.372 124.985C148.598 124.895 148.824 124.789 149.05 124.668C149.277 124.548 149.469 124.438 149.627 124.34C150.035 124.868 150.348 125.355 150.566 125.8C150.778 126.237 150.88 126.656 150.872 127.056C150.872 127.448 150.748 127.851 150.499 128.266C150.265 128.681 149.903 129.134 149.412 129.624C149.322 129.714 149.171 129.865 148.96 130.076C148.756 130.28 148.519 130.518 148.247 130.789C147.983 131.053 147.708 131.328 147.421 131.615C147.135 131.902 146.859 132.177 146.595 132.441C146.331 132.705 146.098 132.939 145.894 133.142C145.698 133.339 145.555 133.482 145.464 133.572C144.913 134.123 144.423 134.545 143.993 134.84C143.563 135.134 143.152 135.303 142.76 135.349C142.368 135.394 141.972 135.307 141.572 135.088C141.165 134.862 140.724 134.511 140.248 134.036L132.974 126.762Z" fill="black"/>
<path d="M76.2627 127.832L86.648 117.446L88.2468 119.045L77.8615 129.43L76.2627 127.832ZM84.6328 137.76L96.684 125.709L98.2828 127.308L86.2315 139.359L84.6328 137.76ZM80.5619 124.661L82.4025 122.82C83.0743 123.761 83.764 124.746 84.4715 125.776C85.1791 126.806 85.8777 127.836 86.5674 128.866C87.2571 129.896 87.902 130.881 88.5021 131.822C89.1111 132.753 89.6395 133.595 90.0874 134.348L88.2737 136.161C87.8079 135.373 87.275 134.5 86.6749 133.542C86.0658 132.574 85.4165 131.585 84.7268 130.572C84.0371 129.542 83.3385 128.521 82.6309 127.509C81.9234 126.497 81.2337 125.548 80.5619 124.661ZM80.6426 131.325L89.3619 122.605L95.327 128.571L93.6477 130.25L89.2678 125.87L82.2279 132.91L80.6426 131.325ZM90.8532 117.218L102.998 105.073L104.463 106.537L92.3176 118.682L90.8532 117.218ZM89.5769 114.034L99.8412 103.77L101.252 105.18L90.9875 115.445L89.5769 114.034ZM90.7994 110.823L92.4385 109.184L96.375 113.12L94.7359 114.759L90.7994 110.823ZM94.9509 106.671L96.6168 105.006L100.553 108.942L98.8873 110.608L94.9509 106.671ZM96.9124 112.825L98.5783 111.159L104.087 116.667L102.421 118.333L96.9124 112.825ZM98.7664 119.354L99.5456 120.133L105.954 113.725L105.175 112.946L98.7664 119.354ZM96.9796 117.567L97.7319 118.32L104.14 111.911L103.388 111.159L96.9796 117.567ZM94.3194 117.997L103.899 108.418L108.681 113.201L99.1023 122.78L94.3194 117.997ZM105.632 117.97L105.511 116.049C106.165 115.718 106.836 115.395 107.526 115.082C108.225 114.759 108.892 114.459 109.528 114.182C110.173 113.895 110.733 113.658 111.207 113.47L111.127 115.7C110.688 115.852 110.164 116.045 109.555 116.278C108.955 116.519 108.314 116.784 107.634 117.07C106.953 117.357 106.286 117.657 105.632 117.97ZM101.574 120.093L103.899 119.677C103.764 120.259 103.558 120.895 103.281 121.584C103.012 122.283 102.712 122.977 102.38 123.667C102.049 124.356 101.718 124.992 101.386 125.575C101.082 125.539 100.706 125.521 100.258 125.521C99.8278 125.521 99.4471 125.534 99.1157 125.561C99.4829 124.979 99.8323 124.361 100.164 123.707C100.495 123.035 100.786 122.377 101.037 121.732C101.288 121.087 101.467 120.541 101.574 120.093ZM106.075 103.904L116.528 93.4514L118.113 95.0368L107.66 105.489L106.075 103.904ZM111.476 111.078L123.715 98.8389L125.301 100.424L113.061 112.664L111.476 111.078ZM106.25 95.4264L107.983 93.6933L119.51 105.221L117.777 106.954L106.25 95.4264ZM125.005 94.056L133.765 85.2964L135.028 86.5593L126.268 95.3189L125.005 94.056ZM123.191 91.5437L132.206 82.5287L133.55 83.8722L124.535 92.8872L123.191 91.5437ZM125.516 97.8984L137.406 86.0084L138.789 87.3922L126.899 99.2822L125.516 97.8984ZM125.502 87.5938L127.168 85.9278L133.281 92.0407L131.615 93.7067L125.502 87.5938ZM121.055 87.6609L121.781 88.3864L127.746 82.4213L127.02 81.6958L121.055 87.6609ZM119.215 85.8203L119.913 86.519L125.878 80.5538L125.18 79.8552L119.215 85.8203ZM116.407 86.1831L125.623 76.9666L130.634 81.9779L121.418 91.1943L116.407 86.1831ZM121.982 90.3614L124.011 89.2463C124.253 89.8822 124.445 90.5495 124.589 91.2481C124.732 91.9467 124.83 92.6364 124.884 93.3171C124.938 93.9978 124.947 94.6248 124.911 95.198C124.705 95.2069 124.459 95.2293 124.172 95.2652C123.885 95.301 123.599 95.3458 123.312 95.3995C123.017 95.4443 122.766 95.498 122.56 95.5607C122.676 94.7457 122.685 93.8769 122.587 92.9543C122.488 92.0139 122.287 91.1496 121.982 90.3614Z" fill="black"/>
<path d="M269.936 145.246L281.239 156.549L279.813 157.974L268.511 146.672L269.936 145.246ZM267.264 153.52L272.953 159.209L271.769 160.393L266.08 154.703L267.264 153.52ZM264.973 155.276L271.209 161.513L269.987 162.735L263.751 156.498L264.973 155.276ZM268.765 156.192L270.204 157.631L265.724 162.111L264.285 160.673L268.765 156.192ZM268.04 148.11L277.255 157.325L275.855 158.725L268.167 151.038L261.078 158.127L259.55 156.6L268.04 148.11ZM276.822 156.892L278.388 158.458L271.426 165.42C271.061 165.785 270.73 166.014 270.433 166.107C270.127 166.209 269.796 166.184 269.44 166.031C269.067 165.878 268.681 165.62 268.282 165.255C267.883 164.907 267.425 164.474 266.907 163.956C267.068 163.727 267.221 163.439 267.365 163.091C267.518 162.752 267.633 162.442 267.709 162.162C267.913 162.382 268.121 162.607 268.333 162.836C268.545 163.065 268.74 163.269 268.918 163.447C269.113 163.625 269.241 163.744 269.3 163.804C269.419 163.922 269.516 163.986 269.593 163.995C269.678 163.995 269.767 163.948 269.86 163.855L276.822 156.892ZM269.096 152.654L270.662 153.507C270.611 153.863 270.518 154.237 270.382 154.627C270.255 155.026 270.127 155.357 270 155.62L268.307 154.767C268.46 154.512 268.609 154.186 268.753 153.787C268.897 153.388 269.012 153.01 269.096 152.654ZM273.017 155.912L273.946 157.554C273.471 157.69 273.004 157.817 272.546 157.936C272.104 158.055 271.701 158.144 271.337 158.203L270.586 156.791C270.832 156.731 271.099 156.651 271.387 156.549C271.684 156.455 271.973 156.354 272.253 156.243C272.533 156.133 272.788 156.023 273.017 155.912ZM275.74 149.116L277.408 150.783L273.068 155.123L271.4 153.456L275.74 149.116ZM275.346 168.093L283.975 176.723L282.563 178.135L273.933 169.506L275.346 168.093ZM280.59 160.889L291.09 171.39L282.753 179.726L281.201 178.174L288.125 171.25L280.666 163.791L273.717 170.74L272.227 169.251L280.59 160.889ZM285.757 167.227L287.221 168.691L284.93 170.982C284.769 171.143 284.68 171.258 284.663 171.326C284.663 171.394 284.726 171.491 284.854 171.619C284.879 171.644 284.934 171.699 285.019 171.784C285.112 171.877 285.201 171.967 285.286 172.051C285.38 172.145 285.448 172.213 285.49 172.255C285.566 172.331 285.634 172.374 285.694 172.382C285.77 172.391 285.863 172.357 285.974 172.28C286.092 172.213 286.254 172.085 286.457 171.899C286.474 172.051 286.517 172.238 286.585 172.459C286.669 172.679 286.763 172.9 286.865 173.121C286.983 173.341 287.098 173.532 287.208 173.693C286.759 174.024 286.372 174.241 286.05 174.342C285.728 174.444 285.431 174.444 285.159 174.342C284.896 174.249 284.62 174.058 284.332 173.77C284.264 173.702 284.183 173.621 284.09 173.528C283.997 173.434 283.895 173.333 283.784 173.222C283.683 173.121 283.585 173.023 283.492 172.93C283.398 172.836 283.322 172.76 283.263 172.7C282.855 172.293 282.592 171.928 282.473 171.606C282.363 171.292 282.393 170.974 282.563 170.651C282.732 170.329 283.029 169.956 283.453 169.531L285.757 167.227ZM282.932 157.529L294.374 168.971L292.898 170.448L281.455 159.005L282.932 157.529ZM285.286 162.124L286.788 163.625L284.243 166.171L282.741 164.669L285.286 162.124ZM288.074 164.911L289.614 166.451L287.068 168.997L285.528 167.457L288.074 164.911ZM283.339 164.224L284.764 165.649L283.504 166.909C283.08 167.334 282.588 167.715 282.028 168.055C281.468 168.394 280.832 168.615 280.119 168.717C279.406 168.818 278.604 168.729 277.713 168.449C277.739 168.288 277.747 168.076 277.739 167.813C277.73 167.55 277.709 167.283 277.675 167.011C277.65 166.748 277.616 166.536 277.573 166.375C278.379 166.638 279.062 166.744 279.622 166.693C280.191 166.65 280.675 166.506 281.073 166.26C281.472 166.014 281.82 165.743 282.117 165.446L283.339 164.224Z" fill="black"/>
<path d="M291.07 119.263L301.207 129.4L299.861 130.746L289.724 120.609L291.07 119.263ZM294.713 117.317L303.176 125.78L301.83 127.126L293.367 118.663L294.713 117.317ZM299.872 119.082L301.321 120.53L290.697 131.154L289.249 129.706L299.872 119.082ZM294.363 124.117L295.053 125.78C294.336 125.953 293.589 126.081 292.813 126.164C292.043 126.24 291.266 126.262 290.482 126.232C289.705 126.21 288.94 126.138 288.185 126.017C287.446 125.897 286.737 125.731 286.058 125.52C286.104 125.323 286.138 125.093 286.16 124.829C286.19 124.573 286.209 124.313 286.217 124.049C286.239 123.785 286.243 123.547 286.228 123.336C286.854 123.585 287.514 123.792 288.208 123.958C288.917 124.124 289.63 124.241 290.346 124.309C291.063 124.377 291.76 124.396 292.439 124.366C293.126 124.328 293.767 124.245 294.363 124.117ZM296.286 126.063C296.15 126.651 296.063 127.288 296.026 127.975C296.003 128.661 296.026 129.362 296.094 130.079C296.161 130.795 296.271 131.501 296.422 132.195C296.588 132.889 296.791 133.545 297.033 134.163C296.844 134.141 296.614 134.137 296.342 134.152C296.086 134.167 295.826 134.193 295.562 134.231C295.298 134.269 295.068 134.31 294.872 134.356C294.668 133.684 294.51 132.975 294.397 132.229C294.283 131.482 294.216 130.72 294.193 129.943C294.178 129.159 294.208 128.382 294.283 127.613C294.366 126.851 294.495 126.112 294.668 125.395L296.286 126.063ZM297.141 141.987L309.982 129.146L311.068 130.232L298.227 143.073L297.141 141.987ZM314.332 136.551L323.507 145.726L316.775 152.458L315.361 151.044L320.792 145.613L314.388 139.209L308.901 144.697L307.543 143.339L314.332 136.551ZM312.782 139.888L320.317 147.423L319.061 148.679L311.526 141.144L312.782 139.888ZM310.327 142.321L317.895 149.89L316.594 151.191L309.025 143.622L310.327 142.321ZM319.66 138.847L321.086 140.273L310.462 150.896L309.037 149.471L319.66 138.847Z" fill="black"/>
<path d="M262.219 284.25L265.999 280.469L267.514 281.984L263.734 285.764L262.219 284.25ZM265.63 275.213L267.221 273.622L276.398 282.799C276.754 283.155 277.013 283.354 277.175 283.397C277.327 283.431 277.522 283.329 277.76 283.091C277.811 283.04 277.896 282.956 278.015 282.837C278.133 282.718 278.265 282.586 278.409 282.442C278.553 282.298 278.685 282.166 278.804 282.048C278.922 281.929 279.012 281.84 279.071 281.78C279.241 281.611 279.296 281.411 279.236 281.182C279.177 280.953 278.978 280.635 278.638 280.227C278.299 279.803 277.802 279.239 277.149 278.535C277.37 278.501 277.612 278.446 277.875 278.369C278.146 278.284 278.409 278.191 278.664 278.089C278.91 277.979 279.122 277.869 279.3 277.758C280.064 278.624 280.632 279.37 281.006 279.998C281.387 280.618 281.553 281.174 281.502 281.666C281.468 282.158 281.209 282.646 280.726 283.129C280.658 283.197 280.543 283.312 280.382 283.473C280.221 283.634 280.047 283.808 279.86 283.995C279.682 284.173 279.516 284.339 279.364 284.491C279.211 284.644 279.096 284.759 279.02 284.835C278.536 285.319 278.082 285.628 277.658 285.764C277.251 285.9 276.822 285.853 276.373 285.624C275.914 285.387 275.388 284.971 274.794 284.377L265.63 275.213ZM262.423 278.42L264.014 276.829L275.622 288.437L274.031 290.028L262.423 278.42ZM271.727 272.909L274.209 273.176C274.065 273.914 273.895 274.678 273.7 275.467C273.496 276.248 273.28 277.033 273.051 277.822C272.822 278.594 272.584 279.341 272.338 280.062C272.117 279.943 271.829 279.833 271.472 279.731C271.108 279.621 270.794 279.536 270.531 279.477C270.743 278.772 270.929 278.034 271.091 277.262C271.252 276.49 271.383 275.73 271.485 274.984C271.595 274.228 271.676 273.537 271.727 272.909ZM267.527 290.473C267.773 290.024 268.053 289.498 268.367 288.895C268.672 288.284 268.99 287.635 269.321 286.948C269.644 286.252 269.966 285.565 270.289 284.886L271.956 285.968C271.608 286.893 271.239 287.83 270.849 288.781C270.467 289.723 270.115 290.584 269.792 291.364L267.527 290.473ZM283.093 276.867L291.723 268.238L293.135 269.651L284.506 278.28L283.093 276.867ZM275.889 271.623L286.39 261.123L294.726 269.46L293.174 271.012L286.25 264.088L278.791 271.547L285.74 278.496L284.251 279.986L275.889 271.623ZM282.227 266.456L283.691 264.992L285.982 267.283C286.143 267.444 286.258 267.534 286.326 267.55C286.394 267.55 286.491 267.487 286.619 267.36C286.644 267.334 286.699 267.279 286.784 267.194C286.877 267.101 286.967 267.012 287.051 266.927C287.145 266.833 287.213 266.766 287.255 266.723C287.331 266.647 287.374 266.579 287.382 266.52C287.391 266.443 287.357 266.35 287.28 266.24C287.213 266.121 287.085 265.959 286.899 265.756C287.051 265.739 287.238 265.696 287.459 265.629C287.679 265.544 287.9 265.45 288.121 265.349C288.341 265.23 288.532 265.115 288.693 265.005C289.024 265.455 289.241 265.841 289.342 266.163C289.444 266.486 289.444 266.783 289.342 267.054C289.249 267.317 289.058 267.593 288.77 267.881C288.702 267.949 288.621 268.03 288.528 268.123C288.434 268.217 288.333 268.318 288.222 268.429C288.121 268.531 288.023 268.628 287.93 268.721C287.836 268.815 287.76 268.891 287.7 268.951C287.293 269.358 286.928 269.621 286.606 269.74C286.292 269.85 285.974 269.82 285.651 269.651C285.329 269.481 284.956 269.184 284.531 268.76L282.227 266.456ZM272.529 269.281L283.971 257.839L285.448 259.316L274.005 270.758L272.529 269.281ZM277.124 266.927L278.625 265.425L281.171 267.971L279.669 269.472L277.124 266.927ZM279.911 264.139L281.451 262.599L283.997 265.145L282.457 266.685L279.911 264.139ZM279.224 268.874L280.649 267.449L281.909 268.709C282.334 269.133 282.715 269.625 283.055 270.185C283.394 270.745 283.615 271.382 283.717 272.094C283.818 272.807 283.729 273.609 283.449 274.5C283.288 274.474 283.076 274.466 282.813 274.474C282.55 274.483 282.283 274.504 282.011 274.538C281.748 274.564 281.536 274.598 281.375 274.64C281.638 273.834 281.744 273.151 281.693 272.591C281.65 272.022 281.506 271.539 281.26 271.14C281.014 270.741 280.743 270.393 280.446 270.096L279.224 268.874Z" fill="black"/>
<path d="M288.67 316.441L288.817 314.484C289.345 314.333 289.926 314.182 290.56 314.032C291.193 313.881 291.816 313.756 292.427 313.658C293.03 313.553 293.554 313.496 293.999 313.488L293.886 315.638C293.471 315.631 292.962 315.665 292.359 315.74C291.755 315.815 291.129 315.913 290.481 316.034C289.832 316.155 289.228 316.291 288.67 316.441ZM297.269 315.627L297.619 313.511C298.042 313.39 298.517 313.262 299.045 313.126C299.565 312.983 300.09 312.844 300.618 312.708C301.146 312.572 301.658 312.459 302.156 312.368C302.654 312.263 303.092 312.187 303.469 312.142L303.141 314.507C302.801 314.529 302.39 314.578 301.907 314.654C301.425 314.729 300.916 314.824 300.38 314.937C299.845 315.035 299.309 315.148 298.773 315.276C298.23 315.397 297.729 315.514 297.269 315.627ZM289.949 310.524L291.997 309.744C292.004 310.309 291.997 310.89 291.974 311.486C291.944 312.074 291.906 312.648 291.861 313.206C291.816 313.749 291.755 314.247 291.68 314.699L289.983 315.219C290.036 314.744 290.069 314.235 290.085 313.692C290.1 313.134 290.096 312.58 290.073 312.029C290.058 311.471 290.017 310.969 289.949 310.524ZM284.993 313.941L295.153 303.781L296.42 305.048L286.261 315.208L284.993 313.941ZM288.048 308.352L289.474 306.927L291.295 308.748L289.87 310.174L288.048 308.352ZM293.581 308.816L295.481 308.228C295.655 309.517 295.647 310.83 295.459 312.165C295.27 313.485 294.938 314.797 294.463 316.102C293.98 317.399 293.392 318.681 292.698 319.949C292.434 319.851 292.11 319.768 291.725 319.7C291.34 319.617 290.982 319.568 290.65 319.553C291.359 318.391 291.966 317.203 292.472 315.989C292.97 314.767 293.324 313.545 293.535 312.323C293.746 311.101 293.762 309.932 293.581 308.816ZM296.828 309.28L298.841 308.714C299.09 310.29 299.087 311.856 298.83 313.409C298.574 314.963 298.117 316.513 297.461 318.059C296.805 319.59 295.994 321.118 295.029 322.641C294.742 322.521 294.399 322.411 293.999 322.313C293.614 322.215 293.252 322.155 292.913 322.132C293.871 320.707 294.689 319.27 295.368 317.822C296.039 316.366 296.511 314.922 296.782 313.488C297.061 312.048 297.076 310.645 296.828 309.28ZM310.987 311.072L298.146 298.231L299.232 297.145L312.073 309.986L310.987 311.072ZM311.456 286.618L311.479 284.989C311.796 284.883 312.139 284.789 312.509 284.706C312.886 284.616 313.252 284.544 313.606 284.491C313.961 284.423 314.262 284.393 314.511 284.401L314.534 286.166C314.285 286.143 313.983 286.158 313.629 286.211C313.274 286.249 312.905 286.301 312.52 286.369C312.135 286.437 311.781 286.52 311.456 286.618ZM315.597 288.293L317.317 287.32C318.245 289.349 318.799 291.381 318.98 293.418C319.161 295.454 318.969 297.427 318.403 299.335C318.237 299.29 318.022 299.256 317.758 299.233C317.509 299.21 317.249 299.191 316.978 299.176C316.721 299.161 316.499 299.158 316.31 299.165C316.951 297.393 317.211 295.586 317.091 293.746C316.97 291.89 316.472 290.073 315.597 288.293ZM306.954 293.248L315.597 284.604L316.887 285.894L308.243 294.538L306.954 293.248ZM311.411 295.692L314.194 292.909L315.45 294.164L312.667 296.948L311.411 295.692ZM306.275 293.927L307.632 292.569L310.698 295.635C311.121 296.058 311.566 296.54 312.033 297.083C312.494 297.619 312.935 298.196 313.357 298.814C313.787 299.425 314.153 300.063 314.455 300.726C314.749 301.383 314.937 302.046 315.02 302.718C314.862 302.695 314.654 302.691 314.398 302.706C314.149 302.729 313.896 302.755 313.64 302.785C313.399 302.816 313.195 302.853 313.029 302.899C312.946 302.303 312.776 301.733 312.52 301.19C312.271 300.64 311.966 300.115 311.604 299.618C311.249 299.112 310.876 298.641 310.483 298.203C310.084 297.758 309.703 297.355 309.341 296.993L306.275 293.927ZM308.809 287.614L310.178 286.245C311.158 287.18 312.124 288.063 313.074 288.892C314.025 289.707 314.937 290.438 315.812 291.087C316.68 291.728 317.487 292.249 318.233 292.648C318.98 293.048 319.64 293.301 320.213 293.406C320.786 293.512 321.247 293.429 321.594 293.158C321.759 293.052 321.707 292.803 321.435 292.411C321.164 292.004 320.741 291.483 320.168 290.85C320.447 290.842 320.764 290.804 321.118 290.736C321.48 290.661 321.786 290.582 322.035 290.499C323.015 291.645 323.528 292.573 323.573 293.282C323.626 293.998 323.283 294.545 322.544 294.922C321.971 295.3 321.311 295.462 320.564 295.409C319.825 295.364 319.018 295.137 318.143 294.73C317.268 294.323 316.336 293.768 315.348 293.067C314.353 292.358 313.308 291.547 312.214 290.635C311.121 289.707 309.986 288.7 308.809 287.614Z" fill="black"/>
<path d="M303.659 354.297L313.99 340.257L315.925 341.655L305.553 355.654L303.659 354.297ZM302.597 345.631L304.357 343.871L313.627 353.142C313.923 353.437 314.169 353.639 314.366 353.746C314.563 353.836 314.76 353.836 314.957 353.746C315.146 353.648 315.387 353.451 315.683 353.155C315.773 353.065 315.907 352.931 316.086 352.752C316.265 352.573 316.467 352.371 316.691 352.147C316.914 351.923 317.138 351.7 317.362 351.476C317.586 351.252 317.788 351.05 317.967 350.871C318.155 350.683 318.294 350.544 318.383 350.455C318.688 350.15 318.845 349.85 318.854 349.554C318.854 349.25 318.692 348.865 318.37 348.399C318.039 347.924 317.515 347.275 316.798 346.451C317.04 346.424 317.313 346.366 317.618 346.276C317.922 346.169 318.213 346.057 318.491 345.94C318.777 345.815 319.015 345.694 319.203 345.578C320.027 346.545 320.623 347.382 320.99 348.09C321.348 348.789 321.46 349.438 321.326 350.038C321.191 350.638 320.788 351.274 320.116 351.946C320.027 352.035 319.879 352.183 319.673 352.389C319.476 352.586 319.252 352.81 319.001 353.061C318.76 353.303 318.513 353.549 318.262 353.8C318.012 354.051 317.788 354.275 317.591 354.472C317.394 354.669 317.25 354.812 317.161 354.902C316.48 355.582 315.867 356.035 315.32 356.259C314.783 356.491 314.241 356.496 313.695 356.272C313.157 356.039 312.539 355.573 311.841 354.875L302.597 345.631ZM328.151 333.647L328.943 331.592C329.543 331.672 330.184 331.784 330.865 331.928C331.545 332.071 332.195 332.228 332.813 332.398C333.431 332.568 333.964 332.752 334.411 332.949L333.592 335.219C333.162 335.022 332.642 334.825 332.033 334.628C331.424 334.431 330.775 334.247 330.085 334.077C329.405 333.898 328.76 333.755 328.151 333.647ZM317.282 330.436L318.934 328.784L323.798 333.647L322.145 335.3L317.282 330.436ZM316.422 339.895L328.54 327.776L330.085 329.321L317.967 341.44L316.422 339.895ZM314.85 335.636L324.483 326.003L326.014 327.534L316.382 337.167L314.85 335.636ZM324.134 334.01L325.826 332.317L331.402 337.893C331.805 338.296 332.078 338.659 332.221 338.981C332.374 339.312 332.378 339.675 332.235 340.069C332.101 340.454 331.868 340.849 331.536 341.252C331.214 341.646 330.806 342.089 330.314 342.582C330.045 342.367 329.7 342.156 329.279 341.95C328.867 341.753 328.495 341.596 328.164 341.48C328.469 341.193 328.773 340.907 329.078 340.62C329.373 340.325 329.561 340.128 329.642 340.029C329.74 339.93 329.794 339.85 329.803 339.787C329.803 339.716 329.763 339.639 329.682 339.559L324.134 334.01ZM320.13 340.62L322.185 339.398C322.436 339.989 322.66 340.625 322.857 341.305C323.045 341.977 323.198 342.649 323.314 343.321C323.422 343.983 323.471 344.615 323.462 345.215C323.157 345.233 322.79 345.287 322.36 345.376C321.921 345.457 321.559 345.533 321.272 345.605C321.299 345.058 321.263 344.494 321.164 343.912C321.066 343.312 320.927 342.725 320.748 342.152C320.569 341.579 320.363 341.068 320.13 340.62ZM320.936 336.616L322.575 334.977L324.12 336.522C324.595 336.997 325.074 337.539 325.558 338.148C326.032 338.748 326.449 339.424 326.807 340.177C327.156 340.92 327.398 341.753 327.533 342.676C327.667 343.58 327.627 344.579 327.412 345.672C327.206 345.627 326.955 345.6 326.659 345.591C326.364 345.582 326.064 345.587 325.759 345.605C325.464 345.613 325.204 345.64 324.98 345.685C325.177 344.754 325.226 343.907 325.128 343.146C325.038 342.376 324.85 341.686 324.563 341.077C324.286 340.459 323.959 339.908 323.583 339.424C323.198 338.932 322.817 338.497 322.441 338.121L320.936 336.616ZM333.041 317.713C333.184 318.591 333.247 319.585 333.229 320.696C333.22 321.798 333.126 322.94 332.947 324.122C332.777 325.295 332.522 326.446 332.181 327.575C331.975 327.512 331.733 327.458 331.456 327.414C331.187 327.36 330.909 327.324 330.623 327.306C330.345 327.279 330.09 327.266 329.857 327.266C330.26 326.128 330.547 324.937 330.717 323.692C330.878 322.438 330.941 321.238 330.905 320.091C330.878 318.936 330.757 317.919 330.542 317.042L332.221 315.362C333.099 315.506 333.99 315.591 334.895 315.618C335.8 315.644 336.7 315.604 337.595 315.497C338.491 315.389 339.36 315.228 340.202 315.013C341.044 314.798 341.841 314.529 342.593 314.207C342.593 314.619 342.634 315.044 342.714 315.483C342.795 315.922 342.88 316.339 342.969 316.733C342.19 316.974 341.362 317.185 340.484 317.364C339.615 317.534 338.742 317.664 337.864 317.754C336.977 317.834 336.122 317.875 335.298 317.875C334.474 317.875 333.722 317.821 333.041 317.713ZM332.168 323.558L338.926 316.8L340.336 318.211L333.578 324.968L332.168 323.558ZM333.296 327.911L343.252 317.955L344.649 319.352L334.694 329.308L333.296 327.911ZM336.709 332.667L348.129 321.247L349.512 322.631L338.093 334.05L336.709 332.667ZM335.217 321.636L336.924 319.93L343.883 326.89L342.177 328.596L335.217 321.636ZM336.05 328.972L336.803 327.145C337.197 327.199 337.609 327.279 338.039 327.387C338.478 327.485 338.894 327.597 339.288 327.723C339.682 327.848 340.014 327.982 340.282 328.126L339.517 330.127C339.257 329.975 338.93 329.827 338.536 329.684C338.133 329.532 337.716 329.393 337.286 329.268C336.857 329.142 336.445 329.044 336.05 328.972ZM342.351 321.623L344.461 320.642C344.604 321.323 344.738 322.013 344.864 322.711C344.98 323.401 345.061 324.01 345.106 324.538L343.386 325.237C343.323 324.87 343.243 324.476 343.144 324.055C343.037 323.625 342.916 323.199 342.781 322.778C342.638 322.348 342.495 321.963 342.351 321.623ZM349.445 315.658L358.205 306.898L359.468 308.161L350.708 316.921L349.445 315.658ZM347.631 313.146L356.646 304.131L357.99 305.474L348.975 314.489L347.631 313.146ZM349.956 319.5L361.846 307.61L363.23 308.994L351.34 320.884L349.956 319.5ZM349.942 309.196L351.608 307.53L357.721 313.643L356.055 315.309L349.942 309.196ZM345.495 309.263L346.221 309.988L352.186 304.023L351.46 303.298L345.495 309.263ZM343.655 307.422L344.353 308.121L350.318 302.156L349.62 301.457L343.655 307.422ZM340.847 307.785L350.063 298.568L355.074 303.58L345.858 312.796L340.847 307.785ZM346.422 311.963L348.451 310.848C348.693 311.484 348.885 312.151 349.029 312.85C349.172 313.549 349.271 314.238 349.324 314.919C349.378 315.6 349.387 316.227 349.351 316.8C349.145 316.809 348.899 316.831 348.612 316.867C348.326 316.903 348.039 316.948 347.752 317.001C347.457 317.046 347.206 317.1 347 317.163C347.116 316.348 347.125 315.479 347.027 314.556C346.928 313.616 346.727 312.751 346.422 311.963Z" fill="black"/>
<path d="M155.751 260.006L159.531 263.786L158.016 265.301L154.236 261.521L155.751 260.006ZM164.788 263.417L166.379 265.008L157.202 274.185C156.845 274.541 156.646 274.8 156.603 274.961C156.57 275.114 156.671 275.309 156.909 275.547C156.96 275.598 157.045 275.683 157.164 275.802C157.282 275.92 157.414 276.052 157.558 276.196C157.702 276.34 157.834 276.472 157.953 276.591C158.071 276.709 158.161 276.799 158.22 276.858C158.39 277.028 158.589 277.083 158.818 277.023C159.047 276.964 159.365 276.765 159.773 276.425C160.197 276.086 160.761 275.589 161.466 274.936C161.5 275.157 161.555 275.398 161.631 275.662C161.716 275.933 161.809 276.196 161.911 276.451C162.021 276.697 162.132 276.909 162.242 277.087C161.376 277.851 160.63 278.419 160.002 278.793C159.382 279.174 158.827 279.34 158.334 279.289C157.842 279.255 157.354 278.996 156.871 278.513C156.803 278.445 156.688 278.33 156.527 278.169C156.366 278.008 156.192 277.834 156.005 277.647C155.827 277.469 155.662 277.303 155.509 277.151C155.356 276.998 155.242 276.883 155.165 276.807C154.682 276.323 154.372 275.869 154.236 275.445C154.1 275.038 154.147 274.609 154.376 274.16C154.614 273.701 155.029 273.175 155.623 272.581L164.788 263.417ZM161.58 260.21L163.171 261.801L151.563 273.409L149.972 271.818L161.58 260.21ZM167.091 269.514L166.824 271.996C166.086 271.852 165.322 271.682 164.533 271.487C163.752 271.283 162.967 271.067 162.178 270.838C161.406 270.609 160.659 270.371 159.938 270.125C160.057 269.904 160.167 269.616 160.269 269.259C160.379 268.895 160.464 268.581 160.524 268.318C161.228 268.53 161.966 268.716 162.738 268.878C163.511 269.039 164.27 269.17 165.017 269.272C165.772 269.382 166.463 269.463 167.091 269.514ZM149.527 265.314C149.976 265.56 150.503 265.84 151.105 266.154C151.716 266.459 152.365 266.777 153.052 267.108C153.748 267.431 154.436 267.753 155.114 268.076L154.032 269.743C153.108 269.395 152.17 269.026 151.22 268.636C150.278 268.254 149.416 267.902 148.636 267.579L149.527 265.314ZM170.477 270.787L181.779 282.089L180.354 283.515L169.051 272.212L170.477 270.787ZM176.319 274.541L177.91 276.132L165.959 288.084L164.368 286.493L176.319 274.541ZM168.657 281.415L169.421 283.247C168.699 283.375 167.953 283.443 167.18 283.451C166.417 283.468 165.64 283.43 164.851 283.336C164.079 283.243 163.315 283.099 162.56 282.904C161.805 282.726 161.088 282.501 160.409 282.229C160.452 282.017 160.494 281.771 160.536 281.491C160.579 281.211 160.609 280.927 160.626 280.638C160.642 280.35 160.647 280.099 160.638 279.887C161.266 280.193 161.924 280.46 162.611 280.689C163.307 280.91 164.007 281.092 164.711 281.236C165.424 281.372 166.111 281.457 166.773 281.491C167.452 281.525 168.08 281.499 168.657 281.415ZM171.024 283.884C170.956 284.461 170.944 285.084 170.986 285.755C171.045 286.425 171.143 287.117 171.279 287.829C171.432 288.542 171.627 289.246 171.864 289.942C172.11 290.63 172.386 291.287 172.692 291.915C172.471 291.898 172.212 291.894 171.915 291.902C171.618 291.928 171.325 291.958 171.037 291.991C170.748 292.042 170.494 292.093 170.273 292.144C169.993 291.474 169.764 290.761 169.586 290.006C169.399 289.259 169.255 288.496 169.153 287.715C169.068 286.934 169.03 286.158 169.039 285.386C169.056 284.622 169.124 283.884 169.242 283.171L171.024 283.884ZM167.906 278.474L167.129 279.251L173.303 285.424L174.079 284.647L167.906 278.474ZM169.739 276.642L168.975 277.405L175.148 283.578L175.912 282.815L169.739 276.642ZM169.395 274.007L178.623 283.235L173.723 288.135L164.495 278.907L169.395 274.007Z" fill="black"/>
<path d="M132.671 290.374L134.006 291.709L129.152 296.563L127.817 295.228L132.671 290.374ZM130.838 287.297L137.06 293.52L135.963 294.617L129.74 288.394L130.838 287.297ZM127.251 292.286L126.629 292.909L131.505 297.785L132.128 297.163L127.251 292.286ZM128.824 290.714L128.213 291.325L133.089 296.201L133.7 295.59L128.824 290.714ZM128.541 288.372L136.11 295.941L131.856 300.195L124.287 292.626L128.541 288.372ZM128.111 297.717L129.808 297.626C130.08 298.185 130.348 298.762 130.611 299.357C130.883 299.961 131.132 300.534 131.358 301.077C131.6 301.62 131.799 302.099 131.958 302.514L129.967 302.469C129.838 302.084 129.676 301.628 129.48 301.1C129.292 300.579 129.08 300.029 128.847 299.448C128.613 298.867 128.368 298.29 128.111 297.717ZM135.872 287.082L137.275 288.485L135.669 290.091L134.266 288.689L135.872 287.082ZM130.962 283.756L140.681 293.474L138.18 295.975L136.789 294.583L138.056 293.316L131.064 286.324L129.797 287.591L128.462 286.256L130.962 283.756ZM126.539 294.334L126.855 296.325C126.342 296.22 125.781 296.05 125.17 295.816C124.559 295.597 123.948 295.334 123.337 295.024C122.726 294.73 122.153 294.413 121.617 294.074C121.677 293.833 121.73 293.531 121.775 293.169C121.828 292.814 121.862 292.501 121.877 292.23C122.368 292.554 122.896 292.863 123.461 293.158C124.042 293.452 124.6 293.701 125.136 293.904C125.686 294.108 126.154 294.251 126.539 294.334ZM133.141 309.987L145.982 297.146L147.068 298.232L134.227 311.073L133.141 309.987ZM151.621 304.098L158.342 310.818L157.018 312.142L150.298 305.422L151.621 304.098ZM142.378 311.531L152.47 321.623L151.157 322.935L141.066 312.844L142.378 311.531ZM146.666 306.994L157.007 317.335L155.672 318.67L145.331 308.329L146.666 306.994ZM153.036 306.96L154.427 308.352C153.839 308.835 153.22 309.333 152.572 309.845C151.923 310.358 151.267 310.871 150.603 311.384C149.947 311.905 149.298 312.41 148.657 312.9C148.016 313.39 147.401 313.847 146.813 314.269C146.24 314.692 145.719 315.069 145.252 315.401L143.837 313.986C144.335 313.654 144.882 313.274 145.478 312.844C146.074 312.414 146.689 311.957 147.322 311.475C147.971 310.992 148.623 310.498 149.279 309.993C149.943 309.48 150.592 308.967 151.225 308.454C151.859 307.941 152.462 307.443 153.036 306.96ZM157.719 310.196L159.134 311.61C158.53 312.184 157.893 312.776 157.222 313.387C156.558 313.99 155.883 314.597 155.196 315.208C154.51 315.819 153.835 316.411 153.171 316.984C152.523 317.558 151.897 318.101 151.293 318.614C150.697 319.119 150.151 319.575 149.653 319.983L148.216 318.546C148.721 318.131 149.279 317.671 149.89 317.165C150.509 316.653 151.15 316.11 151.814 315.536C152.485 314.971 153.16 314.386 153.839 313.783C154.525 313.172 155.193 312.565 155.841 311.961C156.505 311.358 157.131 310.769 157.719 310.196Z" fill="black"/>
<path d="M97.0668 305.852L98.8268 307.612C97.752 308.669 96.6906 309.686 95.6427 310.662C94.6037 311.629 93.5557 312.498 92.4989 313.268C91.4509 314.03 90.3672 314.648 89.2476 315.122C88.137 315.588 86.9591 315.861 85.7142 315.942C84.4871 316.022 83.1705 315.852 81.7643 315.431C81.827 315.225 81.8762 314.97 81.9121 314.666C81.9389 314.37 81.9568 314.065 81.9658 313.752C81.9748 313.456 81.9524 313.192 81.8986 312.959C83.1884 313.371 84.3751 313.546 85.4589 313.483C86.5516 313.43 87.5816 313.197 88.549 312.785C89.5252 312.364 90.4746 311.799 91.3972 311.092C92.3197 310.384 93.2423 309.578 94.1648 308.674C95.0963 307.778 96.0636 306.837 97.0668 305.852ZM90.6045 305.624L98.8671 313.886L97.2414 315.512L88.9789 307.249L90.6045 305.624ZM97.9804 313L99.6597 314.679L92.7541 321.585C92.4675 321.871 92.3063 322.077 92.2705 322.203C92.2436 322.319 92.3108 322.458 92.472 322.619C92.5078 322.655 92.566 322.713 92.6466 322.794C92.7273 322.874 92.8168 322.964 92.9153 323.062C93.0139 323.161 93.1034 323.251 93.184 323.331C93.2736 323.421 93.3363 323.483 93.3721 323.519C93.4886 323.636 93.6274 323.667 93.7886 323.613C93.9498 323.56 94.1917 323.398 94.5141 323.13C94.8366 322.861 95.2889 322.453 95.8711 321.907C95.9069 322.14 95.9651 322.386 96.0457 322.646C96.1353 322.915 96.2338 323.183 96.3413 323.452C96.4577 323.712 96.5742 323.936 96.6906 324.124C95.9203 324.805 95.2575 325.297 94.7022 325.602C94.1558 325.897 93.6722 326.014 93.2512 325.951C92.8213 325.897 92.4003 325.664 91.9883 325.252C91.9167 325.181 91.8182 325.082 91.6928 324.957C91.5674 324.831 91.433 324.697 91.2897 324.554C91.1464 324.41 91.012 324.276 90.8867 324.151C90.7702 324.034 90.6807 323.945 90.618 323.882C90.1791 323.443 89.8969 323.027 89.7715 322.633C89.6462 322.256 89.6865 321.849 89.8925 321.41C90.1074 320.98 90.506 320.474 91.0882 319.892L97.9804 313ZM103.354 329.498L105.02 331.164L101.258 334.926L99.5926 333.26L103.354 329.498ZM98.6655 323.68C99.3194 324.334 100.063 325.078 100.896 325.911C101.738 326.735 102.633 327.612 103.583 328.544C104.541 329.466 105.522 330.42 106.525 331.406C107.537 332.382 108.536 333.354 109.521 334.321L108.164 335.517C107.17 334.594 106.171 333.658 105.168 332.709C104.174 331.768 103.198 330.846 102.239 329.941C101.299 329.037 100.399 328.181 99.5388 327.375C98.6969 326.569 97.94 325.839 97.2683 325.185L98.6655 323.68ZM107.291 324.943L108.191 327.026C107.394 326.999 106.583 326.932 105.759 326.824C104.953 326.717 104.232 326.587 103.596 326.435L102.938 324.621C103.377 324.702 103.851 324.773 104.362 324.836C104.89 324.899 105.405 324.939 105.907 324.957C106.418 324.966 106.879 324.961 107.291 324.943ZM109.333 328.625L110.273 330.855C109.333 330.738 108.357 330.568 107.345 330.344C106.341 330.129 105.361 329.892 104.402 329.632C103.444 329.372 102.566 329.104 101.769 328.826L101.205 326.945C102.02 327.223 102.911 327.478 103.878 327.711C104.855 327.953 105.817 328.154 106.767 328.316C107.725 328.468 108.581 328.571 109.333 328.625ZM101.581 323.452L103.677 323.667C103.892 324.187 104.098 324.742 104.295 325.333C104.51 325.924 104.702 326.502 104.873 327.066C105.052 327.621 105.195 328.114 105.302 328.544L103.072 328.436C102.992 328.015 102.866 327.514 102.696 326.932C102.544 326.35 102.369 325.754 102.172 325.145C101.984 324.545 101.787 323.981 101.581 323.452ZM104.04 333.757L106.176 334.415C106.355 334.935 106.521 335.494 106.673 336.094C106.834 336.686 106.977 337.268 107.103 337.841C107.246 338.414 107.358 338.911 107.439 339.332L105.155 338.741C105.11 338.32 105.029 337.819 104.913 337.236C104.787 336.663 104.649 336.068 104.496 335.45C104.362 334.832 104.21 334.267 104.04 333.757ZM99.8478 328.141L100.788 330.264C100.26 330.255 99.6821 330.196 99.0552 330.089C98.4371 329.99 97.8236 329.861 97.2146 329.699C96.6145 329.547 96.0547 329.381 95.5352 329.202C95.5352 329.005 95.5262 328.754 95.5083 328.45C95.4904 328.163 95.4635 327.868 95.4277 327.563C95.3919 327.277 95.3516 327.03 95.3068 326.824C96.0412 327.165 96.8205 327.46 97.6445 327.711C98.4685 327.962 99.2029 328.105 99.8478 328.141ZM107.68 331.056L109.669 331.836C109.74 332.427 109.794 333.063 109.83 333.743C109.875 334.433 109.897 335.1 109.897 335.745C109.897 336.39 109.866 336.95 109.803 337.424L107.627 336.592C107.707 336.153 107.757 335.62 107.774 334.993C107.81 334.366 107.815 333.707 107.788 333.018C107.77 332.319 107.734 331.665 107.68 331.056ZM109.306 320.08L111.832 322.606L110.556 323.882L108.03 321.356L109.306 320.08ZM113.498 321.907L115.097 323.506L111.671 326.932C111.456 327.147 111.353 327.321 111.362 327.456C111.389 327.59 111.536 327.792 111.805 328.06C111.868 328.123 111.971 328.226 112.114 328.369C112.257 328.513 112.414 328.669 112.584 328.84C112.754 329.01 112.916 329.171 113.068 329.323C113.22 329.475 113.332 329.587 113.404 329.659C113.556 329.811 113.69 329.901 113.807 329.928C113.941 329.955 114.098 329.914 114.277 329.807C114.465 329.69 114.711 329.498 115.016 329.229C115.07 329.498 115.182 329.825 115.352 330.21C115.531 330.586 115.71 330.909 115.889 331.177C115.334 331.607 114.85 331.894 114.438 332.037C114.035 332.171 113.659 332.171 113.31 332.037C112.96 331.903 112.58 331.63 112.168 331.218C112.096 331.146 111.993 331.043 111.859 330.909C111.733 330.783 111.59 330.64 111.429 330.479C111.268 330.317 111.102 330.152 110.932 329.981C110.77 329.82 110.623 329.672 110.488 329.538C110.363 329.413 110.269 329.319 110.206 329.256C109.66 328.71 109.297 328.23 109.118 327.818C108.948 327.415 108.939 327.021 109.091 326.636C109.261 326.251 109.584 325.821 110.058 325.346L113.498 321.907ZM102.696 319.328C103.26 319.802 103.919 320.344 104.671 320.953C105.441 321.562 106.252 322.203 107.103 322.874C107.963 323.555 108.818 324.231 109.669 324.903L108.446 326.206C107.613 325.588 106.771 324.961 105.92 324.325C105.079 323.68 104.268 323.067 103.489 322.485C102.727 321.903 102.029 321.374 101.393 320.899L102.696 319.328ZM117.112 326.811L117.179 329.135C116.561 328.893 115.921 328.602 115.258 328.262C114.613 327.921 113.964 327.559 113.31 327.174C112.665 326.779 112.051 326.39 111.469 326.005C111.603 325.817 111.733 325.561 111.859 325.239C112.002 324.916 112.105 324.634 112.168 324.393C112.723 324.715 113.296 325.037 113.887 325.36C114.479 325.682 115.052 325.969 115.607 326.22C116.162 326.47 116.664 326.668 117.112 326.811ZM109.83 318.239L111.321 319.731L106.753 324.298L105.155 322.915L109.83 318.239ZM106.646 317.044L108.03 318.427L104.335 322.122L102.83 320.859L106.646 317.044ZM119.503 333.26L120.766 335.248C120.139 335.732 119.494 336.171 118.832 336.565C118.178 336.968 117.506 337.281 116.816 337.505C116.136 337.72 115.441 337.796 114.734 337.733L114.183 335.355C114.792 335.409 115.388 335.351 115.97 335.181C116.57 335.011 117.161 334.76 117.743 334.428C118.343 334.097 118.93 333.707 119.503 333.26ZM127.766 341.495L128.881 343.954C128.218 344.151 127.533 344.352 126.825 344.558C126.127 344.756 125.446 344.935 124.783 345.096C124.138 345.257 123.547 345.374 123.01 345.445L122.244 343.443C122.781 343.318 123.377 343.152 124.031 342.946C124.694 342.749 125.348 342.525 125.992 342.275C126.646 342.015 127.237 341.755 127.766 341.495ZM126.261 335.046L127.134 335.92L122.916 340.138C122.584 340.47 122.257 340.868 121.935 341.334C121.622 341.809 121.344 342.337 121.102 342.919C120.86 343.502 120.672 344.138 120.538 344.827C120.412 345.526 120.359 346.269 120.377 347.057C120.394 347.846 120.502 348.679 120.699 349.556C120.914 350.434 121.241 351.352 121.68 352.311C121.438 352.302 121.156 352.315 120.833 352.351C120.511 352.387 120.188 352.431 119.866 352.485C119.553 352.548 119.279 352.615 119.046 352.687C118.661 351.782 118.388 350.891 118.227 350.013C118.066 349.135 117.981 348.298 117.972 347.501C117.981 346.704 118.043 345.96 118.16 345.271C118.276 344.581 118.424 343.967 118.603 343.43C118.791 342.902 118.979 342.463 119.167 342.113C118.827 342.328 118.393 342.53 117.864 342.718C117.345 342.915 116.745 343.076 116.064 343.202C115.401 343.327 114.68 343.394 113.901 343.403C113.131 343.421 112.311 343.354 111.442 343.202C110.582 343.058 109.705 342.807 108.809 342.449C108.863 342.252 108.908 342.001 108.943 341.697C108.979 341.392 109.006 341.079 109.024 340.756C109.042 340.434 109.046 340.161 109.037 339.937C110.157 340.447 111.227 340.783 112.248 340.944C113.287 341.106 114.255 341.142 115.15 341.052C116.046 340.962 116.87 340.783 117.622 340.515C118.393 340.246 119.069 339.928 119.651 339.561C120.251 339.193 120.757 338.804 121.169 338.392L125.388 334.173L126.261 335.046ZM126.973 352.821L135.733 361.581L134.47 362.844L125.71 354.084L126.973 352.821ZM129.485 351.007L138.5 360.022L137.157 361.366L128.142 352.351L129.485 351.007ZM123.131 353.332L135.021 365.222L133.637 366.605L121.747 354.715L123.131 353.332ZM133.435 353.318L135.101 354.984L128.988 361.097L127.322 359.431L133.435 353.318ZM133.368 348.871L132.643 349.597L138.608 355.562L139.333 354.836L133.368 348.871ZM135.209 347.031L134.51 347.729L140.475 353.694L141.174 352.996L135.209 347.031ZM134.846 344.223L144.062 353.439L139.051 358.45L129.835 349.234L134.846 344.223ZM130.668 349.798L131.783 351.827C131.147 352.069 130.48 352.261 129.781 352.405C129.082 352.548 128.393 352.646 127.712 352.7C127.031 352.754 126.404 352.763 125.831 352.727C125.822 352.521 125.8 352.275 125.764 351.988C125.728 351.701 125.683 351.415 125.63 351.128C125.585 350.833 125.531 350.582 125.468 350.376C126.283 350.492 127.152 350.501 128.075 350.403C129.015 350.304 129.88 350.103 130.668 349.798Z" fill="black"/>
<path d="M312.238 77.2265L322.489 87.4775L320.836 89.13L310.585 78.879L312.238 77.2265ZM308.839 82.4796L317.088 90.7287L315.449 92.3678L307.2 84.1187L308.839 82.4796ZM302.605 85.3547L314.32 97.0701L312.681 98.7091L300.966 86.9938L302.605 85.3547ZM325.713 89.224L330.926 94.4368L329.717 95.646L324.504 90.4332L325.713 89.224ZM319.318 95.1892L331.369 107.24L330.106 108.503L318.055 96.4521L319.318 95.1892ZM323.765 91.4677L328.588 96.2908L327.392 97.4866L322.569 92.6634L323.765 91.4677ZM318.351 102.767L324.894 109.309L323.684 110.519L317.142 103.976L318.351 102.767ZM321.011 93.3889C321.521 93.8457 322.099 94.3607 322.744 94.9339C323.398 95.5161 324.083 96.1296 324.8 96.7745C325.525 97.4104 326.251 98.0463 326.976 98.6823L325.74 99.8914C324.692 98.9868 323.644 98.0822 322.596 97.1776C321.557 96.264 320.639 95.4623 319.842 94.7727L321.011 93.3889ZM327.11 91.5617L328.629 93.0799L324.437 97.2716L322.731 95.9415L327.11 91.5617ZM334.217 96.6267L335.843 98.5479C335.404 98.736 334.983 98.9062 334.58 99.0585C334.177 99.2107 333.819 99.3361 333.505 99.4346L332.323 97.8224C332.637 97.6523 332.964 97.4597 333.304 97.2447C333.653 97.0387 333.958 96.8327 334.217 96.6267ZM329.515 99.9855L328.655 100.845L331.275 103.465L332.135 102.605L329.515 99.9855ZM331.49 98.0105L330.644 98.8569L333.264 101.477L334.11 100.63L331.49 98.0105ZM331.221 95.3235L336.851 100.953L331.598 106.206L325.968 100.577L331.221 95.3235ZM322.798 99.1525L323.765 101.087C322.843 101.311 321.884 101.427 320.89 101.436C319.896 101.445 318.911 101.365 317.934 101.195C316.958 101.024 316.031 100.787 315.153 100.483C315.198 100.312 315.243 100.088 315.288 99.8108C315.341 99.5242 315.386 99.2376 315.422 98.951C315.458 98.6644 315.471 98.4181 315.462 98.212C316.241 98.5434 317.056 98.8121 317.907 99.0181C318.758 99.2242 319.6 99.3406 320.433 99.3675C321.275 99.4033 322.063 99.3316 322.798 99.1525ZM319.452 99.5152L328.225 108.288L324.491 112.023L322.757 110.29L325.283 107.764L319.909 102.39L317.316 104.983L315.65 103.317L319.452 99.5152ZM336.475 105.171L348.297 116.994L346.699 118.593L334.876 106.77L336.475 105.171ZM344.643 107.079L346.363 108.799L333.747 121.414L332.028 119.695L344.643 107.079ZM340.29 110.733L341.231 112.641C340.218 113.044 339.184 113.38 338.127 113.649C337.07 113.918 336.009 114.11 334.943 114.227C333.886 114.352 332.838 114.397 331.799 114.361C330.778 114.325 329.797 114.195 328.857 113.971C328.902 113.747 328.938 113.479 328.964 113.165C328.991 112.852 329.009 112.538 329.018 112.225C329.036 111.902 329.036 111.625 329.018 111.392C329.878 111.643 330.783 111.813 331.732 111.902C332.699 111.992 333.676 112.01 334.661 111.956C335.655 111.893 336.627 111.755 337.576 111.54C338.535 111.334 339.439 111.065 340.29 110.733ZM342.601 113.179C342.287 114.012 342.041 114.903 341.862 115.852C341.683 116.802 341.571 117.764 341.526 118.741C341.49 119.726 341.517 120.693 341.607 121.643C341.696 122.592 341.867 123.488 342.117 124.33C341.893 124.303 341.616 124.294 341.284 124.303C340.971 124.312 340.653 124.334 340.33 124.37C340.017 124.415 339.744 124.464 339.511 124.518C339.305 123.595 339.184 122.632 339.148 121.629C339.121 120.617 339.162 119.583 339.269 118.526C339.386 117.46 339.574 116.403 339.833 115.355C340.093 114.307 340.407 113.286 340.774 112.292L342.601 113.179ZM345.973 125.821L354.733 134.581L353.47 135.844L344.71 127.084L345.973 125.821ZM348.485 124.007L357.5 133.022L356.157 134.366L347.142 125.351L348.485 124.007ZM342.131 126.332L354.021 138.222L352.637 139.605L340.747 127.715L342.131 126.332ZM352.435 126.318L354.101 127.984L347.988 134.097L346.322 132.431L352.435 126.318ZM352.368 121.871L351.643 122.597L357.608 128.562L358.333 127.836L352.368 121.871ZM354.209 120.031L353.51 120.729L359.475 126.694L360.174 125.996L354.209 120.031ZM353.846 117.223L363.062 126.439L358.051 131.45L348.835 122.234L353.846 117.223ZM349.668 122.798L350.783 124.827C350.147 125.069 349.48 125.261 348.781 125.405C348.082 125.548 347.393 125.646 346.712 125.7C346.031 125.754 345.404 125.763 344.831 125.727C344.822 125.521 344.8 125.275 344.764 124.988C344.728 124.701 344.683 124.415 344.63 124.128C344.585 123.833 344.531 123.582 344.468 123.376C345.283 123.492 346.152 123.501 347.075 123.403C348.015 123.304 348.88 123.103 349.668 122.798Z" fill="black"/>
<path d="M213.008 125.194H228.992V127.21H213.008V125.194ZM216.968 132.934H225.014V134.608H216.968V132.934ZM216.59 135.796H225.41V137.524H216.59V135.796ZM219.92 133.762H221.954V140.098H219.92V133.762ZM213.692 128.56H226.724V130.54H215.852V140.566H213.692V128.56ZM226.112 128.56H228.326V138.406C228.326 138.922 228.254 139.318 228.11 139.594C227.966 139.882 227.714 140.098 227.354 140.242C226.982 140.398 226.526 140.488 225.986 140.512C225.458 140.548 224.828 140.566 224.096 140.566C224.048 140.29 223.952 139.978 223.808 139.63C223.676 139.282 223.538 138.982 223.394 138.73C223.694 138.742 224 138.754 224.312 138.766C224.624 138.778 224.906 138.784 225.158 138.784C225.422 138.772 225.596 138.766 225.68 138.766C225.848 138.766 225.962 138.742 226.022 138.694C226.082 138.634 226.112 138.538 226.112 138.406V128.56ZM217.652 131.026L219.362 130.522C219.578 130.81 219.776 131.14 219.956 131.512C220.148 131.884 220.292 132.208 220.388 132.484L218.588 133.078C218.516 132.79 218.39 132.454 218.21 132.07C218.03 131.686 217.844 131.338 217.652 131.026ZM222.728 130.558L224.546 131.062C224.306 131.494 224.066 131.914 223.826 132.322C223.598 132.718 223.376 133.066 223.16 133.366L221.63 132.898C221.762 132.682 221.894 132.436 222.026 132.16C222.17 131.884 222.302 131.608 222.422 131.332C222.542 131.056 222.644 130.798 222.728 130.558ZM219.848 123.826H222.206V129.964H219.848V123.826Z" fill="black"/>
<path d="M215.744 79.336L217.792 79.832C217.536 80.6427 217.227 81.4373 216.864 82.216C216.501 82.984 216.112 83.704 215.696 84.376C215.28 85.048 214.848 85.6293 214.4 86.12C214.272 86.0133 214.096 85.8853 213.872 85.736C213.648 85.5867 213.419 85.4427 213.184 85.304C212.96 85.1547 212.763 85.0373 212.592 84.952C213.051 84.5147 213.477 83.9973 213.872 83.4C214.277 82.8027 214.635 82.1573 214.944 81.464C215.264 80.7707 215.531 80.0613 215.744 79.336ZM216.192 81.416H225.984V83.288H215.232L216.192 81.416ZM212.784 86.616H227.248V88.552H212.784V86.616ZM219.008 82.248H221.008V94.44H219.008V82.248Z" fill="black"/>
<path d="M301.988 224.524H314.192V226.522H301.988V224.524ZM300.602 215.722H315.452V227.512H313.256V217.72H302.708V227.548H300.602V215.722ZM308.738 216.55H310.808V219.79C310.808 220.018 310.826 220.162 310.862 220.222C310.91 220.27 311.024 220.294 311.204 220.294C311.24 220.294 311.318 220.294 311.438 220.294C311.57 220.294 311.696 220.294 311.816 220.294C311.948 220.294 312.044 220.294 312.104 220.294C312.212 220.294 312.29 220.276 312.338 220.24C312.398 220.192 312.44 220.102 312.464 219.97C312.5 219.838 312.524 219.634 312.536 219.358C312.656 219.454 312.818 219.556 313.022 219.664C313.238 219.76 313.46 219.85 313.688 219.934C313.928 220.006 314.144 220.06 314.336 220.096C314.252 220.648 314.132 221.074 313.976 221.374C313.82 221.674 313.61 221.884 313.346 222.004C313.094 222.124 312.764 222.184 312.356 222.184C312.26 222.184 312.146 222.184 312.014 222.184C311.882 222.184 311.738 222.184 311.582 222.184C311.438 222.184 311.3 222.184 311.168 222.184C311.036 222.184 310.928 222.184 310.844 222.184C310.268 222.184 309.824 222.112 309.512 221.968C309.212 221.824 309.008 221.578 308.9 221.23C308.792 220.882 308.738 220.408 308.738 219.808V216.55ZM299.882 211.69H316.064V213.778H299.882V211.69ZM304.796 213.274H306.92V216.874H304.796V213.274ZM308.738 213.274H310.916V216.874H308.738V213.274ZM304.904 216.136H306.92V217.918C306.92 218.518 306.842 219.136 306.686 219.772C306.53 220.408 306.236 221.014 305.804 221.59C305.372 222.166 304.742 222.67 303.914 223.102C303.818 222.97 303.674 222.814 303.482 222.634C303.29 222.454 303.086 222.28 302.87 222.112C302.666 221.944 302.492 221.818 302.348 221.734C303.104 221.35 303.662 220.942 304.022 220.51C304.394 220.078 304.634 219.634 304.742 219.178C304.85 218.722 304.904 218.284 304.904 217.864V216.136Z" fill="black"/>
<path d="M347.928 224.008H358.488V225.688H347.928V224.008ZM347.928 221.448H358.52V223.032H347.928V221.448ZM346.584 215.672H359.48V226.424H357.608V217.384H348.376V226.424H346.584V215.672ZM353.352 213.512H355.192V218.568C355.192 218.803 355.208 218.947 355.24 219C355.283 219.053 355.368 219.08 355.496 219.08C355.528 219.08 355.576 219.08 355.64 219.08C355.704 219.08 355.773 219.08 355.848 219.08C355.923 219.08 355.992 219.08 356.056 219.08C356.131 219.08 356.184 219.08 356.216 219.08C356.291 219.08 356.349 219.059 356.392 219.016C356.445 218.973 356.483 218.888 356.504 218.76C356.525 218.632 356.541 218.445 356.552 218.2C356.733 218.328 356.973 218.451 357.272 218.568C357.581 218.685 357.859 218.776 358.104 218.84C358.019 219.523 357.848 219.992 357.592 220.248C357.336 220.504 356.941 220.632 356.408 220.632C356.333 220.632 356.237 220.632 356.12 220.632C356.013 220.632 355.896 220.632 355.768 220.632C355.651 220.632 355.539 220.632 355.432 220.632C355.325 220.632 355.235 220.632 355.16 220.632C354.659 220.632 354.28 220.573 354.024 220.456C353.768 220.328 353.592 220.115 353.496 219.816C353.4 219.507 353.352 219.091 353.352 218.568V213.512ZM350.312 213.512H352.04V217.016C352.04 217.667 351.965 218.248 351.816 218.76C351.677 219.272 351.4 219.72 350.984 220.104C350.568 220.488 349.944 220.808 349.112 221.064C348.995 220.861 348.829 220.632 348.616 220.376C348.403 220.12 348.205 219.907 348.024 219.736C348.675 219.544 349.165 219.315 349.496 219.048C349.827 218.781 350.045 218.477 350.152 218.136C350.259 217.784 350.312 217.405 350.312 217V213.512ZM345.864 212.312H360.168V214.152H345.864V212.312Z" fill="black"/>
<path d="M213.008 301.984H218.354V304.126H213.008V301.984ZM221.81 298.006H224.06V310.984C224.06 311.488 224.102 311.812 224.186 311.956C224.27 312.088 224.48 312.154 224.816 312.154C224.888 312.154 225.008 312.154 225.176 312.154C225.344 312.154 225.53 312.154 225.734 312.154C225.938 312.154 226.124 312.154 226.292 312.154C226.46 312.154 226.586 312.154 226.67 312.154C226.91 312.154 227.09 312.052 227.21 311.848C227.33 311.644 227.414 311.278 227.462 310.75C227.522 310.21 227.57 309.46 227.606 308.5C227.786 308.632 227.996 308.764 228.236 308.896C228.488 309.028 228.74 309.148 228.992 309.256C229.244 309.352 229.472 309.424 229.676 309.472C229.604 310.624 229.478 311.554 229.298 312.262C229.13 312.97 228.854 313.48 228.47 313.792C228.098 314.116 227.57 314.278 226.886 314.278C226.79 314.278 226.628 314.278 226.4 314.278C226.172 314.278 225.926 314.278 225.662 314.278C225.41 314.278 225.176 314.278 224.96 314.278C224.744 314.278 224.582 314.278 224.474 314.278C223.79 314.278 223.25 314.176 222.854 313.972C222.47 313.78 222.2 313.444 222.044 312.964C221.888 312.472 221.81 311.806 221.81 310.966V298.006ZM217.274 298.006H219.524V314.422H217.274V298.006ZM227.75 300.688L229.316 302.632C228.692 303.052 228.032 303.472 227.336 303.892C226.64 304.3 225.932 304.702 225.212 305.098C224.504 305.482 223.808 305.842 223.124 306.178C223.052 305.938 222.926 305.656 222.746 305.332C222.566 304.996 222.404 304.714 222.26 304.486C222.908 304.138 223.562 303.748 224.222 303.316C224.882 302.884 225.512 302.44 226.112 301.984C226.724 301.528 227.27 301.096 227.75 300.688ZM212.36 310.138C212.852 309.994 213.422 309.82 214.07 309.616C214.718 309.4 215.402 309.166 216.122 308.914C216.842 308.65 217.556 308.392 218.264 308.14L218.678 310.084C217.778 310.492 216.854 310.894 215.906 311.29C214.97 311.686 214.112 312.046 213.332 312.37L212.36 310.138Z" fill="black"/>
<path d="M213.624 350.408H228.392V352.344H213.624V350.408ZM220.008 347.864H222.024V356.2C222.024 356.744 221.949 357.165 221.8 357.464C221.661 357.763 221.395 357.987 221 358.136C220.616 358.285 220.147 358.381 219.592 358.424C219.037 358.467 218.392 358.483 217.656 358.472C217.624 358.28 217.56 358.061 217.464 357.816C217.368 357.581 217.267 357.341 217.16 357.096C217.053 356.861 216.947 356.659 216.84 356.488C217.213 356.499 217.581 356.509 217.944 356.52C218.317 356.531 218.648 356.536 218.936 356.536C219.235 356.536 219.443 356.536 219.56 356.536C219.731 356.536 219.848 356.509 219.912 356.456C219.976 356.403 220.008 356.307 220.008 356.168V347.864ZM215.304 344.392H225.384V346.28H215.304V344.392ZM224.744 344.392H225.256L225.704 344.28L227.16 345.384C226.669 345.907 226.104 346.429 225.464 346.952C224.835 347.475 224.179 347.976 223.496 348.456C222.813 348.925 222.147 349.331 221.496 349.672C221.4 349.533 221.277 349.379 221.128 349.208C220.979 349.037 220.824 348.872 220.664 348.712C220.504 348.541 220.36 348.397 220.232 348.28C220.808 347.992 221.389 347.645 221.976 347.24C222.573 346.835 223.117 346.419 223.608 345.992C224.099 345.565 224.477 345.176 224.744 344.824V344.392Z" fill="black"/>
<path d="M185.622 387.472H199.416V389.98H185.622V387.472ZM184.026 398.511H200.993V401.114H184.026V398.511ZM207.187 389.923V391.044H215.889V389.923H207.187ZM207.187 387.187V388.308H215.889V387.187H207.187ZM205.002 385.477H218.188V392.773H205.002V385.477ZM204.508 393.647H218.72V395.433H204.508V393.647ZM202.931 396.402H220.145V398.302H202.931V396.402ZM210.322 386.256H212.583V397.599H210.322V386.256ZM208.27 399.366L210.36 399.195C210.461 399.689 210.55 400.234 210.626 400.829C210.702 401.424 210.74 401.925 210.74 402.33L208.517 402.596C208.517 402.178 208.498 401.665 208.46 401.057C208.422 400.462 208.359 399.898 208.27 399.366ZM212.013 399.442L214.141 399.024C214.344 399.505 214.54 400.037 214.73 400.62C214.92 401.19 215.053 401.684 215.129 402.102L212.868 402.596C212.817 402.191 212.71 401.69 212.545 401.095C212.38 400.5 212.203 399.949 212.013 399.442ZM215.756 399.328L217.903 398.625C218.194 398.942 218.492 399.303 218.796 399.708C219.113 400.101 219.404 400.493 219.67 400.886C219.936 401.266 220.145 401.621 220.297 401.95L217.998 402.748C217.871 402.457 217.681 402.108 217.428 401.703C217.187 401.31 216.915 400.905 216.611 400.487C216.32 400.069 216.035 399.683 215.756 399.328ZM204.85 398.644L207.054 399.176C206.839 399.835 206.547 400.487 206.18 401.133C205.813 401.792 205.401 402.336 204.945 402.767L202.779 401.817C203.21 401.475 203.609 401.013 203.976 400.43C204.343 399.847 204.635 399.252 204.85 398.644ZM223.128 390.759H237.91V393.001H223.128V390.759ZM221.874 399.651H239.183V401.893H221.874V399.651ZM229.246 384.888H231.697V401.19H229.246V384.888ZM243.477 397.181H255.865V398.967H243.477V397.181ZM243.971 394.122H256.72V396.022H243.971V394.122ZM241.121 400.259H257.936V402.216H241.121V400.259ZM248.398 392.963H250.754V401.608H248.398V392.963ZM245.206 389.866V390.892H253.642V389.866H245.206ZM245.206 387.263V388.251H253.642V387.263H245.206ZM242.964 385.534H255.998V392.621H242.964V385.534ZM243.952 392.431L246.175 393.077C245.896 393.698 245.561 394.306 245.168 394.901C244.775 395.496 244.357 396.054 243.914 396.573C243.471 397.092 243.034 397.542 242.603 397.922C242.451 397.783 242.261 397.624 242.033 397.447C241.805 397.27 241.571 397.099 241.33 396.934C241.089 396.757 240.874 396.617 240.684 396.516C241.343 396.022 241.963 395.414 242.546 394.692C243.141 393.957 243.61 393.204 243.952 392.431Z" fill="black"/>
<path d="M182.722 41.355H200.316V43.844H182.722V41.355ZM204.553 48.138H216.352V50.437H204.553V48.138ZM204.515 42.324H216.352V44.585H204.515V42.324ZM203.337 36.624H217.72V51.653H215.288V38.942H205.636V51.672H203.337V36.624ZM208.904 33.774L211.887 34.173C211.596 34.8823 211.285 35.5727 210.956 36.244C210.627 36.9153 210.329 37.4917 210.063 37.973L207.802 37.517C207.941 37.1497 208.081 36.7507 208.22 36.32C208.372 35.8893 208.505 35.4523 208.619 35.009C208.746 34.5657 208.841 34.154 208.904 33.774ZM220.988 38.524H226.27V40.823H220.988V38.524ZM228.36 33.869H230.792V48.746C230.792 49.43 230.71 49.962 230.545 50.342C230.38 50.722 230.095 51.0133 229.69 51.216C229.285 51.4187 228.765 51.5517 228.132 51.615C227.511 51.691 226.764 51.729 225.89 51.729C225.865 51.4883 225.801 51.2097 225.7 50.893C225.611 50.589 225.504 50.285 225.377 49.981C225.25 49.6643 225.124 49.3983 224.997 49.183C225.618 49.2083 226.2 49.221 226.745 49.221C227.29 49.221 227.657 49.221 227.847 49.221C228.037 49.221 228.17 49.183 228.246 49.107C228.322 49.031 228.36 48.9107 228.36 48.746V33.869ZM225.491 38.524H225.966L226.384 38.429L227.942 38.999C227.663 40.7343 227.245 42.3113 226.688 43.73C226.143 45.1487 225.497 46.3963 224.75 47.473C224.015 48.537 223.192 49.4047 222.28 50.076C222.153 49.886 221.976 49.677 221.748 49.449C221.52 49.2083 221.279 48.9803 221.026 48.765C220.785 48.5497 220.57 48.385 220.38 48.271C221.254 47.6757 222.033 46.9283 222.717 46.029C223.401 45.117 223.977 44.072 224.446 42.894C224.927 41.7033 225.276 40.4113 225.491 39.018V38.524ZM230.64 36.643C230.944 37.9097 231.33 39.1257 231.799 40.291C232.28 41.4563 232.844 42.5457 233.49 43.559C234.136 44.5723 234.883 45.478 235.732 46.276C236.593 47.0613 237.556 47.7073 238.62 48.214C238.43 48.366 238.221 48.5623 237.993 48.803C237.765 49.0437 237.55 49.3033 237.347 49.582C237.157 49.848 236.992 50.095 236.853 50.323C235.384 49.487 234.136 48.4103 233.11 47.093C232.084 45.763 231.229 44.243 230.545 42.533C229.861 40.823 229.291 38.9863 228.835 37.023L230.64 36.643ZM235.979 36.833L238.126 38.334C237.581 38.8913 237.005 39.4677 236.397 40.063C235.789 40.6583 235.181 41.222 234.573 41.754C233.978 42.286 233.414 42.7483 232.882 43.141L231.229 41.868C231.748 41.4373 232.293 40.937 232.863 40.367C233.446 39.797 234.009 39.208 234.554 38.6C235.099 37.9793 235.574 37.3903 235.979 36.833ZM242.477 46.181H254.865V47.967H242.477V46.181ZM242.971 43.122H255.72V45.022H242.971V43.122ZM240.121 49.259H256.936V51.216H240.121V49.259ZM247.398 41.963H249.754V50.608H247.398V41.963ZM244.206 38.866V39.892H252.642V38.866H244.206ZM244.206 36.263V37.251H252.642V36.263H244.206ZM241.964 34.534H254.998V41.621H241.964V34.534ZM242.952 41.431L245.175 42.077C244.896 42.6977 244.561 43.3057 244.168 43.901C243.775 44.4963 243.357 45.0537 242.914 45.573C242.471 46.0923 242.034 46.542 241.603 46.922C241.451 46.7827 241.261 46.6243 241.033 46.447C240.805 46.2697 240.571 46.0987 240.33 45.934C240.089 45.7567 239.874 45.6173 239.684 45.516C240.343 45.022 240.963 44.414 241.546 43.692C242.141 42.9573 242.61 42.2037 242.952 41.431Z" fill="black"/>
<path d="M203.155 200.749H221.845V203.374H203.155V200.749ZM211.051 196.213H213.823V202.135H211.051V196.213ZM207.565 205.621L210.505 206.377C210.071 207.553 209.56 208.708 208.972 209.842C208.398 210.976 207.782 212.04 207.124 213.034C206.466 214.014 205.794 214.868 205.108 215.596C204.912 215.414 204.653 215.211 204.331 214.987C204.023 214.763 203.708 214.539 203.386 214.315C203.064 214.091 202.784 213.909 202.546 213.769C203.246 213.139 203.911 212.39 204.541 211.522C205.171 210.654 205.745 209.716 206.263 208.708C206.781 207.686 207.215 206.657 207.565 205.621ZM214.495 206.608L217.057 205.579C217.519 206.251 217.995 206.965 218.485 207.721C218.975 208.477 219.451 209.247 219.913 210.031C220.375 210.801 220.788 211.55 221.152 212.278C221.53 213.006 221.831 213.671 222.055 214.273L219.199 215.512C219.003 214.938 218.73 214.28 218.38 213.538C218.044 212.796 217.659 212.033 217.225 211.249C216.805 210.451 216.357 209.653 215.881 208.855C215.419 208.057 214.957 207.308 214.495 206.608ZM224.239 197.221H242.782V199.678H224.239V197.221ZM228.187 207.175H239.128V209.443H228.187V207.175ZM228.271 212.278H238.897V214.609H228.271V212.278ZM232.009 198.103L235.096 198.733C234.942 199.307 234.781 199.888 234.613 200.476C234.445 201.05 234.284 201.603 234.13 202.135C233.99 202.653 233.843 203.115 233.689 203.521L231.295 202.912C231.407 202.45 231.512 201.946 231.61 201.4C231.708 200.84 231.792 200.273 231.862 199.699C231.946 199.125 231.995 198.593 232.009 198.103ZM226.339 202.072H240.892V215.869H238.204V204.403H228.901V215.869H226.339V202.072ZM212.416 223.565C211.842 224.363 211.114 225.189 210.232 226.043C209.364 226.897 208.398 227.716 207.334 228.5C206.284 229.284 205.185 229.984 204.037 230.6C203.925 230.39 203.778 230.159 203.596 229.907C203.428 229.655 203.239 229.41 203.029 229.172C202.833 228.934 202.644 228.724 202.462 228.542C203.666 227.968 204.821 227.261 205.927 226.421C207.033 225.567 208.02 224.678 208.888 223.754C209.77 222.83 210.47 221.941 210.988 221.087H213.613C214.187 221.885 214.817 222.648 215.503 223.376C216.189 224.104 216.924 224.776 217.708 225.392C218.492 226.008 219.297 226.561 220.123 227.051C220.949 227.541 221.782 227.954 222.622 228.29C222.3 228.612 221.999 228.976 221.719 229.382C221.439 229.788 221.18 230.18 220.942 230.558C220.144 230.138 219.332 229.655 218.506 229.109C217.694 228.563 216.91 227.982 216.154 227.366C215.398 226.736 214.698 226.099 214.054 225.455C213.41 224.811 212.864 224.181 212.416 223.565ZM207.166 227.45H217.729V229.655H207.166V227.45ZM204.646 231.734H220.207V233.918H204.646V231.734ZM203.596 238.118H221.446V240.281H203.596V238.118ZM211.051 228.332H213.718V239.21H211.051V228.332ZM205.969 234.716L207.985 233.876C208.251 234.226 208.51 234.611 208.762 235.031C209.028 235.451 209.266 235.864 209.476 236.27C209.686 236.676 209.84 237.04 209.938 237.362L207.775 238.328C207.691 238.006 207.551 237.635 207.355 237.215C207.159 236.781 206.942 236.347 206.704 235.913C206.466 235.479 206.221 235.08 205.969 234.716ZM216.637 233.897L219.052 234.779C218.632 235.423 218.198 236.067 217.75 236.711C217.302 237.341 216.889 237.88 216.511 238.328L214.621 237.53C214.859 237.194 215.104 236.823 215.356 236.417C215.608 235.997 215.846 235.57 216.07 235.136C216.294 234.688 216.483 234.275 216.637 233.897ZM226.843 234.779H240.535V236.753H226.843V234.779ZM227.389 231.398H241.48V233.498H227.389V231.398ZM224.239 238.181H242.824V240.344H224.239V238.181ZM232.282 230.117H234.886V239.672H232.282V230.117ZM228.754 226.694V227.828H238.078V226.694H228.754ZM228.754 223.817V224.909H238.078V223.817H228.754ZM226.276 221.906H240.682V229.739H226.276V221.906ZM227.368 229.529L229.825 230.243C229.517 230.929 229.146 231.601 228.712 232.259C228.278 232.917 227.816 233.533 227.326 234.107C226.836 234.681 226.353 235.178 225.877 235.598C225.709 235.444 225.499 235.269 225.247 235.073C224.995 234.877 224.736 234.688 224.47 234.506C224.204 234.31 223.966 234.156 223.756 234.044C224.484 233.498 225.17 232.826 225.814 232.028C226.472 231.216 226.99 230.383 227.368 229.529Z" fill="white"/>
<defs>
<linearGradient id="paint0_linear_2_240" x1="220.75" y1="26" x2="220.75" y2="412.5" gradientUnits="userSpaceOnUse">
<stop stop-color="#FFFBA7"/>
<stop offset="1" stop-color="#FDFAEC"/>
</linearGradient>
<linearGradient id="paint1_linear_2_240" x1="221" y1="64" x2="221" y2="374" gradientUnits="userSpaceOnUse">
<stop stop-color="#FFFDDC"/>
<stop offset="1" stop-color="#E3F8FF"/>
</linearGradient>
<linearGradient id="paint2_linear_2_240" x1="221" y1="109" x2="221" y2="329" gradientUnits="userSpaceOnUse">
<stop stop-color="#C8EEFF"/>
<stop offset="1" stop-color="#E1F3FF"/>
</linearGradient>
<linearGradient id="paint3_linear_2_240" x1="221" y1="154" x2="221" y2="284" gradientUnits="userSpaceOnUse">
<stop stop-color="#58C7FF"/>
<stop offset="1" stop-color="#9FE0FF"/>
</linearGradient>
</defs>
</svg>
