<svg width="442" height="452" viewBox="0 0 442 452" fill="none" xmlns="http://www.w3.org/2000/svg">
<rect width="442" height="452" fill="white"/>
<path d="M272.5 26H169L27.5 166.5V270.5L169 412.5H272.5L414 270.5V166.5L272.5 26Z" fill="url(#paint0_linear_2_36)" stroke="#FFFDE8"/>
<path d="M262.507 64H179.493L66 176.691V260.106L179.493 374H262.507L376 260.106V176.691L262.507 64Z" fill="url(#paint1_linear_2_36)" stroke="#FEFFEA"/>
<path d="M250.457 109H191.543L111 188.974V248.172L191.543 329H250.457L331 248.172V188.974L250.457 109Z" fill="url(#paint2_linear_2_36)" stroke="#DDF4FF"/>
<path d="M414.37 270.528L28 167" stroke="#888686"/>
<path d="M272.528 26L186.777 346.024L169 412.37" stroke="#888686" stroke-opacity="0.82"/>
<path d="M169 26L272.528 412.37" stroke="#888686"/>
<path d="M414.37 167L28 270.528" stroke="#888886"/>
<path d="M238.406 154H203.594L156 201.257V236.238L203.594 284H238.406L286 236.238V201.257L238.406 154Z" fill="url(#paint3_linear_2_36)" stroke="#B9E7FD"/>
<path d="M126.044 212.194H142.028V214.21H126.044V212.194ZM132.83 210.718H135.08V227.62H132.83V210.718ZM132.272 220.996L134.108 221.752C133.688 222.352 133.208 222.928 132.668 223.48C132.14 224.032 131.564 224.554 130.94 225.046C130.328 225.526 129.686 225.964 129.014 226.36C128.354 226.768 127.688 227.116 127.016 227.404C126.896 227.224 126.752 227.02 126.584 226.792C126.416 226.564 126.236 226.342 126.044 226.126C125.852 225.91 125.678 225.73 125.522 225.586C126.182 225.358 126.836 225.082 127.484 224.758C128.132 224.422 128.756 224.056 129.356 223.66C129.956 223.252 130.502 222.826 130.994 222.382C131.498 221.926 131.924 221.464 132.272 220.996ZM135.692 221.068C136.052 221.524 136.484 221.974 136.988 222.418C137.504 222.85 138.062 223.27 138.662 223.678C139.274 224.074 139.91 224.434 140.57 224.758C141.23 225.07 141.89 225.34 142.55 225.568C142.382 225.712 142.196 225.892 141.992 226.108C141.8 226.336 141.614 226.564 141.434 226.792C141.266 227.032 141.122 227.248 141.002 227.44C140.33 227.164 139.664 226.822 139.004 226.414C138.344 226.018 137.702 225.58 137.078 225.1C136.466 224.608 135.89 224.086 135.35 223.534C134.822 222.982 134.348 222.412 133.928 221.824L135.692 221.068ZM129.662 219.448V220.546H138.392V219.448H129.662ZM129.662 216.856V217.936H138.392V216.856H129.662ZM127.556 215.236H140.606V222.166H127.556V215.236Z" fill="black"/>
<path d="M82.744 213.856L84.552 214.432V222.752H82.744V213.856ZM93.896 213.952H95.752V222.624C95.752 223.051 95.704 223.413 95.608 223.712C95.512 224 95.3253 224.224 95.048 224.384C94.7707 224.544 94.44 224.645 94.056 224.688C93.6827 224.731 93.2453 224.752 92.744 224.752C92.7227 224.571 92.6747 224.363 92.6 224.128C92.5253 223.893 92.44 223.659 92.344 223.424C92.2587 223.189 92.168 222.987 92.072 222.816C92.4027 222.827 92.7173 222.837 93.016 222.848C93.3147 222.848 93.5173 222.848 93.624 222.848C93.7307 222.848 93.8 222.827 93.832 222.784C93.8747 222.741 93.896 222.672 93.896 222.576V213.952ZM81.496 222.432C82.1787 222.293 83 222.112 83.96 221.888C84.92 221.653 85.896 221.419 86.888 221.184L87.096 222.8C86.2107 223.045 85.3147 223.285 84.408 223.52C83.5013 223.755 82.6747 223.973 81.928 224.176L81.496 222.432ZM86.648 215.76H88.44V220.048C88.44 220.763 88.3813 221.472 88.264 222.176C88.1573 222.869 87.944 223.541 87.624 224.192C87.304 224.843 86.8293 225.445 86.2 226C85.5707 226.555 84.7333 227.04 83.688 227.456C83.6133 227.317 83.5067 227.152 83.368 226.96C83.24 226.779 83.096 226.603 82.936 226.432C82.7867 226.261 82.648 226.123 82.52 226.016C83.4373 225.653 84.168 225.248 84.712 224.8C85.2667 224.341 85.6827 223.856 85.96 223.344C86.2373 222.821 86.4187 222.283 86.504 221.728C86.6 221.163 86.648 220.592 86.648 220.016V215.76ZM89.704 213.952H94.872V215.696H91.512V227.44H89.704V213.952ZM87.256 212.432L88.968 213.648C88.4667 213.936 87.9387 214.224 87.384 214.512C86.8293 214.789 86.28 215.051 85.736 215.296C85.2027 215.541 84.696 215.749 84.216 215.92L82.984 214.864C83.432 214.661 83.9173 214.427 84.44 214.16C84.9627 213.883 85.4693 213.595 85.96 213.296C86.4613 212.987 86.8933 212.699 87.256 212.432Z" fill="black"/>
<path d="M36.628 177.598H51.315V179.859H36.628V177.598ZM35.526 190.537H52.569V192.798H35.526V190.537ZM41.91 178.396H44.513C44.323 179.536 44.114 180.72 43.886 181.949C43.658 183.178 43.4237 184.4 43.183 185.616C42.9423 186.832 42.7017 187.985 42.461 189.074C42.233 190.163 42.0113 191.132 41.796 191.981H39.231C39.459 191.094 39.6997 190.1 39.953 188.998C40.2063 187.883 40.447 186.724 40.675 185.521C40.9157 184.305 41.1437 183.089 41.359 181.873C41.5743 180.657 41.758 179.498 41.91 178.396ZM37.255 183.165H49.586V191.601H47.211V185.407H37.255V183.165ZM35.45 203.41H52.626V205.481H35.45V203.41ZM36.799 200.256H51.315V202.251H36.799V200.256ZM39.934 198.85H42.252V204.417H39.934V198.85ZM45.805 198.85H48.161V204.417H45.805V198.85ZM42.841 204.588H45.197V212.378H42.841V204.588ZM39.535 210.516V211.618H48.598V210.516H39.535ZM39.535 207.989V209.053H48.598V207.989H39.535ZM37.35 206.412H50.897V213.176H37.35V206.412ZM45.368 214.392L46.641 212.948C47.3377 213.176 48.0407 213.423 48.75 213.689C49.472 213.955 50.156 214.215 50.802 214.468C51.4607 214.721 52.0243 214.949 52.493 215.152L50.859 216.672C50.441 216.469 49.9343 216.235 49.339 215.969C48.7437 215.716 48.104 215.45 47.42 215.171C46.736 214.892 46.052 214.633 45.368 214.392ZM40.998 213.024L42.936 214.373C42.4293 214.69 41.834 214.994 41.15 215.285C40.466 215.589 39.763 215.868 39.041 216.121C38.319 216.374 37.635 216.59 36.989 216.767C36.799 216.526 36.5457 216.248 36.229 215.931C35.925 215.627 35.6463 215.367 35.393 215.152C36.0643 215 36.7483 214.81 37.445 214.582C38.1543 214.341 38.8257 214.082 39.459 213.803C40.0923 213.524 40.6053 213.265 40.998 213.024ZM36.628 227.759H51.41V230.001H36.628V227.759ZM35.374 236.651H52.683V238.893H35.374V236.651ZM42.746 221.888H45.197V238.19H42.746V221.888ZM37.977 257.181H50.365V258.967H37.977V257.181ZM38.471 254.122H51.22V256.022H38.471V254.122ZM35.621 260.259H52.436V262.216H35.621V260.259ZM42.898 252.963H45.254V261.608H42.898V252.963ZM39.706 249.866V250.892H48.142V249.866H39.706ZM39.706 247.263V248.251H48.142V247.263H39.706ZM37.464 245.534H50.498V252.621H37.464V245.534ZM38.452 252.431L40.675 253.077C40.3963 253.698 40.0607 254.306 39.668 254.901C39.2753 255.496 38.8573 256.054 38.414 256.573C37.9707 257.092 37.5337 257.542 37.103 257.922C36.951 257.783 36.761 257.624 36.533 257.447C36.305 257.27 36.0707 257.099 35.83 256.934C35.5893 256.757 35.374 256.617 35.184 256.516C35.8427 256.022 36.4633 255.414 37.046 254.692C37.6413 253.957 38.11 253.204 38.452 252.431Z" fill="black"/>
<path d="M394.618 176.116H397.107C397.094 177.623 397.063 179.093 397.012 180.524C396.961 181.943 396.835 183.298 396.632 184.59C396.429 185.869 396.1 187.073 395.644 188.2C395.188 189.315 394.548 190.341 393.725 191.278C392.914 192.203 391.863 193.013 390.571 193.71C390.47 193.52 390.324 193.305 390.134 193.064C389.944 192.836 389.741 192.608 389.526 192.38C389.323 192.165 389.121 191.994 388.918 191.867C390.121 191.246 391.084 190.531 391.806 189.72C392.541 188.909 393.104 188.016 393.497 187.041C393.89 186.053 394.162 184.983 394.314 183.83C394.466 182.677 394.548 181.455 394.561 180.163C394.586 178.871 394.605 177.522 394.618 176.116ZM389.887 180.524H401.572V182.823H389.887V180.524ZM400.318 180.524H402.693V190.29C402.693 190.695 402.725 190.955 402.788 191.069C402.851 191.17 402.997 191.221 403.225 191.221C403.276 191.221 403.358 191.221 403.472 191.221C403.586 191.221 403.713 191.221 403.852 191.221C403.991 191.221 404.118 191.221 404.232 191.221C404.359 191.221 404.447 191.221 404.498 191.221C404.663 191.221 404.783 191.145 404.859 190.993C404.935 190.841 404.992 190.556 405.03 190.138C405.068 189.72 405.1 189.112 405.125 188.314C405.315 188.453 405.53 188.586 405.771 188.713C406.024 188.84 406.284 188.96 406.55 189.074C406.816 189.175 407.057 189.251 407.272 189.302C407.209 190.328 407.088 191.145 406.911 191.753C406.734 192.348 406.474 192.773 406.132 193.026C405.79 193.292 405.328 193.425 404.745 193.425C404.644 193.425 404.504 193.425 404.327 193.425C404.15 193.425 403.96 193.425 403.757 193.425C403.554 193.425 403.364 193.425 403.187 193.425C403.022 193.425 402.896 193.425 402.807 193.425C402.186 193.425 401.692 193.33 401.325 193.14C400.97 192.963 400.711 192.646 400.546 192.19C400.394 191.734 400.318 191.094 400.318 190.271V180.524ZM396.784 211.39H399.14V216.71H396.784V211.39ZM389.355 210.592C390.28 210.592 391.331 210.592 392.509 210.592C393.687 210.579 394.941 210.567 396.271 210.554C397.601 210.529 398.969 210.51 400.375 210.497C401.781 210.472 403.174 210.453 404.555 210.44L404.441 212.245C403.086 212.296 401.718 212.34 400.337 212.378C398.969 212.416 397.626 212.454 396.309 212.492C395.004 212.517 393.763 212.549 392.585 212.587C391.42 212.612 390.368 212.631 389.431 212.644L389.355 210.592ZM396.347 205.386L398.456 206.222C397.873 206.767 397.253 207.292 396.594 207.799C395.948 208.293 395.346 208.711 394.789 209.053L393.041 208.236C393.408 207.983 393.795 207.698 394.2 207.381C394.618 207.052 395.011 206.716 395.378 206.374C395.745 206.019 396.068 205.69 396.347 205.386ZM400.394 206.545L402.636 207.457C401.889 208.04 401.078 208.61 400.204 209.167C399.343 209.724 398.481 210.25 397.62 210.744C396.759 211.238 395.948 211.669 395.188 212.036L393.459 211.105C394.232 210.725 395.042 210.275 395.891 209.756C396.752 209.237 397.576 208.698 398.361 208.141C399.146 207.571 399.824 207.039 400.394 206.545ZM391.255 208.369L392.889 207.039C393.408 207.254 393.947 207.501 394.504 207.78C395.074 208.046 395.619 208.318 396.138 208.597C396.657 208.863 397.107 209.11 397.487 209.338L395.834 210.839C395.479 210.598 395.036 210.332 394.504 210.041C393.985 209.737 393.44 209.439 392.87 209.148C392.313 208.857 391.774 208.597 391.255 208.369ZM400.28 213.917L402.256 212.872C402.75 213.113 403.263 213.391 403.795 213.708C404.327 214.012 404.84 214.322 405.334 214.639C405.841 214.943 406.271 215.215 406.626 215.456L404.593 216.653C404.264 216.387 403.852 216.089 403.358 215.76C402.864 215.443 402.345 215.12 401.8 214.791C401.268 214.449 400.761 214.158 400.28 213.917ZM393.345 212.91L395.511 213.746C395.131 214.113 394.681 214.481 394.162 214.848C393.655 215.215 393.13 215.557 392.585 215.874C392.053 216.191 391.54 216.469 391.046 216.71C390.907 216.571 390.723 216.4 390.495 216.197C390.28 216.007 390.052 215.817 389.811 215.627C389.583 215.45 389.38 215.304 389.203 215.19C389.963 214.911 390.723 214.569 391.483 214.164C392.243 213.759 392.864 213.341 393.345 212.91ZM400.945 209.433L402.902 208.578C403.371 208.945 403.858 209.357 404.365 209.813C404.884 210.269 405.372 210.725 405.828 211.181C406.284 211.637 406.658 212.055 406.949 212.435L404.821 213.385C404.568 213.018 404.226 212.606 403.795 212.15C403.377 211.681 402.915 211.213 402.408 210.744C401.901 210.263 401.414 209.826 400.945 209.433ZM394.333 200.522H397.905V202.327H394.333V200.522ZM398.589 198.85H400.85V203.695C400.85 203.999 400.901 204.195 401.002 204.284C401.116 204.36 401.363 204.398 401.743 204.398C401.832 204.398 401.977 204.398 402.18 204.398C402.383 204.398 402.604 204.398 402.845 204.398C403.086 204.398 403.314 204.398 403.529 204.398C403.744 204.398 403.903 204.398 404.004 204.398C404.219 204.398 404.378 204.366 404.479 204.303C404.593 204.227 404.675 204.088 404.726 203.885C404.777 203.67 404.815 203.359 404.84 202.954C405.068 203.106 405.378 203.258 405.771 203.41C406.164 203.549 406.518 203.651 406.835 203.714C406.746 204.411 406.607 204.955 406.417 205.348C406.227 205.728 405.961 205.994 405.619 206.146C405.277 206.298 404.815 206.374 404.232 206.374C404.131 206.374 403.985 206.374 403.795 206.374C403.618 206.374 403.415 206.374 403.187 206.374C402.959 206.374 402.725 206.374 402.484 206.374C402.256 206.374 402.047 206.374 401.857 206.374C401.68 206.374 401.547 206.374 401.458 206.374C400.685 206.374 400.09 206.292 399.672 206.127C399.267 205.962 398.982 205.69 398.817 205.31C398.665 204.917 398.589 204.385 398.589 203.714V198.85ZM389.127 204.664C389.862 204.601 390.71 204.518 391.673 204.417C392.648 204.303 393.674 204.183 394.751 204.056C395.84 203.929 396.923 203.803 398 203.676L398.057 205.462C397.031 205.614 395.992 205.766 394.941 205.918C393.89 206.057 392.883 206.197 391.92 206.336C390.97 206.463 390.102 206.583 389.317 206.697L389.127 204.664ZM404.612 199.762L406.303 201.358C405.695 201.624 405.036 201.871 404.327 202.099C403.63 202.314 402.915 202.517 402.18 202.707C401.445 202.884 400.736 203.043 400.052 203.182C400.014 202.954 399.925 202.682 399.786 202.365C399.659 202.036 399.533 201.763 399.406 201.548C400.027 201.383 400.66 201.206 401.306 201.016C401.952 200.826 402.56 200.623 403.13 200.408C403.7 200.193 404.194 199.977 404.612 199.762ZM393.402 198.85H395.511V205.31L393.402 205.462V198.85ZM390.305 200.256H392.262V205.481L390.305 205.652V200.256ZM391.863 225.631L394.162 226.144C394.061 226.929 393.915 227.696 393.725 228.443C393.548 229.19 393.294 229.887 392.965 230.533C392.636 231.166 392.199 231.711 391.654 232.167L389.583 230.875C390.052 230.482 390.432 230.02 390.723 229.488C391.027 228.943 391.268 228.348 391.445 227.702C391.635 227.043 391.774 226.353 391.863 225.631ZM403.529 225.612L406.056 226.562C405.727 227.17 405.385 227.797 405.03 228.443C404.675 229.076 404.321 229.684 403.966 230.267C403.624 230.837 403.288 231.337 402.959 231.768L401.002 230.894C401.293 230.425 401.597 229.887 401.914 229.279C402.243 228.671 402.547 228.05 402.826 227.417C403.105 226.771 403.339 226.169 403.529 225.612ZM397.905 222.116H399.14V228.082C399.14 228.551 399.191 229.064 399.292 229.621C399.406 230.178 399.583 230.748 399.824 231.331C400.065 231.914 400.381 232.496 400.774 233.079C401.179 233.662 401.667 234.225 402.237 234.77C402.807 235.315 403.472 235.828 404.232 236.309C405.005 236.778 405.885 237.196 406.873 237.563C406.696 237.728 406.506 237.937 406.303 238.19C406.1 238.443 405.904 238.703 405.714 238.969C405.537 239.235 405.391 239.476 405.277 239.691C404.365 239.324 403.542 238.887 402.807 238.38C402.072 237.873 401.42 237.341 400.85 236.784C400.293 236.214 399.811 235.644 399.406 235.074C399.001 234.504 398.671 233.966 398.418 233.459C398.177 232.952 398 232.509 397.886 232.129C397.797 232.522 397.633 232.971 397.392 233.478C397.164 233.985 396.854 234.523 396.461 235.093C396.081 235.65 395.619 236.208 395.074 236.765C394.542 237.322 393.915 237.854 393.193 238.361C392.484 238.868 391.686 239.311 390.799 239.691C390.698 239.514 390.552 239.305 390.362 239.064C390.172 238.823 389.969 238.583 389.754 238.342C389.539 238.101 389.349 237.905 389.184 237.753C390.337 237.322 391.331 236.803 392.167 236.195C393.016 235.574 393.725 234.916 394.295 234.219C394.865 233.522 395.321 232.813 395.663 232.091C396.018 231.356 396.271 230.653 396.423 229.982C396.588 229.298 396.67 228.665 396.67 228.082V222.116H397.905ZM391.977 257.181H404.365V258.967H391.977V257.181ZM392.471 254.122H405.22V256.022H392.471V254.122ZM389.621 260.259H406.436V262.216H389.621V260.259ZM396.898 252.963H399.254V261.608H396.898V252.963ZM393.706 249.866V250.892H402.142V249.866H393.706ZM393.706 247.263V248.251H402.142V247.263H393.706ZM391.464 245.534H404.498V252.621H391.464V245.534ZM392.452 252.431L394.675 253.077C394.396 253.698 394.061 254.306 393.668 254.901C393.275 255.496 392.857 256.054 392.414 256.573C391.971 257.092 391.534 257.542 391.103 257.922C390.951 257.783 390.761 257.624 390.533 257.447C390.305 257.27 390.071 257.099 389.83 256.934C389.589 256.757 389.374 256.617 389.184 256.516C389.843 256.022 390.463 255.414 391.046 254.692C391.641 253.957 392.11 253.204 392.452 252.431Z" fill="black"/>
<path d="M148.246 170.277L159.549 158.974L160.974 160.4L149.672 171.702L148.246 170.277ZM156.52 172.95L162.209 167.26L163.393 168.444L157.703 174.133L156.52 172.95ZM158.276 175.241L164.513 169.004L165.735 170.226L159.498 176.462L158.276 175.241ZM159.192 171.448L160.631 170.009L165.111 174.49L163.673 175.928L159.192 171.448ZM151.11 172.173L160.325 162.958L161.725 164.358L154.038 172.046L161.127 179.135L159.6 180.663L151.11 172.173ZM159.892 163.391L161.458 161.825L168.42 168.788C168.785 169.152 169.014 169.483 169.107 169.78C169.209 170.086 169.184 170.417 169.031 170.773C168.878 171.146 168.62 171.533 168.255 171.931C167.907 172.33 167.474 172.788 166.956 173.306C166.727 173.145 166.439 172.992 166.091 172.848C165.752 172.695 165.442 172.58 165.162 172.504C165.382 172.3 165.607 172.093 165.836 171.88C166.065 171.668 166.269 171.473 166.447 171.295C166.625 171.1 166.744 170.972 166.804 170.913C166.922 170.794 166.986 170.697 166.995 170.62C166.995 170.535 166.948 170.446 166.855 170.353L159.892 163.391ZM155.654 171.117L156.507 169.551C156.863 169.602 157.237 169.695 157.627 169.831C158.026 169.958 158.357 170.086 158.62 170.213L157.767 171.906C157.512 171.753 157.186 171.605 156.787 171.46C156.388 171.316 156.01 171.202 155.654 171.117ZM158.912 167.197L160.554 166.267C160.69 166.743 160.817 167.209 160.936 167.667C161.055 168.109 161.144 168.512 161.203 168.877L159.791 169.628C159.731 169.381 159.651 169.114 159.549 168.826C159.455 168.529 159.354 168.24 159.243 167.96C159.133 167.68 159.023 167.426 158.912 167.197ZM152.116 164.473L153.783 162.805L158.123 167.146L156.456 168.813L152.116 164.473ZM161 157.523L172.302 146.221L173.728 147.646L162.425 158.949L161 157.523ZM164.754 151.681L166.345 150.09L178.297 162.042L176.706 163.633L164.754 151.681ZM171.628 159.343L173.46 158.58C173.588 159.301 173.656 160.048 173.664 160.82C173.681 161.584 173.643 162.36 173.549 163.149C173.456 163.921 173.312 164.685 173.117 165.44C172.939 166.195 172.714 166.912 172.442 167.591C172.23 167.549 171.984 167.506 171.704 167.464C171.424 167.421 171.14 167.392 170.851 167.375C170.563 167.358 170.312 167.354 170.1 167.362C170.406 166.734 170.673 166.076 170.902 165.389C171.123 164.693 171.305 163.993 171.449 163.289C171.585 162.576 171.67 161.889 171.704 161.227C171.738 160.548 171.712 159.92 171.628 159.343ZM174.097 156.976C174.674 157.044 175.297 157.057 175.968 157.014C176.638 156.955 177.33 156.857 178.042 156.721C178.755 156.569 179.459 156.374 180.155 156.136C180.843 155.89 181.5 155.614 182.128 155.309C182.111 155.529 182.107 155.788 182.115 156.085C182.141 156.382 182.171 156.675 182.204 156.963C182.255 157.252 182.306 157.506 182.357 157.727C181.687 158.007 180.974 158.236 180.219 158.414C179.472 158.601 178.709 158.745 177.928 158.847C177.147 158.932 176.371 158.97 175.599 158.962C174.835 158.945 174.097 158.877 173.384 158.758L174.097 156.976ZM168.687 160.094L169.464 160.871L175.637 154.698L174.86 153.921L168.687 160.094ZM166.855 158.262L167.618 159.025L173.791 152.852L173.028 152.088L166.855 158.262ZM164.22 158.605L173.448 149.377L178.348 154.278L169.12 163.505L164.22 158.605Z" fill="black"/>
<path d="M113.785 145.701L122.248 137.238L123.56 138.551L115.098 147.013L113.785 145.701ZM117.847 149.876L126.626 141.096L127.86 142.329L119.08 151.109L117.847 149.876ZM117.179 146.47L123.345 140.304L124.567 141.526L118.401 147.692L117.179 146.47ZM113.005 146.482L114.362 145.124L117.802 148.563C118.284 149.046 118.797 149.589 119.34 150.192C119.883 150.796 120.415 151.441 120.936 152.127C121.456 152.813 121.916 153.522 122.316 154.254C122.723 154.978 123.025 155.702 123.221 156.426C123.063 156.434 122.863 156.468 122.621 156.528C122.388 156.581 122.15 156.645 121.909 156.72C121.675 156.788 121.479 156.864 121.32 156.947C121.147 156.275 120.879 155.616 120.517 154.967C120.155 154.318 119.74 153.692 119.273 153.089C118.805 152.485 118.326 151.916 117.836 151.38C117.345 150.845 116.878 150.355 116.433 149.91L113.005 146.482ZM119.827 148.846L121.151 147.522L125.427 151.799L124.103 153.123L119.827 148.846ZM122.814 154.005C123.146 153.583 123.515 153.093 123.922 152.534C124.33 151.961 124.76 151.358 125.212 150.724C125.672 150.083 126.129 149.446 126.581 148.812L127.848 149.921C127.449 150.517 127.037 151.124 126.615 151.742C126.193 152.361 125.782 152.953 125.382 153.519C124.997 154.084 124.639 154.609 124.307 155.091L122.814 154.005ZM123.108 145.565C124.036 146.131 124.96 146.527 125.88 146.753C126.8 146.979 127.731 147.006 128.674 146.832C129.625 146.651 130.605 146.236 131.616 145.588C131.616 145.784 131.631 146.01 131.661 146.267C131.699 146.516 131.744 146.764 131.797 147.013C131.857 147.27 131.921 147.492 131.989 147.681C130.835 148.337 129.723 148.733 128.652 148.869C127.581 148.989 126.51 148.884 125.438 148.552C124.367 148.22 123.247 147.703 122.078 147.002L123.108 145.565ZM126.457 143.755L128.425 143.348C128.342 143.823 128.241 144.317 128.12 144.83C128.007 145.335 127.882 145.829 127.746 146.312C127.611 146.78 127.479 147.213 127.35 147.613L125.767 147.839C125.88 147.439 125.982 146.998 126.072 146.516C126.17 146.025 126.253 145.543 126.321 145.067C126.389 144.577 126.434 144.14 126.457 143.755ZM138.987 145.072L126.146 132.231L127.232 131.145L140.073 143.986L138.987 145.072ZM137.375 129.488L144.084 122.779L145.419 124.114L138.71 130.823L137.375 129.488ZM133.788 125.947L141.233 118.503L146.754 124.024L145.351 125.427L141.165 121.24L135.123 127.282L133.788 125.947ZM132.974 126.762L134.388 125.347L141.674 132.633C141.968 132.927 142.221 133.12 142.432 133.21C142.636 133.293 142.858 133.259 143.099 133.109C143.348 132.95 143.68 132.664 144.095 132.249C144.216 132.128 144.404 131.939 144.661 131.683C144.917 131.427 145.204 131.14 145.521 130.823C145.845 130.499 146.169 130.174 146.494 129.85C146.818 129.526 147.108 129.235 147.365 128.979C147.629 128.715 147.821 128.523 147.942 128.402C148.319 128.025 148.56 127.701 148.666 127.429C148.771 127.142 148.749 126.833 148.598 126.501C148.44 126.162 148.149 125.721 147.727 125.178C147.923 125.132 148.138 125.068 148.372 124.985C148.598 124.895 148.824 124.789 149.05 124.668C149.277 124.548 149.469 124.438 149.627 124.34C150.035 124.868 150.348 125.355 150.566 125.8C150.778 126.237 150.88 126.656 150.872 127.056C150.872 127.448 150.748 127.851 150.499 128.266C150.265 128.681 149.903 129.134 149.412 129.624C149.322 129.714 149.171 129.865 148.96 130.076C148.756 130.28 148.519 130.518 148.247 130.789C147.983 131.053 147.708 131.328 147.421 131.615C147.135 131.902 146.859 132.177 146.595 132.441C146.331 132.705 146.098 132.939 145.894 133.142C145.698 133.339 145.555 133.482 145.464 133.572C144.913 134.123 144.423 134.545 143.993 134.84C143.563 135.134 143.152 135.303 142.76 135.349C142.368 135.394 141.972 135.307 141.572 135.088C141.165 134.862 140.724 134.511 140.248 134.036L132.974 126.762Z" fill="black"/>
<path d="M77.2032 130.304L89.1604 118.347L90.8397 120.026L78.8826 131.983L77.2032 130.304ZM79.3528 122.35L81.1262 120.577L84.9149 124.365L83.1415 126.139L79.3528 122.35ZM83.1415 130.599L85.506 129.202C85.9807 130.232 86.3928 131.298 86.7421 132.4C87.1003 133.492 87.3869 134.567 87.6019 135.624C87.8079 136.672 87.9243 137.648 87.9512 138.553C87.7094 138.562 87.4138 138.598 87.0645 138.66C86.7241 138.714 86.3793 138.772 86.03 138.835C85.6807 138.898 85.3851 138.96 85.1433 139.023C85.1881 138.172 85.1343 137.268 84.9821 136.309C84.8298 135.351 84.5969 134.383 84.2835 133.407C83.961 132.422 83.5804 131.486 83.1415 130.599ZM88.2065 126.797L89.1872 124.5C89.9127 124.634 90.674 124.786 91.4712 124.957C92.2683 125.127 93.0655 125.315 93.8626 125.521C94.6508 125.718 95.3942 125.933 96.0928 126.166C96.8004 126.39 97.4184 126.623 97.9469 126.864L96.9124 129.484C96.4198 129.242 95.8241 128.996 95.1255 128.745C94.4359 128.486 93.7014 128.244 92.9222 128.02C92.1429 127.778 91.3458 127.554 90.5307 127.348C89.7246 127.133 88.9499 126.949 88.2065 126.797ZM88.4349 114.558L100.298 102.695L101.87 104.267L90.0068 116.13L88.4349 114.558ZM97.3289 118.4L104.329 111.401L105.779 112.852L98.7798 119.851L97.3289 118.4ZM100.647 121.611L107.445 114.813L108.937 116.304L102.139 123.103L100.647 121.611ZM93.9701 110.151L96.3481 108.579C96.6168 109.045 96.8855 109.52 97.1542 110.003C97.414 110.478 97.6647 110.935 97.9066 111.374C98.1484 111.795 98.3499 112.184 98.5111 112.543L96.5899 113.685C96.366 113.317 96.1108 112.928 95.8241 112.516C95.5286 112.095 95.2196 111.678 94.8971 111.266C94.5836 110.845 94.2746 110.474 93.9701 110.151ZM92.8819 116.318L102.192 107.007L111.019 115.834L109.299 117.554L101.964 110.218L96.0122 116.17L103.348 123.506L101.709 125.145L92.8819 116.318ZM108.601 96.1116C108.744 96.9893 108.807 97.9835 108.789 99.0941C108.78 100.196 108.686 101.338 108.507 102.52C108.337 103.693 108.081 104.844 107.741 105.973C107.535 105.91 107.293 105.856 107.016 105.812C106.747 105.758 106.469 105.722 106.183 105.704C105.905 105.677 105.65 105.664 105.417 105.664C105.82 104.526 106.106 103.335 106.277 102.09C106.438 100.836 106.501 99.636 106.465 98.4896C106.438 97.3341 106.317 96.3176 106.102 95.4398L107.781 93.7604C108.659 93.9037 109.55 93.9888 110.455 94.0157C111.36 94.0426 112.26 94.0023 113.155 93.8948C114.051 93.7873 114.92 93.6261 115.762 93.4111C116.604 93.1962 117.401 92.9275 118.153 92.605C118.153 93.017 118.193 93.4425 118.274 93.8813C118.355 94.3202 118.44 94.7367 118.529 95.1308C117.75 95.3726 116.922 95.5831 116.044 95.7622C115.175 95.9324 114.302 96.0623 113.424 96.1519C112.537 96.2325 111.682 96.2728 110.858 96.2728C110.034 96.2728 109.282 96.219 108.601 96.1116ZM107.728 101.956L114.485 95.198L115.896 96.6087L109.138 103.366L107.728 101.956ZM108.856 106.309L118.811 96.3534L120.209 97.7506L110.253 107.706L108.856 106.309ZM112.269 111.065L123.688 99.645L125.072 101.029L113.652 112.449L112.269 111.065ZM110.777 100.035L112.484 98.3283L119.443 105.288L117.737 106.994L110.777 100.035ZM111.61 107.37L112.363 105.543C112.757 105.597 113.169 105.677 113.599 105.785C114.038 105.883 114.454 105.995 114.848 106.121C115.242 106.246 115.574 106.38 115.842 106.524L115.077 108.526C114.817 108.373 114.49 108.225 114.096 108.082C113.693 107.93 113.276 107.791 112.846 107.666C112.416 107.54 112.004 107.442 111.61 107.37ZM117.911 100.021L120.021 99.0404C120.164 99.7211 120.298 100.411 120.424 101.109C120.54 101.799 120.621 102.408 120.666 102.937L118.946 103.635C118.883 103.268 118.803 102.874 118.704 102.453C118.597 102.023 118.476 101.598 118.341 101.177C118.198 100.747 118.055 100.362 117.911 100.021ZM125.005 94.056L133.765 85.2964L135.028 86.5593L126.268 95.3189L125.005 94.056ZM123.191 91.5437L132.206 82.5287L133.55 83.8722L124.535 92.8872L123.191 91.5437ZM125.516 97.8984L137.406 86.0084L138.789 87.3922L126.899 99.2822L125.516 97.8984ZM125.502 87.5938L127.168 85.9278L133.281 92.0407L131.615 93.7067L125.502 87.5938ZM121.055 87.6609L121.781 88.3864L127.746 82.4213L127.02 81.6958L121.055 87.6609ZM119.215 85.8203L119.913 86.519L125.878 80.5538L125.18 79.8552L119.215 85.8203ZM116.407 86.1831L125.623 76.9666L130.634 81.9779L121.418 91.1943L116.407 86.1831ZM121.982 90.3614L124.011 89.2463C124.253 89.8822 124.445 90.5495 124.589 91.2481C124.732 91.9467 124.83 92.6364 124.884 93.3171C124.938 93.9978 124.947 94.6248 124.911 95.198C124.705 95.2069 124.459 95.2293 124.172 95.2652C123.885 95.301 123.599 95.3458 123.312 95.3995C123.017 95.4443 122.766 95.498 122.56 95.5607C122.676 94.7457 122.685 93.8769 122.587 92.9543C122.488 92.0139 122.287 91.1496 121.982 90.3614Z" fill="black"/>
<path d="M269.936 145.246L281.239 156.549L279.813 157.974L268.511 146.672L269.936 145.246ZM267.264 153.52L272.953 159.209L271.769 160.393L266.08 154.703L267.264 153.52ZM264.973 155.276L271.209 161.513L269.987 162.735L263.751 156.498L264.973 155.276ZM268.765 156.192L270.204 157.631L265.724 162.111L264.285 160.673L268.765 156.192ZM268.04 148.11L277.255 157.325L275.855 158.725L268.167 151.038L261.078 158.127L259.55 156.6L268.04 148.11ZM276.822 156.892L278.388 158.458L271.426 165.42C271.061 165.785 270.73 166.014 270.433 166.107C270.127 166.209 269.796 166.184 269.44 166.031C269.067 165.878 268.681 165.62 268.282 165.255C267.883 164.907 267.425 164.474 266.907 163.956C267.068 163.727 267.221 163.439 267.365 163.091C267.518 162.752 267.633 162.442 267.709 162.162C267.913 162.382 268.121 162.607 268.333 162.836C268.545 163.065 268.74 163.269 268.918 163.447C269.113 163.625 269.241 163.744 269.3 163.804C269.419 163.922 269.516 163.986 269.593 163.995C269.678 163.995 269.767 163.948 269.86 163.855L276.822 156.892ZM269.096 152.654L270.662 153.507C270.611 153.863 270.518 154.237 270.382 154.627C270.255 155.026 270.127 155.357 270 155.62L268.307 154.767C268.46 154.512 268.609 154.186 268.753 153.787C268.897 153.388 269.012 153.01 269.096 152.654ZM273.017 155.912L273.946 157.554C273.471 157.69 273.004 157.817 272.546 157.936C272.104 158.055 271.701 158.144 271.337 158.203L270.586 156.791C270.832 156.731 271.099 156.651 271.387 156.549C271.684 156.455 271.973 156.354 272.253 156.243C272.533 156.133 272.788 156.023 273.017 155.912ZM275.74 149.116L277.408 150.783L273.068 155.123L271.4 153.456L275.74 149.116ZM275.346 168.093L283.975 176.723L282.563 178.135L273.933 169.506L275.346 168.093ZM280.59 160.889L291.09 171.39L282.753 179.726L281.201 178.174L288.125 171.25L280.666 163.791L273.717 170.74L272.227 169.251L280.59 160.889ZM285.757 167.227L287.221 168.691L284.93 170.982C284.769 171.143 284.68 171.258 284.663 171.326C284.663 171.394 284.726 171.491 284.854 171.619C284.879 171.644 284.934 171.699 285.019 171.784C285.112 171.877 285.201 171.967 285.286 172.051C285.38 172.145 285.448 172.213 285.49 172.255C285.566 172.331 285.634 172.374 285.694 172.382C285.77 172.391 285.863 172.357 285.974 172.28C286.092 172.213 286.254 172.085 286.457 171.899C286.474 172.051 286.517 172.238 286.585 172.459C286.669 172.679 286.763 172.9 286.865 173.121C286.983 173.341 287.098 173.532 287.208 173.693C286.759 174.024 286.372 174.241 286.05 174.342C285.728 174.444 285.431 174.444 285.159 174.342C284.896 174.249 284.62 174.058 284.332 173.77C284.264 173.702 284.183 173.621 284.09 173.528C283.997 173.434 283.895 173.333 283.784 173.222C283.683 173.121 283.585 173.023 283.492 172.93C283.398 172.836 283.322 172.76 283.263 172.7C282.855 172.293 282.592 171.928 282.473 171.606C282.363 171.292 282.393 170.974 282.563 170.651C282.732 170.329 283.029 169.956 283.453 169.531L285.757 167.227ZM282.932 157.529L294.374 168.971L292.898 170.448L281.455 159.005L282.932 157.529ZM285.286 162.124L286.788 163.625L284.243 166.171L282.741 164.669L285.286 162.124ZM288.074 164.911L289.614 166.451L287.068 168.997L285.528 167.457L288.074 164.911ZM283.339 164.224L284.764 165.649L283.504 166.909C283.08 167.334 282.588 167.715 282.028 168.055C281.468 168.394 280.832 168.615 280.119 168.717C279.406 168.818 278.604 168.729 277.713 168.449C277.739 168.288 277.747 168.076 277.739 167.813C277.73 167.55 277.709 167.283 277.675 167.011C277.65 166.748 277.616 166.536 277.573 166.375C278.379 166.638 279.062 166.744 279.622 166.693C280.191 166.65 280.675 166.506 281.073 166.26C281.472 166.014 281.82 165.743 282.117 165.446L283.339 164.224Z" fill="black"/>
<path d="M291.07 119.263L301.207 129.4L299.861 130.746L289.724 120.609L291.07 119.263ZM294.713 117.317L303.176 125.78L301.83 127.126L293.367 118.663L294.713 117.317ZM299.872 119.082L301.321 120.53L290.697 131.154L289.249 129.706L299.872 119.082ZM294.363 124.117L295.053 125.78C294.336 125.953 293.589 126.081 292.813 126.164C292.043 126.24 291.266 126.262 290.482 126.232C289.705 126.21 288.94 126.138 288.185 126.017C287.446 125.897 286.737 125.731 286.058 125.52C286.104 125.323 286.138 125.093 286.16 124.829C286.19 124.573 286.209 124.313 286.217 124.049C286.239 123.785 286.243 123.547 286.228 123.336C286.854 123.585 287.514 123.792 288.208 123.958C288.917 124.124 289.63 124.241 290.346 124.309C291.063 124.377 291.76 124.396 292.439 124.366C293.126 124.328 293.767 124.245 294.363 124.117ZM296.286 126.063C296.15 126.651 296.063 127.288 296.026 127.975C296.003 128.661 296.026 129.362 296.094 130.079C296.161 130.795 296.271 131.501 296.422 132.195C296.588 132.889 296.791 133.545 297.033 134.163C296.844 134.141 296.614 134.137 296.342 134.152C296.086 134.167 295.826 134.193 295.562 134.231C295.298 134.269 295.068 134.31 294.872 134.356C294.668 133.684 294.51 132.975 294.397 132.229C294.283 131.482 294.216 130.72 294.193 129.943C294.178 129.159 294.208 128.382 294.283 127.613C294.366 126.851 294.495 126.112 294.668 125.395L296.286 126.063ZM297.141 141.987L309.982 129.146L311.068 130.232L298.227 143.073L297.141 141.987ZM314.332 136.551L323.507 145.726L316.775 152.458L315.361 151.044L320.792 145.613L314.388 139.209L308.901 144.697L307.543 143.339L314.332 136.551ZM312.782 139.888L320.317 147.423L319.061 148.679L311.526 141.144L312.782 139.888ZM310.327 142.321L317.895 149.89L316.594 151.191L309.025 143.622L310.327 142.321ZM319.66 138.847L321.086 140.273L310.462 150.896L309.037 149.471L319.66 138.847Z" fill="black"/>
<path d="M262.219 284.25L265.999 280.469L267.514 281.984L263.734 285.764L262.219 284.25ZM265.63 275.213L267.221 273.622L276.398 282.799C276.754 283.155 277.013 283.354 277.175 283.397C277.327 283.431 277.522 283.329 277.76 283.091C277.811 283.04 277.896 282.956 278.015 282.837C278.133 282.718 278.265 282.586 278.409 282.442C278.553 282.298 278.685 282.166 278.804 282.048C278.922 281.929 279.012 281.84 279.071 281.78C279.241 281.611 279.296 281.411 279.236 281.182C279.177 280.953 278.978 280.635 278.638 280.227C278.299 279.803 277.802 279.239 277.149 278.535C277.37 278.501 277.612 278.446 277.875 278.369C278.146 278.284 278.409 278.191 278.664 278.089C278.91 277.979 279.122 277.869 279.3 277.758C280.064 278.624 280.632 279.37 281.006 279.998C281.387 280.618 281.553 281.174 281.502 281.666C281.468 282.158 281.209 282.646 280.726 283.129C280.658 283.197 280.543 283.312 280.382 283.473C280.221 283.634 280.047 283.808 279.86 283.995C279.682 284.173 279.516 284.339 279.364 284.491C279.211 284.644 279.096 284.759 279.02 284.835C278.536 285.319 278.082 285.628 277.658 285.764C277.251 285.9 276.822 285.853 276.373 285.624C275.914 285.387 275.388 284.971 274.794 284.377L265.63 275.213ZM262.423 278.42L264.014 276.829L275.622 288.437L274.031 290.028L262.423 278.42ZM271.727 272.909L274.209 273.176C274.065 273.914 273.895 274.678 273.7 275.467C273.496 276.248 273.28 277.033 273.051 277.822C272.822 278.594 272.584 279.341 272.338 280.062C272.117 279.943 271.829 279.833 271.472 279.731C271.108 279.621 270.794 279.536 270.531 279.477C270.743 278.772 270.929 278.034 271.091 277.262C271.252 276.49 271.383 275.73 271.485 274.984C271.595 274.228 271.676 273.537 271.727 272.909ZM267.527 290.473C267.773 290.024 268.053 289.498 268.367 288.895C268.672 288.284 268.99 287.635 269.321 286.948C269.644 286.252 269.966 285.565 270.289 284.886L271.956 285.968C271.608 286.893 271.239 287.83 270.849 288.781C270.467 289.723 270.115 290.584 269.792 291.364L267.527 290.473ZM283.093 276.867L291.723 268.238L293.135 269.651L284.506 278.28L283.093 276.867ZM275.889 271.623L286.39 261.123L294.726 269.46L293.174 271.012L286.25 264.088L278.791 271.547L285.74 278.496L284.251 279.986L275.889 271.623ZM282.227 266.456L283.691 264.992L285.982 267.283C286.143 267.444 286.258 267.534 286.326 267.55C286.394 267.55 286.491 267.487 286.619 267.36C286.644 267.334 286.699 267.279 286.784 267.194C286.877 267.101 286.967 267.012 287.051 266.927C287.145 266.833 287.213 266.766 287.255 266.723C287.331 266.647 287.374 266.579 287.382 266.52C287.391 266.443 287.357 266.35 287.28 266.24C287.213 266.121 287.085 265.959 286.899 265.756C287.051 265.739 287.238 265.696 287.459 265.629C287.679 265.544 287.9 265.45 288.121 265.349C288.341 265.23 288.532 265.115 288.693 265.005C289.024 265.455 289.241 265.841 289.342 266.163C289.444 266.486 289.444 266.783 289.342 267.054C289.249 267.317 289.058 267.593 288.77 267.881C288.702 267.949 288.621 268.03 288.528 268.123C288.434 268.217 288.333 268.318 288.222 268.429C288.121 268.531 288.023 268.628 287.93 268.721C287.836 268.815 287.76 268.891 287.7 268.951C287.293 269.358 286.928 269.621 286.606 269.74C286.292 269.85 285.974 269.82 285.651 269.651C285.329 269.481 284.956 269.184 284.531 268.76L282.227 266.456ZM272.529 269.281L283.971 257.839L285.448 259.316L274.005 270.758L272.529 269.281ZM277.124 266.927L278.625 265.425L281.171 267.971L279.669 269.472L277.124 266.927ZM279.911 264.139L281.451 262.599L283.997 265.145L282.457 266.685L279.911 264.139ZM279.224 268.874L280.649 267.449L281.909 268.709C282.334 269.133 282.715 269.625 283.055 270.185C283.394 270.745 283.615 271.382 283.717 272.094C283.818 272.807 283.729 273.609 283.449 274.5C283.288 274.474 283.076 274.466 282.813 274.474C282.55 274.483 282.283 274.504 282.011 274.538C281.748 274.564 281.536 274.598 281.375 274.64C281.638 273.834 281.744 273.151 281.693 272.591C281.65 272.022 281.506 271.539 281.26 271.14C281.014 270.741 280.743 270.393 280.446 270.096L279.224 268.874Z" fill="black"/>
<path d="M288.67 316.441L288.817 314.484C289.345 314.333 289.926 314.182 290.56 314.032C291.193 313.881 291.816 313.756 292.427 313.658C293.03 313.553 293.554 313.496 293.999 313.488L293.886 315.638C293.471 315.631 292.962 315.665 292.359 315.74C291.755 315.815 291.129 315.913 290.481 316.034C289.832 316.155 289.228 316.291 288.67 316.441ZM297.269 315.627L297.619 313.511C298.042 313.39 298.517 313.262 299.045 313.126C299.565 312.983 300.09 312.844 300.618 312.708C301.146 312.572 301.658 312.459 302.156 312.368C302.654 312.263 303.092 312.187 303.469 312.142L303.141 314.507C302.801 314.529 302.39 314.578 301.907 314.654C301.425 314.729 300.916 314.824 300.38 314.937C299.845 315.035 299.309 315.148 298.773 315.276C298.23 315.397 297.729 315.514 297.269 315.627ZM289.949 310.524L291.997 309.744C292.004 310.309 291.997 310.89 291.974 311.486C291.944 312.074 291.906 312.648 291.861 313.206C291.816 313.749 291.755 314.247 291.68 314.699L289.983 315.219C290.036 314.744 290.069 314.235 290.085 313.692C290.1 313.134 290.096 312.58 290.073 312.029C290.058 311.471 290.017 310.969 289.949 310.524ZM284.993 313.941L295.153 303.781L296.42 305.048L286.261 315.208L284.993 313.941ZM288.048 308.352L289.474 306.927L291.295 308.748L289.87 310.174L288.048 308.352ZM293.581 308.816L295.481 308.228C295.655 309.517 295.647 310.83 295.459 312.165C295.27 313.485 294.938 314.797 294.463 316.102C293.98 317.399 293.392 318.681 292.698 319.949C292.434 319.851 292.11 319.768 291.725 319.7C291.34 319.617 290.982 319.568 290.65 319.553C291.359 318.391 291.966 317.203 292.472 315.989C292.97 314.767 293.324 313.545 293.535 312.323C293.746 311.101 293.762 309.932 293.581 308.816ZM296.828 309.28L298.841 308.714C299.09 310.29 299.087 311.856 298.83 313.409C298.574 314.963 298.117 316.513 297.461 318.059C296.805 319.59 295.994 321.118 295.029 322.641C294.742 322.521 294.399 322.411 293.999 322.313C293.614 322.215 293.252 322.155 292.913 322.132C293.871 320.707 294.689 319.27 295.368 317.822C296.039 316.366 296.511 314.922 296.782 313.488C297.061 312.048 297.076 310.645 296.828 309.28ZM310.987 311.072L298.146 298.231L299.232 297.145L312.073 309.986L310.987 311.072ZM311.456 286.618L311.479 284.989C311.796 284.883 312.139 284.789 312.509 284.706C312.886 284.616 313.252 284.544 313.606 284.491C313.961 284.423 314.262 284.393 314.511 284.401L314.534 286.166C314.285 286.143 313.983 286.158 313.629 286.211C313.274 286.249 312.905 286.301 312.52 286.369C312.135 286.437 311.781 286.52 311.456 286.618ZM315.597 288.293L317.317 287.32C318.245 289.349 318.799 291.381 318.98 293.418C319.161 295.454 318.969 297.427 318.403 299.335C318.237 299.29 318.022 299.256 317.758 299.233C317.509 299.21 317.249 299.191 316.978 299.176C316.721 299.161 316.499 299.158 316.31 299.165C316.951 297.393 317.211 295.586 317.091 293.746C316.97 291.89 316.472 290.073 315.597 288.293ZM306.954 293.248L315.597 284.604L316.887 285.894L308.243 294.538L306.954 293.248ZM311.411 295.692L314.194 292.909L315.45 294.164L312.667 296.948L311.411 295.692ZM306.275 293.927L307.632 292.569L310.698 295.635C311.121 296.058 311.566 296.54 312.033 297.083C312.494 297.619 312.935 298.196 313.357 298.814C313.787 299.425 314.153 300.063 314.455 300.726C314.749 301.383 314.937 302.046 315.02 302.718C314.862 302.695 314.654 302.691 314.398 302.706C314.149 302.729 313.896 302.755 313.64 302.785C313.399 302.816 313.195 302.853 313.029 302.899C312.946 302.303 312.776 301.733 312.52 301.19C312.271 300.64 311.966 300.115 311.604 299.618C311.249 299.112 310.876 298.641 310.483 298.203C310.084 297.758 309.703 297.355 309.341 296.993L306.275 293.927ZM308.809 287.614L310.178 286.245C311.158 287.18 312.124 288.063 313.074 288.892C314.025 289.707 314.937 290.438 315.812 291.087C316.68 291.728 317.487 292.249 318.233 292.648C318.98 293.048 319.64 293.301 320.213 293.406C320.786 293.512 321.247 293.429 321.594 293.158C321.759 293.052 321.707 292.803 321.435 292.411C321.164 292.004 320.741 291.483 320.168 290.85C320.447 290.842 320.764 290.804 321.118 290.736C321.48 290.661 321.786 290.582 322.035 290.499C323.015 291.645 323.528 292.573 323.573 293.282C323.626 293.998 323.283 294.545 322.544 294.922C321.971 295.3 321.311 295.462 320.564 295.409C319.825 295.364 319.018 295.137 318.143 294.73C317.268 294.323 316.336 293.768 315.348 293.067C314.353 292.358 313.308 291.547 312.214 290.635C311.121 289.707 309.986 288.7 308.809 287.614Z" fill="black"/>
<path d="M302.154 347.391L307.703 341.843L309.422 343.562L303.874 349.111L302.154 347.391ZM306.372 343.173L308.307 341.238C309.445 342.197 310.591 343.11 311.746 343.979C312.911 344.839 314.084 345.591 315.266 346.236C316.449 346.863 317.622 347.338 318.786 347.66C319.951 347.965 321.106 348.054 322.253 347.929C322.19 348.171 322.136 348.466 322.091 348.816C322.056 349.174 322.029 349.532 322.011 349.89C322.002 350.24 321.997 350.549 321.997 350.817C320.761 350.871 319.525 350.719 318.289 350.361C317.044 349.993 315.813 349.478 314.595 348.816C313.386 348.144 312.19 347.369 311.008 346.491C309.825 345.613 308.67 344.691 307.541 343.724L307.232 344.033L306.372 343.173ZM305.392 349.931L307.514 348.318C308.159 349.232 308.782 350.195 309.382 351.207C309.982 352.201 310.515 353.227 310.981 354.284C311.437 355.331 311.796 356.388 312.055 357.454C312.306 358.511 312.405 359.559 312.351 360.598C312.127 360.571 311.854 360.567 311.532 360.585C311.227 360.603 310.914 360.629 310.591 360.665C310.287 360.701 310.022 360.741 309.798 360.786C309.879 359.846 309.807 358.896 309.583 357.938C309.351 356.971 309.019 356.021 308.589 355.09C308.15 354.149 307.653 353.249 307.098 352.389C306.543 351.511 305.974 350.692 305.392 349.931ZM324.013 343.858L332.356 335.515L333.981 337.14L325.638 345.484L324.013 343.858ZM319.875 339.774L328.245 331.404L329.843 333.002L321.473 341.372L319.875 339.774ZM315.011 336.576L325.182 326.406L335.809 337.033L334.089 338.753L325.101 329.765L318.276 336.59L327.277 345.591L325.652 347.217L315.011 336.576ZM316.932 330.624L319.324 328.797C319.619 329.505 319.888 330.212 320.13 330.92C320.372 331.628 320.569 332.246 320.721 332.774L318.8 334.05C318.639 333.692 318.455 333.311 318.249 332.908C318.052 332.496 317.837 332.093 317.604 331.699C317.38 331.296 317.156 330.938 316.932 330.624ZM330.515 325.506L340.968 315.053L342.553 316.639L332.101 327.091L330.515 325.506ZM335.916 332.68L348.155 320.441L349.741 322.026L337.501 334.265L335.916 332.68ZM330.69 317.028L332.423 315.295L343.95 326.822L342.217 328.555L330.69 317.028ZM349.445 315.658L358.205 306.898L359.468 308.161L350.708 316.921L349.445 315.658ZM347.631 313.146L356.646 304.131L357.99 305.474L348.975 314.489L347.631 313.146ZM349.956 319.5L361.846 307.61L363.23 308.994L351.34 320.884L349.956 319.5ZM349.942 309.196L351.608 307.53L357.721 313.643L356.055 315.309L349.942 309.196ZM345.495 309.263L346.221 309.988L352.186 304.023L351.46 303.298L345.495 309.263ZM343.655 307.422L344.353 308.121L350.318 302.156L349.62 301.457L343.655 307.422ZM340.847 307.785L350.063 298.568L355.074 303.58L345.858 312.796L340.847 307.785ZM346.422 311.963L348.451 310.848C348.693 311.484 348.885 312.151 349.029 312.85C349.172 313.549 349.271 314.238 349.324 314.919C349.378 315.6 349.387 316.227 349.351 316.8C349.145 316.809 348.899 316.831 348.612 316.867C348.326 316.903 348.039 316.948 347.752 317.001C347.457 317.046 347.206 317.1 347 317.163C347.116 316.348 347.125 315.479 347.027 314.556C346.928 313.616 346.727 312.751 346.422 311.963Z" fill="black"/>
<path d="M155.751 260.006L159.531 263.786L158.016 265.301L154.236 261.521L155.751 260.006ZM164.788 263.417L166.379 265.008L157.202 274.185C156.845 274.541 156.646 274.8 156.604 274.961C156.57 275.114 156.671 275.309 156.909 275.547C156.96 275.598 157.045 275.683 157.164 275.802C157.282 275.92 157.414 276.052 157.558 276.196C157.702 276.34 157.834 276.472 157.953 276.591C158.071 276.709 158.161 276.799 158.22 276.858C158.39 277.028 158.589 277.083 158.818 277.023C159.047 276.964 159.365 276.765 159.773 276.425C160.197 276.086 160.761 275.589 161.466 274.936C161.5 275.157 161.555 275.398 161.631 275.662C161.716 275.933 161.809 276.196 161.911 276.451C162.021 276.697 162.132 276.909 162.242 277.087C161.376 277.851 160.63 278.419 160.002 278.793C159.382 279.174 158.827 279.34 158.335 279.289C157.842 279.255 157.354 278.996 156.871 278.513C156.803 278.445 156.688 278.33 156.527 278.169C156.366 278.008 156.192 277.834 156.005 277.647C155.827 277.469 155.662 277.303 155.509 277.151C155.356 276.998 155.242 276.883 155.165 276.807C154.682 276.323 154.372 275.869 154.236 275.445C154.1 275.038 154.147 274.609 154.376 274.16C154.614 273.701 155.029 273.175 155.623 272.581L164.788 263.417ZM161.58 260.21L163.171 261.801L151.563 273.409L149.972 271.818L161.58 260.21ZM167.091 269.514L166.824 271.996C166.086 271.852 165.322 271.682 164.533 271.487C163.752 271.283 162.967 271.067 162.178 270.838C161.406 270.609 160.659 270.371 159.938 270.125C160.057 269.904 160.167 269.616 160.269 269.259C160.379 268.895 160.464 268.581 160.524 268.318C161.228 268.53 161.966 268.716 162.738 268.878C163.511 269.039 164.27 269.17 165.017 269.272C165.772 269.382 166.463 269.463 167.091 269.514ZM149.527 265.314C149.977 265.56 150.503 265.84 151.105 266.154C151.716 266.459 152.365 266.777 153.052 267.108C153.748 267.431 154.436 267.753 155.114 268.076L154.032 269.743C153.108 269.395 152.17 269.026 151.22 268.636C150.278 268.254 149.416 267.902 148.636 267.579L149.527 265.314ZM170.477 270.787L181.779 282.089L180.354 283.515L169.051 272.212L170.477 270.787ZM176.319 274.541L177.91 276.132L165.959 288.084L164.368 286.493L176.319 274.541ZM168.657 281.415L169.421 283.247C168.699 283.375 167.953 283.443 167.18 283.451C166.417 283.468 165.64 283.43 164.851 283.336C164.079 283.243 163.315 283.099 162.56 282.904C161.805 282.726 161.088 282.501 160.409 282.229C160.452 282.017 160.494 281.771 160.536 281.491C160.579 281.211 160.609 280.927 160.626 280.638C160.643 280.35 160.647 280.099 160.638 279.887C161.266 280.193 161.924 280.46 162.611 280.689C163.307 280.91 164.007 281.092 164.711 281.236C165.424 281.372 166.111 281.457 166.773 281.491C167.452 281.525 168.08 281.499 168.657 281.415ZM171.024 283.884C170.956 284.461 170.944 285.084 170.986 285.755C171.045 286.425 171.143 287.117 171.279 287.829C171.432 288.542 171.627 289.246 171.864 289.942C172.11 290.63 172.386 291.287 172.692 291.915C172.471 291.898 172.212 291.894 171.915 291.902C171.618 291.928 171.325 291.958 171.037 291.991C170.748 292.042 170.494 292.093 170.273 292.144C169.993 291.474 169.764 290.761 169.586 290.006C169.399 289.259 169.255 288.496 169.153 287.715C169.068 286.934 169.03 286.158 169.039 285.386C169.056 284.622 169.124 283.884 169.242 283.171L171.024 283.884ZM167.906 278.474L167.13 279.251L173.303 285.424L174.079 284.647L167.906 278.474ZM169.739 276.642L168.975 277.405L175.148 283.578L175.912 282.815L169.739 276.642ZM169.395 274.007L178.623 283.235L173.723 288.135L164.495 278.907L169.395 274.007Z" fill="black"/>
<path d="M132.671 290.374L134.006 291.709L129.152 296.563L127.817 295.228L132.671 290.374ZM130.838 287.297L137.06 293.52L135.963 294.617L129.74 288.394L130.838 287.297ZM127.251 292.286L126.629 292.909L131.505 297.785L132.128 297.163L127.251 292.286ZM128.824 290.714L128.213 291.325L133.089 296.201L133.7 295.59L128.824 290.714ZM128.541 288.372L136.11 295.941L131.856 300.195L124.287 292.626L128.541 288.372ZM128.111 297.717L129.808 297.626C130.08 298.185 130.348 298.762 130.611 299.357C130.883 299.961 131.132 300.534 131.358 301.077C131.6 301.62 131.799 302.099 131.958 302.514L129.967 302.469C129.838 302.084 129.676 301.628 129.48 301.1C129.292 300.579 129.08 300.029 128.847 299.448C128.613 298.867 128.368 298.29 128.111 297.717ZM135.872 287.082L137.275 288.485L135.669 290.091L134.266 288.689L135.872 287.082ZM130.962 283.756L140.681 293.474L138.18 295.975L136.789 294.583L138.056 293.316L131.064 286.324L129.797 287.591L128.462 286.256L130.962 283.756ZM126.539 294.334L126.855 296.325C126.342 296.22 125.781 296.05 125.17 295.816C124.559 295.597 123.948 295.334 123.337 295.024C122.726 294.73 122.153 294.413 121.617 294.074C121.677 293.833 121.73 293.531 121.775 293.169C121.828 292.814 121.862 292.501 121.877 292.23C122.368 292.554 122.896 292.863 123.461 293.158C124.042 293.452 124.6 293.701 125.136 293.904C125.686 294.108 126.154 294.251 126.539 294.334ZM133.141 309.987L145.982 297.146L147.068 298.232L134.227 311.073L133.141 309.987ZM151.621 304.098L158.342 310.818L157.018 312.142L150.298 305.422L151.621 304.098ZM142.378 311.531L152.47 321.623L151.157 322.935L141.066 312.844L142.378 311.531ZM146.666 306.994L157.007 317.335L155.672 318.67L145.331 308.329L146.666 306.994ZM153.036 306.96L154.427 308.352C153.839 308.835 153.22 309.333 152.572 309.845C151.923 310.358 151.267 310.871 150.603 311.384C149.947 311.905 149.298 312.41 148.657 312.9C148.016 313.39 147.401 313.847 146.813 314.269C146.24 314.692 145.719 315.069 145.252 315.401L143.837 313.986C144.335 313.654 144.882 313.274 145.478 312.844C146.074 312.414 146.689 311.957 147.322 311.475C147.971 310.992 148.623 310.498 149.279 309.993C149.943 309.48 150.592 308.967 151.225 308.454C151.859 307.941 152.462 307.443 153.036 306.96ZM157.719 310.196L159.134 311.61C158.53 312.184 157.893 312.776 157.222 313.387C156.558 313.99 155.883 314.597 155.196 315.208C154.51 315.819 153.835 316.411 153.171 316.984C152.523 317.558 151.897 318.101 151.293 318.614C150.697 319.119 150.151 319.575 149.653 319.983L148.216 318.546C148.721 318.131 149.279 317.671 149.89 317.165C150.509 316.653 151.15 316.11 151.814 315.536C152.485 314.971 153.16 314.386 153.839 313.783C154.525 313.172 155.193 312.565 155.841 311.961C156.505 311.358 157.131 310.769 157.719 310.196Z" fill="black"/>
<path d="M88.1325 307.155L100.573 319.596L98.8133 321.356L86.3725 308.915L88.1325 307.155ZM98.773 327.389L107.116 335.732L105.491 337.357L97.1474 329.014L98.773 327.389ZM102.857 323.251L111.227 331.621L109.629 333.219L101.258 324.849L102.857 323.251ZM106.055 318.387L116.225 328.557L105.598 339.184L103.878 337.465L112.866 328.477L106.041 321.652L97.0399 330.653L95.4143 329.028L106.055 318.387ZM112.007 320.308L113.834 322.7C113.126 322.995 112.419 323.264 111.711 323.506C111.003 323.748 110.385 323.945 109.857 324.097L108.581 322.176C108.939 322.015 109.32 321.831 109.723 321.625C110.135 321.428 110.538 321.213 110.932 320.98C111.335 320.756 111.693 320.532 112.007 320.308ZM117.192 332.212L120.927 335.947L119.302 337.572L115.567 333.837L117.192 332.212ZM125.697 334.133L127.416 335.853L116.897 346.372C116.413 346.856 115.979 347.174 115.594 347.326C115.209 347.478 114.801 347.483 114.371 347.34C113.941 347.196 113.48 346.923 112.987 346.52C112.495 346.135 111.939 345.633 111.321 345.015C111.474 344.827 111.626 344.585 111.778 344.29C111.93 344.012 112.069 343.721 112.195 343.417C112.329 343.103 112.427 342.825 112.49 342.584C112.911 343.04 113.314 343.461 113.699 343.846C114.084 344.232 114.344 344.491 114.479 344.626C114.613 344.76 114.734 344.827 114.841 344.827C114.949 344.827 115.061 344.769 115.177 344.653L125.697 334.133ZM120.377 335.396L120.712 335.732L121.075 335.96L121.774 337.465C120.35 338.495 118.939 339.314 117.542 339.923C116.153 340.541 114.814 340.967 113.525 341.2C112.253 341.433 111.057 341.464 109.938 341.294C109.982 341.07 110.005 340.797 110.005 340.474C110.014 340.143 110.005 339.811 109.978 339.48C109.96 339.158 109.924 338.889 109.87 338.674C110.909 338.871 111.989 338.893 113.108 338.741C114.237 338.58 115.383 338.249 116.548 337.747C117.73 337.245 118.89 336.578 120.027 335.745L120.377 335.396ZM125.348 337.707C124.667 338.817 124.08 339.95 123.588 341.106C123.104 342.27 122.732 343.439 122.472 344.612C122.213 345.786 122.101 346.954 122.137 348.119C122.19 349.283 122.414 350.421 122.808 351.531C122.566 351.504 122.28 351.495 121.948 351.504C121.617 351.513 121.281 351.545 120.941 351.598C120.618 351.652 120.327 351.71 120.068 351.773C119.62 350.143 119.499 348.499 119.705 346.842C119.92 345.177 120.39 343.497 121.115 341.804C121.841 340.111 122.737 338.41 123.802 336.699L125.348 337.707ZM128.988 341.616L129.445 344.196C128.666 344.205 127.851 344.205 127 344.196C126.149 344.187 125.321 344.155 124.515 344.102C123.717 344.057 122.992 343.985 122.338 343.887L122.069 341.818C122.741 341.88 123.48 341.912 124.286 341.912C125.101 341.921 125.916 341.903 126.731 341.858C127.555 341.804 128.308 341.724 128.988 341.616ZM126.973 352.821L135.733 361.581L134.47 362.844L125.71 354.084L126.973 352.821ZM129.485 351.007L138.5 360.022L137.157 361.366L128.142 352.351L129.485 351.007ZM123.131 353.332L135.021 365.222L133.637 366.605L121.747 354.715L123.131 353.332ZM133.435 353.318L135.101 354.984L128.988 361.097L127.322 359.431L133.435 353.318ZM133.368 348.871L132.643 349.597L138.608 355.562L139.333 354.836L133.368 348.871ZM135.209 347.031L134.51 347.729L140.475 353.694L141.174 352.996L135.209 347.031ZM134.846 344.223L144.062 353.439L139.051 358.45L129.835 349.234L134.846 344.223ZM130.668 349.798L131.783 351.827C131.147 352.069 130.48 352.261 129.781 352.405C129.082 352.548 128.393 352.646 127.712 352.7C127.031 352.754 126.404 352.763 125.831 352.727C125.822 352.521 125.8 352.275 125.764 351.988C125.728 351.701 125.683 351.415 125.63 351.128C125.585 350.833 125.531 350.582 125.468 350.376C126.283 350.492 127.152 350.501 128.075 350.403C129.015 350.304 129.88 350.103 130.668 349.798Z" fill="black"/>
<path d="M311.808 76.5817L323.174 87.9477L312.224 98.8972L310.518 97.191L319.909 87.7999L311.875 79.7658L302.376 89.2643L300.751 87.6387L311.808 76.5817ZM304.042 86.0668L313.729 95.7534L312.184 97.2985L302.497 87.6118L304.042 86.0668ZM316.792 83.8231L318.364 85.395L314.629 89.13C314.423 89.336 314.316 89.4703 314.307 89.533C314.307 89.6226 314.356 89.7166 314.455 89.8152C314.499 89.8599 314.558 89.9182 314.629 89.9898C314.701 90.0615 314.759 90.1197 314.804 90.1645C314.849 90.2092 314.898 90.2496 314.952 90.2854C315.014 90.3302 315.068 90.357 315.113 90.366C315.158 90.3749 315.211 90.3749 315.274 90.366C315.355 90.357 315.444 90.3123 315.543 90.2316C315.65 90.16 315.798 90.0301 315.986 89.842C316.192 89.6539 316.425 89.439 316.685 89.1971C316.703 89.4658 316.765 89.7793 316.873 90.1376C316.989 90.5048 317.119 90.8228 317.262 91.0915C316.976 91.3423 316.68 91.5841 316.376 91.817C316.089 92.0498 315.856 92.2021 315.677 92.2738C315.48 92.3454 315.292 92.3812 315.113 92.3812C314.952 92.3812 314.773 92.3454 314.575 92.2738C314.414 92.22 314.24 92.126 314.052 91.9916C313.881 91.8573 313.729 91.7229 313.595 91.5886C313.514 91.508 313.42 91.4139 313.313 91.3064C313.205 91.199 313.098 91.0915 312.99 90.984C312.892 90.8855 312.802 90.7959 312.721 90.7153C312.542 90.5362 312.386 90.3257 312.251 90.0839C312.117 89.842 312.041 89.5957 312.023 89.3449C312.014 89.1031 312.077 88.8523 312.211 88.5926C312.345 88.3328 312.641 87.9746 313.098 87.5178L316.792 83.8231ZM314.105 81.0824L315.677 82.6543C314.728 83.55 313.796 84.3292 312.883 84.992C311.969 85.6548 311.038 86.1384 310.088 86.443C309.139 86.7475 308.113 86.7968 307.012 86.5907C307.11 86.3131 307.177 85.9593 307.213 85.5294C307.258 85.0905 307.262 84.7098 307.227 84.3874C308.104 84.5665 308.915 84.5262 309.658 84.2665C310.411 83.9978 311.145 83.5858 311.862 83.0305C312.587 82.4662 313.335 81.8168 314.105 81.0824ZM331.033 105.615L331.45 107.643C330.868 107.688 330.272 107.729 329.663 107.764C329.063 107.809 328.539 107.832 328.091 107.832L327.809 106.152C328.122 106.125 328.467 106.085 328.843 106.031C329.229 105.986 329.609 105.928 329.985 105.857C330.38 105.785 330.729 105.704 331.033 105.615ZM324.195 100.442L326.022 100.818C326.004 101.32 325.955 101.862 325.874 102.444C325.803 103.017 325.695 103.492 325.552 103.868L323.577 103.505C323.729 103.138 323.855 102.664 323.953 102.081C324.07 101.499 324.15 100.953 324.195 100.442ZM330.993 94.3965L336.663 100.066L332.122 104.607L330.55 103.035L333.788 99.7974L329.69 95.6997L330.993 94.3965ZM329.341 96.6939L333.989 101.342L332.74 102.592L328.091 97.9433L329.341 96.6939ZM326.425 97.7015L333.841 105.118L332.498 106.461L325.082 99.045L326.425 97.7015ZM328.763 101.248L330.254 102.74L324.208 108.785C323.868 109.126 323.564 109.359 323.295 109.484C323.017 109.618 322.713 109.627 322.381 109.511C322.059 109.421 321.732 109.238 321.4 108.96C321.069 108.7 320.702 108.369 320.299 107.966C320.487 107.742 320.675 107.455 320.863 107.106C321.042 106.766 321.186 106.452 321.293 106.166C321.508 106.398 321.714 106.622 321.911 106.837C322.126 107.052 322.274 107.191 322.354 107.254C322.489 107.388 322.619 107.393 322.744 107.267L328.763 101.248ZM319.842 103.237C320.397 103.398 321.087 103.577 321.911 103.774C322.744 103.962 323.595 104.15 324.464 104.338L323.752 106.045C322.99 105.946 322.216 105.834 321.427 105.709C320.657 105.583 319.932 105.467 319.251 105.359L319.842 103.237ZM329.461 103.425C329.103 103.944 328.767 104.522 328.454 105.158C328.149 105.785 327.894 106.452 327.688 107.16C327.491 107.858 327.388 108.579 327.379 109.323C327.388 110.066 327.527 110.814 327.796 111.566C327.607 111.558 327.375 111.566 327.097 111.593C326.819 111.62 326.542 111.656 326.264 111.701C325.977 111.755 325.731 111.813 325.525 111.875C325.337 111.096 325.279 110.313 325.35 109.524C325.431 108.745 325.592 107.984 325.834 107.24C326.085 106.488 326.376 105.785 326.707 105.131C327.048 104.486 327.384 103.909 327.715 103.398L329.461 103.425ZM327.755 90.1913L328.655 92.0857C328.127 92.2559 327.581 92.426 327.016 92.5962C326.461 92.7574 325.919 92.9142 325.391 93.0664C324.871 93.2097 324.401 93.3217 323.98 93.4023L323.349 91.8841C323.787 91.7677 324.267 91.6199 324.786 91.4408C325.306 91.2617 325.83 91.0601 326.358 90.8362C326.895 90.6213 327.361 90.4063 327.755 90.1913ZM327.675 93.3083L328.4 95.216C327.567 95.3862 326.68 95.5564 325.74 95.7266C324.8 95.8967 323.881 96.0445 322.986 96.1699C322.09 96.2953 321.275 96.3759 320.541 96.4118L320.124 94.9742C320.679 94.9205 321.28 94.8399 321.924 94.7324C322.587 94.6249 323.255 94.495 323.926 94.3428C324.616 94.1905 325.283 94.0248 325.928 93.8457C326.573 93.6665 327.155 93.4874 327.675 93.3083ZM322.542 91.2661L324.423 90.9706C324.432 91.4094 324.432 91.8752 324.423 92.3678C324.414 92.8604 324.388 93.3351 324.343 93.7919C324.298 94.2487 324.217 94.6339 324.101 94.9473L322.018 95.3101C322.135 94.9966 322.229 94.607 322.301 94.1412C322.381 93.6844 322.439 93.2053 322.475 92.7037C322.52 92.1932 322.542 91.714 322.542 91.2661ZM324.007 96.0624L325.592 96.7342C325.476 97.2089 325.324 97.7015 325.135 98.212C324.947 98.7226 324.75 99.2062 324.544 99.663C324.347 100.111 324.146 100.492 323.94 100.805L322.18 100.12C322.404 99.8243 322.628 99.4481 322.851 98.9913C323.075 98.5345 323.286 98.0553 323.483 97.5537C323.689 97.0432 323.864 96.5461 324.007 96.0624ZM319.761 93.9666C320.388 94.5398 321.132 95.2116 321.992 95.9818C322.86 96.7432 323.743 97.5179 324.638 98.3061L323.349 99.6496C322.498 98.9241 321.647 98.1986 320.796 97.4731C319.963 96.7476 319.206 96.0983 318.525 95.525L319.761 93.9666ZM321.011 99.8108L322.462 100.59C322.256 101.118 321.992 101.669 321.669 102.243C321.356 102.825 321.06 103.29 320.782 103.64L319.197 102.834C319.493 102.484 319.806 102.028 320.138 101.463C320.487 100.899 320.778 100.348 321.011 99.8108ZM318.337 96.5461L319.399 98.0643C318.682 98.6375 317.939 99.1659 317.168 99.6496C316.416 100.133 315.731 100.496 315.113 100.738C315.086 100.586 315.037 100.402 314.965 100.187C314.893 99.972 314.813 99.7571 314.723 99.5421C314.643 99.3182 314.567 99.1346 314.495 98.9913C315.095 98.7853 315.731 98.4539 316.403 97.9971C317.074 97.5403 317.719 97.0566 318.337 96.5461ZM321.078 96.7342L322.475 98.1314L316.47 104.137L315.073 102.74L321.078 96.7342ZM336.475 105.171L348.297 116.994L346.699 118.593L334.876 106.77L336.475 105.171ZM344.643 107.079L346.363 108.799L333.747 121.414L332.028 119.695L344.643 107.079ZM340.29 110.733L341.231 112.641C340.218 113.044 339.184 113.38 338.127 113.649C337.07 113.918 336.009 114.11 334.943 114.227C333.886 114.352 332.838 114.397 331.799 114.361C330.778 114.325 329.797 114.195 328.857 113.971C328.902 113.747 328.938 113.479 328.964 113.165C328.991 112.852 329.009 112.538 329.018 112.225C329.036 111.902 329.036 111.625 329.018 111.392C329.878 111.643 330.783 111.813 331.732 111.902C332.699 111.992 333.676 112.01 334.661 111.956C335.655 111.893 336.627 111.755 337.576 111.54C338.535 111.334 339.439 111.065 340.29 110.733ZM342.601 113.179C342.287 114.012 342.041 114.903 341.862 115.852C341.683 116.802 341.571 117.764 341.526 118.741C341.49 119.726 341.517 120.693 341.607 121.643C341.696 122.592 341.867 123.488 342.117 124.33C341.893 124.303 341.616 124.294 341.284 124.303C340.971 124.312 340.653 124.334 340.33 124.37C340.017 124.415 339.744 124.464 339.511 124.518C339.305 123.595 339.184 122.632 339.148 121.629C339.121 120.617 339.162 119.583 339.269 118.526C339.386 117.46 339.574 116.403 339.833 115.355C340.093 114.307 340.407 113.286 340.774 112.292L342.601 113.179ZM345.973 125.821L354.733 134.581L353.47 135.844L344.71 127.084L345.973 125.821ZM348.485 124.007L357.5 133.022L356.157 134.366L347.142 125.351L348.485 124.007ZM342.131 126.332L354.021 138.222L352.637 139.605L340.747 127.715L342.131 126.332ZM352.435 126.318L354.101 127.984L347.988 134.097L346.322 132.431L352.435 126.318ZM352.368 121.871L351.643 122.597L357.608 128.562L358.333 127.836L352.368 121.871ZM354.209 120.031L353.51 120.729L359.475 126.694L360.174 125.996L354.209 120.031ZM353.846 117.223L363.062 126.439L358.051 131.45L348.835 122.234L353.846 117.223ZM349.668 122.798L350.783 124.827C350.147 125.069 349.48 125.261 348.781 125.405C348.082 125.548 347.393 125.646 346.712 125.7C346.031 125.754 345.404 125.763 344.831 125.727C344.822 125.521 344.8 125.275 344.764 124.988C344.728 124.701 344.683 124.415 344.63 124.128C344.585 123.833 344.531 123.582 344.468 123.376C345.283 123.492 346.152 123.501 347.075 123.403C348.015 123.304 348.88 123.103 349.668 122.798Z" fill="black"/>
<path d="M213.008 125.194H228.992V127.21H213.008V125.194ZM216.968 132.934H225.014V134.608H216.968V132.934ZM216.59 135.796H225.41V137.524H216.59V135.796ZM219.92 133.762H221.954V140.098H219.92V133.762ZM213.692 128.56H226.724V130.54H215.852V140.566H213.692V128.56ZM226.112 128.56H228.326V138.406C228.326 138.922 228.254 139.318 228.11 139.594C227.966 139.882 227.714 140.098 227.354 140.242C226.982 140.398 226.526 140.488 225.986 140.512C225.458 140.548 224.828 140.566 224.096 140.566C224.048 140.29 223.952 139.978 223.808 139.63C223.676 139.282 223.538 138.982 223.394 138.73C223.694 138.742 224 138.754 224.312 138.766C224.624 138.778 224.906 138.784 225.158 138.784C225.422 138.772 225.596 138.766 225.68 138.766C225.848 138.766 225.962 138.742 226.022 138.694C226.082 138.634 226.112 138.538 226.112 138.406V128.56ZM217.652 131.026L219.362 130.522C219.578 130.81 219.776 131.14 219.956 131.512C220.148 131.884 220.292 132.208 220.388 132.484L218.588 133.078C218.516 132.79 218.39 132.454 218.21 132.07C218.03 131.686 217.844 131.338 217.652 131.026ZM222.728 130.558L224.546 131.062C224.306 131.494 224.066 131.914 223.826 132.322C223.598 132.718 223.376 133.066 223.16 133.366L221.63 132.898C221.762 132.682 221.894 132.436 222.026 132.16C222.17 131.884 222.302 131.608 222.422 131.332C222.542 131.056 222.644 130.798 222.728 130.558ZM219.848 123.826H222.206V129.964H219.848V123.826Z" fill="black"/>
<path d="M215.744 79.336L217.792 79.832C217.536 80.6427 217.227 81.4373 216.864 82.216C216.501 82.984 216.112 83.704 215.696 84.376C215.28 85.048 214.848 85.6293 214.4 86.12C214.272 86.0133 214.096 85.8853 213.872 85.736C213.648 85.5867 213.419 85.4427 213.184 85.304C212.96 85.1547 212.763 85.0373 212.592 84.952C213.051 84.5147 213.477 83.9973 213.872 83.4C214.277 82.8027 214.635 82.1573 214.944 81.464C215.264 80.7707 215.531 80.0613 215.744 79.336ZM216.192 81.416H225.984V83.288H215.232L216.192 81.416ZM212.784 86.616H227.248V88.552H212.784V86.616ZM219.008 82.248H221.008V94.44H219.008V82.248Z" fill="black"/>
<path d="M301.988 224.524H314.192V226.522H301.988V224.524ZM300.602 215.722H315.452V227.512H313.256V217.72H302.708V227.548H300.602V215.722ZM308.738 216.55H310.808V219.79C310.808 220.018 310.826 220.162 310.862 220.222C310.91 220.27 311.024 220.294 311.204 220.294C311.24 220.294 311.318 220.294 311.438 220.294C311.57 220.294 311.696 220.294 311.816 220.294C311.948 220.294 312.044 220.294 312.104 220.294C312.212 220.294 312.29 220.276 312.338 220.24C312.398 220.192 312.44 220.102 312.464 219.97C312.5 219.838 312.524 219.634 312.536 219.358C312.656 219.454 312.818 219.556 313.022 219.664C313.238 219.76 313.46 219.85 313.688 219.934C313.928 220.006 314.144 220.06 314.336 220.096C314.252 220.648 314.132 221.074 313.976 221.374C313.82 221.674 313.61 221.884 313.346 222.004C313.094 222.124 312.764 222.184 312.356 222.184C312.26 222.184 312.146 222.184 312.014 222.184C311.882 222.184 311.738 222.184 311.582 222.184C311.438 222.184 311.3 222.184 311.168 222.184C311.036 222.184 310.928 222.184 310.844 222.184C310.268 222.184 309.824 222.112 309.512 221.968C309.212 221.824 309.008 221.578 308.9 221.23C308.792 220.882 308.738 220.408 308.738 219.808V216.55ZM299.882 211.69H316.064V213.778H299.882V211.69ZM304.796 213.274H306.92V216.874H304.796V213.274ZM308.738 213.274H310.916V216.874H308.738V213.274ZM304.904 216.136H306.92V217.918C306.92 218.518 306.842 219.136 306.686 219.772C306.53 220.408 306.236 221.014 305.804 221.59C305.372 222.166 304.742 222.67 303.914 223.102C303.818 222.97 303.674 222.814 303.482 222.634C303.29 222.454 303.086 222.28 302.87 222.112C302.666 221.944 302.492 221.818 302.348 221.734C303.104 221.35 303.662 220.942 304.022 220.51C304.394 220.078 304.634 219.634 304.742 219.178C304.85 218.722 304.904 218.284 304.904 217.864V216.136Z" fill="black"/>
<path d="M347.928 224.008H358.488V225.688H347.928V224.008ZM347.928 221.448H358.52V223.032H347.928V221.448ZM346.584 215.672H359.48V226.424H357.608V217.384H348.376V226.424H346.584V215.672ZM353.352 213.512H355.192V218.568C355.192 218.803 355.208 218.947 355.24 219C355.283 219.053 355.368 219.08 355.496 219.08C355.528 219.08 355.576 219.08 355.64 219.08C355.704 219.08 355.773 219.08 355.848 219.08C355.923 219.08 355.992 219.08 356.056 219.08C356.131 219.08 356.184 219.08 356.216 219.08C356.291 219.08 356.349 219.059 356.392 219.016C356.445 218.973 356.483 218.888 356.504 218.76C356.525 218.632 356.541 218.445 356.552 218.2C356.733 218.328 356.973 218.451 357.272 218.568C357.581 218.685 357.859 218.776 358.104 218.84C358.019 219.523 357.848 219.992 357.592 220.248C357.336 220.504 356.941 220.632 356.408 220.632C356.333 220.632 356.237 220.632 356.12 220.632C356.013 220.632 355.896 220.632 355.768 220.632C355.651 220.632 355.539 220.632 355.432 220.632C355.325 220.632 355.235 220.632 355.16 220.632C354.659 220.632 354.28 220.573 354.024 220.456C353.768 220.328 353.592 220.115 353.496 219.816C353.4 219.507 353.352 219.091 353.352 218.568V213.512ZM350.312 213.512H352.04V217.016C352.04 217.667 351.965 218.248 351.816 218.76C351.677 219.272 351.4 219.72 350.984 220.104C350.568 220.488 349.944 220.808 349.112 221.064C348.995 220.861 348.829 220.632 348.616 220.376C348.403 220.12 348.205 219.907 348.024 219.736C348.675 219.544 349.165 219.315 349.496 219.048C349.827 218.781 350.045 218.477 350.152 218.136C350.259 217.784 350.312 217.405 350.312 217V213.512ZM345.864 212.312H360.168V214.152H345.864V212.312Z" fill="black"/>
<path d="M213.008 301.984H218.354V304.126H213.008V301.984ZM221.81 298.006H224.06V310.984C224.06 311.488 224.102 311.812 224.186 311.956C224.27 312.088 224.48 312.154 224.816 312.154C224.888 312.154 225.008 312.154 225.176 312.154C225.344 312.154 225.53 312.154 225.734 312.154C225.938 312.154 226.124 312.154 226.292 312.154C226.46 312.154 226.586 312.154 226.67 312.154C226.91 312.154 227.09 312.052 227.21 311.848C227.33 311.644 227.414 311.278 227.462 310.75C227.522 310.21 227.57 309.46 227.606 308.5C227.786 308.632 227.996 308.764 228.236 308.896C228.488 309.028 228.74 309.148 228.992 309.256C229.244 309.352 229.472 309.424 229.676 309.472C229.604 310.624 229.478 311.554 229.298 312.262C229.13 312.97 228.854 313.48 228.47 313.792C228.098 314.116 227.57 314.278 226.886 314.278C226.79 314.278 226.628 314.278 226.4 314.278C226.172 314.278 225.926 314.278 225.662 314.278C225.41 314.278 225.176 314.278 224.96 314.278C224.744 314.278 224.582 314.278 224.474 314.278C223.79 314.278 223.25 314.176 222.854 313.972C222.47 313.78 222.2 313.444 222.044 312.964C221.888 312.472 221.81 311.806 221.81 310.966V298.006ZM217.274 298.006H219.524V314.422H217.274V298.006ZM227.75 300.688L229.316 302.632C228.692 303.052 228.032 303.472 227.336 303.892C226.64 304.3 225.932 304.702 225.212 305.098C224.504 305.482 223.808 305.842 223.124 306.178C223.052 305.938 222.926 305.656 222.746 305.332C222.566 304.996 222.404 304.714 222.26 304.486C222.908 304.138 223.562 303.748 224.222 303.316C224.882 302.884 225.512 302.44 226.112 301.984C226.724 301.528 227.27 301.096 227.75 300.688ZM212.36 310.138C212.852 309.994 213.422 309.82 214.07 309.616C214.718 309.4 215.402 309.166 216.122 308.914C216.842 308.65 217.556 308.392 218.264 308.14L218.678 310.084C217.778 310.492 216.854 310.894 215.906 311.29C214.97 311.686 214.112 312.046 213.332 312.37L212.36 310.138Z" fill="black"/>
<path d="M213.624 350.408H228.392V352.344H213.624V350.408ZM220.008 347.864H222.024V356.2C222.024 356.744 221.949 357.165 221.8 357.464C221.661 357.763 221.395 357.987 221 358.136C220.616 358.285 220.147 358.381 219.592 358.424C219.037 358.467 218.392 358.483 217.656 358.472C217.624 358.28 217.56 358.061 217.464 357.816C217.368 357.581 217.267 357.341 217.16 357.096C217.053 356.861 216.947 356.659 216.84 356.488C217.213 356.499 217.581 356.509 217.944 356.52C218.317 356.531 218.648 356.536 218.936 356.536C219.235 356.536 219.443 356.536 219.56 356.536C219.731 356.536 219.848 356.509 219.912 356.456C219.976 356.403 220.008 356.307 220.008 356.168V347.864ZM215.304 344.392H225.384V346.28H215.304V344.392ZM224.744 344.392H225.256L225.704 344.28L227.16 345.384C226.669 345.907 226.104 346.429 225.464 346.952C224.835 347.475 224.179 347.976 223.496 348.456C222.813 348.925 222.147 349.331 221.496 349.672C221.4 349.533 221.277 349.379 221.128 349.208C220.979 349.037 220.824 348.872 220.664 348.712C220.504 348.541 220.36 348.397 220.232 348.28C220.808 347.992 221.389 347.645 221.976 347.24C222.573 346.835 223.117 346.419 223.608 345.992C224.099 345.565 224.477 345.176 224.744 344.824V344.392Z" fill="black"/>
<path d="M185.261 386.674H199.758V389.011H185.261V386.674ZM186.572 392.792H198.238V395.11H186.572V392.792ZM184.197 399.233H200.765V401.551H184.197V399.233ZM203.273 385.629H210.645V387.339H203.273V385.629ZM202.969 394.369H220.012V396.155H202.969V394.369ZM203.482 388.593H210.303V390.284H203.482V388.593ZM207.643 400.411H216.896V402.121H207.643V400.411ZM202.893 391.899C203.577 391.861 204.35 391.817 205.211 391.766C206.085 391.715 207.003 391.665 207.966 391.614C208.929 391.551 209.891 391.487 210.854 391.424L210.835 393.153C209.454 393.254 208.074 393.356 206.693 393.457C205.312 393.546 204.096 393.628 203.045 393.704L202.893 391.899ZM205.914 386.294H208.061V392.222L205.914 392.488V386.294ZM214.521 384.85L217.029 385.059C216.852 385.502 216.674 385.92 216.497 386.313C216.32 386.706 216.155 387.048 216.003 387.339L214.027 387.035C214.128 386.693 214.223 386.326 214.312 385.933C214.413 385.54 214.483 385.179 214.521 384.85ZM213.571 390.55V391.766H217.276V390.55H213.571ZM213.571 387.757V388.954H217.276V387.757H213.571ZM211.481 386.047H219.442V393.476H211.481V386.047ZM208.232 394.711L210.284 395.395C209.79 396.206 209.195 396.966 208.498 397.675C207.801 398.384 207.048 399.024 206.237 399.594C205.426 400.164 204.603 400.652 203.767 401.057C203.678 400.905 203.552 400.715 203.387 400.487C203.222 400.246 203.051 400.012 202.874 399.784C202.697 399.556 202.532 399.372 202.38 399.233C203.165 398.916 203.932 398.53 204.679 398.074C205.426 397.618 206.104 397.105 206.712 396.535C207.333 395.965 207.839 395.357 208.232 394.711ZM206.123 397.333H218.53V402.615H216.079V399.043H208.479V402.71H206.123V397.333ZM222.159 389.296H238.879V391.557H222.159V389.296ZM229.284 384.869H231.716V402.71H229.284V384.869ZM228.79 390.531L230.804 391.215C230.373 392.216 229.879 393.185 229.322 394.122C228.765 395.059 228.15 395.946 227.479 396.782C226.82 397.618 226.111 398.391 225.351 399.1C224.604 399.797 223.818 400.398 222.995 400.905C222.868 400.715 222.704 400.5 222.501 400.259C222.298 400.018 222.089 399.784 221.874 399.556C221.659 399.315 221.462 399.119 221.285 398.967C222.07 398.536 222.83 398.017 223.565 397.409C224.312 396.788 225.015 396.111 225.674 395.376C226.333 394.629 226.922 393.843 227.441 393.02C227.973 392.197 228.423 391.367 228.79 390.531ZM232.153 390.626C232.52 391.437 232.976 392.241 233.521 393.039C234.066 393.837 234.667 394.597 235.326 395.319C235.997 396.041 236.7 396.706 237.435 397.314C238.17 397.922 238.923 398.435 239.696 398.853C239.519 398.992 239.316 399.182 239.088 399.423C238.873 399.651 238.664 399.892 238.461 400.145C238.271 400.398 238.113 400.626 237.986 400.829C237.188 400.322 236.422 399.727 235.687 399.043C234.952 398.346 234.249 397.586 233.578 396.763C232.907 395.927 232.292 395.047 231.735 394.122C231.178 393.197 230.677 392.254 230.234 391.291L232.153 390.626ZM243.477 397.181H255.865V398.967H243.477V397.181ZM243.971 394.122H256.72V396.022H243.971V394.122ZM241.121 400.259H257.936V402.216H241.121V400.259ZM248.398 392.963H250.754V401.608H248.398V392.963ZM245.206 389.866V390.892H253.642V389.866H245.206ZM245.206 387.263V388.251H253.642V387.263H245.206ZM242.964 385.534H255.998V392.621H242.964V385.534ZM243.952 392.431L246.175 393.077C245.896 393.698 245.561 394.306 245.168 394.901C244.775 395.496 244.357 396.054 243.914 396.573C243.471 397.092 243.034 397.542 242.603 397.922C242.451 397.783 242.261 397.624 242.033 397.447C241.805 397.27 241.571 397.099 241.33 396.934C241.089 396.757 240.874 396.617 240.684 396.516C241.343 396.022 241.963 395.414 242.546 394.692C243.141 393.957 243.61 393.204 243.952 392.431Z" fill="black"/>
<path d="M184.622 36.472H198.416V38.98H184.622V36.472ZM183.026 47.511H199.993V50.114H183.026V47.511ZM206.187 38.923V40.044H214.889V38.923H206.187ZM206.187 36.187V37.308H214.889V36.187H206.187ZM204.002 34.477H217.188V41.773H204.002V34.477ZM203.508 42.647H217.72V44.433H203.508V42.647ZM201.931 45.402H219.145V47.302H201.931V45.402ZM209.322 35.256H211.583V46.599H209.322V35.256ZM207.27 48.366L209.36 48.195C209.461 48.689 209.55 49.2337 209.626 49.829C209.702 50.4243 209.74 50.9247 209.74 51.33L207.517 51.596C207.517 51.178 207.498 50.665 207.46 50.057C207.422 49.4617 207.359 48.898 207.27 48.366ZM211.013 48.442L213.141 48.024C213.344 48.5053 213.54 49.0373 213.73 49.62C213.92 50.19 214.053 50.684 214.129 51.102L211.868 51.596C211.817 51.1907 211.71 50.6903 211.545 50.095C211.38 49.4997 211.203 48.9487 211.013 48.442ZM214.756 48.328L216.903 47.625C217.194 47.9417 217.492 48.3027 217.796 48.708C218.113 49.1007 218.404 49.4933 218.67 49.886C218.936 50.266 219.145 50.6207 219.297 50.95L216.998 51.748C216.871 51.4567 216.681 51.1083 216.428 50.703C216.187 50.3103 215.915 49.905 215.611 49.487C215.32 49.069 215.035 48.6827 214.756 48.328ZM203.85 47.644L206.054 48.176C205.839 48.8347 205.547 49.487 205.18 50.133C204.813 50.7917 204.401 51.3363 203.945 51.767L201.779 50.817C202.21 50.475 202.609 50.0127 202.976 49.43C203.343 48.8473 203.635 48.252 203.85 47.644ZM222.128 39.759H236.91V42.001H222.128V39.759ZM220.874 48.651H238.183V50.893H220.874V48.651ZM228.246 33.888H230.697V50.19H228.246V33.888ZM242.477 46.181H254.865V47.967H242.477V46.181ZM242.971 43.122H255.72V45.022H242.971V43.122ZM240.121 49.259H256.936V51.216H240.121V49.259ZM247.398 41.963H249.754V50.608H247.398V41.963ZM244.206 38.866V39.892H252.642V38.866H244.206ZM244.206 36.263V37.251H252.642V36.263H244.206ZM241.964 34.534H254.998V41.621H241.964V34.534ZM242.952 41.431L245.175 42.077C244.896 42.6977 244.561 43.3057 244.168 43.901C243.775 44.4963 243.357 45.0537 242.914 45.573C242.471 46.0923 242.034 46.542 241.603 46.922C241.451 46.7827 241.261 46.6243 241.033 46.447C240.805 46.2697 240.571 46.0987 240.33 45.934C240.089 45.7567 239.874 45.6173 239.684 45.516C240.343 45.022 240.963 44.414 241.546 43.692C242.141 42.9573 242.61 42.2037 242.952 41.431Z" fill="black"/>
<path d="M202.861 204.193L221.908 201.295L222.328 203.899L203.281 206.734L202.861 204.193ZM208.804 196.591H211.555V211.081C211.555 211.543 211.59 211.893 211.66 212.131C211.744 212.355 211.898 212.509 212.122 212.593C212.346 212.663 212.689 212.698 213.151 212.698C213.291 212.698 213.501 212.698 213.781 212.698C214.061 212.698 214.376 212.698 214.726 212.698C215.076 212.698 215.426 212.698 215.776 212.698C216.126 212.698 216.441 212.698 216.721 212.698C217.015 212.698 217.232 212.698 217.372 212.698C217.848 212.698 218.205 212.586 218.443 212.362C218.681 212.124 218.856 211.697 218.968 211.081C219.08 210.451 219.178 209.534 219.262 208.33C219.472 208.498 219.731 208.666 220.039 208.834C220.361 208.988 220.676 209.128 220.984 209.254C221.306 209.38 221.586 209.471 221.824 209.527C221.712 210.927 221.523 212.047 221.257 212.887C220.991 213.713 220.571 214.308 219.997 214.672C219.423 215.036 218.611 215.218 217.561 215.218C217.421 215.218 217.19 215.218 216.868 215.218C216.56 215.218 216.21 215.218 215.818 215.218C215.44 215.218 215.055 215.218 214.663 215.218C214.271 215.218 213.921 215.218 213.613 215.218C213.305 215.218 213.081 215.218 212.941 215.218C211.877 215.218 211.044 215.092 210.442 214.84C209.84 214.602 209.413 214.182 209.161 213.58C208.923 212.978 208.804 212.131 208.804 211.039V196.591ZM238.141 207.196L240.367 206.209C240.773 206.741 241.186 207.329 241.606 207.973C242.026 208.617 242.411 209.247 242.761 209.863C243.111 210.479 243.384 211.039 243.58 211.543L241.165 212.677C240.983 212.187 240.731 211.627 240.409 210.997C240.087 210.367 239.723 209.716 239.317 209.044C238.925 208.372 238.533 207.756 238.141 207.196ZM232.156 196.192H234.739V203.794H232.156V196.192ZM224.092 202.912H243.034V205.327H224.092V202.912ZM226.192 198.355H241.249V200.749H226.192V198.355ZM234.718 204.34H237.364V213.055C237.364 213.685 237.294 214.182 237.154 214.546C237.014 214.924 236.734 215.211 236.314 215.407C235.908 215.603 235.418 215.729 234.844 215.785C234.284 215.841 233.619 215.869 232.849 215.869C232.807 215.491 232.702 215.057 232.534 214.567C232.366 214.091 232.198 213.678 232.03 213.328C232.492 213.342 232.954 213.356 233.416 213.37C233.878 213.37 234.179 213.363 234.319 213.349C234.473 213.349 234.578 213.328 234.634 213.286C234.69 213.23 234.718 213.139 234.718 213.013V204.34ZM226.423 206.377L228.985 207.028C228.719 207.686 228.397 208.358 228.019 209.044C227.641 209.716 227.235 210.36 226.801 210.976C226.367 211.578 225.912 212.11 225.436 212.572C225.184 212.348 224.855 212.103 224.449 211.837C224.043 211.557 223.7 211.333 223.42 211.165C223.868 210.759 224.281 210.29 224.659 209.758C225.051 209.212 225.401 208.645 225.709 208.057C226.017 207.469 226.255 206.909 226.423 206.377ZM230.182 203.878H232.744V206.293C232.744 207.035 232.695 207.833 232.597 208.687C232.499 209.527 232.296 210.381 231.988 211.249C231.68 212.103 231.218 212.943 230.602 213.769C230 214.581 229.188 215.33 228.166 216.016C228.04 215.82 227.865 215.603 227.641 215.365C227.417 215.127 227.179 214.896 226.927 214.672C226.689 214.448 226.465 214.266 226.255 214.126C227.137 213.552 227.837 212.929 228.355 212.257C228.887 211.585 229.279 210.899 229.531 210.199C229.797 209.499 229.972 208.813 230.056 208.141C230.14 207.455 230.182 206.818 230.182 206.23V203.878ZM212.416 223.565C211.842 224.363 211.114 225.189 210.232 226.043C209.364 226.897 208.398 227.716 207.334 228.5C206.284 229.284 205.185 229.984 204.037 230.6C203.925 230.39 203.778 230.159 203.596 229.907C203.428 229.655 203.239 229.41 203.029 229.172C202.833 228.934 202.644 228.724 202.462 228.542C203.666 227.968 204.821 227.261 205.927 226.421C207.033 225.567 208.02 224.678 208.888 223.754C209.77 222.83 210.47 221.941 210.988 221.087H213.613C214.187 221.885 214.817 222.648 215.503 223.376C216.189 224.104 216.924 224.776 217.708 225.392C218.492 226.008 219.297 226.561 220.123 227.051C220.949 227.541 221.782 227.954 222.622 228.29C222.3 228.612 221.999 228.976 221.719 229.382C221.439 229.788 221.18 230.18 220.942 230.558C220.144 230.138 219.332 229.655 218.506 229.109C217.694 228.563 216.91 227.982 216.154 227.366C215.398 226.736 214.698 226.099 214.054 225.455C213.41 224.811 212.864 224.181 212.416 223.565ZM207.166 227.45H217.729V229.655H207.166V227.45ZM204.646 231.734H220.207V233.918H204.646V231.734ZM203.596 238.118H221.446V240.281H203.596V238.118ZM211.051 228.332H213.718V239.21H211.051V228.332ZM205.969 234.716L207.985 233.876C208.251 234.226 208.51 234.611 208.762 235.031C209.028 235.451 209.266 235.864 209.476 236.27C209.686 236.676 209.84 237.04 209.938 237.362L207.775 238.328C207.691 238.006 207.551 237.635 207.355 237.215C207.159 236.781 206.942 236.347 206.704 235.913C206.466 235.479 206.221 235.08 205.969 234.716ZM216.637 233.897L219.052 234.779C218.632 235.423 218.198 236.067 217.75 236.711C217.302 237.341 216.889 237.88 216.511 238.328L214.621 237.53C214.859 237.194 215.104 236.823 215.356 236.417C215.608 235.997 215.846 235.57 216.07 235.136C216.294 234.688 216.483 234.275 216.637 233.897ZM226.843 234.779H240.535V236.753H226.843V234.779ZM227.389 231.398H241.48V233.498H227.389V231.398ZM224.239 238.181H242.824V240.344H224.239V238.181ZM232.282 230.117H234.886V239.672H232.282V230.117ZM228.754 226.694V227.828H238.078V226.694H228.754ZM228.754 223.817V224.909H238.078V223.817H228.754ZM226.276 221.906H240.682V229.739H226.276V221.906ZM227.368 229.529L229.825 230.243C229.517 230.929 229.146 231.601 228.712 232.259C228.278 232.917 227.816 233.533 227.326 234.107C226.836 234.681 226.353 235.178 225.877 235.598C225.709 235.444 225.499 235.269 225.247 235.073C224.995 234.877 224.736 234.688 224.47 234.506C224.204 234.31 223.966 234.156 223.756 234.044C224.484 233.498 225.17 232.826 225.814 232.028C226.472 231.216 226.99 230.383 227.368 229.529Z" fill="white"/>
<defs>
<linearGradient id="paint0_linear_2_36" x1="220.75" y1="26" x2="220.75" y2="412.5" gradientUnits="userSpaceOnUse">
<stop stop-color="#FFFBA7"/>
<stop offset="1" stop-color="#FDFAEC"/>
</linearGradient>
<linearGradient id="paint1_linear_2_36" x1="221" y1="64" x2="221" y2="374" gradientUnits="userSpaceOnUse">
<stop stop-color="#FFFDDC"/>
<stop offset="1" stop-color="#E3F8FF"/>
</linearGradient>
<linearGradient id="paint2_linear_2_36" x1="221" y1="109" x2="221" y2="329" gradientUnits="userSpaceOnUse">
<stop stop-color="#C8EEFF"/>
<stop offset="1" stop-color="#E1F3FF"/>
</linearGradient>
<linearGradient id="paint3_linear_2_36" x1="221" y1="154" x2="221" y2="284" gradientUnits="userSpaceOnUse">
<stop stop-color="#58C7FF"/>
<stop offset="1" stop-color="#9FE0FF"/>
</linearGradient>
</defs>
</svg>
