<svg width="442" height="452" viewBox="0 0 442 452" fill="none" xmlns="http://www.w3.org/2000/svg">
<rect width="442" height="452" fill="white"/>
<path d="M272.5 26H169L27.5 166.5V270.5L169 412.5H272.5L414 270.5V166.5L272.5 26Z" fill="url(#paint0_linear_2_138)" stroke="#FFFDE8"/>
<path d="M262.507 64H179.493L66 176.691V260.106L179.493 374H262.507L376 260.106V176.691L262.507 64Z" fill="url(#paint1_linear_2_138)" stroke="#FEFFEA"/>
<path d="M250.457 109H191.543L111 188.974V248.172L191.543 329H250.457L331 248.172V188.974L250.457 109Z" fill="url(#paint2_linear_2_138)" stroke="#DDF4FF"/>
<path d="M414.37 270.528L28 167" stroke="#888686"/>
<path d="M272.528 26L186.777 346.024L169 412.37" stroke="#888686" stroke-opacity="0.82"/>
<path d="M169 26L272.528 412.37" stroke="#888686"/>
<path d="M414.37 167L28 270.528" stroke="#888886"/>
<path d="M238.406 154H203.594L156 201.257V236.238L203.594 284H238.406L286 236.238V201.257L238.406 154Z" fill="url(#paint3_linear_2_138)" stroke="#B9E7FD"/>
<path d="M126.044 212.194H142.028V214.21H126.044V212.194ZM132.83 210.718H135.08V227.62H132.83V210.718ZM132.272 220.996L134.108 221.752C133.688 222.352 133.208 222.928 132.668 223.48C132.14 224.032 131.564 224.554 130.94 225.046C130.328 225.526 129.686 225.964 129.014 226.36C128.354 226.768 127.688 227.116 127.016 227.404C126.896 227.224 126.752 227.02 126.584 226.792C126.416 226.564 126.236 226.342 126.044 226.126C125.852 225.91 125.678 225.73 125.522 225.586C126.182 225.358 126.836 225.082 127.484 224.758C128.132 224.422 128.756 224.056 129.356 223.66C129.956 223.252 130.502 222.826 130.994 222.382C131.498 221.926 131.924 221.464 132.272 220.996ZM135.692 221.068C136.052 221.524 136.484 221.974 136.988 222.418C137.504 222.85 138.062 223.27 138.662 223.678C139.274 224.074 139.91 224.434 140.57 224.758C141.23 225.07 141.89 225.34 142.55 225.568C142.382 225.712 142.196 225.892 141.992 226.108C141.8 226.336 141.614 226.564 141.434 226.792C141.266 227.032 141.122 227.248 141.002 227.44C140.33 227.164 139.664 226.822 139.004 226.414C138.344 226.018 137.702 225.58 137.078 225.1C136.466 224.608 135.89 224.086 135.35 223.534C134.822 222.982 134.348 222.412 133.928 221.824L135.692 221.068ZM129.662 219.448V220.546H138.392V219.448H129.662ZM129.662 216.856V217.936H138.392V216.856H129.662ZM127.556 215.236H140.606V222.166H127.556V215.236Z" fill="black"/>
<path d="M82.744 213.856L84.552 214.432V222.752H82.744V213.856ZM93.896 213.952H95.752V222.624C95.752 223.051 95.704 223.413 95.608 223.712C95.512 224 95.3253 224.224 95.048 224.384C94.7707 224.544 94.44 224.645 94.056 224.688C93.6827 224.731 93.2453 224.752 92.744 224.752C92.7227 224.571 92.6747 224.363 92.6 224.128C92.5253 223.893 92.44 223.659 92.344 223.424C92.2587 223.189 92.168 222.987 92.072 222.816C92.4027 222.827 92.7173 222.837 93.016 222.848C93.3147 222.848 93.5173 222.848 93.624 222.848C93.7307 222.848 93.8 222.827 93.832 222.784C93.8747 222.741 93.896 222.672 93.896 222.576V213.952ZM81.496 222.432C82.1787 222.293 83 222.112 83.96 221.888C84.92 221.653 85.896 221.419 86.888 221.184L87.096 222.8C86.2107 223.045 85.3147 223.285 84.408 223.52C83.5013 223.755 82.6747 223.973 81.928 224.176L81.496 222.432ZM86.648 215.76H88.44V220.048C88.44 220.763 88.3813 221.472 88.264 222.176C88.1573 222.869 87.944 223.541 87.624 224.192C87.304 224.843 86.8293 225.445 86.2 226C85.5707 226.555 84.7333 227.04 83.688 227.456C83.6133 227.317 83.5067 227.152 83.368 226.96C83.24 226.779 83.096 226.603 82.936 226.432C82.7867 226.261 82.648 226.123 82.52 226.016C83.4373 225.653 84.168 225.248 84.712 224.8C85.2667 224.341 85.6827 223.856 85.96 223.344C86.2373 222.821 86.4187 222.283 86.504 221.728C86.6 221.163 86.648 220.592 86.648 220.016V215.76ZM89.704 213.952H94.872V215.696H91.512V227.44H89.704V213.952ZM87.256 212.432L88.968 213.648C88.4667 213.936 87.9387 214.224 87.384 214.512C86.8293 214.789 86.28 215.051 85.736 215.296C85.2027 215.541 84.696 215.749 84.216 215.92L82.984 214.864C83.432 214.661 83.9173 214.427 84.44 214.16C84.9627 213.883 85.4693 213.595 85.96 213.296C86.4613 212.987 86.8933 212.699 87.256 212.432Z" fill="black"/>
<path d="M35.545 180.011H52.455V182.386H35.545V180.011ZM42.689 175.907H45.197V181.265H42.689V175.907ZM39.535 184.419L42.195 185.103C41.8023 186.167 41.34 187.212 40.808 188.238C40.2887 189.264 39.7313 190.227 39.136 191.126C38.5407 192.013 37.9327 192.785 37.312 193.444C37.1347 193.279 36.9003 193.096 36.609 192.893C36.3303 192.69 36.0453 192.488 35.754 192.285C35.4627 192.082 35.2093 191.918 34.994 191.791C35.6273 191.221 36.229 190.543 36.799 189.758C37.369 188.973 37.8883 188.124 38.357 187.212C38.8257 186.287 39.2183 185.356 39.535 184.419ZM45.805 185.312L48.123 184.381C48.541 184.989 48.9717 185.635 49.415 186.319C49.8583 187.003 50.289 187.7 50.707 188.409C51.125 189.106 51.4987 189.783 51.828 190.442C52.17 191.101 52.4423 191.702 52.645 192.247L50.061 193.368C49.8837 192.849 49.6367 192.253 49.32 191.582C49.016 190.911 48.6677 190.22 48.275 189.511C47.895 188.789 47.4897 188.067 47.059 187.345C46.641 186.623 46.223 185.945 45.805 185.312ZM35.621 199.819H52.398V202.042H35.621V199.819ZM39.193 208.825H49.092V210.877H39.193V208.825ZM39.269 213.442H48.883V215.551H39.269V213.442ZM42.651 200.617L45.444 201.187C45.3047 201.706 45.159 202.232 45.007 202.764C44.855 203.283 44.7093 203.784 44.57 204.265C44.4433 204.734 44.3103 205.152 44.171 205.519L42.005 204.968C42.1063 204.55 42.2013 204.094 42.29 203.6C42.3787 203.093 42.4547 202.58 42.518 202.061C42.594 201.542 42.6383 201.06 42.651 200.617ZM37.521 204.208H50.688V216.691H48.256V206.317H39.839V216.691H37.521V204.208ZM43.924 224.035C43.4047 224.757 42.746 225.504 41.948 226.277C41.1627 227.05 40.2887 227.791 39.326 228.5C38.376 229.209 37.3817 229.843 36.343 230.4C36.2417 230.21 36.1087 230.001 35.944 229.773C35.792 229.545 35.621 229.323 35.431 229.108C35.2537 228.893 35.0827 228.703 34.918 228.538C36.0073 228.019 37.0523 227.379 38.053 226.619C39.0537 225.846 39.9467 225.042 40.732 224.206C41.53 223.37 42.1633 222.566 42.632 221.793H45.007C45.5263 222.515 46.0963 223.205 46.717 223.864C47.3377 224.523 48.0027 225.131 48.712 225.688C49.4213 226.245 50.1497 226.746 50.897 227.189C51.6443 227.632 52.398 228.006 53.158 228.31C52.8667 228.601 52.5943 228.931 52.341 229.298C52.0877 229.665 51.8533 230.02 51.638 230.362C50.916 229.982 50.1813 229.545 49.434 229.051C48.6993 228.557 47.99 228.031 47.306 227.474C46.622 226.904 45.9887 226.328 45.406 225.745C44.8233 225.162 44.3293 224.592 43.924 224.035ZM39.174 227.55H48.731V229.545H39.174V227.55ZM36.894 231.426H50.973V233.402H36.894V231.426ZM35.944 237.202H52.094V239.159H35.944V237.202ZM42.689 228.348H45.102V238.19H42.689V228.348ZM38.091 234.124L39.915 233.364C40.1557 233.681 40.39 234.029 40.618 234.409C40.8587 234.789 41.074 235.163 41.264 235.53C41.454 235.897 41.5933 236.227 41.682 236.518L39.725 237.392C39.649 237.101 39.5223 236.765 39.345 236.385C39.1677 235.992 38.9713 235.6 38.756 235.207C38.5407 234.814 38.319 234.453 38.091 234.124ZM47.743 233.383L49.928 234.181C49.548 234.764 49.1553 235.346 48.75 235.929C48.3447 236.499 47.971 236.987 47.629 237.392L45.919 236.67C46.1343 236.366 46.356 236.03 46.584 235.663C46.812 235.283 47.0273 234.897 47.23 234.504C47.4327 234.099 47.6037 233.725 47.743 233.383ZM37.977 257.181H50.365V258.967H37.977V257.181ZM38.471 254.122H51.22V256.022H38.471V254.122ZM35.621 260.259H52.436V262.216H35.621V260.259ZM42.898 252.963H45.254V261.608H42.898V252.963ZM39.706 249.866V250.892H48.142V249.866H39.706ZM39.706 247.263V248.251H48.142V247.263H39.706ZM37.464 245.534H50.498V252.621H37.464V245.534ZM38.452 252.431L40.675 253.077C40.3963 253.698 40.0607 254.306 39.668 254.901C39.2753 255.496 38.8573 256.054 38.414 256.573C37.9707 257.092 37.5337 257.542 37.103 257.922C36.951 257.783 36.761 257.624 36.533 257.447C36.305 257.27 36.0707 257.099 35.83 256.934C35.5893 256.757 35.374 256.617 35.184 256.516C35.8427 256.022 36.4633 255.414 37.046 254.692C37.6413 253.957 38.11 253.204 38.452 252.431Z" fill="black"/>
<path d="M389.222 183.355H406.816V185.844H389.222V183.355ZM392.053 213.138H403.852V215.437H392.053V213.138ZM392.015 207.324H403.852V209.585H392.015V207.324ZM390.837 201.624H405.22V216.653H402.788V203.942H393.136V216.672H390.837V201.624ZM396.404 198.774L399.387 199.173C399.096 199.882 398.785 200.573 398.456 201.244C398.127 201.915 397.829 202.492 397.563 202.973L395.302 202.517C395.441 202.15 395.581 201.751 395.72 201.32C395.872 200.889 396.005 200.452 396.119 200.009C396.246 199.566 396.341 199.154 396.404 198.774ZM389.488 226.524H394.77V228.823H389.488V226.524ZM396.86 221.869H399.292V236.746C399.292 237.43 399.21 237.962 399.045 238.342C398.88 238.722 398.595 239.013 398.19 239.216C397.785 239.419 397.265 239.552 396.632 239.615C396.011 239.691 395.264 239.729 394.39 239.729C394.365 239.488 394.301 239.21 394.2 238.893C394.111 238.589 394.004 238.285 393.877 237.981C393.75 237.664 393.624 237.398 393.497 237.183C394.118 237.208 394.7 237.221 395.245 237.221C395.79 237.221 396.157 237.221 396.347 237.221C396.537 237.221 396.67 237.183 396.746 237.107C396.822 237.031 396.86 236.911 396.86 236.746V221.869ZM393.991 226.524H394.466L394.884 226.429L396.442 226.999C396.163 228.734 395.745 230.311 395.188 231.73C394.643 233.149 393.997 234.396 393.25 235.473C392.515 236.537 391.692 237.405 390.78 238.076C390.653 237.886 390.476 237.677 390.248 237.449C390.02 237.208 389.779 236.98 389.526 236.765C389.285 236.55 389.07 236.385 388.88 236.271C389.754 235.676 390.533 234.928 391.217 234.029C391.901 233.117 392.477 232.072 392.946 230.894C393.427 229.703 393.776 228.411 393.991 227.018V226.524ZM399.14 224.643C399.444 225.91 399.83 227.126 400.299 228.291C400.78 229.456 401.344 230.546 401.99 231.559C402.636 232.572 403.383 233.478 404.232 234.276C405.093 235.061 406.056 235.707 407.12 236.214C406.93 236.366 406.721 236.562 406.493 236.803C406.265 237.044 406.05 237.303 405.847 237.582C405.657 237.848 405.492 238.095 405.353 238.323C403.884 237.487 402.636 236.41 401.61 235.093C400.584 233.763 399.729 232.243 399.045 230.533C398.361 228.823 397.791 226.986 397.335 225.023L399.14 224.643ZM404.479 224.833L406.626 226.334C406.081 226.891 405.505 227.468 404.897 228.063C404.289 228.658 403.681 229.222 403.073 229.754C402.478 230.286 401.914 230.748 401.382 231.141L399.729 229.868C400.248 229.437 400.793 228.937 401.363 228.367C401.946 227.797 402.509 227.208 403.054 226.6C403.599 225.979 404.074 225.39 404.479 224.833ZM391.977 257.181H404.365V258.967H391.977V257.181ZM392.471 254.122H405.22V256.022H392.471V254.122ZM389.621 260.259H406.436V262.216H389.621V260.259ZM396.898 252.963H399.254V261.608H396.898V252.963ZM393.706 249.866V250.892H402.142V249.866H393.706ZM393.706 247.263V248.251H402.142V247.263H393.706ZM391.464 245.534H404.498V252.621H391.464V245.534ZM392.452 252.431L394.675 253.077C394.396 253.698 394.061 254.306 393.668 254.901C393.275 255.496 392.857 256.054 392.414 256.573C391.971 257.092 391.534 257.542 391.103 257.922C390.951 257.783 390.761 257.624 390.533 257.447C390.305 257.27 390.071 257.099 389.83 256.934C389.589 256.757 389.374 256.617 389.184 256.516C389.843 256.022 390.463 255.414 391.046 254.692C391.641 253.957 392.11 253.204 392.452 252.431Z" fill="black"/>
<path d="M148.246 170.277L159.549 158.974L160.974 160.4L149.672 171.702L148.246 170.277ZM156.52 172.95L162.209 167.26L163.393 168.444L157.703 174.133L156.52 172.95ZM158.276 175.241L164.513 169.004L165.735 170.226L159.498 176.462L158.276 175.241ZM159.192 171.448L160.631 170.009L165.111 174.49L163.673 175.928L159.192 171.448ZM151.11 172.173L160.325 162.958L161.725 164.358L154.038 172.046L161.127 179.135L159.6 180.663L151.11 172.173ZM159.892 163.391L161.458 161.825L168.42 168.788C168.785 169.152 169.014 169.483 169.107 169.78C169.209 170.086 169.184 170.417 169.031 170.773C168.878 171.146 168.62 171.533 168.255 171.931C167.907 172.33 167.474 172.788 166.956 173.306C166.727 173.145 166.439 172.992 166.091 172.848C165.752 172.695 165.442 172.58 165.162 172.504C165.382 172.3 165.607 172.093 165.836 171.88C166.065 171.668 166.269 171.473 166.447 171.295C166.625 171.1 166.744 170.972 166.804 170.913C166.922 170.794 166.986 170.697 166.995 170.62C166.995 170.535 166.948 170.446 166.855 170.353L159.892 163.391ZM155.654 171.117L156.507 169.551C156.863 169.602 157.237 169.695 157.627 169.831C158.026 169.958 158.357 170.086 158.62 170.213L157.767 171.906C157.512 171.753 157.186 171.605 156.787 171.46C156.388 171.316 156.01 171.202 155.654 171.117ZM158.912 167.197L160.554 166.267C160.69 166.743 160.817 167.209 160.936 167.667C161.055 168.109 161.144 168.512 161.203 168.877L159.791 169.628C159.731 169.381 159.651 169.114 159.549 168.826C159.455 168.529 159.354 168.24 159.243 167.96C159.133 167.68 159.023 167.426 158.912 167.197ZM152.116 164.473L153.783 162.805L158.123 167.146L156.456 168.813L152.116 164.473ZM161 157.523L172.302 146.221L173.728 147.646L162.425 158.949L161 157.523ZM164.754 151.681L166.345 150.09L178.297 162.042L176.706 163.633L164.754 151.681ZM171.628 159.343L173.46 158.58C173.588 159.301 173.656 160.048 173.664 160.82C173.681 161.584 173.643 162.36 173.549 163.149C173.456 163.921 173.312 164.685 173.117 165.44C172.939 166.195 172.714 166.912 172.442 167.591C172.23 167.549 171.984 167.506 171.704 167.464C171.424 167.421 171.14 167.392 170.851 167.375C170.563 167.358 170.312 167.354 170.1 167.362C170.406 166.734 170.673 166.076 170.902 165.389C171.123 164.693 171.305 163.993 171.449 163.289C171.585 162.576 171.67 161.889 171.704 161.227C171.738 160.548 171.712 159.92 171.628 159.343ZM174.097 156.976C174.674 157.044 175.297 157.057 175.968 157.014C176.638 156.955 177.33 156.857 178.042 156.721C178.755 156.569 179.459 156.374 180.155 156.136C180.843 155.89 181.5 155.614 182.128 155.309C182.111 155.529 182.107 155.788 182.115 156.085C182.141 156.382 182.171 156.675 182.204 156.963C182.255 157.252 182.306 157.506 182.357 157.727C181.687 158.007 180.974 158.236 180.219 158.414C179.472 158.601 178.709 158.745 177.928 158.847C177.147 158.932 176.371 158.97 175.599 158.962C174.835 158.945 174.097 158.877 173.384 158.758L174.097 156.976ZM168.687 160.094L169.464 160.871L175.637 154.698L174.86 153.921L168.687 160.094ZM166.855 158.262L167.618 159.025L173.791 152.852L173.028 152.088L166.855 158.262ZM164.22 158.605L173.448 149.377L178.348 154.278L169.12 163.505L164.22 158.605Z" fill="black"/>
<path d="M113.785 145.701L122.248 137.238L123.56 138.551L115.098 147.013L113.785 145.701ZM117.847 149.876L126.626 141.096L127.86 142.329L119.08 151.109L117.847 149.876ZM117.179 146.47L123.345 140.304L124.567 141.526L118.401 147.692L117.179 146.47ZM113.005 146.482L114.362 145.124L117.802 148.563C118.284 149.046 118.797 149.589 119.34 150.192C119.883 150.796 120.415 151.441 120.936 152.127C121.456 152.813 121.916 153.522 122.316 154.254C122.723 154.978 123.025 155.702 123.221 156.426C123.063 156.434 122.863 156.468 122.621 156.528C122.388 156.581 122.15 156.645 121.909 156.72C121.675 156.788 121.479 156.864 121.32 156.947C121.147 156.275 120.879 155.616 120.517 154.967C120.155 154.318 119.74 153.692 119.273 153.089C118.805 152.485 118.326 151.916 117.836 151.38C117.345 150.845 116.878 150.355 116.433 149.91L113.005 146.482ZM119.827 148.846L121.151 147.522L125.427 151.799L124.103 153.123L119.827 148.846ZM122.814 154.005C123.146 153.583 123.515 153.093 123.922 152.534C124.33 151.961 124.76 151.358 125.212 150.724C125.672 150.083 126.129 149.446 126.581 148.812L127.848 149.921C127.449 150.517 127.037 151.124 126.615 151.742C126.193 152.361 125.782 152.953 125.382 153.519C124.997 154.084 124.639 154.609 124.307 155.091L122.814 154.005ZM123.108 145.565C124.036 146.131 124.96 146.527 125.88 146.753C126.8 146.979 127.731 147.006 128.674 146.832C129.625 146.651 130.605 146.236 131.616 145.588C131.616 145.784 131.631 146.01 131.661 146.267C131.699 146.516 131.744 146.764 131.797 147.013C131.857 147.27 131.921 147.492 131.989 147.681C130.835 148.337 129.723 148.733 128.652 148.869C127.581 148.989 126.51 148.884 125.438 148.552C124.367 148.22 123.247 147.703 122.078 147.002L123.108 145.565ZM126.457 143.755L128.425 143.348C128.342 143.823 128.241 144.317 128.12 144.83C128.007 145.335 127.882 145.829 127.746 146.312C127.611 146.78 127.479 147.213 127.35 147.613L125.767 147.839C125.88 147.439 125.982 146.998 126.072 146.516C126.17 146.025 126.253 145.543 126.321 145.067C126.389 144.577 126.434 144.14 126.457 143.755ZM138.987 145.072L126.146 132.231L127.232 131.145L140.073 143.986L138.987 145.072ZM137.375 129.488L144.084 122.779L145.419 124.114L138.71 130.823L137.375 129.488ZM133.788 125.947L141.233 118.503L146.754 124.024L145.351 125.427L141.165 121.24L135.123 127.282L133.788 125.947ZM132.974 126.762L134.388 125.347L141.674 132.633C141.968 132.927 142.221 133.12 142.432 133.21C142.636 133.293 142.858 133.259 143.099 133.109C143.348 132.95 143.68 132.664 144.095 132.249C144.216 132.128 144.404 131.939 144.661 131.683C144.917 131.427 145.204 131.14 145.521 130.823C145.845 130.499 146.169 130.174 146.494 129.85C146.818 129.526 147.108 129.235 147.365 128.979C147.629 128.715 147.821 128.523 147.942 128.402C148.319 128.025 148.56 127.701 148.666 127.429C148.771 127.142 148.749 126.833 148.598 126.501C148.44 126.162 148.149 125.721 147.727 125.178C147.923 125.132 148.138 125.068 148.372 124.985C148.598 124.895 148.824 124.789 149.05 124.668C149.277 124.548 149.469 124.438 149.627 124.34C150.035 124.868 150.348 125.355 150.566 125.8C150.778 126.237 150.88 126.656 150.872 127.056C150.872 127.448 150.748 127.851 150.499 128.266C150.265 128.681 149.903 129.134 149.412 129.624C149.322 129.714 149.171 129.865 148.96 130.076C148.756 130.28 148.519 130.518 148.247 130.789C147.983 131.053 147.708 131.328 147.421 131.615C147.135 131.902 146.859 132.177 146.595 132.441C146.331 132.705 146.098 132.939 145.894 133.142C145.698 133.339 145.555 133.482 145.464 133.572C144.913 134.123 144.423 134.545 143.993 134.84C143.563 135.134 143.152 135.303 142.76 135.349C142.368 135.394 141.972 135.307 141.572 135.088C141.165 134.862 140.724 134.511 140.248 134.036L132.974 126.762Z" fill="black"/>
<path d="M79.2184 132.695L89.55 118.656L91.4846 120.053L81.1128 134.052L79.2184 132.695ZM78.1571 124.03L79.9171 122.27L89.1872 131.54C89.4828 131.835 89.7291 132.037 89.9262 132.144C90.1232 132.234 90.3203 132.234 90.5173 132.144C90.7054 132.046 90.9472 131.849 91.2428 131.553C91.3324 131.464 91.4667 131.329 91.6458 131.15C91.825 130.971 92.0265 130.769 92.2504 130.546C92.4743 130.322 92.6983 130.098 92.9222 129.874C93.1461 129.65 93.3476 129.448 93.5268 129.269C93.7148 129.081 93.8537 128.942 93.9432 128.853C94.2478 128.548 94.4045 128.248 94.4135 127.953C94.4135 127.648 94.2522 127.263 93.9298 126.797C93.5984 126.322 93.0744 125.673 92.3579 124.849C92.5997 124.822 92.8729 124.764 93.1774 124.674C93.482 124.567 93.7731 124.455 94.0507 124.339C94.3373 124.213 94.5747 124.092 94.7628 123.976C95.5868 124.943 96.1824 125.781 96.5496 126.488C96.9079 127.187 97.0199 127.836 96.8855 128.436C96.7512 129.036 96.3481 129.672 95.6764 130.344C95.5868 130.434 95.439 130.581 95.233 130.787C95.036 130.984 94.812 131.208 94.5612 131.459C94.3194 131.701 94.0731 131.947 93.8223 132.198C93.5715 132.449 93.3476 132.673 93.1506 132.87C92.9535 133.067 92.8102 133.21 92.7206 133.3C92.0399 133.98 91.4264 134.433 90.8801 134.657C90.3426 134.89 89.8008 134.894 89.2544 134.67C88.717 134.437 88.099 133.971 87.4004 133.273L78.1571 124.03ZM103.711 112.046L104.503 109.99C105.103 110.071 105.744 110.183 106.424 110.326C107.105 110.469 107.754 110.626 108.372 110.796C108.99 110.966 109.523 111.15 109.971 111.347L109.152 113.617C108.722 113.42 108.202 113.223 107.593 113.026C106.984 112.829 106.335 112.646 105.645 112.475C104.964 112.296 104.32 112.153 103.711 112.046ZM92.8416 108.835L94.4941 107.182L99.3576 112.046L97.705 113.698L92.8416 108.835ZM91.9817 118.293L104.1 106.174L105.645 107.719L93.5268 119.838L91.9817 118.293ZM90.4098 114.034L100.043 104.401L101.574 105.933L91.9414 115.565L90.4098 114.034ZM99.6934 112.408L101.386 110.715L106.962 116.291C107.365 116.694 107.638 117.057 107.781 117.379C107.934 117.711 107.938 118.073 107.795 118.467C107.66 118.853 107.428 119.247 107.096 119.65C106.774 120.044 106.366 120.487 105.874 120.98C105.605 120.765 105.26 120.554 104.839 120.348C104.427 120.151 104.055 119.995 103.724 119.878C104.028 119.592 104.333 119.305 104.638 119.018C104.933 118.723 105.121 118.526 105.202 118.427C105.3 118.329 105.354 118.248 105.363 118.185C105.363 118.114 105.323 118.038 105.242 117.957L99.6934 112.408ZM95.6898 119.018L97.7454 117.796C97.9961 118.387 98.2201 119.023 98.4171 119.703C98.6052 120.375 98.7575 121.047 98.8739 121.719C98.9814 122.382 99.0306 123.013 99.0217 123.613C98.7172 123.631 98.3499 123.685 97.92 123.774C97.4811 123.855 97.1184 123.931 96.8318 124.003C96.8586 123.456 96.8228 122.892 96.7243 122.31C96.6258 121.71 96.4869 121.123 96.3078 120.55C96.1287 119.977 95.9227 119.466 95.6898 119.018ZM96.4959 115.015L98.135 113.376L99.68 114.921C100.155 115.395 100.634 115.937 101.118 116.546C101.592 117.146 102.009 117.823 102.367 118.575C102.716 119.318 102.958 120.151 103.092 121.074C103.227 121.978 103.187 122.977 102.972 124.07C102.766 124.025 102.515 123.998 102.219 123.989C101.924 123.98 101.624 123.985 101.319 124.003C101.023 124.012 100.764 124.039 100.54 124.083C100.737 123.152 100.786 122.305 100.688 121.544C100.598 120.774 100.41 120.084 100.123 119.475C99.8457 118.857 99.5188 118.306 99.1426 117.823C98.7575 117.33 98.3768 116.896 98.0006 116.519L96.4959 115.015ZM108.601 96.1116C108.744 96.9893 108.807 97.9835 108.789 99.0941C108.78 100.196 108.686 101.338 108.507 102.52C108.337 103.693 108.081 104.844 107.741 105.973C107.535 105.91 107.293 105.856 107.016 105.812C106.747 105.758 106.469 105.722 106.183 105.704C105.905 105.677 105.65 105.664 105.417 105.664C105.82 104.526 106.106 103.335 106.277 102.09C106.438 100.836 106.501 99.636 106.465 98.4896C106.438 97.3341 106.317 96.3176 106.102 95.4398L107.781 93.7604C108.659 93.9037 109.55 93.9888 110.455 94.0157C111.36 94.0426 112.26 94.0023 113.155 93.8948C114.051 93.7873 114.92 93.6261 115.762 93.4111C116.604 93.1962 117.401 92.9275 118.153 92.605C118.153 93.017 118.193 93.4425 118.274 93.8813C118.355 94.3202 118.44 94.7367 118.529 95.1308C117.75 95.3726 116.922 95.5831 116.044 95.7622C115.175 95.9324 114.302 96.0623 113.424 96.1519C112.537 96.2325 111.682 96.2728 110.858 96.2728C110.034 96.2728 109.282 96.219 108.601 96.1116ZM107.728 101.956L114.485 95.198L115.896 96.6087L109.138 103.366L107.728 101.956ZM108.856 106.309L118.811 96.3534L120.209 97.7506L110.253 107.706L108.856 106.309ZM112.269 111.065L123.688 99.645L125.072 101.029L113.652 112.449L112.269 111.065ZM110.777 100.035L112.484 98.3283L119.443 105.288L117.737 106.994L110.777 100.035ZM111.61 107.37L112.363 105.543C112.757 105.597 113.169 105.677 113.599 105.785C114.038 105.883 114.454 105.995 114.848 106.121C115.242 106.246 115.574 106.38 115.842 106.524L115.077 108.526C114.817 108.373 114.49 108.225 114.096 108.082C113.693 107.93 113.276 107.791 112.846 107.666C112.416 107.54 112.004 107.442 111.61 107.37ZM117.911 100.021L120.021 99.0404C120.164 99.7211 120.298 100.411 120.424 101.109C120.54 101.799 120.621 102.408 120.666 102.937L118.946 103.635C118.883 103.268 118.803 102.874 118.704 102.453C118.597 102.023 118.476 101.598 118.341 101.177C118.198 100.747 118.055 100.362 117.911 100.021ZM125.005 94.056L133.765 85.2964L135.028 86.5593L126.268 95.3189L125.005 94.056ZM123.191 91.5437L132.206 82.5287L133.55 83.8722L124.535 92.8872L123.191 91.5437ZM125.516 97.8984L137.406 86.0084L138.789 87.3922L126.899 99.2822L125.516 97.8984ZM125.502 87.5938L127.168 85.9278L133.281 92.0407L131.615 93.7067L125.502 87.5938ZM121.055 87.6609L121.781 88.3864L127.746 82.4213L127.02 81.6958L121.055 87.6609ZM119.215 85.8203L119.913 86.519L125.878 80.5538L125.18 79.8552L119.215 85.8203ZM116.407 86.1831L125.623 76.9666L130.634 81.9779L121.418 91.1943L116.407 86.1831ZM121.982 90.3614L124.011 89.2463C124.253 89.8822 124.445 90.5495 124.589 91.2481C124.732 91.9467 124.83 92.6364 124.884 93.3171C124.938 93.9978 124.947 94.6248 124.911 95.198C124.705 95.2069 124.459 95.2293 124.172 95.2652C123.885 95.301 123.599 95.3458 123.312 95.3995C123.017 95.4443 122.766 95.498 122.56 95.5607C122.676 94.7457 122.685 93.8769 122.587 92.9543C122.488 92.0139 122.287 91.1496 121.982 90.3614Z" fill="black"/>
<path d="M269.936 145.246L281.239 156.549L279.813 157.974L268.511 146.672L269.936 145.246ZM267.264 153.52L272.953 159.209L271.769 160.393L266.08 154.703L267.264 153.52ZM264.973 155.276L271.209 161.513L269.987 162.735L263.751 156.498L264.973 155.276ZM268.765 156.192L270.204 157.631L265.724 162.111L264.285 160.673L268.765 156.192ZM268.04 148.11L277.255 157.325L275.855 158.725L268.167 151.038L261.078 158.127L259.55 156.6L268.04 148.11ZM276.822 156.892L278.388 158.458L271.426 165.42C271.061 165.785 270.73 166.014 270.433 166.107C270.127 166.209 269.796 166.184 269.44 166.031C269.067 165.878 268.681 165.62 268.282 165.255C267.883 164.907 267.425 164.474 266.907 163.956C267.068 163.727 267.221 163.439 267.365 163.091C267.518 162.752 267.633 162.442 267.709 162.162C267.913 162.382 268.121 162.607 268.333 162.836C268.545 163.065 268.74 163.269 268.918 163.447C269.113 163.625 269.241 163.744 269.3 163.804C269.419 163.922 269.516 163.986 269.593 163.995C269.678 163.995 269.767 163.948 269.86 163.855L276.822 156.892ZM269.096 152.654L270.662 153.507C270.611 153.863 270.518 154.237 270.382 154.627C270.255 155.026 270.127 155.357 270 155.62L268.307 154.767C268.46 154.512 268.609 154.186 268.753 153.787C268.897 153.388 269.012 153.01 269.096 152.654ZM273.017 155.912L273.946 157.554C273.471 157.69 273.004 157.817 272.546 157.936C272.104 158.055 271.701 158.144 271.337 158.203L270.586 156.791C270.832 156.731 271.099 156.651 271.387 156.549C271.684 156.455 271.973 156.354 272.253 156.243C272.533 156.133 272.788 156.023 273.017 155.912ZM275.74 149.116L277.408 150.783L273.068 155.123L271.4 153.456L275.74 149.116ZM275.346 168.093L283.975 176.723L282.563 178.135L273.933 169.506L275.346 168.093ZM280.59 160.889L291.09 171.39L282.753 179.726L281.201 178.174L288.125 171.25L280.666 163.791L273.717 170.74L272.227 169.251L280.59 160.889ZM285.757 167.227L287.221 168.691L284.93 170.982C284.769 171.143 284.68 171.258 284.663 171.326C284.663 171.394 284.726 171.491 284.854 171.619C284.879 171.644 284.934 171.699 285.019 171.784C285.112 171.877 285.201 171.967 285.286 172.051C285.38 172.145 285.448 172.213 285.49 172.255C285.566 172.331 285.634 172.374 285.694 172.382C285.77 172.391 285.863 172.357 285.974 172.28C286.092 172.213 286.254 172.085 286.457 171.899C286.474 172.051 286.517 172.238 286.585 172.459C286.669 172.679 286.763 172.9 286.865 173.121C286.983 173.341 287.098 173.532 287.208 173.693C286.759 174.024 286.372 174.241 286.05 174.342C285.728 174.444 285.431 174.444 285.159 174.342C284.896 174.249 284.62 174.058 284.332 173.77C284.264 173.702 284.183 173.621 284.09 173.528C283.997 173.434 283.895 173.333 283.784 173.222C283.683 173.121 283.585 173.023 283.492 172.93C283.398 172.836 283.322 172.76 283.263 172.7C282.855 172.293 282.592 171.928 282.473 171.606C282.363 171.292 282.393 170.974 282.563 170.651C282.732 170.329 283.029 169.956 283.453 169.531L285.757 167.227ZM282.932 157.529L294.374 168.971L292.898 170.448L281.455 159.005L282.932 157.529ZM285.286 162.124L286.788 163.625L284.243 166.171L282.741 164.669L285.286 162.124ZM288.074 164.911L289.614 166.451L287.068 168.997L285.528 167.457L288.074 164.911ZM283.339 164.224L284.764 165.649L283.504 166.909C283.08 167.334 282.588 167.715 282.028 168.055C281.468 168.394 280.832 168.615 280.119 168.717C279.406 168.818 278.604 168.729 277.713 168.449C277.739 168.288 277.747 168.076 277.739 167.813C277.73 167.55 277.709 167.283 277.675 167.011C277.65 166.748 277.616 166.536 277.573 166.375C278.379 166.638 279.062 166.744 279.622 166.693C280.191 166.65 280.675 166.506 281.073 166.26C281.472 166.014 281.82 165.743 282.117 165.446L283.339 164.224Z" fill="black"/>
<path d="M291.07 119.263L301.207 129.4L299.861 130.746L289.724 120.609L291.07 119.263ZM294.713 117.317L303.176 125.78L301.83 127.126L293.367 118.663L294.713 117.317ZM299.872 119.082L301.321 120.53L290.697 131.154L289.249 129.706L299.872 119.082ZM294.363 124.117L295.053 125.78C294.336 125.953 293.589 126.081 292.813 126.164C292.043 126.24 291.266 126.262 290.482 126.232C289.705 126.21 288.94 126.138 288.185 126.017C287.446 125.897 286.737 125.731 286.058 125.52C286.104 125.323 286.138 125.093 286.16 124.829C286.19 124.573 286.209 124.313 286.217 124.049C286.239 123.785 286.243 123.547 286.228 123.336C286.854 123.585 287.514 123.792 288.208 123.958C288.917 124.124 289.63 124.241 290.346 124.309C291.063 124.377 291.76 124.396 292.439 124.366C293.126 124.328 293.767 124.245 294.363 124.117ZM296.286 126.063C296.15 126.651 296.063 127.288 296.026 127.975C296.003 128.661 296.026 129.362 296.094 130.079C296.161 130.795 296.271 131.501 296.422 132.195C296.588 132.889 296.791 133.545 297.033 134.163C296.844 134.141 296.614 134.137 296.342 134.152C296.086 134.167 295.826 134.193 295.562 134.231C295.298 134.269 295.068 134.31 294.872 134.356C294.668 133.684 294.51 132.975 294.397 132.229C294.283 131.482 294.216 130.72 294.193 129.943C294.178 129.159 294.208 128.382 294.283 127.613C294.366 126.851 294.495 126.112 294.668 125.395L296.286 126.063ZM297.141 141.987L309.982 129.146L311.068 130.232L298.227 143.073L297.141 141.987ZM314.332 136.551L323.507 145.726L316.775 152.458L315.361 151.044L320.792 145.613L314.388 139.209L308.901 144.697L307.543 143.339L314.332 136.551ZM312.782 139.888L320.317 147.423L319.061 148.679L311.526 141.144L312.782 139.888ZM310.327 142.321L317.895 149.89L316.594 151.191L309.025 143.622L310.327 142.321ZM319.66 138.847L321.086 140.273L310.462 150.896L309.037 149.471L319.66 138.847Z" fill="black"/>
<path d="M262.219 284.25L265.999 280.469L267.514 281.984L263.734 285.764L262.219 284.25ZM265.63 275.213L267.221 273.622L276.398 282.799C276.754 283.155 277.013 283.354 277.175 283.397C277.327 283.431 277.522 283.329 277.76 283.091C277.811 283.04 277.896 282.956 278.015 282.837C278.133 282.718 278.265 282.586 278.409 282.442C278.553 282.298 278.685 282.166 278.804 282.048C278.922 281.929 279.012 281.84 279.071 281.78C279.241 281.611 279.296 281.411 279.236 281.182C279.177 280.953 278.978 280.635 278.638 280.227C278.299 279.803 277.802 279.239 277.149 278.535C277.37 278.501 277.612 278.446 277.875 278.369C278.146 278.284 278.409 278.191 278.664 278.089C278.91 277.979 279.122 277.869 279.3 277.758C280.064 278.624 280.632 279.37 281.006 279.998C281.387 280.618 281.553 281.174 281.502 281.666C281.468 282.158 281.209 282.646 280.726 283.129C280.658 283.197 280.543 283.312 280.382 283.473C280.221 283.634 280.047 283.808 279.86 283.995C279.682 284.173 279.516 284.339 279.364 284.491C279.211 284.644 279.096 284.759 279.02 284.835C278.536 285.319 278.082 285.628 277.658 285.764C277.251 285.9 276.822 285.853 276.373 285.624C275.914 285.387 275.388 284.971 274.794 284.377L265.63 275.213ZM262.423 278.42L264.014 276.829L275.622 288.437L274.031 290.028L262.423 278.42ZM271.727 272.909L274.209 273.176C274.065 273.914 273.895 274.678 273.7 275.467C273.496 276.248 273.28 277.033 273.051 277.822C272.822 278.594 272.584 279.341 272.338 280.062C272.117 279.943 271.829 279.833 271.472 279.731C271.108 279.621 270.794 279.536 270.531 279.477C270.743 278.772 270.929 278.034 271.091 277.262C271.252 276.49 271.383 275.73 271.485 274.984C271.595 274.228 271.676 273.537 271.727 272.909ZM267.527 290.473C267.773 290.024 268.053 289.498 268.367 288.895C268.672 288.284 268.99 287.635 269.321 286.948C269.644 286.252 269.966 285.565 270.289 284.886L271.956 285.968C271.608 286.893 271.239 287.83 270.849 288.781C270.467 289.723 270.115 290.584 269.792 291.364L267.527 290.473ZM283.093 276.867L291.723 268.238L293.135 269.651L284.506 278.28L283.093 276.867ZM275.889 271.623L286.39 261.123L294.726 269.46L293.174 271.012L286.25 264.088L278.791 271.547L285.74 278.496L284.251 279.986L275.889 271.623ZM282.227 266.456L283.691 264.992L285.982 267.283C286.143 267.444 286.258 267.534 286.326 267.55C286.394 267.55 286.491 267.487 286.619 267.36C286.644 267.334 286.699 267.279 286.784 267.194C286.877 267.101 286.967 267.012 287.051 266.927C287.145 266.833 287.213 266.766 287.255 266.723C287.331 266.647 287.374 266.579 287.382 266.52C287.391 266.443 287.357 266.35 287.28 266.24C287.213 266.121 287.085 265.959 286.899 265.756C287.051 265.739 287.238 265.696 287.459 265.629C287.679 265.544 287.9 265.45 288.121 265.349C288.341 265.23 288.532 265.115 288.693 265.005C289.024 265.455 289.241 265.841 289.342 266.163C289.444 266.486 289.444 266.783 289.342 267.054C289.249 267.317 289.058 267.593 288.77 267.881C288.702 267.949 288.621 268.03 288.528 268.123C288.434 268.217 288.333 268.318 288.222 268.429C288.121 268.531 288.023 268.628 287.93 268.721C287.836 268.815 287.76 268.891 287.7 268.951C287.293 269.358 286.928 269.621 286.606 269.74C286.292 269.85 285.974 269.82 285.651 269.651C285.329 269.481 284.956 269.184 284.531 268.76L282.227 266.456ZM272.529 269.281L283.971 257.839L285.448 259.316L274.005 270.758L272.529 269.281ZM277.124 266.927L278.625 265.425L281.171 267.971L279.669 269.472L277.124 266.927ZM279.911 264.139L281.451 262.599L283.997 265.145L282.457 266.685L279.911 264.139ZM279.224 268.874L280.649 267.449L281.909 268.709C282.334 269.133 282.715 269.625 283.055 270.185C283.394 270.745 283.615 271.382 283.717 272.094C283.818 272.807 283.729 273.609 283.449 274.5C283.288 274.474 283.076 274.466 282.813 274.474C282.55 274.483 282.283 274.504 282.011 274.538C281.748 274.564 281.536 274.598 281.375 274.64C281.638 273.834 281.744 273.151 281.693 272.591C281.65 272.022 281.506 271.539 281.26 271.14C281.014 270.741 280.743 270.393 280.446 270.096L279.224 268.874Z" fill="black"/>
<path d="M288.67 316.441L288.817 314.484C289.345 314.333 289.926 314.182 290.56 314.032C291.193 313.881 291.816 313.756 292.427 313.658C293.03 313.553 293.554 313.496 293.999 313.488L293.886 315.638C293.471 315.631 292.962 315.665 292.359 315.74C291.755 315.815 291.129 315.913 290.481 316.034C289.832 316.155 289.228 316.291 288.67 316.441ZM297.269 315.627L297.619 313.511C298.042 313.39 298.517 313.262 299.045 313.126C299.565 312.983 300.09 312.844 300.618 312.708C301.146 312.572 301.658 312.459 302.156 312.368C302.654 312.263 303.092 312.187 303.469 312.142L303.141 314.507C302.801 314.529 302.39 314.578 301.907 314.654C301.425 314.729 300.916 314.824 300.38 314.937C299.845 315.035 299.309 315.148 298.773 315.276C298.23 315.397 297.729 315.514 297.269 315.627ZM289.949 310.524L291.997 309.744C292.004 310.309 291.997 310.89 291.974 311.486C291.944 312.074 291.906 312.648 291.861 313.206C291.816 313.749 291.755 314.247 291.68 314.699L289.983 315.219C290.036 314.744 290.069 314.235 290.085 313.692C290.1 313.134 290.096 312.58 290.073 312.029C290.058 311.471 290.017 310.969 289.949 310.524ZM284.993 313.941L295.153 303.781L296.42 305.048L286.261 315.208L284.993 313.941ZM288.048 308.352L289.474 306.927L291.295 308.748L289.87 310.174L288.048 308.352ZM293.581 308.816L295.481 308.228C295.655 309.517 295.647 310.83 295.459 312.165C295.27 313.485 294.938 314.797 294.463 316.102C293.98 317.399 293.392 318.681 292.698 319.949C292.434 319.851 292.11 319.768 291.725 319.7C291.34 319.617 290.982 319.568 290.65 319.553C291.359 318.391 291.966 317.203 292.472 315.989C292.97 314.767 293.324 313.545 293.535 312.323C293.746 311.101 293.762 309.932 293.581 308.816ZM296.828 309.28L298.841 308.714C299.09 310.29 299.087 311.856 298.83 313.409C298.574 314.963 298.117 316.513 297.461 318.059C296.805 319.59 295.994 321.118 295.029 322.641C294.742 322.521 294.399 322.411 293.999 322.313C293.614 322.215 293.252 322.155 292.913 322.132C293.871 320.707 294.689 319.27 295.368 317.822C296.039 316.366 296.511 314.922 296.782 313.488C297.061 312.048 297.076 310.645 296.828 309.28ZM310.987 311.072L298.146 298.231L299.232 297.145L312.073 309.986L310.987 311.072ZM311.456 286.618L311.479 284.989C311.796 284.883 312.139 284.789 312.509 284.706C312.886 284.616 313.252 284.544 313.606 284.491C313.961 284.423 314.262 284.393 314.511 284.401L314.534 286.166C314.285 286.143 313.983 286.158 313.629 286.211C313.274 286.249 312.905 286.301 312.52 286.369C312.135 286.437 311.781 286.52 311.456 286.618ZM315.597 288.293L317.317 287.32C318.245 289.349 318.799 291.381 318.98 293.418C319.161 295.454 318.969 297.427 318.403 299.335C318.237 299.29 318.022 299.256 317.758 299.233C317.509 299.21 317.249 299.191 316.978 299.176C316.721 299.161 316.499 299.158 316.31 299.165C316.951 297.393 317.211 295.586 317.091 293.746C316.97 291.89 316.472 290.073 315.597 288.293ZM306.954 293.248L315.597 284.604L316.887 285.894L308.243 294.538L306.954 293.248ZM311.411 295.692L314.194 292.909L315.45 294.164L312.667 296.948L311.411 295.692ZM306.275 293.927L307.632 292.569L310.698 295.635C311.121 296.058 311.566 296.54 312.033 297.083C312.494 297.619 312.935 298.196 313.357 298.814C313.787 299.425 314.153 300.063 314.455 300.726C314.749 301.383 314.937 302.046 315.02 302.718C314.862 302.695 314.654 302.691 314.398 302.706C314.149 302.729 313.896 302.755 313.64 302.785C313.399 302.816 313.195 302.853 313.029 302.899C312.946 302.303 312.776 301.733 312.52 301.19C312.271 300.64 311.966 300.115 311.604 299.618C311.249 299.112 310.876 298.641 310.483 298.203C310.084 297.758 309.703 297.355 309.341 296.993L306.275 293.927ZM308.809 287.614L310.178 286.245C311.158 287.18 312.124 288.063 313.074 288.892C314.025 289.707 314.937 290.438 315.812 291.087C316.68 291.728 317.487 292.249 318.233 292.648C318.98 293.048 319.64 293.301 320.213 293.406C320.786 293.512 321.247 293.429 321.594 293.158C321.759 293.052 321.707 292.803 321.435 292.411C321.164 292.004 320.741 291.483 320.168 290.85C320.447 290.842 320.764 290.804 321.118 290.736C321.48 290.661 321.786 290.582 322.035 290.499C323.015 291.645 323.528 292.573 323.573 293.282C323.626 293.998 323.283 294.545 322.544 294.922C321.971 295.3 321.311 295.462 320.564 295.409C319.825 295.364 319.018 295.137 318.143 294.73C317.268 294.323 316.336 293.768 315.348 293.067C314.353 292.358 313.308 291.547 312.214 290.635C311.121 289.707 309.986 288.7 308.809 287.614Z" fill="black"/>
<path d="M302.476 345.564L304.236 343.804C305.293 344.879 306.31 345.94 307.286 346.988C308.253 348.027 309.122 349.075 309.892 350.132C310.654 351.18 311.272 352.264 311.746 353.383C312.212 354.494 312.485 355.672 312.566 356.917C312.647 358.144 312.476 359.461 312.055 360.867C311.849 360.804 311.594 360.755 311.29 360.719C310.994 360.692 310.69 360.674 310.376 360.665C310.081 360.656 309.816 360.679 309.583 360.732C309.995 359.443 310.17 358.256 310.107 357.172C310.054 356.079 309.821 355.049 309.409 354.082C308.988 353.106 308.424 352.156 307.716 351.234C307.008 350.311 306.202 349.389 305.298 348.466C304.402 347.535 303.462 346.567 302.476 345.564ZM302.248 352.026L310.51 343.764L312.136 345.39L303.874 353.652L302.248 352.026ZM309.624 344.651L311.303 342.971L318.209 349.877C318.495 350.163 318.701 350.325 318.827 350.361C318.943 350.387 319.082 350.32 319.243 350.159C319.279 350.123 319.337 350.065 319.418 349.984C319.498 349.904 319.588 349.814 319.687 349.716C319.785 349.617 319.875 349.528 319.955 349.447C320.045 349.357 320.108 349.295 320.143 349.259C320.26 349.142 320.291 349.004 320.237 348.842C320.184 348.681 320.022 348.439 319.754 348.117C319.485 347.794 319.078 347.342 318.531 346.76C318.764 346.724 319.01 346.666 319.27 346.585C319.539 346.496 319.807 346.397 320.076 346.29C320.336 346.173 320.56 346.057 320.748 345.94C321.429 346.711 321.921 347.373 322.226 347.929C322.521 348.475 322.638 348.959 322.575 349.38C322.521 349.81 322.288 350.231 321.876 350.643C321.805 350.714 321.706 350.813 321.581 350.938C321.456 351.064 321.321 351.198 321.178 351.341C321.035 351.485 320.9 351.619 320.775 351.744C320.658 351.861 320.569 351.95 320.506 352.013C320.067 352.452 319.651 352.734 319.257 352.859C318.88 352.985 318.473 352.945 318.034 352.739C317.604 352.524 317.098 352.125 316.516 351.543L309.624 344.651ZM326.122 339.277L327.788 337.611L331.55 341.372L329.884 343.038L326.122 339.277ZM320.305 343.965C320.958 343.312 321.702 342.568 322.535 341.735C323.359 340.893 324.237 339.998 325.168 339.048C326.091 338.09 327.044 337.109 328.03 336.106C329.006 335.094 329.978 334.095 330.945 333.11L332.141 334.467C331.218 335.461 330.282 336.46 329.333 337.463C328.392 338.457 327.47 339.433 326.565 340.392C325.661 341.332 324.805 342.232 323.999 343.092C323.193 343.934 322.463 344.691 321.809 345.363L320.305 343.965ZM321.567 335.34L323.65 334.44C323.623 335.237 323.556 336.048 323.448 336.872C323.341 337.678 323.211 338.399 323.059 339.035L321.245 339.693C321.326 339.254 321.397 338.78 321.46 338.269C321.523 337.741 321.563 337.226 321.581 336.724C321.59 336.213 321.585 335.752 321.567 335.34ZM325.249 333.298L327.479 332.358C327.362 333.298 327.192 334.274 326.968 335.286C326.753 336.29 326.516 337.27 326.256 338.229C325.997 339.187 325.728 340.065 325.45 340.862L323.569 341.426C323.847 340.611 324.102 339.72 324.335 338.753C324.577 337.776 324.778 336.814 324.94 335.864C325.092 334.906 325.195 334.05 325.249 333.298ZM320.076 341.05L320.291 338.954C320.811 338.739 321.366 338.533 321.957 338.336C322.548 338.121 323.126 337.929 323.69 337.758C324.246 337.579 324.738 337.436 325.168 337.329L325.061 339.559C324.64 339.639 324.138 339.765 323.556 339.935C322.974 340.087 322.378 340.262 321.769 340.459C321.169 340.647 320.605 340.844 320.076 341.05ZM330.381 338.591L331.039 336.455C331.559 336.276 332.118 336.11 332.719 335.958C333.31 335.797 333.892 335.654 334.465 335.528C335.038 335.385 335.535 335.273 335.956 335.192L335.365 337.476C334.944 337.521 334.443 337.602 333.861 337.718C333.287 337.844 332.692 337.982 332.074 338.135C331.456 338.269 330.891 338.421 330.381 338.591ZM324.765 342.783L326.888 341.843C326.879 342.371 326.821 342.949 326.713 343.576C326.615 344.194 326.485 344.807 326.323 345.416C326.171 346.017 326.006 346.576 325.826 347.096C325.629 347.096 325.379 347.105 325.074 347.123C324.787 347.141 324.492 347.167 324.187 347.203C323.901 347.239 323.654 347.279 323.448 347.324C323.789 346.59 324.084 345.811 324.335 344.987C324.586 344.163 324.729 343.428 324.765 342.783ZM327.68 334.951L328.46 332.962C329.051 332.891 329.687 332.837 330.367 332.801C331.057 332.756 331.724 332.734 332.369 332.734C333.014 332.734 333.574 332.765 334.049 332.828L333.216 335.004C332.777 334.924 332.244 334.874 331.617 334.857C330.99 334.821 330.332 334.816 329.642 334.843C328.943 334.861 328.289 334.897 327.68 334.951ZM316.704 333.325L319.23 330.799L320.506 332.075L317.98 334.601L316.704 333.325ZM318.531 329.133L320.13 327.534L323.556 330.96C323.771 331.175 323.945 331.278 324.08 331.269C324.214 331.242 324.416 331.095 324.684 330.826C324.747 330.763 324.85 330.66 324.993 330.517C325.137 330.374 325.293 330.217 325.464 330.047C325.634 329.877 325.795 329.715 325.947 329.563C326.1 329.411 326.212 329.299 326.283 329.227C326.435 329.075 326.525 328.941 326.552 328.824C326.579 328.69 326.538 328.533 326.431 328.354C326.315 328.166 326.122 327.92 325.853 327.615C326.122 327.561 326.449 327.449 326.834 327.279C327.21 327.1 327.533 326.921 327.801 326.742C328.231 327.297 328.518 327.781 328.661 328.193C328.796 328.596 328.796 328.972 328.661 329.321C328.527 329.671 328.254 330.051 327.842 330.463C327.77 330.535 327.667 330.638 327.533 330.772C327.407 330.898 327.264 331.041 327.103 331.202C326.941 331.363 326.776 331.529 326.606 331.699C326.444 331.86 326.297 332.008 326.162 332.143C326.037 332.268 325.943 332.362 325.88 332.425C325.334 332.971 324.855 333.334 324.443 333.513C324.04 333.683 323.645 333.692 323.26 333.54C322.875 333.37 322.445 333.047 321.971 332.573L318.531 329.133ZM315.952 339.935C316.426 339.371 316.968 338.712 317.577 337.96C318.186 337.19 318.827 336.379 319.498 335.528C320.179 334.668 320.855 333.813 321.527 332.962L322.83 334.185C322.212 335.018 321.585 335.86 320.949 336.711C320.305 337.552 319.691 338.363 319.109 339.142C318.527 339.904 317.998 340.602 317.524 341.238L315.952 339.935ZM323.435 325.519L325.759 325.452C325.517 326.07 325.226 326.71 324.886 327.373C324.546 328.018 324.183 328.667 323.798 329.321C323.404 329.966 323.014 330.58 322.629 331.162C322.441 331.028 322.185 330.898 321.863 330.772C321.541 330.629 321.258 330.526 321.017 330.463C321.339 329.908 321.662 329.335 321.984 328.744C322.306 328.152 322.593 327.579 322.844 327.024C323.095 326.469 323.292 325.967 323.435 325.519ZM314.863 332.801L316.355 331.31L320.923 335.878L319.539 337.476L314.863 332.801ZM313.668 335.985L315.051 334.601L318.746 338.296L317.483 339.801L313.668 335.985ZM329.884 323.128L331.872 321.865C332.356 322.492 332.795 323.137 333.189 323.799C333.592 324.453 333.905 325.125 334.129 325.815C334.344 326.495 334.42 327.19 334.358 327.897L331.98 328.448C332.033 327.839 331.975 327.243 331.805 326.661C331.635 326.061 331.384 325.47 331.053 324.888C330.721 324.288 330.332 323.701 329.884 323.128ZM338.119 314.865L340.578 313.75C340.775 314.413 340.977 315.098 341.183 315.806C341.38 316.504 341.559 317.185 341.72 317.848C341.881 318.493 341.998 319.084 342.069 319.621L340.068 320.387C339.942 319.85 339.776 319.254 339.57 318.6C339.373 317.937 339.149 317.283 338.899 316.639C338.639 315.985 338.379 315.394 338.119 314.865ZM331.671 316.37L332.544 315.497L336.762 319.715C337.094 320.047 337.492 320.374 337.958 320.696C338.433 321.009 338.961 321.287 339.544 321.529C340.126 321.771 340.762 321.959 341.451 322.093C342.15 322.219 342.893 322.272 343.682 322.254C344.47 322.237 345.303 322.129 346.18 321.932C347.058 321.717 347.976 321.39 348.935 320.951C348.926 321.193 348.939 321.475 348.975 321.798C349.011 322.12 349.056 322.443 349.109 322.765C349.172 323.078 349.239 323.352 349.311 323.585C348.406 323.97 347.515 324.243 346.637 324.404C345.759 324.565 344.922 324.65 344.125 324.659C343.328 324.65 342.584 324.588 341.895 324.471C341.205 324.355 340.591 324.207 340.054 324.028C339.526 323.84 339.087 323.652 338.737 323.464C338.952 323.804 339.154 324.238 339.342 324.767C339.539 325.286 339.7 325.886 339.826 326.567C339.951 327.23 340.018 327.951 340.027 328.73C340.045 329.5 339.978 330.32 339.826 331.189C339.682 332.049 339.432 332.926 339.073 333.822C338.876 333.768 338.625 333.723 338.321 333.688C338.016 333.652 337.703 333.625 337.381 333.607C337.058 333.589 336.785 333.585 336.561 333.594C337.072 332.474 337.407 331.404 337.569 330.383C337.73 329.344 337.766 328.376 337.676 327.481C337.587 326.585 337.407 325.761 337.139 325.009C336.87 324.238 336.552 323.562 336.185 322.98C335.818 322.38 335.428 321.874 335.016 321.462L330.797 317.243L331.671 316.37ZM349.445 315.658L358.205 306.898L359.468 308.161L350.708 316.921L349.445 315.658ZM347.631 313.146L356.646 304.131L357.99 305.474L348.975 314.489L347.631 313.146ZM349.956 319.5L361.846 307.61L363.23 308.994L351.34 320.884L349.956 319.5ZM349.942 309.196L351.608 307.53L357.721 313.643L356.055 315.309L349.942 309.196ZM345.495 309.263L346.221 309.988L352.186 304.023L351.46 303.298L345.495 309.263ZM343.655 307.422L344.353 308.121L350.318 302.156L349.62 301.457L343.655 307.422ZM340.847 307.785L350.063 298.568L355.074 303.58L345.858 312.796L340.847 307.785ZM346.422 311.963L348.451 310.848C348.693 311.484 348.885 312.151 349.029 312.85C349.172 313.549 349.271 314.238 349.324 314.919C349.378 315.6 349.387 316.227 349.351 316.8C349.145 316.809 348.899 316.831 348.612 316.867C348.326 316.903 348.039 316.948 347.752 317.001C347.457 317.046 347.206 317.1 347 317.163C347.116 316.348 347.125 315.479 347.027 314.556C346.928 313.616 346.727 312.751 346.422 311.963Z" fill="black"/>
<path d="M155.751 260.006L159.531 263.786L158.016 265.301L154.236 261.521L155.751 260.006ZM164.788 263.417L166.379 265.008L157.202 274.185C156.845 274.541 156.646 274.8 156.603 274.961C156.57 275.114 156.671 275.309 156.909 275.547C156.96 275.598 157.045 275.683 157.164 275.802C157.282 275.92 157.414 276.052 157.558 276.196C157.702 276.34 157.834 276.472 157.953 276.591C158.071 276.709 158.161 276.799 158.22 276.858C158.39 277.028 158.589 277.083 158.818 277.023C159.047 276.964 159.365 276.765 159.773 276.425C160.197 276.086 160.761 275.589 161.466 274.936C161.5 275.157 161.555 275.398 161.631 275.662C161.716 275.933 161.809 276.196 161.911 276.451C162.021 276.697 162.132 276.909 162.242 277.087C161.376 277.851 160.63 278.419 160.002 278.793C159.382 279.174 158.827 279.34 158.334 279.289C157.842 279.255 157.354 278.996 156.871 278.513C156.803 278.445 156.688 278.33 156.527 278.169C156.366 278.008 156.192 277.834 156.005 277.647C155.827 277.469 155.662 277.303 155.509 277.151C155.356 276.998 155.242 276.883 155.165 276.807C154.682 276.323 154.372 275.869 154.236 275.445C154.1 275.038 154.147 274.609 154.376 274.16C154.614 273.701 155.029 273.175 155.623 272.581L164.788 263.417ZM161.58 260.21L163.171 261.801L151.563 273.409L149.972 271.818L161.58 260.21ZM167.091 269.514L166.824 271.996C166.086 271.852 165.322 271.682 164.533 271.487C163.752 271.283 162.967 271.067 162.178 270.838C161.406 270.609 160.659 270.371 159.938 270.125C160.057 269.904 160.167 269.616 160.269 269.259C160.379 268.895 160.464 268.581 160.524 268.318C161.228 268.53 161.966 268.716 162.738 268.878C163.511 269.039 164.27 269.17 165.017 269.272C165.772 269.382 166.463 269.463 167.091 269.514ZM149.527 265.314C149.976 265.56 150.503 265.84 151.105 266.154C151.716 266.459 152.365 266.777 153.052 267.108C153.748 267.431 154.436 267.753 155.114 268.076L154.032 269.743C153.108 269.395 152.17 269.026 151.22 268.636C150.278 268.254 149.416 267.902 148.636 267.579L149.527 265.314ZM170.477 270.787L181.779 282.089L180.354 283.515L169.051 272.212L170.477 270.787ZM176.319 274.541L177.91 276.132L165.959 288.084L164.368 286.493L176.319 274.541ZM168.657 281.415L169.421 283.247C168.699 283.375 167.953 283.443 167.18 283.451C166.417 283.468 165.64 283.43 164.851 283.336C164.079 283.243 163.315 283.099 162.56 282.904C161.805 282.726 161.088 282.501 160.409 282.229C160.452 282.017 160.494 281.771 160.536 281.491C160.579 281.211 160.609 280.927 160.626 280.638C160.642 280.35 160.647 280.099 160.638 279.887C161.266 280.193 161.924 280.46 162.611 280.689C163.307 280.91 164.007 281.092 164.711 281.236C165.424 281.372 166.111 281.457 166.773 281.491C167.452 281.525 168.08 281.499 168.657 281.415ZM171.024 283.884C170.956 284.461 170.944 285.084 170.986 285.755C171.045 286.425 171.143 287.117 171.279 287.829C171.432 288.542 171.627 289.246 171.864 289.942C172.11 290.63 172.386 291.287 172.692 291.915C172.471 291.898 172.212 291.894 171.915 291.902C171.618 291.928 171.325 291.958 171.037 291.991C170.748 292.042 170.494 292.093 170.273 292.144C169.993 291.474 169.764 290.761 169.586 290.006C169.399 289.259 169.255 288.496 169.153 287.715C169.068 286.934 169.03 286.158 169.039 285.386C169.056 284.622 169.124 283.884 169.242 283.171L171.024 283.884ZM167.906 278.474L167.129 279.251L173.303 285.424L174.079 284.647L167.906 278.474ZM169.739 276.642L168.975 277.405L175.148 283.578L175.912 282.815L169.739 276.642ZM169.395 274.007L178.623 283.235L173.723 288.135L164.495 278.907L169.395 274.007Z" fill="black"/>
<path d="M132.671 290.374L134.006 291.709L129.152 296.563L127.817 295.228L132.671 290.374ZM130.838 287.297L137.06 293.52L135.963 294.617L129.74 288.394L130.838 287.297ZM127.251 292.286L126.629 292.909L131.505 297.785L132.128 297.163L127.251 292.286ZM128.824 290.714L128.213 291.325L133.089 296.201L133.7 295.59L128.824 290.714ZM128.541 288.372L136.11 295.941L131.856 300.195L124.287 292.626L128.541 288.372ZM128.111 297.717L129.808 297.626C130.08 298.185 130.348 298.762 130.611 299.357C130.883 299.961 131.132 300.534 131.358 301.077C131.6 301.62 131.799 302.099 131.958 302.514L129.967 302.469C129.838 302.084 129.676 301.628 129.48 301.1C129.292 300.579 129.08 300.029 128.847 299.448C128.613 298.867 128.368 298.29 128.111 297.717ZM135.872 287.082L137.275 288.485L135.669 290.091L134.266 288.689L135.872 287.082ZM130.962 283.756L140.681 293.474L138.18 295.975L136.789 294.583L138.056 293.316L131.064 286.324L129.797 287.591L128.462 286.256L130.962 283.756ZM126.539 294.334L126.855 296.325C126.342 296.22 125.781 296.05 125.17 295.816C124.559 295.597 123.948 295.334 123.337 295.024C122.726 294.73 122.153 294.413 121.617 294.074C121.677 293.833 121.73 293.531 121.775 293.169C121.828 292.814 121.862 292.501 121.877 292.23C122.368 292.554 122.896 292.863 123.461 293.158C124.042 293.452 124.6 293.701 125.136 293.904C125.686 294.108 126.154 294.251 126.539 294.334ZM133.141 309.987L145.982 297.146L147.068 298.232L134.227 311.073L133.141 309.987ZM151.621 304.098L158.342 310.818L157.018 312.142L150.298 305.422L151.621 304.098ZM142.378 311.531L152.47 321.623L151.157 322.935L141.066 312.844L142.378 311.531ZM146.666 306.994L157.007 317.335L155.672 318.67L145.331 308.329L146.666 306.994ZM153.036 306.96L154.427 308.352C153.839 308.835 153.22 309.333 152.572 309.845C151.923 310.358 151.267 310.871 150.603 311.384C149.947 311.905 149.298 312.41 148.657 312.9C148.016 313.39 147.401 313.847 146.813 314.269C146.24 314.692 145.719 315.069 145.252 315.401L143.837 313.986C144.335 313.654 144.882 313.274 145.478 312.844C146.074 312.414 146.689 311.957 147.322 311.475C147.971 310.992 148.623 310.498 149.279 309.993C149.943 309.48 150.592 308.967 151.225 308.454C151.859 307.941 152.462 307.443 153.036 306.96ZM157.719 310.196L159.134 311.61C158.53 312.184 157.893 312.776 157.222 313.387C156.558 313.99 155.883 314.597 155.196 315.208C154.51 315.819 153.835 316.411 153.171 316.984C152.523 317.558 151.897 318.101 151.293 318.614C150.697 319.119 150.151 319.575 149.653 319.983L148.216 318.546C148.721 318.131 149.279 317.671 149.89 317.165C150.509 316.653 151.15 316.11 151.814 315.536C152.485 314.971 153.16 314.386 153.839 313.783C154.525 313.172 155.193 312.565 155.841 311.961C156.505 311.358 157.131 310.769 157.719 310.196Z" fill="black"/>
<path d="M92.9288 305.046L102.683 314.8L100.909 316.573L91.1554 306.819L92.9288 305.046ZM83.9945 311.723L95.992 323.721L94.1514 325.561L82.1539 313.564L83.9945 311.723ZM106.444 322.028L105.652 322.821L111.805 328.974L112.598 328.181L106.444 322.028ZM108.379 320.093L107.586 320.886L113.74 327.039L114.532 326.247L108.379 320.093ZM108.043 317.339L117.367 326.663L112.208 331.822L102.884 322.498L108.043 317.339ZM101.917 322.767L111.966 332.816L110.703 334.079L100.654 324.03L101.917 322.767ZM98.8536 323.6L111.026 335.772L109.682 337.115L97.5101 324.943L98.8536 323.6ZM111.254 321.652L112.853 323.251L104.832 331.271L103.233 329.672L111.254 321.652ZM100.533 329.471L102.132 330.828C101.854 331.249 101.532 331.697 101.164 332.171C100.797 332.646 100.47 333.027 100.184 333.313L98.4237 331.93C98.7193 331.634 99.0686 331.258 99.4716 330.801C99.8657 330.353 100.22 329.91 100.533 329.471ZM103.126 332.171L104.926 333.381C104.729 333.864 104.492 334.379 104.214 334.926C103.946 335.463 103.69 335.906 103.448 336.256L101.5 335.006C101.751 334.684 102.029 334.254 102.333 333.716C102.638 333.179 102.902 332.664 103.126 332.171ZM105.853 334.737L107.869 335.759C107.851 336.188 107.806 336.654 107.734 337.156C107.68 337.657 107.609 338.141 107.519 338.607C107.439 339.064 107.336 339.462 107.21 339.802L105.02 338.741C105.137 338.446 105.249 338.065 105.356 337.599C105.464 337.151 105.558 336.672 105.638 336.162C105.728 335.66 105.8 335.185 105.853 334.737ZM98.6252 326.542L99.8075 328.477C99.1895 328.79 98.5222 329.046 97.8057 329.243C97.0802 329.449 96.404 329.543 95.777 329.525L94.9172 327.321C95.4635 327.384 96.0726 327.339 96.7443 327.187C97.4161 327.035 98.043 326.82 98.6252 326.542ZM117.125 333.891L127.578 344.344L125.992 345.929L115.54 335.476L117.125 333.891ZM109.951 339.292L122.19 351.531L120.605 353.117L108.366 340.877L109.951 339.292ZM125.603 334.066L127.336 335.799L115.809 347.326L114.076 345.593L125.603 334.066ZM126.973 352.821L135.733 361.581L134.47 362.844L125.71 354.084L126.973 352.821ZM129.485 351.007L138.5 360.022L137.157 361.366L128.142 352.351L129.485 351.007ZM123.131 353.332L135.021 365.222L133.637 366.605L121.747 354.715L123.131 353.332ZM133.435 353.318L135.101 354.984L128.988 361.097L127.322 359.431L133.435 353.318ZM133.368 348.871L132.643 349.597L138.608 355.562L139.333 354.836L133.368 348.871ZM135.209 347.031L134.51 347.729L140.475 353.694L141.174 352.996L135.209 347.031ZM134.846 344.223L144.062 353.439L139.051 358.45L129.835 349.234L134.846 344.223ZM130.668 349.798L131.783 351.827C131.147 352.069 130.48 352.261 129.781 352.405C129.082 352.548 128.393 352.646 127.712 352.7C127.031 352.754 126.404 352.763 125.831 352.727C125.822 352.521 125.8 352.275 125.764 351.988C125.728 351.701 125.683 351.415 125.63 351.128C125.585 350.833 125.531 350.582 125.468 350.376C126.283 350.492 127.152 350.501 128.075 350.403C129.015 350.304 129.88 350.103 130.668 349.798Z" fill="black"/>
<path d="M312.197 77.0787L322.583 87.464L320.984 89.0628L310.599 78.6775L312.197 77.0787ZM302.269 85.4488L314.32 97.5L312.721 99.0988L300.67 87.0475L302.269 85.4488ZM315.368 81.378L317.209 83.2186C316.268 83.8903 315.283 84.58 314.253 85.2876C313.223 85.9951 312.193 86.6938 311.163 87.3834C310.133 88.0731 309.148 88.718 308.207 89.3181C307.276 89.9271 306.434 90.4556 305.681 90.9034L303.868 89.0897C304.656 88.6239 305.529 88.091 306.488 87.4909C307.455 86.8818 308.445 86.2325 309.457 85.5428C310.487 84.8532 311.508 84.1545 312.52 83.447C313.532 82.7394 314.481 82.0497 315.368 81.378ZM308.704 81.4586L317.424 90.1779L311.459 96.1431L309.779 94.4637L314.159 90.0839L307.119 83.0439L308.704 81.4586ZM322.811 91.6692L334.956 103.814L333.492 105.279L321.347 93.1336L322.811 91.6692ZM325.995 90.3929L336.26 100.657L334.849 102.068L324.585 91.8035L325.995 90.3929ZM329.206 91.6154L330.845 93.2545L326.909 97.191L325.27 95.5519L329.206 91.6154ZM333.358 95.7669L335.024 97.4328L331.087 101.369L329.421 99.7033L333.358 95.7669ZM327.204 97.7284L328.87 99.3943L323.362 104.903L321.696 103.237L327.204 97.7284ZM320.675 99.5824L319.896 100.362L326.304 106.77L327.083 105.991L320.675 99.5824ZM322.462 97.7956L321.709 98.5479L328.118 104.956L328.87 104.204L322.462 97.7956ZM322.032 95.1354L331.611 104.715L326.828 109.497L317.249 99.9183L322.032 95.1354ZM322.059 106.448L323.98 106.327C324.311 106.981 324.634 107.652 324.947 108.342C325.27 109.041 325.57 109.708 325.847 110.344C326.134 110.989 326.371 111.549 326.56 112.023L324.329 111.943C324.177 111.504 323.984 110.98 323.752 110.371C323.51 109.771 323.246 109.13 322.959 108.45C322.672 107.769 322.372 107.102 322.059 106.448ZM319.936 102.39L320.353 104.715C319.77 104.58 319.134 104.374 318.445 104.097C317.746 103.828 317.052 103.528 316.362 103.196C315.673 102.865 315.037 102.534 314.455 102.202C314.49 101.898 314.508 101.522 314.508 101.074C314.508 100.644 314.495 100.263 314.468 99.9317C315.05 100.299 315.668 100.648 316.322 100.98C316.994 101.311 317.652 101.602 318.297 101.853C318.942 102.104 319.488 102.283 319.936 102.39ZM336.125 106.891L346.578 117.344L344.992 118.929L334.54 108.476L336.125 106.891ZM328.951 112.292L341.19 124.531L339.605 126.117L327.366 113.877L328.951 112.292ZM344.603 107.066L346.336 108.799L334.809 120.326L333.076 118.593L344.603 107.066ZM345.973 125.821L354.733 134.581L353.47 135.844L344.71 127.084L345.973 125.821ZM348.485 124.007L357.5 133.022L356.157 134.366L347.142 125.351L348.485 124.007ZM342.131 126.332L354.021 138.222L352.637 139.605L340.747 127.715L342.131 126.332ZM352.435 126.318L354.101 127.984L347.988 134.097L346.322 132.431L352.435 126.318ZM352.368 121.871L351.643 122.597L357.608 128.562L358.333 127.836L352.368 121.871ZM354.209 120.031L353.51 120.729L359.475 126.694L360.174 125.996L354.209 120.031ZM353.846 117.223L363.062 126.439L358.051 131.45L348.835 122.234L353.846 117.223ZM349.668 122.798L350.783 124.827C350.147 125.069 349.48 125.261 348.781 125.405C348.082 125.548 347.393 125.646 346.712 125.7C346.031 125.754 345.404 125.763 344.831 125.727C344.822 125.521 344.8 125.275 344.764 124.988C344.728 124.701 344.683 124.415 344.63 124.128C344.585 123.833 344.531 123.582 344.468 123.376C345.283 123.492 346.152 123.501 347.075 123.403C348.015 123.304 348.88 123.103 349.668 122.798Z" fill="black"/>
<path d="M213.008 125.194H228.992V127.21H213.008V125.194ZM216.968 132.934H225.014V134.608H216.968V132.934ZM216.59 135.796H225.41V137.524H216.59V135.796ZM219.92 133.762H221.954V140.098H219.92V133.762ZM213.692 128.56H226.724V130.54H215.852V140.566H213.692V128.56ZM226.112 128.56H228.326V138.406C228.326 138.922 228.254 139.318 228.11 139.594C227.966 139.882 227.714 140.098 227.354 140.242C226.982 140.398 226.526 140.488 225.986 140.512C225.458 140.548 224.828 140.566 224.096 140.566C224.048 140.29 223.952 139.978 223.808 139.63C223.676 139.282 223.538 138.982 223.394 138.73C223.694 138.742 224 138.754 224.312 138.766C224.624 138.778 224.906 138.784 225.158 138.784C225.422 138.772 225.596 138.766 225.68 138.766C225.848 138.766 225.962 138.742 226.022 138.694C226.082 138.634 226.112 138.538 226.112 138.406V128.56ZM217.652 131.026L219.362 130.522C219.578 130.81 219.776 131.14 219.956 131.512C220.148 131.884 220.292 132.208 220.388 132.484L218.588 133.078C218.516 132.79 218.39 132.454 218.21 132.07C218.03 131.686 217.844 131.338 217.652 131.026ZM222.728 130.558L224.546 131.062C224.306 131.494 224.066 131.914 223.826 132.322C223.598 132.718 223.376 133.066 223.16 133.366L221.63 132.898C221.762 132.682 221.894 132.436 222.026 132.16C222.17 131.884 222.302 131.608 222.422 131.332C222.542 131.056 222.644 130.798 222.728 130.558ZM219.848 123.826H222.206V129.964H219.848V123.826Z" fill="black"/>
<path d="M215.744 79.336L217.792 79.832C217.536 80.6427 217.227 81.4373 216.864 82.216C216.501 82.984 216.112 83.704 215.696 84.376C215.28 85.048 214.848 85.6293 214.4 86.12C214.272 86.0133 214.096 85.8853 213.872 85.736C213.648 85.5867 213.419 85.4427 213.184 85.304C212.96 85.1547 212.763 85.0373 212.592 84.952C213.051 84.5147 213.477 83.9973 213.872 83.4C214.277 82.8027 214.635 82.1573 214.944 81.464C215.264 80.7707 215.531 80.0613 215.744 79.336ZM216.192 81.416H225.984V83.288H215.232L216.192 81.416ZM212.784 86.616H227.248V88.552H212.784V86.616ZM219.008 82.248H221.008V94.44H219.008V82.248Z" fill="black"/>
<path d="M301.988 224.524H314.192V226.522H301.988V224.524ZM300.602 215.722H315.452V227.512H313.256V217.72H302.708V227.548H300.602V215.722ZM308.738 216.55H310.808V219.79C310.808 220.018 310.826 220.162 310.862 220.222C310.91 220.27 311.024 220.294 311.204 220.294C311.24 220.294 311.318 220.294 311.438 220.294C311.57 220.294 311.696 220.294 311.816 220.294C311.948 220.294 312.044 220.294 312.104 220.294C312.212 220.294 312.29 220.276 312.338 220.24C312.398 220.192 312.44 220.102 312.464 219.97C312.5 219.838 312.524 219.634 312.536 219.358C312.656 219.454 312.818 219.556 313.022 219.664C313.238 219.76 313.46 219.85 313.688 219.934C313.928 220.006 314.144 220.06 314.336 220.096C314.252 220.648 314.132 221.074 313.976 221.374C313.82 221.674 313.61 221.884 313.346 222.004C313.094 222.124 312.764 222.184 312.356 222.184C312.26 222.184 312.146 222.184 312.014 222.184C311.882 222.184 311.738 222.184 311.582 222.184C311.438 222.184 311.3 222.184 311.168 222.184C311.036 222.184 310.928 222.184 310.844 222.184C310.268 222.184 309.824 222.112 309.512 221.968C309.212 221.824 309.008 221.578 308.9 221.23C308.792 220.882 308.738 220.408 308.738 219.808V216.55ZM299.882 211.69H316.064V213.778H299.882V211.69ZM304.796 213.274H306.92V216.874H304.796V213.274ZM308.738 213.274H310.916V216.874H308.738V213.274ZM304.904 216.136H306.92V217.918C306.92 218.518 306.842 219.136 306.686 219.772C306.53 220.408 306.236 221.014 305.804 221.59C305.372 222.166 304.742 222.67 303.914 223.102C303.818 222.97 303.674 222.814 303.482 222.634C303.29 222.454 303.086 222.28 302.87 222.112C302.666 221.944 302.492 221.818 302.348 221.734C303.104 221.35 303.662 220.942 304.022 220.51C304.394 220.078 304.634 219.634 304.742 219.178C304.85 218.722 304.904 218.284 304.904 217.864V216.136Z" fill="black"/>
<path d="M347.928 224.008H358.488V225.688H347.928V224.008ZM347.928 221.448H358.52V223.032H347.928V221.448ZM346.584 215.672H359.48V226.424H357.608V217.384H348.376V226.424H346.584V215.672ZM353.352 213.512H355.192V218.568C355.192 218.803 355.208 218.947 355.24 219C355.283 219.053 355.368 219.08 355.496 219.08C355.528 219.08 355.576 219.08 355.64 219.08C355.704 219.08 355.773 219.08 355.848 219.08C355.923 219.08 355.992 219.08 356.056 219.08C356.131 219.08 356.184 219.08 356.216 219.08C356.291 219.08 356.349 219.059 356.392 219.016C356.445 218.973 356.483 218.888 356.504 218.76C356.525 218.632 356.541 218.445 356.552 218.2C356.733 218.328 356.973 218.451 357.272 218.568C357.581 218.685 357.859 218.776 358.104 218.84C358.019 219.523 357.848 219.992 357.592 220.248C357.336 220.504 356.941 220.632 356.408 220.632C356.333 220.632 356.237 220.632 356.12 220.632C356.013 220.632 355.896 220.632 355.768 220.632C355.651 220.632 355.539 220.632 355.432 220.632C355.325 220.632 355.235 220.632 355.16 220.632C354.659 220.632 354.28 220.573 354.024 220.456C353.768 220.328 353.592 220.115 353.496 219.816C353.4 219.507 353.352 219.091 353.352 218.568V213.512ZM350.312 213.512H352.04V217.016C352.04 217.667 351.965 218.248 351.816 218.76C351.677 219.272 351.4 219.72 350.984 220.104C350.568 220.488 349.944 220.808 349.112 221.064C348.995 220.861 348.829 220.632 348.616 220.376C348.403 220.12 348.205 219.907 348.024 219.736C348.675 219.544 349.165 219.315 349.496 219.048C349.827 218.781 350.045 218.477 350.152 218.136C350.259 217.784 350.312 217.405 350.312 217V213.512ZM345.864 212.312H360.168V214.152H345.864V212.312Z" fill="black"/>
<path d="M213.008 301.984H218.354V304.126H213.008V301.984ZM221.81 298.006H224.06V310.984C224.06 311.488 224.102 311.812 224.186 311.956C224.27 312.088 224.48 312.154 224.816 312.154C224.888 312.154 225.008 312.154 225.176 312.154C225.344 312.154 225.53 312.154 225.734 312.154C225.938 312.154 226.124 312.154 226.292 312.154C226.46 312.154 226.586 312.154 226.67 312.154C226.91 312.154 227.09 312.052 227.21 311.848C227.33 311.644 227.414 311.278 227.462 310.75C227.522 310.21 227.57 309.46 227.606 308.5C227.786 308.632 227.996 308.764 228.236 308.896C228.488 309.028 228.74 309.148 228.992 309.256C229.244 309.352 229.472 309.424 229.676 309.472C229.604 310.624 229.478 311.554 229.298 312.262C229.13 312.97 228.854 313.48 228.47 313.792C228.098 314.116 227.57 314.278 226.886 314.278C226.79 314.278 226.628 314.278 226.4 314.278C226.172 314.278 225.926 314.278 225.662 314.278C225.41 314.278 225.176 314.278 224.96 314.278C224.744 314.278 224.582 314.278 224.474 314.278C223.79 314.278 223.25 314.176 222.854 313.972C222.47 313.78 222.2 313.444 222.044 312.964C221.888 312.472 221.81 311.806 221.81 310.966V298.006ZM217.274 298.006H219.524V314.422H217.274V298.006ZM227.75 300.688L229.316 302.632C228.692 303.052 228.032 303.472 227.336 303.892C226.64 304.3 225.932 304.702 225.212 305.098C224.504 305.482 223.808 305.842 223.124 306.178C223.052 305.938 222.926 305.656 222.746 305.332C222.566 304.996 222.404 304.714 222.26 304.486C222.908 304.138 223.562 303.748 224.222 303.316C224.882 302.884 225.512 302.44 226.112 301.984C226.724 301.528 227.27 301.096 227.75 300.688ZM212.36 310.138C212.852 309.994 213.422 309.82 214.07 309.616C214.718 309.4 215.402 309.166 216.122 308.914C216.842 308.65 217.556 308.392 218.264 308.14L218.678 310.084C217.778 310.492 216.854 310.894 215.906 311.29C214.97 311.686 214.112 312.046 213.332 312.37L212.36 310.138Z" fill="black"/>
<path d="M213.624 350.408H228.392V352.344H213.624V350.408ZM220.008 347.864H222.024V356.2C222.024 356.744 221.949 357.165 221.8 357.464C221.661 357.763 221.395 357.987 221 358.136C220.616 358.285 220.147 358.381 219.592 358.424C219.037 358.467 218.392 358.483 217.656 358.472C217.624 358.28 217.56 358.061 217.464 357.816C217.368 357.581 217.267 357.341 217.16 357.096C217.053 356.861 216.947 356.659 216.84 356.488C217.213 356.499 217.581 356.509 217.944 356.52C218.317 356.531 218.648 356.536 218.936 356.536C219.235 356.536 219.443 356.536 219.56 356.536C219.731 356.536 219.848 356.509 219.912 356.456C219.976 356.403 220.008 356.307 220.008 356.168V347.864ZM215.304 344.392H225.384V346.28H215.304V344.392ZM224.744 344.392H225.256L225.704 344.28L227.16 345.384C226.669 345.907 226.104 346.429 225.464 346.952C224.835 347.475 224.179 347.976 223.496 348.456C222.813 348.925 222.147 349.331 221.496 349.672C221.4 349.533 221.277 349.379 221.128 349.208C220.979 349.037 220.824 348.872 220.664 348.712C220.504 348.541 220.36 348.397 220.232 348.28C220.808 347.992 221.389 347.645 221.976 347.24C222.573 346.835 223.117 346.419 223.608 345.992C224.099 345.565 224.477 345.176 224.744 344.824V344.392Z" fill="black"/>
<path d="M184.501 386.522H200.575V402.007H198.162V388.726H186.8V402.159H184.501V386.522ZM185.717 398.72H199.416V400.905H185.717V398.72ZM193.146 388.118H195.369V393.4C195.369 393.691 195.388 393.862 195.426 393.913C195.489 393.976 195.591 394.008 195.73 394.008C195.793 394.008 195.876 394.008 195.977 394.008C196.078 394.008 196.161 394.008 196.224 394.008C196.287 394.008 196.351 394.002 196.414 393.989C196.49 393.976 196.547 393.957 196.585 393.932C196.623 393.907 196.661 393.869 196.699 393.818C196.75 393.755 196.781 393.66 196.794 393.533C196.819 393.406 196.832 393.21 196.832 392.944C196.845 392.665 196.857 392.349 196.87 391.994C197.073 392.171 197.339 392.349 197.668 392.526C198.01 392.703 198.327 392.836 198.618 392.925C198.593 393.305 198.555 393.685 198.504 394.065C198.466 394.432 198.409 394.705 198.333 394.882C198.244 395.072 198.137 395.23 198.01 395.357C197.896 395.471 197.744 395.572 197.554 395.661C197.402 395.737 197.212 395.794 196.984 395.832C196.769 395.857 196.566 395.87 196.376 395.87C196.262 395.87 196.129 395.87 195.977 395.87C195.825 395.87 195.673 395.87 195.521 395.87C195.382 395.87 195.255 395.87 195.141 395.87C194.888 395.87 194.628 395.832 194.362 395.756C194.096 395.68 193.868 395.56 193.678 395.395C193.501 395.23 193.368 395.009 193.279 394.73C193.19 394.451 193.146 393.989 193.146 393.343V388.118ZM189.308 388.08H191.531C191.493 389.385 191.385 390.594 191.208 391.709C191.031 392.824 190.714 393.824 190.258 394.711C189.802 395.598 189.112 396.358 188.187 396.991C188.06 396.725 187.858 396.427 187.579 396.098C187.3 395.756 187.034 395.484 186.781 395.281C187.528 394.787 188.073 394.185 188.415 393.476C188.757 392.754 188.985 391.943 189.099 391.044C189.213 390.132 189.283 389.144 189.308 388.08ZM218.625 393.457L220.354 394.597C219.974 395.04 219.581 395.49 219.176 395.946C218.783 396.402 218.429 396.788 218.112 397.105L216.725 396.117C216.928 395.876 217.143 395.604 217.371 395.3C217.612 394.996 217.84 394.686 218.055 394.369C218.283 394.04 218.473 393.736 218.625 393.457ZM210.132 394.635L211.69 393.609C212.032 393.976 212.38 394.394 212.735 394.863C213.09 395.319 213.349 395.731 213.514 396.098L211.861 397.238C211.709 396.871 211.462 396.446 211.12 395.965C210.791 395.471 210.461 395.028 210.132 394.635ZM210.664 385.553H218.682V391.975H216.459V387.396H210.664V385.553ZM211.12 388.346H217.694V390.113H211.12V388.346ZM209.771 391.12H220.259V393.02H209.771V391.12ZM213.932 391.975H216.041V400.525C216.041 401.006 215.99 401.386 215.889 401.665C215.788 401.956 215.579 402.178 215.262 402.33C214.971 402.495 214.61 402.596 214.179 402.634C213.761 402.685 213.267 402.71 212.697 402.71C212.672 402.419 212.602 402.083 212.488 401.703C212.374 401.336 212.254 401.013 212.127 400.734C212.444 400.747 212.748 400.759 213.039 400.772C213.343 400.772 213.546 400.766 213.647 400.753C213.837 400.753 213.932 400.664 213.932 400.487V391.975ZM209.03 399.689C209.537 399.41 210.151 399.049 210.873 398.606C211.595 398.15 212.33 397.681 213.077 397.2L213.78 398.91C213.172 399.379 212.545 399.847 211.899 400.316C211.266 400.772 210.67 401.203 210.113 401.608L209.03 399.689ZM215.965 393.02C216.079 393.641 216.25 394.287 216.478 394.958C216.706 395.617 216.997 396.269 217.352 396.915C217.707 397.548 218.144 398.131 218.663 398.663C219.195 399.182 219.822 399.613 220.544 399.955C220.405 400.082 220.246 400.253 220.069 400.468C219.892 400.683 219.721 400.905 219.556 401.133C219.391 401.374 219.258 401.589 219.157 401.779C218.473 401.361 217.878 400.848 217.371 400.24C216.877 399.632 216.453 398.98 216.098 398.283C215.743 397.574 215.452 396.871 215.224 396.174C215.009 395.477 214.838 394.831 214.711 394.236L215.965 393.02ZM205.401 384.869L207.377 385.572C207.124 386.066 206.858 386.573 206.579 387.092C206.3 387.599 206.028 388.093 205.762 388.574C205.496 389.043 205.243 389.454 205.002 389.809L203.482 389.182C203.71 388.789 203.944 388.346 204.185 387.852C204.426 387.358 204.654 386.845 204.869 386.313C205.097 385.781 205.274 385.3 205.401 384.869ZM207.548 387.13L209.41 387.966C208.941 388.675 208.435 389.423 207.89 390.208C207.345 390.993 206.801 391.747 206.256 392.469C205.711 393.191 205.192 393.824 204.698 394.369L203.387 393.647C203.742 393.216 204.109 392.735 204.489 392.203C204.882 391.658 205.262 391.095 205.629 390.512C206.009 389.917 206.364 389.328 206.693 388.745C207.022 388.162 207.307 387.624 207.548 387.13ZM202.475 389.315L203.596 387.776C203.913 388.08 204.242 388.409 204.584 388.764C204.926 389.119 205.243 389.473 205.534 389.828C205.825 390.183 206.041 390.512 206.18 390.816L204.964 392.545C204.825 392.241 204.616 391.899 204.337 391.519C204.071 391.139 203.773 390.759 203.444 390.379C203.115 389.986 202.792 389.632 202.475 389.315ZM206.902 391.671L208.498 391.025C208.751 391.443 208.992 391.899 209.22 392.393C209.448 392.887 209.651 393.368 209.828 393.837C210.005 394.293 210.132 394.705 210.208 395.072L208.479 395.832C208.428 395.465 208.321 395.04 208.156 394.559C207.991 394.078 207.801 393.59 207.586 393.096C207.371 392.589 207.143 392.114 206.902 391.671ZM202.418 393.191C203.267 393.153 204.267 393.102 205.42 393.039C206.573 392.963 207.744 392.887 208.935 392.811L208.973 394.673C207.858 394.762 206.744 394.85 205.629 394.939C204.527 395.015 203.533 395.091 202.646 395.167L202.418 393.191ZM207.434 396.44L209.011 395.965C209.239 396.484 209.442 397.061 209.619 397.694C209.809 398.327 209.929 398.866 209.98 399.309L208.289 399.86C208.251 399.404 208.15 398.859 207.985 398.226C207.833 397.58 207.649 396.985 207.434 396.44ZM203.235 396.022L205.059 396.345C204.958 397.257 204.806 398.156 204.603 399.043C204.413 399.917 204.185 400.658 203.919 401.266C203.792 401.177 203.628 401.082 203.425 400.981C203.222 400.88 203.013 400.785 202.798 400.696C202.583 400.595 202.399 400.519 202.247 400.468C202.526 399.898 202.741 399.214 202.893 398.416C203.045 397.618 203.159 396.82 203.235 396.022ZM205.306 394.217H207.282V402.71H205.306V394.217ZM222.159 389.296H238.879V391.557H222.159V389.296ZM229.284 384.869H231.716V402.71H229.284V384.869ZM228.79 390.531L230.804 391.215C230.373 392.216 229.879 393.185 229.322 394.122C228.765 395.059 228.15 395.946 227.479 396.782C226.82 397.618 226.111 398.391 225.351 399.1C224.604 399.797 223.818 400.398 222.995 400.905C222.868 400.715 222.704 400.5 222.501 400.259C222.298 400.018 222.089 399.784 221.874 399.556C221.659 399.315 221.462 399.119 221.285 398.967C222.07 398.536 222.83 398.017 223.565 397.409C224.312 396.788 225.015 396.111 225.674 395.376C226.333 394.629 226.922 393.843 227.441 393.02C227.973 392.197 228.423 391.367 228.79 390.531ZM232.153 390.626C232.52 391.437 232.976 392.241 233.521 393.039C234.066 393.837 234.667 394.597 235.326 395.319C235.997 396.041 236.7 396.706 237.435 397.314C238.17 397.922 238.923 398.435 239.696 398.853C239.519 398.992 239.316 399.182 239.088 399.423C238.873 399.651 238.664 399.892 238.461 400.145C238.271 400.398 238.113 400.626 237.986 400.829C237.188 400.322 236.422 399.727 235.687 399.043C234.952 398.346 234.249 397.586 233.578 396.763C232.907 395.927 232.292 395.047 231.735 394.122C231.178 393.197 230.677 392.254 230.234 391.291L232.153 390.626ZM243.477 397.181H255.865V398.967H243.477V397.181ZM243.971 394.122H256.72V396.022H243.971V394.122ZM241.121 400.259H257.936V402.216H241.121V400.259ZM248.398 392.963H250.754V401.608H248.398V392.963ZM245.206 389.866V390.892H253.642V389.866H245.206ZM245.206 387.263V388.251H253.642V387.263H245.206ZM242.964 385.534H255.998V392.621H242.964V385.534ZM243.952 392.431L246.175 393.077C245.896 393.698 245.561 394.306 245.168 394.901C244.775 395.496 244.357 396.054 243.914 396.573C243.471 397.092 243.034 397.542 242.603 397.922C242.451 397.783 242.261 397.624 242.033 397.447C241.805 397.27 241.571 397.099 241.33 396.934C241.089 396.757 240.874 396.617 240.684 396.516C241.343 396.022 241.963 395.414 242.546 394.692C243.141 393.957 243.61 393.204 243.952 392.431Z" fill="black"/>
<path d="M184.261 35.674H198.758V38.011H184.261V35.674ZM185.572 41.792H197.238V44.11H185.572V41.792ZM183.197 48.233H199.765V50.551H183.197V48.233ZM202.273 34.629H209.645V36.339H202.273V34.629ZM201.969 43.369H219.012V45.155H201.969V43.369ZM202.482 37.593H209.303V39.284H202.482V37.593ZM206.643 49.411H215.896V51.121H206.643V49.411ZM201.893 40.899C202.577 40.861 203.35 40.8167 204.211 40.766C205.085 40.7153 206.003 40.6647 206.966 40.614C207.929 40.5507 208.891 40.4873 209.854 40.424L209.835 42.153C208.454 42.2543 207.074 42.3557 205.693 42.457C204.312 42.5457 203.096 42.628 202.045 42.704L201.893 40.899ZM204.914 35.294H207.061V41.222L204.914 41.488V35.294ZM213.521 33.85L216.029 34.059C215.852 34.5023 215.674 34.9203 215.497 35.313C215.32 35.7057 215.155 36.0477 215.003 36.339L213.027 36.035C213.128 35.693 213.223 35.3257 213.312 34.933C213.413 34.5403 213.483 34.1793 213.521 33.85ZM212.571 39.55V40.766H216.276V39.55H212.571ZM212.571 36.757V37.954H216.276V36.757H212.571ZM210.481 35.047H218.442V42.476H210.481V35.047ZM207.232 43.711L209.284 44.395C208.79 45.2057 208.195 45.9657 207.498 46.675C206.801 47.3843 206.048 48.024 205.237 48.594C204.426 49.164 203.603 49.6517 202.767 50.057C202.678 49.905 202.552 49.715 202.387 49.487C202.222 49.2463 202.051 49.012 201.874 48.784C201.697 48.556 201.532 48.3723 201.38 48.233C202.165 47.9163 202.932 47.53 203.679 47.074C204.426 46.618 205.104 46.105 205.712 45.535C206.333 44.965 206.839 44.357 207.232 43.711ZM205.123 46.333H217.53V51.615H215.079V48.043H207.479V51.71H205.123V46.333ZM221.159 38.296H237.879V40.557H221.159V38.296ZM228.284 33.869H230.716V51.71H228.284V33.869ZM227.79 39.531L229.804 40.215C229.373 41.2157 228.879 42.1847 228.322 43.122C227.765 44.0593 227.15 44.946 226.479 45.782C225.82 46.618 225.111 47.3907 224.351 48.1C223.604 48.7967 222.818 49.3983 221.995 49.905C221.868 49.715 221.704 49.4997 221.501 49.259C221.298 49.0183 221.089 48.784 220.874 48.556C220.659 48.3153 220.462 48.119 220.285 47.967C221.07 47.5363 221.83 47.017 222.565 46.409C223.312 45.7883 224.015 45.1107 224.674 44.376C225.333 43.6287 225.922 42.8433 226.441 42.02C226.973 41.1967 227.423 40.367 227.79 39.531ZM231.153 39.626C231.52 40.4367 231.976 41.241 232.521 42.039C233.066 42.837 233.667 43.597 234.326 44.319C234.997 45.041 235.7 45.706 236.435 46.314C237.17 46.922 237.923 47.435 238.696 47.853C238.519 47.9923 238.316 48.1823 238.088 48.423C237.873 48.651 237.664 48.8917 237.461 49.145C237.271 49.3983 237.113 49.6263 236.986 49.829C236.188 49.3223 235.422 48.727 234.687 48.043C233.952 47.3463 233.249 46.5863 232.578 45.763C231.907 44.927 231.292 44.0467 230.735 43.122C230.178 42.1973 229.677 41.2537 229.234 40.291L231.153 39.626ZM242.477 46.181H254.865V47.967H242.477V46.181ZM242.971 43.122H255.72V45.022H242.971V43.122ZM240.121 49.259H256.936V51.216H240.121V49.259ZM247.398 41.963H249.754V50.608H247.398V41.963ZM244.206 38.866V39.892H252.642V38.866H244.206ZM244.206 36.263V37.251H252.642V36.263H244.206ZM241.964 34.534H254.998V41.621H241.964V34.534ZM242.952 41.431L245.175 42.077C244.896 42.6977 244.561 43.3057 244.168 43.901C243.775 44.4963 243.357 45.0537 242.914 45.573C242.471 46.0923 242.034 46.542 241.603 46.922C241.451 46.7827 241.261 46.6243 241.033 46.447C240.805 46.2697 240.571 46.0987 240.33 45.934C240.089 45.7567 239.874 45.6173 239.684 45.516C240.343 45.022 240.963 44.414 241.546 43.692C242.141 42.9573 242.61 42.2037 242.952 41.431Z" fill="black"/>
<path d="M207.082 197.62H215.755V200.308H207.082V197.62ZM213.676 197.62H216.7C216.84 199.258 217.022 200.868 217.246 202.45C217.484 204.032 217.813 205.537 218.233 206.965C218.667 208.379 219.213 209.667 219.871 210.829C220.543 211.977 221.376 212.95 222.37 213.748C222.132 213.888 221.859 214.077 221.551 214.315C221.243 214.567 220.942 214.826 220.648 215.092C220.368 215.358 220.123 215.596 219.913 215.806C218.905 214.882 218.058 213.797 217.372 212.551C216.686 211.291 216.126 209.926 215.692 208.456C215.272 206.986 214.943 205.446 214.705 203.836C214.467 202.226 214.285 200.602 214.159 198.964H213.676V197.62ZM207.628 202.135L210.547 202.534C210.337 203.752 210.071 204.991 209.749 206.251C209.441 207.497 209.056 208.715 208.594 209.905C208.132 211.081 207.586 212.187 206.956 213.223C206.326 214.245 205.584 215.141 204.73 215.911C204.576 215.715 204.366 215.498 204.1 215.26C203.848 215.036 203.582 214.812 203.302 214.588C203.036 214.378 202.798 214.203 202.588 214.063C203.386 213.391 204.072 212.593 204.646 211.669C205.22 210.731 205.703 209.73 206.095 208.666C206.487 207.588 206.802 206.496 207.04 205.39C207.292 204.27 207.488 203.185 207.628 202.135ZM226.927 211.942H239.968V214.483H226.927V211.942ZM226.885 205.516H239.968V208.015H226.885V205.516ZM225.583 199.216H241.48V215.827H238.792V201.778H228.124V215.848H225.583V199.216ZM231.736 196.066L235.033 196.507C234.711 197.291 234.368 198.054 234.004 198.796C233.64 199.538 233.311 200.175 233.017 200.707L230.518 200.203C230.672 199.797 230.826 199.356 230.98 198.88C231.148 198.404 231.295 197.921 231.421 197.431C231.561 196.941 231.666 196.486 231.736 196.066ZM204.352 227.681H220.69V230.159H204.352V227.681ZM202.966 237.509H222.097V239.987H202.966V237.509ZM211.114 221.192H213.823V239.21H211.114V221.192ZM226.843 234.779H240.535V236.753H226.843V234.779ZM227.389 231.398H241.48V233.498H227.389V231.398ZM224.239 238.181H242.824V240.344H224.239V238.181ZM232.282 230.117H234.886V239.672H232.282V230.117ZM228.754 226.694V227.828H238.078V226.694H228.754ZM228.754 223.817V224.909H238.078V223.817H228.754ZM226.276 221.906H240.682V229.739H226.276V221.906ZM227.368 229.529L229.825 230.243C229.517 230.929 229.146 231.601 228.712 232.259C228.278 232.917 227.816 233.533 227.326 234.107C226.836 234.681 226.353 235.178 225.877 235.598C225.709 235.444 225.499 235.269 225.247 235.073C224.995 234.877 224.736 234.688 224.47 234.506C224.204 234.31 223.966 234.156 223.756 234.044C224.484 233.498 225.17 232.826 225.814 232.028C226.472 231.216 226.99 230.383 227.368 229.529Z" fill="white"/>
<defs>
<linearGradient id="paint0_linear_2_138" x1="220.75" y1="26" x2="220.75" y2="412.5" gradientUnits="userSpaceOnUse">
<stop stop-color="#FFFBA7"/>
<stop offset="1" stop-color="#FDFAEC"/>
</linearGradient>
<linearGradient id="paint1_linear_2_138" x1="221" y1="64" x2="221" y2="374" gradientUnits="userSpaceOnUse">
<stop stop-color="#FFFDDC"/>
<stop offset="1" stop-color="#E3F8FF"/>
</linearGradient>
<linearGradient id="paint2_linear_2_138" x1="221" y1="109" x2="221" y2="329" gradientUnits="userSpaceOnUse">
<stop stop-color="#C8EEFF"/>
<stop offset="1" stop-color="#E1F3FF"/>
</linearGradient>
<linearGradient id="paint3_linear_2_138" x1="221" y1="154" x2="221" y2="284" gradientUnits="userSpaceOnUse">
<stop stop-color="#58C7FF"/>
<stop offset="1" stop-color="#9FE0FF"/>
</linearGradient>
</defs>
</svg>
