<svg width="442" height="452" viewBox="0 0 442 452" fill="none" xmlns="http://www.w3.org/2000/svg">
<rect width="442" height="452" fill="white"/>
<path d="M272.5 26H169L27.5 166.5V270.5L169 412.5H272.5L414 270.5V166.5L272.5 26Z" fill="url(#paint0_linear_2_104)" stroke="#FFFDE8"/>
<path d="M262.507 64H179.493L66 176.691V260.106L179.493 374H262.507L376 260.106V176.691L262.507 64Z" fill="url(#paint1_linear_2_104)" stroke="#FEFFEA"/>
<path d="M250.457 109H191.543L111 188.974V248.172L191.543 329H250.457L331 248.172V188.974L250.457 109Z" fill="url(#paint2_linear_2_104)" stroke="#DDF4FF"/>
<path d="M414.37 270.528L28 167" stroke="#888686"/>
<path d="M272.528 26L186.777 346.024L169 412.37" stroke="#888686" stroke-opacity="0.82"/>
<path d="M169 26L272.528 412.37" stroke="#888686"/>
<path d="M414.37 167L28 270.528" stroke="#888886"/>
<path d="M238.406 154H203.594L156 201.257V236.238L203.594 284H238.406L286 236.238V201.257L238.406 154Z" fill="url(#paint3_linear_2_104)" stroke="#B9E7FD"/>
<path d="M126.044 212.194H142.028V214.21H126.044V212.194ZM132.83 210.718H135.08V227.62H132.83V210.718ZM132.272 220.996L134.108 221.752C133.688 222.352 133.208 222.928 132.668 223.48C132.14 224.032 131.564 224.554 130.94 225.046C130.328 225.526 129.686 225.964 129.014 226.36C128.354 226.768 127.688 227.116 127.016 227.404C126.896 227.224 126.752 227.02 126.584 226.792C126.416 226.564 126.236 226.342 126.044 226.126C125.852 225.91 125.678 225.73 125.522 225.586C126.182 225.358 126.836 225.082 127.484 224.758C128.132 224.422 128.756 224.056 129.356 223.66C129.956 223.252 130.502 222.826 130.994 222.382C131.498 221.926 131.924 221.464 132.272 220.996ZM135.692 221.068C136.052 221.524 136.484 221.974 136.988 222.418C137.504 222.85 138.062 223.27 138.662 223.678C139.274 224.074 139.91 224.434 140.57 224.758C141.23 225.07 141.89 225.34 142.55 225.568C142.382 225.712 142.196 225.892 141.992 226.108C141.8 226.336 141.614 226.564 141.434 226.792C141.266 227.032 141.122 227.248 141.002 227.44C140.33 227.164 139.664 226.822 139.004 226.414C138.344 226.018 137.702 225.58 137.078 225.1C136.466 224.608 135.89 224.086 135.35 223.534C134.822 222.982 134.348 222.412 133.928 221.824L135.692 221.068ZM129.662 219.448V220.546H138.392V219.448H129.662ZM129.662 216.856V217.936H138.392V216.856H129.662ZM127.556 215.236H140.606V222.166H127.556V215.236Z" fill="black"/>
<path d="M82.744 213.856L84.552 214.432V222.752H82.744V213.856ZM93.896 213.952H95.752V222.624C95.752 223.051 95.704 223.413 95.608 223.712C95.512 224 95.3253 224.224 95.048 224.384C94.7707 224.544 94.44 224.645 94.056 224.688C93.6827 224.731 93.2453 224.752 92.744 224.752C92.7227 224.571 92.6747 224.363 92.6 224.128C92.5253 223.893 92.44 223.659 92.344 223.424C92.2587 223.189 92.168 222.987 92.072 222.816C92.4027 222.827 92.7173 222.837 93.016 222.848C93.3147 222.848 93.5173 222.848 93.624 222.848C93.7307 222.848 93.8 222.827 93.832 222.784C93.8747 222.741 93.896 222.672 93.896 222.576V213.952ZM81.496 222.432C82.1787 222.293 83 222.112 83.96 221.888C84.92 221.653 85.896 221.419 86.888 221.184L87.096 222.8C86.2107 223.045 85.3147 223.285 84.408 223.52C83.5013 223.755 82.6747 223.973 81.928 224.176L81.496 222.432ZM86.648 215.76H88.44V220.048C88.44 220.763 88.3813 221.472 88.264 222.176C88.1573 222.869 87.944 223.541 87.624 224.192C87.304 224.843 86.8293 225.445 86.2 226C85.5707 226.555 84.7333 227.04 83.688 227.456C83.6133 227.317 83.5067 227.152 83.368 226.96C83.24 226.779 83.096 226.603 82.936 226.432C82.7867 226.261 82.648 226.123 82.52 226.016C83.4373 225.653 84.168 225.248 84.712 224.8C85.2667 224.341 85.6827 223.856 85.96 223.344C86.2373 222.821 86.4187 222.283 86.504 221.728C86.6 221.163 86.648 220.592 86.648 220.016V215.76ZM89.704 213.952H94.872V215.696H91.512V227.44H89.704V213.952ZM87.256 212.432L88.968 213.648C88.4667 213.936 87.9387 214.224 87.384 214.512C86.8293 214.789 86.28 215.051 85.736 215.296C85.2027 215.541 84.696 215.749 84.216 215.92L82.984 214.864C83.432 214.661 83.9173 214.427 84.44 214.16C84.9627 213.883 85.4693 213.595 85.96 213.296C86.4613 212.987 86.8933 212.699 87.256 212.432Z" fill="black"/>
<path d="M35.279 183.127L52.512 180.505L52.892 182.861L35.659 185.426L35.279 183.127ZM40.656 176.249H43.145V189.359C43.145 189.777 43.1767 190.094 43.24 190.309C43.316 190.512 43.4553 190.651 43.658 190.727C43.8607 190.79 44.171 190.822 44.589 190.822C44.7157 190.822 44.9057 190.822 45.159 190.822C45.4123 190.822 45.6973 190.822 46.014 190.822C46.3307 190.822 46.6473 190.822 46.964 190.822C47.2807 190.822 47.5657 190.822 47.819 190.822C48.085 190.822 48.2813 190.822 48.408 190.822C48.8387 190.822 49.1617 190.721 49.377 190.518C49.5923 190.303 49.7507 189.916 49.852 189.359C49.9533 188.789 50.042 187.959 50.118 186.87C50.308 187.022 50.5423 187.174 50.821 187.326C51.1123 187.465 51.3973 187.592 51.676 187.706C51.9673 187.82 52.2207 187.902 52.436 187.953C52.3347 189.22 52.1637 190.233 51.923 190.993C51.6823 191.74 51.3023 192.279 50.783 192.608C50.2637 192.937 49.529 193.102 48.579 193.102C48.4523 193.102 48.2433 193.102 47.952 193.102C47.6733 193.102 47.3567 193.102 47.002 193.102C46.66 193.102 46.3117 193.102 45.957 193.102C45.6023 193.102 45.2857 193.102 45.007 193.102C44.7283 193.102 44.5257 193.102 44.399 193.102C43.4363 193.102 42.6827 192.988 42.138 192.76C41.5933 192.545 41.207 192.165 40.979 191.62C40.7637 191.075 40.656 190.309 40.656 189.321V176.249ZM48.199 208.844L50.213 207.951C50.5803 208.432 50.954 208.964 51.334 209.547C51.714 210.13 52.0623 210.7 52.379 211.257C52.6957 211.814 52.9427 212.321 53.12 212.777L50.935 213.803C50.7703 213.36 50.5423 212.853 50.251 212.283C49.9597 211.713 49.6303 211.124 49.263 210.516C48.9083 209.908 48.5537 209.351 48.199 208.844ZM42.784 198.888H45.121V205.766H42.784V198.888ZM35.488 204.968H52.626V207.153H35.488V204.968ZM37.388 200.845H51.011V203.011H37.388V200.845ZM45.102 206.26H47.496V214.145C47.496 214.715 47.4327 215.165 47.306 215.494C47.1793 215.836 46.926 216.096 46.546 216.273C46.1787 216.45 45.7353 216.564 45.216 216.615C44.7093 216.666 44.1077 216.691 43.411 216.691C43.373 216.349 43.278 215.956 43.126 215.513C42.974 215.082 42.822 214.709 42.67 214.392C43.088 214.405 43.506 214.417 43.924 214.43C44.342 214.43 44.6143 214.424 44.741 214.411C44.8803 214.411 44.9753 214.392 45.026 214.354C45.0767 214.303 45.102 214.221 45.102 214.107V206.26ZM37.597 208.103L39.915 208.692C39.6743 209.287 39.383 209.895 39.041 210.516C38.699 211.124 38.3317 211.707 37.939 212.264C37.5463 212.809 37.1347 213.29 36.704 213.708C36.476 213.505 36.1783 213.284 35.811 213.043C35.4437 212.79 35.1333 212.587 34.88 212.435C35.2853 212.068 35.659 211.643 36.001 211.162C36.3557 210.668 36.6723 210.155 36.951 209.623C37.2297 209.091 37.445 208.584 37.597 208.103ZM40.998 205.842H43.316V208.027C43.316 208.698 43.2717 209.42 43.183 210.193C43.0943 210.953 42.9107 211.726 42.632 212.511C42.3533 213.284 41.9353 214.044 41.378 214.791C40.8333 215.526 40.0987 216.203 39.174 216.824C39.06 216.647 38.9017 216.45 38.699 216.235C38.4963 216.02 38.281 215.811 38.053 215.608C37.8377 215.405 37.635 215.241 37.445 215.114C38.243 214.595 38.8763 214.031 39.345 213.423C39.8263 212.815 40.181 212.194 40.409 211.561C40.6497 210.928 40.808 210.307 40.884 209.699C40.96 209.078 40.998 208.502 40.998 207.97V205.842ZM43.924 224.035C43.4047 224.757 42.746 225.504 41.948 226.277C41.1627 227.05 40.2887 227.791 39.326 228.5C38.376 229.209 37.3817 229.843 36.343 230.4C36.2417 230.21 36.1087 230.001 35.944 229.773C35.792 229.545 35.621 229.323 35.431 229.108C35.2537 228.893 35.0827 228.703 34.918 228.538C36.0073 228.019 37.0523 227.379 38.053 226.619C39.0537 225.846 39.9467 225.042 40.732 224.206C41.53 223.37 42.1633 222.566 42.632 221.793H45.007C45.5263 222.515 46.0963 223.205 46.717 223.864C47.3377 224.523 48.0027 225.131 48.712 225.688C49.4213 226.245 50.1497 226.746 50.897 227.189C51.6443 227.632 52.398 228.006 53.158 228.31C52.8667 228.601 52.5943 228.931 52.341 229.298C52.0877 229.665 51.8533 230.02 51.638 230.362C50.916 229.982 50.1813 229.545 49.434 229.051C48.6993 228.557 47.99 228.031 47.306 227.474C46.622 226.904 45.9887 226.328 45.406 225.745C44.8233 225.162 44.3293 224.592 43.924 224.035ZM39.174 227.55H48.731V229.545H39.174V227.55ZM36.894 231.426H50.973V233.402H36.894V231.426ZM35.944 237.202H52.094V239.159H35.944V237.202ZM42.689 228.348H45.102V238.19H42.689V228.348ZM38.091 234.124L39.915 233.364C40.1557 233.681 40.39 234.029 40.618 234.409C40.8587 234.789 41.074 235.163 41.264 235.53C41.454 235.897 41.5933 236.227 41.682 236.518L39.725 237.392C39.649 237.101 39.5223 236.765 39.345 236.385C39.1677 235.992 38.9713 235.6 38.756 235.207C38.5407 234.814 38.319 234.453 38.091 234.124ZM47.743 233.383L49.928 234.181C49.548 234.764 49.1553 235.346 48.75 235.929C48.3447 236.499 47.971 236.987 47.629 237.392L45.919 236.67C46.1343 236.366 46.356 236.03 46.584 235.663C46.812 235.283 47.0273 234.897 47.23 234.504C47.4327 234.099 47.6037 233.725 47.743 233.383ZM37.977 257.181H50.365V258.967H37.977V257.181ZM38.471 254.122H51.22V256.022H38.471V254.122ZM35.621 260.259H52.436V262.216H35.621V260.259ZM42.898 252.963H45.254V261.608H42.898V252.963ZM39.706 249.866V250.892H48.142V249.866H39.706ZM39.706 247.263V248.251H48.142V247.263H39.706ZM37.464 245.534H50.498V252.621H37.464V245.534ZM38.452 252.431L40.675 253.077C40.3963 253.698 40.0607 254.306 39.668 254.901C39.2753 255.496 38.8573 256.054 38.414 256.573C37.9707 257.092 37.5337 257.542 37.103 257.922C36.951 257.783 36.761 257.624 36.533 257.447C36.305 257.27 36.0707 257.099 35.83 256.934C35.5893 256.757 35.374 256.617 35.184 256.516C35.8427 256.022 36.4633 255.414 37.046 254.692C37.6413 253.957 38.11 253.204 38.452 252.431Z" fill="black"/>
<path d="M391.122 178.472H404.916V180.98H391.122V178.472ZM389.526 189.511H406.493V192.114H389.526V189.511ZM393.687 203.923V205.044H402.389V203.923H393.687ZM393.687 201.187V202.308H402.389V201.187H393.687ZM391.502 199.477H404.688V206.773H391.502V199.477ZM391.008 207.647H405.22V209.433H391.008V207.647ZM389.431 210.402H406.645V212.302H389.431V210.402ZM396.822 200.256H399.083V211.599H396.822V200.256ZM394.77 213.366L396.86 213.195C396.961 213.689 397.05 214.234 397.126 214.829C397.202 215.424 397.24 215.925 397.24 216.33L395.017 216.596C395.017 216.178 394.998 215.665 394.96 215.057C394.922 214.462 394.859 213.898 394.77 213.366ZM398.513 213.442L400.641 213.024C400.844 213.505 401.04 214.037 401.23 214.62C401.42 215.19 401.553 215.684 401.629 216.102L399.368 216.596C399.317 216.191 399.21 215.69 399.045 215.095C398.88 214.5 398.703 213.949 398.513 213.442ZM402.256 213.328L404.403 212.625C404.694 212.942 404.992 213.303 405.296 213.708C405.613 214.101 405.904 214.493 406.17 214.886C406.436 215.266 406.645 215.621 406.797 215.95L404.498 216.748C404.371 216.457 404.181 216.108 403.928 215.703C403.687 215.31 403.415 214.905 403.111 214.487C402.82 214.069 402.535 213.683 402.256 213.328ZM391.35 212.644L393.554 213.176C393.339 213.835 393.047 214.487 392.68 215.133C392.313 215.792 391.901 216.336 391.445 216.767L389.279 215.817C389.71 215.475 390.109 215.013 390.476 214.43C390.843 213.847 391.135 213.252 391.35 212.644ZM390.628 227.759H405.41V230.001H390.628V227.759ZM389.374 236.651H406.683V238.893H389.374V236.651ZM396.746 221.888H399.197V238.19H396.746V221.888ZM391.977 257.181H404.365V258.967H391.977V257.181ZM392.471 254.122H405.22V256.022H392.471V254.122ZM389.621 260.259H406.436V262.216H389.621V260.259ZM396.898 252.963H399.254V261.608H396.898V252.963ZM393.706 249.866V250.892H402.142V249.866H393.706ZM393.706 247.263V248.251H402.142V247.263H393.706ZM391.464 245.534H404.498V252.621H391.464V245.534ZM392.452 252.431L394.675 253.077C394.396 253.698 394.061 254.306 393.668 254.901C393.275 255.496 392.857 256.054 392.414 256.573C391.971 257.092 391.534 257.542 391.103 257.922C390.951 257.783 390.761 257.624 390.533 257.447C390.305 257.27 390.071 257.099 389.83 256.934C389.589 256.757 389.374 256.617 389.184 256.516C389.843 256.022 390.463 255.414 391.046 254.692C391.641 253.957 392.11 253.204 392.452 252.431Z" fill="black"/>
<path d="M148.246 170.277L159.549 158.974L160.974 160.4L149.672 171.702L148.246 170.277ZM156.52 172.95L162.209 167.26L163.393 168.444L157.703 174.133L156.52 172.95ZM158.276 175.241L164.513 169.004L165.735 170.226L159.498 176.462L158.276 175.241ZM159.192 171.448L160.631 170.009L165.111 174.49L163.673 175.928L159.192 171.448ZM151.11 172.173L160.325 162.958L161.725 164.358L154.038 172.046L161.127 179.135L159.6 180.663L151.11 172.173ZM159.892 163.391L161.458 161.825L168.42 168.788C168.785 169.152 169.014 169.483 169.107 169.78C169.209 170.086 169.184 170.417 169.031 170.773C168.878 171.146 168.62 171.533 168.255 171.931C167.907 172.33 167.474 172.788 166.956 173.306C166.727 173.145 166.439 172.992 166.091 172.848C165.752 172.695 165.442 172.58 165.162 172.504C165.382 172.3 165.607 172.093 165.836 171.88C166.065 171.668 166.269 171.473 166.447 171.295C166.625 171.1 166.744 170.972 166.804 170.913C166.922 170.794 166.986 170.697 166.995 170.62C166.995 170.535 166.948 170.446 166.855 170.353L159.892 163.391ZM155.654 171.117L156.507 169.551C156.863 169.602 157.237 169.695 157.627 169.831C158.026 169.958 158.357 170.086 158.62 170.213L157.767 171.906C157.512 171.753 157.186 171.605 156.787 171.46C156.388 171.316 156.01 171.202 155.654 171.117ZM158.912 167.197L160.554 166.267C160.69 166.743 160.817 167.209 160.936 167.667C161.055 168.109 161.144 168.512 161.203 168.877L159.791 169.628C159.731 169.381 159.651 169.114 159.549 168.826C159.455 168.529 159.354 168.24 159.243 167.96C159.133 167.68 159.023 167.426 158.912 167.197ZM152.116 164.473L153.783 162.805L158.123 167.146L156.456 168.813L152.116 164.473ZM161 157.523L172.302 146.221L173.728 147.646L162.425 158.949L161 157.523ZM164.754 151.681L166.345 150.09L178.297 162.042L176.706 163.633L164.754 151.681ZM171.628 159.343L173.46 158.58C173.588 159.301 173.656 160.048 173.664 160.82C173.681 161.584 173.643 162.36 173.549 163.149C173.456 163.921 173.312 164.685 173.117 165.44C172.939 166.195 172.714 166.912 172.442 167.591C172.23 167.549 171.984 167.506 171.704 167.464C171.424 167.421 171.14 167.392 170.851 167.375C170.563 167.358 170.312 167.354 170.1 167.362C170.406 166.734 170.673 166.076 170.902 165.389C171.123 164.693 171.305 163.993 171.449 163.289C171.585 162.576 171.67 161.889 171.704 161.227C171.738 160.548 171.712 159.92 171.628 159.343ZM174.097 156.976C174.674 157.044 175.297 157.057 175.968 157.014C176.638 156.955 177.33 156.857 178.042 156.721C178.755 156.569 179.459 156.374 180.155 156.136C180.843 155.89 181.5 155.614 182.128 155.309C182.111 155.529 182.107 155.788 182.115 156.085C182.141 156.382 182.171 156.675 182.204 156.963C182.255 157.252 182.306 157.506 182.357 157.727C181.687 158.007 180.974 158.236 180.219 158.414C179.472 158.601 178.709 158.745 177.928 158.847C177.147 158.932 176.371 158.97 175.599 158.962C174.835 158.945 174.097 158.877 173.384 158.758L174.097 156.976ZM168.687 160.094L169.464 160.871L175.637 154.698L174.86 153.921L168.687 160.094ZM166.855 158.262L167.618 159.025L173.791 152.852L173.028 152.088L166.855 158.262ZM164.22 158.605L173.448 149.377L178.348 154.278L169.12 163.505L164.22 158.605Z" fill="black"/>
<path d="M113.785 145.701L122.248 137.238L123.56 138.551L115.098 147.013L113.785 145.701ZM117.847 149.876L126.626 141.096L127.86 142.329L119.08 151.109L117.847 149.876ZM117.179 146.47L123.345 140.304L124.567 141.526L118.401 147.692L117.179 146.47ZM113.005 146.482L114.362 145.124L117.802 148.563C118.284 149.046 118.797 149.589 119.34 150.192C119.883 150.796 120.415 151.441 120.936 152.127C121.456 152.813 121.916 153.522 122.316 154.254C122.723 154.978 123.025 155.702 123.221 156.426C123.063 156.434 122.863 156.468 122.621 156.528C122.388 156.581 122.15 156.645 121.909 156.72C121.675 156.788 121.479 156.864 121.32 156.947C121.147 156.275 120.879 155.616 120.517 154.967C120.155 154.318 119.74 153.692 119.273 153.089C118.805 152.485 118.326 151.916 117.836 151.38C117.345 150.845 116.878 150.355 116.433 149.91L113.005 146.482ZM119.827 148.846L121.151 147.522L125.427 151.799L124.103 153.123L119.827 148.846ZM122.814 154.005C123.146 153.583 123.515 153.093 123.922 152.534C124.33 151.961 124.76 151.358 125.212 150.724C125.672 150.083 126.129 149.446 126.581 148.812L127.848 149.921C127.449 150.517 127.037 151.124 126.615 151.742C126.193 152.361 125.782 152.953 125.382 153.519C124.997 154.084 124.639 154.609 124.307 155.091L122.814 154.005ZM123.108 145.565C124.036 146.131 124.96 146.527 125.88 146.753C126.8 146.979 127.731 147.006 128.674 146.832C129.625 146.651 130.605 146.236 131.616 145.588C131.616 145.784 131.631 146.01 131.661 146.267C131.699 146.516 131.744 146.764 131.797 147.013C131.857 147.27 131.921 147.492 131.989 147.681C130.835 148.337 129.723 148.733 128.652 148.869C127.581 148.989 126.51 148.884 125.438 148.552C124.367 148.22 123.247 147.703 122.078 147.002L123.108 145.565ZM126.457 143.755L128.425 143.348C128.342 143.823 128.241 144.317 128.12 144.83C128.007 145.335 127.882 145.829 127.746 146.312C127.611 146.78 127.479 147.213 127.35 147.613L125.767 147.839C125.88 147.439 125.982 146.998 126.072 146.516C126.17 146.025 126.253 145.543 126.321 145.067C126.389 144.577 126.434 144.14 126.457 143.755ZM138.987 145.072L126.146 132.231L127.232 131.145L140.073 143.986L138.987 145.072ZM137.375 129.488L144.084 122.779L145.419 124.114L138.71 130.823L137.375 129.488ZM133.788 125.947L141.233 118.503L146.754 124.024L145.351 125.427L141.165 121.24L135.123 127.282L133.788 125.947ZM132.974 126.762L134.388 125.347L141.674 132.633C141.968 132.927 142.221 133.12 142.432 133.21C142.636 133.293 142.858 133.259 143.099 133.109C143.348 132.95 143.68 132.664 144.095 132.249C144.216 132.128 144.404 131.939 144.661 131.683C144.917 131.427 145.204 131.14 145.521 130.823C145.845 130.499 146.169 130.174 146.494 129.85C146.818 129.526 147.108 129.235 147.365 128.979C147.629 128.715 147.821 128.523 147.942 128.402C148.319 128.025 148.56 127.701 148.666 127.429C148.771 127.142 148.749 126.833 148.598 126.501C148.44 126.162 148.149 125.721 147.727 125.178C147.923 125.132 148.138 125.068 148.372 124.985C148.598 124.895 148.824 124.789 149.05 124.668C149.277 124.548 149.469 124.438 149.627 124.34C150.035 124.868 150.348 125.355 150.566 125.8C150.778 126.237 150.88 126.656 150.872 127.056C150.872 127.448 150.748 127.851 150.499 128.266C150.265 128.681 149.903 129.134 149.412 129.624C149.322 129.714 149.171 129.865 148.96 130.076C148.756 130.28 148.519 130.518 148.247 130.789C147.983 131.053 147.708 131.328 147.421 131.615C147.135 131.902 146.859 132.177 146.595 132.441C146.331 132.705 146.098 132.939 145.894 133.142C145.698 133.339 145.555 133.482 145.464 133.572C144.913 134.123 144.423 134.545 143.993 134.84C143.563 135.134 143.152 135.303 142.76 135.349C142.368 135.394 141.972 135.307 141.572 135.088C141.165 134.862 140.724 134.511 140.248 134.036L132.974 126.762Z" fill="black"/>
<path d="M77.7137 125.79L83.2624 120.241L84.9821 121.961L79.4334 127.509L77.7137 125.79ZM81.9323 121.571L83.867 119.636C85.0045 120.595 86.1509 121.508 87.3063 122.377C88.4707 123.237 89.644 123.989 90.8263 124.634C92.0086 125.261 93.1819 125.736 94.3463 126.058C95.5107 126.363 96.6661 126.452 97.8125 126.327C97.7498 126.569 97.6961 126.864 97.6513 127.214C97.6155 127.572 97.5886 127.93 97.5707 128.288C97.5617 128.638 97.5573 128.947 97.5573 129.215C96.3212 129.269 95.0852 129.117 93.8492 128.759C92.6042 128.391 91.3727 127.876 90.1546 127.214C88.9454 126.542 87.7497 125.767 86.5674 124.889C85.3851 124.012 84.2297 123.089 83.1012 122.122L82.7922 122.431L81.9323 121.571ZM80.9516 128.329L83.0743 126.717C83.7192 127.63 84.3417 128.593 84.9418 129.605C85.5419 130.599 86.0748 131.625 86.5405 132.682C86.9973 133.73 87.3556 134.787 87.6153 135.852C87.8661 136.909 87.9646 137.957 87.9109 138.996C87.687 138.969 87.4138 138.965 87.0914 138.983C86.7868 139.001 86.4734 139.028 86.1509 139.063C85.8464 139.099 85.5822 139.139 85.3583 139.184C85.4389 138.244 85.3672 137.294 85.1433 136.336C84.9104 135.369 84.579 134.419 84.1491 133.488C83.7102 132.547 83.2131 131.647 82.6578 130.787C82.1025 129.91 81.5337 129.09 80.9516 128.329ZM99.5725 122.256L107.916 113.913L109.541 115.539L101.198 123.882L99.5725 122.256ZM95.4345 118.172L103.805 109.802L105.403 111.401L97.0333 119.771L95.4345 118.172ZM90.571 114.974L100.741 104.804L111.368 115.431L109.649 117.151L100.661 108.163L93.8358 114.988L102.837 123.989L101.212 125.615L90.571 114.974ZM92.4923 109.023L94.8837 107.195C95.1793 107.903 95.448 108.611 95.6898 109.318C95.9316 110.026 96.1287 110.644 96.2809 111.172L94.3597 112.449C94.1985 112.09 94.0149 111.71 93.8089 111.307C93.6118 110.895 93.3969 110.492 93.164 110.097C92.9401 109.694 92.7162 109.336 92.4923 109.023ZM106.075 103.904L116.528 93.4514L118.113 95.0368L107.66 105.489L106.075 103.904ZM111.476 111.078L123.715 98.8389L125.301 100.424L113.061 112.664L111.476 111.078ZM106.25 95.4264L107.983 93.6933L119.51 105.221L117.777 106.954L106.25 95.4264ZM125.005 94.056L133.765 85.2964L135.028 86.5593L126.268 95.3189L125.005 94.056ZM123.191 91.5437L132.206 82.5287L133.55 83.8722L124.535 92.8872L123.191 91.5437ZM125.516 97.8984L137.406 86.0084L138.789 87.3922L126.899 99.2822L125.516 97.8984ZM125.502 87.5938L127.168 85.9278L133.281 92.0407L131.615 93.7067L125.502 87.5938ZM121.055 87.6609L121.781 88.3864L127.746 82.4213L127.02 81.6958L121.055 87.6609ZM119.215 85.8203L119.913 86.519L125.878 80.5538L125.18 79.8552L119.215 85.8203ZM116.407 86.1831L125.623 76.9666L130.634 81.9779L121.418 91.1943L116.407 86.1831ZM121.982 90.3614L124.011 89.2463C124.253 89.8822 124.445 90.5495 124.589 91.2481C124.732 91.9467 124.83 92.6364 124.884 93.3171C124.938 93.9978 124.947 94.6248 124.911 95.198C124.705 95.2069 124.459 95.2293 124.172 95.2652C123.885 95.301 123.599 95.3458 123.312 95.3995C123.017 95.4443 122.766 95.498 122.56 95.5607C122.676 94.7457 122.685 93.8769 122.587 92.9543C122.488 92.0139 122.287 91.1496 121.982 90.3614Z" fill="black"/>
<path d="M269.936 145.246L281.239 156.549L279.813 157.974L268.511 146.672L269.936 145.246ZM267.264 153.52L272.953 159.209L271.769 160.393L266.08 154.703L267.264 153.52ZM264.973 155.276L271.209 161.513L269.987 162.735L263.751 156.498L264.973 155.276ZM268.765 156.192L270.204 157.631L265.724 162.111L264.285 160.673L268.765 156.192ZM268.04 148.11L277.255 157.325L275.855 158.725L268.167 151.038L261.078 158.127L259.55 156.6L268.04 148.11ZM276.822 156.892L278.388 158.458L271.426 165.42C271.061 165.785 270.73 166.014 270.433 166.107C270.127 166.209 269.796 166.184 269.44 166.031C269.067 165.878 268.681 165.62 268.282 165.255C267.883 164.907 267.425 164.474 266.907 163.956C267.068 163.727 267.221 163.439 267.365 163.091C267.518 162.752 267.633 162.442 267.709 162.162C267.913 162.382 268.121 162.607 268.333 162.836C268.545 163.065 268.74 163.269 268.918 163.447C269.113 163.625 269.241 163.744 269.3 163.804C269.419 163.922 269.516 163.986 269.593 163.995C269.678 163.995 269.767 163.948 269.86 163.855L276.822 156.892ZM269.096 152.654L270.662 153.507C270.611 153.863 270.518 154.237 270.382 154.627C270.255 155.026 270.127 155.357 270 155.62L268.307 154.767C268.46 154.512 268.609 154.186 268.753 153.787C268.897 153.388 269.012 153.01 269.096 152.654ZM273.017 155.912L273.946 157.554C273.471 157.69 273.004 157.817 272.546 157.936C272.104 158.055 271.701 158.144 271.337 158.203L270.586 156.791C270.832 156.731 271.099 156.651 271.387 156.549C271.684 156.455 271.973 156.354 272.253 156.243C272.533 156.133 272.788 156.023 273.017 155.912ZM275.74 149.116L277.408 150.783L273.068 155.123L271.4 153.456L275.74 149.116ZM275.346 168.093L283.975 176.723L282.563 178.135L273.933 169.506L275.346 168.093ZM280.59 160.889L291.09 171.39L282.753 179.726L281.201 178.174L288.125 171.25L280.666 163.791L273.717 170.74L272.227 169.251L280.59 160.889ZM285.757 167.227L287.221 168.691L284.93 170.982C284.769 171.143 284.68 171.258 284.663 171.326C284.663 171.394 284.726 171.491 284.854 171.619C284.879 171.644 284.934 171.699 285.019 171.784C285.112 171.877 285.201 171.967 285.286 172.051C285.38 172.145 285.448 172.213 285.49 172.255C285.566 172.331 285.634 172.374 285.694 172.382C285.77 172.391 285.863 172.357 285.974 172.28C286.092 172.213 286.254 172.085 286.457 171.899C286.474 172.051 286.517 172.238 286.585 172.459C286.669 172.679 286.763 172.9 286.865 173.121C286.983 173.341 287.098 173.532 287.208 173.693C286.759 174.024 286.372 174.241 286.05 174.342C285.728 174.444 285.431 174.444 285.159 174.342C284.896 174.249 284.62 174.058 284.332 173.77C284.264 173.702 284.183 173.621 284.09 173.528C283.997 173.434 283.895 173.333 283.784 173.222C283.683 173.121 283.585 173.023 283.492 172.93C283.398 172.836 283.322 172.76 283.263 172.7C282.855 172.293 282.592 171.928 282.473 171.606C282.363 171.292 282.393 170.974 282.563 170.651C282.732 170.329 283.029 169.956 283.453 169.531L285.757 167.227ZM282.932 157.529L294.374 168.971L292.898 170.448L281.455 159.005L282.932 157.529ZM285.286 162.124L286.788 163.625L284.243 166.171L282.741 164.669L285.286 162.124ZM288.074 164.911L289.614 166.451L287.068 168.997L285.528 167.457L288.074 164.911ZM283.339 164.224L284.764 165.649L283.504 166.909C283.08 167.334 282.588 167.715 282.028 168.055C281.468 168.394 280.832 168.615 280.119 168.717C279.406 168.818 278.604 168.729 277.713 168.449C277.739 168.288 277.747 168.076 277.739 167.813C277.73 167.55 277.709 167.283 277.675 167.011C277.65 166.748 277.616 166.536 277.573 166.375C278.379 166.638 279.062 166.744 279.622 166.693C280.191 166.65 280.675 166.506 281.073 166.26C281.472 166.014 281.82 165.743 282.117 165.446L283.339 164.224Z" fill="black"/>
<path d="M291.07 119.263L301.207 129.4L299.861 130.746L289.724 120.609L291.07 119.263ZM294.713 117.317L303.176 125.78L301.83 127.126L293.367 118.663L294.713 117.317ZM299.872 119.082L301.321 120.53L290.697 131.154L289.249 129.706L299.872 119.082ZM294.363 124.117L295.053 125.78C294.336 125.953 293.589 126.081 292.813 126.164C292.043 126.24 291.266 126.262 290.482 126.232C289.705 126.21 288.94 126.138 288.185 126.017C287.446 125.897 286.737 125.731 286.058 125.52C286.104 125.323 286.138 125.093 286.16 124.829C286.19 124.573 286.209 124.313 286.217 124.049C286.239 123.785 286.243 123.547 286.228 123.336C286.854 123.585 287.514 123.792 288.208 123.958C288.917 124.124 289.63 124.241 290.346 124.309C291.063 124.377 291.76 124.396 292.439 124.366C293.126 124.328 293.767 124.245 294.363 124.117ZM296.286 126.063C296.15 126.651 296.063 127.288 296.026 127.975C296.003 128.661 296.026 129.362 296.094 130.079C296.161 130.795 296.271 131.501 296.422 132.195C296.588 132.889 296.791 133.545 297.033 134.163C296.844 134.141 296.614 134.137 296.342 134.152C296.086 134.167 295.826 134.193 295.562 134.231C295.298 134.269 295.068 134.31 294.872 134.356C294.668 133.684 294.51 132.975 294.397 132.229C294.283 131.482 294.216 130.72 294.193 129.943C294.178 129.159 294.208 128.382 294.283 127.613C294.366 126.851 294.495 126.112 294.668 125.395L296.286 126.063ZM297.141 141.987L309.982 129.146L311.068 130.232L298.227 143.073L297.141 141.987ZM314.332 136.551L323.507 145.726L316.775 152.458L315.361 151.044L320.792 145.613L314.388 139.209L308.901 144.697L307.543 143.339L314.332 136.551ZM312.782 139.888L320.317 147.423L319.061 148.679L311.526 141.144L312.782 139.888ZM310.327 142.321L317.895 149.89L316.594 151.191L309.025 143.622L310.327 142.321ZM319.66 138.847L321.086 140.273L310.462 150.896L309.037 149.471L319.66 138.847Z" fill="black"/>
<path d="M262.219 284.25L265.999 280.469L267.514 281.984L263.734 285.764L262.219 284.25ZM265.63 275.213L267.221 273.622L276.398 282.799C276.754 283.155 277.013 283.354 277.175 283.397C277.327 283.431 277.522 283.329 277.76 283.091C277.811 283.04 277.896 282.956 278.015 282.837C278.133 282.718 278.265 282.586 278.409 282.442C278.553 282.298 278.685 282.166 278.804 282.048C278.922 281.929 279.012 281.84 279.071 281.78C279.241 281.611 279.296 281.411 279.236 281.182C279.177 280.953 278.978 280.635 278.638 280.227C278.299 279.803 277.802 279.239 277.149 278.535C277.37 278.501 277.612 278.446 277.875 278.369C278.146 278.284 278.409 278.191 278.664 278.089C278.91 277.979 279.122 277.869 279.3 277.758C280.064 278.624 280.632 279.37 281.006 279.998C281.387 280.618 281.553 281.174 281.502 281.666C281.468 282.158 281.209 282.646 280.726 283.129C280.658 283.197 280.543 283.312 280.382 283.473C280.221 283.634 280.047 283.808 279.86 283.995C279.682 284.173 279.516 284.339 279.364 284.491C279.211 284.644 279.096 284.759 279.02 284.835C278.536 285.319 278.082 285.628 277.658 285.764C277.251 285.9 276.822 285.853 276.373 285.624C275.914 285.387 275.388 284.971 274.794 284.377L265.63 275.213ZM262.423 278.42L264.014 276.829L275.622 288.437L274.031 290.028L262.423 278.42ZM271.727 272.909L274.209 273.176C274.065 273.914 273.895 274.678 273.7 275.467C273.496 276.248 273.28 277.033 273.051 277.822C272.822 278.594 272.584 279.341 272.338 280.062C272.117 279.943 271.829 279.833 271.472 279.731C271.108 279.621 270.794 279.536 270.531 279.477C270.743 278.772 270.929 278.034 271.091 277.262C271.252 276.49 271.383 275.73 271.485 274.984C271.595 274.228 271.676 273.537 271.727 272.909ZM267.527 290.473C267.773 290.024 268.053 289.498 268.367 288.895C268.672 288.284 268.99 287.635 269.321 286.948C269.644 286.252 269.966 285.565 270.289 284.886L271.956 285.968C271.608 286.893 271.239 287.83 270.849 288.781C270.467 289.723 270.115 290.584 269.792 291.364L267.527 290.473ZM283.093 276.867L291.723 268.238L293.135 269.651L284.506 278.28L283.093 276.867ZM275.889 271.623L286.39 261.123L294.726 269.46L293.174 271.012L286.25 264.088L278.791 271.547L285.74 278.496L284.251 279.986L275.889 271.623ZM282.227 266.456L283.691 264.992L285.982 267.283C286.143 267.444 286.258 267.534 286.326 267.55C286.394 267.55 286.491 267.487 286.619 267.36C286.644 267.334 286.699 267.279 286.784 267.194C286.877 267.101 286.967 267.012 287.051 266.927C287.145 266.833 287.213 266.766 287.255 266.723C287.331 266.647 287.374 266.579 287.382 266.52C287.391 266.443 287.357 266.35 287.28 266.24C287.213 266.121 287.085 265.959 286.899 265.756C287.051 265.739 287.238 265.696 287.459 265.629C287.679 265.544 287.9 265.45 288.121 265.349C288.341 265.23 288.532 265.115 288.693 265.005C289.024 265.455 289.241 265.841 289.342 266.163C289.444 266.486 289.444 266.783 289.342 267.054C289.249 267.317 289.058 267.593 288.77 267.881C288.702 267.949 288.621 268.03 288.528 268.123C288.434 268.217 288.333 268.318 288.222 268.429C288.121 268.531 288.023 268.628 287.93 268.721C287.836 268.815 287.76 268.891 287.7 268.951C287.293 269.358 286.928 269.621 286.606 269.74C286.292 269.85 285.974 269.82 285.651 269.651C285.329 269.481 284.956 269.184 284.531 268.76L282.227 266.456ZM272.529 269.281L283.971 257.839L285.448 259.316L274.005 270.758L272.529 269.281ZM277.124 266.927L278.625 265.425L281.171 267.971L279.669 269.472L277.124 266.927ZM279.911 264.139L281.451 262.599L283.997 265.145L282.457 266.685L279.911 264.139ZM279.224 268.874L280.649 267.449L281.909 268.709C282.334 269.133 282.715 269.625 283.055 270.185C283.394 270.745 283.615 271.382 283.717 272.094C283.818 272.807 283.729 273.609 283.449 274.5C283.288 274.474 283.076 274.466 282.813 274.474C282.55 274.483 282.283 274.504 282.011 274.538C281.748 274.564 281.536 274.598 281.375 274.64C281.638 273.834 281.744 273.151 281.693 272.591C281.65 272.022 281.506 271.539 281.26 271.14C281.014 270.741 280.743 270.393 280.446 270.096L279.224 268.874Z" fill="black"/>
<path d="M288.67 316.441L288.817 314.484C289.345 314.333 289.926 314.182 290.56 314.032C291.193 313.881 291.816 313.756 292.427 313.658C293.03 313.553 293.554 313.496 293.999 313.488L293.886 315.638C293.471 315.631 292.962 315.665 292.359 315.74C291.755 315.815 291.129 315.913 290.481 316.034C289.832 316.155 289.228 316.291 288.67 316.441ZM297.269 315.627L297.619 313.511C298.042 313.39 298.517 313.262 299.045 313.126C299.565 312.983 300.09 312.844 300.618 312.708C301.146 312.572 301.658 312.459 302.156 312.368C302.654 312.263 303.092 312.187 303.469 312.142L303.141 314.507C302.801 314.529 302.39 314.578 301.907 314.654C301.425 314.729 300.916 314.824 300.38 314.937C299.845 315.035 299.309 315.148 298.773 315.276C298.23 315.397 297.729 315.514 297.269 315.627ZM289.949 310.524L291.997 309.744C292.004 310.309 291.997 310.89 291.974 311.486C291.944 312.074 291.906 312.648 291.861 313.206C291.816 313.749 291.755 314.247 291.68 314.699L289.983 315.219C290.036 314.744 290.069 314.235 290.085 313.692C290.1 313.134 290.096 312.58 290.073 312.029C290.058 311.471 290.017 310.969 289.949 310.524ZM284.993 313.941L295.153 303.781L296.42 305.048L286.261 315.208L284.993 313.941ZM288.048 308.352L289.474 306.927L291.295 308.748L289.87 310.174L288.048 308.352ZM293.581 308.816L295.481 308.228C295.655 309.517 295.647 310.83 295.459 312.165C295.27 313.485 294.938 314.797 294.463 316.102C293.98 317.399 293.392 318.681 292.698 319.949C292.434 319.851 292.11 319.768 291.725 319.7C291.34 319.617 290.982 319.568 290.65 319.553C291.359 318.391 291.966 317.203 292.472 315.989C292.97 314.767 293.324 313.545 293.535 312.323C293.746 311.101 293.762 309.932 293.581 308.816ZM296.828 309.28L298.841 308.714C299.09 310.29 299.087 311.856 298.83 313.409C298.574 314.963 298.117 316.513 297.461 318.059C296.805 319.59 295.994 321.118 295.029 322.641C294.742 322.521 294.399 322.411 293.999 322.313C293.614 322.215 293.252 322.155 292.913 322.132C293.871 320.707 294.689 319.27 295.368 317.822C296.039 316.366 296.511 314.922 296.782 313.488C297.061 312.048 297.076 310.645 296.828 309.28ZM310.987 311.072L298.146 298.231L299.232 297.145L312.073 309.986L310.987 311.072ZM311.456 286.618L311.479 284.989C311.796 284.883 312.139 284.789 312.509 284.706C312.886 284.616 313.252 284.544 313.606 284.491C313.961 284.423 314.262 284.393 314.511 284.401L314.534 286.166C314.285 286.143 313.983 286.158 313.629 286.211C313.274 286.249 312.905 286.301 312.52 286.369C312.135 286.437 311.781 286.52 311.456 286.618ZM315.597 288.293L317.317 287.32C318.245 289.349 318.799 291.381 318.98 293.418C319.161 295.454 318.969 297.427 318.403 299.335C318.237 299.29 318.022 299.256 317.758 299.233C317.509 299.21 317.249 299.191 316.978 299.176C316.721 299.161 316.499 299.158 316.31 299.165C316.951 297.393 317.211 295.586 317.091 293.746C316.97 291.89 316.472 290.073 315.597 288.293ZM306.954 293.248L315.597 284.604L316.887 285.894L308.243 294.538L306.954 293.248ZM311.411 295.692L314.194 292.909L315.45 294.164L312.667 296.948L311.411 295.692ZM306.275 293.927L307.632 292.569L310.698 295.635C311.121 296.058 311.566 296.54 312.033 297.083C312.494 297.619 312.935 298.196 313.357 298.814C313.787 299.425 314.153 300.063 314.455 300.726C314.749 301.383 314.937 302.046 315.02 302.718C314.862 302.695 314.654 302.691 314.398 302.706C314.149 302.729 313.896 302.755 313.64 302.785C313.399 302.816 313.195 302.853 313.029 302.899C312.946 302.303 312.776 301.733 312.52 301.19C312.271 300.64 311.966 300.115 311.604 299.618C311.249 299.112 310.876 298.641 310.483 298.203C310.084 297.758 309.703 297.355 309.341 296.993L306.275 293.927ZM308.809 287.614L310.178 286.245C311.158 287.18 312.124 288.063 313.074 288.892C314.025 289.707 314.937 290.438 315.812 291.087C316.68 291.728 317.487 292.249 318.233 292.648C318.98 293.048 319.64 293.301 320.213 293.406C320.786 293.512 321.247 293.429 321.594 293.158C321.759 293.052 321.707 292.803 321.435 292.411C321.164 292.004 320.741 291.483 320.168 290.85C320.447 290.842 320.764 290.804 321.118 290.736C321.48 290.661 321.786 290.582 322.035 290.499C323.015 291.645 323.528 292.573 323.573 293.282C323.626 293.998 323.283 294.545 322.544 294.922C321.971 295.3 321.311 295.462 320.564 295.409C319.825 295.364 319.018 295.137 318.143 294.73C317.268 294.323 316.336 293.768 315.348 293.067C314.353 292.358 313.308 291.547 312.214 290.635C311.121 289.707 309.986 288.7 308.809 287.614Z" fill="black"/>
<path d="M303.78 354.499L316.22 342.058L317.98 343.818L305.539 356.259L303.78 354.499ZM324.013 343.858L332.356 335.515L333.981 337.14L325.638 345.484L324.013 343.858ZM319.875 339.774L328.245 331.404L329.843 333.002L321.473 341.372L319.875 339.774ZM315.011 336.576L325.182 326.406L335.809 337.033L334.089 338.753L325.101 329.765L318.276 336.59L327.277 345.591L325.652 347.217L315.011 336.576ZM316.932 330.624L319.324 328.797C319.619 329.505 319.888 330.212 320.13 330.92C320.372 331.628 320.569 332.246 320.721 332.774L318.8 334.05C318.639 333.692 318.455 333.311 318.249 332.908C318.052 332.496 317.837 332.093 317.604 331.699C317.38 331.296 317.156 330.938 316.932 330.624ZM328.836 325.439L332.571 321.704L334.196 323.329L330.461 327.064L328.836 325.439ZM330.757 316.934L332.477 315.214L342.996 325.734C343.48 326.218 343.798 326.652 343.95 327.037C344.103 327.422 344.107 327.83 343.964 328.26C343.82 328.69 343.547 329.151 343.144 329.644C342.759 330.136 342.257 330.692 341.639 331.31C341.451 331.157 341.209 331.005 340.914 330.853C340.636 330.701 340.345 330.562 340.041 330.436C339.727 330.302 339.45 330.204 339.208 330.141C339.664 329.72 340.085 329.317 340.471 328.932C340.856 328.547 341.115 328.287 341.25 328.152C341.384 328.018 341.451 327.897 341.451 327.79C341.451 327.682 341.393 327.57 341.277 327.454L330.757 316.934ZM332.02 322.254L332.356 321.919L332.584 321.556L334.089 320.857C335.119 322.281 335.938 323.692 336.548 325.089C337.166 326.478 337.591 327.817 337.824 329.106C338.057 330.378 338.088 331.574 337.918 332.693C337.694 332.649 337.421 332.626 337.098 332.626C336.767 332.617 336.436 332.626 336.104 332.653C335.782 332.671 335.513 332.707 335.298 332.761C335.495 331.722 335.518 330.642 335.365 329.523C335.204 328.394 334.873 327.248 334.371 326.083C333.869 324.901 333.202 323.741 332.369 322.604L332.02 322.254ZM334.331 317.283C335.441 317.964 336.574 318.551 337.73 319.043C338.894 319.527 340.063 319.899 341.236 320.159C342.41 320.418 343.579 320.53 344.743 320.494C345.907 320.441 347.045 320.217 348.155 319.823C348.129 320.065 348.12 320.351 348.129 320.683C348.137 321.014 348.169 321.35 348.223 321.69C348.276 322.013 348.335 322.304 348.397 322.563C346.767 323.011 345.124 323.132 343.467 322.926C341.801 322.711 340.121 322.241 338.428 321.516C336.736 320.79 335.034 319.894 333.323 318.829L334.331 317.283ZM338.24 313.643L340.82 313.186C340.829 313.965 340.829 314.78 340.82 315.631C340.811 316.482 340.78 317.31 340.726 318.116C340.681 318.914 340.609 319.639 340.511 320.293L338.442 320.562C338.505 319.89 338.536 319.151 338.536 318.345C338.545 317.53 338.527 316.715 338.482 315.9C338.428 315.076 338.348 314.323 338.24 313.643ZM349.445 315.658L358.205 306.898L359.468 308.161L350.708 316.921L349.445 315.658ZM347.631 313.146L356.646 304.131L357.99 305.474L348.975 314.489L347.631 313.146ZM349.956 319.5L361.846 307.61L363.23 308.994L351.34 320.884L349.956 319.5ZM349.942 309.196L351.608 307.53L357.721 313.643L356.055 315.309L349.942 309.196ZM345.495 309.263L346.221 309.988L352.186 304.023L351.46 303.298L345.495 309.263ZM343.655 307.422L344.353 308.121L350.318 302.156L349.62 301.457L343.655 307.422ZM340.847 307.785L350.063 298.568L355.074 303.58L345.858 312.796L340.847 307.785ZM346.422 311.963L348.451 310.848C348.693 311.484 348.885 312.151 349.029 312.85C349.172 313.549 349.271 314.238 349.324 314.919C349.378 315.6 349.387 316.227 349.351 316.8C349.145 316.809 348.899 316.831 348.612 316.867C348.326 316.903 348.039 316.948 347.752 317.001C347.457 317.046 347.206 317.1 347 317.163C347.116 316.348 347.125 315.479 347.027 314.556C346.928 313.616 346.727 312.751 346.422 311.963Z" fill="black"/>
<path d="M155.751 260.006L159.531 263.786L158.016 265.301L154.236 261.521L155.751 260.006ZM164.788 263.417L166.379 265.008L157.202 274.185C156.845 274.541 156.646 274.8 156.603 274.961C156.57 275.114 156.671 275.309 156.909 275.547C156.96 275.598 157.045 275.683 157.164 275.802C157.282 275.92 157.414 276.052 157.558 276.196C157.702 276.34 157.834 276.472 157.953 276.591C158.071 276.709 158.161 276.799 158.22 276.858C158.39 277.028 158.589 277.083 158.818 277.023C159.047 276.964 159.365 276.765 159.773 276.425C160.197 276.086 160.761 275.589 161.466 274.936C161.5 275.157 161.555 275.398 161.631 275.662C161.716 275.933 161.809 276.196 161.911 276.451C162.021 276.697 162.132 276.909 162.242 277.087C161.376 277.851 160.63 278.419 160.002 278.793C159.382 279.174 158.827 279.34 158.334 279.289C157.842 279.255 157.354 278.996 156.871 278.513C156.803 278.445 156.688 278.33 156.527 278.169C156.366 278.008 156.192 277.834 156.005 277.647C155.827 277.469 155.662 277.303 155.509 277.151C155.356 276.998 155.242 276.883 155.165 276.807C154.682 276.323 154.372 275.869 154.236 275.445C154.1 275.038 154.147 274.609 154.376 274.16C154.614 273.701 155.029 273.175 155.623 272.581L164.788 263.417ZM161.58 260.21L163.171 261.801L151.563 273.409L149.972 271.818L161.58 260.21ZM167.091 269.514L166.824 271.996C166.086 271.852 165.322 271.682 164.533 271.487C163.752 271.283 162.967 271.067 162.178 270.838C161.406 270.609 160.659 270.371 159.938 270.125C160.057 269.904 160.167 269.616 160.269 269.259C160.379 268.895 160.464 268.581 160.524 268.318C161.228 268.53 161.966 268.716 162.738 268.878C163.511 269.039 164.27 269.17 165.017 269.272C165.772 269.382 166.463 269.463 167.091 269.514ZM149.527 265.314C149.976 265.56 150.503 265.84 151.105 266.154C151.716 266.459 152.365 266.777 153.052 267.108C153.748 267.431 154.436 267.753 155.114 268.076L154.032 269.743C153.108 269.395 152.17 269.026 151.22 268.636C150.278 268.254 149.416 267.902 148.636 267.579L149.527 265.314ZM170.477 270.787L181.779 282.089L180.354 283.515L169.051 272.212L170.477 270.787ZM176.319 274.541L177.91 276.132L165.959 288.084L164.368 286.493L176.319 274.541ZM168.657 281.415L169.421 283.247C168.699 283.375 167.953 283.443 167.18 283.451C166.417 283.468 165.64 283.43 164.851 283.336C164.079 283.243 163.315 283.099 162.56 282.904C161.805 282.726 161.088 282.501 160.409 282.229C160.452 282.017 160.494 281.771 160.536 281.491C160.579 281.211 160.609 280.927 160.626 280.638C160.642 280.35 160.647 280.099 160.638 279.887C161.266 280.193 161.924 280.46 162.611 280.689C163.307 280.91 164.007 281.092 164.711 281.236C165.424 281.372 166.111 281.457 166.773 281.491C167.452 281.525 168.08 281.499 168.657 281.415ZM171.024 283.884C170.956 284.461 170.944 285.084 170.986 285.755C171.045 286.425 171.143 287.117 171.279 287.829C171.432 288.542 171.627 289.246 171.864 289.942C172.11 290.63 172.386 291.287 172.692 291.915C172.471 291.898 172.212 291.894 171.915 291.902C171.618 291.928 171.325 291.958 171.037 291.991C170.748 292.042 170.494 292.093 170.273 292.144C169.993 291.474 169.764 290.761 169.586 290.006C169.399 289.259 169.255 288.496 169.153 287.715C169.068 286.934 169.03 286.158 169.039 285.386C169.056 284.622 169.124 283.884 169.242 283.171L171.024 283.884ZM167.906 278.474L167.129 279.251L173.303 285.424L174.079 284.647L167.906 278.474ZM169.739 276.642L168.975 277.405L175.148 283.578L175.912 282.815L169.739 276.642ZM169.395 274.007L178.623 283.235L173.723 288.135L164.495 278.907L169.395 274.007Z" fill="black"/>
<path d="M132.671 290.374L134.006 291.709L129.152 296.563L127.817 295.228L132.671 290.374ZM130.838 287.297L137.06 293.52L135.963 294.617L129.74 288.394L130.838 287.297ZM127.251 292.286L126.629 292.909L131.505 297.785L132.128 297.163L127.251 292.286ZM128.824 290.714L128.213 291.325L133.089 296.201L133.7 295.59L128.824 290.714ZM128.541 288.372L136.11 295.941L131.856 300.195L124.287 292.626L128.541 288.372ZM128.111 297.717L129.808 297.626C130.08 298.185 130.348 298.762 130.611 299.357C130.883 299.961 131.132 300.534 131.358 301.077C131.6 301.62 131.799 302.099 131.958 302.514L129.967 302.469C129.838 302.084 129.676 301.628 129.48 301.1C129.292 300.579 129.08 300.029 128.847 299.448C128.613 298.867 128.368 298.29 128.111 297.717ZM135.872 287.082L137.275 288.485L135.669 290.091L134.266 288.689L135.872 287.082ZM130.962 283.756L140.681 293.474L138.18 295.975L136.789 294.583L138.056 293.316L131.064 286.324L129.797 287.591L128.462 286.256L130.962 283.756ZM126.539 294.334L126.855 296.325C126.342 296.22 125.781 296.05 125.17 295.816C124.559 295.597 123.948 295.334 123.337 295.024C122.726 294.73 122.153 294.413 121.617 294.074C121.677 293.833 121.73 293.531 121.775 293.169C121.828 292.814 121.862 292.501 121.877 292.23C122.368 292.554 122.896 292.863 123.461 293.158C124.042 293.452 124.6 293.701 125.136 293.904C125.686 294.108 126.154 294.251 126.539 294.334ZM133.141 309.987L145.982 297.146L147.068 298.232L134.227 311.073L133.141 309.987ZM151.621 304.098L158.342 310.818L157.018 312.142L150.298 305.422L151.621 304.098ZM142.378 311.531L152.47 321.623L151.157 322.935L141.066 312.844L142.378 311.531ZM146.666 306.994L157.007 317.335L155.672 318.67L145.331 308.329L146.666 306.994ZM153.036 306.96L154.427 308.352C153.839 308.835 153.22 309.333 152.572 309.845C151.923 310.358 151.267 310.871 150.603 311.384C149.947 311.905 149.298 312.41 148.657 312.9C148.016 313.39 147.401 313.847 146.813 314.269C146.24 314.692 145.719 315.069 145.252 315.401L143.837 313.986C144.335 313.654 144.882 313.274 145.478 312.844C146.074 312.414 146.689 311.957 147.322 311.475C147.971 310.992 148.623 310.498 149.279 309.993C149.943 309.48 150.592 308.967 151.225 308.454C151.859 307.941 152.462 307.443 153.036 306.96ZM157.719 310.196L159.134 311.61C158.53 312.184 157.893 312.776 157.222 313.387C156.558 313.99 155.883 314.597 155.196 315.208C154.51 315.819 153.835 316.411 153.171 316.984C152.523 317.558 151.897 318.101 151.293 318.614C150.697 319.119 150.151 319.575 149.653 319.983L148.216 318.546C148.721 318.131 149.279 317.671 149.89 317.165C150.509 316.653 151.15 316.11 151.814 315.536C152.485 314.971 153.16 314.386 153.839 313.783C154.525 313.172 155.193 312.565 155.841 311.961C156.505 311.358 157.131 310.769 157.719 310.196Z" fill="black"/>
<path d="M93.2378 304.227L103.489 314.477L101.836 316.13L91.5853 305.879L93.2378 304.227ZM89.8387 309.48L98.0878 317.729L96.4488 319.368L88.1996 311.119L89.8387 309.48ZM83.6049 312.355L95.3202 324.07L93.6811 325.709L81.9658 313.994L83.6049 312.355ZM106.713 316.224L111.926 321.437L110.717 322.646L105.504 317.433L106.713 316.224ZM100.318 322.189L112.369 334.24L111.106 335.503L99.0552 323.452L100.318 322.189ZM104.765 318.468L109.588 323.291L108.392 324.487L103.569 319.663L104.765 318.468ZM99.3507 329.767L105.894 336.309L104.684 337.519L98.1416 330.976L99.3507 329.767ZM102.011 320.389C102.521 320.846 103.099 321.361 103.744 321.934C104.398 322.516 105.083 323.13 105.8 323.774C106.525 324.41 107.251 325.046 107.976 325.682L106.74 326.891C105.692 325.987 104.644 325.082 103.596 324.178C102.557 323.264 101.639 322.462 100.842 321.773L102.011 320.389ZM108.11 318.562L109.629 320.08L105.437 324.272L103.731 322.942L108.11 318.562ZM115.217 323.627L116.843 325.548C116.404 325.736 115.983 325.906 115.58 326.058C115.177 326.211 114.819 326.336 114.505 326.435L113.323 324.822C113.637 324.652 113.964 324.46 114.304 324.245C114.653 324.039 114.958 323.833 115.217 323.627ZM110.515 326.985L109.655 327.845L112.275 330.465L113.135 329.605L110.515 326.985ZM112.49 325.011L111.644 325.857L114.264 328.477L115.11 327.63L112.49 325.011ZM112.221 322.324L117.851 327.953L112.598 333.206L106.968 327.577L112.221 322.324ZM103.798 326.152L104.765 328.087C103.843 328.311 102.884 328.427 101.89 328.436C100.896 328.445 99.9105 328.365 98.9342 328.195C97.958 328.024 97.0309 327.787 96.1532 327.483C96.198 327.312 96.2428 327.088 96.2875 326.811C96.3413 326.524 96.3861 326.238 96.4219 325.951C96.4577 325.664 96.4711 325.418 96.4622 325.212C97.2414 325.543 98.0565 325.812 98.9074 326.018C99.7583 326.224 100.6 326.341 101.433 326.367C102.275 326.403 103.063 326.332 103.798 326.152ZM100.452 326.515L109.225 335.288L105.491 339.023L103.757 337.29L106.283 334.764L100.909 329.39L98.3162 331.983L96.6503 330.317L100.452 326.515ZM117.475 332.171L129.297 343.994L127.699 345.593L115.876 333.77L117.475 332.171ZM125.643 334.079L127.363 335.799L114.747 348.414L113.028 346.695L125.643 334.079ZM121.29 337.733L122.231 339.641C121.218 340.044 120.184 340.38 119.127 340.649C118.07 340.918 117.009 341.11 115.943 341.227C114.886 341.352 113.838 341.397 112.799 341.361C111.778 341.325 110.797 341.195 109.857 340.971C109.902 340.747 109.938 340.479 109.964 340.165C109.991 339.852 110.009 339.538 110.018 339.225C110.036 338.902 110.036 338.625 110.018 338.392C110.878 338.643 111.783 338.813 112.732 338.902C113.699 338.992 114.676 339.01 115.661 338.956C116.655 338.893 117.627 338.755 118.576 338.54C119.535 338.334 120.439 338.065 121.29 337.733ZM123.601 340.179C123.287 341.012 123.041 341.903 122.862 342.852C122.683 343.802 122.571 344.764 122.526 345.741C122.49 346.726 122.517 347.693 122.607 348.643C122.696 349.592 122.867 350.488 123.117 351.33C122.893 351.303 122.616 351.294 122.284 351.303C121.971 351.312 121.653 351.334 121.33 351.37C121.017 351.415 120.744 351.464 120.511 351.518C120.305 350.595 120.184 349.632 120.148 348.629C120.121 347.617 120.162 346.583 120.269 345.526C120.386 344.46 120.574 343.403 120.833 342.355C121.093 341.307 121.407 340.286 121.774 339.292L123.601 340.179ZM126.973 352.821L135.733 361.581L134.47 362.844L125.71 354.084L126.973 352.821ZM129.485 351.007L138.5 360.022L137.157 361.366L128.142 352.351L129.485 351.007ZM123.131 353.332L135.021 365.222L133.637 366.605L121.747 354.715L123.131 353.332ZM133.435 353.318L135.101 354.984L128.988 361.097L127.322 359.431L133.435 353.318ZM133.368 348.871L132.643 349.597L138.608 355.562L139.333 354.836L133.368 348.871ZM135.209 347.031L134.51 347.729L140.475 353.694L141.174 352.996L135.209 347.031ZM134.846 344.223L144.062 353.439L139.051 358.45L129.835 349.234L134.846 344.223ZM130.668 349.798L131.783 351.827C131.147 352.069 130.48 352.261 129.781 352.405C129.082 352.548 128.393 352.646 127.712 352.7C127.031 352.754 126.404 352.763 125.831 352.727C125.822 352.521 125.8 352.275 125.764 351.988C125.728 351.701 125.683 351.415 125.63 351.128C125.585 350.833 125.531 350.582 125.468 350.376C126.283 350.492 127.152 350.501 128.075 350.403C129.015 350.304 129.88 350.103 130.668 349.798Z" fill="black"/>
<path d="M309.725 78.0192L321.683 89.9764L320.003 91.6558L308.046 79.6986L309.725 78.0192ZM317.679 80.1688L319.452 81.9422L315.664 85.7309L313.89 83.9575L317.679 80.1688ZM309.43 83.9575L310.827 86.322C309.797 86.7968 308.731 87.2088 307.63 87.5581C306.537 87.9163 305.462 88.203 304.405 88.4179C303.357 88.6239 302.381 88.7404 301.476 88.7672C301.467 88.5254 301.432 88.2298 301.369 87.8805C301.315 87.5402 301.257 87.1953 301.194 86.846C301.131 86.4967 301.069 86.2011 301.006 85.9593C301.857 86.0041 302.762 85.9503 303.72 85.7981C304.678 85.6458 305.646 85.4129 306.622 85.0995C307.607 84.777 308.543 84.3964 309.43 83.9575ZM313.232 89.0225L315.529 90.0032C315.395 90.7287 315.243 91.4901 315.073 92.2872C314.902 93.0843 314.714 93.8815 314.508 94.6786C314.311 95.4668 314.096 96.2102 313.863 96.9089C313.64 97.6164 313.407 98.2344 313.165 98.7629L310.545 97.7284C310.787 97.2358 311.033 96.6402 311.284 95.9415C311.544 95.2519 311.785 94.5174 312.009 93.7382C312.251 92.959 312.475 92.1618 312.681 91.3467C312.896 90.5406 313.08 89.7659 313.232 89.0225ZM325.471 89.2509L337.334 101.114L335.763 102.686L323.899 90.8228L325.471 89.2509ZM321.629 98.1449L328.629 105.145L327.178 106.596L320.178 99.5959L321.629 98.1449ZM318.418 101.463L325.216 108.261L323.725 109.753L316.927 102.955L318.418 101.463ZM329.878 94.7861L331.45 97.1641C330.984 97.4328 330.509 97.7015 330.026 97.9702C329.551 98.23 329.094 98.4807 328.655 98.7226C328.234 98.9644 327.845 99.1659 327.487 99.3272L326.345 97.4059C326.712 97.182 327.101 96.9268 327.513 96.6401C327.934 96.3446 328.351 96.0356 328.763 95.7131C329.184 95.3996 329.556 95.0906 329.878 94.7861ZM323.711 93.6979L333.022 103.008L324.195 111.835L322.475 110.115L329.811 102.78L323.859 96.8282L316.524 104.164L314.884 102.525L323.711 93.6979ZM343.918 109.417C343.04 109.56 342.046 109.623 340.935 109.605C339.833 109.596 338.691 109.502 337.509 109.323C336.336 109.153 335.185 108.897 334.056 108.557C334.119 108.351 334.173 108.109 334.217 107.832C334.271 107.563 334.307 107.285 334.325 106.999C334.352 106.721 334.365 106.466 334.365 106.233C335.503 106.636 336.694 106.922 337.939 107.093C339.193 107.254 340.393 107.317 341.54 107.281C342.695 107.254 343.712 107.133 344.589 106.918L346.269 108.597C346.125 109.475 346.04 110.366 346.013 111.271C345.987 112.176 346.027 113.076 346.134 113.971C346.242 114.867 346.403 115.736 346.618 116.578C346.833 117.42 347.102 118.217 347.424 118.969C347.012 118.969 346.587 119.009 346.148 119.09C345.709 119.171 345.292 119.256 344.898 119.345C344.657 118.566 344.446 117.738 344.267 116.86C344.097 115.991 343.967 115.118 343.877 114.24C343.797 113.353 343.756 112.498 343.756 111.674C343.756 110.85 343.81 110.098 343.918 109.417ZM338.073 108.544L344.831 115.301L343.42 116.712L336.663 109.954L338.073 108.544ZM333.72 109.672L343.676 119.627L342.279 121.025L332.323 111.069L333.72 109.672ZM328.964 113.085L340.384 124.504L339 125.888L327.581 114.468L328.964 113.085ZM339.995 111.593L341.701 113.3L334.741 120.259L333.035 118.553L339.995 111.593ZM332.659 112.426L334.486 113.179C334.432 113.573 334.352 113.985 334.244 114.415C334.146 114.854 334.034 115.27 333.908 115.664C333.783 116.058 333.649 116.39 333.505 116.658L331.504 115.893C331.656 115.633 331.804 115.306 331.947 114.912C332.099 114.509 332.238 114.092 332.363 113.662C332.489 113.232 332.587 112.82 332.659 112.426ZM340.008 118.727L340.989 120.837C340.308 120.98 339.618 121.114 338.92 121.24C338.23 121.356 337.621 121.437 337.093 121.482L336.394 119.762C336.761 119.699 337.155 119.619 337.576 119.52C338.006 119.413 338.432 119.292 338.853 119.157C339.282 119.014 339.668 118.871 340.008 118.727ZM345.973 125.821L354.733 134.581L353.47 135.844L344.71 127.084L345.973 125.821ZM348.485 124.007L357.5 133.022L356.157 134.366L347.142 125.351L348.485 124.007ZM342.131 126.332L354.021 138.222L352.637 139.605L340.747 127.715L342.131 126.332ZM352.435 126.318L354.101 127.984L347.988 134.097L346.322 132.431L352.435 126.318ZM352.368 121.871L351.643 122.597L357.608 128.562L358.333 127.836L352.368 121.871ZM354.209 120.031L353.51 120.729L359.475 126.694L360.174 125.996L354.209 120.031ZM353.846 117.223L363.062 126.439L358.051 131.45L348.835 122.234L353.846 117.223ZM349.668 122.798L350.783 124.827C350.147 125.069 349.48 125.261 348.781 125.405C348.082 125.548 347.393 125.646 346.712 125.7C346.031 125.754 345.404 125.763 344.831 125.727C344.822 125.521 344.8 125.275 344.764 124.988C344.728 124.701 344.683 124.415 344.63 124.128C344.585 123.833 344.531 123.582 344.468 123.376C345.283 123.492 346.152 123.501 347.075 123.403C348.015 123.304 348.88 123.103 349.668 122.798Z" fill="black"/>
<path d="M213.008 125.194H228.992V127.21H213.008V125.194ZM216.968 132.934H225.014V134.608H216.968V132.934ZM216.59 135.796H225.41V137.524H216.59V135.796ZM219.92 133.762H221.954V140.098H219.92V133.762ZM213.692 128.56H226.724V130.54H215.852V140.566H213.692V128.56ZM226.112 128.56H228.326V138.406C228.326 138.922 228.254 139.318 228.11 139.594C227.966 139.882 227.714 140.098 227.354 140.242C226.982 140.398 226.526 140.488 225.986 140.512C225.458 140.548 224.828 140.566 224.096 140.566C224.048 140.29 223.952 139.978 223.808 139.63C223.676 139.282 223.538 138.982 223.394 138.73C223.694 138.742 224 138.754 224.312 138.766C224.624 138.778 224.906 138.784 225.158 138.784C225.422 138.772 225.596 138.766 225.68 138.766C225.848 138.766 225.962 138.742 226.022 138.694C226.082 138.634 226.112 138.538 226.112 138.406V128.56ZM217.652 131.026L219.362 130.522C219.578 130.81 219.776 131.14 219.956 131.512C220.148 131.884 220.292 132.208 220.388 132.484L218.588 133.078C218.516 132.79 218.39 132.454 218.21 132.07C218.03 131.686 217.844 131.338 217.652 131.026ZM222.728 130.558L224.546 131.062C224.306 131.494 224.066 131.914 223.826 132.322C223.598 132.718 223.376 133.066 223.16 133.366L221.63 132.898C221.762 132.682 221.894 132.436 222.026 132.16C222.17 131.884 222.302 131.608 222.422 131.332C222.542 131.056 222.644 130.798 222.728 130.558ZM219.848 123.826H222.206V129.964H219.848V123.826Z" fill="black"/>
<path d="M215.744 79.336L217.792 79.832C217.536 80.6427 217.227 81.4373 216.864 82.216C216.501 82.984 216.112 83.704 215.696 84.376C215.28 85.048 214.848 85.6293 214.4 86.12C214.272 86.0133 214.096 85.8853 213.872 85.736C213.648 85.5867 213.419 85.4427 213.184 85.304C212.96 85.1547 212.763 85.0373 212.592 84.952C213.051 84.5147 213.477 83.9973 213.872 83.4C214.277 82.8027 214.635 82.1573 214.944 81.464C215.264 80.7707 215.531 80.0613 215.744 79.336ZM216.192 81.416H225.984V83.288H215.232L216.192 81.416ZM212.784 86.616H227.248V88.552H212.784V86.616ZM219.008 82.248H221.008V94.44H219.008V82.248Z" fill="black"/>
<path d="M301.988 224.524H314.192V226.522H301.988V224.524ZM300.602 215.722H315.452V227.512H313.256V217.72H302.708V227.548H300.602V215.722ZM308.738 216.55H310.808V219.79C310.808 220.018 310.826 220.162 310.862 220.222C310.91 220.27 311.024 220.294 311.204 220.294C311.24 220.294 311.318 220.294 311.438 220.294C311.57 220.294 311.696 220.294 311.816 220.294C311.948 220.294 312.044 220.294 312.104 220.294C312.212 220.294 312.29 220.276 312.338 220.24C312.398 220.192 312.44 220.102 312.464 219.97C312.5 219.838 312.524 219.634 312.536 219.358C312.656 219.454 312.818 219.556 313.022 219.664C313.238 219.76 313.46 219.85 313.688 219.934C313.928 220.006 314.144 220.06 314.336 220.096C314.252 220.648 314.132 221.074 313.976 221.374C313.82 221.674 313.61 221.884 313.346 222.004C313.094 222.124 312.764 222.184 312.356 222.184C312.26 222.184 312.146 222.184 312.014 222.184C311.882 222.184 311.738 222.184 311.582 222.184C311.438 222.184 311.3 222.184 311.168 222.184C311.036 222.184 310.928 222.184 310.844 222.184C310.268 222.184 309.824 222.112 309.512 221.968C309.212 221.824 309.008 221.578 308.9 221.23C308.792 220.882 308.738 220.408 308.738 219.808V216.55ZM299.882 211.69H316.064V213.778H299.882V211.69ZM304.796 213.274H306.92V216.874H304.796V213.274ZM308.738 213.274H310.916V216.874H308.738V213.274ZM304.904 216.136H306.92V217.918C306.92 218.518 306.842 219.136 306.686 219.772C306.53 220.408 306.236 221.014 305.804 221.59C305.372 222.166 304.742 222.67 303.914 223.102C303.818 222.97 303.674 222.814 303.482 222.634C303.29 222.454 303.086 222.28 302.87 222.112C302.666 221.944 302.492 221.818 302.348 221.734C303.104 221.35 303.662 220.942 304.022 220.51C304.394 220.078 304.634 219.634 304.742 219.178C304.85 218.722 304.904 218.284 304.904 217.864V216.136Z" fill="black"/>
<path d="M347.928 224.008H358.488V225.688H347.928V224.008ZM347.928 221.448H358.52V223.032H347.928V221.448ZM346.584 215.672H359.48V226.424H357.608V217.384H348.376V226.424H346.584V215.672ZM353.352 213.512H355.192V218.568C355.192 218.803 355.208 218.947 355.24 219C355.283 219.053 355.368 219.08 355.496 219.08C355.528 219.08 355.576 219.08 355.64 219.08C355.704 219.08 355.773 219.08 355.848 219.08C355.923 219.08 355.992 219.08 356.056 219.08C356.131 219.08 356.184 219.08 356.216 219.08C356.291 219.08 356.349 219.059 356.392 219.016C356.445 218.973 356.483 218.888 356.504 218.76C356.525 218.632 356.541 218.445 356.552 218.2C356.733 218.328 356.973 218.451 357.272 218.568C357.581 218.685 357.859 218.776 358.104 218.84C358.019 219.523 357.848 219.992 357.592 220.248C357.336 220.504 356.941 220.632 356.408 220.632C356.333 220.632 356.237 220.632 356.12 220.632C356.013 220.632 355.896 220.632 355.768 220.632C355.651 220.632 355.539 220.632 355.432 220.632C355.325 220.632 355.235 220.632 355.16 220.632C354.659 220.632 354.28 220.573 354.024 220.456C353.768 220.328 353.592 220.115 353.496 219.816C353.4 219.507 353.352 219.091 353.352 218.568V213.512ZM350.312 213.512H352.04V217.016C352.04 217.667 351.965 218.248 351.816 218.76C351.677 219.272 351.4 219.72 350.984 220.104C350.568 220.488 349.944 220.808 349.112 221.064C348.995 220.861 348.829 220.632 348.616 220.376C348.403 220.12 348.205 219.907 348.024 219.736C348.675 219.544 349.165 219.315 349.496 219.048C349.827 218.781 350.045 218.477 350.152 218.136C350.259 217.784 350.312 217.405 350.312 217V213.512ZM345.864 212.312H360.168V214.152H345.864V212.312Z" fill="black"/>
<path d="M213.008 301.984H218.354V304.126H213.008V301.984ZM221.81 298.006H224.06V310.984C224.06 311.488 224.102 311.812 224.186 311.956C224.27 312.088 224.48 312.154 224.816 312.154C224.888 312.154 225.008 312.154 225.176 312.154C225.344 312.154 225.53 312.154 225.734 312.154C225.938 312.154 226.124 312.154 226.292 312.154C226.46 312.154 226.586 312.154 226.67 312.154C226.91 312.154 227.09 312.052 227.21 311.848C227.33 311.644 227.414 311.278 227.462 310.75C227.522 310.21 227.57 309.46 227.606 308.5C227.786 308.632 227.996 308.764 228.236 308.896C228.488 309.028 228.74 309.148 228.992 309.256C229.244 309.352 229.472 309.424 229.676 309.472C229.604 310.624 229.478 311.554 229.298 312.262C229.13 312.97 228.854 313.48 228.47 313.792C228.098 314.116 227.57 314.278 226.886 314.278C226.79 314.278 226.628 314.278 226.4 314.278C226.172 314.278 225.926 314.278 225.662 314.278C225.41 314.278 225.176 314.278 224.96 314.278C224.744 314.278 224.582 314.278 224.474 314.278C223.79 314.278 223.25 314.176 222.854 313.972C222.47 313.78 222.2 313.444 222.044 312.964C221.888 312.472 221.81 311.806 221.81 310.966V298.006ZM217.274 298.006H219.524V314.422H217.274V298.006ZM227.75 300.688L229.316 302.632C228.692 303.052 228.032 303.472 227.336 303.892C226.64 304.3 225.932 304.702 225.212 305.098C224.504 305.482 223.808 305.842 223.124 306.178C223.052 305.938 222.926 305.656 222.746 305.332C222.566 304.996 222.404 304.714 222.26 304.486C222.908 304.138 223.562 303.748 224.222 303.316C224.882 302.884 225.512 302.44 226.112 301.984C226.724 301.528 227.27 301.096 227.75 300.688ZM212.36 310.138C212.852 309.994 213.422 309.82 214.07 309.616C214.718 309.4 215.402 309.166 216.122 308.914C216.842 308.65 217.556 308.392 218.264 308.14L218.678 310.084C217.778 310.492 216.854 310.894 215.906 311.29C214.97 311.686 214.112 312.046 213.332 312.37L212.36 310.138Z" fill="black"/>
<path d="M213.624 350.408H228.392V352.344H213.624V350.408ZM220.008 347.864H222.024V356.2C222.024 356.744 221.949 357.165 221.8 357.464C221.661 357.763 221.395 357.987 221 358.136C220.616 358.285 220.147 358.381 219.592 358.424C219.037 358.467 218.392 358.483 217.656 358.472C217.624 358.28 217.56 358.061 217.464 357.816C217.368 357.581 217.267 357.341 217.16 357.096C217.053 356.861 216.947 356.659 216.84 356.488C217.213 356.499 217.581 356.509 217.944 356.52C218.317 356.531 218.648 356.536 218.936 356.536C219.235 356.536 219.443 356.536 219.56 356.536C219.731 356.536 219.848 356.509 219.912 356.456C219.976 356.403 220.008 356.307 220.008 356.168V347.864ZM215.304 344.392H225.384V346.28H215.304V344.392ZM224.744 344.392H225.256L225.704 344.28L227.16 345.384C226.669 345.907 226.104 346.429 225.464 346.952C224.835 347.475 224.179 347.976 223.496 348.456C222.813 348.925 222.147 349.331 221.496 349.672C221.4 349.533 221.277 349.379 221.128 349.208C220.979 349.037 220.824 348.872 220.664 348.712C220.504 348.541 220.36 348.397 220.232 348.28C220.808 347.992 221.389 347.645 221.976 347.24C222.573 346.835 223.117 346.419 223.608 345.992C224.099 345.565 224.477 345.176 224.744 344.824V344.392Z" fill="black"/>
<path d="M185.128 386.598H199.815V388.859H185.128V386.598ZM184.026 399.537H201.069V401.798H184.026V399.537ZM190.41 387.396H193.013C192.823 388.536 192.614 389.72 192.386 390.949C192.158 392.178 191.924 393.4 191.683 394.616C191.442 395.832 191.202 396.985 190.961 398.074C190.733 399.163 190.511 400.132 190.296 400.981H187.731C187.959 400.094 188.2 399.1 188.453 397.998C188.706 396.883 188.947 395.724 189.175 394.521C189.416 393.305 189.644 392.089 189.859 390.873C190.074 389.657 190.258 388.498 190.41 387.396ZM185.755 392.165H198.086V400.601H195.711V394.407H185.755V392.165ZM202.95 389.41H220.126V391.481H202.95V389.41ZM204.299 386.256H218.815V388.251H204.299V386.256ZM207.434 384.85H209.752V390.417H207.434V384.85ZM213.305 384.85H215.661V390.417H213.305V384.85ZM210.341 390.588H212.697V398.378H210.341V390.588ZM207.035 396.516V397.618H216.098V396.516H207.035ZM207.035 393.989V395.053H216.098V393.989H207.035ZM204.85 392.412H218.397V399.176H204.85V392.412ZM212.868 400.392L214.141 398.948C214.838 399.176 215.541 399.423 216.25 399.689C216.972 399.955 217.656 400.215 218.302 400.468C218.961 400.721 219.524 400.949 219.993 401.152L218.359 402.672C217.941 402.469 217.434 402.235 216.839 401.969C216.244 401.716 215.604 401.45 214.92 401.171C214.236 400.892 213.552 400.633 212.868 400.392ZM208.498 399.024L210.436 400.373C209.929 400.69 209.334 400.994 208.65 401.285C207.966 401.589 207.263 401.868 206.541 402.121C205.819 402.374 205.135 402.59 204.489 402.767C204.299 402.526 204.046 402.248 203.729 401.931C203.425 401.627 203.146 401.367 202.893 401.152C203.564 401 204.248 400.81 204.945 400.582C205.654 400.341 206.326 400.082 206.959 399.803C207.592 399.524 208.105 399.265 208.498 399.024ZM223.128 390.759H237.91V393.001H223.128V390.759ZM221.874 399.651H239.183V401.893H221.874V399.651ZM229.246 384.888H231.697V401.19H229.246V384.888ZM243.477 397.181H255.865V398.967H243.477V397.181ZM243.971 394.122H256.72V396.022H243.971V394.122ZM241.121 400.259H257.936V402.216H241.121V400.259ZM248.398 392.963H250.754V401.608H248.398V392.963ZM245.206 389.866V390.892H253.642V389.866H245.206ZM245.206 387.263V388.251H253.642V387.263H245.206ZM242.964 385.534H255.998V392.621H242.964V385.534ZM243.952 392.431L246.175 393.077C245.896 393.698 245.561 394.306 245.168 394.901C244.775 395.496 244.357 396.054 243.914 396.573C243.471 397.092 243.034 397.542 242.603 397.922C242.451 397.783 242.261 397.624 242.033 397.447C241.805 397.27 241.571 397.099 241.33 396.934C241.089 396.757 240.874 396.617 240.684 396.516C241.343 396.022 241.963 395.414 242.546 394.692C243.141 393.957 243.61 393.204 243.952 392.431Z" fill="black"/>
<path d="M183.501 35.522H199.575V51.007H197.162V37.726H185.8V51.159H183.501V35.522ZM184.717 47.72H198.416V49.905H184.717V47.72ZM192.146 37.118H194.369V42.4C194.369 42.6913 194.388 42.8623 194.426 42.913C194.489 42.9763 194.591 43.008 194.73 43.008C194.793 43.008 194.876 43.008 194.977 43.008C195.078 43.008 195.161 43.008 195.224 43.008C195.287 43.008 195.351 43.0017 195.414 42.989C195.49 42.9763 195.547 42.9573 195.585 42.932C195.623 42.9067 195.661 42.8687 195.699 42.818C195.75 42.7547 195.781 42.6597 195.794 42.533C195.819 42.4063 195.832 42.21 195.832 41.944C195.845 41.6653 195.857 41.3487 195.87 40.994C196.073 41.1713 196.339 41.3487 196.668 41.526C197.01 41.7033 197.327 41.8363 197.618 41.925C197.593 42.305 197.555 42.685 197.504 43.065C197.466 43.4323 197.409 43.7047 197.333 43.882C197.244 44.072 197.137 44.2303 197.01 44.357C196.896 44.471 196.744 44.5723 196.554 44.661C196.402 44.737 196.212 44.794 195.984 44.832C195.769 44.8573 195.566 44.87 195.376 44.87C195.262 44.87 195.129 44.87 194.977 44.87C194.825 44.87 194.673 44.87 194.521 44.87C194.382 44.87 194.255 44.87 194.141 44.87C193.888 44.87 193.628 44.832 193.362 44.756C193.096 44.68 192.868 44.5597 192.678 44.395C192.501 44.2303 192.368 44.0087 192.279 43.73C192.19 43.4513 192.146 42.989 192.146 42.343V37.118ZM188.308 37.08H190.531C190.493 38.3847 190.385 39.5943 190.208 40.709C190.031 41.8237 189.714 42.8243 189.258 43.711C188.802 44.5977 188.112 45.3577 187.187 45.991C187.06 45.725 186.858 45.4273 186.579 45.098C186.3 44.756 186.034 44.4837 185.781 44.281C186.528 43.787 187.073 43.1853 187.415 42.476C187.757 41.754 187.985 40.9433 188.099 40.044C188.213 39.132 188.283 38.144 188.308 37.08ZM217.625 42.457L219.354 43.597C218.974 44.0403 218.581 44.49 218.176 44.946C217.783 45.402 217.429 45.7883 217.112 46.105L215.725 45.117C215.928 44.8763 216.143 44.604 216.371 44.3C216.612 43.996 216.84 43.6857 217.055 43.369C217.283 43.0397 217.473 42.7357 217.625 42.457ZM209.132 43.635L210.69 42.609C211.032 42.9763 211.38 43.3943 211.735 43.863C212.09 44.319 212.349 44.7307 212.514 45.098L210.861 46.238C210.709 45.8707 210.462 45.4463 210.12 44.965C209.791 44.471 209.461 44.0277 209.132 43.635ZM209.664 34.553H217.682V40.975H215.459V36.396H209.664V34.553ZM210.12 37.346H216.694V39.113H210.12V37.346ZM208.771 40.12H219.259V42.02H208.771V40.12ZM212.932 40.975H215.041V49.525C215.041 50.0063 214.99 50.3863 214.889 50.665C214.788 50.9563 214.579 51.178 214.262 51.33C213.971 51.4947 213.61 51.596 213.179 51.634C212.761 51.6847 212.267 51.71 211.697 51.71C211.672 51.4187 211.602 51.083 211.488 50.703C211.374 50.3357 211.254 50.0127 211.127 49.734C211.444 49.7467 211.748 49.7593 212.039 49.772C212.343 49.772 212.546 49.7657 212.647 49.753C212.837 49.753 212.932 49.6643 212.932 49.487V40.975ZM208.03 48.689C208.537 48.4103 209.151 48.0493 209.873 47.606C210.595 47.15 211.33 46.6813 212.077 46.2L212.78 47.91C212.172 48.3787 211.545 48.8473 210.899 49.316C210.266 49.772 209.67 50.2027 209.113 50.608L208.03 48.689ZM214.965 42.02C215.079 42.6407 215.25 43.2867 215.478 43.958C215.706 44.6167 215.997 45.269 216.352 45.915C216.707 46.5483 217.144 47.131 217.663 47.663C218.195 48.1823 218.822 48.613 219.544 48.955C219.405 49.0817 219.246 49.2527 219.069 49.468C218.892 49.6833 218.721 49.905 218.556 50.133C218.391 50.3737 218.258 50.589 218.157 50.779C217.473 50.361 216.878 49.848 216.371 49.24C215.877 48.632 215.453 47.9797 215.098 47.283C214.743 46.5737 214.452 45.8707 214.224 45.174C214.009 44.4773 213.838 43.8313 213.711 43.236L214.965 42.02ZM204.401 33.869L206.377 34.572C206.124 35.066 205.858 35.5727 205.579 36.092C205.3 36.5987 205.028 37.0927 204.762 37.574C204.496 38.0427 204.243 38.4543 204.002 38.809L202.482 38.182C202.71 37.7893 202.944 37.346 203.185 36.852C203.426 36.358 203.654 35.845 203.869 35.313C204.097 34.781 204.274 34.2997 204.401 33.869ZM206.548 36.13L208.41 36.966C207.941 37.6753 207.435 38.4227 206.89 39.208C206.345 39.9933 205.801 40.747 205.256 41.469C204.711 42.191 204.192 42.8243 203.698 43.369L202.387 42.647C202.742 42.2163 203.109 41.735 203.489 41.203C203.882 40.6583 204.262 40.0947 204.629 39.512C205.009 38.9167 205.364 38.3277 205.693 37.745C206.022 37.1623 206.307 36.624 206.548 36.13ZM201.475 38.315L202.596 36.776C202.913 37.08 203.242 37.4093 203.584 37.764C203.926 38.1187 204.243 38.4733 204.534 38.828C204.825 39.1827 205.041 39.512 205.18 39.816L203.964 41.545C203.825 41.241 203.616 40.899 203.337 40.519C203.071 40.139 202.773 39.759 202.444 39.379C202.115 38.9863 201.792 38.6317 201.475 38.315ZM205.902 40.671L207.498 40.025C207.751 40.443 207.992 40.899 208.22 41.393C208.448 41.887 208.651 42.3683 208.828 42.837C209.005 43.293 209.132 43.7047 209.208 44.072L207.479 44.832C207.428 44.4647 207.321 44.0403 207.156 43.559C206.991 43.0777 206.801 42.59 206.586 42.096C206.371 41.5893 206.143 41.1143 205.902 40.671ZM201.418 42.191C202.267 42.153 203.267 42.1023 204.42 42.039C205.573 41.963 206.744 41.887 207.935 41.811L207.973 43.673C206.858 43.7617 205.744 43.8503 204.629 43.939C203.527 44.015 202.533 44.091 201.646 44.167L201.418 42.191ZM206.434 45.44L208.011 44.965C208.239 45.4843 208.442 46.0607 208.619 46.694C208.809 47.3273 208.929 47.8657 208.98 48.309L207.289 48.86C207.251 48.404 207.15 47.8593 206.985 47.226C206.833 46.58 206.649 45.9847 206.434 45.44ZM202.235 45.022L204.059 45.345C203.958 46.257 203.806 47.1563 203.603 48.043C203.413 48.917 203.185 49.658 202.919 50.266C202.792 50.1773 202.628 50.0823 202.425 49.981C202.222 49.8797 202.013 49.7847 201.798 49.696C201.583 49.5947 201.399 49.5187 201.247 49.468C201.526 48.898 201.741 48.214 201.893 47.416C202.045 46.618 202.159 45.82 202.235 45.022ZM204.306 43.217H206.282V51.71H204.306V43.217ZM221.159 38.296H237.879V40.557H221.159V38.296ZM228.284 33.869H230.716V51.71H228.284V33.869ZM227.79 39.531L229.804 40.215C229.373 41.2157 228.879 42.1847 228.322 43.122C227.765 44.0593 227.15 44.946 226.479 45.782C225.82 46.618 225.111 47.3907 224.351 48.1C223.604 48.7967 222.818 49.3983 221.995 49.905C221.868 49.715 221.704 49.4997 221.501 49.259C221.298 49.0183 221.089 48.784 220.874 48.556C220.659 48.3153 220.462 48.119 220.285 47.967C221.07 47.5363 221.83 47.017 222.565 46.409C223.312 45.7883 224.015 45.1107 224.674 44.376C225.333 43.6287 225.922 42.8433 226.441 42.02C226.973 41.1967 227.423 40.367 227.79 39.531ZM231.153 39.626C231.52 40.4367 231.976 41.241 232.521 42.039C233.066 42.837 233.667 43.597 234.326 44.319C234.997 45.041 235.7 45.706 236.435 46.314C237.17 46.922 237.923 47.435 238.696 47.853C238.519 47.9923 238.316 48.1823 238.088 48.423C237.873 48.651 237.664 48.8917 237.461 49.145C237.271 49.3983 237.113 49.6263 236.986 49.829C236.188 49.3223 235.422 48.727 234.687 48.043C233.952 47.3463 233.249 46.5863 232.578 45.763C231.907 44.927 231.292 44.0467 230.735 43.122C230.178 42.1973 229.677 41.2537 229.234 40.291L231.153 39.626ZM242.477 46.181H254.865V47.967H242.477V46.181ZM242.971 43.122H255.72V45.022H242.971V43.122ZM240.121 49.259H256.936V51.216H240.121V49.259ZM247.398 41.963H249.754V50.608H247.398V41.963ZM244.206 38.866V39.892H252.642V38.866H244.206ZM244.206 36.263V37.251H252.642V36.263H244.206ZM241.964 34.534H254.998V41.621H241.964V34.534ZM242.952 41.431L245.175 42.077C244.896 42.6977 244.561 43.3057 244.168 43.901C243.775 44.4963 243.357 45.0537 242.914 45.573C242.471 46.0923 242.034 46.542 241.603 46.922C241.451 46.7827 241.261 46.6243 241.033 46.447C240.805 46.2697 240.571 46.0987 240.33 45.934C240.089 45.7567 239.874 45.6173 239.684 45.516C240.343 45.022 240.963 44.414 241.546 43.692C242.141 42.9573 242.61 42.2037 242.952 41.431Z" fill="black"/>
<path d="M208.762 196.444H211.513C211.499 198.11 211.464 199.734 211.408 201.316C211.352 202.884 211.212 204.382 210.988 205.81C210.764 207.224 210.4 208.554 209.896 209.8C209.392 211.032 208.685 212.166 207.775 213.202C206.879 214.224 205.717 215.12 204.289 215.89C204.177 215.68 204.016 215.442 203.806 215.176C203.596 214.924 203.372 214.672 203.134 214.42C202.91 214.182 202.686 213.993 202.462 213.853C203.792 213.167 204.856 212.376 205.654 211.48C206.466 210.584 207.089 209.597 207.523 208.519C207.957 207.427 208.258 206.244 208.426 204.97C208.594 203.696 208.685 202.345 208.699 200.917C208.727 199.489 208.748 197.998 208.762 196.444ZM203.533 201.316H216.448V203.857H203.533V201.316ZM215.062 201.316H217.687V212.11C217.687 212.558 217.722 212.845 217.792 212.971C217.862 213.083 218.023 213.139 218.275 213.139C218.331 213.139 218.422 213.139 218.548 213.139C218.674 213.139 218.814 213.139 218.968 213.139C219.122 213.139 219.262 213.139 219.388 213.139C219.528 213.139 219.626 213.139 219.682 213.139C219.864 213.139 219.997 213.055 220.081 212.887C220.165 212.719 220.228 212.404 220.27 211.942C220.312 211.48 220.347 210.808 220.375 209.926C220.585 210.08 220.823 210.227 221.089 210.367C221.369 210.507 221.656 210.64 221.95 210.766C222.244 210.878 222.51 210.962 222.748 211.018C222.678 212.152 222.545 213.055 222.349 213.727C222.153 214.385 221.866 214.854 221.488 215.134C221.11 215.428 220.599 215.575 219.955 215.575C219.843 215.575 219.689 215.575 219.493 215.575C219.297 215.575 219.087 215.575 218.863 215.575C218.639 215.575 218.429 215.575 218.233 215.575C218.051 215.575 217.911 215.575 217.813 215.575C217.127 215.575 216.581 215.47 216.175 215.26C215.783 215.064 215.496 214.714 215.314 214.21C215.146 213.706 215.062 212.999 215.062 212.089V201.316ZM232.156 210.01H234.76V215.89H232.156V210.01ZM223.945 209.128C224.967 209.128 226.129 209.128 227.431 209.128C228.733 209.114 230.119 209.1 231.589 209.086C233.059 209.058 234.571 209.037 236.125 209.023C237.679 208.995 239.219 208.974 240.745 208.96L240.619 210.955C239.121 211.011 237.609 211.06 236.083 211.102C234.571 211.144 233.087 211.186 231.631 211.228C230.189 211.256 228.817 211.291 227.515 211.333C226.227 211.361 225.065 211.382 224.029 211.396L223.945 209.128ZM231.673 203.374L234.004 204.298C233.36 204.9 232.674 205.481 231.946 206.041C231.232 206.587 230.567 207.049 229.951 207.427L228.019 206.524C228.425 206.244 228.852 205.929 229.3 205.579C229.762 205.215 230.196 204.844 230.602 204.466C231.008 204.074 231.365 203.71 231.673 203.374ZM236.146 204.655L238.624 205.663C237.798 206.307 236.902 206.937 235.936 207.553C234.984 208.169 234.032 208.75 233.08 209.296C232.128 209.842 231.232 210.318 230.392 210.724L228.481 209.695C229.335 209.275 230.231 208.778 231.169 208.204C232.121 207.63 233.031 207.035 233.899 206.419C234.767 205.789 235.516 205.201 236.146 204.655ZM226.045 206.671L227.851 205.201C228.425 205.439 229.02 205.712 229.636 206.02C230.266 206.314 230.868 206.615 231.442 206.923C232.016 207.217 232.513 207.49 232.933 207.742L231.106 209.401C230.714 209.135 230.224 208.841 229.636 208.519C229.062 208.183 228.46 207.854 227.83 207.532C227.214 207.21 226.619 206.923 226.045 206.671ZM236.02 212.803L238.204 211.648C238.75 211.914 239.317 212.222 239.905 212.572C240.493 212.908 241.06 213.251 241.606 213.601C242.166 213.937 242.642 214.238 243.034 214.504L240.787 215.827C240.423 215.533 239.968 215.204 239.422 214.84C238.876 214.49 238.302 214.133 237.7 213.769C237.112 213.391 236.552 213.069 236.02 212.803ZM228.355 211.69L230.749 212.614C230.329 213.02 229.832 213.426 229.258 213.832C228.698 214.238 228.117 214.616 227.515 214.966C226.927 215.316 226.36 215.624 225.814 215.89C225.66 215.736 225.457 215.547 225.205 215.323C224.967 215.113 224.715 214.903 224.449 214.693C224.197 214.497 223.973 214.336 223.777 214.21C224.617 213.902 225.457 213.524 226.297 213.076C227.137 212.628 227.823 212.166 228.355 211.69ZM236.755 207.847L238.918 206.902C239.436 207.308 239.975 207.763 240.535 208.267C241.109 208.771 241.648 209.275 242.152 209.779C242.656 210.283 243.069 210.745 243.391 211.165L241.039 212.215C240.759 211.809 240.381 211.354 239.905 210.85C239.443 210.332 238.932 209.814 238.372 209.296C237.812 208.764 237.273 208.281 236.755 207.847ZM229.447 197.998H233.395V199.993H229.447V197.998ZM234.151 196.15H236.65V201.505C236.65 201.841 236.706 202.058 236.818 202.156C236.944 202.24 237.217 202.282 237.637 202.282C237.735 202.282 237.896 202.282 238.12 202.282C238.344 202.282 238.589 202.282 238.855 202.282C239.121 202.282 239.373 202.282 239.611 202.282C239.849 202.282 240.024 202.282 240.136 202.282C240.374 202.282 240.549 202.247 240.661 202.177C240.787 202.093 240.878 201.939 240.934 201.715C240.99 201.477 241.032 201.134 241.06 200.686C241.312 200.854 241.655 201.022 242.089 201.19C242.523 201.344 242.915 201.456 243.265 201.526C243.167 202.296 243.013 202.898 242.803 203.332C242.593 203.752 242.299 204.046 241.921 204.214C241.543 204.382 241.032 204.466 240.388 204.466C240.276 204.466 240.115 204.466 239.905 204.466C239.709 204.466 239.485 204.466 239.233 204.466C238.981 204.466 238.722 204.466 238.456 204.466C238.204 204.466 237.973 204.466 237.763 204.466C237.567 204.466 237.42 204.466 237.322 204.466C236.468 204.466 235.81 204.375 235.348 204.193C234.9 204.011 234.585 203.71 234.403 203.29C234.235 202.856 234.151 202.268 234.151 201.526V196.15ZM223.693 202.576C224.505 202.506 225.443 202.415 226.507 202.303C227.585 202.177 228.719 202.044 229.909 201.904C231.113 201.764 232.31 201.624 233.5 201.484L233.563 203.458C232.429 203.626 231.281 203.794 230.119 203.962C228.957 204.116 227.844 204.27 226.78 204.424C225.73 204.564 224.771 204.697 223.903 204.823L223.693 202.576ZM240.808 197.158L242.677 198.922C242.005 199.216 241.277 199.489 240.493 199.741C239.723 199.979 238.932 200.203 238.12 200.413C237.308 200.609 236.524 200.784 235.768 200.938C235.726 200.686 235.628 200.385 235.474 200.035C235.334 199.671 235.194 199.37 235.054 199.132C235.74 198.95 236.44 198.754 237.154 198.544C237.868 198.334 238.54 198.11 239.17 197.872C239.8 197.634 240.346 197.396 240.808 197.158ZM228.418 196.15H230.749V203.29L228.418 203.458V196.15ZM224.995 197.704H227.158V203.479L224.995 203.668V197.704ZM205.717 225.329L208.258 225.896C208.146 226.764 207.985 227.611 207.775 228.437C207.579 229.263 207.299 230.033 206.935 230.747C206.571 231.447 206.088 232.049 205.486 232.553L203.197 231.125C203.715 230.691 204.135 230.18 204.457 229.592C204.793 228.99 205.059 228.332 205.255 227.618C205.465 226.89 205.619 226.127 205.717 225.329ZM218.611 225.308L221.404 226.358C221.04 227.03 220.662 227.723 220.27 228.437C219.878 229.137 219.486 229.809 219.094 230.453C218.716 231.083 218.345 231.636 217.981 232.112L215.818 231.146C216.14 230.628 216.476 230.033 216.826 229.361C217.19 228.689 217.526 228.003 217.834 227.303C218.142 226.589 218.401 225.924 218.611 225.308ZM212.395 221.444H213.76V228.038C213.76 228.556 213.816 229.123 213.928 229.739C214.054 230.355 214.25 230.985 214.516 231.629C214.782 232.273 215.132 232.917 215.566 233.561C216.014 234.205 216.553 234.828 217.183 235.43C217.813 236.032 218.548 236.599 219.388 237.131C220.242 237.649 221.215 238.111 222.307 238.517C222.111 238.699 221.901 238.93 221.677 239.21C221.453 239.49 221.236 239.777 221.026 240.071C220.83 240.365 220.669 240.631 220.543 240.869C219.535 240.463 218.625 239.98 217.813 239.42C217.001 238.86 216.28 238.272 215.65 237.656C215.034 237.026 214.502 236.396 214.054 235.766C213.606 235.136 213.242 234.541 212.962 233.981C212.696 233.421 212.5 232.931 212.374 232.511C212.276 232.945 212.094 233.442 211.828 234.002C211.576 234.562 211.233 235.157 210.799 235.787C210.379 236.403 209.868 237.019 209.266 237.635C208.678 238.251 207.985 238.839 207.187 239.399C206.403 239.959 205.521 240.449 204.541 240.869C204.429 240.673 204.268 240.442 204.058 240.176C203.848 239.91 203.624 239.644 203.386 239.378C203.148 239.112 202.938 238.895 202.756 238.727C204.03 238.251 205.129 237.677 206.053 237.005C206.991 236.319 207.775 235.591 208.405 234.821C209.035 234.051 209.539 233.267 209.917 232.469C210.309 231.657 210.589 230.88 210.757 230.138C210.939 229.382 211.03 228.682 211.03 228.038V221.444H212.395ZM226.843 234.779H240.535V236.753H226.843V234.779ZM227.389 231.398H241.48V233.498H227.389V231.398ZM224.239 238.181H242.824V240.344H224.239V238.181ZM232.282 230.117H234.886V239.672H232.282V230.117ZM228.754 226.694V227.828H238.078V226.694H228.754ZM228.754 223.817V224.909H238.078V223.817H228.754ZM226.276 221.906H240.682V229.739H226.276V221.906ZM227.368 229.529L229.825 230.243C229.517 230.929 229.146 231.601 228.712 232.259C228.278 232.917 227.816 233.533 227.326 234.107C226.836 234.681 226.353 235.178 225.877 235.598C225.709 235.444 225.499 235.269 225.247 235.073C224.995 234.877 224.736 234.688 224.47 234.506C224.204 234.31 223.966 234.156 223.756 234.044C224.484 233.498 225.17 232.826 225.814 232.028C226.472 231.216 226.99 230.383 227.368 229.529Z" fill="white"/>
<defs>
<linearGradient id="paint0_linear_2_104" x1="220.75" y1="26" x2="220.75" y2="412.5" gradientUnits="userSpaceOnUse">
<stop stop-color="#FFFBA7"/>
<stop offset="1" stop-color="#FDFAEC"/>
</linearGradient>
<linearGradient id="paint1_linear_2_104" x1="221" y1="64" x2="221" y2="374" gradientUnits="userSpaceOnUse">
<stop stop-color="#FFFDDC"/>
<stop offset="1" stop-color="#E3F8FF"/>
</linearGradient>
<linearGradient id="paint2_linear_2_104" x1="221" y1="109" x2="221" y2="329" gradientUnits="userSpaceOnUse">
<stop stop-color="#C8EEFF"/>
<stop offset="1" stop-color="#E1F3FF"/>
</linearGradient>
<linearGradient id="paint3_linear_2_104" x1="221" y1="154" x2="221" y2="284" gradientUnits="userSpaceOnUse">
<stop stop-color="#58C7FF"/>
<stop offset="1" stop-color="#9FE0FF"/>
</linearGradient>
</defs>
</svg>
